<svg xmlns="http://www.w3.org/2000/svg" width="1158" height="352" viewBox="0 0 1158 352" fill="none"><g clip-path="url(#clip0_1_72)"><path d="M0 349.84C0.983113 348.582 17.2124 295.075 19.1943 288.705L78.8063 97.3887L98.922 32.6635C101.836 23.324 104.784 13.9966 107.635 4.638C107.968 3.54228 108.926 0.484267 110.302 0.666697C112.246 2.57513 119.406 27.3012 120.624 31.203L138.593 88.9152L193.755 266.007L205.352 303.322C206.269 306.227 209.633 318.267 210.904 319.862C221.51 333.18 241.312 344.39 257.503 347.58C273.995 350.83 286.365 349.145 302.557 349.542C308.565 349.185 316.03 350.187 321.918 349.222C344.655 345.495 356.905 314.262 360.483 295.47C366.75 262.56 364.56 225.301 346.492 196.581C342.045 189.508 334.848 182.506 327.022 179.569C320.53 177.262 311.818 178.307 304.783 178.122C289.965 177.733 272.38 179.255 258.005 176.344C234.797 171.647 214.423 157.882 201.405 138.103C174.192 97.0947 186.377 41.8777 227.066 15.1206C251.445 -0.911418 274.315 0.63571 302.08 0.97507C313.525 1.11494 324.848 0.259832 336.147 2.61278C357.4 6.67868 379.105 20.4741 391.06 38.787C390.763 34.0565 390.48 3.7925 391.552 1.16608C393.223 0.803917 400.168 0.926267 402.168 0.932155L422.47 0.980202L506 0.997592V3.74155C503.217 3.455 498.492 3.61195 495.598 3.6218L477.39 3.6627L425.81 3.68758C424.47 3.6909 414.392 3.53738 413.922 3.68121C414.392 4.42656 417.133 5.65285 418.188 6.29866C424.837 10.4498 429.87 16.7489 432.45 24.1519C433.695 27.717 434.348 31.0587 434.41 34.834C434.58 45.1117 434.475 55.5025 434.475 65.7835L434.47 125.772L434.478 158.971C434.483 162.425 434.738 172.279 434.32 175.255L477.88 175.239C485.13 175.239 492.492 175.22 499.75 175.26C500.608 175.265 501.64 175.413 502.367 175.892L502.69 176.451C502.548 176.957 502.342 177.413 501.795 177.545C497.528 178.577 490.33 178.114 486.125 178.111L461.902 178.119L443.885 178.134C440.915 178.14 437.18 178.321 434.297 178.085C434.64 181.683 434.478 187.541 434.48 191.278V214.175L434.473 287.767L434.475 332.927C434.48 335.52 434.673 350.297 434.283 352H391.015C390.818 343.055 391.038 334.015 390.93 325.06C390.89 321.812 390.755 317.96 391.108 314.79C388.16 318.325 386.697 320.712 383.177 324.525C372.922 335.41 360.095 343.54 345.875 348.165C342.797 349.15 339.673 349.972 336.51 350.632C334.79 350.992 331.628 351.32 330.155 352H264.315C263.32 351.492 258.988 350.752 257.543 350.462C239.977 346.947 224.476 338.267 211.882 325.497C213.312 328.557 219.691 348.41 220.11 352H174.964C173.8 348.987 172.699 345.035 171.715 341.862L166.465 324.972L150.071 272.347L109.25 141.21C102.507 119.587 95.7968 96.6845 88.6608 75.2615C87.334 80.4825 85.4287 86.2615 83.8158 91.4292L76.3643 115.311L52.557 191.745L19.8033 296.842L8.95352 331.655C6.88402 338.305 4.7884 345.435 2.54708 352H0V349.84ZM368.927 190.728C377.695 197.262 384.985 203.765 391.087 213.022C390.835 207.743 390.965 201.544 390.965 196.199L390.96 168.067V81.848L390.98 58.2752C390.983 55.4277 391.195 45.5605 390.505 43.6705C388.703 38.7497 380.015 29.6662 376.085 26.0862C362.51 13.6637 345.283 5.96366 326.973 4.13516C323.115 3.76561 319.045 3.67388 315.155 3.67693C301.715 3.6874 288.255 3.49908 274.82 3.80293C274.65 3.8068 274.622 3.81753 274.405 3.8507C265.995 4.41173 258.025 9.22256 252.637 15.6939C234.441 37.5515 229.242 70.2952 230.676 98.0075C231.91 121.838 238.643 150.069 256.415 167.091C265.83 176.108 275.365 175.277 287.375 175.255L310.033 175.232C334.32 175.233 347.882 177.293 368.927 190.728Z" fill="#DDA695"></path></g><path d="M847.648 200.867C848.38 201.181 848.642 201.703 848.433 202.488C848.223 203.324 847.805 204.108 847.23 204.997C846.655 205.886 846.08 206.618 845.61 207.193C845.4 207.402 845.244 207.611 845.191 207.715C840.957 213.623 837.297 219.792 834.213 226.222C831.181 232.6 828.253 239.082 825.483 245.721C824.385 248.335 823.287 250.897 822.189 253.458C819.732 259.104 817.275 264.803 814.87 270.449C810.845 280.277 806.61 289.948 802.114 299.62C800.598 302.966 798.769 306.207 796.782 309.448C795.161 312.062 792.757 313.317 789.463 313.264C786.745 313.317 785.124 312.114 784.549 309.553C783.974 307.357 783.608 305.109 783.556 302.809C783.19 294.078 783.399 285.4 784.235 276.774C784.706 270.815 785.229 264.855 785.647 258.895C786.065 252.517 786.588 246.087 787.163 239.605C788.365 225.019 789.777 210.382 791.293 195.691C793.07 178.91 794.952 162.181 796.834 145.505C800.18 117.275 803.16 88.9401 805.774 60.4486C805.931 58.6712 805.931 57.1551 805.878 56.1096C805.774 54.9594 805.565 54.5412 805.094 54.8026C804.676 55.1163 803.944 56.4232 803.003 58.828C794.586 83.0849 786.797 107.551 779.687 132.226C779.374 133.115 779.164 133.951 778.903 134.84C774.616 149.53 770.277 164.116 765.938 178.649C764.317 184.295 762.435 190.045 760.292 195.848C758.149 201.599 755.692 207.036 752.869 212.211C752.032 213.675 750.987 214.668 749.575 215.243C748.164 215.766 746.648 215.923 744.87 215.662C743.145 215.505 741.838 214.668 740.949 213.152C740.217 211.636 739.799 210.016 739.642 208.238C739.433 206.252 739.224 204.265 738.963 202.122C738.44 197.626 738.022 193.078 737.656 188.529C736.61 175.983 735.303 163.331 733.63 150.628C732.01 137.872 729.919 125.325 727.305 112.936C726.573 109.747 725.527 109.851 724.168 113.145C722.757 116.438 721.241 121.98 719.463 129.821C717.738 137.611 715.856 146.55 713.922 156.744C711.935 166.834 710.053 177.185 708.276 187.693C706.446 198.149 704.773 207.715 703.257 216.446C701.009 229.933 699.493 238.559 698.656 242.271C697.977 244.885 697.088 247.394 695.938 249.799C695.415 250.897 694.683 251.576 693.742 251.995C692.854 252.361 691.86 252.465 690.71 252.308C688.462 251.995 687.051 250.688 686.58 248.388C686.371 247.133 686.267 245.93 686.267 244.676C686.162 243.63 686.162 242.637 686.162 241.644C685.953 237.723 685.796 233.75 685.744 229.777C685.169 199.142 685.326 168.507 686.267 137.872C686.842 118.425 687.417 98.9774 687.992 79.4778V73.1521C687.887 71.1656 687.887 69.179 687.992 67.0356C687.992 65.4673 688.515 64.3695 689.612 63.7421C690.763 63.0625 692.069 63.0625 693.533 63.7421C694.108 63.9512 694.527 64.2649 694.736 64.7354C694.945 65.2059 695.102 65.6764 695.154 66.2515C695.833 71.5838 696.043 76.9161 695.833 82.2485C695.729 85.4374 695.624 88.6787 695.52 91.9199C695.311 100.703 694.997 109.485 694.631 118.268C694.213 129.612 693.899 140.904 693.847 152.144C693.638 160.508 693.429 168.873 693.324 177.185C693.115 186.072 693.01 194.907 693.115 203.742C693.115 209.806 693.063 215.923 693.01 222.144C693.01 222.51 693.01 223.085 693.115 223.869C693.167 224.601 693.272 225.385 693.429 226.169C693.638 226.954 693.795 227.633 693.951 228.156C694.161 228.626 694.37 228.731 694.631 228.47C694.84 228.261 695.102 227.424 695.415 226.065C695.99 222.144 696.67 217.753 697.506 212.786C699.284 201.181 701.427 188.373 703.832 174.467C706.289 160.456 709.06 147.23 712.092 134.84C715.176 122.346 718.522 112.674 722.129 105.774C723.645 103.316 725.527 102.114 727.671 102.166C729.919 102.271 731.696 103.578 733.003 106.192C734.78 110.479 736.297 115.654 737.447 121.771C738.649 127.887 739.695 134.265 740.479 140.852C741.368 147.387 742.047 153.555 742.674 159.358C742.936 162.495 743.25 165.37 743.563 167.984C743.981 172.062 744.4 175.774 744.766 179.224C745.55 187.275 746.334 193.548 747.066 198.044C747.798 202.54 748.739 204.788 749.889 204.788C751.039 204.788 752.764 202.017 754.907 196.423C756.999 190.83 759.874 181.942 763.533 169.762C766.879 158.417 769.964 147.544 772.891 137.088C776.707 123.234 780.733 109.485 784.863 95.7885C788.993 82.0394 793.854 67.8198 799.448 52.9729C801.017 48.6861 802.742 45.1835 804.571 42.4128C806.349 39.5897 808.126 38.126 809.799 38.0737C810.479 37.9169 811.106 38.0214 811.786 38.2828C812.465 38.4919 812.988 39.2238 813.511 40.4785C813.981 41.7331 814.295 43.772 814.295 46.595C814.452 51.4045 814.295 56.1618 813.981 60.9714C813.668 65.781 813.302 70.5382 812.884 75.2433V76.8639C810.479 101.33 807.813 125.744 804.937 150.157C803.055 166.154 801.278 182.047 799.605 197.992C799.605 198.358 799.553 198.776 799.5 199.194C797.88 213.989 796.468 228.836 795.161 243.735C794.011 256.7 792.913 269.769 792.025 282.839C791.92 283.989 791.868 285.191 791.816 286.446C791.607 289.792 791.45 293.137 791.397 296.483V300.09C791.293 300.456 791.345 300.77 791.502 300.979C791.659 301.188 791.92 301.293 792.391 301.293C792.548 301.293 792.652 301.24 792.809 301.188C793.018 301.084 793.175 300.927 793.227 300.665C797.514 291.778 801.644 282.943 805.774 274.213C809.59 265.691 813.511 257.222 817.536 248.701C821.614 240.284 825.849 231.868 830.397 223.556C834.108 216.55 837.507 210.904 840.643 206.774C843.832 202.592 846.132 200.658 847.596 201.024L847.648 200.867Z" fill="black"></path><path d="M873.578 206.722C872.532 208.761 870.807 211.061 868.35 213.571C865.945 216.132 863.227 217.753 860.195 218.485C857.163 219.164 854.235 218.066 851.464 215.191C850.367 213.989 849.582 212.525 849.06 210.957C848.537 209.388 848.328 207.82 848.537 206.252V204.631C848.537 202.958 848.589 201.024 848.746 198.88C848.903 196.685 849.217 194.75 849.739 192.973C850.21 191.248 850.994 190.202 852.04 189.836C855.124 189.052 856.849 190.15 857.058 193.13V195.848C856.954 196.371 856.954 196.842 856.954 197.26C856.849 198.671 856.797 199.978 856.745 201.285C856.745 202.383 856.692 203.481 856.64 204.579C856.535 209.336 857.581 212.107 859.672 212.943C861.868 213.832 864.325 212.891 867.096 210.12C869.866 207.349 871.801 204.997 872.637 203.167C873.526 201.39 874.101 200.972 874.467 202.069C874.885 203.115 874.624 204.631 873.578 206.774V206.722ZM856.483 179.851C856.065 180.217 855.49 180.479 854.863 180.635C854.287 180.74 853.765 180.635 853.346 180.426C852.981 180.165 852.719 179.747 852.562 179.329C852.458 178.858 852.458 178.231 852.458 177.603C852.458 177.447 852.458 177.342 852.562 177.185C852.615 176.61 852.771 176.035 852.981 175.46C853.66 173.944 854.967 173.264 857.006 173.369C857.738 173.473 858.261 173.735 858.627 174.258C859.045 174.676 859.149 175.251 858.94 175.878C858.522 177.499 857.686 178.806 856.431 179.904L856.483 179.851Z" fill="black"></path><path d="M916.969 207.715C919.478 203.742 920.994 201.233 921.412 200.187C921.883 199.09 922.301 199.142 922.51 200.292C922.772 201.442 921.987 204.108 920.105 208.238C918.276 212.316 915.976 215.505 913.153 217.7C910.382 219.896 907.768 220.68 905.311 220.105C902.906 219.53 901.181 217.857 900.188 215.087C899.142 212.316 898.828 208.865 899.194 204.631C899.194 204.579 899.194 204.37 899.299 204.108C899.351 203.376 899.456 202.331 899.613 200.972C899.822 199.612 899.978 198.201 900.031 196.737C900.083 195.221 900.031 193.966 899.822 193.025C899.665 192.032 899.299 191.666 898.619 191.927C896.894 192.868 895.169 194.75 893.496 197.469C891.875 200.187 890.412 203.01 889.052 206.095C887.745 209.075 886.804 211.479 886.334 213.309C886.02 213.884 885.811 214.512 885.654 215.139C885.341 216.028 885.027 216.864 884.661 217.753C883.72 220.158 882.099 221.099 879.747 220.471C878.44 220.21 877.656 219.426 877.447 218.171C877.342 217.178 877.342 216.184 877.342 215.243C877.342 214.668 877.29 214.146 877.238 213.623C877.081 206.408 876.924 199.194 876.715 191.927C876.767 191.039 877.133 190.464 877.813 190.202C878.545 189.836 879.381 189.68 880.322 189.68C881.002 189.68 881.629 189.889 882.309 190.359C882.988 190.725 883.354 191.509 883.511 192.764C883.563 193.182 883.616 193.653 883.616 194.071C883.668 194.28 883.72 194.489 883.72 194.594C883.877 195.639 883.929 196.476 883.929 197.208C883.929 198.305 883.981 199.037 884.138 199.508C884.295 199.874 884.557 199.821 885.027 199.403C885.498 198.985 886.282 197.939 887.327 196.371C889.209 193.548 891.509 191.091 894.176 189.052C896.685 187.327 899.456 186.595 902.436 186.857C904.945 187.066 906.67 188.425 907.559 190.882C907.925 192.137 908.082 193.339 908.082 194.594C908.082 195.848 907.977 197.103 907.872 198.41C907.768 199.717 907.663 201.024 907.559 202.331C907.454 202.749 907.402 203.219 907.35 203.638C906.931 208.29 907.036 211.427 907.768 212.995C908.5 214.512 909.545 215.034 911.061 214.512C912.525 213.936 914.459 211.689 916.969 207.768V207.715Z" fill="black"></path><path d="M1000.46 202.697C1000.72 202.122 1001.19 201.808 1001.76 201.808C1002.44 201.756 1002.91 202.122 1003.28 202.906C1003.49 203.115 1003.33 203.69 1002.86 204.526C1002.44 205.415 1001.82 206.408 1001.03 207.559C1000.2 208.656 999.463 209.702 998.732 210.591C998.052 211.532 997.581 212.159 997.32 212.42C994.027 215.975 990.785 218.589 987.492 220.262C984.303 221.935 980.748 222.301 976.932 221.36C973.168 220.419 968.933 217.7 964.28 213.205C963.549 212.473 962.817 211.741 962.085 210.904C961.876 210.695 961.667 210.486 961.562 210.225C960.726 209.336 959.889 209.231 958.948 209.911C958.007 210.643 957.014 211.375 956.021 212.107C955.132 212.786 954.295 213.361 953.407 213.832C950.375 215.975 947.133 217.7 943.84 219.06C940.285 220.68 936.521 221.308 932.6 220.889C926.431 220.21 923.242 216.864 923.033 210.748C922.981 206.461 923.87 202.644 925.752 199.299C927.738 195.901 930.352 193.391 933.698 191.771C937.096 190.098 941.017 189.784 945.46 190.777C945.879 190.882 946.558 190.986 947.447 191.196C947.865 191.352 948.44 191.509 949.172 191.614C948.754 190.621 948.336 189.732 947.97 188.895C947.29 187.588 946.767 186.438 946.349 185.393C943.369 179.276 940.912 172.376 939.03 164.586C937.2 156.744 936.312 148.746 936.312 140.538C936.364 132.331 937.776 124.698 940.442 117.641C943.212 110.531 947.708 104.676 953.929 100.128C957.903 97.4614 962.032 95.9976 966.215 95.7885C970.501 95.5794 974.527 96.5203 978.291 98.6115C982.055 100.65 985.139 103.735 987.544 107.865C990.576 113.615 992.458 119.627 993.19 125.953C994.497 136.199 994.288 145.766 992.51 154.601C990.785 163.488 987.701 171.853 983.362 179.747C979.075 187.588 973.534 195.221 966.79 202.644C966.11 203.376 965.744 203.951 965.692 204.37C965.692 204.788 966.006 205.415 966.685 206.095C968.044 207.924 969.56 209.702 971.129 211.427C972.697 213.1 974.527 214.459 976.566 215.557C979.336 216.812 982.264 216.812 985.505 215.662C988.694 214.511 991.622 212.682 994.34 210.225C997.006 207.768 999.045 205.206 1000.35 202.488L1000.46 202.697ZM952.779 206.983C953.563 206.252 953.616 205.467 952.884 204.579C952.518 204.108 952.1 203.533 951.681 202.958C950.531 201.599 949.172 200.135 947.656 198.619C946.192 197.103 944.624 195.953 942.951 195.221C941.33 194.437 939.762 194.332 938.141 194.907C935.789 196.005 933.907 197.939 932.495 200.658C931.032 203.376 930.143 206.095 929.882 208.918C929.672 211.741 930.248 213.936 931.607 215.453C932.966 216.969 935.318 217.125 938.56 215.871C943.683 213.623 948.44 210.643 952.727 206.931L952.779 206.983ZM963.549 196.423C970.345 188.373 975.468 180.479 978.918 172.689C982.316 164.848 984.617 155.647 985.767 145.139C986.133 142.629 986.237 139.231 986.185 135.101C986.185 130.971 985.819 126.685 985.087 122.137C984.355 117.536 983.048 113.406 981.166 109.694C979.336 105.983 976.775 103.369 973.429 101.748C970.136 100.075 965.901 100.075 960.673 101.644C955.027 104.989 950.793 109.433 948.022 115.027C945.251 120.568 943.683 126.737 943.212 133.533C942.846 140.277 943.265 147.178 944.519 154.235C945.826 161.293 947.604 168.036 949.852 174.362C952.152 180.688 954.661 186.229 957.38 190.934C957.641 191.509 957.955 192.084 958.268 192.659C959 194.541 960.098 196.319 961.667 197.887C961.876 197.678 962.085 197.521 962.346 197.364C962.764 197.103 963.183 196.789 963.549 196.371V196.423Z" fill="black"></path><path d="M1055.56 207.715C1051.79 212.577 1048.19 215.714 1044.89 217.073C1041.6 218.485 1038.62 218.798 1035.95 218.171C1033.34 217.439 1031.04 216.289 1029.1 214.668C1027.22 213.1 1025.81 211.688 1024.97 210.538C1024.61 210.172 1024.35 209.963 1024.19 209.754C1026.6 213.518 1028.27 218.485 1029.21 224.549C1030.2 230.561 1030.2 235.893 1029.21 240.441C1028.27 243.839 1026.44 245.983 1023.77 246.871C1021.05 247.76 1018.23 247.028 1015.25 244.78C1013.58 243.317 1012.22 241.539 1011.23 239.448C1009.5 236.102 1008.19 232.6 1007.3 228.992C1006 223.765 1005.11 218.485 1004.69 213.204C1004.33 207.82 1004.22 202.435 1004.38 196.998C1004.64 189.261 1005.42 181.524 1006.68 173.892C1007.98 166.207 1009.66 158.574 1011.8 150.994C1013 146.132 1014.73 140.486 1016.92 134.108C1019.12 127.678 1021.84 121.457 1025.08 115.602C1028.32 109.747 1032.14 105.251 1036.53 102.114C1038.41 100.807 1040.5 99.9184 1042.75 99.5001C1048.55 98.5591 1052.68 99.2387 1055.03 101.591C1057.49 103.944 1058.64 107.394 1058.43 112.047C1058.22 116.7 1057.02 122.032 1054.93 128.044C1052.79 134.108 1050.17 140.329 1046.98 146.759C1043.85 153.137 1040.61 159.358 1037.16 165.266C1033.71 171.173 1030.57 176.349 1027.69 180.844C1024.87 185.288 1022.62 188.529 1021.05 190.516C1020.64 191.196 1020.11 191.875 1019.64 192.607C1019.33 192.973 1019.07 193.391 1018.75 193.809C1023.77 201.181 1028.16 206.199 1032.03 208.97C1035.95 211.688 1039.35 212.839 1042.28 212.577C1045.15 212.211 1047.66 211.166 1049.7 209.44C1051.74 207.663 1053.41 205.833 1054.72 204.004C1056.03 202.226 1057.02 201.285 1057.65 201.285C1058.64 201.599 1058.85 202.383 1058.17 203.69C1057.6 204.945 1056.71 206.252 1055.56 207.715ZM1013.84 185.393C1013.53 187.536 1013.58 188.843 1013.94 189.418C1014.36 189.941 1015.3 189.157 1016.77 187.118C1019.02 184.086 1021.79 180.008 1025.03 174.833C1028.32 169.605 1031.72 163.854 1035.27 157.529C1038.83 151.203 1042.02 144.825 1044.84 138.343C1047.72 131.808 1049.81 125.744 1051.06 120.15C1052.37 114.504 1052.42 109.799 1051.27 105.983C1050.75 104.414 1049.75 103.421 1048.34 103.055C1046.88 102.689 1045.36 102.95 1043.74 103.839C1040.19 105.826 1036.95 109.328 1034.07 114.399C1031.14 119.47 1028.53 125.378 1026.23 132.069C1023.88 138.761 1021.89 145.557 1020.11 152.562C1018.44 159.515 1017.08 165.945 1015.98 171.748C1014.89 177.551 1014.15 182.151 1013.79 185.497L1013.84 185.393ZM1016.35 229.306C1017.66 234.22 1018.75 237.723 1019.75 239.866C1020.69 241.957 1021.32 242.166 1021.58 240.389C1021.94 238.716 1021.84 234.638 1021.37 228.104C1020.95 223.085 1020.11 217.857 1018.86 212.316C1017.71 206.722 1016.04 202.278 1013.94 198.933C1013.21 202.278 1013.06 206.931 1013.53 212.891C1014 218.851 1014.99 224.34 1016.35 229.358V229.306Z" fill="black"></path><path d="M1110.4 201.965C1111.13 202.069 1110.97 203.01 1109.98 204.892C1109.04 206.774 1107.47 208.97 1105.27 211.427C1103.08 213.884 1100.62 216.08 1097.95 217.857C1095.24 219.582 1092.52 220.419 1089.8 220.262C1087.81 220.105 1086.35 219.53 1085.36 218.537C1084.41 217.544 1083.74 216.393 1083.37 215.139C1083.06 213.936 1082.85 212.839 1082.69 212.002C1082.59 211.323 1082.53 210.904 1082.48 210.591C1082.38 210.225 1082.22 210.225 1081.96 210.486C1079.81 215.296 1076.21 217.7 1071.08 217.7C1068.26 217.7 1065.91 216.446 1064.13 213.884C1062.41 211.375 1061.26 208.186 1060.73 204.422C1060.31 200.606 1060.68 196.685 1061.94 192.764C1062.2 191.457 1062.98 190.568 1064.24 190.045C1065.18 189.679 1066.12 189.732 1067.06 190.15C1068.05 190.568 1068.63 191.248 1068.68 192.137C1068.68 193.025 1068.57 193.862 1068.47 194.646C1068.31 195.325 1068.21 195.901 1068.16 196.476C1068 198.88 1068.05 201.442 1068.26 204.213C1068.47 206.983 1069.2 209.388 1070.46 211.427C1071.66 212.943 1073.02 213.152 1074.48 211.95C1076 210.8 1077.36 208.97 1078.51 206.408C1079.4 204.422 1080.08 202.488 1080.6 200.501C1081.07 198.514 1081.44 196.998 1081.59 195.901C1081.64 195.482 1081.7 195.169 1081.7 195.012C1081.91 194.228 1082.17 193.443 1082.48 192.607C1082.85 191.405 1083.16 190.202 1083.47 189C1084.15 186.804 1085.67 185.915 1088.18 186.281C1089.69 186.438 1090.53 187.222 1090.69 188.582C1090.85 190.411 1090.85 192.241 1090.79 194.019C1090.69 196.005 1090.58 197.887 1090.48 199.769C1090.32 202.488 1090.22 205.101 1090.17 207.715C1090.06 211.636 1090.85 213.936 1092.47 214.564C1094.14 215.139 1096.07 214.721 1098.37 213.257C1100.67 211.793 1102.97 209.806 1105.12 207.245C1105.33 207.036 1105.59 206.774 1105.9 206.356C1106.27 205.886 1106.74 205.258 1107.31 204.631C1107.99 203.899 1108.57 203.272 1109.14 202.801C1109.72 202.331 1110.19 202.017 1110.55 201.913L1110.4 201.965Z" fill="black"></path><path d="M1147.25 203.795C1147.72 202.435 1148.35 201.703 1148.98 201.703C1149.61 201.703 1149.87 202.435 1149.66 203.795C1148.56 207.088 1147.25 210.225 1145.74 213.257C1144.27 216.289 1142.29 219.007 1139.72 221.412C1137.74 223.399 1135.44 224.601 1132.77 225.124C1129.06 225.699 1126.03 225.333 1123.62 223.922C1121.27 222.458 1119.39 220.419 1117.98 217.805C1116.57 215.191 1115.57 212.368 1114.95 209.284C1114.27 206.199 1113.85 203.167 1113.64 200.24C1113.12 194.75 1112.7 187.484 1112.44 178.44C1112.23 169.448 1112.33 159.933 1112.75 149.896C1113.17 139.859 1114.16 130.606 1115.68 122.032C1117.19 113.458 1119.44 106.819 1122.42 102.114C1124.15 99.8661 1126.13 98.716 1128.43 98.716C1130.73 98.6637 1132.77 99.657 1134.55 101.748C1135.75 103.421 1136.69 105.198 1137.27 107.08C1137.95 108.91 1138.37 110.74 1138.57 112.622C1139.25 119.261 1139.1 126.214 1138.26 133.533C1137.42 140.904 1136.17 148.694 1134.44 156.954C1132.72 165.213 1130.58 172.585 1128.12 178.963C1125.71 185.288 1123.73 190.255 1122.11 193.862C1121.22 195.378 1120.9 197.678 1121.11 200.71C1121.38 204.004 1122 207.402 1122.94 210.957C1123.88 214.511 1125.24 217.334 1126.97 219.478C1128.54 221.151 1130.37 221.674 1132.3 220.994C1134.34 220.314 1136.33 219.007 1138.31 216.969C1140.35 214.877 1142.13 212.629 1143.65 210.225C1145.16 207.768 1146.36 205.572 1147.25 203.69V203.795ZM1121.22 154.026C1121.06 156.169 1120.9 159.358 1120.7 163.697C1120.54 168.036 1120.38 172.48 1120.28 176.871C1120.12 181.89 1119.96 185.759 1119.86 188.529C1121.38 184.974 1123.2 179.799 1125.3 173.055C1127.49 166.259 1129.37 158.208 1131.05 149.007C1132.77 139.702 1133.92 129.717 1134.55 118.948C1134.18 112.622 1133.4 108.335 1132.14 106.087C1130.99 103.839 1129.69 103.682 1128.22 105.564C1126.81 107.394 1125.71 111.263 1124.83 117.222C1123.52 127.051 1122.47 136.879 1121.79 146.759C1121.64 149.216 1121.48 151.673 1121.27 154.078L1121.22 154.026Z" fill="black"></path><mask id="mask0_1_72" style="mask-type:luminance" maskUnits="userSpaceOnUse" x="677" y="216" width="481" height="83"><path d="M1157.99 216.707H677V298.827H1157.99V216.707Z" fill="white"></path></mask><g mask="url(#mask0_1_72)"><rect x="685" y="232" width="465" height="46" fill="#F4E5E0"></rect><path d="M682.25 235.184C683.423 235.184 684.361 235.213 685.065 235.242C685.74 235.242 686.356 235.272 686.913 235.301C687.441 235.301 687.91 235.33 688.321 235.36H689.963C691.224 235.36 692.632 235.33 694.186 235.242C695.77 235.125 697.266 235.067 698.644 235.067C701.577 235.067 704.276 235.506 706.768 236.357C709.232 237.208 711.373 238.469 713.191 240.14C714.98 241.783 716.388 243.806 717.415 246.241C718.412 248.646 718.94 251.373 718.94 254.423C718.94 260.817 717.297 265.715 713.983 269.146C710.669 272.578 705.771 274.279 699.26 274.279C697.823 274.279 696.269 274.22 694.568 274.161C692.896 274.044 691.371 273.986 689.992 273.986C689.347 273.986 688.79 274.015 688.35 274.044C687.94 274.044 687.47 274.074 686.942 274.103C686.444 274.103 685.857 274.132 685.183 274.161H682.308V273.546C682.954 273.546 683.54 273.516 684.068 273.428C684.625 273.34 685.124 273.164 685.535 272.871C685.974 272.607 686.326 272.226 686.561 271.757C686.825 271.258 687.001 270.613 687.001 269.792V239.554C687.001 238.733 686.854 238.087 686.561 237.589C686.326 237.09 685.974 236.738 685.535 236.474C685.124 236.21 684.625 236.005 684.068 235.917C683.54 235.8 682.924 235.741 682.308 235.741V235.125L682.25 235.184ZM692.867 267.181C692.867 268.237 692.925 269.176 693.043 269.938C693.189 270.73 693.483 271.346 693.893 271.845C694.333 272.343 694.949 272.695 695.8 272.959C696.621 273.194 697.706 273.34 699.114 273.34C701.401 273.34 703.337 272.871 704.979 271.933C706.651 270.965 708 269.645 709.085 268.032C710.141 266.419 710.933 264.483 711.402 262.283C711.93 260.054 712.194 257.679 712.194 255.127C712.194 252.722 711.93 250.405 711.402 248.088C710.874 245.801 710.024 243.806 708.909 242.047C707.766 240.258 706.299 238.85 704.51 237.765C702.721 236.65 700.58 236.122 698.087 236.122C697.559 236.122 697.002 236.152 696.445 236.181C695.858 236.181 695.184 236.24 694.421 236.298C693.952 236.386 693.6 236.562 693.307 236.856C693.013 237.09 692.867 237.559 692.867 238.263V267.24V267.181Z" fill="#DDA695"></path><path d="M740.76 253.514C742.461 253.514 743.722 253.074 744.544 252.224C745.394 251.344 745.834 250.083 745.834 248.499H746.45C746.45 249.408 746.421 250.141 746.391 250.699C746.391 251.285 746.362 251.755 746.333 252.165C746.333 252.546 746.303 252.869 746.274 253.133V254.834C746.303 255.069 746.333 255.391 746.333 255.743C746.362 256.124 746.391 256.594 746.391 257.151C746.421 257.738 746.45 258.471 746.45 259.351H745.834C745.834 257.855 745.394 256.652 744.544 255.802C743.722 254.922 742.461 254.453 740.76 254.453H736.801V267.093C736.801 268.472 736.918 269.586 737.182 270.466C737.417 271.287 737.857 271.903 738.531 272.314C739.176 272.724 740.027 272.988 741.024 273.106C742.08 273.223 743.4 273.282 744.983 273.282C746.362 273.282 747.682 273.252 748.884 273.164C750.116 273.047 751.172 272.754 752.11 272.314C753.049 271.815 753.811 271.082 754.427 270.114C755.043 269.117 755.424 267.739 755.6 266.008H756.216L755.718 274.132C754.017 274.162 752.462 274.191 751.084 274.191C749.735 274.22 748.268 274.25 746.685 274.25C743.37 274.25 740.701 274.191 738.678 274.132C736.683 274.015 735.041 273.956 733.78 273.956C733.164 273.956 732.636 273.986 732.196 274.015C731.727 274.015 731.258 274.044 730.73 274.074C730.231 274.074 729.645 274.103 728.97 274.132H726.155V273.516C726.8 273.516 727.386 273.487 727.914 273.399C728.471 273.311 728.97 273.135 729.381 272.842C729.821 272.578 730.173 272.197 730.407 271.727C730.671 271.229 730.847 270.583 730.847 269.762V239.525C730.847 238.703 730.7 238.058 730.407 237.559C730.173 237.061 729.821 236.709 729.381 236.445C728.97 236.181 728.471 235.976 727.914 235.888C727.386 235.77 726.77 235.712 726.155 235.712V235.096C727.328 235.096 728.237 235.125 728.911 235.155C729.586 235.155 730.202 235.184 730.671 235.213C731.17 235.213 731.61 235.243 732.02 235.272H733.604C734.953 235.272 736.566 235.243 738.443 235.155C740.32 235.037 742.403 234.979 744.749 234.979C746.245 234.979 747.623 235.008 748.855 235.037C750.087 235.037 751.494 235.067 753.078 235.096L753.371 242.663H752.814C752.697 241.196 752.345 240.023 751.846 239.114C751.348 238.234 750.673 237.559 749.823 237.09C748.972 236.592 747.946 236.298 746.831 236.181C745.717 236.034 744.514 235.946 743.165 235.946C742.784 235.946 742.373 235.976 741.875 236.005C741.405 236.005 740.965 236.034 740.467 236.064C739.998 236.064 739.558 236.093 739.118 236.122C738.707 236.181 738.385 236.21 738.15 236.24C737.241 236.328 736.801 236.826 736.801 237.765V253.397H740.76V253.514Z" fill="#DDA695"></path><path d="M762.346 235.184C763.519 235.184 764.458 235.213 765.162 235.242H766.921C767.42 235.242 767.86 235.272 768.271 235.301H769.854C770.851 235.301 772.054 235.272 773.403 235.184C774.752 235.096 776.219 235.067 777.861 235.067C779.357 235.067 780.94 235.184 782.554 235.448C784.225 235.653 785.75 236.093 787.129 236.797C788.507 237.501 789.622 238.498 790.502 239.788C791.381 241.108 791.851 242.839 791.851 244.98C791.851 246.417 791.557 247.707 791 248.88C790.414 250.024 789.651 251.021 788.683 251.872C787.745 252.722 786.659 253.456 785.457 254.013C784.225 254.599 782.993 254.951 781.732 255.127C782.114 255.655 782.759 256.506 783.756 257.708C784.724 258.852 785.809 260.142 786.982 261.609C788.214 263.046 789.446 264.512 790.766 266.067C792.056 267.621 793.229 268.97 794.314 270.173C795.165 271.199 795.986 272.05 796.749 272.666C797.57 273.282 798.45 273.575 799.447 273.575V274.191H797.364C796.866 274.162 796.455 274.132 796.074 274.132C795.693 274.103 795.37 274.074 795.047 274.074C794.754 274.044 794.402 274.015 793.933 274.015C793.434 274.015 793.024 274.044 792.701 274.074C792.379 274.074 792.056 274.103 791.792 274.132C791.499 274.132 791.176 274.162 790.824 274.191H789.475C788.273 272.695 787.187 271.258 786.161 269.909C785.134 268.56 784.137 267.269 783.169 266.008C782.231 264.718 781.234 263.398 780.237 262.107C779.21 260.817 778.125 259.409 776.922 257.943C776.336 257.21 775.837 256.711 775.397 256.418C774.987 256.154 774.342 255.978 773.432 255.978H772.934V269.85C772.934 270.671 773.051 271.317 773.315 271.815C773.55 272.284 773.872 272.636 774.283 272.93C774.723 273.223 775.221 273.399 775.808 273.487C776.365 273.575 776.981 273.604 777.568 273.604V274.22H774.752C774.048 274.191 773.432 274.132 772.904 274.103C772.406 274.074 771.937 274.044 771.497 274.044C771.027 274.015 770.529 273.986 769.913 273.986C769.268 273.986 768.71 274.015 768.271 274.044C767.86 274.044 767.391 274.074 766.863 274.103C766.364 274.162 765.778 274.191 765.103 274.22H762.287V273.604C762.933 273.604 763.519 273.575 764.047 273.487C764.604 273.399 765.103 273.223 765.514 272.93C765.954 272.666 766.305 272.284 766.54 271.815C766.804 271.317 766.98 270.671 766.98 269.85V239.612C766.98 238.791 766.833 238.146 766.54 237.647C766.305 237.149 765.954 236.797 765.514 236.533C765.103 236.269 764.604 236.064 764.047 235.976C763.519 235.858 762.903 235.8 762.287 235.8V235.184H762.346ZM772.992 254.922H775.867C779.034 254.922 781.41 254.071 782.964 252.341C784.519 250.64 785.281 248.118 785.281 244.833C785.281 243.601 785.076 242.487 784.665 241.46C784.284 240.404 783.756 239.495 783.023 238.703C782.29 237.882 781.38 237.266 780.266 236.797C779.151 236.298 777.949 236.064 776.6 236.064C776.277 236.064 775.896 236.093 775.427 236.122C775.016 236.122 774.635 236.21 774.254 236.357C773.872 236.474 773.579 236.709 773.344 237.032C773.11 237.325 772.963 237.706 772.963 238.205V254.893L772.992 254.922Z" fill="#DDA695"></path><path d="M803.23 273.546C803.875 273.546 804.462 273.516 804.99 273.428C805.547 273.34 806.046 273.164 806.456 272.871C806.896 272.607 807.248 272.226 807.483 271.757C807.747 271.258 807.923 270.613 807.923 269.792V239.554C807.923 238.733 807.776 238.087 807.483 237.589C807.248 237.09 806.896 236.738 806.456 236.474C806.046 236.21 805.547 236.005 804.99 235.917C804.462 235.8 803.846 235.741 803.23 235.741V235.125C804.345 235.125 805.195 235.155 805.87 235.184C806.544 235.184 807.101 235.213 807.512 235.242C807.952 235.242 808.333 235.272 808.627 235.301H809.741C810.504 235.301 811.149 235.301 811.647 235.242C812.175 235.155 812.879 235.125 813.788 235.125L826.429 265.128L838.336 235.125C839.07 235.125 839.627 235.184 840.037 235.242C840.477 235.301 841.152 235.301 842.061 235.301H843.352C843.733 235.272 844.114 235.242 844.583 235.242C845.023 235.213 845.581 235.184 846.226 235.184C846.871 235.155 847.78 235.125 848.924 235.125V235.741C848.279 235.741 847.663 235.8 847.076 235.917C846.548 236.005 846.05 236.181 845.61 236.474C845.199 236.709 844.847 237.09 844.583 237.589C844.349 238.087 844.202 238.733 844.202 239.554V269.792C844.202 270.613 844.319 271.258 844.583 271.757C844.847 272.226 845.199 272.578 845.61 272.871C846.05 273.164 846.548 273.34 847.076 273.428C847.634 273.516 848.249 273.546 848.924 273.546V274.161H846.108C845.405 274.132 844.789 274.074 844.261 274.044C843.762 274.015 843.293 273.986 842.853 273.986C842.384 273.956 841.885 273.927 841.269 273.927C840.624 273.927 840.067 273.956 839.627 273.986C839.216 273.986 838.747 274.015 838.219 274.044C837.72 274.103 837.134 274.132 836.459 274.161H833.644V273.546C834.26 273.546 834.846 273.516 835.403 273.428C835.961 273.34 836.459 273.164 836.87 272.871C837.31 272.607 837.662 272.226 837.896 271.757C838.131 271.258 838.278 270.613 838.278 269.792V238.322L824.053 274.191H823.936L809.096 239.348V269.792C809.096 270.613 809.213 271.258 809.477 271.757C809.712 272.226 810.034 272.578 810.445 272.871C810.885 273.164 811.383 273.34 811.97 273.428C812.527 273.516 813.143 273.546 813.73 273.546V274.161H811.823C811.325 274.132 810.914 274.103 810.533 274.103C810.21 274.074 809.888 274.044 809.565 274.044C809.272 274.015 808.92 273.986 808.451 273.986C808.04 273.986 807.659 274.015 807.336 274.044C807.043 274.044 806.72 274.074 806.368 274.103C805.987 274.103 805.576 274.132 805.136 274.161H803.23V273.546Z" fill="#DDA695"></path><path d="M853.235 273.546C856.051 273.546 858.016 272.109 859.101 269.205L872.123 234.451H873.238L886.377 268.912C887.051 270.613 887.814 271.815 888.635 272.519C889.456 273.223 890.541 273.546 891.949 273.546V274.161H889.134C888.488 274.132 887.902 274.103 887.433 274.103C886.934 274.074 886.494 274.044 886.084 274.044C885.673 274.015 885.174 273.986 884.617 273.986C884.06 273.986 883.561 274.015 883.151 274.044C882.74 274.044 882.3 274.074 881.802 274.103C881.303 274.103 880.687 274.132 879.954 274.161H876.962V273.546C877.461 273.546 877.901 273.546 878.311 273.487C878.751 273.458 879.191 273.34 879.602 273.194C880.012 272.988 880.306 272.724 880.511 272.402C880.746 272.079 880.892 271.639 880.892 271.111C880.892 270.701 880.804 270.29 880.658 269.821C880.54 269.322 880.394 268.912 880.218 268.53L876.493 258.559H864.204L860.421 269.117C860.186 269.821 860.04 270.437 860.04 270.965C860.04 271.493 860.128 271.933 860.333 272.314C860.568 272.636 860.861 272.9 861.184 273.106C861.565 273.311 861.946 273.428 862.415 273.487C862.855 273.546 863.295 273.546 863.764 273.546V274.161H861.741C861.242 274.132 860.832 274.103 860.45 274.103C860.128 274.074 859.805 274.044 859.541 274.044C859.248 274.015 858.896 273.986 858.515 273.986C858.133 273.986 857.723 274.015 857.4 274.044C857.107 274.044 856.784 274.074 856.432 274.103C856.11 274.103 855.67 274.132 855.142 274.161H853.235V273.546ZM876.082 257.474L870.451 241.695L864.527 257.474H876.082Z" fill="#DDA695"></path><path d="M904.531 273.546C905.147 273.546 905.733 273.516 906.291 273.428C906.848 273.34 907.347 273.164 907.757 272.871C908.168 272.607 908.49 272.226 908.725 271.757C908.989 271.258 909.165 270.613 909.165 269.792V236.298C906.965 236.21 905.381 236.152 904.384 236.122C903.416 236.093 902.801 236.064 902.625 236.064C900.337 236.122 898.665 236.826 897.609 238.205C896.583 239.554 896.026 241.343 895.908 243.572H895.292L895.586 235.067C896.466 235.037 897.287 235.008 898.02 235.008H900.161C901.715 235.008 903.035 235.037 904.208 235.067C905.381 235.067 906.437 235.096 907.317 235.125C908.256 235.125 909.077 235.155 909.81 235.184C910.543 235.243 911.306 235.243 912.068 235.243C912.802 235.243 913.535 235.243 914.268 235.184C915.001 235.155 915.822 235.125 916.761 235.125C917.699 235.096 918.755 235.067 919.928 235.067C921.102 235.037 922.509 235.008 924.152 235.008H926.351C927.114 235.008 927.964 235.037 928.844 235.067L929.226 243.572H928.61C928.522 242.604 928.346 241.665 928.052 240.756C927.818 239.818 927.407 239.026 926.821 238.322C926.293 237.589 925.589 237.032 924.738 236.621C923.917 236.181 922.949 235.946 921.805 235.946C921.6 235.946 920.955 236.005 919.899 236.064C918.843 236.122 917.201 236.181 915.001 236.298V269.792C915.001 270.613 915.119 271.258 915.383 271.757C915.617 272.226 915.94 272.578 916.35 272.871C916.79 273.164 917.289 273.34 917.875 273.428C918.433 273.516 919.049 273.546 919.635 273.546V274.162H916.82C916.116 274.132 915.529 274.074 915.06 274.044C914.561 274.015 914.092 273.986 913.652 273.986C913.183 273.956 912.655 273.927 912.01 273.927C911.365 273.927 910.807 273.956 910.367 273.986C909.957 273.986 909.517 274.015 909.018 274.044C908.52 274.103 907.904 274.132 907.171 274.162H904.414V273.546H904.531Z" fill="#DDA695"></path><path d="M956.355 234.509C959.17 234.509 961.81 235.008 964.303 235.976C966.766 236.914 968.966 238.263 970.843 240.023C972.749 241.783 974.274 243.924 975.359 246.446C976.474 248.939 977.002 251.725 977.002 254.805C977.002 257.884 976.445 260.758 975.359 263.251C974.245 265.744 972.749 267.856 970.902 269.616C969.025 271.375 966.825 272.724 964.303 273.663C961.81 274.543 959.17 275.012 956.355 275.012C953.363 275.012 950.636 274.543 948.113 273.604C945.591 272.666 943.391 271.317 941.514 269.557C939.637 267.768 938.171 265.627 937.115 263.134C936.089 260.612 935.59 257.796 935.59 254.687C935.59 251.579 936.089 248.998 937.115 246.563C938.171 244.1 939.608 241.959 941.456 240.199C943.333 238.41 945.532 237.032 948.055 236.034C950.636 235.037 953.392 234.509 956.355 234.509ZM956.355 235.477C954.067 235.477 952.043 236.034 950.254 237.12C948.495 238.175 947.028 239.613 945.855 241.402C944.652 243.161 943.773 245.214 943.157 247.561C942.541 249.878 942.248 252.282 942.248 254.775C942.248 257.386 942.541 259.879 943.157 262.225C943.773 264.542 944.652 266.595 945.855 268.325C947.028 270.026 948.495 271.405 950.254 272.431C952.043 273.399 954.067 273.898 956.355 273.898C958.496 273.898 960.461 273.399 962.162 272.431C963.892 271.463 965.358 270.114 966.561 268.384C967.793 266.683 968.702 264.63 969.376 262.283C970.022 259.937 970.344 257.415 970.344 254.775C970.344 252.136 970.022 249.643 969.376 247.326C968.731 244.98 967.793 242.897 966.561 241.167C965.358 239.437 963.892 238.029 962.162 237.002C960.461 236.005 958.525 235.477 956.355 235.477Z" fill="#DDA695"></path><path d="M1004.48 274.279C1001.78 274.279 999.409 274.22 997.327 274.161C995.274 274.044 993.573 273.986 992.194 273.986C991.549 273.986 990.962 274.015 990.493 274.044C990.024 274.044 989.555 274.074 989.027 274.103C988.499 274.103 987.854 274.132 987.12 274.161H984.305V273.546C984.95 273.546 985.537 273.516 986.065 273.428C986.622 273.34 987.12 273.164 987.531 272.871C987.971 272.607 988.323 272.226 988.557 271.757C988.821 271.258 988.997 270.613 988.997 269.792V239.554C988.997 238.733 988.851 238.087 988.557 237.589C988.323 237.09 987.971 236.738 987.531 236.474C987.12 236.21 986.622 236.005 986.065 235.917C985.537 235.8 984.921 235.741 984.305 235.741V235.125C985.478 235.125 986.416 235.155 987.12 235.184C987.795 235.184 988.411 235.213 988.88 235.242C989.408 235.301 989.877 235.33 990.288 235.36H993.514C993.954 235.33 994.423 235.272 994.922 235.242C995.45 235.213 996.066 235.184 996.769 235.184C997.444 235.155 998.383 235.125 999.585 235.125V235.741C998.969 235.741 998.383 235.8 997.825 235.917C997.239 236.005 996.74 236.181 996.3 236.474C995.89 236.709 995.567 237.09 995.332 237.589C995.098 238.087 994.951 238.733 994.951 239.554V268.149C994.951 269.352 995.156 270.261 995.567 270.965C996.007 271.669 996.623 272.196 997.415 272.548C998.177 272.871 999.086 273.076 1000.11 273.164C1001.17 273.252 1002.34 273.282 1003.6 273.282C1004.98 273.282 1006.24 273.194 1007.39 272.988C1008.53 272.754 1009.53 272.372 1010.38 271.815C1011.23 271.258 1011.93 270.466 1012.46 269.498C1013.02 268.501 1013.4 267.211 1013.63 265.715H1014.19L1013.63 274.161C1012.11 274.191 1010.58 274.22 1009.06 274.22C1007.5 274.249 1006.01 274.279 1004.54 274.279H1004.48Z" fill="#DDA695"></path><path d="M1040.94 234.509C1043.75 234.509 1046.39 235.008 1048.89 235.976C1051.35 236.914 1053.55 238.263 1055.43 240.023C1057.33 241.783 1058.86 243.924 1059.94 246.446C1061.06 248.939 1061.59 251.725 1061.59 254.805C1061.59 257.884 1061.03 260.758 1059.94 263.251C1058.83 265.744 1057.33 267.856 1055.49 269.616C1053.61 271.375 1051.41 272.724 1048.89 273.663C1046.39 274.543 1043.75 275.012 1040.94 275.012C1037.95 275.012 1035.22 274.543 1032.7 273.604C1030.17 272.666 1027.97 271.317 1026.1 269.557C1024.22 267.768 1022.75 265.627 1021.7 263.134C1020.67 260.612 1020.17 257.796 1020.17 254.687C1020.17 251.579 1020.67 248.998 1021.7 246.563C1022.75 244.1 1024.19 241.959 1026.04 240.199C1027.92 238.41 1030.12 237.032 1032.64 236.034C1035.22 235.037 1037.98 234.509 1040.94 234.509ZM1040.94 235.477C1038.65 235.477 1036.63 236.034 1034.84 237.12C1033.08 238.175 1031.61 239.613 1030.44 241.402C1029.24 243.161 1028.36 245.214 1027.74 247.561C1027.12 249.878 1026.83 252.282 1026.83 254.775C1026.83 257.386 1027.12 259.879 1027.74 262.225C1028.36 264.542 1029.24 266.595 1030.44 268.325C1031.61 270.026 1033.08 271.405 1034.84 272.431C1036.63 273.399 1038.65 273.898 1040.94 273.898C1043.08 273.898 1045.04 273.399 1046.75 272.431C1048.48 271.463 1049.94 270.114 1051.14 268.384C1052.38 266.683 1053.29 264.63 1053.96 262.283C1054.61 259.937 1054.93 257.415 1054.93 254.775C1054.93 252.136 1054.61 249.643 1053.96 247.326C1053.31 244.98 1052.38 242.897 1051.14 241.167C1049.94 239.437 1048.48 238.029 1046.75 237.002C1045.04 236.005 1043.11 235.477 1040.94 235.477Z" fill="#DDA695"></path><path d="M1104.96 263.633V267.123C1104.99 268.384 1105.05 269.41 1105.14 270.173C1103.79 270.29 1102.53 270.642 1101.36 271.141C1100.15 271.639 1098.95 272.167 1097.69 272.724C1096.43 273.252 1095.02 273.751 1093.52 274.191C1092.06 274.631 1090.36 274.865 1088.45 274.865C1085.64 274.865 1083.08 274.396 1080.74 273.458C1078.42 272.519 1076.4 271.17 1074.7 269.41C1073.02 267.68 1071.7 265.598 1070.79 263.163C1069.86 260.729 1069.39 258.002 1069.39 255.039C1069.39 252.077 1069.89 249.438 1070.91 246.915C1071.97 244.393 1073.41 242.223 1075.25 240.375C1077.13 238.527 1079.3 237.12 1081.79 236.093C1084.26 235.037 1086.95 234.509 1089.86 234.509C1092.06 234.509 1094.08 234.832 1095.96 235.477C1097.87 236.093 1099.68 236.973 1101.38 238.117L1102.79 236.034H1103.35C1103.29 236.738 1103.26 237.325 1103.23 237.794C1103.17 238.293 1103.14 238.733 1103.11 239.143C1103.06 239.525 1103.03 239.876 1103 240.258C1102.94 240.58 1102.94 240.962 1102.94 241.372V243.689C1102.97 244.07 1103 244.54 1103 245.097V247.297H1102.26C1102.15 243.719 1100.97 240.874 1098.77 238.733C1096.57 236.592 1093.55 235.507 1089.74 235.507C1088.1 235.507 1086.49 235.946 1084.84 236.797C1083.2 237.618 1081.73 238.85 1080.44 240.522C1079.18 242.164 1078.13 244.217 1077.28 246.681C1076.46 249.115 1076.04 251.989 1076.04 255.303C1076.04 256.535 1076.13 257.826 1076.28 259.204C1076.43 260.553 1076.72 261.932 1077.07 263.31C1077.48 264.688 1078.01 266.038 1078.65 267.269C1079.3 268.53 1080.09 269.645 1081.03 270.642C1081.97 271.61 1083.05 272.402 1084.34 272.959C1085.64 273.546 1087.13 273.81 1088.8 273.81C1090.03 273.81 1091.21 273.663 1092.41 273.311C1093.64 272.93 1094.7 272.402 1095.64 271.669C1096.6 270.906 1097.4 269.938 1098.01 268.794C1098.66 267.651 1098.98 266.272 1098.98 264.63C1098.98 262.723 1098.57 261.374 1097.81 260.524C1097.01 259.703 1095.58 259.292 1093.47 259.292V258.676C1094.64 258.676 1095.61 258.705 1096.34 258.735C1097.1 258.735 1097.78 258.764 1098.36 258.793C1098.98 258.852 1099.54 258.881 1100.01 258.911H1103.38C1103.88 258.881 1104.38 258.823 1104.9 258.793C1105.43 258.764 1106.05 258.735 1106.75 258.735C1107.48 258.705 1108.42 258.676 1109.57 258.676V259.292C1107.9 259.292 1106.69 259.585 1105.96 260.143C1105.26 260.729 1104.93 261.844 1104.93 263.574L1104.96 263.633Z" fill="#DDA695"></path><path d="M1124 273.546C1124.61 273.546 1125.2 273.516 1125.76 273.428C1126.31 273.34 1126.81 273.164 1127.22 272.871C1127.66 272.607 1128.01 272.226 1128.25 271.757C1128.48 271.258 1128.63 270.613 1128.63 269.792V257.503L1119.04 240.522C1118.54 239.642 1118.13 238.909 1117.75 238.322C1117.43 237.765 1117.05 237.295 1116.64 236.914C1116.25 236.533 1115.81 236.298 1115.29 236.122C1114.79 235.976 1114.14 235.858 1113.38 235.741V235.125C1114.35 235.125 1115.14 235.155 1115.76 235.184C1116.37 235.184 1116.93 235.213 1117.4 235.242C1117.93 235.301 1118.39 235.33 1118.86 235.36H1122.18C1122.62 235.33 1123.09 235.272 1123.59 235.242C1124.11 235.213 1124.7 235.184 1125.29 235.184C1125.93 235.155 1126.78 235.125 1127.87 235.125V235.741C1127.49 235.741 1127.11 235.77 1126.69 235.8C1126.28 235.858 1125.9 235.946 1125.58 236.093C1125.26 236.269 1124.96 236.504 1124.73 236.768C1124.52 237.002 1124.44 237.383 1124.44 237.882C1124.44 238.41 1124.52 238.909 1124.73 239.348C1124.94 239.818 1125.2 240.316 1125.52 240.874L1133.7 255.831L1142.62 240.991C1143.15 240.023 1143.41 239.202 1143.41 238.498C1143.41 237.354 1143.09 236.621 1142.44 236.298C1141.8 235.917 1140.95 235.741 1139.95 235.741V235.125C1140.77 235.125 1141.42 235.155 1141.92 235.184C1142.44 235.184 1142.85 235.213 1143.21 235.242C1143.59 235.242 1143.88 235.272 1144.12 235.301H1145.96C1146.23 235.272 1146.55 235.242 1146.87 235.242C1147.2 235.213 1147.58 235.184 1148.05 235.184C1148.54 235.155 1149.16 235.125 1149.95 235.125V235.741C1149.22 235.741 1148.57 235.858 1148.05 236.034C1147.55 236.24 1147.11 236.562 1146.7 236.944C1146.29 237.325 1145.91 237.735 1145.58 238.234C1145.26 238.733 1144.94 239.29 1144.61 239.935L1134.58 256.623V269.762C1134.58 270.583 1134.7 271.229 1134.97 271.727C1135.2 272.196 1135.52 272.548 1135.93 272.842C1136.37 273.135 1136.87 273.311 1137.46 273.399C1138.02 273.487 1138.63 273.516 1139.22 273.516V274.132H1136.4C1135.7 274.103 1135.08 274.044 1134.55 274.015C1134.06 273.986 1133.59 273.956 1133.15 273.956C1132.68 273.927 1132.18 273.898 1131.56 273.898C1130.92 273.898 1130.36 273.927 1129.92 273.956C1129.51 273.956 1129.04 273.986 1128.51 274.015C1128.01 274.074 1127.43 274.103 1126.75 274.132H1123.94V273.516L1124 273.546Z" fill="#DDA695"></path></g><path d="M577.64 173.672C581.96 174.632 584.552 177.464 584.552 182.024C584.552 187.736 580.328 191 571.928 191H556.472V157.4H570.968C578.456 157.4 582.776 160.568 582.776 166.04C582.776 169.88 580.712 172.424 577.64 173.672ZM570.728 160.328H560.024V172.52H570.728C576.104 172.52 579.224 170.456 579.224 166.424C579.224 162.392 576.104 160.328 570.728 160.328ZM571.88 188.072C577.784 188.072 581 186.152 581 181.736C581 177.368 577.784 175.448 571.88 175.448H560.024V188.072H571.88ZM616.916 157.4L603.476 179.384V191H599.972V179.384L586.532 157.4H590.324L601.844 176.264L613.364 157.4H616.916Z" fill="#595858"></path><defs><clipPath id="clip0_1_72"><rect width="506" height="352" fill="white"></rect></clipPath></defs></svg>