<?xml version="1.0" encoding="utf-8"?>
<svg xmlns="http://www.w3.org/2000/svg" width="298" height="49" viewBox="0 0 298 49" fill="none">
<g clip-path="url(#clip0_10109_2104)">
<g clip-path="url(#clip1_10109_2104)">
<path d="M3.24693 25.8097L1.63154 29.5527H0.804138L6.20193 16.8265H7.10813L13.0181 29.5527H11.2451L9.51153 25.8097H3.24693ZM6.32013 18.8753H6.24133L3.64093 25.0217H9.19633L6.35953 18.8753H6.32013Z" fill="#231F20"/>
<path d="M33.4667 29.5528H31.9301V28.8042C31.4573 29.0406 30.8663 29.277 30.1965 29.474C29.4873 29.671 28.6993 29.7892 27.7931 29.7892C26.8869 29.7892 25.5473 29.5922 24.6411 29.1982C23.7349 28.8042 23.0651 28.292 22.4741 27.6616C21.9225 27.0312 21.4891 26.322 21.2133 25.4946C20.9375 24.7066 20.8193 23.8398 20.8193 23.0124C20.8193 22.185 20.9769 21.1212 21.3315 20.2938C21.6861 19.5058 22.1589 18.836 22.7893 18.2844C23.4197 17.7328 24.1683 17.3388 25.0351 17.0236C25.9019 16.7478 26.8475 16.5902 27.8719 16.5902C28.8963 16.5902 29.5661 16.7084 30.1965 16.9054C30.8663 17.1024 31.4179 17.3388 31.8513 17.654C32.2847 17.9298 32.6393 18.245 32.9151 18.5996C33.1909 18.9148 33.3485 19.23 33.4667 19.5058H32.1665C32.0877 19.2694 31.9301 18.9936 31.6937 18.7572C31.4573 18.5208 31.1421 18.2844 30.7481 18.0874C30.3541 17.8904 29.9207 17.7328 29.4085 17.6146C28.8963 17.4964 28.3841 17.4176 27.7931 17.4176C26.9263 17.4176 26.1777 17.5752 25.5473 17.851C24.9169 18.1268 24.3653 18.5208 23.8925 19.033C23.4591 19.5452 23.1045 20.1362 22.8681 20.8454C22.6317 21.5546 22.5135 22.3032 22.5135 23.17C22.5135 24.0368 22.6317 24.7854 22.8681 25.4946C23.1045 26.2038 23.4591 26.8342 23.9319 27.3464C24.4047 27.8586 24.9957 28.2526 25.7049 28.5678C26.4141 28.8436 27.2415 29.0012 28.2265 29.0012C29.2115 29.0012 29.6055 28.9224 30.1571 28.7648C30.7087 28.6072 31.2997 28.3314 31.8513 27.9768V24.6672H29.8025V23.9186H33.3879V29.5922L33.4667 29.5528Z" fill="#231F20"/>
<path d="M52.0238 16.8266V17.8116H45.444V22.382H51.0782V23.2094H45.444V28.5284H52.0238V29.5134H43.7892V16.7872H52.0238V16.8266Z" fill="#231F20"/>
<path d="M61.4406 29.5527V16.8265H63.0954V28.5677H69.6752V29.5527H61.4406Z" fill="#231F20"/>
<path d="M87.1685 16.8266V17.8116H80.5887V22.382H86.2229V23.2094H80.5887V28.5284H87.1685V29.5134H78.9339V16.7872H87.1685V16.8266Z" fill="#231F20"/>
<path d="M96.585 26.3614C96.585 26.5584 96.6638 26.8342 96.7426 27.11C96.8214 27.4252 96.979 27.701 97.2154 27.9768C97.4518 28.2526 97.8064 28.489 98.2792 28.686C98.752 28.883 99.343 29.0012 100.131 29.0012C100.919 29.0012 101.865 28.8042 102.416 28.4496C103.007 28.095 103.283 27.504 103.283 26.716C103.283 25.928 103.086 25.5734 102.731 25.2188C102.377 24.8248 101.904 24.5096 101.352 24.2732C100.801 23.9974 100.21 23.761 99.5794 23.564C98.949 23.367 98.358 23.0912 97.8064 22.8154C97.2548 22.5396 96.782 22.1456 96.4274 21.7122C96.0728 21.2788 95.8758 20.6878 95.8758 19.9786C95.8758 19.2694 95.994 18.9542 96.2304 18.5208C96.4668 18.0874 96.7426 17.7328 97.1366 17.457C97.5306 17.1812 97.964 16.9842 98.4762 16.8266C98.9884 16.669 99.5006 16.5902 100.052 16.5902C100.604 16.5902 101.116 16.669 101.589 16.7872C102.062 16.9054 102.534 17.1024 102.928 17.3388C103.322 17.5752 103.638 17.8904 103.874 18.245C104.11 18.5996 104.307 18.9936 104.347 19.4664H103.125C103.047 18.7572 102.692 18.245 102.14 17.8904C101.589 17.5752 100.919 17.3782 100.131 17.3782C99.343 17.3782 99.2248 17.4176 98.8702 17.5358C98.5156 17.654 98.2004 17.8116 97.964 18.0086C97.7276 18.2056 97.5306 18.4026 97.4124 18.6784C97.2942 18.9148 97.2154 19.1906 97.2154 19.5058C97.2154 20.018 97.4124 20.4514 97.767 20.7666C98.161 21.0818 98.6338 21.3576 99.1854 21.594C99.737 21.8304 100.367 22.0668 101.037 22.3032C101.707 22.5396 102.298 22.776 102.889 23.1306C103.441 23.4458 103.913 23.8398 104.307 24.3126C104.701 24.7854 104.859 25.4158 104.859 26.1644C104.859 26.913 104.741 27.1888 104.544 27.6616C104.307 28.095 104.032 28.489 103.598 28.8042C103.204 29.1194 102.731 29.3558 102.14 29.5134C101.549 29.671 100.958 29.7498 100.249 29.7498C99.54 29.7498 98.9096 29.671 98.3186 29.5134C97.7276 29.3558 97.2154 29.1194 96.782 28.8042C96.3486 28.489 95.994 28.1344 95.7576 27.7404C95.5212 27.307 95.3636 26.8342 95.3636 26.322H96.585V26.3614Z" fill="#231F20"/>
<path d="M114.945 26.3614C114.945 26.5584 115.024 26.8342 115.103 27.11C115.182 27.4252 115.339 27.701 115.576 27.9768C115.812 28.2526 116.167 28.489 116.64 28.686C117.112 28.883 117.703 29.0012 118.491 29.0012C119.279 29.0012 120.225 28.8042 120.777 28.4496C121.368 28.095 121.643 27.504 121.643 26.716C121.643 25.928 121.446 25.5734 121.092 25.2188C120.737 24.8248 120.264 24.5096 119.713 24.2732C119.161 23.9974 118.57 23.761 117.94 23.564C117.309 23.367 116.718 23.0912 116.167 22.8154C115.615 22.5396 115.142 22.1456 114.788 21.7122C114.433 21.2788 114.236 20.6878 114.236 19.9786C114.236 19.2694 114.354 18.9542 114.591 18.5208C114.827 18.0874 115.103 17.7328 115.497 17.457C115.891 17.1812 116.324 16.9842 116.837 16.8266C117.349 16.669 117.861 16.5902 118.413 16.5902C118.964 16.5902 119.476 16.669 119.949 16.7872C120.422 16.9054 120.895 17.1024 121.289 17.3388C121.683 17.5752 121.998 17.8904 122.234 18.245C122.471 18.5996 122.668 18.9936 122.707 19.4664H121.486C121.407 18.7572 121.052 18.245 120.501 17.8904C119.949 17.5752 119.279 17.3782 118.491 17.3782C117.703 17.3782 117.585 17.4176 117.231 17.5358C116.876 17.654 116.561 17.8116 116.324 18.0086C116.088 18.2056 115.891 18.4026 115.773 18.6784C115.655 18.9148 115.576 19.1906 115.576 19.5058C115.576 20.018 115.773 20.4514 116.127 20.7666C116.521 21.0818 116.994 21.3576 117.546 21.594C118.097 21.8304 118.728 22.0668 119.398 22.3032C120.067 22.5396 120.658 22.776 121.249 23.1306C121.801 23.4458 122.274 23.8398 122.668 24.3126C123.062 24.7854 123.219 25.4158 123.219 26.1644C123.219 26.913 123.101 27.1888 122.904 27.6616C122.668 28.095 122.392 28.489 121.959 28.8042C121.565 29.1194 121.092 29.3558 120.501 29.5134C119.91 29.671 119.319 29.7498 118.61 29.7498C117.9 29.7498 117.27 29.671 116.679 29.5134C116.088 29.3558 115.576 29.1194 115.142 28.8042C114.709 28.489 114.354 28.1344 114.118 27.7404C113.882 27.307 113.724 26.8342 113.724 26.322H114.945V26.3614Z" fill="#231F20"/>
<path d="M151.627 16.8265C152.454 16.8265 153.124 16.9447 153.636 17.1811C154.188 17.4175 154.582 17.6933 154.897 18.0085C155.212 18.3237 155.409 18.7177 155.567 19.0723C155.685 19.4663 155.764 19.8209 155.764 20.1361C155.764 20.4513 155.685 20.8847 155.567 21.2393C155.449 21.6333 155.252 21.9879 154.976 22.3031C154.7 22.6183 154.385 22.8941 153.951 23.1305C153.518 23.3669 153.045 23.4851 152.454 23.5245V23.6033L152.651 23.6821C152.809 23.7609 152.927 23.8397 153.006 23.9579C153.124 24.0761 153.242 24.2337 153.4 24.4701C153.557 24.7065 153.794 25.0611 154.07 25.4945C154.345 25.9279 154.739 26.5189 155.252 27.2675C155.409 27.5039 155.567 27.7403 155.724 27.9373C155.882 28.1343 156.04 28.2919 156.197 28.4495C156.355 28.6071 156.552 28.6859 156.749 28.7647C156.946 28.8435 157.182 28.8829 157.419 28.8829C157.655 28.8829 157.537 28.8829 157.616 28.8829H157.813V29.5527C157.655 29.6315 157.458 29.7103 157.3 29.7497H156.631C156.355 29.7497 155.961 29.7103 155.685 29.5921C155.409 29.4739 155.212 29.3557 154.976 29.1981C154.779 29.0405 154.582 28.8435 154.424 28.6071C154.267 28.3707 154.07 28.1343 153.912 27.8585L152.454 25.7309C152.218 25.3763 152.06 25.1005 151.903 24.8641C151.745 24.6277 151.587 24.4307 151.39 24.3125C151.193 24.1943 150.996 24.0761 150.76 23.9973C150.524 23.9185 150.248 23.9185 149.893 23.9185H149.105V29.5527H147.451V16.8265H151.627ZM149.145 23.1305H151.036C151.509 23.1305 151.942 23.0517 152.336 22.8941C152.691 22.7365 153.006 22.5001 153.282 22.2243C153.518 21.9485 153.715 21.6333 153.873 21.3181C153.991 21.0029 154.07 20.6483 154.07 20.3331C154.07 20.0179 153.991 19.5845 153.873 19.2693C153.715 18.9541 153.518 18.6783 153.242 18.4419C152.966 18.2055 152.651 18.0085 152.297 17.8903C151.942 17.7721 151.509 17.6933 151.036 17.6933H149.184V23.1699L149.145 23.1305Z" fill="#231F20"/>
<path d="M175.346 16.8266V17.8116H168.766V22.382H174.4V23.2094H168.766V28.5284H175.346V29.5134H167.111V16.7872H175.346V16.8266Z" fill="#231F20"/>
<path d="M191.855 27.7799H191.934L197.844 16.8661H199.104V29.5923H197.45V19.2695H197.371L191.618 29.7893H191.303L185.669 19.1907H185.59V29.5923H184.802V16.8661H186.024L191.855 27.7799Z" fill="#231F20"/>
<path d="M218.252 16.8266V17.8116H211.673V22.382H217.307V23.2094H211.673V28.5284H218.252V29.5134H210.018V16.7872H218.252V16.8266Z" fill="#231F20"/>
<path d="M227.748 29.5527V16.8265H231.963C232.988 16.8265 233.894 16.9841 234.721 17.2993C235.549 17.6145 236.258 18.0479 236.888 18.6389C237.479 19.1905 237.952 19.8603 238.307 20.6483C238.622 21.4363 238.819 22.2637 238.819 23.1699C238.819 24.0761 238.661 24.9429 238.307 25.7309C237.952 26.5189 237.479 27.1887 236.888 27.7403C236.297 28.2919 235.588 28.7647 234.8 29.0799C234.012 29.3951 233.145 29.5527 232.239 29.5527H227.748ZM229.402 28.7647H231.412C232.397 28.7647 233.264 28.6071 233.933 28.2525C234.643 27.9373 235.194 27.5039 235.667 26.9523C236.1 26.4007 236.455 25.8097 236.652 25.1793C236.849 24.5095 236.967 23.8791 236.967 23.2093C236.967 22.5395 236.849 21.7909 236.613 21.1211C236.376 20.4513 236.022 19.8603 235.549 19.3481C235.076 18.8359 234.524 18.4419 233.815 18.1267C233.145 17.8115 232.318 17.6539 231.451 17.6539H229.402V28.7647Z" fill="#231F20"/>
<path d="M250.599 16.8265V29.5527H248.945V16.8265H250.599Z" fill="#231F20"/>
<path d="M270.143 16.8266V17.8116H263.563V22.382H269.197V23.2094H263.563V28.5284H270.143V29.5134H261.908V16.7872H270.143V16.8266Z" fill="#231F20"/>
<path d="M279.559 26.3614C279.559 26.5584 279.638 26.8342 279.717 27.11C279.796 27.4252 279.953 27.701 280.19 27.9768C280.426 28.2526 280.781 28.489 281.253 28.686C281.726 28.883 282.317 29.0012 283.105 29.0012C283.893 29.0012 284.839 28.8042 285.39 28.4496C285.981 28.095 286.257 27.504 286.257 26.716C286.257 25.928 286.06 25.5734 285.706 25.2188C285.351 24.8248 284.878 24.5096 284.327 24.2732C283.775 23.9974 283.184 23.761 282.554 23.564C281.923 23.367 281.332 23.0912 280.781 22.8154C280.229 22.5396 279.756 22.1456 279.402 21.7122C279.047 21.2788 278.85 20.6878 278.85 19.9786C278.85 19.2694 278.968 18.9542 279.205 18.5208C279.441 18.0874 279.717 17.7328 280.111 17.457C280.505 17.1812 280.938 16.9842 281.45 16.8266C281.963 16.669 282.475 16.5902 283.026 16.5902C283.578 16.5902 284.09 16.669 284.563 16.7872C285.036 16.9054 285.509 17.1024 285.903 17.3388C286.297 17.5752 286.612 17.8904 286.848 18.245C287.085 18.5996 287.282 18.9936 287.321 19.4664H286.1C286.021 18.7572 285.666 18.245 285.115 17.8904C284.563 17.5752 283.893 17.3782 283.105 17.3782C282.317 17.3782 282.199 17.4176 281.844 17.5358C281.49 17.654 281.175 17.8116 280.938 18.0086C280.702 18.2056 280.505 18.4026 280.387 18.6784C280.268 18.9148 280.19 19.1906 280.19 19.5058C280.19 20.018 280.387 20.4514 280.741 20.7666C281.135 21.0818 281.608 21.3576 282.16 21.594C282.711 21.8304 283.342 22.0668 284.011 22.3032C284.681 22.5396 285.272 22.776 285.863 23.1306C286.415 23.4458 286.888 23.8398 287.282 24.3126C287.676 24.7854 287.833 25.4158 287.833 26.1644C287.833 26.913 287.715 27.1888 287.518 27.6616C287.282 28.095 287.006 28.489 286.572 28.8042C286.178 29.1194 285.706 29.3558 285.115 29.5134C284.524 29.671 283.933 29.7498 283.223 29.7498C282.514 29.7498 281.884 29.671 281.293 29.5134C280.702 29.3558 280.19 29.1194 279.756 28.8042C279.323 28.489 278.968 28.1344 278.732 27.7404C278.495 27.307 278.338 26.8342 278.338 26.322H279.559V26.3614Z" fill="#231F20"/>
<path d="M294.807 17.8117C294.925 17.5753 295.043 17.3783 295.201 17.2207C295.358 17.0631 295.555 16.9055 295.792 16.8267C296.028 16.7085 296.265 16.6691 296.54 16.6691C296.816 16.6691 297.053 16.7085 297.289 16.8267C297.525 16.9449 297.722 17.0631 297.88 17.2207C298.038 17.3783 298.195 17.5753 298.274 17.8117C298.392 18.0481 298.432 18.2845 298.432 18.5603C298.432 18.8361 298.392 19.0725 298.274 19.3089C298.156 19.5453 298.038 19.7423 297.88 19.8999C297.722 20.0575 297.525 20.2151 297.289 20.2939C297.053 20.4121 296.816 20.4515 296.54 20.4515C296.265 20.4515 296.028 20.4121 295.792 20.2939C295.555 20.1757 295.358 20.0575 295.201 19.8999C295.043 19.7423 294.886 19.5453 294.807 19.3089C294.728 19.0725 294.649 18.8361 294.649 18.5603C294.649 18.2845 294.689 18.0481 294.807 17.8117ZM295.122 19.1513C295.201 19.3483 295.319 19.5059 295.477 19.6635C295.634 19.8211 295.792 19.8999 295.989 20.0181C296.186 20.0969 296.383 20.1363 296.58 20.1363C296.777 20.1363 297.013 20.0969 297.171 20.0181C297.368 19.9393 297.525 19.8211 297.683 19.6635C297.841 19.5059 297.919 19.3483 298.038 19.1513C298.116 18.9543 298.156 18.7573 298.156 18.5603C298.156 18.3633 298.116 18.1269 298.038 17.9693C297.959 17.7723 297.841 17.6147 297.683 17.4571C297.525 17.2995 297.368 17.2207 297.171 17.1025C296.974 17.0237 296.777 16.9843 296.58 16.9843C296.383 16.9843 296.146 17.0237 295.989 17.1025C295.792 17.1813 295.634 17.2995 295.477 17.4571C295.319 17.6147 295.24 17.7723 295.122 17.9693C295.043 18.1663 295.004 18.3633 295.004 18.5603C295.004 18.7573 295.043 18.9937 295.122 19.1513ZM295.871 17.5753H296.54C296.698 17.5753 296.816 17.5753 296.895 17.6541C296.974 17.7329 297.053 17.7329 297.092 17.8117C297.131 17.8905 297.171 17.9299 297.171 18.0087V18.3239C297.171 18.3633 297.131 18.4421 297.092 18.4815C297.092 18.5209 297.013 18.5997 296.934 18.6391C296.856 18.6785 296.816 18.7179 296.737 18.7179L297.131 19.3089C297.131 19.3089 297.171 19.3877 297.21 19.4271C297.21 19.4665 297.289 19.5059 297.407 19.5059C297.525 19.5059 297.486 19.5059 297.486 19.5059V19.6635C297.486 19.6635 297.407 19.6635 297.407 19.7029H297.131C297.092 19.7029 297.053 19.7029 297.013 19.6241C296.974 19.5453 296.934 19.5453 296.934 19.5059C296.934 19.5059 296.895 19.4271 296.856 19.3877C296.856 19.3877 296.816 19.3089 296.777 19.2695C296.777 19.1907 296.698 19.1513 296.659 19.0725C296.619 18.9937 296.58 18.9543 296.54 18.9149C296.54 18.8755 296.462 18.8361 296.462 18.8361H296.225V19.7029H295.871V17.5753ZM296.186 18.5209H296.54C296.58 18.5209 296.619 18.5209 296.659 18.4421C296.698 18.4421 296.737 18.3633 296.777 18.3239C296.777 18.2845 296.816 18.2057 296.816 18.1269C296.816 18.0481 296.777 17.9299 296.698 17.8511C296.619 17.7723 296.501 17.7329 296.383 17.7329H296.146V18.5209H296.186Z" fill="#231F20"/>
</g>
</g>
<defs>
<clipPath id="clip0_10109_2104">
<rect width="298" height="48.6531" fill="white"/>
</clipPath>
<clipPath id="clip1_10109_2104">
<rect width="297.627" height="13.199" fill="white" transform="translate(0.804413 16.5902)"/>
</clipPath>
</defs>
</svg>