<?xml version="1.0" encoding="UTF-8"?>
<svg id="Layer_1" data-name="Layer 1" xmlns="http://www.w3.org/2000/svg" viewBox="0 0 1019 458">
  <defs>
    <style>
      .cls-1 {
        fill: #fff;
        stroke-width: 0px;
      }
    </style>
  </defs>
  <g>
    <path class="cls-1" d="M125.98,73.76s-47.17,86.11-25.76,127.42c21.41,41.31,116.24,122.11,107.97,216.34-.21,2.43-16.55-88.04-113.53-167.69-29.6-24.3-57.23-101.39,31.34-176.07h-.03Z"/>
    <path class="cls-1" d="M70.57,136.14s-31.15,62.14-11.27,88.28c19.88,26.14,100.7,72.9,100.91,137.3,0,1.66-19.4-58.13-101.83-103.95-25.14-13.97-52.54-63.79,12.18-121.63Z"/>
    <path class="cls-1" d="M18.57,170.21c9.48,0,17.17-7.65,17.17-17.09s-7.69-17.09-17.17-17.09-17.17,7.65-17.17,17.09,7.69,17.09,17.17,17.09Z"/>
    <path class="cls-1" d="M127.13,228.39c11.81-58.1,36.63-97.36,78.13-112.44,5.96-5.15-51.79-25.05-82.4,10.68-19.32,22.54-15.99,52.58-13.58,49.45,2.12-2.72,9.66-17.92,14.22-19.47-1.05,2.46-14.73,61.02,3.6,71.78h.03Z"/>
    <path class="cls-1" d="M144.46,243.59c24.55-35.86,52.48-55.33,84.82-53.78,5.5-1.79-27.77-31.54-58.63-16.07-19.45,9.75-26.16,29.77-23.26,29.51,1.75-.16,17.33-12.47,15.13-9.11-1.18-.48-27.37,36.98-18.06,49.45Z"/>
  </g>
  <g>
    <path class="cls-1" d="M284.66,244.29l-17.34,40.6h-9.07l58.34-137.96h9.85l64.25,137.96h-19.12l-18.92-40.6h-68ZM317.58,169h-.79l-28.38,66.42h60.11l-30.94-66.42Z"/>
    <path class="cls-1" d="M540.49,146.92v140.33h-.99l-109.39-107.81h-.79v105.44h-9.07v-140.33h.99l109.39,107.81h.79v-105.44h9.07Z"/>
    <path class="cls-1" d="M578.23,192.06c2.82-8.41,7.26-16.13,13.3-23.16,6.04-7.03,13.73-12.84,23.06-17.44,9.33-4.6,20.5-6.9,33.51-6.9s24.54,2.33,34.2,7c9.66,4.67,17.64,10.54,23.95,17.64,6.31,7.1,10.97,14.82,13.99,23.16,3.02,8.35,4.53,16.2,4.53,23.55,0,4.86-.69,9.99-2.07,15.37-1.38,5.39-3.42,10.74-6.11,16.06-2.69,5.32-6.14,10.38-10.35,15.18-4.21,4.8-9.16,9.04-14.88,12.71-5.72,3.68-12.16,6.6-19.32,8.77-7.16,2.17-15.14,3.25-23.95,3.25-13.01,0-24.18-2.33-33.51-7-9.33-4.66-17.02-10.54-23.06-17.64-6.04-7.1-10.48-14.81-13.3-23.16-2.83-8.34-4.24-16.19-4.24-23.55s1.41-15.44,4.24-23.85ZM597.54,241.23c2.82,7.69,6.7,14.29,11.63,19.81,4.93,5.52,10.74,9.82,17.44,12.91,6.7,3.09,13.99,4.63,21.88,4.63s15.08-1.54,21.98-4.63c6.9-3.09,12.94-7.39,18.13-12.91,5.19-5.52,9.29-12.12,12.32-19.81,3.02-7.69,4.53-16.13,4.53-25.33s-1.51-17.64-4.53-25.33c-3.02-7.69-7.13-14.29-12.32-19.81-5.19-5.52-11.23-9.82-18.13-12.91-6.9-3.09-14.22-4.63-21.98-4.63s-15.18,1.55-21.88,4.63c-6.7,3.09-12.51,7.39-17.44,12.91-4.93,5.52-8.8,12.12-11.63,19.81-2.83,7.69-4.24,16.13-4.24,25.33s1.41,17.64,4.24,25.33Z"/>
    <path class="cls-1" d="M803.01,146.92c8.8,0,16.09,1.22,21.88,3.65,5.78,2.43,10.35,5.45,13.7,9.07,3.35,3.62,5.72,7.52,7.09,11.73,1.38,4.21,2.07,8.08,2.07,11.63,0,3.94-.65,7.98-1.95,12.12-1.3,4.14-3.38,7.98-6.24,11.53-2.86,3.55-6.55,6.5-11.06,8.87-4.51,2.36-9.92,3.74-16.22,4.14v.79l1.97.99c1.58.79,2.92,1.77,4.04,2.96,1.12,1.18,2.56,3.09,4.34,5.72,1.77,2.63,4.16,6.34,7.16,11.14,3,4.8,7.23,11.2,12.7,19.22,1.82,2.76,3.58,5.22,5.28,7.39s3.47,4.01,5.31,5.52c1.84,1.51,3.81,2.66,5.91,3.45,2.1.79,4.53,1.18,7.29,1.18.66,0,1.31-.03,1.97-.1.66-.06,1.31-.16,1.97-.3v7.29c-1.84,1.05-3.68,1.71-5.52,1.97-1.84.26-4.21.39-7.09.39-3.94,0-7.32-.53-10.13-1.58-2.81-1.05-5.32-2.46-7.53-4.24-2.21-1.77-4.26-3.91-6.15-6.41-1.89-2.49-3.81-5.25-5.76-8.28l-15.63-23.06c-2.38-3.68-4.42-6.77-6.13-9.26-1.72-2.49-3.56-4.53-5.54-6.11-1.98-1.58-4.19-2.69-6.63-3.35-2.44-.66-5.51-.99-9.2-.99h-8.71v60.9h-17.93v-137.96h44.74ZM776.2,215.12h20.38c5.27,0,9.92-.92,13.94-2.76,4.02-1.84,7.42-4.24,10.19-7.19,2.77-2.96,4.84-6.24,6.23-9.85,1.39-3.61,2.08-7.19,2.08-10.74,0-4.2-.76-8.08-2.28-11.63-1.52-3.55-3.73-6.6-6.63-9.17-2.9-2.56-6.37-4.56-10.39-6.01-4.02-1.44-8.54-2.17-13.55-2.17h-19.98v59.52Z"/>
    <path class="cls-1" d="M908.45,244.29l-17.34,40.6h-9.07l58.34-137.96h9.85l64.25,137.96h-19.12l-18.92-40.6h-68ZM941.37,169h-.79l-28.38,66.42h60.11l-30.94-66.42Z"/>
  </g>
  <g>
    <path class="cls-1" d="M267.25,331.93v25.08h-3.26v-25.08h3.26Z"/>
    <path class="cls-1" d="M299.13,331.93v25.51h-.18l-19.88-19.6h-.14v19.17h-1.65v-25.51h.18l19.88,19.6h.14v-19.17h1.65Z"/>
    <path class="cls-1" d="M313.75,357.01v-23.11h-9.6v-1.97h22.46v1.97h-9.6v23.11h-3.26Z"/>
    <path class="cls-1" d="M347.82,331.93v1.97h-12.93v8.99h11.11v1.65h-11.11v10.5h12.93v1.97h-16.19v-25.08h16.19Z"/>
    <path class="cls-1" d="M376.02,357.01h-3.04v-1.47c-.91.48-2.06.91-3.45,1.31-1.39.39-2.98.59-4.77.59-2.39,0-4.45-.38-6.17-1.13-1.72-.75-3.14-1.76-4.25-3.01-1.11-1.25-1.94-2.67-2.48-4.26-.54-1.59-.81-3.23-.81-4.93,0-1.98.35-3.76,1.04-5.32s1.66-2.88,2.9-3.96c1.24-1.08,2.72-1.9,4.42-2.47s3.58-.86,5.61-.86c1.77,0,3.3.2,4.6.59,1.3.39,2.39.88,3.28,1.45.88.57,1.58,1.19,2.1,1.84.51.66.88,1.25,1.09,1.77h-2.58c-.14-.5-.46-1-.95-1.49-.49-.49-1.12-.93-1.88-1.31-.76-.38-1.64-.69-2.62-.93-.98-.24-2.03-.36-3.15-.36-1.7,0-3.18.27-4.46.82-1.28.55-2.36,1.33-3.24,2.33-.88,1-1.55,2.2-1.99,3.58-.44,1.39-.66,2.9-.66,4.55s.23,3.21.7,4.6c.47,1.4,1.17,2.6,2.1,3.62.93,1.02,2.11,1.81,3.52,2.38,1.41.57,3.06.86,4.95.86,1.44,0,2.72-.17,3.84-.5,1.12-.33,2.23-.85,3.3-1.54v-6.49h-4.01v-1.47h7.06v11.18Z"/>
    <path class="cls-1" d="M390.6,331.93c1.6,0,2.93.22,3.98.66,1.05.44,1.88.99,2.49,1.65.61.66,1.04,1.37,1.29,2.13.25.76.38,1.47.38,2.11,0,.72-.12,1.45-.35,2.2-.24.75-.62,1.45-1.13,2.1-.52.64-1.19,1.18-2.01,1.61-.82.43-1.8.68-2.95.75v.14l.36.18c.29.14.53.32.73.54.2.21.47.56.79,1.04.32.48.76,1.15,1.3,2.02.54.87,1.32,2.04,2.31,3.49.33.5.65.95.96,1.34.31.39.63.73.96,1,.33.27.69.48,1.08.63.38.14.82.21,1.33.21.12,0,.24,0,.36-.02.12-.01.24-.03.36-.05v1.33c-.33.19-.67.31-1,.36-.33.05-.76.07-1.29.07-.72,0-1.33-.1-1.84-.29-.51-.19-.97-.45-1.37-.77-.4-.32-.77-.71-1.12-1.16-.34-.45-.69-.96-1.05-1.5l-2.84-4.19c-.43-.67-.8-1.23-1.12-1.68s-.65-.82-1.01-1.11c-.36-.29-.76-.49-1.21-.61-.44-.12-1-.18-1.67-.18h-1.58v11.07h-3.26v-25.08h8.13ZM385.73,344.32h3.71c.96,0,1.8-.17,2.53-.5.73-.33,1.35-.77,1.85-1.31.5-.54.88-1.13,1.13-1.79s.38-1.31.38-1.95c0-.76-.14-1.47-.41-2.11-.28-.65-.68-1.2-1.2-1.67s-1.16-.83-1.89-1.09-1.55-.39-2.46-.39h-3.63v10.82Z"/>
    <path class="cls-1" d="M409.77,349.63l-3.15,7.38h-1.65l10.61-25.08h1.79l11.68,25.08h-3.48l-3.44-7.38h-12.36ZM415.75,335.94h-.14l-5.16,12.07h10.93l-5.62-12.07Z"/>
    <path class="cls-1" d="M436.14,357.01v-23.11h-9.6v-1.97h22.46v1.97h-9.6v23.11h-3.26Z"/>
    <path class="cls-1" d="M458.71,331.93v25.08h-3.26v-25.08h3.26Z"/>
    <path class="cls-1" d="M469.39,331.93l8.6,20.64h.14l8.35-20.64h1.86l-10.17,25.08h-2.15l-10.5-25.08h3.87Z"/>
    <path class="cls-1" d="M509.91,331.93v1.97h-12.93v8.99h11.11v1.65h-11.11v10.5h12.93v1.97h-16.19v-25.08h16.19Z"/>
    <path class="cls-1" d="M531.09,357.01h-3.26v-25.08h3.26v10.96h15.01v-10.96h3.26v25.08h-3.26v-12.47h-15.01v12.47Z"/>
    <path class="cls-1" d="M574.15,331.93v1.97h-12.93v8.99h11.11v1.65h-11.11v10.5h12.93v1.97h-16.19v-25.08h16.19Z"/>
    <path class="cls-1" d="M581.1,349.63l-3.15,7.38h-1.65l10.61-25.08h1.79l11.68,25.08h-3.48l-3.44-7.38h-12.36ZM587.09,335.94h-.14l-5.16,12.07h10.93l-5.62-12.07Z"/>
    <path class="cls-1" d="M605.75,357.01v-25.08h3.26v23.11h12.93v1.97h-16.19Z"/>
    <path class="cls-1" d="M627.61,357.01v-23.11h-9.6v-1.97h22.46v1.97h-9.6v23.11h-3.26Z"/>
    <path class="cls-1" d="M648.75,357.01h-3.26v-25.08h3.26v10.96h15.01v-10.96h3.26v25.08h-3.26v-12.47h-15.01v12.47Z"/>
    <path class="cls-1" d="M689.74,349.63l-3.15,7.38h-1.65l10.61-25.08h1.79l11.68,25.08h-3.48l-3.44-7.38h-12.36ZM695.72,335.94h-.14l-5.16,12.07h10.93l-5.62-12.07Z"/>
    <path class="cls-1" d="M736.24,331.93v25.51h-.18l-19.88-19.6h-.14v19.17h-1.65v-25.51h.18l19.88,19.6h.14v-19.17h1.65Z"/>
    <path class="cls-1" d="M745.2,357.01v-25.08h8.24c1.98,0,3.8.32,5.45.95,1.65.63,3.06,1.5,4.25,2.62,1.18,1.11,2.1,2.43,2.76,3.96.66,1.53.99,3.18.99,4.95s-.34,3.53-1.02,5.07-1.61,2.87-2.79,4-2.56,1.99-4.14,2.62c-1.58.62-3.26.93-5.05.93h-8.67ZM748.46,355.43h3.93c1.95,0,3.62-.33,4.99-.99,1.37-.66,2.5-1.51,3.38-2.56.88-1.05,1.52-2.23,1.93-3.53s.61-2.6.61-3.89c0-1.43-.24-2.81-.71-4.14-.48-1.33-1.17-2.5-2.09-3.51-.92-1.01-2.05-1.82-3.41-2.42-1.36-.6-2.92-.9-4.68-.9h-3.93v21.93Z"/>
    <path class="cls-1" d="M786.37,349.63l-3.15,7.38h-1.65l10.61-25.08h1.79l11.68,25.08h-3.48l-3.44-7.38h-12.36ZM792.35,335.94h-.14l-5.16,12.07h10.93l-5.62-12.07Z"/>
    <path class="cls-1" d="M827.21,331.93v1.97h-12.93v8.99h11.11v1.65h-11.11v10.5h12.93v1.97h-16.19v-25.08h16.19Z"/>
    <path class="cls-1" d="M832.05,350.67c.02.41.12.9.29,1.49.17.58.49,1.15.97,1.7.48.55,1.17,1.02,2.08,1.42.91.39,2.11.59,3.62.59,1.89,0,3.4-.36,4.53-1.08,1.13-.72,1.7-1.85,1.7-3.4,0-1.24-.36-2.23-1.08-2.97s-1.62-1.37-2.71-1.88-2.26-.97-3.53-1.38-2.44-.9-3.53-1.47-1.99-1.29-2.71-2.15c-.72-.86-1.07-1.99-1.07-3.4,0-1.08.22-2.03.66-2.87s1.04-1.53,1.79-2.08c.75-.55,1.63-.97,2.62-1.25.99-.29,2.04-.43,3.14-.43s2.06.13,3.03.38c.97.25,1.84.62,2.6,1.11.77.49,1.4,1.09,1.9,1.79.5.7.83,1.5.97,2.38h-2.44c-.19-1.41-.83-2.44-1.92-3.1s-2.41-.99-3.97-.99c-.93,0-1.76.11-2.48.34-.72.23-1.32.53-1.81.9s-.86.81-1.11,1.31c-.25.5-.38,1.04-.38,1.61,0,1.03.37,1.85,1.11,2.47.74.62,1.67,1.17,2.78,1.65,1.11.48,2.32.93,3.63,1.36,1.3.43,2.51.96,3.63,1.59s2.04,1.42,2.78,2.36c.74.94,1.11,2.16,1.11,3.64,0,1.08-.21,2.05-.65,2.94-.43.88-1.04,1.64-1.83,2.26s-1.74,1.1-2.85,1.43c-1.11.33-2.36.5-3.75.5s-2.62-.16-3.77-.48c-1.15-.32-2.15-.78-3-1.36s-1.52-1.3-2.01-2.13-.76-1.77-.81-2.79h2.44Z"/>
    <path class="cls-1" d="M861,357.01v-23.11h-9.6v-1.97h22.46v1.97h-9.6v23.11h-3.26Z"/>
    <path class="cls-1" d="M882.13,357.01h-3.26v-25.08h3.26v10.96h15.01v-10.96h3.26v25.08h-3.26v-12.47h-15.01v12.47Z"/>
    <path class="cls-1" d="M925.2,331.93v1.97h-12.93v8.99h11.11v1.65h-11.11v10.5h12.93v1.97h-16.19v-25.08h16.19Z"/>
    <path class="cls-1" d="M936.59,357.01v-23.11h-9.6v-1.97h22.46v1.97h-9.6v23.11h-3.26Z"/>
    <path class="cls-1" d="M959.17,331.93v25.08h-3.26v-25.08h3.26Z"/>
    <path class="cls-1" d="M991.38,353.35c-.31.36-.76.78-1.36,1.25-.6.48-1.34.93-2.24,1.34s-1.95.77-3.15,1.06-2.57.43-4.1.43c-2.41,0-4.49-.38-6.23-1.13-1.74-.75-3.18-1.74-4.3-2.97-1.12-1.23-1.95-2.64-2.49-4.23-.54-1.59-.81-3.22-.81-4.89,0-1.93.33-3.68,1-5.25.67-1.56,1.61-2.9,2.83-4.01,1.22-1.11,2.68-1.96,4.39-2.56,1.71-.6,3.6-.9,5.68-.9,1.43,0,2.71.14,3.83.43s2.1.68,2.94,1.18c.84.5,1.53,1.1,2.1,1.79.56.69,1.02,1.45,1.38,2.26h-2.65c-.17-.5-.46-1-.88-1.49s-.96-.93-1.61-1.31c-.66-.38-1.41-.69-2.26-.93-.85-.24-1.79-.36-2.81-.36-1.5,0-2.9.27-4.17.82-1.28.55-2.38,1.31-3.31,2.29-.93.98-1.65,2.14-2.17,3.49-.51,1.35-.77,2.84-.77,4.46,0,1.53.24,3,.73,4.41.49,1.41,1.21,2.65,2.17,3.73.96,1.08,2.15,1.93,3.58,2.58,1.43.64,3.08.97,4.94.97,3.34,0,6.23-1.15,8.67-3.44l1.08.97Z"/>
    <path class="cls-1" d="M995.85,350.67c.02.41.12.9.29,1.49.17.58.49,1.15.97,1.7.48.55,1.17,1.02,2.08,1.42.91.39,2.11.59,3.62.59,1.89,0,3.4-.36,4.53-1.08,1.13-.72,1.7-1.85,1.7-3.4,0-1.24-.36-2.23-1.08-2.97s-1.62-1.37-2.71-1.88-2.26-.97-3.53-1.38-2.44-.9-3.53-1.47-1.99-1.29-2.71-2.15c-.72-.86-1.07-1.99-1.07-3.4,0-1.08.22-2.03.66-2.87s1.04-1.53,1.79-2.08c.75-.55,1.63-.97,2.62-1.25.99-.29,2.04-.43,3.14-.43s2.06.13,3.03.38c.97.25,1.84.62,2.6,1.11.77.49,1.4,1.09,1.9,1.79.5.7.83,1.5.97,2.38h-2.44c-.19-1.41-.83-2.44-1.92-3.1s-2.41-.99-3.97-.99c-.93,0-1.76.11-2.48.34-.72.23-1.32.53-1.81.9s-.86.81-1.11,1.31c-.25.5-.38,1.04-.38,1.61,0,1.03.37,1.85,1.11,2.47.74.62,1.67,1.17,2.78,1.65,1.11.48,2.32.93,3.63,1.36,1.3.43,2.51.96,3.63,1.59s2.04,1.42,2.78,2.36c.74.94,1.11,2.16,1.11,3.64,0,1.08-.21,2.05-.65,2.94-.43.88-1.04,1.64-1.83,2.26s-1.74,1.1-2.85,1.43c-1.11.33-2.36.5-3.75.5s-2.62-.16-3.77-.48c-1.15-.32-2.15-.78-3-1.36s-1.52-1.3-2.01-2.13-.76-1.77-.81-2.79h2.44Z"/>
  </g>
</svg>