<?xml version="1.0" encoding="UTF-8"?>
<svg xmlns="http://www.w3.org/2000/svg" width="995" height="216" viewBox="0 0 995 216" fill="none">
  <path fill-rule="evenodd" clip-rule="evenodd" d="M19.0281 4.67175L19.2799 45.7328C19.4209 68.3139 19.6425 86.804 19.7835 86.804C19.9246 86.814 22.7551 84.1942 26.0792 80.9798C29.4034 77.7655 34.3895 73.5838 37.1596 71.6995C39.9298 69.8052 44.6943 67.0443 47.7364 65.563C50.7785 64.0717 55.9963 62.0363 59.3205 61.0287C63.8634 59.6583 68.7489 59.2049 78.963 59.1948C89.2275 59.1847 94.1633 59.6382 99.1092 61.0589C102.715 62.0867 108.376 64.2834 111.701 65.9258C115.025 67.5783 119.558 70.1679 121.774 71.6794C123.99 73.2009 128.704 77.3322 132.26 80.869C135.806 84.4058 140.641 90.2501 143.008 93.8473C145.365 97.4546 148.518 103.571 149.988 107.45C151.469 111.33 153.323 117.789 154.098 121.809C154.884 125.83 155.509 133.085 155.498 137.931C155.488 142.778 154.824 149.922 154.008 153.802C153.202 157.681 151.318 163.807 149.817 167.405C148.316 171.002 145.345 176.675 143.199 180C141.054 183.325 136.722 188.726 133.559 192.001C130.406 195.276 125.551 199.669 122.781 201.755C120.011 203.851 114.803 206.934 111.197 208.617C107.591 210.289 101.93 212.385 98.6056 213.272C95.2814 214.159 88.2504 215.136 82.9923 215.438C76.3742 215.821 70.7837 215.499 64.8607 214.391C58.9478 213.282 53.3371 211.297 46.7291 207.992C38.8318 204.042 35.6185 201.664 19.5317 185.542V211.74H0.392822L0.64465 108.922C0.866258 18.829 1.08787 5.99175 2.40744 5.13526C3.24351 4.59114 7.32312 4.2687 19.0281 4.67175V4.67175ZM49.2474 84.033C45.9232 85.7963 39.9902 90.4214 36.0516 94.3209C30.7129 99.611 28.0133 103.309 25.3741 108.962C23.4401 113.123 21.2844 119.24 20.5894 122.565C19.8238 126.233 19.5015 132.974 19.7634 139.695C20.0757 147.725 20.8211 152.582 22.4731 157.328C23.7322 160.925 26.8649 167.022 29.4437 170.861C32.0224 174.71 36.4646 179.919 39.3153 182.449C42.166 184.988 47.1522 188.363 50.3957 189.965C53.6392 191.568 58.565 193.583 61.3351 194.439C64.498 195.417 70.3102 196.011 76.9484 196.031C85.017 196.052 89.1973 195.538 94.5763 193.875C98.4545 192.676 104.347 189.945 107.671 187.799C110.995 185.653 116.103 181.441 119.024 178.428C121.945 175.415 126.095 169.551 128.251 165.389C130.416 161.238 132.884 155.111 133.761 151.786C134.627 148.461 135.352 141.66 135.372 136.672C135.403 130.233 134.798 125.558 133.277 120.55C132.109 116.67 129.721 110.776 127.979 107.45C126.135 103.924 121.663 98.2608 117.251 93.8473C112.345 88.9401 107.561 85.2623 103.642 83.3679C100.318 81.7658 94.6569 79.6095 91.0507 78.5817C87.3338 77.5237 81.4612 76.7377 77.4521 76.7679C73.5739 76.8082 66.9962 77.7353 62.8461 78.8336C58.6859 79.9319 52.5715 82.2797 49.2474 84.033V84.033ZM952.825 29.5301C968.579 29.8525 969.133 29.9432 975.499 33.0366C979.085 34.7899 983.568 37.964 985.472 40.0901C987.365 42.2263 989.944 46.2366 991.193 49.0076C992.442 51.7786 993.923 57.4516 994.487 61.603C995.132 66.4095 995.172 71.7298 994.588 76.2137C994.074 80.0931 993.258 84.6275 992.775 86.2901C992.281 87.9527 991.133 90.7841 990.226 92.5878C989.31 94.3914 986.862 97.7368 984.787 100.014C982.712 102.301 978.975 105.193 976.476 106.443C973.978 107.692 969.566 109.224 966.655 109.849C963.744 110.463 955.706 110.977 948.775 110.977C938.481 110.977 936.093 110.705 935.68 109.466C935.408 108.639 935.096 90.5725 935.006 69.3316C934.915 46.9621 935.227 30.3866 935.761 29.9432C936.275 29.5301 943.95 29.3487 952.825 29.5301V29.5301ZM942.852 70.4198L942.732 103.924C960.098 103.944 965.507 103.4 968.418 102.422C970.916 101.586 974.694 99.4296 976.829 97.6259C978.965 95.8223 981.916 91.8623 983.377 88.8092C985.844 83.6904 986.046 82.2696 986.046 70.0974C986.046 57.4516 985.925 56.6858 983.024 51.0027C981.191 47.4156 978.32 43.778 975.721 41.7527C973.364 39.9289 969.738 37.9438 967.663 37.3594C965.587 36.775 959.312 36.0293 953.711 35.7069C948.04 35.3743 943.417 35.5154 943.255 36.0192C943.104 36.513 942.923 51.9902 942.852 70.4198Z" fill="#080808"></path>
  <path fill-rule="evenodd" clip-rule="evenodd" d="M388.711 5.03449L389.215 211.74H371.083L370.882 108.539C370.71 19.1817 370.872 5.27633 372.141 4.82289C372.947 4.53068 377.006 4.47022 388.711 5.03449V5.03449ZM445.12 4.67175L445.624 211.74H426.485L426.314 108.629C426.223 51.3151 426.536 5.19572 427.019 4.80274C427.503 4.40976 431.774 4.22839 445.12 4.67175V4.67175ZM768.638 29.3588C773.101 29.3588 774.249 29.7417 775.468 31.6259C776.274 32.8754 782.67 47.7279 789.671 64.6259C796.672 81.534 802.595 96.1548 802.816 97.1221C803.038 98.0895 803.562 98.8956 803.975 98.9056C804.388 98.9258 811.056 84.2949 818.772 66.4095C826.498 48.524 833.418 32.8754 834.134 31.6259C835.252 29.7114 836.309 29.3588 840.993 29.3588C845.023 29.3588 846.675 29.7719 847.037 30.8702C847.309 31.7066 847.541 50.0656 847.541 71.6794C847.541 110.141 847.501 110.987 845.526 111.481C844.418 111.763 842.605 111.763 841.497 111.481C839.533 110.987 839.482 110.121 839.442 73.9466C839.392 37.5811 839.361 36.9765 837.568 40.4427C836.571 42.3875 829.228 59.0537 821.25 77.4934C813.182 96.1346 806.07 111.239 805.234 111.521C804.398 111.803 803.048 111.813 802.212 111.531C801.376 111.259 798.565 105.919 795.967 99.6714C793.358 93.4241 786.619 76.9695 780.968 63.1145C775.327 49.2595 770.31 37.4702 769.827 36.916C769.313 36.3316 768.94 51.6879 768.95 73.4427C768.971 102.583 768.689 111.068 767.712 111.4C767.016 111.642 765.435 111.642 761.919 110.977L761.748 70.843C761.658 48.7658 761.96 30.3966 762.423 30.0339C762.886 29.6611 765.677 29.3588 768.638 29.3588V29.3588ZM914.023 29.3588V35.4046H878.767V64.6259L909.49 65.1298V71.1756L878.767 71.6794L879.271 104.427L915.031 104.931L914.527 110.473L895.388 110.755C884.862 110.917 875.232 110.806 871.716 109.969L871.545 70.3392C871.454 48.534 871.757 30.3966 872.22 30.0339C872.683 29.6611 882.273 29.3588 914.023 29.3588ZM264.308 59.1343C271.269 59.3963 278.501 60.3032 282.44 61.4217C286.036 62.4495 291.929 64.7771 295.535 66.5908C299.131 68.4046 303.895 71.2763 306.112 72.9792C308.328 74.6821 312.176 78.1383 314.674 80.6775C317.162 83.2168 320.395 86.8745 321.846 88.8091C323.306 90.7539 325.845 94.8348 327.507 97.8778C329.159 100.931 331.456 106.372 332.614 109.969C333.772 113.577 335.193 119.24 335.787 122.565C336.371 125.89 336.845 130.767 336.835 138.183L203.366 138.687L203.668 144.229C203.829 147.282 204.655 152.492 205.512 155.817C206.368 159.142 208.604 164.815 210.488 168.412C212.381 172.02 215.897 177.229 218.304 180C220.722 182.771 225.144 186.741 228.136 188.837C231.137 190.923 236.758 193.815 240.636 195.256C245.955 197.241 250.045 197.976 257.257 198.238C263.281 198.46 269.254 198.037 273.374 197.1C276.97 196.283 283.548 193.815 287.98 191.618C292.996 189.129 298.053 185.602 301.387 182.297C304.329 179.375 308.862 173.904 311.46 170.145C314.059 166.397 316.638 163.344 317.192 163.374C317.746 163.404 321.272 165.117 325.019 167.183C329.894 169.853 331.677 171.365 331.274 172.443C330.952 173.279 329.239 176.453 327.467 179.496C325.694 182.549 320.385 188.938 315.681 193.694C310.151 199.286 304.621 203.74 300.068 206.259C296.19 208.415 289.39 211.287 284.958 212.637C277.998 214.763 274.835 215.106 261.79 215.156C250.145 215.207 245.059 214.794 239.629 213.353C235.751 212.325 229.858 210.249 226.534 208.738C223.21 207.226 217.77 203.931 214.446 201.412C211.122 198.893 206.066 193.946 203.205 190.429C200.344 186.912 195.952 180.181 193.444 175.466C190.946 170.76 187.944 163.273 186.786 158.84C185.627 154.406 184.418 146.929 184.106 142.214C183.723 136.692 184.056 130.424 185.023 124.58C185.839 119.592 187.924 111.884 189.636 107.45C191.349 103.017 194.663 96.447 196.99 92.8397C199.317 89.2424 204.645 82.8843 208.836 78.7227C213.822 73.7753 218.899 69.8959 223.512 67.5078C227.39 65.5026 233.051 63.054 236.104 62.0666C239.146 61.0791 244.132 59.9203 247.184 59.487C250.226 59.0537 257.932 58.8925 264.308 59.1343V59.1343ZM235.348 83.4888C231.601 85.2522 226.866 88.9099 221.961 93.8171C215.494 100.276 213.802 102.714 210.629 110.221C208.574 115.068 206.892 119.492 206.892 120.046C206.892 120.701 225.527 121.053 260.783 121.053H314.674C313.747 116.761 312.639 113.244 311.611 110.473C310.584 107.702 307.774 102.714 305.366 99.3893C302.949 96.0641 298.728 91.6809 295.988 89.6354C293.248 87.6 288.282 84.7182 284.958 83.2369C281.634 81.7557 275.963 79.9218 272.367 79.156C268.761 78.3902 263.099 77.7957 259.775 77.8461C256.451 77.8864 250.901 78.5615 247.436 79.3374C243.971 80.1133 238.531 81.9774 235.348 83.4888V83.4888ZM559.45 59.0537C567.539 59.3157 571.921 60.0311 578.085 62.0766C582.518 63.5478 589.317 66.7218 593.195 69.1099C597.073 71.5081 603.53 76.9191 607.549 81.131C611.568 85.353 614.963 88.8091 615.104 88.8091C615.245 88.8091 615.245 82.9145 614.852 62.6107H633.991V211.74H614.852L614.913 187.053L608.083 193.704C604.326 197.362 598.534 202.097 595.21 204.213C591.886 206.34 586.557 209.121 583.374 210.41C580.191 211.7 573.845 213.484 569.271 214.37C563.358 215.529 558.05 215.831 550.888 215.438C544.874 215.106 537.974 213.998 533.764 212.688C529.886 211.489 524.214 209.252 521.172 207.72C518.12 206.178 512.379 202.269 508.39 199.014C504.411 195.759 498.78 190.157 495.879 186.55C492.988 182.952 488.918 176.373 486.833 171.939C484.758 167.505 482.26 160.936 481.273 157.328C479.973 152.562 479.49 147.071 479.5 137.176C479.5 126.263 479.933 122.031 481.706 115.763C482.915 111.471 485.09 105.576 486.541 102.664C487.992 99.752 491.104 94.6534 493.441 91.3282C495.788 88.003 500.895 82.3401 504.793 78.7328C508.682 75.1356 514.302 70.7121 517.274 68.9185C520.246 67.1148 526.078 64.4446 530.238 62.9835C534.388 61.5124 540.281 59.9505 543.333 59.5072C546.375 59.0638 553.628 58.8623 559.45 59.0537ZM531.749 83.8818C526.763 86.2901 522.472 89.5044 517.103 94.8449C511.643 100.286 508.46 104.538 505.75 109.969C503.685 114.131 501.278 120.933 500.402 125.084C499.314 130.253 498.981 135.352 499.354 141.206C499.656 145.962 500.845 152.461 502.023 155.817C503.192 159.142 505.599 164.563 507.372 167.868C509.145 171.163 513.537 176.856 517.143 180.524C521.706 185.169 525.977 188.303 531.245 190.903C535.396 192.958 541.973 195.306 545.851 196.122C549.73 196.928 554.937 197.603 557.435 197.603C559.924 197.603 565.141 196.928 569.02 196.122C572.898 195.306 579.465 192.948 583.626 190.882C588.43 188.504 593.699 184.736 598.091 180.544C603.369 175.506 605.917 172.05 608.889 165.893C611.034 161.46 613.271 155.343 613.875 152.29C614.479 149.247 614.963 142.445 614.953 137.176C614.953 131.795 614.248 124.963 613.361 121.557C612.495 118.232 610.35 112.569 608.597 108.962C606.441 104.528 602.946 99.9435 597.788 94.7844C592.581 89.5649 588.098 86.149 583.626 83.9826C580.019 82.2394 573.563 80.1133 569.271 79.2669C564.98 78.4204 559.309 77.7655 556.68 77.8159C554.051 77.8763 548.954 78.491 545.348 79.1963C541.742 79.9017 535.627 82.0076 531.749 83.8818V83.8818ZM791.131 131.694C794.174 131.996 798.706 133.155 801.205 134.263C803.693 135.382 806.07 136.833 806.473 137.488C806.886 138.153 807.228 139.705 807.228 140.954C807.238 142.204 806.795 143.453 806.241 143.725C805.687 144.007 802.857 142.99 799.945 141.478C796.954 139.926 792.471 138.566 789.621 138.344C786.437 138.103 783.194 138.556 780.807 139.584C778.731 140.481 776.123 142.677 775.015 144.481C773.917 146.285 773.01 149.227 773 151.031C773 152.834 773.675 155.666 774.511 157.328C775.347 158.991 777.492 161.439 779.296 162.759C781.099 164.089 786.76 167.263 791.887 169.813C797.014 172.372 802.867 175.929 804.891 177.733C806.916 179.536 809.182 182.479 809.928 184.282C810.673 186.086 811.278 190.056 811.278 193.099C811.278 196.173 810.552 200.102 809.656 201.916C808.759 203.72 806.835 206.481 805.375 208.053C803.914 209.624 800.902 211.892 798.686 213.091C795.362 214.884 792.985 215.257 785.088 215.257C777.029 215.247 774.662 214.854 770.099 212.738C767.117 211.358 764.287 209.433 763.803 208.466C763.32 207.498 762.927 205.795 762.927 204.687C762.927 203.579 763.38 202.45 763.934 202.168C764.488 201.896 767.742 203.135 771.177 204.939C775.095 207.005 779.296 208.355 782.509 208.597C785.309 208.808 789.308 208.697 791.383 208.345C793.579 207.972 796.662 206.34 798.757 204.435C800.983 202.41 802.746 199.629 803.37 197.13C804.146 194.006 804.025 192.142 802.786 188.817C801.879 186.368 799.804 183.507 797.931 182.126C796.128 180.796 790.467 177.622 785.339 175.073C780.212 172.513 774.551 169.138 772.748 167.566C770.945 165.984 768.679 163.042 767.712 161.016C766.694 158.88 765.949 154.991 765.949 151.786C765.949 148.26 766.684 144.783 767.963 142.214C769.071 139.997 771.449 137.176 773.252 135.936C775.055 134.697 778.56 133.115 781.058 132.42C783.637 131.704 787.989 131.392 791.131 131.694V131.694ZM858.118 132.158C863.104 132.137 869.45 132.45 872.22 132.853C874.99 133.246 879.513 134.949 882.273 136.631C885.557 138.637 888.166 141.256 889.828 144.229C891.933 147.998 892.356 150.043 892.306 156.321C892.265 161.963 891.711 164.906 890.13 167.908C888.971 170.125 886.725 173.158 885.154 174.66C883.582 176.151 880.248 178.297 877.76 179.416C874.869 180.725 869.661 181.743 853.575 183.023V198.389C853.585 211.992 853.383 213.867 851.822 214.703C850.855 215.227 849.042 215.449 845.526 214.763L845.355 174.508C845.184 135.745 845.254 134.213 847.118 133.226C848.186 132.661 853.131 132.178 858.118 132.158ZM854.088 174.962C868.785 174.76 872.341 174.196 875.171 172.836C877.377 171.768 880.268 169.178 881.719 166.971C883.784 163.817 884.308 161.772 884.308 156.895C884.308 152.431 883.723 149.821 882.152 147.252C880.973 145.317 878.254 142.859 876.118 141.801C873.489 140.501 869.228 139.725 863.023 139.392L853.826 138.919L854.088 174.962ZM950.649 132.087C952.392 132.067 954.336 132.631 954.981 133.347C955.625 134.062 959.856 144.854 964.389 157.328C968.922 169.793 974.351 184.756 976.456 190.58C978.562 196.394 981.241 203.649 982.41 206.702C983.578 209.745 984.535 212.809 984.535 213.504C984.535 214.33 983.246 214.673 976.98 214.26L968.922 191.608L932.659 191.558L929.244 201.392C927.36 206.803 925.436 212.023 924.963 213C924.385 214.176 922.921 214.763 920.571 214.763C918.637 214.763 917.035 214.421 917.035 214.008C917.025 213.584 919.997 205.09 923.643 195.114C927.29 185.139 933.716 167.455 937.917 155.817C942.107 144.179 945.985 134.082 946.519 133.397C947.053 132.702 948.917 132.107 950.649 132.087V132.087ZM947.265 150.275C946.821 151.655 943.95 159.817 940.878 168.412C937.796 176.997 935.6 184.383 935.983 184.806C936.376 185.24 943.145 185.582 951.042 185.562C961.83 185.542 965.406 185.22 965.416 184.282C965.436 183.587 962.223 173.954 958.295 162.87C954.356 151.786 951.032 142.536 950.911 142.325C950.79 142.103 950.095 143.242 949.37 144.844C948.645 146.446 947.698 148.884 947.265 150.275V150.275Z" fill="#080808"></path>
  <rect x="692" width="7" height="216" fill="#B3A581"></rect>
</svg>
