<svg width="368" height="60" viewBox="0 0 368 60" fill="none" xmlns="http://www.w3.org/2000/svg">
<g clip-path="url(#clip0_980_3)">
<path d="M61.4687 21.7342C61.8141 21.7665 62.4026 21.9539 63.2405 22.3029C64.0784 22.6519 64.9355 23.1689 65.8118 23.8539C66.6881 24.539 67.4685 25.3985 68.1465 26.4326C68.8245 27.4666 69.1635 28.6687 69.1635 30.0388C69.1635 31.4089 68.8309 32.7014 68.1721 33.7548C67.5069 34.8018 66.6626 35.6613 65.6391 36.3335C64.6157 37.0056 63.4964 37.5097 62.2875 37.8393C61.0786 38.1753 59.9208 38.3434 58.8271 38.3434H49.7443V6.52734H57.6181C58.9166 6.52734 60.1127 6.75354 61.2065 7.20593C62.3003 7.65832 63.2533 8.25289 64.0593 8.99611C64.8652 9.73932 65.4984 10.5859 65.959 11.5295C66.4195 12.4795 66.6498 13.4295 66.6498 14.3925C66.6498 15.0905 66.5474 15.7432 66.3491 16.3378C66.1445 16.9323 65.9078 17.4687 65.6327 17.9341C65.3577 18.3994 65.0827 18.7936 64.8076 19.1167C64.5326 19.4399 64.3407 19.6725 64.2256 19.8147C64.1104 19.931 63.9313 20.0926 63.6883 20.293C63.4452 20.4998 63.183 20.7001 62.9079 20.9069C62.6329 21.1137 62.3706 21.2947 62.1084 21.4563C61.8461 21.6178 61.635 21.7083 61.4623 21.7406L61.4687 21.7342ZM58.7887 20.9909C59.3963 20.8746 60.0232 20.6226 60.6692 20.2283C61.3152 19.8341 61.9165 19.3494 62.4666 18.7613C63.0167 18.1796 63.458 17.514 63.8098 16.7708C64.1552 16.0276 64.3279 15.252 64.3279 14.4313C64.3279 13.7333 64.1488 13.0482 63.7842 12.3761C63.426 11.704 62.9335 11.1159 62.3131 10.6053C61.6926 10.0948 60.9762 9.68116 60.1703 9.35802C59.3643 9.03488 58.5136 8.87978 57.6181 8.87978H52.0853V20.9845H58.7887V20.9909ZM58.7887 35.978C59.5946 35.978 60.4709 35.8681 61.4048 35.6484C62.3386 35.4287 63.2149 35.0862 64.0209 34.6208C64.8268 34.1555 65.4984 33.5416 66.0293 32.7854C66.5602 32.0293 66.8289 31.1245 66.8289 30.0775C66.8289 29.3214 66.6114 28.5394 66.1828 27.738C65.7479 26.9366 65.1786 26.2064 64.475 25.5536C63.7714 24.9009 62.9655 24.3645 62.0764 23.9573C61.1809 23.5502 60.2726 23.3434 59.3516 23.3434H52.0853V35.9715H58.7887V35.978Z" fill="white"/>
<path d="M86.9453 24.5713L78.5981 24.5261L78.6429 35.9715H92.2223V38.3304H76.3082V6.52734H92.2223V8.88624H78.6429L78.5981 22.1672L86.9453 22.2124V24.5713Z" fill="white"/>
<path d="M98.7913 6.08789L111.59 33.3994L124.434 6.08789H127.069L111.59 38.9444L96.1944 6.08789H98.7913Z" fill="white"/>
<path d="M142.689 24.5713L134.342 24.5261L134.387 35.9715H147.966V38.3304H132.052V6.52734H147.966V8.88624H134.387L134.342 22.1672L142.689 22.2124V24.5713Z" fill="white"/>
<path d="M176.417 15.8337C176.417 17.2038 176.149 18.464 175.618 19.6144C175.087 20.7647 174.377 21.7471 173.5 22.5614C172.618 23.3757 171.62 24.009 170.494 24.4614C169.368 24.9138 168.23 25.14 167.079 25.14L164.616 25.0948L177.07 38.5502H173.955L159.512 23.0849H165.825C166.746 23.0849 167.699 22.9491 168.678 22.6712C169.656 22.3934 170.545 21.9668 171.338 21.3852C172.132 20.8035 172.79 20.0538 173.309 19.1361C173.827 18.2184 174.089 17.1198 174.089 15.8401C174.089 14.9354 173.903 14.0629 173.526 13.2163C173.149 12.3697 172.618 11.6264 171.927 10.9866C171.236 10.3468 170.392 9.83626 169.4 9.45496C168.403 9.07366 167.29 8.88624 166.049 8.88624H158.738V38.3369H156.403V6.52734H166.049C167.635 6.52734 169.068 6.77939 170.353 7.28995C171.639 7.8005 172.726 8.47909 173.616 9.31924C174.505 10.1594 175.202 11.1547 175.694 12.2921C176.187 13.4295 176.43 14.6058 176.43 15.8337H176.417Z" fill="white"/>
<path d="M183.639 6.52734H185.973V35.978H202.796V38.3369H183.639V6.52734Z" fill="white"/>
<path d="M215.601 38.6859V24.3516L205.137 6.08789H207.772L216.765 21.7277L225.803 6.08789H228.4L217.936 24.3968V38.6859H215.601Z" fill="white"/>
<path d="M250.065 6.52734H252.399L252.444 22.0831H269.74L269.695 6.52734H272.03V38.3369H269.695L269.74 24.442H252.444L252.399 38.3369H250.065V6.52734Z" fill="white"/>
<path d="M280.901 38.3369V6.21716H283.236V38.3305H280.901V38.3369Z" fill="white"/>
<path d="M292.319 6.52734H294.653V35.978H311.476V38.3369H292.319V6.52734Z" fill="white"/>
<path d="M317.315 6.52734H319.65V35.978H336.472V38.3369H317.315V6.52734Z" fill="white"/>
<path d="M362.506 30.3813C362.506 31.5446 362.218 32.6626 361.642 33.7225C361.066 34.7889 360.273 35.7324 359.263 36.5597C358.252 37.3934 357.056 38.0526 355.674 38.5502C354.293 39.0478 352.777 39.2934 351.133 39.2934C350.583 39.2934 349.937 39.2482 349.188 39.1642C348.44 39.0737 347.653 38.9186 346.835 38.6859C346.009 38.4533 345.191 38.1301 344.372 37.723C343.547 37.3158 342.798 36.7859 342.12 36.1267C341.442 35.4739 340.867 34.6919 340.393 33.7872C339.92 32.8824 339.62 31.8031 339.504 30.5558L341.839 30.4265C341.986 31.8807 342.421 33.031 343.157 33.8776C343.892 34.7243 344.737 35.377 345.683 35.8423C346.636 36.3076 347.615 36.6049 348.626 36.7406C349.636 36.8699 350.487 36.9345 351.178 36.9345C352.419 36.9345 353.583 36.76 354.683 36.411C355.777 36.062 356.73 35.5773 357.536 34.9698C358.342 34.3559 358.981 33.6579 359.461 32.8759C359.934 32.0875 360.177 31.2602 360.177 30.3878C360.177 29.6898 360.011 28.9918 359.678 28.2874C359.346 27.5894 358.809 26.9108 358.054 26.2581C357.305 25.6053 356.314 24.9849 355.092 24.4033C353.864 23.8216 352.361 23.2981 350.57 22.8328C349.559 22.5679 348.504 22.2189 347.391 21.7859C346.278 21.3464 345.255 20.8035 344.321 20.1508C343.381 19.4981 342.613 18.7225 342.005 17.8371C341.398 16.9453 341.097 15.8919 341.097 14.6704C341.097 13.1 341.462 11.7557 342.197 10.6506C342.933 9.54545 343.828 8.64067 344.877 7.9427C345.933 7.24472 347.039 6.74063 348.21 6.43688C349.38 6.13313 350.391 5.97803 351.261 5.97803C352.758 5.97803 354.146 6.21069 355.412 6.676C356.679 7.14132 357.772 7.7682 358.7 8.55666C359.621 9.34511 360.35 10.2628 360.881 11.3098C361.412 12.3567 361.706 13.4813 361.77 14.6769L359.435 14.8061C359.378 13.9013 359.128 13.0676 358.681 12.2921C358.233 11.5166 357.638 10.8445 356.883 10.2564C356.135 9.67471 355.278 9.20939 354.312 8.86041C353.346 8.51142 352.342 8.33692 351.306 8.33692C350.615 8.33692 349.815 8.45325 348.907 8.68591C347.999 8.91857 347.142 9.29341 346.336 9.7975C345.53 10.3081 344.845 10.9608 344.282 11.7622C343.72 12.5636 343.438 13.5006 343.438 14.5799C343.438 15.4847 343.688 16.2667 344.193 16.9388C344.698 17.6109 345.325 18.1861 346.073 18.6644C346.822 19.1426 347.653 19.5433 348.562 19.8664C349.47 20.1896 350.34 20.4481 351.178 20.6549C353.282 21.2107 355.054 21.8505 356.499 22.5808C357.939 23.3111 359.109 24.0866 360.005 24.9203C360.9 25.754 361.54 26.6329 361.93 27.5636C362.32 28.4942 362.512 29.4442 362.512 30.4007L362.506 30.3813Z" fill="white"/>
<path d="M58.6287 49.175C58.6287 49.6791 58.5328 50.1444 58.3409 50.5645C58.149 50.991 57.8932 51.3529 57.5733 51.6502C57.2535 51.954 56.8889 52.1866 56.486 52.3482C56.083 52.5098 55.6672 52.6003 55.2515 52.6003L54.356 52.5809L58.8654 57.5378H57.7397L52.5075 51.8441H54.7909C55.1236 51.8441 55.469 51.7924 55.8271 51.689C56.1789 51.5856 56.5052 51.4305 56.793 51.2172C57.0808 51.004 57.3175 50.7261 57.503 50.39C57.6885 50.0539 57.7844 49.6468 57.7844 49.175C57.7844 48.8454 57.7141 48.5223 57.5797 48.2121C57.4454 47.9018 57.2535 47.6304 56.9977 47.3913C56.7482 47.1586 56.4412 46.9712 56.083 46.829C55.7248 46.6869 55.3154 46.6222 54.8677 46.6222H52.2196V57.4602H51.3753V45.7498H54.8677C55.4434 45.7498 55.9615 45.8467 56.4284 46.0341C56.8953 46.2215 57.2855 46.4736 57.6117 46.7838C57.9379 47.094 58.1874 47.4624 58.3665 47.876C58.5456 48.2961 58.6351 48.7291 58.6351 49.1815L58.6287 49.175Z" fill="white"/>
<path d="M71.8307 52.3934L68.8053 52.374L68.8181 56.5877H73.7368V57.4538H67.9738V45.7433H73.7368V46.6093H68.8181L68.8053 51.4951L71.8307 51.5145V52.3805V52.3934Z" fill="white"/>
<path d="M83.1843 56.4327C83.3122 56.7106 83.4785 56.9626 83.696 57.1823C83.907 57.4021 84.1629 57.5766 84.4635 57.7058C84.7641 57.8351 85.1095 57.8997 85.5061 57.8997C85.8387 57.8997 86.1713 57.8351 86.4975 57.7058C86.8238 57.5766 87.1244 57.3892 87.393 57.1436C87.6617 56.898 87.8792 56.5942 88.0455 56.2323C88.2118 55.8704 88.2949 55.4568 88.2949 54.985V45.543H89.1392V52.387C89.1392 52.9622 89.1392 53.4081 89.1456 53.7377C89.1456 54.0673 89.152 54.3064 89.152 54.4615V54.8687C89.152 55.4762 89.0497 56.0255 88.8386 56.5102C88.6275 56.9949 88.3525 57.4021 88.0071 57.7317C87.6617 58.0613 87.2715 58.3198 86.843 58.4943C86.408 58.6688 85.9667 58.7593 85.5189 58.7593C84.9944 58.7593 84.5403 58.6688 84.1501 58.4878C83.7599 58.3069 83.4209 58.0677 83.1395 57.7705C82.858 57.4732 82.6278 57.1371 82.4487 56.7558C82.2696 56.3745 82.148 55.9867 82.0713 55.5925L82.9028 55.5602C82.9668 55.864 83.0563 56.1483 83.1843 56.4262V56.4327Z" fill="white"/>
<path d="M107.318 55.1078C107.055 55.6571 106.723 56.1289 106.307 56.5167C105.891 56.9045 105.424 57.1953 104.906 57.4021C104.382 57.6089 103.857 57.7058 103.326 57.7058C102.648 57.7058 102.034 57.5766 101.497 57.3245C100.953 57.0725 100.486 56.7429 100.096 56.3357C99.706 55.9286 99.4054 55.4633 99.1943 54.9462C98.9832 54.4292 98.8809 53.8928 98.8809 53.3435V45.5559H99.7252V53.3112C99.7252 53.7506 99.8147 54.1836 99.981 54.6037C100.154 55.0238 100.397 55.4051 100.71 55.7282C101.024 56.0514 101.401 56.3228 101.849 56.5232C102.29 56.73 102.783 56.8269 103.326 56.8269C103.742 56.8269 104.164 56.7429 104.586 56.5749C105.009 56.4068 105.392 56.1677 105.731 55.8575C106.07 55.5473 106.345 55.166 106.556 54.7265C106.768 54.2806 106.87 53.783 106.87 53.2207V45.5494H107.714V53.2207C107.714 53.9187 107.586 54.5456 107.324 55.0949L107.318 55.1078Z" fill="white"/>
<path d="M116.835 45.5881L121.473 55.6377L126.123 45.5881H127.076L121.466 57.6864L115.889 45.5881H116.829H116.835Z" fill="white"/>
<path d="M139.389 52.3934L136.363 52.374L136.376 56.5877H141.295V57.4538H135.532V45.7433H141.295V46.6093H136.376L136.363 51.4951L139.389 51.5145V52.3805V52.3934Z" fill="white"/>
<path d="M159.262 55.1595V45.7498H160.107V57.5378L151.855 47.8566V57.4602H151.011V45.6399L159.262 55.1595Z" fill="white"/>
<path d="M169.036 57.2857L174.453 45.3813L180.044 57.6412L179.091 57.6541L178.042 55.5602L170.712 55.5795L169.803 57.6541H168.895L169.036 57.2857ZM177.556 54.5843L174.441 47.43L171.23 54.6166L177.556 54.5843Z" fill="white"/>
<path d="M191.429 57.6089V46.6222H187.406V45.7562H196.271V46.6222H192.28V57.6089H191.436H191.429Z" fill="white"/>
<path d="M204.932 57.4602V45.6399H205.776V57.4602H204.932Z" fill="white"/>
<path d="M214.782 51.6373C214.782 50.7261 214.955 49.8859 215.294 49.1298C215.633 48.3736 216.087 47.7144 216.65 47.1651C217.213 46.6158 217.859 46.1892 218.595 45.8855C219.324 45.5817 220.085 45.4266 220.865 45.4266C221.754 45.4266 222.573 45.5947 223.321 45.9307C224.076 46.2668 224.722 46.7192 225.272 47.2814C225.822 47.8437 226.245 48.4964 226.552 49.2267C226.852 49.9635 227.006 50.7325 227.006 51.5339C227.006 52.4581 226.833 53.2982 226.494 54.0608C226.155 54.8234 225.707 55.4762 225.144 56.0255C224.588 56.5748 223.942 56.9949 223.219 57.2987C222.496 57.6024 221.742 57.7511 220.955 57.7511C220.059 57.7511 219.234 57.583 218.479 57.247C217.725 56.9109 217.079 56.4585 216.529 55.8963C215.978 55.334 215.55 54.6877 215.243 53.951C214.936 53.2142 214.782 52.4452 214.782 51.6438V51.6373ZM226.149 51.5921C226.149 50.8747 226.014 50.1961 225.739 49.5499C225.471 48.9036 225.093 48.3413 224.62 47.8631C224.147 47.3784 223.584 46.9971 222.944 46.7192C222.304 46.4413 221.607 46.2991 220.852 46.2991C220.194 46.2991 219.554 46.4219 218.927 46.6739C218.3 46.926 217.744 47.2879 217.251 47.7532C216.759 48.2185 216.369 48.7808 216.068 49.4335C215.767 50.0863 215.62 50.8166 215.62 51.6179C215.62 52.2965 215.748 52.9428 216.01 53.5697C216.273 54.1966 216.637 54.7588 217.104 55.25C217.578 55.7412 218.134 56.1354 218.78 56.4327C219.426 56.73 220.142 56.8721 220.923 56.8721C221.582 56.8721 222.221 56.7493 222.848 56.4908C223.475 56.2388 224.031 55.8769 224.518 55.4116C225.004 54.9462 225.394 54.3904 225.694 53.7377C225.995 53.085 226.142 52.3676 226.142 51.5727L226.149 51.5921Z" fill="white"/>
<path d="M244.116 55.1595V45.7498H244.96V57.5378L236.709 47.8566V57.4602H235.865V45.6399L244.116 55.1595Z" fill="white"/>
<path d="M267.341 51.6696C267.341 52.3676 267.469 53.0268 267.725 53.6537C267.981 54.2806 268.332 54.8364 268.78 55.3082C269.228 55.7864 269.759 56.1677 270.379 56.4521C271 56.7364 271.671 56.8786 272.4 56.8786C273.059 56.8786 273.692 56.7493 274.294 56.4908C274.901 56.2323 275.445 55.8639 275.925 55.3792L276.507 55.9738C275.963 56.5296 275.343 56.9626 274.633 57.2793C273.929 57.5895 273.187 57.7446 272.42 57.7446C271.543 57.7446 270.744 57.5766 270.021 57.2405C269.298 56.9044 268.678 56.4585 268.16 55.8963C267.642 55.334 267.232 54.6942 266.938 53.9639C266.644 53.2336 266.497 52.471 266.497 51.6826C266.497 50.7713 266.657 49.9376 266.983 49.1879C267.309 48.4383 267.738 47.792 268.275 47.2491C268.812 46.7063 269.433 46.2862 270.13 45.9889C270.827 45.6851 271.563 45.5365 272.324 45.5365C273.194 45.5365 273.98 45.6981 274.697 46.0277C275.413 46.3573 276.034 46.7903 276.552 47.3396L275.97 47.9342C275.522 47.4624 274.991 47.0876 274.371 46.8097C273.75 46.5318 273.072 46.3896 272.317 46.3896C271.652 46.3896 271.012 46.5188 270.418 46.7838C269.816 47.0488 269.292 47.4172 268.838 47.8889C268.384 48.3607 268.019 48.9165 267.75 49.5628C267.475 50.2091 267.341 50.907 267.341 51.6696Z" fill="white"/>
<path d="M289.875 52.3934L286.85 52.374L286.869 56.5877H291.788V57.4538H286.025V45.7433H291.788V46.6093H286.869L286.85 51.4951L289.875 51.5145V52.3805V52.3934Z" fill="white"/>
<path d="M309.749 55.1595V45.7498H310.593V57.5378L302.342 47.8566V57.4602H301.497V45.6399L309.749 55.1595Z" fill="white"/>
<path d="M323.264 57.6089V46.6222H319.241V45.7562H328.106V46.6222H324.115V57.6089H323.27H323.264Z" fill="white"/>
<path d="M340.617 52.3934L337.592 52.374L337.611 56.5877H342.53V57.4538H336.767V45.7433H342.53V46.6093H337.611L337.592 51.4951L340.617 51.5145V52.3805V52.3934Z" fill="white"/>
<path d="M359.486 49.175C359.486 49.6791 359.391 50.1444 359.199 50.5645C359.007 50.991 358.751 51.3529 358.431 51.6502C358.111 51.954 357.747 52.1866 357.344 52.3482C356.934 52.5162 356.525 52.6003 356.109 52.6003L355.214 52.5809L359.723 57.5378H358.597L353.365 51.8441H355.655C355.988 51.8441 356.333 51.7924 356.685 51.689C357.043 51.5856 357.363 51.4305 357.651 51.2172C357.939 51.004 358.175 50.7261 358.361 50.39C358.546 50.0539 358.642 49.6468 358.642 49.175C358.642 48.8454 358.572 48.5223 358.437 48.2121C358.303 47.9018 358.111 47.6304 357.855 47.3913C357.606 47.1586 357.299 46.9712 356.941 46.829C356.582 46.6869 356.173 46.6222 355.725 46.6222H353.077V57.4602H352.233V45.7498H355.725C356.301 45.7498 356.819 45.8467 357.286 46.0341C357.753 46.2215 358.143 46.4736 358.469 46.7838C358.796 47.094 359.045 47.4624 359.224 47.876C359.403 48.2961 359.493 48.7291 359.493 49.1815L359.486 49.175Z" fill="white"/>
<path d="M19.4643 16.3572V16.4089H39.9645C39.9645 8.78933 33.8561 2.61096 26.3148 2.61096H13.6756C6.13436 2.61096 0.0194702 8.78933 0.0194702 16.4024H19.4643V16.3507V16.3572Z" fill="white"/>
<path d="M20.2316 17.9211V60H26.8262C34.0924 60 39.977 54.0478 39.977 46.7126V17.9211H20.2316Z" fill="white"/>
<path d="M0 17.9211V46.7126C0 54.0478 5.89102 60 13.1509 60H18.7285V17.9211H0Z" fill="white"/>
<path d="M362.195 7.23941V4.09453H363.788C363.916 4.09453 364.055 4.13146 364.206 4.20532C364.356 4.27634 364.484 4.38714 364.589 4.53771C364.697 4.68544 364.751 4.87294 364.751 5.10021C364.751 5.33032 364.696 5.52634 364.585 5.68828C364.474 5.84737 364.339 5.96811 364.18 6.05049C364.024 6.13288 363.876 6.17407 363.737 6.17407H362.587V5.66271H363.524C363.618 5.66271 363.719 5.61583 363.827 5.52208C363.937 5.42833 363.993 5.28771 363.993 5.10021C363.993 4.90703 363.937 4.77634 363.827 4.70816C363.719 4.63998 363.623 4.60589 363.541 4.60589H362.885V7.23941H362.195ZM364.095 5.75646L364.879 7.23941H364.121L363.354 5.75646H364.095ZM363.388 9.11441C362.916 9.11441 362.474 9.02634 362.062 8.85021C361.65 8.67407 361.288 8.42975 360.976 8.11725C360.663 7.80475 360.419 7.44254 360.243 7.03061C360.067 6.61867 359.979 6.17691 359.979 5.70532C359.979 5.23373 360.067 4.79197 360.243 4.38004C360.419 3.96811 360.663 3.60589 360.976 3.29339C361.288 2.98089 361.65 2.73657 362.062 2.56044C362.474 2.3843 362.916 2.29623 363.388 2.29623C363.859 2.29623 364.301 2.3843 364.713 2.56044C365.125 2.73657 365.487 2.98089 365.8 3.29339C366.112 3.60589 366.356 3.96811 366.533 4.38004C366.709 4.79197 366.797 5.23373 366.797 5.70532C366.797 6.17691 366.709 6.61867 366.533 7.03061C366.356 7.44254 366.112 7.80475 365.8 8.11725C365.487 8.42975 365.125 8.67407 364.713 8.85021C364.301 9.02634 363.859 9.11441 363.388 9.11441ZM363.388 8.29623C363.865 8.29623 364.3 8.17975 364.692 7.9468C365.084 7.71384 365.396 7.40134 365.629 7.0093C365.862 6.61725 365.979 6.1826 365.979 5.70532C365.979 5.22805 365.862 4.79339 365.629 4.40134C365.396 4.0093 365.084 3.6968 364.692 3.46384C364.3 3.23089 363.865 3.11441 363.388 3.11441C362.91 3.11441 362.476 3.23089 362.084 3.46384C361.692 3.6968 361.379 4.0093 361.146 4.40134C360.913 4.79339 360.797 5.22805 360.797 5.70532C360.797 6.1826 360.913 6.61725 361.146 7.0093C361.379 7.40134 361.692 7.71384 362.084 7.9468C362.476 8.17975 362.91 8.29623 363.388 8.29623Z" fill="white"/>
</g>
<defs>
<clipPath id="clip0_980_3">
<rect width="368" height="60" fill="white"/>
</clipPath>
</defs>
</svg>
