<?xml version="1.0" encoding="UTF-8"?> <svg xmlns="http://www.w3.org/2000/svg" id="Layer_2" viewBox="0 0 293.69 51.29"><defs><style>.cls-1{fill:#a58b9d;}.cls-1,.cls-2{stroke-width:0px;}.cls-2{fill:#fbf7f1;}</style></defs><g id="Layer_1-2"><path class="cls-2" d="m0,50.37s2.15-3.08,2.15-5.84V6.77C2.15,4,0,.92,0,.92h13.23c11.69,0,19.23,2.46,19.15,9.77-.08,3.38-1.62,8.69-11.77,10.46,11.77,1.62,16.07,7.31,16.07,12.92,0,6.77-2.46,16.3-22.69,16.3H0Zm9.69-29.92h4.23c8.38,0,11.15-4.38,11.15-9.69-.08-6.54-4.84-8.38-12.15-8.38h-3.23v18.07Zm4.31,28.46c11.38,0,14.38-7.84,14.38-14.61,0-8.92-7.38-12.38-14.46-12.38h-4.23v22.61c0,1.92.46,4.38,2.84,4.38h1.46Z"></path><path class="cls-2" d="m44.07,6.77c0-2.77-2.23-5.84-2.23-5.84h26.22c3.23,0,5.84-.46,5.84-.46l.54,6s-2.23-4.08-6.38-4.08h-16.53v17.92h11.61c3.23,0,5.84-2.23,5.84-2.23v5.92s-2.61-2.31-5.84-2.31h-11.61v22.84c0,1.92.85,4.38,2.92,4.38h13.38c7.23,0,9.46-5.08,9.46-5.08l-.69,6.54h-34.76s2.23-3.08,2.23-5.84V6.77Z"></path><path class="cls-2" d="m103.67,28.69v15.84c0,2.77,2.23,5.84,2.23,5.84h-12s2.23-3.08,2.23-5.84v-14.69l-13.23-23.07c-1.54-2.77-4.15-5.84-4.15-5.84h11.23s-.54,2.92,1.15,5.84l11.69,20.53,11.77-20.53c1.69-3,.31-5.84.31-5.84h5.61s-2,2-4.23,5.84l-12.61,21.92Z"></path><path class="cls-2" d="m170.04,25.69c0,14.15-11,25.61-25.61,25.61s-25.61-11.46-25.61-25.61S129.82,0,144.43,0s25.61,11.54,25.61,25.69Zm-8.08,0c-1.23-13.3-8.84-23.53-19.84-23.53s-16.53,10.23-15.23,23.53c1.23,13.23,9.31,23.53,19.92,23.53s16.46-10.31,15.15-23.53Z"></path><path class="cls-2" d="m216.57.92s-2,3.08-2,5.84v43.6h-4L178.43,5.77c0,.31-.08.69-.08,1v37.76c0,2.77,2,5.84,2,5.84h-5.46s2-3.08,2-5.84V6.77c0-2.77-2-5.84-2-5.84h8.23l29.99,41.68V6.77c0-2.77-2-5.84-2-5.84h5.46Z"></path><path class="cls-2" d="m236.28.92c23.53,0,28.38,16.46,28.38,24.76s-5.38,24.69-28.92,24.69h-13.84s2.15-3.08,2.15-5.84V6.77c0-2.77-2.15-5.84-2.15-5.84h14.38Zm20.3,24.76c0-14.69-8.77-23.3-20.69-23.3h-4.31v42.14c0,2.85,1.31,4.38,4.15,4.38,12.38,0,20.84-10.07,20.84-23.23Z"></path><path class="cls-1" d="m293.69,25.19l-18.39-13.4c1.77,4.48,2.65,9.23,2.65,13.89,0,2.44-.32,7.25-2.36,12.74l18.1-13.24Z"></path></g></svg> 