<svg width="245" height="345" viewBox="0 0 245 345" fill="none" xmlns="http://www.w3.org/2000/svg">
<path d="M0.0231535 116.754C4.15072 41.1052 60.2168 10.731 87.734 5C57.4652 28.3824 55.4757 85.8069 56.7771 97.842C58.0786 109.877 34.4195 118.474 34.4195 127.07C34.4195 135.667 45.7703 137.73 49.8979 139.105C54.0254 140.481 52.7642 147.702 51.6177 151.14C49.3246 154.006 47.4901 161.456 51.6177 161.456C55.7453 161.456 60.149 162.753 58.497 166.614C56.8449 170.475 54.9795 175.165 58.497 176.93C62.0144 178.694 64.2384 179.392 63.6564 183.807C63.0744 188.221 60.5607 201.344 68.8159 202.719C77.071 204.094 94.6769 190.26 113.531 190.684C132.386 191.108 155.953 227.362 161.686 242.263C172.693 282.151 153.66 313.9 142.768 324.789C106.996 360.55 69.3892 340.836 55.0573 326.508C34.4195 297.624 52.191 277.795 63.6564 271.491C87.046 265.989 97.4795 280.66 99.7726 288.684C72.2555 265.301 63.0831 285.818 61.9366 299C64.6883 326.508 90.6003 327.655 103.212 324.789C133.481 311.035 128.436 282.38 122.13 269.772C117.544 261.748 97.3649 239.856 53.3376 216.473C9.31018 193.091 -0.55012 140.251 0.0231535 116.754Z" fill="url(#paint0_linear_403_3459)"/>
<path d="M73.8515 84.0671C54.5654 50.9785 80.3108 8.03635 97.959 3.06887C153.063 -12.4414 238.54 32.3663 244.326 103.024C251.214 187.124 203.573 225.383 178.892 234C203.688 195.397 198.407 145.534 192.667 125.428C181.647 84.0671 143.304 62.2378 125.511 56.4932C91.0713 89.5819 113.457 125.428 128.955 139.215C73.8516 128.185 80.7395 73.7269 91.0713 47.8764C77.2956 54.7699 73.8515 74.8758 73.8515 84.0671Z" fill="url(#paint1_linear_403_3459)"/>
<defs>
<linearGradient id="paint0_linear_403_3459" x1="82.5744" y1="6.7193" x2="82.5" y2="345" gradientUnits="userSpaceOnUse">
<stop stop-color="#010766"/>
<stop offset="1" stop-color="#6BC6EF"/>
</linearGradient>
<linearGradient id="paint1_linear_403_3459" x1="156" y1="0" x2="156" y2="234" gradientUnits="userSpaceOnUse">
<stop stop-color="#6BC6EF"/>
<stop offset="1" stop-color="#010867"/>
</linearGradient>
</defs>
</svg>
