<svg xmlns="http://www.w3.org/2000/svg" width="259" height="62" viewBox="0 0 259 62" fill="none"><g clip-path="url(#clip0_1685_2344)"><mask id="mask0_1685_2344" style="mask-type:luminance" maskUnits="userSpaceOnUse" x="115" y="-1" width="145" height="44"><path d="M115.876 -0.421631H259.441V42.9748H115.876V-0.421631Z" fill="white"></path></mask><g mask="url(#mask0_1685_2344)"><path d="M115.876 -0.421631H259.441V42.9748H115.876V-0.421631Z" stroke="white" stroke-width="6"></path></g><path d="M-0.496094 34.919V8.98804H9.28459C10.8769 8.98804 12.2256 9.24407 13.3306 9.75036C14.4413 10.2595 15.2742 10.9849 15.8353 11.9236C16.3934 12.8652 16.6739 13.9831 16.6739 15.2802C16.6739 16.4038 16.3679 17.4193 15.7559 18.3296C15.1496 19.2398 14.2854 19.9509 13.1606 20.4573V20.8327C14.8747 21.2595 16.1781 22.0331 17.0706 23.1539C17.9602 24.2775 18.4079 25.6912 18.4079 27.398C18.4079 29.8102 17.6996 31.6705 16.2886 32.9733C14.8833 34.2704 12.7979 34.919 10.0326 34.919H-0.496094ZM9.14859 19.877C10.5681 19.877 11.6702 19.5015 12.4579 18.7505C13.2513 17.9996 13.6479 16.9699 13.6479 15.6556C13.6479 14.2675 13.2654 13.2292 12.5033 12.538C11.7467 11.8497 10.6276 11.5026 9.14859 11.5026H2.54128V19.877H9.14859ZM9.80591 32.4044C13.4779 32.4044 15.3139 30.7375 15.3139 27.398C15.3139 24.0613 13.4779 22.3916 9.80591 22.3916H2.54128V32.4044H9.80591Z" fill="white"></path><path d="M37.3669 35.2945C35.1285 35.2945 33.1395 34.8109 31.3942 33.838C29.6545 32.8681 28.2832 31.3889 27.2802 29.4005C26.2829 27.4065 25.7842 24.9232 25.7842 21.9478C25.7842 18.9838 26.2829 16.5062 27.2802 14.5178C28.2832 12.5238 29.6545 11.0418 31.3942 10.069C33.1395 9.09895 35.1285 8.61255 37.3669 8.61255C39.6109 8.61255 41.5998 9.09895 43.3395 10.069C45.0849 11.0418 46.4562 12.5238 47.4535 14.5178C48.4565 16.5062 48.9608 18.9838 48.9608 21.9478C48.9608 24.9232 48.4565 27.4065 47.4535 29.4005C46.4562 31.3889 45.0849 32.8681 43.3395 33.838C41.5998 34.8109 39.6109 35.2945 37.3669 35.2945ZM37.3669 32.4726C40.0557 32.4726 42.1183 31.6306 43.5549 29.9467C44.9885 28.2627 45.7082 25.5974 45.7082 21.9478C45.7082 18.3068 44.9885 15.6443 43.5549 13.9603C42.1183 12.2763 40.0557 11.4344 37.3669 11.4344C31.805 11.4344 29.0255 14.9388 29.0255 21.9478C29.0255 28.9653 31.805 32.4726 37.3669 32.4726Z" fill="white"></path><path d="M66.5489 8.98804C69.1617 8.98804 71.4057 9.46024 73.2809 10.3989C75.1626 11.3405 76.6129 12.7741 77.6329 14.6999C78.6529 16.6285 79.1631 19.0435 79.1631 21.9478C79.1631 24.8606 78.6529 27.2813 77.6329 29.2071C76.6129 31.1357 75.1626 32.5694 73.2809 33.5081C71.4057 34.4496 69.1617 34.919 66.5489 34.919H58.1963V8.98804H66.5489ZM66.2431 32.3248C68.4023 32.3248 70.1899 31.9919 71.6037 31.3234C73.0149 30.6493 74.086 29.5484 74.8111 28.0238C75.5423 26.4934 75.9106 24.4681 75.9106 21.9478C75.9106 19.4219 75.5423 17.4022 74.8111 15.8832C74.086 14.3585 73.0149 13.2605 71.6037 12.5835C70.1899 11.9094 68.4023 11.5709 66.2431 11.5709H61.234V32.3248H66.2431Z" fill="white"></path><path d="M97.1039 34.919H94.089V24.7355L85.1582 8.98804H88.4788L95.449 21.14H95.8908L102.793 8.98804H106.046L97.1039 24.7355V34.919Z" fill="white"></path><path d="M134.919 35.1285H130.001L123.994 8.79932H128.097L132.55 28.9274H133.003L138.297 8.79932H141.934L147.261 28.9274H147.714L152.179 8.79932H156.158L150.174 35.1285H145.233L140.189 16.6617H139.815L134.919 35.1285Z" fill="white"></path><path d="M167.824 23.1359V31.6695H180.779V35.1285H163.699V8.79932H180.495V12.2583H167.824V19.7338H178.954V23.1359H167.824Z" fill="white"></path><path d="M192.966 8.79932V31.6695H205.184V35.1285H188.841V8.79932H192.966Z" fill="white"></path><path d="M216.78 8.79932V31.6695H228.998V35.1285H212.655V8.79932H216.78Z" fill="white"></path><path d="M240.595 23.1359V31.6695H253.549V35.1285H236.47V8.79932H253.266V12.2583H240.595V19.7338H251.724V23.1359H240.595Z" fill="white"></path><path d="M101.604 60.0241H97.4102V51.0579H101.23C101.72 51.0579 102.159 51.1578 102.544 51.3539C102.93 51.5532 103.23 51.829 103.451 52.1846C103.669 52.5347 103.78 52.9443 103.78 53.4134C103.78 53.6865 103.726 53.9481 103.621 54.1982C103.513 54.4489 103.372 54.6707 103.19 54.8585C103.014 55.0492 102.819 55.1884 102.601 55.2796C102.91 55.3703 103.193 55.527 103.451 55.746C103.715 55.959 103.921 56.2179 104.074 56.5194C104.224 56.8154 104.301 57.1398 104.301 57.4866C104.301 57.8963 104.224 58.2605 104.074 58.5789C103.921 58.8919 103.723 59.1535 103.474 59.3643C103.224 59.5773 102.936 59.7395 102.612 59.8537C102.287 59.9673 101.949 60.0241 101.604 60.0241ZM98.589 52.071V54.9492H101.173C101.445 54.9492 101.686 54.8869 101.898 54.7559C102.108 54.6281 102.278 54.4544 102.408 54.2327C102.536 54.0136 102.601 53.7717 102.601 53.5046C102.601 53.2316 102.536 52.9896 102.408 52.7761C102.278 52.5658 102.108 52.3948 101.898 52.2643C101.686 52.136 101.448 52.071 101.184 52.071H98.589ZM98.589 55.8482V59H101.513C101.808 59 102.074 58.9318 102.318 58.7952C102.559 58.6532 102.748 58.4626 102.884 58.2261C103.026 57.9847 103.1 57.7117 103.1 57.4069C103.1 57.1196 103.026 56.858 102.884 56.6221C102.748 56.3889 102.559 56.201 102.318 56.0645C102.083 55.9225 101.819 55.8482 101.524 55.8482H98.589Z" fill="white"></path><path d="M109.763 60.0241H108.595V56.5877L104.991 51.0579H106.363L109.173 55.5412H109.184L111.984 51.0579H113.367L109.751 56.5767L109.763 60.0241Z" fill="white"></path><path d="M126.393 60.0241H125.158L124.308 57.9875H119.797L118.948 60.0241H117.724L121.497 51.0579H122.62L126.393 60.0241ZM122.019 52.6963L120.217 57.0088H123.9L122.098 52.6963L122.064 52.5489H122.053L122.019 52.6963Z" fill="white"></path><path d="M133.602 60.0241H128.094V51.0579H129.261V58.9662H133.602V60.0241Z" fill="white"></path><path d="M139.221 60.2059C138.691 60.2059 138.189 60.1267 137.713 59.9672C137.237 59.8078 136.798 59.5888 136.399 59.3075C136.005 59.0202 135.662 58.6816 135.368 58.2944C135.073 57.9077 134.846 57.4839 134.688 57.0202C134.529 56.5511 134.449 56.053 134.449 55.5297C134.449 55.0065 134.529 54.5144 134.688 54.0508C134.846 53.5811 135.073 53.1518 135.368 52.7646C135.662 52.3724 136.005 52.0338 136.399 51.752C136.798 51.4735 137.237 51.2517 137.713 51.0922C138.189 50.9328 138.691 50.853 139.221 50.853C139.748 50.853 140.252 50.9328 140.728 51.0922C141.204 51.2517 141.64 51.4735 142.043 51.752C142.442 52.0338 142.785 52.3724 143.074 52.7646C143.369 53.1518 143.595 53.5811 143.754 54.0508C143.918 54.5144 144.003 55.0065 144.003 55.5297C144.003 56.053 143.918 56.5511 143.754 57.0202C143.595 57.4839 143.369 57.9077 143.074 58.2944C142.785 58.6816 142.442 59.0202 142.043 59.3075C141.64 59.5888 141.204 59.8078 140.728 59.9672C140.252 60.1267 139.748 60.2059 139.221 60.2059ZM139.221 59.1251C139.72 59.1251 140.187 59.0344 140.626 58.852C141.062 58.6701 141.448 58.4167 141.782 58.0896C142.114 57.7657 142.372 57.3845 142.553 56.9519C142.74 56.5194 142.836 56.0475 142.836 55.5297C142.836 55.0235 142.74 54.551 142.553 54.119C142.372 53.6805 142.114 53.2965 141.782 52.9694C141.448 52.6455 141.062 52.3894 140.626 52.2075C140.187 52.0251 139.72 51.9344 139.221 51.9344C138.722 51.9344 138.252 52.0251 137.816 52.2075C137.376 52.3894 136.991 52.6455 136.66 52.9694C136.334 53.2965 136.076 53.6805 135.889 54.119C135.708 54.551 135.617 55.0235 135.617 55.5297C135.617 56.0475 135.708 56.5194 135.889 56.9519C136.076 57.3845 136.334 57.7657 136.66 58.0896C136.991 58.4167 137.376 58.6701 137.816 58.852C138.252 59.0344 138.722 59.1251 139.221 59.1251Z" fill="white"></path><path d="M152.639 58.0896V51.0579H153.795V60.0241H152.809L147.312 53.0153V60.0241H146.145V51.0579H147.131L152.627 58.0896H152.639Z" fill="white"></path><path d="M159.409 60.2174C158.803 60.2174 158.278 60.1376 157.834 59.9787C157.394 59.8138 157.032 59.5975 156.746 59.3299C156.456 59.0655 156.241 58.7668 156.1 58.4309C155.964 58.0983 155.896 57.7657 155.896 57.4298H157.063C157.063 57.7428 157.154 58.0328 157.335 58.3058C157.522 58.5789 157.791 58.8007 158.14 58.9661C158.485 59.1338 158.904 59.2163 159.398 59.2163C160.16 59.2163 160.746 59.077 161.154 58.7952C161.562 58.5167 161.766 58.0983 161.766 57.5434C161.766 57.1966 161.664 56.9148 161.46 56.7018C161.256 56.4828 160.976 56.3118 160.622 56.1895C160.273 56.0699 159.876 55.9732 159.432 55.905C159.137 55.8596 158.834 55.8001 158.525 55.7231C158.213 55.6494 157.916 55.5494 157.63 55.4271C157.34 55.2993 157.086 55.1431 156.859 54.9606C156.638 54.7788 156.462 54.557 156.326 54.2894C156.196 54.0251 156.134 53.7094 156.134 53.3451C156.134 53.0125 156.193 52.6963 156.315 52.4008C156.434 52.0994 156.624 51.8317 156.882 51.604C157.136 51.3708 157.471 51.1889 157.879 51.0578C158.287 50.9213 158.78 50.853 159.364 50.853C160.066 50.853 160.656 50.9644 161.132 51.1835C161.613 51.4052 161.976 51.7067 162.22 52.0933C162.46 52.4746 162.582 52.9126 162.582 53.4134H161.415C161.415 53.1119 161.336 52.8443 161.177 52.6171C161.024 52.3894 160.794 52.213 160.486 52.0819C160.174 51.9541 159.797 51.8885 159.352 51.8885C158.95 51.8885 158.616 51.9311 158.344 52.0136C158.077 52.0994 157.87 52.2075 157.72 52.344C157.567 52.4806 157.46 52.6395 157.392 52.8219C157.324 52.9978 157.29 53.1742 157.29 53.3566C157.29 53.6695 157.386 53.9251 157.584 54.13C157.78 54.3348 158.063 54.503 158.434 54.6308C158.803 54.7531 159.256 54.8471 159.794 54.9153C160.095 54.9694 160.395 55.0377 160.69 55.1201C160.99 55.1971 161.273 55.2993 161.54 55.4271C161.812 55.5494 162.053 55.7062 162.265 55.894C162.475 56.0846 162.642 56.3146 162.764 56.5876C162.883 56.8553 162.945 57.1737 162.945 57.5434C162.945 58.107 162.801 58.5877 162.514 58.9885C162.225 59.3839 161.817 59.6882 161.29 59.899C160.769 60.1092 160.14 60.2174 159.409 60.2174Z" fill="white"></path><path d="M169.107 60.2059C168.577 60.2059 168.075 60.1267 167.599 59.9672C167.123 59.8078 166.684 59.5888 166.285 59.3075C165.891 59.0202 165.548 58.6816 165.254 58.2944C164.959 57.9077 164.732 57.4839 164.574 57.0202C164.415 56.5511 164.335 56.053 164.335 55.5297C164.335 55.0065 164.415 54.5144 164.574 54.0508C164.732 53.5811 164.959 53.1518 165.254 52.7646C165.548 52.3724 165.891 52.0338 166.285 51.752C166.684 51.4735 167.123 51.2517 167.599 51.0922C168.075 50.9328 168.577 50.853 169.107 50.853C169.634 50.853 170.138 50.9328 170.614 51.0922C171.09 51.2517 171.527 51.4735 171.929 51.752C172.328 52.0338 172.671 52.3724 172.96 52.7646C173.255 53.1518 173.482 53.5811 173.64 54.0508C173.804 54.5144 173.89 55.0065 173.89 55.5297C173.89 56.053 173.804 56.5511 173.64 57.0202C173.482 57.4839 173.255 57.9077 172.96 58.2944C172.671 58.6816 172.328 59.0202 171.929 59.3075C171.527 59.5888 171.09 59.8078 170.614 59.9672C170.138 60.1267 169.634 60.2059 169.107 60.2059ZM169.107 59.1251C169.606 59.1251 170.073 59.0344 170.512 58.852C170.948 58.6701 171.334 58.4167 171.668 58.0896C172 57.7657 172.258 57.3845 172.439 56.9519C172.626 56.5194 172.722 56.0475 172.722 55.5297C172.722 55.0235 172.626 54.551 172.439 54.119C172.258 53.6805 172 53.2965 171.668 52.9694C171.334 52.6455 170.948 52.3894 170.512 52.2075C170.073 52.0251 169.606 51.9344 169.107 51.9344C168.608 51.9344 168.138 52.0251 167.702 52.2075C167.262 52.3894 166.877 52.6455 166.546 52.9694C166.22 53.2965 165.962 53.6805 165.775 54.119C165.594 54.551 165.503 55.0235 165.503 55.5297C165.503 56.0475 165.594 56.5194 165.775 56.9519C165.962 57.3845 166.22 57.7657 166.546 58.0896C166.877 58.4167 167.262 58.6701 167.702 58.852C168.138 59.0344 168.608 59.1251 169.107 59.1251Z" fill="white"></path><path d="M180.924 60.0241H179.757V51.0579H180.765L184.165 55.5751L187.554 51.0579H188.574V60.0241H187.407V52.947L184.324 57.077H183.984L180.924 52.9355V60.0241Z" fill="white"></path><path d="M198.951 60.0241H197.715L196.865 57.9875H192.355L191.504 60.0241H190.28L194.055 51.0579H195.176L198.951 60.0241ZM194.576 52.6963L192.773 57.0088H196.457L194.655 52.6963L194.621 52.5489H194.609L194.576 52.6963Z" fill="white"></path><path d="M201.818 60.0241H200.651V51.0579H204.447C204.884 51.0579 205.28 51.1261 205.637 51.2627C206 51.3937 206.312 51.5816 206.578 51.8318C206.842 52.0819 207.046 52.3834 207.19 52.7307C207.34 53.0721 207.417 53.4533 207.417 53.8684C207.417 54.3097 207.332 54.7078 207.167 55.0634C207.009 55.4216 206.782 55.7204 206.487 55.9623C206.193 56.1983 205.847 56.3687 205.456 56.4741L207.609 60.0241H206.272L204.289 56.645C204.235 56.6532 204.187 56.6559 204.141 56.6559C204.096 56.6559 204.045 56.6559 203.994 56.6559H201.818V60.0241ZM201.818 52.1048V55.6548H204.425C204.77 55.6548 205.082 55.5838 205.354 55.4386C205.632 55.2878 205.853 55.0803 206.011 54.8127C206.17 54.5396 206.249 54.2299 206.249 53.8798C206.249 53.5385 206.164 53.237 206 52.9694C205.841 52.6963 205.62 52.4861 205.343 52.3326C205.071 52.1818 204.756 52.1048 204.402 52.1048H201.818Z" fill="white"></path><path d="M212.724 60.0241H211.568V52.1048H208.734V51.0579H215.557V52.1048H212.724V60.0241Z" fill="white"></path><path d="M218.667 60.0241H217.5V51.0579H218.667V60.0241Z" fill="white"></path><path d="M227.988 58.0896V51.0579H229.144V60.0241H228.159L222.662 53.0153V60.0241H221.495V51.0579H222.48L227.977 58.0896H227.988Z" fill="white"></path><path d="M232.21 61.2185H231.359L232.107 58.8521H233.23L232.21 61.2185Z" fill="white"></path><path d="M240.447 60.0241H239.279V51.0579H240.288L243.688 55.5751L247.076 51.0579H248.096V60.0241H246.929V52.947L243.847 57.077H243.507L240.447 52.9355V60.0241Z" fill="white"></path><path d="M254.211 60.0241H250.925V51.0579H254.189C254.897 51.0579 255.54 51.166 256.115 51.3768C256.696 51.5898 257.195 51.8946 257.611 52.2867C258.025 52.6821 258.342 53.1573 258.563 53.7094C258.79 54.2556 258.903 54.864 258.903 55.5298C258.903 56.2065 258.79 56.8209 258.563 57.373C258.342 57.9192 258.025 58.3943 257.611 58.7952C257.195 59.1906 256.699 59.4948 256.127 59.7057C255.552 59.9187 254.914 60.0241 254.211 60.0241ZM252.069 52.0934V58.9662H254.189C254.914 58.9662 255.54 58.8296 256.07 58.5566C256.597 58.2775 257.005 57.8821 257.294 57.373C257.58 56.858 257.725 56.2551 257.725 55.5636C257.725 54.8667 257.58 54.2611 257.294 53.7433C257.005 53.2201 256.594 52.8159 256.059 52.5259C255.529 52.2386 254.894 52.0934 254.155 52.0934H252.069Z" fill="white"></path></g><defs><clipPath id="clip0_1685_2344"><rect width="259" height="62" fill="white"></rect></clipPath></defs></svg>