<?xml version="1.0" encoding="UTF-8"?><svg id="Layer_1" xmlns="http://www.w3.org/2000/svg" xmlns:xlink="http://www.w3.org/1999/xlink" viewBox="0 0 630.25 122.8"><defs><style>.cls-1{fill:url(#linear-gradient);}</style><linearGradient id="linear-gradient" x1="133.06" y1="-133.06" x2="483" y2="216.87" gradientUnits="userSpaceOnUse"><stop offset="0" stop-color="#fff"/><stop offset="0" stop-color="#852"/><stop offset=".19" stop-color="#a5742c"/><stop offset=".39" stop-color="#b17e31"/><stop offset=".71" stop-color="#e6bd66"/><stop offset="1" stop-color="#ac7a35"/></linearGradient></defs><path class="cls-1" d="M195.24,1.28h50.47v1.05h-42.05v45.21h36.8v1.05h-36.8v19.98h42.05v1.05h-48.36V6.53c0-4.15-2.1-5.26-2.1-5.26ZM255.8,1.28h7.83l43.63,57.46V1.28h3.15s-2.1,1.1-2.1,5.26v63.08h-1.05L258.95,5.59v64.03h-1.05V6.53c0-4.15-2.1-5.26-2.1-5.26ZM383.98,1.28h1.16l-27.34,68.34h-6.83l-25.23-63.08c-1.68-4.15-5.26-5.26-5.26-5.26h9.99l26.76,66.81L383.98,1.28ZM426.71,69.62v-19.19l-25.34-43.9c-2.42-4.15-6.2-5.26-6.2-5.26h10.51l26.76,46.26L459.2,1.28h1.21l-27.34,47.31v21.03h-6.36ZM502.75,1.28h7.73s20.03,33.54,23.6,39.53c.16.32.37.68.58,1,7.78-11.83,26.71-40.53,26.71-40.53h8.41s-2.1,1.1-2.1,5.26v63.08h-6.31V3.22c-4.57,6.89-20.03,30.28-26.18,39.53,3.52,5.99,7.62,13.4,7.62,17.87,0,5.89-4.47,8.99-9.41,8.99-6.05,0-8.67-3.47-8.67-8.52,0-3.05,2-7.15,6.05-13.4-5.67-9.46-24.47-41.37-24.97-42.21v64.13h-1.05V6.53c0-4.15-2.1-5.26-2-5.26ZM531.24,48.64c-3.37,5.26-5.52,9.15-5.52,12.67,0,4.36,2.36,6.68,5.2,6.68s5.52-2.42,5.52-6.78c0-3.37-2.05-7.25-5.2-12.56ZM579.79,1.28h50.47v1.05h-42.06v45.21h36.8v1.05h-36.8v19.98h42.06v1.05h-48.36V6.53c0-4.15-2.1-5.26-2.1-5.26ZM295.46,104.01l-7.17,17.51h-.74l8.87-21.65,9.07,21.65h-2.78l-7.25-17.51ZM317.27,99.87h14.05v.68h-11.49v8.47h10.06v.71h-10.06v11.07h11.49v.71h-14.05v-21.65ZM349.46,99.87c2.86,0,4.97.71,6.95,1.95l-.35.58c-1.44-.93-3.64-1.92-6.59-1.92-2.71.03-4.47,1.18-5,2.6-.5,1.47.28,3.18,2.75,4.14l5.63,2.1c4.83,1.85,6.02,5.45,4.62,8.26-1.06,2.2-3.76,3.94-7.61,3.94-3.44,0-6.41-1.61-7.91-3.66l.48-.46c1.59,2.02,4.3,3.44,7.43,3.44,2.93,0,4.88-1.36,5.59-3.05.89-2.12-.1-4.82-3.53-6.09l-5.66-2.13c-3.18-1.24-4.42-3.41-4.07-5.36.36-2.32,2.96-4.34,7.27-4.34ZM367.99,100.55v-.68h16.34v.68h-6.9v20.97h-2.53v-20.97h-6.9ZM395.82,99.87h2.55v9.15h10.29v-9.15h2.56v21.65h-2.56v-11.78h-10.29v11.78h-2.55v-21.65ZM424.86,99.87h14.05v.68h-11.49v8.47h10.06v.71h-10.06v11.07h11.49v.71h-14.05v-21.65ZM448.85,100.55v-.68h16.34v.68h-6.9v20.97h-2.53v-20.97h-6.9ZM476.69,121.52v-21.65h2.56v21.65h-2.56ZM502.63,99.87c3.34,0,6.09,1.32,8.23,3.67l-2.04,1.84c-2.13-2.27-5.38-3.81-8.37-3.81-1.87,0-3.62.58-4.98,1.95-3.23,3.21-2.63,9.05,1.32,13.01,2.1,2.1,4.88,3.24,7.58,3.24,2.17,0,4.27-.74,5.84-2.38l.5.45c-1.95,2.22-4.85,3.67-8.08,3.67-5.96,0-10.82-4.85-10.82-10.82s4.87-10.82,10.82-10.82ZM529.38,99.87c2.86,0,4.97.71,6.95,1.95l-.35.58c-1.44-.93-3.64-1.92-6.59-1.92-2.71.03-4.47,1.18-5,2.6-.5,1.47.28,3.18,2.75,4.14l5.63,2.1c4.83,1.85,6.02,5.45,4.62,8.26-1.06,2.2-3.76,3.94-7.61,3.94-3.44,0-6.41-1.61-7.91-3.66l.48-.46c1.59,2.02,4.3,3.44,7.43,3.44,2.93,0,4.88-1.36,5.59-3.05.89-2.12-.1-4.82-3.53-6.09l-5.66-2.13c-3.18-1.24-4.42-3.41-4.07-5.36.36-2.32,2.96-4.34,7.27-4.34ZM300.07,111.24h-15.4v.55h15.4v-.55ZM58.53,69.11c2.94,4.93,5.47,9.17,7.17,12.04-4.9,7.57-7.74,12.99-8.57,17.13h.01c-.09.54-.18,1.05-.23,1.53-.01.32-.03.63-.03.91,0,7.37,3.83,12.45,12.66,12.45,7.21,0,13.75-4.54,13.75-13.12,0-6.54-5.98-17.37-11.13-26.13,8.99-13.52,31.57-47.69,38.25-57.74v28.85h.01v49.51h3.83c-.01,9.44.22,18.9.75,28.26.5-9.36.78-18.83.76-28.26h3.83v-49.51h.03v-24.02c0-6.06,3.07-7.66,3.07-7.66h-12.28s-27.64,41.92-39.02,59.21c-.3-.46-.62-1.01-.85-1.46-5.21-8.75-34.47-57.74-34.47-57.74h-11.27c0,.07,2.92,1.76,2.92,7.66v46.56h-15.4V1.53h61.41V0H0s3.09,1.59,3.09,7.66v92.16h24.62v13.36h1.53v-13.36h26.72c.03-.62.08-1.14.15-1.54h-26.87v-29.18M27.7,98.27h-15.4v-29.18h15.4v29.18ZM29.23,67.57V19.48c.56.96,17.06,29.02,28.38,48.09h-28.38ZM74,100.88c0,6.36-3.91,9.9-8.06,9.9s-7.62-3.37-7.62-9.75c0-.4.01-.79.07-1.22.03-.49.11-1.02.22-1.53.86-4.45,3.73-9.42,7.8-15.77,4.59,7.77,7.59,13.47,7.59,18.36ZM115.13,84.92c-1.08-19.64-1.08-39.55,0-59.19,1.08,19.64,1.09,39.55,0,59.19Z"/></svg>