<svg width="149" height="80" viewBox="0 0 149 80" fill="none" xmlns="http://www.w3.org/2000/svg">
<path d="M55.0769 71.5282V78.3999H54.3775V73.1116L51.873 78.3999H51.4639L48.9594 73.1309V78.3999H48.26V71.5282H48.9096L51.674 77.393L54.4273 71.5282H55.0769ZM62.0708 71.5282V72.0965H59.2677V74.6647H61.7722V75.222H59.2677V77.8427H62.0736V78.3999H58.5711V71.5282H62.0708ZM67.5415 71.5282C68.6528 71.5282 69.5236 71.8344 70.1511 72.4496C70.7786 73.0647 71.0937 73.9144 71.0937 75.004C71.0937 76.0937 70.7813 76.9323 70.1566 77.5199C69.5319 78.1075 68.6583 78.4027 67.5415 78.4027H65.4268V71.5309H67.5415V71.5282ZM66.1234 77.862H67.5415C68.4648 77.862 69.1697 77.6109 69.6535 77.1089C70.1373 76.6068 70.3778 75.9061 70.3778 75.0013C70.3778 74.0992 70.1373 73.3958 69.6535 72.8937C69.1697 72.3916 68.4676 72.1406 67.5415 72.1406H66.1234V77.862ZM79.7462 73.3406C79.7462 73.6137 79.8181 73.8344 79.9619 74.0082C80.1056 74.182 80.288 74.3089 80.5147 74.3916C80.7414 74.4744 80.9902 74.5461 81.2639 74.6068C81.5375 74.6675 81.8085 74.7337 82.0821 74.8054C82.3558 74.8799 82.6046 74.9737 82.8313 75.0896C83.058 75.2054 83.2432 75.382 83.3842 75.622C83.5279 75.862 83.5998 76.1571 83.5998 76.5075C83.5998 77.0316 83.4035 77.4896 83.011 77.8813C82.6184 78.273 82.0821 78.4689 81.3993 78.4689C80.7165 78.4689 80.1637 78.3171 79.7379 78.0109C79.3122 77.7047 79.0994 77.2937 79.0994 76.7751H79.8375C79.8651 77.0951 80.0006 77.3571 80.2466 77.5668C80.4926 77.7765 80.8603 77.8813 81.3496 77.8813C81.8389 77.8813 82.2286 77.7544 82.5161 77.5034C82.8064 77.2523 82.9501 76.9378 82.9501 76.5627C82.9501 76.1875 82.8175 75.9061 82.5521 75.7158C82.2867 75.5254 81.966 75.3958 81.5901 75.3213C81.2141 75.2496 80.8382 75.164 80.4622 75.0675C80.0863 74.9709 79.7656 74.7833 79.5002 74.5047C79.2348 74.2261 79.1021 73.8206 79.1021 73.2909C79.1021 72.7613 79.3012 72.3227 79.6965 71.9751C80.0918 71.6303 80.6142 71.4565 81.2639 71.4565C81.9135 71.4565 82.4221 71.6054 82.7953 71.9034C83.1685 72.2013 83.3952 72.6013 83.4754 73.0978H82.6875C82.6599 72.8192 82.5217 72.5737 82.2673 72.3668C82.013 72.1571 81.6675 72.0523 81.2307 72.0523C80.7912 72.0523 80.4346 72.1627 80.1637 72.3806C79.8844 72.604 79.7462 72.9213 79.7462 73.3406ZM90.8065 72.0799C91.2046 72.4496 91.4064 72.9323 91.4064 73.5282C91.4064 74.124 91.2073 74.6068 90.812 74.9709C90.4167 75.3351 89.8279 75.5199 89.0511 75.5199H87.6441V78.3971H86.9447V71.5254H89.0511C89.8196 71.5282 90.4057 71.713 90.8065 72.0799ZM87.6413 74.9544H89.0484C90.1458 74.9544 90.6959 74.4771 90.6959 73.5254C90.6959 72.5737 90.1458 72.0965 89.0484 72.0965H87.6413V74.9544ZM99.4092 78.3999L98.8315 76.7971H95.6165L95.0277 78.3999H94.3283L96.8633 71.5282H97.582L100.106 78.3999H99.4092ZM95.8156 76.2371H98.6214L97.2254 72.3916L95.8156 76.2371ZM0.806641 64.7861C1.26276 64.6344 1.63319 64.4303 1.91792 64.1737C2.20265 63.9171 2.42657 63.6192 2.5869 63.2771C2.74723 62.9351 2.85228 62.5627 2.89928 62.1544C2.94627 61.7461 2.97115 61.324 2.97115 60.8882V48.3751C2.97115 47.9392 2.94627 47.5171 2.89928 47.1089C2.85228 46.7006 2.74723 46.3254 2.5869 45.9861C2.42657 45.644 2.20265 45.3461 1.91792 45.0896C1.63319 44.833 1.26276 44.6289 0.806641 44.4771H14.9686V50.5047H14.9105C14.8718 50.0109 14.8055 49.4344 14.7115 48.7696C14.6175 48.1075 14.4488 47.4758 14.2139 46.8771C13.9761 46.2813 13.6472 45.7737 13.2298 45.3571C12.8123 44.9406 12.2705 44.7309 11.6043 44.7309H5.30981V60.9682C5.30981 61.3102 5.32364 61.6882 5.35128 62.1047C5.37892 62.5213 5.46185 62.9102 5.59454 63.2716C5.72723 63.633 5.92627 63.9309 6.19441 64.1682C6.45979 64.4054 6.83022 64.524 7.30569 64.524H12.4336C12.9091 64.524 13.3127 64.3778 13.6444 64.0827C13.9761 63.7903 14.2581 63.4151 14.4848 62.9599C14.7115 62.5047 14.9022 61.9971 15.0542 61.4371C15.2063 60.8771 15.3252 60.3199 15.4109 59.7599C15.4965 59.1999 15.5546 58.6703 15.5822 58.1682C15.6099 57.6661 15.6348 57.2634 15.6541 56.9599H15.6818V64.7806H0.806641V64.7861ZM13.0888 54.0937C11.9858 54.1323 11.1758 54.4027 10.6534 54.9047C10.1309 55.4068 9.82128 56.1985 9.72729 57.2799H9.69965V50.9378H9.7577C9.85169 52.0192 10.1558 52.8054 10.6699 53.2992C11.1786 53.7903 11.9858 54.0551 13.0888 54.0937ZM28.2348 44.4799C28.995 44.4799 29.7497 44.5847 30.4988 44.7916C31.248 45.0013 31.9225 45.3075 32.5224 45.7158C33.1195 46.124 33.606 46.6454 33.9764 47.2799C34.3468 47.9144 34.5321 48.6592 34.5321 49.5116C34.5321 50.2123 34.3994 50.8468 34.134 51.4178C33.8686 51.9861 33.5065 52.4799 33.0504 52.8965C32.5942 53.313 32.0718 53.6606 31.4829 53.9337C30.8941 54.2096 30.2777 54.3944 29.6308 54.4882L36.1575 64.7834H29.2051C29.4705 64.7834 29.7607 64.764 30.0731 64.7254C30.3855 64.6868 30.6813 64.6068 30.9577 64.4827C31.2314 64.3585 31.4608 64.1903 31.6405 63.9696C31.8202 63.7516 31.9114 63.473 31.9114 63.1309C31.9114 62.8854 31.87 62.6482 31.7843 62.4192C31.6986 62.1903 31.588 61.9751 31.4553 61.7654L27.0682 54.5985H23.5906V60.8827C23.5906 61.3185 23.6183 61.7406 23.6763 62.1489C23.7344 62.5571 23.8367 62.9296 23.9887 63.2716C24.1408 63.6137 24.3647 63.9116 24.6577 64.1682C24.9507 64.4247 25.3267 64.6289 25.7828 64.7806H19.0875C19.5436 64.6289 19.914 64.4247 20.1988 64.1682C20.4835 63.9116 20.7074 63.6137 20.8677 63.2716C21.0281 62.9296 21.1331 62.5571 21.1801 62.1489C21.2271 61.7406 21.252 61.3185 21.252 60.8827V48.3999C21.252 47.964 21.2271 47.542 21.1801 47.1337C21.1331 46.7254 21.0281 46.353 20.8677 46.0109C20.7074 45.6689 20.4835 45.3682 20.1988 45.1006C19.914 44.8358 19.5436 44.6261 19.0875 44.4744H28.2348V44.4799ZM28.2072 54.3475C28.8706 54.3475 29.4456 54.1958 29.9321 53.8923C30.4159 53.5889 30.8167 53.1999 31.1291 52.7254C31.4415 52.2509 31.6792 51.7213 31.8423 51.1337C32.0027 50.5461 32.0856 49.9668 32.0856 49.3985C32.0856 48.8109 32.0054 48.2371 31.8423 47.6771C31.6792 47.1171 31.4442 46.6206 31.1291 46.1847C30.8167 45.7489 30.4159 45.3985 29.9321 45.1337C29.4484 44.8689 28.8734 44.7365 28.2072 44.7365H23.5906V54.3475H28.2072ZM36.8458 64.7861C37.3766 64.7861 37.8659 64.6592 38.3137 64.4027C38.7588 64.1461 39.1735 63.8151 39.5522 63.4068C39.9309 62.9985 40.2847 62.5296 40.6054 61.9999C40.9288 61.4703 41.2136 60.9323 41.4596 60.3944C41.7056 59.8537 41.9295 59.324 42.1286 58.8027C42.3276 58.2813 42.5045 57.8206 42.6566 57.4234L47.4998 44.0854H47.6712L53.8551 61.0344C54.0817 61.6606 54.3195 62.204 54.5683 62.6702C54.8143 63.1337 55.1156 63.5227 55.4667 63.8371C55.8178 64.1489 56.2407 64.3861 56.7355 64.5489C57.2304 64.7089 57.8358 64.7916 58.56 64.7916H49.4127C49.7361 64.7916 50.043 64.7668 50.3388 64.7199C50.6318 64.673 50.8944 64.582 51.1239 64.4496C51.3505 64.3171 51.533 64.1323 51.6657 63.8951C51.7984 63.6578 51.8647 63.3599 51.8647 62.9985C51.8647 62.6758 51.8039 62.2785 51.6795 61.804C51.5551 61.3296 51.4086 60.8523 51.2372 60.3668C51.0658 59.884 50.9055 59.4427 50.7534 59.0454C50.6014 58.6482 50.4963 58.3723 50.4411 58.2206H42.6621C42.4161 58.8854 42.1783 59.5806 41.9489 60.3116C41.7222 61.0399 41.6061 61.7654 41.6061 62.4854C41.6061 63.2827 41.8051 63.8647 42.2032 64.2344C42.6013 64.604 43.2011 64.7889 43.9973 64.7889H36.8458V64.7861ZM42.745 57.9613H50.3526L46.5903 47.324L42.745 57.9613ZM72.053 59.6661C72.053 60.6151 71.8567 61.4399 71.4697 62.1406C71.0799 62.8413 70.5685 63.4289 69.9299 63.9034C69.2941 64.3778 68.5671 64.7282 67.7488 64.9544C66.9306 65.1834 66.0957 65.2965 65.2415 65.2965C64.1026 65.2965 62.9747 65.0923 61.8635 64.684C60.7522 64.2758 59.7985 63.6468 58.9996 62.7916V57.1034H59.0853C59.1433 58.0137 59.2594 58.9268 59.4419 59.8482C59.6216 60.7696 59.9173 61.6082 60.3265 62.364C60.7356 63.1227 61.2912 63.7378 61.9934 64.2123C62.6955 64.6868 63.6078 64.924 64.7301 64.924C65.4323 64.924 66.0847 64.8247 66.6818 64.6261C67.2789 64.4275 67.8014 64.1323 68.2492 63.7434C68.6942 63.3544 69.0426 62.8799 69.2886 62.3227C69.5346 61.7627 69.659 61.1144 69.659 60.3751C69.659 59.3903 69.4075 58.5544 68.9043 57.873C68.4012 57.1916 67.7654 56.5847 66.9942 56.0523C66.2257 55.5227 65.3991 55.0289 64.5145 54.5737C63.6299 54.1185 62.8061 53.622 62.0349 53.0813C61.2664 52.5406 60.6278 51.9254 60.1247 51.233C59.6216 50.5406 59.37 49.6937 59.37 48.6868C59.37 47.873 59.5359 47.1696 59.8676 46.582C60.1993 45.9944 60.6361 45.5144 61.1779 45.1447C61.7197 44.7751 62.3362 44.5047 63.03 44.3337C63.7239 44.1627 64.4316 44.0771 65.1531 44.0771C66.0073 44.0771 66.9002 44.1958 67.8318 44.433C68.7634 44.6703 69.5595 45.0813 70.2257 45.6689V51.8399H70.1677C70.1483 51.3847 70.1013 50.8827 70.0239 50.3337C69.9465 49.7847 69.8332 49.233 69.6811 48.684C69.5291 48.1351 69.3301 47.5944 69.0813 47.062C68.8352 46.5323 68.5339 46.0661 68.1828 45.6689C67.8318 45.2716 67.4088 44.9489 66.914 44.7006C66.4192 44.4551 65.8497 44.3309 65.2056 44.3309C64.0086 44.3309 63.0687 44.6151 62.3832 45.1834C61.7004 45.7516 61.3576 46.6344 61.3576 47.8289C61.3576 48.662 61.623 49.3875 62.1565 50.0027C62.6873 50.6206 63.3479 51.1834 64.1358 51.6937C64.9236 52.204 65.7778 52.7034 66.7011 53.1861C67.6217 53.6689 68.4786 54.2068 69.2665 54.7916C70.0543 55.3792 70.715 56.0634 71.2458 56.8385C71.7848 57.6275 72.053 58.5682 72.053 59.6661ZM71.9921 64.7861C72.5229 64.7861 73.0122 64.6592 73.46 64.4027C73.9051 64.1461 74.3198 63.8151 74.6985 63.4068C75.0772 62.9985 75.431 62.5296 75.7517 61.9999C76.0751 61.4703 76.3599 60.9323 76.6059 60.3944C76.8519 59.8537 77.0758 59.324 77.2749 58.8027C77.4739 58.2813 77.6508 57.8206 77.8029 57.4234L82.6461 44.0854H82.8175L89.0014 61.0344C89.228 61.6606 89.4658 62.204 89.7146 62.6702C89.9606 63.1337 90.2619 63.5227 90.613 63.8371C90.9641 64.1489 91.387 64.3861 91.8819 64.5489C92.3767 64.7089 92.9821 64.7916 93.7063 64.7916H84.559C84.8824 64.7916 85.1893 64.7668 85.4851 64.7199C85.7781 64.673 86.0407 64.582 86.2702 64.4496C86.4968 64.3171 86.6793 64.1323 86.812 63.8951C86.9447 63.6578 87.011 63.3599 87.011 62.9985C87.011 62.6758 86.9502 62.2785 86.8258 61.804C86.7014 61.3296 86.5549 60.8523 86.3835 60.3668C86.2121 59.884 86.0518 59.4427 85.8997 59.0454C85.7477 58.6482 85.6426 58.3723 85.5874 58.2206H77.8084C77.5624 58.8854 77.3246 59.5806 77.0952 60.3116C76.8685 61.0399 76.7524 61.7654 76.7524 62.4854C76.7524 63.2827 76.9514 63.8647 77.3495 64.2344C77.7476 64.604 78.3475 64.7889 79.1436 64.7889H71.9921V64.7861ZM77.8913 57.9613H85.4989L81.7366 47.324L77.8913 57.9613ZM97.007 48.3751C97.007 47.9392 96.9821 47.5171 96.9351 47.1089C96.8881 46.7006 96.7831 46.3254 96.6228 45.9861C96.4624 45.644 96.2385 45.3461 95.9538 45.0896C95.669 44.833 95.2986 44.6289 94.8425 44.4771H103.99C104.692 44.4771 105.378 44.5765 106.041 44.7751C106.704 44.9737 107.299 45.2716 107.821 45.6716C108.344 46.0689 108.761 46.5627 109.076 47.1503C109.389 47.7378 109.546 48.4109 109.546 49.1696C109.546 49.7571 109.447 50.2978 109.248 50.7916C109.049 51.2854 108.772 51.7213 108.421 52.0992C108.07 52.4771 107.655 52.7999 107.183 53.0647C106.707 53.3296 106.196 53.5282 105.643 53.6606C106.403 53.7378 107.125 53.9171 107.81 54.2013C108.493 54.4854 109.096 54.8661 109.621 55.3378C110.143 55.8123 110.555 56.3751 110.859 57.0289C111.163 57.6827 111.315 58.4082 111.315 59.2054C111.315 60.1351 111.125 60.9461 110.746 61.6358C110.364 62.3282 109.861 62.9047 109.237 63.3709C108.609 63.8371 107.899 64.1875 107.1 64.4247C106.301 64.662 105.485 64.7806 104.648 64.7806H94.8453C95.3014 64.6289 95.6718 64.4192 95.9565 64.1544C96.2413 63.8896 96.4652 63.5861 96.6255 63.244C96.7859 62.902 96.8909 62.5323 96.9379 62.1351C96.9849 61.7378 97.0098 61.3213 97.0098 60.8827V48.3751H97.007ZM99.3429 44.7365V53.6082H103.874C104.482 53.6082 105.004 53.4647 105.441 53.1806C105.878 52.8965 106.24 52.5378 106.525 52.0992C106.809 51.6634 107.022 51.1696 107.166 50.6206C107.31 50.0716 107.379 49.5392 107.379 49.0289C107.379 48.4992 107.313 47.9778 107.18 47.4647C107.047 46.9544 106.837 46.4937 106.552 46.0854C106.268 45.6771 105.906 45.3516 105.469 45.1034C105.032 44.8578 104.51 44.7337 103.901 44.7337H99.3429V44.7365ZM99.3429 60.9737C99.3429 61.3158 99.3567 61.6937 99.3844 62.1102C99.412 62.5268 99.4949 62.9158 99.6276 63.2771C99.7603 63.6385 99.9594 63.9365 100.228 64.1737C100.493 64.4109 100.863 64.5296 101.339 64.5296H104.416C105.137 64.5296 105.773 64.3778 106.326 64.0744C106.876 63.7709 107.337 63.3737 107.708 62.8799C108.078 62.3861 108.355 61.8234 108.534 61.1889C108.714 60.5544 108.805 59.9144 108.805 59.2689C108.805 58.5875 108.711 57.9227 108.521 57.2771C108.33 56.6316 108.045 56.0606 107.666 55.5558C107.285 55.0537 106.812 54.6454 106.243 54.3337C105.673 54.022 105.018 53.8647 104.277 53.8647H99.3484V60.9737H99.3429ZM114.647 64.7861C115.103 64.6344 115.473 64.4303 115.758 64.1737C116.043 63.9171 116.266 63.6192 116.427 63.2771C116.587 62.9351 116.692 62.5627 116.739 62.1544C116.786 61.7461 116.811 61.324 116.811 60.8882V48.3751C116.811 47.9392 116.786 47.5171 116.739 47.1089C116.692 46.7006 116.587 46.3254 116.427 45.9861C116.266 45.644 116.043 45.3461 115.758 45.0896C115.473 44.833 115.103 44.6289 114.647 44.4771H121.345C120.888 44.6289 120.513 44.833 120.219 45.0896C119.924 45.3461 119.703 45.644 119.551 45.9861C119.398 46.3282 119.293 46.7034 119.238 47.1089C119.18 47.5171 119.152 47.9392 119.152 48.3751V60.9737C119.152 61.3158 119.166 61.6937 119.194 62.1102C119.222 62.5268 119.304 62.9158 119.437 63.2771C119.57 63.6385 119.769 63.9365 120.037 64.1737C120.302 64.4109 120.673 64.5296 121.148 64.5296H126.307C127.009 64.5296 127.564 64.2978 127.974 63.8344C128.383 63.3709 128.69 62.8109 128.9 62.1571C129.11 61.5034 129.251 60.8247 129.328 60.124C129.403 59.4234 129.453 58.8247 129.472 58.3337H129.53V64.7889H114.647V64.7861ZM132.684 64.7861C133.14 64.6344 133.511 64.4303 133.795 64.1737C134.08 63.9171 134.304 63.6192 134.464 63.2771C134.625 62.9351 134.73 62.5627 134.777 62.1544C134.824 61.7461 134.849 61.324 134.849 60.8882V48.3751C134.849 47.9392 134.824 47.5171 134.777 47.1089C134.73 46.7006 134.625 46.3254 134.464 45.9861C134.304 45.644 134.08 45.3461 133.795 45.0896C133.511 44.833 133.14 44.6289 132.684 44.4771H146.846V50.5047H146.788C146.749 50.0109 146.683 49.4344 146.589 48.7696C146.495 48.1075 146.326 47.4758 146.091 46.8771C145.854 46.2813 145.525 45.7737 145.107 45.3571C144.69 44.9406 144.148 44.7309 143.482 44.7309H137.184V60.9682C137.184 61.3102 137.198 61.6882 137.226 62.1047C137.254 62.5213 137.337 62.9102 137.469 63.2716C137.602 63.633 137.801 63.9309 138.069 64.1682C138.334 64.4054 138.705 64.524 139.18 64.524H144.308C144.784 64.524 145.187 64.3778 145.519 64.0827C145.851 63.7903 146.133 63.4151 146.359 62.9599C146.586 62.5047 146.777 61.9971 146.929 61.4371C147.081 60.8771 147.2 60.3199 147.286 59.7599C147.371 59.1999 147.429 58.6703 147.457 58.1682C147.485 57.6661 147.509 57.2634 147.529 56.9599H147.556V64.7806H132.684V64.7861ZM144.966 54.0937C143.863 54.1323 143.053 54.4027 142.531 54.9047C142.008 55.4068 141.699 56.1985 141.605 57.2799H141.577V50.9378H141.635C141.729 52.0192 142.033 52.8054 142.547 53.2992C143.059 53.7903 143.866 54.0551 144.966 54.0937Z" fill="#BEA88B"/>
<path d="M68.514 9.35147C70.3053 8.40251 72.2044 7.72389 74.1589 7.23837C74.1699 6.74734 74.2446 6.25906 74.3772 5.79561C74.9274 3.89768 76.5805 2.44665 78.4823 2.04665C77.0808 1.67975 75.6129 1.48389 74.0953 1.48389C64.5748 1.48389 56.8594 9.18596 56.8594 18.6839C56.8594 20.5404 57.1579 22.3253 57.7025 23.997C57.6887 23.7901 57.6832 23.586 57.6887 23.3763C57.9458 17.2411 63.4192 12.1377 68.514 9.35147Z" fill="url(#paint0_linear_374_12406)"/>
<path d="M75.8885 6.17098C75.8471 6.41925 75.8277 6.65373 75.825 6.87718C77.1159 6.6427 78.4373 6.51304 79.7642 6.59029C80.7179 6.66201 81.6578 6.72546 82.5562 7.36546C83.9771 8.38339 84.0241 10.6399 82.6364 11.6882C80.7373 13.0841 77.1657 12.3668 75.5568 10.7779C75.2361 10.491 74.9763 10.1572 74.7717 9.79304C74.3626 9.89511 73.9562 10.0027 73.5471 10.113C69.4779 11.2551 65.6244 13.2717 62.5228 16.1599C60.5241 18.0772 58.7964 20.5682 58.6361 23.4013C58.5421 25.4758 59.3824 27.1806 60.7425 28.3999C64.1399 24.5489 68.4551 21.5558 72.9666 19.131C77.3011 16.822 84.4996 13.5613 89.4451 14.5461C90.0256 14.673 90.5453 14.902 90.9876 15.2082C89.8017 9.43167 85.7104 4.71166 80.306 2.62891C78.23 2.68684 76.27 4.09373 75.8885 6.17098Z" fill="url(#paint1_linear_374_12406)"/>
<path d="M86.5687 23.0093C87.9232 21.7734 89.0318 20.4714 89.4934 18.7886C89.5929 18.4686 89.6095 18.0686 89.3967 17.8286C89.2667 17.6907 88.8161 17.5665 88.5618 17.5362C83.5417 17.0589 74.8975 21.172 70.4081 23.6465C67.9755 25.001 64.86 27.0424 62.209 29.4369C63.0659 29.9003 64.0252 30.2231 65.0286 30.3941C72.6473 31.5776 80.8713 27.8507 86.5687 23.0093Z" fill="url(#paint2_linear_374_12406)"/>
<path d="M80.2569 10.1402C80.5471 10.1098 80.8014 10.0464 80.9673 9.9664C81.2437 9.81468 81.2493 9.76778 81.2133 9.53606C81.1857 9.44502 81.1304 9.39813 81.1 9.38157C80.7544 9.18019 80.138 9.15537 79.6487 9.14157C78.7337 9.11675 77.827 9.19951 76.9258 9.34571C77.7523 10.0023 78.9548 10.2754 80.2569 10.1402Z" fill="url(#paint3_linear_374_12406)"/>
<path d="M84.5784 27.7268C79.373 30.8799 73.1338 32.4578 67.055 31.8564C65.1171 31.6357 63.1517 31.1474 61.482 30.1157C61.435 30.1599 61.3907 30.2068 61.3438 30.2509C64.4979 33.713 69.0453 35.884 74.1014 35.884C82.3281 35.884 89.2032 30.1295 90.9226 22.4385C89.2584 24.7226 86.9308 26.3005 84.5784 27.7268Z" fill="url(#paint4_linear_374_12406)"/>
<path d="M60.8625 29.6963C60.6579 29.4536 60.4589 29.2053 60.2709 28.9487C60.2294 28.9984 60.188 29.0508 60.1465 29.1005C60.2985 29.2439 60.4561 29.3818 60.622 29.5142C60.6994 29.5777 60.7795 29.6384 60.8625 29.6963Z" fill="#27292E"/>
<path d="M57.7051 23.9971C57.8267 25.9253 58.7334 27.7819 60.146 29.1033C60.1875 29.0536 60.229 29.0012 60.2704 28.9516C59.1591 27.4647 58.2884 25.7957 57.7051 23.9971Z" fill="#27292E"/>
<path d="M75.8265 6.87695C75.5611 6.92385 75.2985 6.97626 75.0358 7.03144C74.7428 7.09488 74.4498 7.16385 74.1595 7.23833C74.1402 8.12937 74.3309 9.02868 74.7705 9.79557C75.4892 9.61626 76.2079 9.45902 76.9294 9.34316C76.2383 8.78868 75.8154 7.96385 75.8265 6.87695Z" fill="#27292E"/>
<path d="M60.8623 29.6961C61.0641 29.8451 61.2686 29.983 61.4815 30.1127C61.7192 29.8837 61.9625 29.6575 62.2113 29.4341C61.675 29.1444 61.1829 28.7996 60.7434 28.4023C60.5858 28.5817 60.4282 28.7637 60.2734 28.9458C60.4587 29.2051 60.6577 29.4534 60.8623 29.6961Z" fill="#27292E"/>
<path d="M60.7411 28.4053C59.3811 27.1833 58.5407 25.4812 58.6347 23.4067C58.795 20.5736 60.5228 18.0798 62.5214 16.1653C65.623 13.2798 69.4766 11.2605 73.5457 10.1185C73.9549 10.0053 74.3612 9.90052 74.7704 9.79845C74.3336 9.03156 74.1401 8.13225 74.1594 7.24121C72.205 7.72949 70.3059 8.40535 68.5146 9.35431C63.4198 12.1405 57.9463 17.244 57.6893 23.3791C57.6837 23.586 57.692 23.7929 57.7031 23.9998C58.2891 25.7985 59.1599 27.4702 60.2684 28.9543C60.4232 28.7667 60.5808 28.5847 60.7411 28.4053Z" fill="#27292E"/>
<path d="M60.8613 29.6963C61.0189 29.8839 61.1765 30.0687 61.3423 30.248C61.3893 30.2039 61.4336 30.157 61.4805 30.1128C61.2677 29.9832 61.0604 29.8453 60.8613 29.6963Z" fill="#27292E"/>
<path d="M75.5543 10.7802C77.1631 12.3664 80.7347 13.0864 82.6339 11.6906C84.0216 10.6451 83.9746 8.38852 82.5537 7.36783C81.6553 6.72507 80.7181 6.66438 79.7617 6.59265C78.4375 6.51541 77.1162 6.64507 75.8224 6.87955C75.8114 7.96645 76.2343 8.79128 76.9227 9.34576C77.8238 9.19955 78.7278 9.11679 79.6456 9.14162C80.1349 9.15541 80.7513 9.183 81.0969 9.38162C81.1273 9.39817 81.1798 9.44783 81.2102 9.5361C81.2461 9.76783 81.2406 9.81748 80.9642 9.96645C80.8011 10.0492 80.544 10.1099 80.2537 10.1402C78.9517 10.2754 77.7464 10.0023 76.9227 9.343C76.2011 9.45886 75.4824 9.6161 74.7637 9.79541C74.9738 10.1568 75.2336 10.4906 75.5543 10.7802Z" fill="#27292E"/>
<path d="M90.9853 15.2136C90.543 14.9074 90.0233 14.6784 89.4428 14.5516C84.4973 13.5667 77.2961 16.8274 72.9643 19.1364C68.4528 21.5612 64.1377 24.5543 60.7402 28.4053C61.1798 28.7998 61.6746 29.1447 62.2081 29.4371C64.8592 27.0426 67.9746 25.0012 70.4073 23.6467C74.8994 21.1695 83.5436 17.0591 88.5609 17.5364C88.8153 17.5667 89.2686 17.6909 89.3958 17.8288C89.6059 18.0688 89.5921 18.4688 89.4925 18.7888C89.0309 20.4716 87.9224 21.7764 86.5678 23.0095C80.8704 27.8509 72.6464 31.5778 65.0278 30.3916C64.0215 30.2233 63.0623 29.8978 62.2081 29.4343C61.9621 29.6578 61.7161 29.884 61.4783 30.1129C63.148 31.1419 65.1135 31.6329 67.0513 31.8536C73.1329 32.4578 79.3694 30.8771 84.5747 27.724C86.9272 26.3005 89.2548 24.7226 90.9162 22.4357C91.1871 21.2274 91.3336 19.9722 91.3336 18.6812C91.3364 17.495 91.2147 16.3336 90.9853 15.2136Z" fill="#27292E"/>
<path d="M74.3766 5.79567C74.2411 6.25912 74.1693 6.74739 74.1582 7.23843C74.4485 7.1667 74.7415 7.09774 75.0345 7.03153C75.2971 6.97636 75.5597 6.92394 75.8251 6.87705C75.8279 6.6536 75.8472 6.41636 75.8887 6.17084C76.2702 4.0936 78.2301 2.6867 80.3007 2.63429C79.7091 2.40532 79.1037 2.2067 78.4817 2.04395C76.5798 2.44395 74.9295 3.89774 74.3766 5.79567Z" fill="#27292E"/>
<path d="M74.1856 36.4716C64.3997 36.4716 56.4355 28.5268 56.4355 18.7585C56.4355 8.99024 64.397 1.04541 74.1856 1.04541C83.9743 1.04541 91.9357 8.99299 91.9357 18.7585C91.9357 28.524 83.9715 36.4716 74.1856 36.4716ZM74.1856 2.10748C64.983 2.10748 57.4998 9.57782 57.4998 18.7585C57.4998 27.9392 64.9858 35.4095 74.1856 35.4095C83.3855 35.4095 90.8714 27.9392 90.8714 18.7585C90.8714 9.57782 83.3855 2.10748 74.1856 2.10748Z" fill="#27292E"/>
<defs>
<linearGradient id="paint0_linear_374_12406" x1="55.126" y1="18.1523" x2="83.5211" y2="-0.729204" gradientUnits="userSpaceOnUse">
<stop stop-color="#B7A181"/>
<stop offset="0.1111" stop-color="#B9A384"/>
<stop offset="0.2289" stop-color="#C0AA8D"/>
<stop offset="0.3498" stop-color="#CAB79E"/>
<stop offset="0.4721" stop-color="#DACAB7"/>
<stop offset="0.5504" stop-color="#E7DACC"/>
<stop offset="0.5857" stop-color="#DECFBD"/>
<stop offset="0.6607" stop-color="#CFBCA5"/>
<stop offset="0.7358" stop-color="#C5B095"/>
<stop offset="0.8105" stop-color="#BFA98C"/>
<stop offset="0.8844" stop-color="#BDA689"/>
</linearGradient>
<linearGradient id="paint1_linear_374_12406" x1="59.9892" y1="25.4673" x2="88.3843" y2="6.5858" gradientUnits="userSpaceOnUse">
<stop stop-color="#B7A181"/>
<stop offset="0.1111" stop-color="#B9A384"/>
<stop offset="0.2289" stop-color="#C0AA8D"/>
<stop offset="0.3498" stop-color="#CAB79E"/>
<stop offset="0.4721" stop-color="#DACAB7"/>
<stop offset="0.5504" stop-color="#E7DACC"/>
<stop offset="0.5857" stop-color="#DECFBD"/>
<stop offset="0.6607" stop-color="#CFBCA5"/>
<stop offset="0.7358" stop-color="#C5B095"/>
<stop offset="0.8105" stop-color="#BFA98C"/>
<stop offset="0.8844" stop-color="#BDA689"/>
</linearGradient>
<linearGradient id="paint2_linear_374_12406" x1="64.6873" y1="32.5302" x2="93.0824" y2="13.6487" gradientUnits="userSpaceOnUse">
<stop stop-color="#B7A181"/>
<stop offset="0.1111" stop-color="#B9A384"/>
<stop offset="0.2289" stop-color="#C0AA8D"/>
<stop offset="0.3498" stop-color="#CAB79E"/>
<stop offset="0.4721" stop-color="#DACAB7"/>
<stop offset="0.5504" stop-color="#E7DACC"/>
<stop offset="0.5857" stop-color="#DECFBD"/>
<stop offset="0.6607" stop-color="#CFBCA5"/>
<stop offset="0.7358" stop-color="#C5B095"/>
<stop offset="0.8105" stop-color="#BFA98C"/>
<stop offset="0.8844" stop-color="#BDA689"/>
</linearGradient>
<linearGradient id="paint3_linear_374_12406" x1="58.4871" y1="23.2069" x2="86.8821" y2="4.32545" gradientUnits="userSpaceOnUse">
<stop stop-color="#B7A181"/>
<stop offset="0.1111" stop-color="#B9A384"/>
<stop offset="0.2289" stop-color="#C0AA8D"/>
<stop offset="0.3498" stop-color="#CAB79E"/>
<stop offset="0.4721" stop-color="#DACAB7"/>
<stop offset="0.5504" stop-color="#E7DACC"/>
<stop offset="0.5857" stop-color="#DECFBD"/>
<stop offset="0.6607" stop-color="#CFBCA5"/>
<stop offset="0.7358" stop-color="#C5B095"/>
<stop offset="0.8105" stop-color="#BFA98C"/>
<stop offset="0.8844" stop-color="#BDA689"/>
</linearGradient>
<linearGradient id="paint4_linear_374_12406" x1="66.6467" y1="35.4771" x2="95.0418" y2="16.5957" gradientUnits="userSpaceOnUse">
<stop stop-color="#B7A181"/>
<stop offset="0.1111" stop-color="#B9A384"/>
<stop offset="0.2289" stop-color="#C0AA8D"/>
<stop offset="0.3498" stop-color="#CAB79E"/>
<stop offset="0.4721" stop-color="#DACAB7"/>
<stop offset="0.5504" stop-color="#E7DACC"/>
<stop offset="0.5857" stop-color="#DECFBD"/>
<stop offset="0.6607" stop-color="#CFBCA5"/>
<stop offset="0.7358" stop-color="#C5B095"/>
<stop offset="0.8105" stop-color="#BFA98C"/>
<stop offset="0.8844" stop-color="#BDA689"/>
</linearGradient>
</defs>
</svg>
