<?xml version="1.0" encoding="UTF-8"?>
<svg xmlns="http://www.w3.org/2000/svg" width="270" height="73" viewBox="0 0 270 73" fill="none">
  <path d="M0.832031 67.1636L1.85107 66.8116C2.01782 67.8862 2.83305 68.757 4.27823 68.757C5.37138 68.757 6.24219 68.1085 6.24219 67.1822C6.24219 66.3669 5.68635 65.9223 4.74143 65.6999L3.31478 65.3664C2.01782 65.07 1.14701 64.2918 1.14701 63.0134C1.14701 61.5867 2.51808 60.4195 4.13001 60.4195C6.18661 60.4195 7.05742 61.6423 7.29828 62.6984L6.3163 63.069C6.14955 62.2167 5.53812 61.3829 4.13001 61.3829C3.1295 61.3829 2.24016 62.0129 2.24016 62.9393C2.24016 63.6989 2.72189 64.1436 3.62975 64.3474L5.03788 64.6624C6.50158 64.9959 7.33534 65.8296 7.33534 67.108C7.33534 68.4235 6.22366 69.7205 4.2597 69.7205C2.09194 69.7205 0.998783 68.3309 0.832031 67.1636ZM20.091 72.9999H18.9793V60.6418H20.0724V62.402C20.4986 61.4941 21.5361 60.4009 23.2963 60.4009C25.7976 60.4009 27.2983 62.439 27.2983 65.0514C27.2983 67.6824 25.742 69.7205 23.2592 69.7205C21.5547 69.7205 20.5356 68.7014 20.091 67.8121V72.9999ZM26.1867 65.0514C26.1867 62.9763 24.9638 61.4014 23.111 61.4014C21.2768 61.4014 20.0724 62.9948 20.0724 65.0514C20.0724 67.1451 21.2768 68.72 23.111 68.72C24.9638 68.72 26.1867 67.1266 26.1867 65.0514ZM41.1785 69.702C39.3257 69.702 38.2882 68.4791 38.2882 67.2007C38.2882 65.6999 39.3257 64.8291 40.9377 64.5882L43.2907 64.2362C44.0504 64.125 44.2171 63.7915 44.2171 63.3839C44.2171 62.2167 43.4389 61.3829 41.9938 61.3829C40.5856 61.3829 39.6592 62.1611 39.511 63.4395L38.4734 63.2172C38.6771 61.5311 40.0854 60.4195 41.9752 60.4195C44.2727 60.4195 45.3288 61.8091 45.3288 63.4951V67.9603C45.3288 68.6644 45.3844 69.1091 45.4585 69.4796H44.3653C44.3283 69.2758 44.2542 68.6829 44.2542 67.9603C43.8465 68.7941 42.7905 69.702 41.1785 69.702ZM41.3082 68.757C42.9943 68.757 44.2171 67.6454 44.2171 65.8667V64.8662C44.1615 64.9217 43.9207 65.0329 43.5686 65.0885L41.1044 65.4591C40.0668 65.6073 39.4184 66.1816 39.4184 67.1451C39.4184 67.9603 40.0854 68.757 41.3082 68.757ZM84.841 67.1636L85.86 66.8116C86.0267 67.8862 86.842 68.757 88.2871 68.757C89.3803 68.757 90.2511 68.1085 90.2511 67.1822C90.2511 66.3669 89.6953 65.9223 88.7504 65.6999L87.3237 65.3664C86.0267 65.07 85.1559 64.2918 85.1559 63.0134C85.1559 61.5867 86.527 60.4195 88.1389 60.4195C90.1955 60.4195 91.0663 61.6423 91.3072 62.6984L90.3252 63.069C90.1585 62.2167 89.5471 61.3829 88.1389 61.3829C87.1384 61.3829 86.2491 62.0129 86.2491 62.9393C86.2491 63.6989 86.7308 64.1436 87.6387 64.3474L89.0468 64.6624C90.5105 64.9959 91.3443 65.8296 91.3443 67.108C91.3443 68.4235 90.2326 69.7205 88.2686 69.7205C86.1009 69.7205 85.0077 68.3309 84.841 67.1636ZM105.23 69.702C103.377 69.702 102.34 68.4791 102.34 67.2007C102.34 65.6999 103.377 64.8291 104.989 64.5882L107.342 64.2362C108.102 64.125 108.269 63.7915 108.269 63.3839C108.269 62.2167 107.491 61.3829 106.045 61.3829C104.637 61.3829 103.711 62.1611 103.563 63.4395L102.525 63.2172C102.729 61.5311 104.137 60.4195 106.027 60.4195C108.324 60.4195 109.38 61.8091 109.38 63.4951V67.9603C109.38 68.6644 109.436 69.1091 109.51 69.4796H108.417C108.38 69.2758 108.306 68.6829 108.306 67.9603C107.898 68.7941 106.842 69.702 105.23 69.702ZM105.36 68.757C107.046 68.757 108.269 67.6454 108.269 65.8667V64.8662C108.213 64.9217 107.972 65.0329 107.62 65.0885L105.156 65.4591C104.118 65.6073 103.47 66.1816 103.47 67.1451C103.47 67.9603 104.137 68.757 105.36 68.757ZM122.628 69.4796H121.516V56.1025H122.628V69.4796ZM138.631 69.7205C136.167 69.7205 134.24 67.8306 134.24 65.07C134.24 62.2908 136.148 60.4195 138.631 60.4195C141.095 60.4195 143.022 62.2908 143.022 65.07C143.022 67.8306 141.095 69.7205 138.631 69.7205ZM135.37 65.07C135.37 67.3674 136.889 68.72 138.631 68.72C140.373 68.72 141.892 67.3674 141.892 65.07C141.892 62.754 140.373 61.42 138.631 61.42C136.889 61.42 135.37 62.754 135.37 65.07ZM155.758 64.1992V69.4796H154.646V60.6418H155.721V62.0499C156.202 61.105 157.24 60.4195 158.592 60.4195C160.668 60.4195 161.724 61.9017 161.724 63.7174V69.4796H160.612V63.9027C160.612 62.5131 159.927 61.42 158.222 61.42C156.703 61.42 155.758 62.6984 155.758 64.1992ZM203.091 69.4796H201.979V60.6418H203.072V62.1055C203.461 61.1791 204.517 60.4009 205.889 60.4009C207.26 60.4009 208.316 61.1606 208.668 62.402C209.205 61.1235 210.298 60.4009 211.706 60.4009C213.429 60.4009 214.763 61.5867 214.763 63.6248V69.4796H213.652V63.7545C213.652 62.4205 212.874 61.3829 211.391 61.3829C209.928 61.3829 208.927 62.6058 208.927 64.0509V69.4796H207.815V63.7545C207.815 62.4205 207.056 61.3829 205.555 61.3829C204.091 61.3829 203.091 62.5872 203.091 64.0509V69.4796ZM227.449 64.3474H233.341C233.304 62.6984 232.248 61.4014 230.395 61.4014C228.746 61.4014 227.56 62.7169 227.449 64.3474ZM233.471 66.6263L234.453 66.9783C233.953 68.4791 232.618 69.7205 230.58 69.7205C228.246 69.7205 226.282 67.9974 226.282 65.0329C226.282 62.2537 228.172 60.4009 230.377 60.4009C232.989 60.4009 234.49 62.2537 234.508 64.8662C234.508 65.0144 234.508 65.1256 234.49 65.2738H227.412V65.3479C227.431 67.386 228.839 68.72 230.58 68.72C232.174 68.72 233.1 67.7936 233.471 66.6263ZM246.574 65.0514C246.574 67.1266 247.759 68.72 249.631 68.72C251.465 68.72 252.632 67.1266 252.632 65.0514C252.632 62.9578 251.465 61.4014 249.649 61.4014C247.796 61.4014 246.574 62.9207 246.574 65.0514ZM252.632 68.09V67.738C252.243 68.6459 251.261 69.7205 249.538 69.7205C247.055 69.7205 245.462 67.6824 245.462 65.0514C245.462 62.4575 247.092 60.4009 249.538 60.4009C251.428 60.4009 252.299 61.5497 252.614 62.3093V56.1025H253.725V67.7936C253.725 68.7385 253.799 69.387 253.818 69.4796H252.725C252.688 69.2573 252.632 68.72 252.632 68.09ZM267.087 69.4796H265.976V60.6418H267.087V69.4796ZM265.605 56.9733C265.605 56.436 266.013 56.0469 266.532 56.0469C267.05 56.0469 267.458 56.436 267.458 56.9733C267.458 57.5106 267.05 57.8997 266.532 57.8997C266.013 57.8997 265.605 57.5106 265.605 56.9733Z" fill="#FCFCFA"></path>
  <path d="M65.0371 65.1163C65.0371 64.5789 65.4633 64.1343 66.0006 64.1343C66.5564 64.1343 66.9825 64.5789 66.9825 65.1163C66.9825 65.6536 66.5564 66.0797 66.0006 66.0797C65.4633 66.0797 65.0371 65.6536 65.0371 65.1163Z" fill="#FCFCFA"></path>
  <path d="M180.837 65.1163C180.837 64.5789 181.263 64.1343 181.8 64.1343C182.356 64.1343 182.782 64.5789 182.782 65.1163C182.782 65.6536 182.356 66.0797 181.8 66.0797C181.263 66.0797 180.837 65.6536 180.837 65.1163Z" fill="#FCFCFA"></path>
  <path d="M31.1417 5.79688H0V11.8968H31.1417V5.79688Z" fill="#FCFCFA"></path>
  <path d="M31.1417 18.3179H0V24.4178H31.1417V18.3179Z" fill="#FCFCFA"></path>
  <path d="M31.1417 32.4438H0V37.9017H31.1417V32.4438Z" fill="#FCFCFA"></path>
  <path d="M45.3634 42.8331C42.795 42.8331 40.2266 42.8331 37.6582 42.8331C39.0323 42.8203 41.087 36.4892 41.331 35.3077C41.8704 32.7008 41.3824 30.2479 40.2779 27.8722C39.6744 26.5624 38.9681 25.291 38.4287 23.9554C37.8893 22.6199 37.5812 21.2586 37.2729 19.9103C36.053 14.5808 35.9374 8.54508 38.737 3.6523C39.0966 3.02304 40.4321 0.146452 41.2925 0.146452C41.2925 0.146452 48.3555 0.0694016 48.7022 0.0950854C47.9574 0.0950854 47.097 1.98285 46.7118 2.49652C44.0535 6.02806 42.2043 10.2274 42.2043 14.7221C42.2043 17.573 43.0389 20.334 44.5414 22.7354C45.556 24.3535 46.609 25.7661 47.1356 27.6282C48.5995 32.7522 46.3779 37.8632 45.3505 42.8459L45.3634 42.8331Z" fill="#FCFCFA"></path>
  <path d="M64.1535 42.7432C61.5851 42.7432 59.0167 42.7432 56.4483 42.7432C57.8224 42.7304 59.8772 36.3993 60.1211 35.2179C60.6604 32.6109 60.1725 30.1581 59.0681 27.7824C58.4645 26.4725 57.7581 25.2011 57.2189 23.8656C56.6795 22.53 56.3712 21.1687 56.0631 19.8204C54.843 14.4909 54.7274 8.45524 57.527 3.56246C57.8866 2.9332 59.2222 0.0566104 60.0826 0.0566104C60.0826 0.0566104 67.1457 -0.0204423 67.4924 0.00524154C66.7475 0.00524154 65.8872 1.89301 65.5019 2.40668C62.8436 5.93822 60.9944 10.1375 60.9944 14.6322C60.9944 17.4832 61.8291 20.2442 63.3316 22.6456C64.3461 24.2637 65.3992 25.6762 65.9256 27.5384C67.3897 32.6623 65.168 37.7733 64.1407 42.7561L64.1535 42.7432Z" fill="#FCFCFA"></path>
  <path d="M102.738 5.79688H71.5967V11.8968H102.738V5.79688Z" fill="#FCFCFA"></path>
  <path d="M102.738 18.3179H71.5967V24.4178H102.738V18.3179Z" fill="#FCFCFA"></path>
  <path d="M102.738 32.4438H71.5967V37.9017H102.738V32.4438Z" fill="#FCFCFA"></path>
  <path d="M115.101 37.9015H109.797V5.00049L115.101 8.85307V37.9015Z" fill="#FCFCFA"></path>
  <path d="M139.166 37.9015L133.875 33.7022V5.00049H139.166V37.9015Z" fill="#FCFCFA"></path>
  <path d="M138.197 29.1951L133.868 33.7026L110.715 13.5151L115.094 8.85352L138.197 29.1951Z" fill="#FCFCFA"></path>
  <path d="M173.291 4.11475H144.396V9.49552H173.291V4.11475Z" fill="#FCFCFA"></path>
  <path d="M161.167 8.21143H156.673V37.902H161.167V8.21143Z" fill="#FCFCFA"></path>
  <path d="M185.096 4.11475H179.715V37.9019H185.096V4.11475Z" fill="#FCFCFA"></path>
  <path d="M210.141 9.49552L207.804 4.11475L191.109 37.9019L197.21 37.8505L210.141 9.49552Z" fill="#FCFCFA"></path>
  <path d="M205.395 9.49552L207.719 4.11475L224.413 37.9019L218.327 37.8505L205.395 9.49552Z" fill="#FCFCFA"></path>
  <path d="M219.031 32.5337H202.184V37.9145H219.031V32.5337Z" fill="#FCFCFA"></path>
  <path d="M236.365 4.11475H230.342V37.9019H236.365V4.11475Z" fill="#FCFCFA"></path>
  <path d="M252.572 32.5337H230.342V37.9145H252.572V32.5337Z" fill="#FCFCFA"></path>
  <path d="M265.776 42.7432C263.207 42.7432 260.639 42.7432 258.07 42.7432C259.445 42.7304 261.499 36.3993 261.743 35.2179C262.283 32.6109 261.794 30.1581 260.69 27.7824C260.086 26.4725 259.38 25.2011 258.841 23.8656C258.302 22.53 257.994 21.1687 257.685 19.8204C256.465 14.4909 256.349 8.45524 259.15 3.56246C259.508 2.9332 260.845 0.0566104 261.705 0.0566104C261.705 0.0566104 268.768 -0.0204423 269.114 0.00524154C268.369 0.00524154 267.509 1.89301 267.123 2.40668C264.466 5.93822 262.617 10.1375 262.617 14.6322C262.617 17.4832 263.451 20.2442 264.953 22.6456C265.968 24.2637 267.022 25.6762 267.547 27.5384C269.012 32.6623 266.79 37.7733 265.763 42.7561L265.776 42.7432Z" fill="#FCFCFA"></path>
</svg>
