<?xml version="1.0" encoding="UTF-8"?>
<svg id="Layer_2" data-name="Layer 2" xmlns="http://www.w3.org/2000/svg" xmlns:xlink="http://www.w3.org/1999/xlink" viewBox="0 0 1383.27 1022.93">
  <defs>
    <style>
      .cls-1 {
        fill: url(#linear-gradient);
      }

      .cls-1, .cls-2, .cls-3, .cls-4, .cls-5, .cls-6, .cls-7 {
        stroke-width: 0px;
      }

      .cls-2 {
        fill: url(#linear-gradient-4);
      }

      .cls-3 {
        fill: url(#linear-gradient-2);
      }

      .cls-4 {
        fill: url(#linear-gradient-3);
      }

      .cls-5 {
        fill: url(#linear-gradient-7);
      }

      .cls-6 {
        fill: url(#linear-gradient-5);
      }

      .cls-7 {
        fill: url(#linear-gradient-6);
      }
    </style>
    <linearGradient id="linear-gradient" x1="376.44" y1="265.11" x2="1015.72" y2="265.11" gradientTransform="translate(0 920.95) scale(1 -1)" gradientUnits="userSpaceOnUse">
      <stop offset="0" stop-color="#e3bf7e"/>
      <stop offset=".26" stop-color="#b29250"/>
      <stop offset=".51" stop-color="#e3bf7e"/>
      <stop offset=".73" stop-color="#b39351"/>
      <stop offset="1" stop-color="#e3bf7e"/>
    </linearGradient>
    <linearGradient id="linear-gradient-2" x1="321.83" y1="265.11" x2="1056.03" y2="265.11" xlink:href="#linear-gradient"/>
    <linearGradient id="linear-gradient-3" x1="685.86" y1="654.77" x2="696.08" y2="654.77" xlink:href="#linear-gradient"/>
    <linearGradient id="linear-gradient-4" x1="435.12" y1="775.33" x2="946.8" y2="775.33" xlink:href="#linear-gradient"/>
    <linearGradient id="linear-gradient-5" x1="510.72" y1="262.76" x2="867.99" y2="262.76" xlink:href="#linear-gradient"/>
    <linearGradient id="linear-gradient-6" x1="0" y1="95.48" x2="504.08" y2="95.48" xlink:href="#linear-gradient"/>
    <linearGradient id="linear-gradient-7" x1="879.2" y1="95.47" x2="1383.27" y2="95.47" xlink:href="#linear-gradient"/>
  </defs>
  <g id="Layer_2-2" data-name="Layer 2">
    <g>
      <path class="cls-1" d="M922.1,429.82c-60.37-60.37-140.64-93.62-226.02-93.62s-165.65,33.25-226.02,93.62-93.62,140.64-93.62,226.02,33.25,165.65,93.62,226.02c60.37,60.37,140.64,93.62,226.02,93.62s165.65-33.25,226.02-93.62,93.62-140.64,93.62-226.02-33.25-165.65-93.62-226.02h0ZM696.08,972.45c-174.58,0-316.61-142.03-316.61-316.61s142.03-316.61,316.61-316.61,316.61,142.03,316.61,316.61-142.03,316.61-316.61,316.61Z"/>
      <path class="cls-3" d="M1027.18,798.73c19.14-45.26,28.85-93.33,28.85-142.89s-9.71-97.63-28.85-142.89c-18.49-43.71-44.96-82.97-78.67-116.68-33.71-33.71-72.97-60.18-116.69-78.67-45.26-19.14-93.33-28.85-142.89-28.85s-97.63,9.71-142.89,28.85c-43.71,18.49-82.97,44.96-116.69,78.67-33.71,33.71-60.18,72.97-78.67,116.68-19.14,45.26-28.85,93.33-28.85,142.89s9.71,97.63,28.85,142.89c18.49,43.71,44.96,82.97,78.67,116.68,33.71,33.71,72.97,60.18,116.69,78.67,45.26,19.14,93.33,28.85,142.89,28.85s97.63-9.71,142.89-28.85c43.71-18.49,82.97-44.96,116.69-78.67,33.71-33.71,60.18-72.97,78.67-116.68ZM688.93,1017.93c-199.66,0-362.1-162.44-362.1-362.1s162.44-362.1,362.1-362.1,362.1,162.44,362.1,362.1-162.44,362.1-362.1,362.1Z"/>
      <path class="cls-4" d="M696.08,266.22c-1.72-.04-3.42-.06-5.11-.08-1.69.02-3.39.04-5.11.08h10.22Z"/>
      <path class="cls-2" d="M690.97,266.14c87.64-.94,135.32,25.1,135.32,25.1l120.51-205.79s-66.89,12.26-65.87,46.47c1.02,34.21-33.7,86.81-84.26,84.26,0,0-53.11-2.55-52.6-58.21.51-55.66,56.68-54.13,61.79-28.09s-18.38,32.68-18.38,32.68c0,0,34.72,2.04,26.55-34.72-8.17-36.77-42.38-33.19-54.64-30.64s-45.45,33.19-44.94,54.64c0,0-19.91-6.64-18.38-35.74,0,0,28.08-16.34,26.55-47.49-1.45-29.53-28.82-65.01-31.66-68.61-2.84,3.61-30.21,39.08-31.66,68.61-1.53,31.15,26.55,47.49,26.55,47.49,1.53,29.11-18.38,35.74-18.38,35.74.51-21.45-32.68-52.08-44.94-54.64s-46.47-6.13-54.64,30.64c-8.17,36.77,26.55,34.72,26.55,34.72,0,0-23.49-6.64-18.38-32.68,5.11-26.04,61.28-27.57,61.79,28.09.51,55.66-52.6,58.21-52.6,58.21-50.55,2.55-85.28-50.04-84.26-84.26,1.02-34.21-65.87-46.47-65.87-46.47l120.51,205.79s47.68-26.05,135.32-25.1h.02Z"/>
      <path class="cls-6" d="M857.53,765.14c0,55.9-45.31,101.21-101.21,101.21h-123.81v-215.49h144.08v-11.49h-144.08v-189.32h113.51c55.9,0,101.21,45.31,101.21,101.21v47.72h10.47v-160.43h-346.98v11.49h29.68c10.26,0,18.57,8.32,18.57,18.57v379.15c0,10.26-8.32,18.57-18.57,18.57h-26.62v11.49h354.21v-186.6h-10.47v73.92h.01Z"/>
      <path class="cls-7" d="M324.34,833.54c-70.98-134.81-188.43-199.15-236.94-198.13-48.51,1.02-81.19,25.53-76.09,63.83,5.11,38.3,46.47,38.3,46.47,38.3,0,0-39.61-10.68-31.15-49.53,8.46-38.86,86.3-51.57,168,24,81.7,75.57,98.04,117.45,96,115.91-2.04-1.53-89.5-81.27-182.81-76.09C34.29,755.93-1.94,802.42.08,858.56c2.04,56.68,40.85,140.43,147.57,130.21,106.72-10.22,99.06-134.3-7.15-138.89,0,0,62.3,18.38,63.32,63.32s-32.17,55.15-57.7,54.13c0,0-98.64-5.58-113.36-85.79-14.81-80.68,52.6-113.87,102.64-103.15,50.04,10.72,141.96,63.83,208.85,145.53,0,0-107.23-19.91-98.04,56.17,0,0,3.57,54.13,72.51,28.6,0,0-53.11.51-49.02-30.13s41.87-39.83,78.64-23.49c36.77,16.34,102.13,59.23,155.74,51.57,0,0-108.77-38.3-179.74-173.11h0Z"/>
      <path class="cls-5" d="M1275.46,751.84c-93.44-1.4-180.77,74.55-182.81,76.09-2.04,1.53,19.09-44.43,100.79-120s154.74-58.77,163.21-19.91c8.46,38.86-31.15,49.53-31.15,49.53,0,0,41.36,0,46.47-38.3s-27.57-62.81-76.09-63.83c-48.51-1.02-165.96,63.32-236.94,198.13s-179.74,173.11-179.74,173.11c53.62,7.66,118.98-35.23,155.74-51.57,36.77-16.34,74.55-7.15,78.64,23.49s-49.02,30.13-49.02,30.13c68.94,25.53,72.51-28.6,72.51-28.6,9.19-76.08-98.04-56.17-98.04-56.17,66.89-81.7,157.75-142.73,208.85-145.53,55.86-3.06,120.2,29.62,102.64,103.15-18.94,79.32-113.36,85.79-113.36,85.79-25.53,1.02-58.72-9.19-57.7-54.13s63.32-63.32,63.32-63.32c-106.21,4.6-113.87,128.68-7.15,138.89s145.53-73.53,147.57-130.21c2.02-56.14-39.63-105.7-107.74-106.72v-.02h0Z"/>
    </g>
  </g>
</svg>