<?xml version="1.0" encoding="UTF-8"?> <svg xmlns="http://www.w3.org/2000/svg" width="5020" height="1521" viewBox="0 0 5020 1521" fill="none"><path d="M3080.33 585.334V1170.67H3101H3121.67V585.334V0.000264466H3101H3080.33V585.334Z" fill="#605E68"></path><path d="M371.667 328.134C267.533 338.667 176.733 386.4 104.733 468.267C47.9332 532.8 15.6666 603.334 3.3999 689.334C0.066569 713.334 0.066569 784.4 3.3999 807.334C12.5999 869.2 29.5332 918.134 58.3332 965.867C96.1999 1028.8 157.267 1087.87 220.333 1122.8C295.933 1164.53 390.067 1179.87 481.533 1165.2C607.267 1145.2 723 1060.13 781.667 944.667C789.667 928.934 805.133 892.267 804.067 891.467C803 890.534 767.533 878.667 766.2 878.667C765.4 878.667 762.733 883.6 760.333 889.6C730.867 964.267 683.933 1022 615.8 1067.33C574.6 1094.67 533.133 1112.13 487 1121.33C458.067 1127.07 440.6 1128.4 403.933 1127.6C368.467 1126.8 354.333 1125.2 325 1118C276.467 1106.27 227.933 1082.27 187 1049.73C171.267 1037.07 135.8 1001.73 123.8 986.667C76.9999 927.467 49.5332 857.334 43.6666 780.934L42.7332 769.334H436.333H830.067L829.133 742.667C827.8 699.334 824.2 672.4 815.4 638C801.667 583.734 777.667 535.467 740.867 488C726.467 469.467 686.067 428.534 667.667 413.867C610.333 368.4 549.267 341.867 475.667 330.4C455.8 327.334 392.733 326 371.667 328.134ZM440.333 369.334C515.667 374.667 578.467 398.667 639 445.334C655.667 458.134 695.8 498.534 708.467 515.334C751.267 571.734 775.133 629.867 783.667 698.667C784.733 707.734 785.667 718.134 785.667 721.6V728H414.333H42.9999V723.6C42.9999 715.2 47.1332 684.667 50.4666 668.134C57.2666 634.4 65.9332 608.8 81.1332 577.867C128.067 482.4 219.133 406.667 318.067 380.667C358.067 370.267 398.6 366.4 440.333 369.334Z" fill="#605E68"></path><path d="M2397 327.6C2394.07 327.866 2383 329.2 2372.33 330.8C2302.2 340.533 2237.93 368.533 2181 414C2163.27 428 2125 466.4 2110.47 484.667C2080.07 522.8 2056.47 565.6 2041.8 609.333C2009.27 705.467 2012.87 820.4 2051.13 912.8C2064.87 945.867 2087.4 983.6 2111.8 1014C2126.87 1032.8 2159.4 1065.47 2178.73 1081.07C2256.07 1143.73 2344.87 1173.33 2447 1170.27C2505.27 1168.4 2552.87 1157.73 2603.27 1135.2C2662.87 1108.53 2721.4 1060.4 2766.07 1001.73C2811.13 942.267 2838.47 872.667 2846.33 797.067C2849 771.6 2849 725.6 2846.33 700.533C2836.6 607.733 2799.8 527.867 2734.6 458.133C2664.2 382.666 2578.2 338.933 2480.07 328.666C2462.33 326.8 2413 326.133 2397 327.6ZM2460.33 369.333C2495.67 371.866 2531.8 379.2 2561 389.866C2581 397.2 2615 414.533 2633 426.4C2677.53 456 2716.07 494.533 2745.8 539.333C2767.93 572.533 2788.47 620.533 2796.87 658.667C2813.27 733.333 2808.6 815.067 2784.07 881.867C2760.87 945.2 2717.67 1004.13 2661.13 1049.6C2619.93 1082.8 2567.8 1108.27 2519 1119.2C2490.47 1125.47 2478.33 1126.8 2443 1127.6C2416.6 1128.13 2404.87 1127.87 2390.47 1126.13C2304.6 1116.13 2232.2 1079.87 2169.67 1015.2C2132.33 976.533 2104.87 934.667 2086.6 888C2054.6 806.133 2053.53 700.933 2083.93 616C2116.87 523.867 2195 439.6 2284.73 399.2C2336.6 375.733 2399.53 365.066 2460.33 369.333Z" fill="#605E68"></path><path d="M3328.33 334.534C3316.07 339.734 3310.47 342.8 3310.73 344.134C3310.87 345.2 3389.53 531.6 3485.4 758.267L3659.67 1170.67H3679H3698.33L3872.6 758.267C3968.47 531.6 4047.13 345.2 4047.27 344.134C4047.53 342.8 4041.8 339.734 4029.27 334.4C4019 330.134 4010.33 326.934 4009.93 327.2C4009.4 327.467 3934.87 503.334 3844.33 717.867C3753.8 932.4 3679.4 1108 3679 1108C3678.6 1108 3604.2 932.4 3513.53 717.734C3423 503.067 3348.33 327.334 3347.53 327.2C3346.87 327.067 3338.2 330.267 3328.33 334.534Z" fill="#605E68"></path><path d="M4555.67 328.8C4463.13 339.2 4383.4 378.533 4314.47 447.466C4257.53 504.533 4220.6 568.533 4202.47 642C4185.67 710 4185.67 788 4202.6 855.2C4220.73 927.333 4255.67 989.066 4309.53 1044.4C4379.27 1115.87 4454.07 1154.27 4549.67 1167.6C4573.27 1170.8 4634.2 1170.8 4657.67 1167.47C4750.47 1154.4 4830.2 1114.27 4897.67 1046.67C4932.87 1011.33 4960.47 971.466 4980.07 927.333C4987.27 910.933 4994.33 892.266 4993.53 891.466C4992.6 890.533 4957.53 878.666 4955.8 878.666C4955 878.666 4952.2 884.266 4949.67 891.066C4947.13 897.733 4940.6 912.4 4935 923.333C4917 959.2 4896.33 987.866 4868.33 1016.13C4837.13 1047.6 4803.27 1071.87 4763.67 1091.33C4736.2 1104.8 4720.87 1110.67 4694.47 1117.33C4664.2 1124.93 4648.2 1126.93 4611.67 1127.6C4567.4 1128.53 4538.6 1125.07 4501 1114.53C4407.67 1088.27 4319.53 1014.53 4273.27 923.866C4250.47 879.2 4238.2 834.266 4233.13 776.933L4232.47 769.333H4625.93H5019.4L5018.6 738.933C5016.87 669.6 5004.87 618.666 4976.33 560.666C4938.6 483.6 4873 415.333 4797 373.466C4759.27 352.8 4713.53 337.733 4666.33 330.533C4641.53 326.8 4581.8 325.866 4555.67 328.8ZM4652.87 371.466C4751.93 383.733 4841.13 437.866 4905.4 524.666C4923.93 549.6 4942.07 583.2 4952.87 612.133C4964.87 644.533 4971.53 676 4975.67 718.933L4976.6 728H4604.47H4232.47L4233.13 720.933C4236.47 685.066 4240.47 662.133 4247.67 637.466C4276.6 537.866 4350.07 451.2 4444.87 404.533C4487.93 383.466 4528.87 372.8 4583.67 368.8C4595.8 367.866 4636.73 369.466 4652.87 371.466Z" fill="#605E68"></path><path d="M4537.8 1310.13C4522.87 1314.13 4507.53 1325.6 4499.93 1338.67C4493.27 1350.13 4490.73 1366.8 4493.67 1379.73C4498.87 1402.27 4513.67 1413.6 4553 1425.33C4586.6 1435.33 4594.33 1442 4594.33 1460.67C4594.2 1472.13 4591.27 1478.53 4582.2 1486.53C4560.07 1506 4521.27 1494.13 4516.6 1466.53L4515.53 1460.67L4503.93 1460.27L4492.33 1459.87V1463.73C4492.33 1465.73 4493.27 1471.07 4494.47 1475.33C4502.6 1506.93 4538.33 1526.53 4571.67 1518C4583.67 1514.8 4590.47 1511.07 4599.8 1502.27C4618.47 1484.93 4623.53 1459.47 4613.13 1436.67C4606.6 1422.27 4591.8 1412.27 4566.33 1404.67C4524.47 1392.27 4517.93 1387.73 4516.6 1369.33C4516.07 1361.2 4516.47 1359.2 4519.53 1352.8C4525.8 1339.87 4536.6 1333.2 4552.47 1332.27C4564.2 1331.6 4570.33 1333.07 4579 1338.93C4586.73 1344 4591.93 1351.33 4593.93 1359.87L4595.4 1366.67H4607.27H4619.13L4618.2 1360.27C4614.73 1336 4596.87 1316.53 4571.93 1309.87C4563.13 1307.47 4547 1307.6 4537.8 1310.13Z" fill="#DAC3B8"></path><path d="M3789.27 1310.27C3788.73 1310.67 3788.33 1357.47 3788.33 1414.27V1517.33H3800.33H3812.33L3812.6 1446.53L3813 1375.73L3817.8 1388.27C3820.47 1395.07 3832.07 1425.47 3843.8 1455.73L3864.87 1510.8L3875.67 1510.4L3886.33 1510L3901.4 1471.33C3909.67 1450 3920.87 1420.8 3926.33 1406.27C3931.8 1391.87 3936.87 1378.93 3937.53 1377.6C3938.47 1376 3938.87 1397.6 3939 1446.27V1517.33H3950.33H3961.67V1413.33V1309.2L3950.73 1309.6L3939.93 1310L3908.2 1391.33C3890.73 1436 3876.2 1473.07 3875.93 1473.87C3875.67 1474.53 3865.67 1449.87 3853.8 1419.2C3841.8 1388.53 3827.13 1351.2 3821.4 1336.27L3810.87 1309.33H3800.47C3794.73 1309.33 3789.67 1309.73 3789.27 1310.27Z" fill="#DAC3B8"></path><path d="M4012.33 1413.33V1517.33H4074.33H4136.33V1506V1494.67H4085.67H4035V1460V1425.33L4085.4 1425.07L4135.67 1424.67V1413.33V1402L4085.4 1401.6L4035 1401.33V1367.33V1333.33L4085.4 1333.07L4135.67 1332.67V1321.33V1310L4074.07 1309.6L4012.33 1309.33V1413.33Z" fill="#DAC3B8"></path><path d="M4178.6 1310.27C4178.07 1310.67 4177.67 1357.6 4177.67 1414.27V1517.47L4218.07 1517.07C4258.2 1516.67 4258.33 1516.67 4269 1512.93C4284.87 1507.33 4296.87 1499.6 4309.67 1486.8C4325.93 1470.4 4334.47 1454.67 4338.47 1433.87C4343.27 1408.53 4338.73 1382.93 4325.53 1360.27C4319.4 1350 4299 1329.87 4288.33 1323.6C4277.27 1317.2 4261.93 1312.4 4247.27 1310.67C4234.33 1309.2 4179.93 1308.8 4178.6 1310.27ZM4261.67 1337.2C4284.47 1345.2 4303.8 1363.87 4312.47 1386.53C4316.07 1395.87 4317.53 1420.67 4315 1432.4C4309.4 1459.87 4282.07 1486.8 4253.8 1492.8C4248.33 1493.87 4236.73 1494.67 4223.4 1494.67H4201.67V1413.87V1333.07L4227.4 1333.6C4249.8 1334.13 4254.07 1334.53 4261.67 1337.2Z" fill="#DAC3B8"></path><path d="M4663 1413.33V1517.33H4674.33H4685.67V1471.33V1425.33H4710.73C4737 1425.33 4744.07 1424.27 4754.73 1418.8C4779.53 1406.13 4790.07 1368.8 4777 1340.4C4772.73 1331.07 4761.67 1319.47 4753 1315.47C4742.6 1310.4 4732.2 1309.33 4696.07 1309.33H4663V1413.33ZM4743.13 1337.07C4753.4 1342.4 4757.93 1350.13 4758.73 1363.73C4759.4 1376 4757.8 1382.93 4752.2 1390.53C4745.27 1400.13 4741.13 1401.33 4711.4 1401.33H4685.67V1367.33V1333.33H4710.87C4735.8 1333.33 4736.07 1333.33 4743.13 1337.07Z" fill="#DAC3B8"></path><path d="M4867.67 1310.93C4867.4 1311.87 4850.2 1358.53 4829.67 1414.53C4809.13 1470.67 4792.33 1516.67 4792.33 1516.93C4792.33 1517.2 4797.93 1517.33 4804.73 1517.33H4817.13L4829.93 1480.93L4842.6 1444.67L4877.4 1444.27L4912.07 1444L4914.73 1450.93C4916.07 1454.8 4921.93 1471.33 4927.67 1487.6L4938.07 1517.33H4951H4963.93L4926.2 1414.67C4905.53 1358.27 4888.07 1311.47 4887.67 1310.67C4886.47 1308.67 4868.33 1308.93 4867.67 1310.93ZM4891 1383.33C4897.8 1402.4 4903.67 1418.8 4904.07 1419.6C4904.47 1420.93 4898.6 1421.33 4877.67 1421.33C4861.4 1421.33 4851 1420.8 4851.27 1420.13C4851.53 1419.33 4857.4 1402.67 4864.33 1382.8C4871.27 1363.07 4877.4 1347.2 4877.8 1347.73C4878.33 1348.27 4884.2 1364.27 4891 1383.33Z" fill="#DAC3B8"></path><path d="M873.212 236.283C875.086 238.692 927.417 309.894 989.652 394.614C1266.43 771.369 1419.54 979.622 1421.41 981.763C1423.69 984.44 1420.88 987.92 1464.38 928.629C1476.29 912.435 1494.36 887.675 1504.66 873.756C1514.97 859.703 1533.04 835.076 1544.95 818.882C1556.86 802.687 1573.05 780.738 1580.95 770.031C1588.85 759.324 1606.25 735.5 1619.76 717.165C1646.4 680.894 1667.95 651.584 1693.78 616.384C1702.88 604.071 1721.35 578.909 1734.86 560.573C1748.38 542.104 1766.85 517.076 1775.95 504.629C1785.05 492.316 1800.04 471.839 1809.41 459.124C1818.78 446.543 1832.83 427.404 1840.6 416.697C1884.36 357.273 1973.56 233.472 1974.5 232C1968.5 232 1960.12 232 1898.55 232H1821.19L1622.44 502.354C1513.09 651.048 1423.42 772.708 1423.02 772.574C1422.62 772.574 1332.95 650.914 1223.87 502.22L1025.25 232H947.626H870L873.212 236.283Z" fill="#605E68"></path><path d="M873.212 446.283C875.086 448.692 927.417 519.894 989.652 604.614C1266.43 981.369 1419.54 1189.62 1421.41 1191.76C1423.69 1194.44 1420.88 1197.92 1464.38 1138.63C1476.29 1122.43 1494.36 1097.67 1504.66 1083.76C1514.97 1069.7 1533.04 1045.08 1544.95 1028.88C1556.86 1012.69 1573.05 990.738 1580.95 980.031C1588.85 969.324 1606.25 945.5 1619.76 927.165C1646.4 890.894 1667.95 861.584 1693.78 826.384C1702.88 814.071 1721.35 788.909 1734.86 770.573C1748.38 752.104 1766.85 727.076 1775.95 714.629C1785.05 702.316 1800.04 681.839 1809.41 669.124C1818.78 656.543 1832.83 637.404 1840.6 626.697C1884.36 567.273 1974.56 443.472 1975.5 442C1958.53 442 1960.12 442 1898.55 442H1821.19L1622.44 712.354C1513.09 861.048 1423.42 982.708 1423.02 982.574C1422.62 982.574 1332.95 860.914 1223.87 712.22L1025.25 442H947.626H870L873.212 446.283Z" fill="#DAC3B8"></path></svg> 