<?xml version="1.0" encoding="UTF-8"?>
<svg xmlns="http://www.w3.org/2000/svg" id="Layer_1" data-name="Layer 1" viewBox="0 0 888.26 351.89">
  <defs>
    <style>.cls-1{fill:#fff;}</style>
  </defs>
  <title>fort logo white</title>
  <path class="cls-1" d="M736.14,128.59l-18.29,5.55c-.09.75-.18,1.49-.28,2.24,3.45,2.36,7,4.62,10.34,7.09A42.93,42.93,0,0,1,743.07,164c1.23,3.46,2.67,5.27,6.92,5.34,8.24.14,9,1.16,10.76,9.31q10.59,49.28,21.11,98.58a16.8,16.8,0,0,1,.21,2.31c-7.46,2.1-14.72-3.05-16.75-12.56-1.19-5.53-2.13-11.11-3.21-16.66-.35-1.77-.8-3.52-1.24-5.44-8.77-.61-17.1.07-25,4a9.61,9.61,0,0,0-5.74,7.51c-1.08,6.56-2.6,13.05-3.95,19.57-.89,4.28-.9,4.28-5.79,3.52q7.57-35.85,15.16-71.66c1.86-8.79,4.33-17.5,5.48-26.38,2.34-18.2-6.71-31.63-22.61-39.32-.8-.38-1.88-.16-3.22-.25.8,5.65,1.56,11,2.45,17.2-6.4-3.51-7.16-9.87-10.19-15.51-1.28,4.57-2.46,8.78-3.65,13l-1.06.25c-.83-3.84-1.66-7.68-2.43-11.28l-8.75,11.85-1.92-1.06c1.23-4.32,2.45-8.64,3.93-13.85l-8.08,9.24c.05-10.79,3.11-14.61,13.54-19.17l-11.35,1.63c2.89-8,8.85-9.31,20.82-3.88,2.77-6.1,4.8-13.23,12.89-13.21l-6.59,11.79C721.93,124.68,728.68,124.83,736.14,128.59Zm-.75,116c6.84-3.49,12.84-6.51,18.81-9.61,3.09-1.6,3.93-4.21,3.29-7.56-1.66-8.65-3.21-17.33-4.82-26-.79-4.25-1.63-8.49-2.45-12.74s-1.63-8.39-2.45-12.59C744.85,199.09,746,222.57,735.39,244.54Z" transform="translate(0.03 -0.07)"></path>
  <path class="cls-1" d="M108.2,224.7c0,10.64,1.07,21.4-.22,31.88-2.77,22.46-29.25,33.17-47.86,19.95a24.92,24.92,0,0,1-10.71-20c-.56-21.27-1-42.6.07-63.83.73-14.67,9.86-22.46,24.1-24,22.37-2.41,34.55,8,35.42,30.56.33,8.48,0,17,0,25.48Zm-14.29-.27-.52,0c0-6.83.21-13.67-.06-20.5a177.07,177.07,0,0,0-1.72-21.36c-1.13-7-5-9.41-12.52-9.51-7.78-.1-11.74,2.42-13.12,9.4a93.29,93.29,0,0,0-1.81,16.83c-.23,16.83-.27,33.67,0,50.5a85.58,85.58,0,0,0,2.29,18.75,11.8,11.8,0,0,0,6.17,7c10.42,4.26,18.56-.55,19.48-11.73C93.2,250.74,93.36,237.57,93.91,224.43Z" transform="translate(0.03 -0.07)"></path>
  <path class="cls-1" d="M658.68,168.62c12.17.6,24.17.44,35.94,2,12.65,1.68,19.53,10.79,19.93,22.83.71,21.1.87,42.32-.64,63.35-1.08,15-11.27,22.62-26.48,23.19-5.32.2-10.67.22-16,0-7.76-.33-11.82-4.22-12.88-11.94a25.43,25.43,0,0,1-.19-3.49q0-45.74,0-91.48C658.37,172,658.52,170.82,658.68,168.62Zm15.64,108.15h4.9c15.07.06,19.45-3.78,20-18.94s.62-30.63.65-45.94c0-8.15-.21-16.33-.86-24.45-.75-9.4-4.89-13.39-14.24-14.16-4.41-.36-8.88-.06-12.73-.06C676.07,207.66,672.75,242,674.32,276.77Z" transform="translate(0.03 -0.07)"></path>
  <path class="cls-1" d="M468.35,170.21c11.9,0,23.6-1,35.06.27,12.38,1.36,19.64,9.73,20.62,22.73,1,13.42,1,26.94.88,40.41-.07,8.61-.31,17.37-1.92,25.79-2.42,12.68-11.32,19.73-24.24,20.46a175.06,175.06,0,0,1-18.47.05c-7.3-.35-12.06-4.86-12.1-12-.18-32.3-.09-64.61-.08-96.92C468.1,170.52,468.4,170.07,468.35,170.21Zm15.28,106.26c4.3,0,8.3.39,12.2-.08,7.43-.92,12-4.72,12.17-12.23.58-25.58.41-51.18.5-76.77a14.52,14.52,0,0,0-.5-3.45c-1.4-5.7-4.67-9.61-10.78-10.18-5.41-.51-10.86-.61-15.74-.86C485.34,207.55,482.07,241.82,483.63,276.47Z" transform="translate(0.03 -0.07)"></path>
  <path class="cls-1" d="M606.13,224.18V279.6c-9.84,1-15.12-3.82-15.16-14-.12-27.34-.05-54.67-.06-82V168.34c12.82.92,25.12,1.11,37.19,2.89a18.27,18.27,0,0,1,16.09,16.32c1,7.61,1.26,15.7-.25,23.15-2.36,11.63-9.46,16.08-23.69,17,16.34,13.8,26.07,30.67,27.33,51.89-5.7,1.83-10.75.3-13.76-5-2.11-3.69-3.18-8-4.65-12-3.47-9.49-6.54-19.16-10.5-28.44A15.83,15.83,0,0,0,606.13,224.18Zm-1.69-51.09c.84,16.17,1.64,31.71,2.47,47.72,1.39.42,3.25,1.06,5.15,1.52,10.52,2.56,16.28-.36,17.49-10.94,1-9.11.21-18.52-.63-27.71-.47-5.15-4.28-8.8-9.56-9.59S608.85,173.35,604.44,173.09Z" transform="translate(0.03 -0.07)"></path>
  <path class="cls-1" d="M137.18,224.51v55.18c-9.26.64-14.93-3.75-15-12.26-.2-32.14-.09-64.28-.07-96.41a13.32,13.32,0,0,1,.78-2.46c11.33.67,23,.54,34.41,2.25,11.76,1.77,17.77,8.8,18.85,20.63a60.76,60.76,0,0,1-1,19.23c-2.81,11.8-9.76,16.37-23.85,17,16.37,13.82,26.13,30.65,27.43,51.83-5.06,2-10.31.79-13.29-4.18-2.34-3.91-3.58-8.49-5.19-12.82-3.59-9.61-6.62-19.47-10.81-28.81C146.61,227.31,143.11,225.49,137.18,224.51Zm.85-3.64c2,.55,4.34,1.38,6.77,1.85,9.11,1.75,13.56-.93,15.75-10a59.6,59.6,0,0,0-.4-29.19c-1.27-4.92-4.28-8.54-9.32-9.34-5.33-.84-10.79-.8-15.31-1.09C136.37,189.2,137.17,204.59,138,220.87Z" transform="translate(0.03 -0.07)"></path>
  <path class="cls-1" d="M443.53,6.91c36,1.29,72.88-1.87,109.31,5,.7.13,1.28.9,1.91,2.73a69.27,69.27,0,0,1-8.34.75c-17.82-.56-35.63-1.64-53.45-1.8-16.48-.15-33,.74-49.44.95-3.68.05-5.29,1.71-6.38,4.89-9.92,28.93-20,57.81-29.86,86.76-5.3,15.58-10.18,31.31-15.35,46.94a77.06,77.06,0,0,1-3.34,7.51l-1.9-.23c0-1.9-.43-3.92.07-5.68,5.2-18.2,10.26-36.46,15.95-54.52,8-25.53,16.59-50.9,24.88-76.35.76-2.32,1.23-4.74,2.21-8.62-8.77,1-16.67,1.43-24.41,2.77-19.19,3.34-38.32,7.13-56.32,14.92a99.59,99.59,0,0,0-18.34,10c-12.6,9-12.48,25.71-.2,35.28,1.45,1.12,3.23,1.93,4.37,3.28.9,1.07,1.06,2.76,1.55,4.17-1.49.2-3.16.93-4.44.5-12-4-19.73-21.72-15.1-34.11,2.93-7.86,8.49-13.45,15.32-17.9,15.06-9.81,32-14.84,49.38-18.07,15.86-2.95,32-4.59,47.89-7.18,2.37-.38,4.44-2.79,6.58-4.36,1.94-1.42,3.8-3,5.69-4.45C442.33,2.23,442.89,4.4,443.53,6.91Z" transform="translate(0.03 -0.07)"></path>
  <path class="cls-1" d="M395.67,169.36c10.37.45,14.15,4.31,14.2,14.66.12,23.48.08,47,.23,70.43a62.25,62.25,0,0,0,1.15,11.4c1.24,6.26,5,9.72,11,10.71,11.73,1.95,23.11-5.95,24.89-17.65a108.28,108.28,0,0,0,1.09-15.9c.11-24.31,0-48.61,0-73.55l5.52-.29c.11,1.89.26,3.34.26,4.79,0,23.15.23,46.3-.12,69.44a92.06,92.06,0,0,1-2.85,21.15c-2.52,9.88-9.67,15.23-19.77,16.39-23.41,2.67-34.85-6-35.76-29.46-1-26.94-.32-53.94-.35-80.91A4.82,4.82,0,0,1,395.67,169.36Z" transform="translate(0.03 -0.07)"></path>
  <path class="cls-1" d="M348.48,169c3.44.26,6.39.55,9.35.7,4.38.22,6.27,2.65,7.14,6.81,6.29,29.94,12.73,59.85,19.12,89.78.93,4.38,1.84,8.78,2.76,13.17-7.87,1.82-14.31-2.3-16.51-11-1.69-6.77-2.68-13.71-4.24-20.52-.28-1.21-1.8-3-2.82-3-8.06-.42-16.14.16-23.15,4.5a13.16,13.16,0,0,0-5,7.23c-2.06,7.53-3.38,15.25-5.07,23.21H325C332.8,242.85,340.56,206.29,348.48,169Zm3.87,7h-.92l-14.68,71.43c6.56-3.79,13-8.08,20-11.38,4.89-2.32,6.18-5.42,5.19-10.31-1.41-7-2.62-14-4-21C356.12,195.11,354.23,185.55,352.35,176Z" transform="translate(0.03 -0.07)"></path>
  <path class="cls-1" d="M428.55,109.46c6.27-6.88,12.48-13.82,18.87-20.59A44.14,44.14,0,0,1,455,82.35c4.23-2.81,7.28-1.26,7.2,3.75-.07,4.46-1,8.91-1.44,13.37-.29,2.7-.45,5.41-.76,9.31,7-3.26,10.68-7.91,14-13.09a55,55,0,0,1,6.7-9.21c1.19-1.21,3.84-1,5.83-1.4.37,2,1.6,4.31.92,5.78-1.87,4-4.58,7.62-6.89,11.44a33.3,33.3,0,0,0-4.21,9.3c10-.81,13.87-9.39,20.09-15.75.26,1.25.63,1.93.45,2.4-3.38,8.77-9,15.54-18,18.82-5.05,1.84-7.52-.51-9.17-7.9a67.58,67.58,0,0,1-6.36,4.77c-4.6,2.7-8.49,1.1-9.1-4.19-.52-4.55.07-9.25.29-13.87.08-1.62.52-3.22,1.06-6.37-2.33,2.14-3.8,3.14-4.82,4.47q-13.32,17.44-26.48,35c-1.7,2.25-3.07,4.81-5.06,6.75-1,.93-3,.74-4.57,1.06-.22-1.31-.9-2.74-.61-3.92,8.47-33.74,18.48-67,33-98.71a34.31,34.31,0,0,1,4.27-7.3c1.1-1.37,3.1-2,4.7-3,.85,1.8,2.46,3.62,2.4,5.38-.14,3.95-.42,8.15-1.87,11.76-6.89,17.26-14.16,34.37-21.36,51.5-2.35,5.58-4.92,11.07-7.39,16.6Z" transform="translate(0.03 -0.07)"></path>
  <path class="cls-1" d="M887.68,173.29H859c.7,20,1.39,39.58,2.1,59.75l21.89-6.2c0,2.74.37,5.21-.13,7.5-.34,1.54-1.64,3.57-3,4.07-5.31,1.93-10.84,3.23-16.19,5.05-1.26.43-3,2-3.05,3-.24,9.79-.14,19.59-.14,30.15h21.73a18.82,18.82,0,0,1,4,.11c.75.16,1.34,1,2,1.6-.64.58-1.27,1.67-1.9,1.67-10.66,0-21.35.29-32-.55-6-.47-9.16-5.92-9.2-13.54-.08-16.66,0-33.33,0-50V169.15h7.51c10.5,0,21,0,31.5,0C886.74,169.12,888.88,169.24,887.68,173.29Z" transform="translate(0.03 -0.07)"></path>
  <path class="cls-1" d="M538.12,169.16c13.66,0,26.94,0,40.22.1.83,0,1.65,1.43,2.47,2.19-1,.6-1.93,1.7-2.91,1.72-7.33.15-14.65.09-22,.09h-4.25c.73,20.13,1.45,39.78,2.18,59.8l21.67-6.19c0,2.61-.19,4.86,0,7.07.31,2.88-.93,4.13-3.62,4.86-6.21,1.68-12.35,3.64-18.54,5.49v32.34h20a34.44,34.44,0,0,1,5,.07,8.61,8.61,0,0,1,2.63,1.46c-.89.65-1.77,1.83-2.68,1.86-5.49.18-11,.09-16.48.1h-7c-13.38,0-17-3.57-17-16.77q0-44.45,0-88.89C537.86,172.85,538,171.23,538.12,169.16Z" transform="translate(0.03 -0.07)"></path>
  <path class="cls-1" d="M12.06,173.36c5.35,20,2.24,39.71,3.46,60l21-6.35c0,3.17.32,6-.14,8.71-.2,1.2-1.8,2.62-3.08,3.09-4.52,1.65-9.13,3.1-13.79,4.31-3.23.83-4.52,2.27-4.38,5.85.32,8.64.1,17.3.1,26v4.82C5.35,280.65.14,276.05.07,266.16-.09,242.85,0,219.55,0,196.24V169.15H15.67c8,0,16-.07,24,.1,1.07,0,2.12,1.28,3.18,2-1,.71-2,2-3.09,2.05C30.76,173.43,21.78,173.36,12.06,173.36Z" transform="translate(0.03 -0.07)"></path>
  <path class="cls-1" d="M203.13,173.25c-5.67,0-10.65.12-15.61-.09-1.09,0-2.12-1.26-3.18-1.94,1.06-.69,2.11-2,3.17-2q23-.19,46,0c1.12,0,2.24,1.19,3.36,1.82-1.17.73-2.32,2.05-3.52,2.1-5.79.22-11.59.1-17.36.1,5.19,35.6,1.26,70.88,2.88,105.91-8.15,1.82-14.31-2.45-15.49-10.3a39.81,39.81,0,0,1-.22-6q0-41.71,0-83.45Z" transform="translate(0.03 -0.07)"></path>
  <path class="cls-1" d="M792.12,169.43c14.07-.31,12.78-2.62,14,10.79,1.28,14.24,1.15,28.61,1.33,42.93.2,15.83.05,31.66.05,47.49v6h6.42c6.5,0,13-.06,19.49.08.86,0,1.7,1,2.55,1.57-.62.6-1.23,1.72-1.84,1.72-10.83,0-21.68.22-32.46-.51-5.49-.37-8.88-5.29-9.37-11.41-.27-3.48-.14-7-.14-10.49q0-41.25,0-82.49Z" transform="translate(0.03 -0.07)"></path>
  <path class="cls-1" d="M277,170c.63-.45.76-.63.9-.64,13.42-.18,11-2.32,13,10.63,1.23,8.19,1.2,16.61,1.25,24.93.15,23.65.06,47.31.06,71.73h20.06a41.82,41.82,0,0,1,5.49.08c.92.13,1.73,1,2.59,1.52-.76.62-1.52,1.78-2.29,1.78-10.16.05-20.34.23-30.48-.24-5.84-.27-9.56-4.51-10.41-10.39a34.54,34.54,0,0,1-.35-5q0-45.49,0-91C276.76,172.26,276.9,171.11,277,170Z" transform="translate(0.03 -0.07)"></path>
  <path class="cls-1" d="M304,336.51,319.16,306l1.27.1,9.67,44.71h-7.55c-1.74-7.83-3.46-15.57-5.39-24.23L304,352c-4.61-8.84-8.75-16.81-13.43-25.8-1.39,6.9-3,12.86-3.69,18.92-.61,5.61-3.13,7.14-8.9,5.38l9.16-44.33,1.3-.23Z" transform="translate(0.03 -0.07)"></path>
  <path class="cls-1" d="M411.3,350.78V305.47c7.34.65,14.54.53,21.37,2.07,9.68,2.18,14.58,11.3,13.67,23.16-.85,11-7.64,18.78-18.16,20C422.78,351.29,417.25,350.78,411.3,350.78Zm7.84-6.95c6.6.61,12.62.62,16.63-5.48,3.55-5.39,3.63-14.83,0-19.86-4.15-5.81-10.15-5.95-16.67-5.23Z" transform="translate(0.03 -0.07)"></path>
  <path class="cls-1" d="M578.83,350.1l21.76-45.47,22.14,46c-5.24.85-9.6,1.52-11-4.69-.62-2.77-2.55-3.52-5.24-3.29a47.77,47.77,0,0,1-7.47,0c-5.23-.42-9.57-.18-11.45,6.29-.46,1.58-5.07,1.95-7.77,2.87C579.49,351.23,579.16,350.67,578.83,350.1Zm21.79-29.5c-2.35,5.29-4.34,9.73-6.45,14.47H607C604.89,330.21,603,325.85,600.62,320.6Z" transform="translate(0.03 -0.07)"></path>
  <path class="cls-1" d="M539.49,335.37v15.36h-7.17V305.81c5.16.29,10.47.14,15.62,1,6.71,1.1,10.08,5.51,10.31,12.13.26,7.62-2.93,12.94-9.27,14.81C546.14,334.57,543.12,334.77,539.49,335.37Zm.47-22.1v14.29c7.32.51,10.63-1.93,10.51-7.45C550.35,314.82,547.24,312.7,540,313.27Z" transform="translate(0.03 -0.07)"></path>
  <path class="cls-1" d="M473.5,348.26c1.79-3.11,2.93-5.1,3.95-6.89,3.05,1.13,5.83,2.94,8.61,3,2.38,0,6-1.51,6.79-3.34.72-1.67-1.18-5-2.78-6.95-1.39-1.66-4-2.33-6-3.42-8-4.22-11.06-11.05-8.09-18,2.53-5.94,10.34-8.83,18.09-6.49,2,.61,3.77,1.88,5.94,3l-3.17,5.6c-3.15-.81-5.83-2-8.51-2-1.78,0-4.65,1.42-5.05,2.78a7.08,7.08,0,0,0,1.69,6c2.5,2.33,5.82,3.78,8.81,5.59,6.73,4.1,9.17,9.44,7.23,15.87-1.66,5.52-7.63,9.38-14.74,8.65C482.13,351.24,478.13,349.54,473.5,348.26Z" transform="translate(0.03 -0.07)"></path>
  <path class="cls-1" d="M366.91,331.23V344h14c.11,2.35.2,4.27.32,6.62H359.43V306.34H378.9v6.38h-12v11l9.69.48v6.56Z" transform="translate(0.03 -0.07)"></path>
</svg>
