<svg xmlns="http://www.w3.org/2000/svg" id="uuid-f639ff3c-13e7-4617-8f6b-190189edf2ff" viewBox="0 0 2870.4 1638"><defs><style>      .st0 {        fill: #fff;      }    </style></defs><path class="st0" d="M1153.4,1192.1c84.5,75.8,176.4,97.7,288,93.9,0,0,9.8-.7,12.7-.6,1,0,1.3.5,1.7,1.4,4.2,11.3,15.5,70.4,16.6,80.3,8.6,78.3-5.9,161.6-42.9,231-7.2,13.6-17.1,25.7-23,40,13.2-10.3,23.2-26.7,32-41,51.9-84.5,66.1-184.3,47.4-281.4-2.2-11.5-5.8-23.1-9.1-34.3-.2-.7.2-1.4.9-1.5,455.6-103.5,433.9-881-42.3-935.7,0,0-23.3-1.7-28.6-1.2-.5,0-1.7-1-1.9-1.4-42.6-94.1-71-202-24.9-300.8,5.1-10.8,19.8-29.9,22.3-37.7.3-.8.5-2.5-.3-2.9-.3-.2-.7,0-.9.2-79.6,98.9-55.8,235.6-7,343.1.1.2,0,.5-.3.5-414.6,16.1-518.3,598.9-240.5,848h0ZM1411.6,354.6c0-.7.5-.6,1.2-.6,52.3,4.4,99.8,19.6,142.3,50.3,158.8,115,193.3,371.8,154.4,551.7-27.8,128.7-103,264.9-235,307.5-.6.2-1.3,0-1.7-.5-3.4-4.9-12.3-30.8-14.6-35.7-9.8-20.8-22.9-40.7-32.1-61.9-41.8-96.8-50.6-221.7-20.2-322.9,11.2-37.1,29.4-72.2,40-110,32.7-116.5,19.3-225-19.4-337.5-1.9-5.6-14.6-33.7-14.8-40.4h0ZM1392,354.5l3.9-.2c.7,0,2.2.2,2.5.8l1.1,1.7.8,1.4c43.1,110.6,63.3,224.7,35.5,342.2-13,55-40.5,103.3-54.8,157.2-27,101.5-19.4,230,25.1,325.8,8.9,19.2,21.1,36.7,30.1,55.9,2.2,4.8,11.8,24.9,12,28.1.2,3.8-2.2,3.6-4.7,4.6-5.3,2-25.3,3.9-31.9,4.1-159.1,5-266.7-141.3-306.5-279.7-66.1-229.6-4.6-615.9,287.1-642h0Z"></path><path class="st0" d="M195,369.9s223.8-1.7,313.4,19c47.3,11,128.3,35.3,132.8,92.5,0,.4.3.7.7.8l7.5,1.5c.5.1,1-.3,1-.9v-119.1c0-.5-.4-.9-.9-.9l-648.5-1c-.4,0-.8.3-.9.7-2.5,12.5,14.8,8.1,24.3,10.2,65,14.1,56.9,133.9,57.8,184.2,2.4,138.6-.5,278.8,0,418,.2,64.2,10.4,193.9-18.2,249.7-13.4,26.2-33.3,31.6-60.4,36.1-.8.1-1.5.7-1.8,1.5l-1,3c-.4,1,0,2.2.7,3l1.1,1.1c.4.4.9.6,1.5.6h237.3c1.1,0,2.1-.7,2.4-1.8l1.9-6.3c.3-1-.4-2-1.4-2.2-15.7-1.9-33.7-4.1-46.1-14.7-38.2-32.8-32.6-133.6-33.9-180.2-2-76.6-6.2-161.6-2.2-238,3.9-73.8,41.5-103.2,112.2-70,64,30,98.7,69,178.9,67.1,55.2-1.3,108.2-38.3,111.1-96.3,0-1.6-.7-3.1-2.1-4-9.4-5.9-8.5,13.1-13.5,21.7-40.2,68-160-.5-212.9-15.9-59.9-17.5-132.5-16.1-172,38.3-.5.7-1.6.3-1.6-.5v-390.3c0-.7,0-3,0-4.8,0-1.2,1-2.2,2.2-2.2h30.3s0,0,0,0Z"></path><path class="st0" d="M2675.3,367.8c0,.2.2.4.4.4,29.6,4.9,72.5-1.5,74,41.1.9,25.5-22.2,75.4-32.9,100-52.4,121.3-122.4,238.4-182.4,356l-4.1-8.4c-50-96.3-107.4-188.4-157-284.9-17.7-34.4-66.2-125.5-62.7-160.8,3.8-38.2,36.3-41.4,67.8-42.2,2.2-1,2.7-5.9,1.9-7h-36.9c0,0-152,0-152,0h-65.1c0,0,0,6.7,0,6.7,0,0,19.6,3.6,30.6,7.7,41.2,15.4,76.4,89.5,96.5,127.5,67.3,127,133.6,254.4,204.5,379.5-2.6,91.8,6.6,188.5-3.6,279.5-3.3,29.8-12.7,75.6-42.6,89.4-9.2,4.2-31.5,5.4-35.4,8.7-3.4,2.8-2.3,8,1,9h242.2c.4,0,.7-.3.7-.8l-.4-8c0-.5-.4-.9-.8-1-11.1-2.6-20.3-2.5-31.3-6.8-49.2-19-44.2-101.4-49.6-144.4l.5-225.6c46.9-90.7,99.4-178.3,147.9-268.1,32.7-60.6,62-131.6,99.6-188.4,20-30.1,43.8-55.6,82.6-56.7.2,0,.3-.1.3-.3l1.1-7.7c0-.1,0-.2-.2-.2h-195.4c-.2,0-.3.2-.3.4l.8,5.4h0Z"></path></svg>