<svg xmlns="http://www.w3.org/2000/svg" width="236" height="76" viewBox="0 0 236 76" fill="none"><path d="M91.8984 45.1172L90.2507 54.1792H59.0205C59.0205 54.1792 59.0205 53.8048 59.0205 53.655C60.2189 52.9809 60.7431 51.8576 60.7431 49.2363V6.77216C60.7431 4.07658 60.2189 3.02773 59.0205 2.35313C59.0205 2.20343 59.0205 1.75432 59.0205 1.75432H68.3072C68.3072 1.75432 68.3072 2.20343 68.3072 2.35313C67.1839 3.02773 66.6595 4.07658 66.6595 6.77216V53.655H73.4748C81.7878 53.655 87.929 49.3861 91.449 44.8177L91.8984 45.1172Z" fill="#100F0D"></path><path d="M103.955 24.4469V53.655H110.022C118.26 53.655 124.476 49.3861 127.996 44.8177L128.446 45.1172L126.798 54.1792H96.3916C96.3916 54.1792 96.3916 53.8048 96.3916 53.655C97.5144 52.9809 98.0393 51.8576 98.0393 49.2363V6.77216C98.0393 4.15144 97.5144 3.02773 96.3916 2.35313C96.3916 2.20343 96.3916 1.75432 96.3916 1.75432H124.401L125.974 10.0676L125.6 10.3672C122.154 6.47276 117.511 2.35313 109.198 2.35313H103.955V24.4469Z" fill="#100F0D"></path><path d="M159.525 33.5089L150.089 9.01911L141.401 33.5089H159.525ZM175.702 54.1792H164.169V53.655C166.116 51.7078 165.517 49.0865 163.419 43.6194L159.75 34.108H141.176L139.154 39.7998C136.758 46.6151 136.384 50.2848 139.529 53.655V54.1792H130.691V53.655C133.912 50.2848 136.084 46.8399 138.555 39.7998L149.789 8.19527L147.318 1.75432H153.234L167.838 39.7998C170.909 47.2892 172.856 50.2848 175.702 53.655V54.1792Z" fill="#100F0D"></path><path d="M233.367 6.77216V49.2363C233.367 51.8576 233.892 52.9809 235.09 53.655C235.09 53.8048 235.09 54.1792 235.09 54.1792H225.804C225.804 54.1792 225.804 53.8048 225.804 53.655C226.927 52.9809 227.526 51.8576 227.526 49.2363V4.00174L206.856 39.7998H206.181L184.763 7.14642V45.1921C184.763 48.4125 187.009 52.3819 189.481 53.655C189.481 53.8048 189.481 54.1792 189.481 54.1792H179.445C179.445 54.1792 179.445 53.8048 179.445 53.655C181.916 52.3819 184.163 48.4125 184.163 45.1921V6.39791L180.794 1.75432H187.534L209.027 34.9319L228.125 1.75432H235.09C235.09 1.75432 235.09 2.20343 235.09 2.35313C233.892 3.02773 233.367 4.07658 233.367 6.77216Z" fill="#100F0D"></path><path d="M46.6377 36.4788V48.4344C44.0597 51.2465 40.5442 53.4341 35.857 54.059C21.9517 55.8557 11.718 48.1219 7.4995 34.3727C3.28099 20.5454 8.12444 4.7652 21.4831 1.87501C31.7167 -0.312523 41.013 6.40539 46.7158 15.4676H47.2626L49.6062 6.56163C42.9659 2.18752 37.8882 -1.14441e-05 29.4513 -1.14441e-05C13.9835 -1.14441e-05 0 12.4992 0 27.967C0 43.4347 12.4992 55.9338 27.8888 55.9338C43.2003 55.9338 50.6998 47.6532 52.8091 43.1222V36.4712C50.7558 36.4729 48.7094 36.5129 46.6377 36.4788Z" fill="#100F0D"></path><path d="M54.5275 28.3989C54.5275 28.2427 54.5275 27.774 54.5275 27.774H40.6221C40.6221 27.774 40.6221 27.9303 40.6221 28.3989C44.4501 28.6333 46.6374 31.6019 46.6374 36.3672V36.4788C48.7091 36.5129 50.7555 36.4728 52.8088 36.4712V33.008C52.8088 30.1958 53.3557 29.102 54.5275 28.3989Z" fill="#100F0D"></path><path d="M122.538 37.2326C122.388 37.2326 122.25 37.1623 122.16 37.0399L117.514 30.7506L112.734 36.9375C112.643 37.0547 112.507 37.122 112.362 37.122C112.203 37.122 112.05 37.0392 111.963 36.9059C111.876 36.7736 111.863 36.6069 111.926 36.4599L115.051 29.2924L107.302 28.2455C107.063 28.2132 106.891 28.0141 106.894 27.7722C106.896 27.5304 107.072 27.3352 107.313 27.308L115.082 26.4298L112.114 19.196C112.055 19.0495 112.07 18.8848 112.158 18.7553C112.246 18.6227 112.394 18.5435 112.553 18.5435C112.703 18.5435 112.841 18.6137 112.931 18.7362L117.526 25.0905L122.358 18.8386C122.448 18.7214 122.583 18.6541 122.729 18.6541C122.888 18.6541 123.041 18.7369 123.128 18.8703C123.215 19.0024 123.228 19.1691 123.164 19.3162L120.04 26.4837L127.788 27.5305C128.028 27.5629 128.2 27.762 128.197 28.0038C128.195 28.2457 128.018 28.4409 127.778 28.4681L120.009 29.3463L122.976 36.5801C123.037 36.7265 123.02 36.8914 122.934 37.0208C122.845 37.1534 122.697 37.2326 122.538 37.2326Z" fill="#100F0D"></path><path d="M54.5281 28.3933H37.5195V27.3828H54.5281V28.3933Z" fill="#231F20"></path><path d="M123.253 73.2666C123.253 73.7764 123.253 74.2862 123.315 74.796H122.723C122.784 74.2862 122.784 73.7764 122.784 73.2666V61.3576C122.784 60.9293 122.825 60.6575 122.825 60.0932C122.601 60.603 122.478 60.8681 122.193 61.4391L116.585 73.2666C116.34 73.7764 116.136 74.2658 115.973 74.796H115.341C115.178 74.2658 114.974 73.7764 114.729 73.2666L109.122 61.4391C108.856 60.8885 108.714 60.5827 108.489 60.0729C108.489 60.5208 108.53 60.9293 108.53 61.3576V73.2666C108.53 73.7764 108.53 74.2862 108.591 74.796H108C108.061 74.2862 108.061 73.7764 108.061 73.2666V61.1332C108.061 60.6235 108.061 60.1137 108 59.6038H108.856C109.02 60.1137 109.264 60.6235 109.509 61.1332L115.117 72.9403C115.3 73.3074 115.484 73.6948 115.667 74.1434C115.851 73.6948 116.035 73.3074 116.218 72.9403L121.826 61.1332C122.071 60.6235 122.315 60.1137 122.478 59.6038H123.315C123.253 60.1137 123.253 60.6235 123.253 61.1332V73.2666Z" fill="#100F0D" stroke="black" stroke-width="0.25"></path><path d="M134.674 74.3678C135.184 74.3678 135.694 74.3678 136.204 74.3066V74.8572C135.694 74.796 135.184 74.796 134.674 74.796H128.883C128.373 74.796 127.822 74.796 127.312 74.8572C127.374 74.3474 127.374 73.8375 127.374 73.3278V61.0925C127.374 60.5827 127.374 60.0729 127.312 59.5427C127.822 59.6039 128.373 59.6039 128.883 59.6039H134.368C134.878 59.6039 135.388 59.6039 135.898 59.5427V60.0933C135.388 60.0321 134.878 60.0321 134.368 60.0321H127.843V66.9858H133.675C134.185 66.9858 134.694 66.9858 135.204 66.9246V67.4752C134.694 67.4141 134.185 67.4141 133.675 67.4141H127.843V74.3678H134.674Z" fill="#100F0D" stroke="black" stroke-width="0.25"></path><path d="M143.992 74.3678C148.111 74.3678 150.619 71.5945 150.619 67.0062C150.619 62.52 148.172 60.0321 143.808 60.0321H139.607V74.3678H143.992ZM143.829 59.6039C148.478 59.6039 151.088 62.2548 151.088 67.0062C151.088 71.8596 148.396 74.796 143.992 74.796H140.647C139.913 74.796 139.505 74.8164 139.077 74.8572C139.118 74.429 139.138 74.0211 139.138 73.3278V61.0721C139.138 60.3584 139.118 59.971 139.077 59.5427C139.505 59.5834 139.913 59.6039 140.647 59.6039H143.829Z" fill="#100F0D" stroke="black" stroke-width="0.25"></path><path d="M155.066 59.6038C155.005 60.1137 155.005 60.6235 155.005 61.1332V73.2666C155.005 73.7764 155.005 74.2862 155.066 74.796H154.475C154.536 74.2862 154.536 73.7764 154.536 73.2666V61.1332C154.536 60.6235 154.536 60.1137 154.475 59.6038H155.066Z" fill="#100F0D" stroke="black" stroke-width="0.25"></path><path d="M171.258 71.3701C170.951 71.9003 170.605 72.3898 170.279 72.7772C168.994 74.2863 167.465 75 165.405 75C161.082 75 158.451 72.0023 158.451 67.1082C158.451 62.4996 161.102 59.4 165.058 59.4C167.036 59.4 168.545 59.9302 169.687 61.0518C170.238 61.5819 170.686 62.2345 171.115 63.0094L170.585 63.3153C170.258 62.52 169.85 61.8674 169.32 61.3372C168.301 60.3176 166.873 59.8282 165.038 59.8282C161.347 59.8282 158.92 62.6627 158.92 67.1082C158.92 71.7984 161.347 74.5717 165.405 74.5717C167.281 74.5717 168.668 73.96 169.932 72.5325C170.238 72.1655 170.523 71.7169 170.87 71.1051L171.258 71.3701Z" fill="#100F0D" stroke="black" stroke-width="0.25"></path><path d="M181.164 68.3113L178.196 60.3882C178.157 60.2859 178.013 60.2857 177.974 60.388L174.986 68.3113H181.164ZM183.53 73.2666C183.714 73.7764 183.938 74.2862 184.183 74.796H183.53C183.428 74.2862 183.224 73.7764 183.041 73.2666L181.348 68.7395H174.822L173.13 73.2666C172.947 73.7764 172.763 74.2862 172.641 74.796H171.988C172.233 74.2862 172.457 73.7764 172.641 73.2666L177.188 61.1332C177.372 60.6235 177.596 60.1137 177.718 59.6038H178.452C178.575 60.1137 178.799 60.6235 178.983 61.1332L183.53 73.2666Z" fill="#100F0D" stroke="black" stroke-width="0.25"></path><path d="M194.175 74.3678C194.685 74.3678 195.194 74.3678 195.704 74.3066V74.8572C195.194 74.796 194.685 74.796 194.175 74.796H187.813C187.303 74.796 186.752 74.796 186.242 74.8572C186.304 74.3474 186.304 73.8375 186.304 73.3278V61.1741C186.304 60.6643 186.304 60.1544 186.242 59.6446H186.834C186.773 60.1544 186.773 60.6643 186.773 61.1741V74.3678H194.175Z" fill="#100F0D" stroke="black" stroke-width="0.25"></path><path d="M201.435 71.9006C201.843 72.5531 202.19 72.961 202.475 73.2261C203.413 74.0622 204.739 74.5312 206.187 74.5312C208.736 74.5312 210.347 73.1242 210.347 70.9218C210.347 69.0457 209.245 68.0465 206.268 67.2105C203.108 66.3336 201.905 65.212 201.905 63.1932C201.905 60.9296 203.617 59.441 206.288 59.441C207.165 59.441 207.981 59.6246 208.715 59.9916C209.327 60.2975 209.878 60.7257 210.428 61.2355L210.02 61.6434C209.572 61.0928 209.062 60.6646 208.47 60.3587C207.818 60.012 207.084 59.8489 206.268 59.8489C203.862 59.8489 202.353 61.1336 202.353 63.1932C202.353 65.0489 203.291 65.8849 206.554 66.8434C209.653 67.761 210.795 68.8418 210.795 70.9218C210.795 73.3485 208.94 74.9594 206.146 74.9594C204.555 74.9594 203.189 74.4701 202.17 73.5524C201.741 73.1853 201.374 72.7367 201.048 72.2269L201.435 71.9006Z" fill="#100F0D" stroke="black" stroke-width="0.25"></path><path d="M218.096 67.5976C221.074 67.5976 222.787 66.2109 222.787 63.7027C222.787 61.4188 221.176 60.0321 218.606 60.0321H214.406V67.5976H218.096ZM218.708 59.6038C221.502 59.6038 223.256 61.174 223.256 63.6822C223.256 66.374 221.298 68.0258 218.096 68.0258H214.406V73.2666C214.406 73.7764 214.406 74.2862 214.467 74.796H213.875C213.936 74.2862 213.936 73.7764 213.936 73.2666V61.0721C213.936 60.3583 213.916 59.9709 213.875 59.5426C214.222 59.5834 214.548 59.6038 215.119 59.6038H218.708Z" fill="#100F0D" stroke="black" stroke-width="0.25"></path><path d="M231.835 68.3113L228.959 60.6348C228.889 60.4468 228.623 60.4465 228.552 60.6343L225.657 68.3113H231.835ZM234.201 73.2666C234.384 73.7764 234.609 74.2862 234.854 74.796H234.201C234.099 74.2862 233.895 73.7764 233.712 73.2666L232.019 68.7395H225.493L223.801 73.2666C223.617 73.7764 223.434 74.2862 223.312 74.796H222.659C222.904 74.2862 223.128 73.7764 223.312 73.2666L227.859 61.1332C228.042 60.6235 228.267 60.1137 228.389 59.6038H229.123C229.245 60.1137 229.47 60.6235 229.654 61.1332L234.201 73.2666Z" fill="#100F0D" stroke="black" stroke-width="0.25"></path></svg>