<?xml version="1.0" encoding="UTF-8"?> <svg xmlns="http://www.w3.org/2000/svg" xmlns:xlink="http://www.w3.org/1999/xlink" id="Layer_2" data-name="Layer 2" viewBox="0 0 880 180.03"><defs><style> .cls-1 { fill: url(#linear-gradient-3); } .cls-2 { fill: url(#linear-gradient-2); } .cls-3 { fill: url(#linear-gradient); } </style><linearGradient id="linear-gradient" x1="-145.71" y1="30.95" x2="734.3" y2="30.95" gradientUnits="userSpaceOnUse"><stop offset="0" stop-color="#986733"></stop><stop offset=".43" stop-color="#fce89d"></stop><stop offset="1" stop-color="#986733"></stop></linearGradient><linearGradient id="linear-gradient-2" x1="524.75" y1="124.75" x2="530.11" y2="124.75" xlink:href="#linear-gradient"></linearGradient><linearGradient id="linear-gradient-3" x1="117.66" y1="137.17" x2="693.97" y2="137.17" xlink:href="#linear-gradient"></linearGradient></defs><g id="Layer_1-2" data-name="Layer 1"><g><g><g><path class="cls-3" d="M38.84,2.84h2.2c2.09,0,3.78,1.69,3.78,3.78v26.65H11.75V6.8c0-2.09,1.69-3.78,3.78-3.78h2.44v-1H0v1h1.96c2.09,0,3.78,1.69,3.78,3.78v49.41c0,2.09-1.69,3.78-3.78,3.78H0v1h5.75s6,.01,6,.01h0s6.22-.01,6.22-.01v-1h-2.44c-2.09,0-3.78-1.69-3.78-3.78v-21.44h33.08v21.44c0,2.09-1.69,3.78-3.78,3.78h-2.2v1h17.97v-1h-2.2c-2.09,0-3.78-1.69-3.78-3.78V6.62c0-2.09,1.69-3.78,3.78-3.78h2.2v-1h-17.97v1Z"></path><path class="cls-3" d="M38.84,2.84h2.2c2.09,0,3.78,1.69,3.78,3.78v26.65H11.75V6.8c0-2.09,1.69-3.78,3.78-3.78h2.44v-1H0v1h1.96c2.09,0,3.78,1.69,3.78,3.78v49.41c0,2.09-1.69,3.78-3.78,3.78H0v1h5.75s6,.01,6,.01h0s6.22-.01,6.22-.01v-1h-2.44c-2.09,0-3.78-1.69-3.78-3.78v-21.44h33.08v21.44c0,2.09-1.69,3.78-3.78,3.78h-2.2v1h17.97v-1h-2.2c-2.09,0-3.78-1.69-3.78-3.78V6.62c0-2.09,1.69-3.78,3.78-3.78h2.2v-1h-17.97v1Z"></path><path class="cls-3" d="M38.84,2.84h2.2c2.09,0,3.78,1.69,3.78,3.78v26.65H11.75V6.8c0-2.09,1.69-3.78,3.78-3.78h2.44v-1H0v1h1.96c2.09,0,3.78,1.69,3.78,3.78v49.41c0,2.09-1.69,3.78-3.78,3.78H0v1h5.75s6,.01,6,.01h0s6.22-.01,6.22-.01v-1h-2.44c-2.09,0-3.78-1.69-3.78-3.78v-21.44h33.08v21.44c0,2.09-1.69,3.78-3.78,3.78h-2.2v1h17.97v-1h-2.2c-2.09,0-3.78-1.69-3.78-3.78V6.62c0-2.09,1.69-3.78,3.78-3.78h2.2v-1h-17.97v1Z"></path></g><g><path class="cls-3" d="M396.03,2.84h2.2c2.09,0,3.78,1.69,3.78,3.78v26.65h-33.08V6.8c0-2.09,1.69-3.78,3.78-3.78h2.44v-1h-17.97v1h1.96c2.09,0,3.78,1.69,3.78,3.78v49.41c0,2.09-1.69,3.78-3.78,3.78h-1.96v1h5.75s6,.01,6,.01h0s6.22-.01,6.22-.01v-1h-2.44c-2.09,0-3.78-1.69-3.78-3.78v-21.44h33.08v21.44c0,2.09-1.69,3.78-3.78,3.78h-2.2v1h17.97v-1h-2.2c-2.09,0-3.78-1.69-3.78-3.78V6.62c0-2.09,1.69-3.78,3.78-3.78h2.2v-1h-17.97v1Z"></path><path class="cls-3" d="M396.03,2.84h2.2c2.09,0,3.78,1.69,3.78,3.78v26.65h-33.08V6.8c0-2.09,1.69-3.78,3.78-3.78h2.44v-1h-17.97v1h1.96c2.09,0,3.78,1.69,3.78,3.78v49.41c0,2.09-1.69,3.78-3.78,3.78h-1.96v1h5.75s6,.01,6,.01h0s6.22-.01,6.22-.01v-1h-2.44c-2.09,0-3.78-1.69-3.78-3.78v-21.44h33.08v21.44c0,2.09-1.69,3.78-3.78,3.78h-2.2v1h17.97v-1h-2.2c-2.09,0-3.78-1.69-3.78-3.78V6.62c0-2.09,1.69-3.78,3.78-3.78h2.2v-1h-17.97v1Z"></path><path class="cls-3" d="M396.03,2.84h2.2c2.09,0,3.78,1.69,3.78,3.78v26.65h-33.08V6.8c0-2.09,1.69-3.78,3.78-3.78h2.44v-1h-17.97v1h1.96c2.09,0,3.78,1.69,3.78,3.78v49.41c0,2.09-1.69,3.78-3.78,3.78h-1.96v1h5.75s6,.01,6,.01h0s6.22-.01,6.22-.01v-1h-2.44c-2.09,0-3.78-1.69-3.78-3.78v-21.44h33.08v21.44c0,2.09-1.69,3.78-3.78,3.78h-2.2v1h17.97v-1h-2.2c-2.09,0-3.78-1.69-3.78-3.78V6.62c0-2.09,1.69-3.78,3.78-3.78h2.2v-1h-17.97v1Z"></path></g><g><path class="cls-3" d="M480.94,3.15c2.48,0,3.96,2.76,2.6,4.83l-16.66,25.26-17.81-27.3c-.78-1.2.08-2.79,1.51-2.79h3.26v-1h-7.25s-7.16,0-7.16,0h0s-5.17,0-5.17,0v1h2.89c1.83,0,3.54.92,4.54,2.46l19.88,30.46h0v20.58c0,2.11-1.71,3.81-3.81,3.81h-1.97v1h17.57v-1h-1.97c-2.11,0-3.81-1.71-3.81-3.81v-21.74l18.03-27.33c1.83-2.77,4.92-4.43,8.23-4.43h.24v-1h-13.14v1Z"></path><path class="cls-3" d="M480.94,3.15c2.48,0,3.96,2.76,2.6,4.83l-16.66,25.26-17.81-27.3c-.78-1.2.08-2.79,1.51-2.79h3.26v-1h-7.25s-7.16,0-7.16,0h0s-5.17,0-5.17,0v1h2.89c1.83,0,3.54.92,4.54,2.46l19.88,30.46h0v20.58c0,2.11-1.71,3.81-3.81,3.81h-1.97v1h17.57v-1h-1.97c-2.11,0-3.81-1.71-3.81-3.81v-21.74l18.03-27.33c1.83-2.77,4.92-4.43,8.23-4.43h.24v-1h-13.14v1Z"></path><path class="cls-3" d="M480.94,3.15c2.48,0,3.96,2.76,2.6,4.83l-16.66,25.26-17.81-27.3c-.78-1.2.08-2.79,1.51-2.79h3.26v-1h-7.25s-7.16,0-7.16,0h0s-5.17,0-5.17,0v1h2.89c1.83,0,3.54.92,4.54,2.46l19.88,30.46h0v20.58c0,2.11-1.71,3.81-3.81,3.81h-1.97v1h17.57v-1h-1.97c-2.11,0-3.81-1.71-3.81-3.81v-21.74l18.03-27.33c1.83-2.77,4.92-4.43,8.23-4.43h.24v-1h-13.14v1Z"></path></g><g><path class="cls-3" d="M275.85,48.57c-.64,6.49-6.09,11.43-12.6,11.43h-20.94V6.76c0-2.31,1.87-4.18,4.18-4.18h1.6v-1h-17.57v1h1.6c2.31,0,4.18,1.87,4.18,4.18v49.06c0,2.31-1.87,4.18-4.18,4.18h-1.8v1h45.31s1.76-18,1.76-18l-1-.1-.55,5.66Z"></path><path class="cls-3" d="M275.85,48.57c-.64,6.49-6.09,11.43-12.6,11.43h-20.94V6.76c0-2.31,1.87-4.18,4.18-4.18h1.6v-1h-17.57v1h1.6c2.31,0,4.18,1.87,4.18,4.18v49.06c0,2.31-1.87,4.18-4.18,4.18h-1.8v1h45.31s1.76-18,1.76-18l-1-.1-.55,5.66Z"></path><path class="cls-3" d="M275.85,48.57c-.64,6.49-6.09,11.43-12.6,11.43h-20.94V6.76c0-2.31,1.87-4.18,4.18-4.18h1.6v-1h-17.57v1h1.6c2.31,0,4.18,1.87,4.18,4.18v49.06c0,2.31-1.87,4.18-4.18,4.18h-1.8v1h45.31s1.76-18,1.76-18l-1-.1-.55,5.66Z"></path></g><g><path class="cls-3" d="M681.16,48.57c-.64,6.49-6.09,11.43-12.6,11.43h-20.94V6.76c0-2.31,1.87-4.18,4.18-4.18h1.6v-1h-17.57v1h1.6c2.31,0,4.18,1.87,4.18,4.18v49.06c0,2.31-1.87,4.18-4.18,4.18h-1.8v1h45.31s1.76-18,1.76-18l-1-.1-.55,5.66Z"></path><path class="cls-3" d="M681.16,48.57c-.64,6.49-6.09,11.43-12.6,11.43h-20.94V6.76c0-2.31,1.87-4.18,4.18-4.18h1.6v-1h-17.57v1h1.6c2.31,0,4.18,1.87,4.18,4.18v49.06c0,2.31-1.87,4.18-4.18,4.18h-1.8v1h45.31s1.76-18,1.76-18l-1-.1-.55,5.66Z"></path><path class="cls-3" d="M681.16,48.57c-.64,6.49-6.09,11.43-12.6,11.43h-20.94V6.76c0-2.31,1.87-4.18,4.18-4.18h1.6v-1h-17.57v1h1.6c2.31,0,4.18,1.87,4.18,4.18v49.06c0,2.31-1.87,4.18-4.18,4.18h-1.8v1h45.31s1.76-18,1.76-18l-1-.1-.55,5.66Z"></path></g><g><path class="cls-3" d="M199.73,54.52L177.83,2.84l-.21-.5-.21-.5h-6.94v1h.84l2.28,5.38-20.1,46.84c-1.29,3-4.24,4.94-7.5,4.94v1h12.12v-1c-2.67,0-4.48-2.74-3.42-5.19l4.69-10.94h29.32l5.5,12.97c.64,1.5-.46,3.16-2.09,3.16h-1.69v1h17.57v-1c-3.6,0-6.85-2.15-8.26-5.47ZM160.03,42.36h0l14.1-32.86h0s13.94,32.86,13.94,32.86h-28.04Z"></path><path class="cls-3" d="M199.73,54.52L177.83,2.84l-.21-.5-.21-.5h-6.94v1h.84l2.28,5.38-20.1,46.84c-1.29,3-4.24,4.94-7.5,4.94v1h12.12v-1c-2.67,0-4.48-2.74-3.42-5.19l4.69-10.94h29.32l5.5,12.97c.64,1.5-.46,3.16-2.09,3.16h-1.69v1h17.57v-1c-3.6,0-6.85-2.15-8.26-5.47ZM160.03,42.36h0l14.1-32.86h0s13.94,32.86,13.94,32.86h-28.04Z"></path><path class="cls-3" d="M199.73,54.52L177.83,2.84l-.21-.5-.21-.5h-6.94v1h.84l2.28,5.38-20.1,46.84c-1.29,3-4.24,4.94-7.5,4.94v1h12.12v-1c-2.67,0-4.48-2.74-3.42-5.19l4.69-10.94h29.32l5.5,12.97c.64,1.5-.46,3.16-2.09,3.16h-1.69v1h17.57v-1c-3.6,0-6.85-2.15-8.26-5.47ZM160.03,42.36h0l14.1-32.86h0s13.94,32.86,13.94,32.86h-28.04Z"></path></g><g><path class="cls-3" d="M122.21,48.49c-.64,6.53-6.13,11.5-12.69,11.5h-20.86v-30.13h21.41c2.11,0,3.82,1.71,3.82,3.82v8.04h1v-24.8h-1v8.13c0,2.11-1.71,3.82-3.82,3.82h-21.41V3.02h20.76c6.68,0,12.22,5.16,12.71,11.82l.31,4.2,1-.07-1.39-18.97-1,.07.14,1.95h-44.52v1h2.2c2.09,0,3.78,1.69,3.78,3.78v49.41c0,2.09-1.69,3.78-3.78,3.78h-2.2v1h45.31s1.76-18,1.76-18l-1-.1-.55,5.59Z"></path><path class="cls-3" d="M122.21,48.49c-.64,6.53-6.13,11.5-12.69,11.5h-20.86v-30.13h21.41c2.11,0,3.82,1.71,3.82,3.82v8.04h1v-24.8h-1v8.13c0,2.11-1.71,3.82-3.82,3.82h-21.41V3.02h20.76c6.68,0,12.22,5.16,12.71,11.82l.31,4.2,1-.07-1.39-18.97-1,.07.14,1.95h-44.52v1h2.2c2.09,0,3.78,1.69,3.78,3.78v49.41c0,2.09-1.69,3.78-3.78,3.78h-2.2v1h45.31s1.76-18,1.76-18l-1-.1-.55,5.59Z"></path><path class="cls-3" d="M122.21,48.49c-.64,6.53-6.13,11.5-12.69,11.5h-20.86v-30.13h21.41c2.11,0,3.82,1.71,3.82,3.82v8.04h1v-24.8h-1v8.13c0,2.11-1.71,3.82-3.82,3.82h-21.41V3.02h20.76c6.68,0,12.22,5.16,12.71,11.82l.31,4.2,1-.07-1.39-18.97-1,.07.14,1.95h-44.52v1h2.2c2.09,0,3.78,1.69,3.78,3.78v49.41c0,2.09-1.69,3.78-3.78,3.78h-2.2v1h45.31s1.76-18,1.76-18l-1-.1-.55,5.59Z"></path></g><g><path class="cls-3" d="M334.54.07l.11,1.51h-44.11l.11-1.51-1-.07-1.39,18.97,1,.07.24-3.26c.54-7.44,6.74-13.2,14.21-13.2h5.68v53.99c0,2.15-1.74,3.9-3.9,3.9h-1.89v1h17.57v-1h-1.89c-2.15,0-3.9-1.74-3.9-3.9V2.58h6.1c7.46,0,13.66,5.76,14.21,13.2l.24,3.26,1-.07-1.39-18.97-1,.07Z"></path><path class="cls-3" d="M334.54.07l.11,1.51h-44.11l.11-1.51-1-.07-1.39,18.97,1,.07.24-3.26c.54-7.44,6.74-13.2,14.21-13.2h5.68v53.99c0,2.15-1.74,3.9-3.9,3.9h-1.89v1h17.57v-1h-1.89c-2.15,0-3.9-1.74-3.9-3.9V2.58h6.1c7.46,0,13.66,5.76,14.21,13.2l.24,3.26,1-.07-1.39-18.97-1,.07Z"></path><path class="cls-3" d="M334.54.07l.11,1.51h-44.11l.11-1.51-1-.07-1.39,18.97,1,.07.24-3.26c.54-7.44,6.74-13.2,14.21-13.2h5.68v53.99c0,2.15-1.74,3.9-3.9,3.9h-1.89v1h17.57v-1h-1.89c-2.15,0-3.9-1.74-3.9-3.9V2.58h6.1c7.46,0,13.66,5.76,14.21,13.2l.24,3.26,1-.07-1.39-18.97-1,.07Z"></path></g><g><path class="cls-3" d="M734.93.8c-17.15,0-31.05,13.64-31.05,30.48s13.9,30.48,31.05,30.48,31.05-13.64,31.05-30.48-13.9-30.48-31.05-30.48ZM742.88,58.76c-12.98,3.76-27.07-5.5-31.46-20.68-4.39-15.18,2.57-30.53,15.56-34.28,12.98-3.76,27.06,5.5,31.46,20.68,4.39,15.17-2.58,30.52-15.56,34.28Z"></path><path class="cls-3" d="M734.93.8c-17.15,0-31.05,13.64-31.05,30.48s13.9,30.48,31.05,30.48,31.05-13.64,31.05-30.48-13.9-30.48-31.05-30.48ZM742.88,58.76c-12.98,3.76-27.07-5.5-31.46-20.68-4.39-15.18,2.57-30.53,15.56-34.28,12.98-3.76,27.06,5.5,31.46,20.68,4.39,15.17-2.58,30.52-15.56,34.28Z"></path><path class="cls-3" d="M734.93.8c-17.15,0-31.05,13.64-31.05,30.48s13.9,30.48,31.05,30.48,31.05-13.64,31.05-30.48-13.9-30.48-31.05-30.48ZM742.88,58.76c-12.98,3.76-27.07-5.5-31.46-20.68-4.39-15.18,2.57-30.53,15.56-34.28,12.98-3.76,27.06,5.5,31.46,20.68,4.39,15.17-2.58,30.52-15.56,34.28Z"></path></g><g><path class="cls-3" d="M875.91,1.88h-7.73v1h1.1c2.15,0,3.59,2.21,2.73,4.17l-20.25,46.35-17.8-41.26-.82-1.88-1.39-3.22c-.85-1.97.6-4.16,2.74-4.16h1.45v-1h-17.4v1c2.97,0,5.65,1.77,6.83,4.49l4.49,10.42h0s-15.24,35.01-15.24,35.01l-19.82-45.75c-.85-1.97.59-4.17,2.74-4.17v-1h-16.37v1h.41c2.96,0,5.64,1.76,6.82,4.48l23.12,53.39v.3h7.06v-1h-.82l-2.32-5.36,15.24-35.01,17.83,41.32v.05h7.06v-1h-.93l-2.06-4.76,21.34-48.88c.94-2.15,3.06-3.53,5.4-3.53h.68v-1h-4.09Z"></path><path class="cls-3" d="M875.91,1.88h-7.73v1h1.1c2.15,0,3.59,2.21,2.73,4.17l-20.25,46.35-17.8-41.26-.82-1.88-1.39-3.22c-.85-1.97.6-4.16,2.74-4.16h1.45v-1h-17.4v1c2.97,0,5.65,1.77,6.83,4.49l4.49,10.42h0s-15.24,35.01-15.24,35.01l-19.82-45.75c-.85-1.97.59-4.17,2.74-4.17v-1h-16.37v1h.41c2.96,0,5.64,1.76,6.82,4.48l23.12,53.39v.3h7.06v-1h-.82l-2.32-5.36,15.24-35.01,17.83,41.32v.05h7.06v-1h-.93l-2.06-4.76,21.34-48.88c.94-2.15,3.06-3.53,5.4-3.53h.68v-1h-4.09Z"></path><path class="cls-3" d="M875.91,1.88h-7.73v1h1.1c2.15,0,3.59,2.21,2.73,4.17l-20.25,46.35-17.8-41.26-.82-1.88-1.39-3.22c-.85-1.97.6-4.16,2.74-4.16h1.45v-1h-17.4v1c2.97,0,5.65,1.77,6.83,4.49l4.49,10.42h0s-15.24,35.01-15.24,35.01l-19.82-45.75c-.85-1.97.59-4.17,2.74-4.17v-1h-16.37v1h.41c2.96,0,5.64,1.76,6.82,4.48l23.12,53.39v.3h7.06v-1h-.82l-2.32-5.36,15.24-35.01,17.83,41.32v.05h7.06v-1h-.93l-2.06-4.76,21.34-48.88c.94-2.15,3.06-3.53,5.4-3.53h.68v-1h-4.09Z"></path></g><g><path class="cls-3" d="M585.6,35.1h14.54c1.55,0,2.8,1.24,2.81,2.79.02,2.34.03,5,.04,7.69.01,3.06-1.26,5.98-3.5,8.07-3,2.79-8.03,5.88-15.49,5.67-13.36-.36-24.24-12.79-24.24-28.52s10.87-28.52,24.24-28.52c8.34,0,16.86,6.69,20.26,15.9l.29.79.21,4.01,1-.05-1.13-21.7-1,.05c.14,2.74-2.79,4.52-5.18,3.18-4.59-2.58-9.49-3.7-15.63-3.7-16.18,0-29.35,13.71-29.35,30.56s13.17,30.56,29.35,30.56c7.43,0,14.76-3.06,20.18-8.39,0,4.39-.01,7.81-.05,8.39,0-.07,6.97-6,6.97-6,.05-2.17,0-5.29,0-17.96,0-1.55,1.26-2.82,2.81-2.82h2.22v-1h-29.37v1Z"></path><path class="cls-3" d="M585.6,35.1h14.54c1.55,0,2.8,1.24,2.81,2.79.02,2.34.03,5,.04,7.69.01,3.06-1.26,5.98-3.5,8.07-3,2.79-8.03,5.88-15.49,5.67-13.36-.36-24.24-12.79-24.24-28.52s10.87-28.52,24.24-28.52c8.34,0,16.86,6.69,20.26,15.9l.29.79.21,4.01,1-.05-1.13-21.7-1,.05c.14,2.74-2.79,4.52-5.18,3.18-4.59-2.58-9.49-3.7-15.63-3.7-16.18,0-29.35,13.71-29.35,30.56s13.17,30.56,29.35,30.56c7.43,0,14.76-3.06,20.18-8.39,0,4.39-.01,7.81-.05,8.39,0-.07,6.97-6,6.97-6,.05-2.17,0-5.29,0-17.96,0-1.55,1.26-2.82,2.81-2.82h2.22v-1h-29.37v1Z"></path><path class="cls-3" d="M585.6,35.1h14.54c1.55,0,2.8,1.24,2.81,2.79.02,2.34.03,5,.04,7.69.01,3.06-1.26,5.98-3.5,8.07-3,2.79-8.03,5.88-15.49,5.67-13.36-.36-24.24-12.79-24.24-28.52s10.87-28.52,24.24-28.52c8.34,0,16.86,6.69,20.26,15.9l.29.79.21,4.01,1-.05-1.13-21.7-1,.05c.14,2.74-2.79,4.52-5.18,3.18-4.59-2.58-9.49-3.7-15.63-3.7-16.18,0-29.35,13.71-29.35,30.56s13.17,30.56,29.35,30.56c7.43,0,14.76-3.06,20.18-8.39,0,4.39-.01,7.81-.05,8.39,0-.07,6.97-6,6.97-6,.05-2.17,0-5.29,0-17.96,0-1.55,1.26-2.82,2.81-2.82h2.22v-1h-29.37v1Z"></path></g></g><g><path class="cls-2" d="M527.43,127.44c1.48,0,2.68-1.2,2.68-2.68s-1.2-2.68-2.68-2.68-2.68,1.2-2.68,2.68,1.2,2.68,2.68,2.68Z"></path><path class="cls-1" d="M687.83,131.24c-6.82-4.86-12.57-3.11-19.75-.37-20.69,7.91-42.5,24.37-65.33,21.52-4.62-.58-.05-2.51.58-4.53,1.48-4.79-7.18-6.34-6.67-8.36,4.69-2.6,9.78-5.26,12.11-10.39-2.83-4.55-10.64-.92-13.85,1.73-3.26,2.68-4.46,8.12-5.5,8.89-1.47,1.09-13.29,4.88-16.06,5.83-5.5,1.88-12.47,4.38-18.05,5.56-1.29.27-4.38,1.19-5.34.5-3.61-2.6,7.23-14.63,10.12-15.86,1.21.77.5.95.47,1.59-.1,1.95-1,4.01-.11,5.81l4.57-.18c.73-.51,1.21-8.51.43-9.43-7.28-2.81-10.69,2.48-15.58,5.79-1.19.81-2.78,1.53-4.09,2.24-3.72,2.02-21.18,10.72-24.26,10.31-2.21-.3-1.1-2.49-.57-4.04,1.63-4.78,11.32-15.38,1.15-15.01-4.69.17-5.74,4.62-8.66,6.93-3.4,2.69-18.53,9.71-22.94,11.04-2.64.79-6.46,2.61-7.04-1.22-.9-5.94,7.76-18.63,10.39-24.22,2.72-.47,6.93-1.11,9.77-1.17,2.76-.05,5.11.38,7.8.59.54-2.2-1.26-2.19-3.14-2.33-4.11-.29-8.35.06-12.41.6l1.73-7.48-4.86-.04c-1.97,5.08-1.85,8.35-8.12,8.67-3.56.18-14.72-.73-14.12-5.73l-2.18.07c-2.15,3.62,3.45,6.45,6.53,6.82,3.48.42,8.41,0,12.09,0,.63,0,.81.99.62,1.75-.16.65-5.81,11.4-6.26,11.89-.8.87-18.33,8.45-20.84,9.39-2.08.79-11.46,4.3-12.89,3.38-1.34-3.36.79-7.17,2.35-10.17l12.49-.19c5.44-12.01-8.6-9.48-14.34-4.26-6.58,5.98-12.33,9.18-20.81,12.59-2.61,1.05-12.03,5.43-11.42-.43.45-4.36,14.35-17.95,1.47-15.85-4.7.77-11.43,11.44-14.98,14.96-.88.88-2.6,2.14-3.77,2.56,1.37-4.72,3.26-9.3,5.19-13.82,3.08-7.23,14.09-26.61,14.38-32.9.13-2.9-4.85-2.29-5.48-1.39-.2.28-1.4,5.2-1.99,6.65-4.29,10.46-9.4,20.69-13.81,31.11-5.08,2.73-10.25,5.8-15.57,8.04-4.15,1.74-14.07,6.88-12.52-1.58.53-2.89,9.21-21.54,11.19-22.21,3.06.27,6.11-.61,9.09-.7,2.08-.06,5.14.74,6.38.62,1.94-.19,2.1-2.05-.56-2.35-4.43-.5-9.7.26-14.14.6,2.18-4.26,4.76-8.43-2.55-7.51-1.73,5.14-2,8.28-8.11,8.66-2.61.16-11.54-1.1-13.27-2.84-.74-.74-.72-1.77-1.15-2.31-1.98-2.49-3.52,1.72-1.15,4.03.57.56,5.18,2.27,5.79,2.27h12.96l-7.08,14.22c-9.54,4.14-18.78,10.81-29.2,12.26,7.24-5.48,1.85-8.42-3.44-11.8,0-1.03,14.44-7.66,12.01-12.31-7.18-2.48-17.54,3.06-17.9,11.04l-.79.94c-10.89,4.07-21.32,11.05-33.07,12.14-.71-2.01,1.55-9.69,3.26-10.27,6.44-.54,15.22,2.93,12.82-7.25-8.12-4.78-15.84,3.52-22.61,7.26-2.98,1.65-25.62,12.59-26.88,11.41l13.14-56.3c.17-3.27-4.03-2.93-5.34-.67-.93,1.61-1.55,7.19-2.62,10.05-.98,2.61-2.64,5.63-3.93,8.16-6.52,12.78-15.36,25.52-25.28,35.81-23.68-5.6-44.82-19.71-68.45-25.78-10.08-2.59-26.53-5.01-36.25-1.21-9.18,3.58-17.43,14.68-12.4,24.52.45.87,3.05,3.97,3.78,4.29,2.32,1-1.37-4.28-1.56-4.77-3.82-9.66,3.89-19.1,12.9-21.88,18.43-5.68,44.07,5.22,61.23,12.26,12.79,5.25,25.18,12.29,38.86,14.99-6.72,7.51-13.82,14.82-21.61,21.29-.64.53-7.72,4.8-6.61,5.77,3.38.5,5.68-2.39,8.07-4.31,7.96-6.39,15.01-13.8,21.89-21.31l17.84,2.01c-1.94,6.38-3.62,13.87-7.23,19.54-.91,1.42-4.12,2.81-1.65,4.58,5.44-.64,8.32-6.95,10.3-11.47,1.82-4.15,2.69-8.59,4.59-12.68,3.44-1.33,6.97-2.54,10.32-4.08,5.65-2.6,14.26-7.99,19.67-9.7.38-.12.97-.12.85.28-7.19,13.12,1.82,12.69,11.83,9.53,8.58-2.71,16.8-7.81,25.33-10.77,2.23,2.68,6.8,3.48,6.58,7.53-1.81,2.3-3.55-1.54-6.05-1.93-6.94-1.09-10.41,5.89-4.54,6.85,4.72.77,10.98-.74,15.96-.1l25.18-11.38c.41.5-4.45,10.02,1.59,11.36,8.99,2,20.34-6.8,28.65-9.64,1.36,0-3.93,9.47-.86,10.08,5.91,2.93,13.34-9.72,16.69-13.26.63-.66,5.72-5.57,6.35-4.88-.03,4.42-11.28,14.94-3.6,17.71,8.3,2.99,21.47-6.69,29.23-9.66-.69,2.56-2.3,5.28-1.13,8.05,1.82,4.3,13.91.09,17.27-1.14,6.96-2.53,13.66-6.23,20.43-9.22-1.87,7.4-3.04,12.96,6.65,12.11,3.7-.32,27.72-11.11,29.64-13.54,1.42-1.8,1.83-5.17,5.17-5.48,2.46,2.75-16.45,22.82,2.89,18.72,6.95-1.47,15.19-7.82,22.16-10.09-.17,2.05-2.15,3.56-2.48,5.62-1.44,9.13,16.2,2.94,20.6,1.56,8.81-2.76,17.41-6.52,26.24-9.28,2.08,2.05,7.58,3.86,6.58,7.53l-1.1.62c-3.4-3.52-12.01-3.93-12.03,2.18.75,2.73,7.12,2.3,9.45,2.17,1.56-.09,3.22-1.14,3.88-1.05.99.13,3.75,1.79,5.35,2.13,19.35,4.05,46.37-13.44,64.36-20.79,6.65-2.72,11.33-5.27,18.43-1.52,3.97,2.1,5.43,5.59,8.45,8.53.02-3.63-3.27-7.64-6.14-9.69ZM457.55,135.17c1.86,1.35.39,3.07-.39,4.51l-5.07-.76,5.46-3.75ZM304.66,135.18l-.64,4.54-5.11-.51c.21-1.3,5.17-4.67,5.76-4.02ZM254.86,153.03c-1.8,2.15-12.93-1.32-15.85-1.74l17.52-24.22,7.81-13.77-9.49,39.74ZM338.35,130.57c1.31-.94,3.64-2.68,4.89-.86.36,1.7-9.2,8.4-9.78,7.76-1.01-1.1,3.88-6.17,4.89-6.9ZM323.12,151.26c.37-4.64,5.66-2.57,8.03-.25.03,1.41-6.81.98-8.03.25ZM596.07,137.47c-.85-.84,3.67-5.83,4.65-6.57.74-.55,4.75-3.24,5.14-1.19.45,2.37-9.14,8.39-9.79,7.76ZM589.58,152.32c-.59-.59-4.38-.62-3.87-1.88,1.33-3.27,7.59-1.93,8.05,1.43l-4.19.46Z"></path></g></g></g></svg> 