<svg width="239" height="100" viewBox="0 0 239 100" fill="none" xmlns="http://www.w3.org/2000/svg">
<g clip-path="url(#clip0_6181_6384)">
<path d="M118.788 0C118.79 0.0087955 118.788 0.0207894 118.793 0.0263865C118.978 0.211092 119.015 0.452568 119.052 0.693245C119.136 1.22257 119.221 1.7511 119.301 2.28043C119.342 2.5499 119.38 2.82016 119.404 3.09122C119.427 3.34629 119.399 3.59896 119.32 3.84523C119.273 3.99476 119.187 4.1003 119.027 4.13468C118.863 4.16987 118.71 4.0939 118.661 3.93159C118.633 3.83724 118.624 3.73569 118.618 3.63654C118.581 3.07523 118.56 2.51231 118.509 1.9518C118.479 1.61677 118.448 1.28334 118.449 0.946716C118.45 0.734024 118.504 0.533327 118.547 0.329431C118.573 0.202296 118.656 0.102348 118.733 0.000799591C118.752 0.000799591 118.77 0.000799591 118.788 0.000799591L118.788 0Z" fill="#FEFEFE"/>
<path d="M141.934 32.7631C141.815 32.807 141.75 32.8846 141.678 32.9494C141.123 33.4507 140.55 33.9305 139.936 34.3583C139.208 34.8644 138.445 35.305 137.615 35.6248C137.146 35.8055 136.664 35.9406 136.167 36.0102C135.715 36.0734 135.253 36.0814 134.803 36.0166C133.852 35.8799 133.008 35.4841 132.277 34.8636C131.425 34.1424 130.812 33.25 130.4 32.2154C130.252 31.8427 130.122 31.4645 130.038 31.0719C130.03 31.0296 130.007 30.9904 129.982 30.928C129.919 30.9744 129.867 31.0056 129.823 31.0472C129.593 31.2678 129.367 31.4925 129.136 31.714C128.604 32.2257 128.033 32.6943 127.455 33.1533C127.169 33.3796 126.881 33.6034 126.589 33.8209C125.996 34.2599 125.339 34.5685 124.622 34.7381C123.839 34.9228 123.067 34.898 122.314 34.5933C121.697 34.3439 121.207 33.9337 120.808 33.4091C120.395 32.8662 120.122 32.2521 119.892 31.6165C119.699 31.0847 119.57 30.5354 119.453 29.9837C119.366 29.5743 119.31 29.1593 119.238 28.7467C119.197 28.5045 119.154 28.263 119.111 28.0207C119.067 27.7696 119.025 27.5186 118.982 27.2667C118.931 26.9708 118.88 26.675 118.831 26.3791C118.784 26.0921 118.741 25.8034 118.694 25.5164C118.689 25.4804 118.682 25.4452 118.669 25.4116C118.664 25.398 118.642 25.3797 118.63 25.3813C118.606 25.3837 118.575 25.3925 118.561 25.41C118.539 25.4372 118.527 25.4732 118.515 25.5076C118.218 26.3879 117.861 27.2443 117.447 28.0759C116.683 29.6103 115.735 31.0184 114.57 32.2801C114.191 32.6911 113.78 33.0621 113.321 33.3788C112.867 33.693 112.369 33.9209 111.821 34.0072C111.479 34.0616 111.132 34.0552 110.787 33.9904C109.889 33.8225 109.141 33.3788 108.474 32.7719C107.972 32.3145 107.554 31.7876 107.159 31.2407C107.124 31.1919 107.082 31.1479 107.025 31.0815C106.988 31.1607 106.96 31.2151 106.938 31.271C106.667 31.9547 106.275 32.5672 105.832 33.1493C105.445 33.6578 105.021 34.1352 104.565 34.5813C103.993 35.1419 103.413 35.696 102.778 36.1893C102.36 36.5148 101.916 36.7994 101.413 36.9809C100.891 37.1696 100.358 37.2344 99.8012 37.1688C99.166 37.0945 98.5757 36.9042 98.0206 36.5947C97.5551 36.3356 97.1431 36.0078 96.764 35.6352C96.6952 35.568 96.6424 35.4745 96.5192 35.4553C96.5064 35.4897 96.4848 35.5209 96.4832 35.5536C96.4704 35.8263 96.4656 36.099 96.4488 36.3716C96.4336 36.6171 96.4128 36.8618 96.3832 37.1056C96.3456 37.4127 96.3088 37.7205 96.2504 38.0236C96.1569 38.5153 96.0345 39.0007 95.8761 39.4764C95.6977 40.0122 95.4978 40.5391 95.2658 41.0532C94.9898 41.6625 94.6619 42.239 94.1995 42.7284C93.8708 43.0762 93.4948 43.3576 93.0277 43.5032C92.5358 43.6559 92.0582 43.6295 91.5895 43.4216C91.104 43.2065 90.7152 42.8667 90.3665 42.4749C90.2937 42.3933 90.2209 42.3102 90.1633 42.2182C90.0617 42.0567 90.0809 41.8528 90.2009 41.7097C90.3817 41.4938 90.6224 41.4714 90.8392 41.6849C90.956 41.8 91.0576 41.9304 91.1792 42.0391C91.4031 42.2414 91.6479 42.4085 91.9399 42.5101C92.2934 42.6324 92.6214 42.582 92.9389 42.4117C93.1413 42.303 93.3141 42.1567 93.4676 41.9855C93.7132 41.7121 93.8972 41.397 94.0764 41.0796C94.4211 40.4671 94.6923 39.8203 94.8898 39.147C95.0282 38.676 95.145 38.1979 95.2034 37.7077C95.2434 37.3735 95.3082 37.0417 95.3386 36.7067C95.3706 36.3532 95.3858 35.9974 95.3874 35.6424C95.3898 35.1594 95.3738 34.6765 95.365 34.1935C95.3602 33.9441 95.3034 33.713 95.1738 33.4923C94.7203 32.7207 94.3787 31.8987 94.0835 31.0543C93.8852 30.4866 93.7204 29.9093 93.5804 29.3264C93.4532 28.7955 93.3669 28.2558 93.2973 27.7145C93.2685 27.489 93.2597 27.2603 93.2453 27.0332C93.2405 26.9604 93.2405 26.8869 93.2501 26.8149C93.2733 26.6318 93.4005 26.4895 93.5716 26.4471C93.7676 26.3983 93.986 26.4623 94.082 26.6206C94.2043 26.8229 94.3203 27.0308 94.4203 27.2451C94.6323 27.6985 94.8386 28.1542 95.0338 28.6148C95.3074 29.2601 95.533 29.9229 95.7329 30.5946C95.8913 31.1271 96.0225 31.666 96.1393 32.2082C96.1929 32.4568 96.2281 32.7103 96.2712 32.9614C96.296 33.1053 96.316 33.2492 96.3472 33.3915C96.3608 33.4515 96.3928 33.5099 96.4256 33.5627C96.7384 34.068 97.0975 34.5366 97.5079 34.9667C97.8054 35.2786 98.1334 35.5504 98.4965 35.7815C98.8237 35.9894 99.1748 36.1421 99.5548 36.2053C99.8875 36.2605 100.225 36.2605 100.559 36.1853C101.28 36.0238 101.892 35.6576 102.456 35.197C102.817 34.9028 103.157 34.5861 103.482 34.2535C103.897 33.8297 104.32 33.4139 104.717 32.9758C105.172 32.4752 105.565 31.9283 105.859 31.3142C106.04 30.9336 106.164 30.5346 106.252 30.1244C106.283 29.9781 106.265 29.8446 106.187 29.7062C105.826 29.073 105.512 28.4165 105.243 27.7384C104.984 27.0868 104.767 26.4223 104.607 25.7387C104.517 25.3565 104.442 24.9727 104.392 24.5857C104.347 24.225 104.333 23.8596 104.329 23.4958C104.326 23.2623 104.508 23.0968 104.735 23.108C104.9 23.1168 105.058 23.1728 105.159 23.3207C105.216 23.4031 105.268 23.4886 105.317 23.5758C105.62 24.1155 105.915 24.6584 106.183 25.2165C106.511 25.8986 106.8 26.5942 106.988 27.3291C107.076 27.6729 107.175 28.0175 107.217 28.3677C107.266 28.7907 107.329 29.2185 107.266 29.6471C107.254 29.735 107.275 29.8086 107.321 29.8797C107.429 30.0485 107.531 30.2212 107.646 30.3851C108.034 30.9384 108.446 31.4717 108.937 31.9395C109.368 32.3505 109.845 32.6975 110.403 32.9222C110.831 33.0949 111.274 33.1221 111.719 33.0429C112.016 32.9902 112.288 32.851 112.551 32.7031C112.942 32.4832 113.295 32.2114 113.622 31.9051C114.055 31.4981 114.437 31.0456 114.779 30.561C115.671 29.2992 116.401 27.9495 117.001 26.5255C117.249 25.9378 117.474 25.3413 117.672 24.7368C117.859 24.1667 117.995 23.5798 118.174 23.0073C118.265 22.7162 118.255 22.434 118.205 22.1445C118.193 22.0726 118.181 22.0006 118.175 21.9278C118.117 21.3201 118.059 20.7132 118.004 20.1048C117.99 19.9416 117.987 19.7769 117.979 19.613C117.957 19.1852 117.935 18.7582 117.914 18.3305C117.909 18.2393 117.909 18.1482 117.908 18.057C117.908 17.5828 117.901 17.1087 117.909 16.6345C117.915 16.2979 117.941 15.9613 117.958 15.6255C117.962 15.5439 117.968 15.4615 117.97 15.38C117.978 14.997 118.008 14.6164 118.047 14.2358C118.083 13.8919 118.111 13.5473 118.151 13.2035C118.198 12.7965 118.244 12.3903 118.321 11.9865C118.392 11.6107 118.447 11.2325 118.516 10.8567C118.58 10.5073 118.648 10.1595 118.725 9.81243C118.796 9.49259 118.882 9.17675 118.961 8.85852C118.97 8.82334 118.973 8.78576 118.986 8.75217C119.049 8.60265 119.135 8.48271 119.317 8.46512C119.506 8.44673 119.658 8.5067 119.765 8.66502C119.827 8.75777 119.857 8.86172 119.864 8.97366C119.897 9.4734 119.93 9.97235 119.965 10.4721C119.987 10.7991 120.015 11.1262 120.038 11.4532C120.046 11.5803 120.044 11.7083 120.05 11.8354C120.072 12.3447 120.096 12.8541 120.119 13.3634C120.121 13.4178 120.121 13.473 120.121 13.5273C120.121 13.9103 120.123 14.2933 120.118 14.6763C120.112 15.1865 120.104 15.6966 120.089 16.206C120.077 16.6153 120.061 17.0255 120.031 17.4341C119.993 17.9603 119.942 18.4864 119.89 19.0117C119.855 19.3739 119.816 19.7361 119.77 20.0976C119.733 20.387 119.686 20.6749 119.639 20.9619C119.594 21.2402 119.55 21.5192 119.496 21.7959C119.43 22.1349 119.354 22.4723 119.281 22.8106C119.248 22.9617 119.206 23.1104 119.175 23.2615C119.165 23.3135 119.173 23.3703 119.18 23.4239C119.232 23.8213 119.282 24.2186 119.34 24.6144C119.377 24.8663 119.429 25.1166 119.47 25.3677C119.518 25.6547 119.558 25.9434 119.605 26.2304C119.64 26.4455 119.679 26.6606 119.719 26.8749C119.771 27.1515 119.823 27.429 119.879 27.7049C119.95 28.0527 120.024 28.3997 120.098 28.7467C120.173 29.0938 120.246 29.4408 120.325 29.787C120.501 30.5498 120.684 31.3102 121.022 32.0226C121.219 32.4368 121.452 32.827 121.768 33.1597C122.122 33.5299 122.544 33.773 123.053 33.8889C123.613 34.0168 124.14 33.9257 124.662 33.7442C125.219 33.5507 125.718 33.246 126.177 32.883C126.662 32.4992 127.138 32.1002 127.603 31.6908C128.074 31.275 128.532 30.8441 128.984 30.4067C129.233 30.166 129.454 29.8981 129.691 29.6455C129.811 29.5191 129.873 29.3776 129.864 29.2017C129.845 28.8259 129.891 28.4533 129.971 28.0895C130.139 27.3267 130.423 26.611 130.905 25.9841C131.116 25.7091 131.342 25.4468 131.613 25.2269C131.683 25.1694 131.753 25.1094 131.828 25.059C132.011 24.9351 132.225 24.9495 132.375 25.1054C132.497 25.2325 132.581 25.3837 132.573 25.5692C132.569 25.6331 132.569 25.6979 132.557 25.7595C132.477 26.1425 132.427 26.5303 132.318 26.9085C132.105 27.6473 131.81 28.3493 131.406 29.0034C131.238 29.2745 131.058 29.5375 130.874 29.7974C130.801 29.9013 130.768 29.9965 130.795 30.1252C130.866 30.4635 130.917 30.8041 131.014 31.1383C131.216 31.8371 131.525 32.4816 131.945 33.0725C132.335 33.6202 132.805 34.0856 133.376 34.4462C133.877 34.762 134.423 34.9595 135.006 35.0371C135.348 35.0827 135.696 35.0723 136.041 35.0051C136.999 34.8188 137.883 34.4422 138.728 33.9665C139.629 33.4587 140.452 32.8446 141.213 32.1442C141.488 31.8907 141.754 31.6293 142.003 31.351C142.078 31.267 142.127 31.1807 142.151 31.0671C142.223 30.7201 142.298 30.3723 142.394 30.0317C142.589 29.344 142.865 28.6924 143.307 28.1215C143.653 27.6737 144.08 27.3259 144.597 27.094C144.639 27.0756 144.683 27.0644 144.726 27.05C144.928 26.982 145.101 27.0324 145.232 27.1971C145.365 27.3658 145.408 27.5465 145.341 27.7592C145.046 28.7076 144.589 29.5735 144.008 30.3739C143.799 30.6609 143.577 30.9392 143.354 31.2159C143.259 31.3342 143.208 31.4557 143.195 31.6101C143.153 32.1274 143.092 32.6431 143.048 33.1597C143.026 33.4131 143.018 33.669 143.017 33.9241C143.016 34.5078 143.015 35.0907 143.029 35.6744C143.035 35.9646 143.072 36.2541 143.099 36.5435C143.133 36.9153 143.153 37.2896 143.21 37.6574C143.317 38.3322 143.457 38.9999 143.737 39.63C143.885 39.9642 144.067 40.2792 144.308 40.5575C144.829 41.1612 145.488 41.4474 146.287 41.4242C146.764 41.4106 147.226 41.3211 147.677 41.1684C147.935 41.0804 148.19 40.9821 148.446 40.8893C148.472 40.8797 148.497 40.8709 148.524 40.8637C148.765 40.7974 148.915 40.8501 149.013 41.0372C149.124 41.2483 149.096 41.4658 148.933 41.6121C148.879 41.6601 148.816 41.7009 148.751 41.7321C148.242 41.9784 147.72 42.1854 147.166 42.3094C146.782 42.3957 146.398 42.4597 146.003 42.4549C145.105 42.4445 144.359 42.1039 143.765 41.429C143.272 40.8669 142.918 40.2249 142.673 39.5204C142.529 39.107 142.424 38.6832 142.331 38.2571C142.275 37.9996 142.246 37.7365 142.211 37.4751C142.163 37.1144 142.119 36.7522 142.076 36.3908C142.062 36.2733 142.053 36.1549 142.043 36.0374C142.018 35.7288 141.992 35.4201 141.972 35.1115C141.959 34.9116 141.948 34.7109 141.948 34.511C141.949 33.9641 141.957 33.4171 141.961 32.871C141.961 32.8454 141.948 32.819 141.934 32.7631H141.934ZM118.862 19.1397C118.895 18.9709 118.942 18.8038 118.958 18.6335C119.006 18.1362 119.042 17.6372 119.082 17.1391C119.105 16.8496 119.145 16.5602 119.15 16.2699C119.166 15.2241 119.172 14.1782 119.182 13.1315C119.182 13.0588 119.182 12.986 119.174 12.914C119.17 12.8837 119.174 12.8357 119.11 12.8429C119.098 12.8621 119.074 12.8829 119.072 12.906C118.83 14.977 118.722 17.0527 118.862 19.1397Z" fill="#FEFEFE"/>
<path d="M128.454 41.3969C127.542 41.3969 126.63 41.3906 125.718 41.3994C125.272 41.4033 124.827 41.4377 124.381 41.4545C124.08 41.4657 123.779 41.4737 123.478 41.4745C122.922 41.4761 122.368 41.4961 121.814 41.5457C121.578 41.5665 121.34 41.5577 121.103 41.5689C120.739 41.5865 120.376 41.6096 120.012 41.6296C119.894 41.636 119.776 41.6408 119.657 41.648C119.203 41.6752 118.749 41.7016 118.294 41.732C117.594 41.7784 116.895 41.8263 116.195 41.8751C115.914 41.8951 115.632 41.9159 115.351 41.9407C115.115 41.9615 114.88 41.9918 114.644 42.011C114.172 42.051 113.699 42.0806 113.227 42.1254C112.819 42.1638 112.413 42.2213 112.006 42.2645C111.57 42.3101 111.135 42.3477 110.7 42.3924C110.447 42.4188 110.194 42.4516 109.94 42.4828C109.551 42.5308 109.163 42.5787 108.774 42.6275C108.53 42.6579 108.287 42.6907 108.042 42.7203C107.689 42.7627 107.336 42.7986 106.984 42.8434C106.668 42.8834 106.353 42.9314 106.038 42.9761C105.722 43.0209 105.406 43.0657 105.09 43.1097C104.775 43.1537 104.459 43.1952 104.143 43.2392C103.801 43.2872 103.458 43.3368 103.116 43.3871C102.864 43.4239 102.612 43.4623 102.36 43.5015C102.027 43.5534 101.694 43.6062 101.361 43.6606C101.083 43.7062 100.805 43.7557 100.526 43.8013C100.257 43.8453 99.9872 43.8853 99.7176 43.9293C99.4841 43.9668 99.2505 44.0068 99.0169 44.046C98.7034 44.0988 98.389 44.1523 98.0755 44.2059C97.8867 44.2387 97.6987 44.2715 97.5107 44.3067C96.9292 44.4154 96.3477 44.5249 95.7662 44.6345C95.471 44.6897 95.1767 44.7448 94.8815 44.8C94.7871 44.8176 94.7007 44.8104 94.6319 44.7312C94.5728 44.6633 94.5824 44.5649 94.6607 44.521C94.6991 44.4994 94.7447 44.4874 94.7879 44.4746C95.1623 44.3618 95.5358 44.2451 95.9118 44.1379C96.3317 44.018 96.7532 43.9021 97.1764 43.7941C97.6083 43.6846 98.0443 43.587 98.4778 43.4847C98.8138 43.4047 99.1489 43.32 99.4865 43.2456C99.8328 43.1696 100.182 43.1041 100.53 43.0345C100.709 42.9985 100.887 42.9634 101.066 42.9298C101.54 42.841 102.014 42.7515 102.488 42.6651C102.927 42.5851 103.366 42.506 103.805 42.4316C104.075 42.386 104.345 42.3493 104.615 42.3085C104.931 42.2605 105.245 42.2125 105.56 42.1654C105.767 42.135 105.974 42.1046 106.182 42.0782C106.534 42.0334 106.887 41.9902 107.24 41.9471C107.574 41.9063 107.908 41.8647 108.243 41.8239C108.424 41.8023 108.604 41.7808 108.786 41.76C109.175 41.716 109.564 41.6712 109.953 41.628C110.089 41.6128 110.225 41.5985 110.361 41.5857C110.769 41.5473 111.178 41.5113 111.586 41.4721C112.102 41.4217 112.618 41.3642 113.135 41.3186C113.697 41.269 114.26 41.229 114.823 41.1867C115.522 41.1339 116.221 41.0843 116.92 41.0307C117.574 40.9804 118.227 40.9204 118.882 40.8772C119.6 40.83 120.32 40.7989 121.039 40.7581C121.357 40.7397 121.675 40.7125 121.993 40.6933C122.184 40.6821 122.375 40.6821 122.566 40.6725C122.939 40.6533 123.312 40.6277 123.685 40.6102C123.93 40.5982 124.177 40.5942 124.423 40.5902C124.761 40.5854 125.098 40.5862 125.435 40.5798C125.927 40.571 126.418 40.5534 126.909 40.5478C127.402 40.5422 127.894 40.5406 128.386 40.5478C129.134 40.5606 129.881 40.5774 130.627 40.6038C131.264 40.6261 131.901 40.6557 132.538 40.6989C133.092 40.7357 133.645 40.7949 134.198 40.8452C134.589 40.8804 134.979 40.9108 135.368 40.954C135.703 40.9916 136.036 41.0419 136.369 41.0899C136.64 41.1291 136.909 41.1707 137.179 41.217C137.466 41.2666 137.751 41.3194 138.037 41.3778C138.349 41.4409 138.661 41.5057 138.971 41.5809C139.696 41.7584 140.411 41.9711 141.081 42.3077C141.351 42.4428 141.612 42.5931 141.833 42.8002C141.939 42.8994 142.039 43.0089 142.12 43.1281C142.4 43.5423 142.377 43.9652 142.127 44.385C141.988 44.6161 141.787 44.7872 141.57 44.9407C141.16 45.2326 140.713 45.4581 140.247 45.646C139.362 46.005 138.479 46.372 137.578 46.6878C137.149 46.8382 136.714 46.9725 136.278 47.1028C135.877 47.2228 135.475 47.3371 135.069 47.4363C134.715 47.5218 134.356 47.5834 133.999 47.6529C133.821 47.6881 133.64 47.7137 133.462 47.7481C133.023 47.8337 132.58 47.884 132.136 47.9368C131.494 48.0128 130.852 48.0903 130.205 48.1079C129.959 48.1143 129.714 48.1495 129.469 48.1607C129.159 48.1751 128.85 48.1855 128.539 48.1855C127.955 48.1855 127.372 48.1799 126.789 48.1703C126.571 48.1671 126.352 48.1463 126.135 48.1327C125.953 48.1215 125.771 48.1111 125.589 48.0983C125.289 48.0767 124.99 48.0527 124.69 48.032C124.517 48.02 124.344 48.0176 124.172 47.9984C123.746 47.9528 123.321 47.9 122.896 47.8504C122.543 47.8097 122.19 47.7737 121.838 47.7281C121.513 47.6865 121.189 47.6354 120.864 47.589C120.567 47.5466 120.269 47.5074 119.972 47.4642C119.701 47.4251 119.431 47.3835 119.161 47.3403C118.847 47.2899 118.533 47.238 118.218 47.1868C118.021 47.1548 117.823 47.1236 117.626 47.0892C117.195 47.0141 116.765 46.9357 116.335 46.8598C116.119 46.8214 115.904 46.7846 115.688 46.7478C115.365 46.6918 115.043 46.6359 114.72 46.5807C114.522 46.5463 114.325 46.5135 114.128 46.4791C113.787 46.4192 113.447 46.3552 113.106 46.3C112.665 46.2289 112.224 46.1657 111.783 46.0961C111.495 46.0506 111.209 45.9986 110.921 45.9538C110.633 45.909 110.344 45.8715 110.056 45.8291C109.849 45.7987 109.642 45.7667 109.435 45.7371C109.074 45.686 108.713 45.6364 108.352 45.5868C108.272 45.5756 108.189 45.5692 108.108 45.5596C107.945 45.5404 107.783 45.5212 107.621 45.5012C107.575 45.4957 107.531 45.4837 107.485 45.4797C107.105 45.4445 106.724 45.4109 106.343 45.3749C106.198 45.3613 106.054 45.3405 105.909 45.3269C105.764 45.3125 105.618 45.3006 105.473 45.2902C105.191 45.2702 104.91 45.2486 104.628 45.2342C104.21 45.2126 103.791 45.203 103.373 45.175C102.663 45.1278 101.952 45.147 101.241 45.1438C101.197 45.1438 101.153 45.1294 101.111 45.1158C101.099 45.1118 101.089 45.0871 101.088 45.0719C101.087 45.0559 101.094 45.0303 101.105 45.0247C101.146 45.0055 101.189 44.9839 101.232 44.9791C101.368 44.9639 101.504 44.9559 101.641 44.9455C101.958 44.9223 102.276 44.8968 102.594 44.8792C102.867 44.8648 103.14 44.8544 103.414 44.8528C103.988 44.8488 104.563 44.8488 105.138 44.8528C105.611 44.8568 106.085 44.8728 106.556 44.9239C106.665 44.9359 106.774 44.9295 106.884 44.9367C107.411 44.9727 107.939 45.0023 108.465 45.0503C109.036 45.1015 109.607 45.1654 110.177 45.2326C110.52 45.2734 110.862 45.3325 111.204 45.3813C111.411 45.4109 111.619 45.4349 111.826 45.4621C112.133 45.502 112.441 45.5388 112.747 45.5836C113.035 45.6252 113.322 45.6764 113.609 45.7211C113.888 45.7643 114.168 45.8019 114.447 45.8459C114.735 45.8914 115.021 45.9418 115.308 45.9906C115.533 46.0282 115.757 46.069 115.982 46.1041C116.26 46.1473 116.541 46.1825 116.819 46.2265C117.089 46.2697 117.358 46.3208 117.626 46.3664C117.86 46.4056 118.093 46.4424 118.328 46.4791C118.679 46.5335 119.029 46.5887 119.38 46.6399C119.678 46.683 119.976 46.7198 120.273 46.7622C120.625 46.8118 120.976 46.8661 121.328 46.9149C121.59 46.9517 121.851 46.9869 122.113 47.0165C122.466 47.0557 122.82 47.0884 123.174 47.1228C123.654 47.17 124.135 47.2172 124.616 47.2628C124.77 47.2771 124.924 47.2891 125.079 47.3003C125.415 47.3243 125.751 47.3499 126.088 47.3707C126.233 47.3795 126.379 47.3819 126.525 47.3835C127.355 47.3931 128.184 47.4123 129.014 47.4067C129.624 47.4027 130.234 47.3803 130.842 47.3139C131.258 47.2683 131.678 47.2484 132.092 47.1932C132.552 47.1316 133.01 47.0469 133.467 46.9637C133.834 46.8973 134.201 46.8302 134.563 46.7414C135.085 46.6143 135.603 46.4744 136.119 46.3264C136.52 46.2113 136.917 46.077 137.315 45.9466C138.042 45.7091 138.746 45.4117 139.441 45.0935C139.813 44.9231 140.186 44.752 140.55 44.5665C140.753 44.4642 140.942 44.3362 141.132 44.2107C141.206 44.1611 141.273 44.094 141.329 44.0228C141.484 43.8221 141.47 43.6302 141.277 43.4695C141.159 43.3711 141.026 43.2848 140.889 43.2176C140.25 42.9058 139.592 42.6419 138.903 42.462C138.48 42.3517 138.063 42.2237 137.637 42.127C137.176 42.0214 136.711 41.9295 136.244 41.8559C135.705 41.7712 135.162 41.7072 134.62 41.644C134.114 41.5849 133.606 41.5329 133.098 41.4881C132.835 41.4649 132.569 41.4737 132.305 41.4545C131.022 41.3602 129.737 41.3866 128.451 41.393L128.454 41.3969Z" fill="#FEFEFE"/>
<path d="M104.232 17.8038C104.232 18.0333 104.18 18.2204 104.013 18.3595C103.876 18.473 103.699 18.4658 103.573 18.3379C103.439 18.2012 103.399 18.0237 103.364 17.8446C103.34 17.7294 103.317 17.6135 103.304 17.4959C103.277 17.2569 103.184 17.041 103.075 16.8315C102.945 16.582 102.81 16.3357 102.677 16.0879C102.639 16.0159 102.596 15.9447 102.568 15.8688C102.526 15.7584 102.606 15.6449 102.723 15.6337C102.799 15.6265 102.865 15.6481 102.927 15.6921C103.328 15.9703 103.667 16.3053 103.899 16.7403C104.049 17.0234 104.145 17.324 104.215 17.6351C104.228 17.6966 104.228 17.7614 104.232 17.8038Z" fill="#FEFEFE"/>
<path d="M91.8047 21.6434C91.6312 21.6306 91.5016 21.5698 91.388 21.4723C91.2488 21.3524 91.1384 21.2084 91.0336 21.0589C90.8977 20.8654 90.7641 20.6703 90.6193 20.4832C90.4689 20.2881 90.3065 20.1034 90.0714 20.0026C90.0386 19.9882 90.0066 19.9675 89.981 19.9427C89.9234 19.8875 89.9122 19.8171 89.929 19.7412C89.945 19.6692 89.9954 19.6412 90.0634 19.6252C90.4425 19.5389 90.7873 19.5949 91.0768 19.8715C91.2216 20.0098 91.364 20.1498 91.5016 20.2945C91.6392 20.44 91.7679 20.5935 91.9015 20.7423C92.0135 20.8662 92.0935 21.0077 92.1375 21.1676C92.1807 21.3228 92.0839 21.5419 91.9399 21.6074C91.8919 21.6298 91.8351 21.6346 91.8039 21.6426L91.8047 21.6434Z" fill="#FEFEFE"/>
<path d="M134.349 18.3244C134.344 18.7194 134.271 19.104 134.186 19.4862C134.174 19.539 134.153 19.5902 134.132 19.6405C134.062 19.8124 133.951 19.886 133.777 19.878C133.608 19.87 133.457 19.7573 133.407 19.6013C133.375 19.503 133.381 19.4054 133.404 19.3055C133.443 19.1376 133.484 18.9689 133.51 18.7986C133.572 18.3948 133.626 17.9894 133.683 17.584C133.685 17.5656 133.687 17.548 133.691 17.5296C133.721 17.3793 133.79 17.3057 133.914 17.2929C134.04 17.2801 134.129 17.3305 134.188 17.472C134.236 17.5888 134.277 17.7119 134.298 17.8359C134.326 17.9966 134.333 18.1605 134.349 18.3236L134.349 18.3244Z" fill="#FEFEFE"/>
<path d="M148.374 21.9111C148.395 22.4804 148.224 22.9857 147.854 23.4223C147.77 23.5215 147.674 23.6022 147.551 23.6486C147.518 23.6614 147.479 23.671 147.446 23.6646C147.255 23.6286 147.118 23.4175 147.172 23.2296C147.212 23.0905 147.27 22.9562 147.326 22.8218C147.371 22.7123 147.424 22.6067 147.474 22.4996C147.615 22.2005 147.701 21.8863 147.752 21.5609C147.758 21.5249 147.762 21.4881 147.773 21.4537C147.818 21.305 147.93 21.2234 148.077 21.2298C148.226 21.2362 148.33 21.325 148.363 21.4753C148.369 21.5017 148.374 21.5297 148.374 21.5569C148.375 21.6752 148.374 21.7936 148.374 21.9119V21.9111Z" fill="#FEFEFE"/>
<path d="M76.1783 68.093C75.9815 68.2426 76.0119 68.3801 76.0111 68.5032C76.0063 69.0853 76.0055 69.6666 76.0055 70.2487C76.0055 73.9764 76.0055 77.7041 76.0055 81.431C76.0055 81.5389 76.0119 81.6469 76.0055 81.754C75.9743 82.3745 76.2687 82.8167 76.7486 83.1757C77.0062 83.3684 77.2933 83.4148 77.5957 83.4404C77.7653 83.4548 77.9348 83.4756 78.1028 83.5051C78.13 83.5099 78.1708 83.5763 78.1644 83.6051C78.1524 83.6595 78.1212 83.7402 78.0804 83.753C77.9804 83.7842 77.87 83.7938 77.7644 83.7938C76.1479 83.797 74.5313 83.7978 72.9147 83.7986C72.8499 83.7986 72.7851 83.7978 72.7212 83.7946C72.4644 83.7826 72.3476 83.7186 72.3804 83.6091C72.4276 83.4508 72.5644 83.4516 72.6916 83.4404C72.7556 83.4348 72.8211 83.4324 72.8851 83.438C73.549 83.5011 73.9778 83.1381 74.3401 82.6464C74.4721 82.4673 74.5513 82.2754 74.5577 82.0507C74.5657 81.7708 74.5945 81.4918 74.5945 81.2119C74.5977 76.7302 74.6001 72.2485 74.5961 67.7668C74.5961 66.9912 74.5849 66.2148 74.5457 65.4408C74.5217 64.9698 74.4297 64.5029 74.3769 64.0327C74.3561 63.848 74.2849 63.6409 74.5585 63.4922C74.6753 63.5777 74.8257 63.6593 74.9408 63.776C75.3048 64.1431 75.6591 64.5197 76.0119 64.8971C77.2165 66.1876 78.4164 67.4829 79.6234 68.7719C80.4921 69.6994 81.3703 70.6165 82.2406 71.5417C83.1701 72.53 84.0948 73.5223 85.0218 74.5121C85.9193 75.4717 86.8168 76.4304 87.7134 77.3899C88.3758 78.0975 89.0365 78.806 89.7012 79.5112C89.7668 79.5808 89.8548 79.6303 89.9875 79.7319C90.0147 79.5408 90.0451 79.42 90.0475 79.2977C90.0555 78.8235 90.0555 78.3494 90.0555 77.876C90.0555 74.2347 90.0555 70.5934 90.0555 66.952C90.0555 66.7153 90.0435 66.4779 90.0523 66.2412C90.0939 65.081 89.3932 64.3669 88.207 64.2726C88.1014 64.2646 87.9966 64.2406 87.895 64.2094C87.867 64.2006 87.8406 64.1423 87.839 64.1055C87.8374 64.0687 87.8582 64.0167 87.887 63.9967C87.9382 63.9623 88.0014 63.9336 88.0622 63.9272C88.1902 63.9144 88.3206 63.9152 88.4494 63.9152C89.9795 63.9152 91.5097 63.9168 93.0407 63.9176C93.1271 63.9176 93.2135 63.916 93.2991 63.92C93.5398 63.9296 93.667 63.9983 93.6438 64.1119C93.6094 64.2822 93.4614 64.2574 93.3391 64.2774C93.1063 64.3158 92.8671 64.3342 92.6432 64.4029C91.9105 64.63 91.4769 65.2225 91.4641 65.9909C91.4569 66.4219 91.4577 66.8529 91.4577 67.2838C91.4577 71.4641 91.4553 75.6436 91.4577 79.8238C91.4585 81.0936 91.4049 82.3657 91.6313 83.6267C91.6633 83.8042 91.7689 84.0457 91.5657 84.1632C91.3161 84.3071 91.1914 84.0593 91.0474 83.9065C89.5412 82.3082 88.0302 80.7138 86.528 79.1114C85.0994 77.5874 83.682 76.053 82.2566 74.5273C81.4039 73.6142 80.5433 72.7091 79.6882 71.7983C78.6859 70.7309 77.6869 69.6602 76.6846 68.5936C76.5254 68.4241 76.3526 68.2665 76.1759 68.093H76.1783Z" fill="#FEFEFE"/>
<path d="M52.9922 63.4491C53.7529 63.3619 54.608 63.4962 55.4478 63.6825C57.1148 64.052 58.6114 64.7716 59.8784 65.943C61.039 67.016 61.9149 68.2754 62.4301 69.7706C62.7316 70.6454 62.9716 71.5377 62.994 72.4748C63.002 72.8179 63.0684 73.1609 63.0604 73.5031C63.0444 74.2131 63.0484 74.9288 62.9508 75.6292C62.6812 77.565 61.9781 79.3233 60.6719 80.8122C59.1969 82.4929 57.3476 83.538 55.1607 83.9322C53.9568 84.1489 52.733 84.2472 51.4972 84.0769C50.4901 83.9378 49.4999 83.7651 48.5616 83.3677C45.8436 82.2162 44.0302 80.2229 43.12 77.4251C42.732 76.2321 42.5888 74.9911 42.6024 73.7334C42.6168 72.4125 42.7824 71.1211 43.2144 69.8626C43.9734 67.6477 45.3804 65.9694 47.3722 64.7708C48.34 64.1887 49.3999 63.8537 50.5077 63.629C51.2988 63.4691 52.0867 63.4355 52.9938 63.4483L52.9922 63.4491ZM60.8119 73.7822C60.7847 72.4796 60.6391 71.2035 60.2304 69.9625C59.7064 68.3729 58.8842 66.9896 57.5443 65.943C56.4277 65.0706 55.1711 64.5765 53.7633 64.4318C53.117 64.3654 52.4779 64.3918 51.8331 64.439C51.2452 64.4821 50.6869 64.6269 50.1358 64.8132C48.7408 65.2849 47.6577 66.1829 46.7811 67.3383C45.626 68.8607 45.1029 70.6182 44.9405 72.4956C44.8661 73.3552 44.8797 74.2171 44.9373 75.0791C44.9997 76.0098 45.2061 76.9118 45.498 77.7889C45.862 78.8804 46.4379 79.8615 47.1962 80.7378C48.444 82.1803 50.0438 82.9431 51.9075 83.1478C52.8266 83.2485 53.7497 83.2077 54.6703 82.995C55.8318 82.7264 56.858 82.2266 57.7531 81.451C59.4097 80.0158 60.2584 78.1415 60.6247 76.0306C60.7527 75.2926 60.7535 74.5322 60.8119 73.7814V73.7822Z" fill="#FEFEFE"/>
<path d="M173.074 64.9701C173.067 65.2323 173.056 65.445 173.056 65.6585C173.054 70.8966 173.054 76.1347 173.054 81.3729C173.054 81.5024 173.068 81.6327 173.056 81.7607C172.988 82.5259 173.864 83.4638 174.627 83.4374C174.774 83.4326 174.927 83.4574 175.069 83.5006C175.123 83.5166 175.149 83.6221 175.215 83.7301C175.038 83.7572 174.915 83.7932 174.791 83.7932C173.001 83.7964 171.212 83.7964 169.422 83.7932C169.129 83.7932 168.98 83.7165 169.021 83.6021C169.088 83.4126 169.255 83.4558 169.401 83.4422C169.678 83.4166 169.947 83.3926 170.205 83.2431C170.83 82.8817 171.072 82.3132 171.145 81.6399C171.161 81.4904 171.149 81.3385 171.149 81.1874C171.149 76.337 171.151 71.4867 171.145 66.6364C171.145 66.3374 171.131 66.0295 171.064 65.7401C170.879 64.9493 170.361 64.4791 169.57 64.308C169.445 64.2808 169.31 64.2904 169.187 64.2552C169.118 64.2352 169.019 64.1633 169.013 64.1065C168.999 63.9778 169.11 63.9298 169.226 63.9242C169.355 63.917 169.484 63.9178 169.614 63.9178C171.749 63.917 173.884 63.9194 176.018 63.9146C176.73 63.913 177.433 63.945 178.141 64.0657C180.116 64.4032 181.782 65.96 182.12 68.0413C182.258 68.8929 182.256 69.7268 182.059 70.5408C181.641 72.2743 180.719 73.6576 179.04 74.4204C178.73 74.5612 178.384 74.6211 178.055 74.7211C177.978 74.7443 177.905 74.7794 177.814 74.8162C177.856 74.9026 177.867 74.9737 177.909 75.0081C178.807 75.7406 179.448 76.6857 180.111 77.6164C180.935 78.775 181.73 79.9568 182.677 81.021C183.078 81.4712 183.505 81.9006 183.947 82.3108C184.408 82.7378 184.94 83.0576 185.539 83.2743C185.872 83.395 186.214 83.3998 186.553 83.4478C186.708 83.4694 186.789 83.539 186.728 83.7428C186.599 83.758 186.455 83.7892 186.309 83.7908C185.813 83.7964 185.317 83.7964 184.821 83.7908C183.374 83.7724 182.153 83.2143 181.089 82.2548C180.393 81.6271 179.872 80.8595 179.336 80.1055C178.4 78.7886 177.481 77.4597 176.548 76.1395C176.362 75.8765 176.154 75.627 175.947 75.3799C175.468 74.809 174.921 74.3341 174.168 74.1606C174.147 74.1558 174.119 74.1518 174.109 74.1366C174.067 74.071 174.01 74.0046 174 73.9327C173.995 73.8959 174.074 73.8199 174.123 73.8103C174.249 73.7863 174.38 73.7872 174.509 73.7832C174.983 73.7688 175.457 73.7512 175.931 73.7432C176.591 73.732 177.217 73.5633 177.794 73.2658C179.176 72.555 179.899 71.402 179.97 69.8524C180.003 69.1191 179.976 68.3899 179.763 67.6751C179.523 66.8707 179.132 66.1727 178.47 65.6377C177.931 65.2027 177.297 64.9701 176.63 64.9341C175.554 64.8757 174.475 64.9021 173.396 64.8981C173.316 64.8981 173.234 64.9333 173.074 64.9701Z" fill="#FEFEFE"/>
<path d="M213.715 69.4162C213.569 69.3459 213.44 69.3259 213.407 69.2587C213.304 69.0468 213.237 68.8181 213.157 68.595C212.53 66.8439 211.299 65.6741 209.608 64.9721C208.831 64.6491 208.015 64.4772 207.165 64.4164C206.538 64.3716 205.922 64.39 205.3 64.4404C203.977 64.5483 202.788 65.0113 201.733 65.8069C200.368 66.8367 199.428 68.1881 198.901 69.8024C198.285 71.6895 198.102 73.6197 198.407 75.6003C198.552 76.5438 198.751 77.4617 199.123 78.3365C199.753 79.8165 200.696 81.0559 202.046 81.953C203.221 82.7342 204.525 83.1268 205.934 83.182C207.021 83.2244 208.081 83.0868 209.119 82.7598C210.326 82.3792 211.411 81.7803 212.381 80.9695C212.446 80.9143 212.506 80.8504 212.564 80.7872C212.593 80.756 212.613 80.7168 212.663 80.6401C212.663 79.647 212.664 78.6139 212.663 77.58C212.663 76.9979 212.655 76.4166 212.657 75.8345C212.659 75.0301 212.014 74.5232 211.409 74.5456C211.239 74.552 211.067 74.5272 210.899 74.4968C210.858 74.4888 210.802 74.4009 210.804 74.3521C210.807 74.3033 210.866 74.2266 210.913 74.2154C211.036 74.1858 211.167 74.1738 211.295 74.1738C212.804 74.1714 214.312 74.1714 215.822 74.1738C215.949 74.1738 216.079 74.1866 216.203 74.217C216.247 74.2282 216.302 74.3105 216.299 74.3577C216.297 74.4089 216.243 74.4904 216.197 74.5024C216.075 74.5344 215.944 74.5424 215.816 74.5488C214.944 74.596 214.564 74.9806 214.56 75.8337C214.556 77.1914 214.544 78.5491 214.563 79.9069C214.568 80.3018 214.456 80.6041 214.197 80.8967C213.221 82.001 212.046 82.8078 210.672 83.3339C209.165 83.9112 207.6 84.1999 205.994 84.1431C204.126 84.0767 202.321 83.7017 200.704 82.6934C198.627 81.3989 197.208 79.5998 196.531 77.2314C196.311 76.4622 196.2 75.6834 196.115 74.8878C196.016 73.9555 196.079 73.0352 196.163 72.1164C196.279 70.8411 196.639 69.6209 197.256 68.4943C198.443 66.3298 200.18 64.7882 202.537 64.0006C203.58 63.652 204.652 63.4137 205.767 63.4417C206.155 63.4513 206.544 63.4345 206.931 63.4441C208.948 63.4953 210.842 64.0094 212.607 64.9881C212.72 65.0505 212.83 65.1184 212.939 65.1888C213.129 65.3111 213.241 65.4758 213.273 65.7117C213.4 66.6496 213.541 67.586 213.677 68.5231C213.716 68.7965 213.736 69.07 213.715 69.4138V69.4162Z" fill="#FEFEFE"/>
<path d="M113.447 63.4442C114.487 63.3578 115.652 63.5785 116.8 63.8768C117.846 64.1486 118.826 64.5948 119.75 65.1593C119.991 65.3064 120.111 65.5175 120.145 65.7902C120.231 66.473 120.317 67.1567 120.407 67.8387C120.435 68.0522 120.473 68.2641 120.507 68.476C120.54 68.6887 120.576 68.9006 120.602 69.1141C120.616 69.222 120.611 69.3396 120.478 69.3748C120.353 69.4083 120.279 69.3316 120.237 69.2204C120.177 69.0589 120.115 68.899 120.059 68.7367C119.321 66.6114 117.783 65.3568 115.686 64.6924C114.915 64.4477 114.113 64.4693 113.329 64.3469C111.504 64.4205 109.783 64.8163 108.345 66.0213C107.322 66.8776 106.552 67.9299 106.028 69.1621C105.619 70.1216 105.407 71.1259 105.277 72.1541C105.131 73.3151 105.157 74.4666 105.321 75.6292C105.475 76.7286 105.755 77.7817 106.239 78.7739C107.114 80.5642 108.45 81.8955 110.304 82.6536C111.06 82.9622 111.867 83.1245 112.689 83.1765C113.932 83.2557 115.144 83.0909 116.307 82.656C118.293 81.9131 119.679 80.5482 120.421 78.5525C120.752 77.6633 121.008 76.7534 121.092 75.8035C121.096 75.7603 121.101 75.7179 121.11 75.6755C121.132 75.566 121.17 75.4501 121.297 75.4501C121.428 75.4501 121.468 75.5612 121.464 75.6787C121.451 75.9794 121.46 76.2848 121.413 76.5807C121.276 77.4562 121.256 78.339 121.218 79.2201C121.2 79.6447 121.081 80.0197 120.844 80.3683C119.816 81.8756 118.456 82.9646 116.733 83.5635C115.187 84.1016 113.592 84.2615 111.957 84.0776C110.924 83.9617 109.913 83.7714 108.954 83.3684C106.423 82.3057 104.639 80.5099 103.668 77.9296C103.286 76.9165 103.104 75.869 103.01 74.7864C102.929 73.8525 102.961 72.9273 103.078 72.0166C103.36 69.8289 104.194 67.8939 105.781 66.2907C107.101 64.9578 108.677 64.1526 110.465 63.7073C111.301 63.4994 112.026 63.4442 113.446 63.445L113.447 63.4442Z" fill="#FEFEFE"/>
<path d="M32.3308 69.394C32.2508 69.358 32.1252 69.3428 32.0876 69.2772C31.9933 69.1109 31.9309 68.9238 31.8693 68.7407C31.2262 66.8329 29.9023 65.6007 28.053 64.8875C27.3459 64.6148 26.6116 64.4933 25.8573 64.4133C25.0734 64.3302 24.2983 64.3806 23.5424 64.5069C22.0931 64.7492 20.8092 65.3656 19.735 66.4091C18.6559 67.4566 17.9184 68.6999 17.4953 70.1256C17.1817 71.1803 17.0346 72.2677 16.9946 73.3703C16.9626 74.2579 17.041 75.1358 17.1873 76.0074C17.5649 78.2511 18.5192 80.1829 20.3333 81.6189C21.2404 82.337 22.2706 82.7863 23.4177 83.0174C24.2551 83.1861 25.0878 83.2317 25.9229 83.1517C27.7075 82.9814 29.316 82.357 30.6238 81.0976C31.3621 80.3868 31.8789 79.5136 32.2388 78.5541C32.5644 77.6857 32.8051 76.7934 32.9043 75.8683C32.9115 75.8043 32.9171 75.7395 32.9283 75.6764C32.9475 75.5636 32.9971 75.4525 33.1203 75.4533C33.2507 75.4533 33.2891 75.5668 33.2827 75.6844C33.2707 75.9426 33.2699 76.2025 33.2363 76.4576C33.1147 77.3987 33.0691 78.3446 33.0291 79.2913C33.0139 79.6631 32.9115 80.007 32.6932 80.3204C32.0333 81.2663 31.2574 82.0963 30.2783 82.7176C29.1529 83.4308 27.9322 83.8842 26.5988 84.0145C26.2989 84.0441 26.0005 84.0985 25.6997 84.1161C25.2918 84.1408 24.8775 84.188 24.4751 84.1424C23.664 84.0505 22.8481 84.0009 22.0491 83.7906C20.4541 83.3708 19.0495 82.6272 17.8456 81.4974C16.5386 80.2708 15.6612 78.79 15.198 77.0645C15.0196 76.4008 14.9013 75.7267 14.8397 75.0367C14.7549 74.086 14.7989 73.1441 14.8661 72.1998C14.9213 71.4218 15.1196 70.6725 15.3572 69.9345C15.9507 68.0955 17.0554 66.6122 18.5647 65.4272C19.5238 64.674 20.6141 64.1847 21.7875 63.8464C23.3257 63.4027 24.8959 63.3475 26.462 63.4834C28.2346 63.6369 29.9167 64.1527 31.4533 65.0946C31.7877 65.2993 31.9373 65.5512 31.9781 65.919C32.0277 66.3675 32.1036 66.8137 32.1676 67.2607C32.2412 67.7716 32.3252 68.281 32.3844 68.7935C32.406 68.9774 32.482 69.1749 32.3284 69.3948L32.3308 69.394Z" fill="#FEFEFE"/>
<path d="M150.424 73.4632C150.628 73.492 150.752 73.5248 150.875 73.5256C152.277 73.5296 153.678 73.52 155.08 73.5328C155.728 73.5384 156.137 73.2026 156.387 72.6565C156.48 72.451 156.46 72.1943 156.507 71.9648C156.516 71.9184 156.601 71.8473 156.639 71.8553C156.708 71.8689 156.77 71.9296 156.831 71.9752C156.844 71.9848 156.843 72.0152 156.846 72.036C156.85 72.0791 156.854 72.1215 156.854 72.1647C156.854 73.4145 156.857 74.665 156.854 75.9148C156.854 76.1539 156.774 76.2642 156.646 76.237C156.474 76.1994 156.48 76.0571 156.487 75.9316C156.504 75.6373 156.407 75.3767 156.255 75.1384C156.036 74.797 155.737 74.5643 155.314 74.5339C155.185 74.5243 155.056 74.5155 154.927 74.5155C153.633 74.5131 152.339 74.5115 151.046 74.5139C150.876 74.5139 150.707 74.5379 150.512 74.5523C150.478 74.6906 150.424 74.8098 150.422 74.9297C150.411 75.4902 150.414 76.0507 150.414 76.6104C150.414 78.4207 150.414 80.2318 150.417 82.0421C150.417 82.2747 150.434 82.5082 150.444 82.7657C150.602 82.8041 150.722 82.8584 150.841 82.8592C152.178 82.8672 153.515 82.8856 154.851 82.8584C155.319 82.8488 155.795 82.7569 156.25 82.6361C157.21 82.3819 157.92 81.7662 158.476 80.9626C158.794 80.502 159.081 80.0215 159.285 79.497C159.349 79.333 159.422 79.1731 159.696 79.2171C159.689 79.333 159.707 79.4594 159.671 79.5681C159.504 80.0783 159.325 80.5852 159.144 81.0905C158.897 81.779 158.647 82.4658 158.393 83.1511C158.32 83.3502 158.231 83.5445 158.148 83.7436C157.562 83.8427 157.002 83.782 156.444 83.79C155.883 83.7988 155.323 83.7916 154.762 83.7924C154.201 83.7924 153.641 83.7924 153.08 83.7924C152.519 83.7924 151.958 83.7924 151.398 83.7924C150.837 83.7924 150.276 83.7924 149.715 83.7924C149.155 83.7924 148.594 83.806 148.034 83.7884C147.484 83.7708 146.926 83.8619 146.318 83.7244C146.398 83.6069 146.427 83.5197 146.487 83.4853C146.556 83.4461 146.653 83.4389 146.736 83.4445C147.705 83.5109 148.479 82.5298 148.509 81.5863C148.512 81.4999 148.511 81.4136 148.511 81.328C148.511 76.3706 148.511 71.4131 148.508 66.4556C148.508 66.1558 148.507 65.8615 148.397 65.5657C148.162 64.9276 147.726 64.5262 147.08 64.3479C146.874 64.2911 146.659 64.2655 146.462 64.2288C146.354 64.0585 146.417 63.9601 146.576 63.9409C146.767 63.9177 146.963 63.9217 147.157 63.9217C149.42 63.9193 151.685 63.9105 153.948 63.9217C155.03 63.9273 156.103 63.8682 157.162 63.6483C157.351 63.6091 157.534 63.5371 157.722 63.4979C157.82 63.4772 157.926 63.4947 158.05 63.4947C158.072 63.6595 158.103 63.7834 158.104 63.9081C158.108 64.8133 158.106 65.7184 158.105 66.6235C158.105 66.6883 158.105 66.7531 158.098 66.817C158.084 66.9346 158.026 67.0201 157.9 67.0297C157.773 67.0393 157.697 66.9658 157.683 66.845C157.668 66.7171 157.669 66.5876 157.665 66.458C157.638 65.5217 156.829 64.9076 156.075 64.8964C155.967 64.8948 155.859 64.8916 155.751 64.8916C154.177 64.8924 152.603 64.8932 151.03 64.8972C150.862 64.8972 150.695 64.9204 150.569 64.9292C150.38 65.1027 150.417 65.2842 150.416 65.4513C150.412 66.3565 150.413 67.2616 150.413 68.1676C150.413 69.698 150.413 71.2284 150.413 72.7588C150.413 72.9723 150.419 73.1858 150.423 73.4648L150.424 73.4632Z" fill="#FEFEFE"/>
<path d="M239 79.137C238.933 79.4376 238.916 79.6088 238.856 79.7639C238.347 81.0832 237.947 82.4449 237.377 83.7722C237.137 83.7794 236.924 83.7914 236.712 83.7914C233.198 83.7938 229.685 83.7938 226.172 83.7946C226.043 83.7946 225.911 83.8074 225.786 83.7842C225.719 83.7714 225.62 83.6971 225.616 83.6435C225.61 83.5875 225.688 83.4972 225.751 83.4676C225.823 83.4332 225.92 83.4388 226.006 83.4436C226.854 83.4876 227.639 82.7128 227.75 81.6917C227.763 81.5638 227.756 81.4334 227.756 81.3039C227.756 76.3912 227.757 71.4793 227.754 66.5666C227.754 66.2468 227.773 65.9278 227.662 65.6087C227.411 64.8899 226.91 64.4773 226.186 64.3102C226.02 64.2718 225.849 64.2566 225.695 64.2334C225.596 64.0559 225.655 63.9592 225.816 63.9408C226.008 63.9192 226.203 63.9176 226.397 63.9176C228.768 63.9176 231.139 63.916 233.51 63.9192C234.677 63.9208 235.832 63.8264 236.96 63.501C237.055 63.4738 237.166 63.497 237.272 63.497C237.303 63.5794 237.343 63.6377 237.343 63.6953C237.347 64.686 237.347 65.6775 237.343 66.6682C237.343 66.9313 237.247 67.0624 237.099 67.0312C236.902 66.9896 236.905 66.8313 236.905 66.6778C236.905 66.613 236.91 66.5482 236.905 66.4843C236.841 65.5352 236.186 64.9011 235.219 64.8939C233.538 64.8811 231.857 64.8907 230.176 64.8915C230.089 64.8915 230.003 64.8939 229.918 64.9059C229.773 64.9267 229.684 65.013 229.67 65.1594C229.658 65.2881 229.658 65.4176 229.658 65.5464C229.657 68.0027 229.657 70.459 229.658 72.9146C229.658 73.0833 229.681 73.2512 229.695 73.4527C229.859 73.4799 230.001 73.5231 230.144 73.5239C231.523 73.5295 232.902 73.5351 234.281 73.5263C235.124 73.5207 235.636 73.0353 235.72 72.1974C235.728 72.1118 235.723 72.0206 235.754 71.9439C235.773 71.8967 235.848 71.8495 235.901 71.8463C235.951 71.8431 236.028 71.8871 236.049 71.9311C236.084 72.0046 236.096 72.0958 236.097 72.179C236.1 73.4287 236.099 74.6785 236.098 75.9282C236.098 75.9714 236.106 76.0226 236.086 76.0554C236.045 76.1225 235.999 76.2009 235.934 76.2361C235.855 76.2793 235.74 76.1697 235.734 76.041C235.72 75.7611 235.709 75.4893 235.557 75.2326C235.308 74.8144 234.977 74.5465 234.477 74.5234C234.391 74.5194 234.305 74.5114 234.219 74.5114C232.861 74.5114 231.503 74.5114 230.145 74.5146C230.02 74.5146 229.893 74.5465 229.734 74.5689C229.707 74.7209 229.66 74.8632 229.659 75.0055C229.655 77.4403 229.656 79.875 229.659 82.3098C229.659 82.4553 229.69 82.6016 229.711 82.7799C229.874 82.8103 230.016 82.8599 230.158 82.8607C231.451 82.8671 232.745 82.8863 234.038 82.8543C234.569 82.8415 235.103 82.7639 235.622 82.5952C236.368 82.3529 236.954 81.9068 237.446 81.3151C237.875 80.7985 238.202 80.218 238.487 79.6128C238.542 79.4976 238.59 79.3753 238.668 79.2769C238.71 79.2233 238.809 79.2138 239.001 79.1362L239 79.137Z" fill="#FEFEFE"/>
<path d="M130.781 83.7148C130.864 83.6013 130.897 83.5022 130.954 83.487C131.096 83.4486 131.249 83.4446 131.398 83.431C132.069 83.371 132.501 82.9736 132.779 82.4035C132.93 82.0965 132.999 81.7607 132.999 81.404C132.99 76.3626 132.991 71.3204 132.992 66.279C132.992 65.6369 132.757 65.1116 132.264 64.6958C131.99 64.4639 131.666 64.3632 131.325 64.2976C131.2 64.2736 131.068 64.2696 130.946 64.2336C130.901 64.2208 130.846 64.1409 130.849 64.0953C130.852 64.0449 130.912 63.9666 130.957 63.9578C131.104 63.929 131.255 63.9162 131.404 63.9162C132.698 63.9146 133.99 63.9162 135.284 63.9178C135.78 63.9178 136.275 63.917 136.771 63.9218C136.912 63.9234 137.011 63.9858 137.004 64.1313C136.891 64.3056 136.726 64.2632 136.584 64.2856C136.079 64.3672 135.641 64.5631 135.311 64.9748C135.061 65.2875 134.889 65.6201 134.901 66.0327C134.907 66.2694 134.896 66.5069 134.896 66.7435C134.896 71.5699 134.896 76.3962 134.896 81.2225C134.896 81.3952 134.893 81.5672 134.901 81.7399C134.944 82.6778 135.588 83.3486 136.518 83.431C136.646 83.4422 136.776 83.4478 136.9 83.479C136.941 83.4894 136.992 83.5717 136.99 83.6197C136.988 83.6685 136.937 83.746 136.892 83.7588C136.791 83.7868 136.68 83.7908 136.573 83.7916C134.805 83.794 133.039 83.7948 131.271 83.7916C131.129 83.7916 130.988 83.7492 130.781 83.7156V83.7148Z" fill="#FEFEFE"/>
<path d="M0.0520868 74.4501C0.0376889 74.3597 0.00569335 74.2566 0.00729313 74.1542C0.00969279 74.0151 0.0840823 73.908 0.226462 73.8712C0.351245 73.8384 0.478427 73.8152 0.605609 73.7944C1.09354 73.7161 1.58307 73.6481 2.0686 73.5601C2.36296 73.5066 2.65092 73.421 2.94288 73.3522C3.11006 73.3131 3.27723 73.2691 3.44761 73.2459C3.61159 73.2227 3.74277 73.3267 3.75877 73.497C3.77876 73.7105 3.78196 73.9263 3.78196 74.1406C3.78356 76.637 3.78196 79.1325 3.78436 81.6288C3.78436 81.8647 3.79556 82.1022 3.82596 82.3356C3.88675 82.805 4.19231 83.0497 4.63224 83.14C4.82102 83.1784 5.01699 83.1768 5.20976 83.196C5.35534 83.2104 5.44333 83.2895 5.47133 83.4343C5.50492 83.6078 5.42333 83.7493 5.26495 83.7725C5.15937 83.7877 5.05138 83.7917 4.9442 83.7917C3.48041 83.7933 2.01661 83.7941 0.552817 83.7941C0.445632 83.7941 0.336847 83.7917 0.230462 83.7805C0.0752836 83.7637 -0.00310541 83.6726 9.41406e-05 83.5262C0.00409358 83.3367 0.0856821 83.216 0.24326 83.2008C0.45683 83.1808 0.674399 83.1936 0.88637 83.1632C1.05275 83.1392 1.22392 83.0937 1.3735 83.0185C1.68866 82.8602 1.83424 82.5923 1.84224 82.2341C1.85983 81.4393 1.90143 80.6453 1.91503 79.8505C1.92782 79.0973 1.93022 78.3441 1.91503 77.5917C1.90223 76.9472 1.85903 76.3035 1.82624 75.6599C1.82064 75.5527 1.80224 75.4456 1.78144 75.3408C1.68226 74.8547 1.3927 74.6052 0.897568 74.5572C0.624007 74.5308 0.336047 74.6156 0.0520868 74.4509V74.4501Z" fill="#FEFEFE"/>
<path d="M2.58427 69.419C1.84197 69.4142 1.28125 68.8521 1.28125 68.1124C1.28125 67.3296 1.85237 66.7667 2.63226 66.7795C3.39215 66.7915 3.91688 67.3272 3.92248 68.0972C3.92808 68.8968 3.39455 69.4246 2.58427 69.419Z" fill="#FEFEFE"/>
<path d="M90.9855 95.2708C90.6599 95.362 90.5976 95.5883 90.492 95.765C89.9728 96.6325 89.4649 97.5073 88.953 98.3788C88.8546 98.5459 88.7386 98.7043 88.661 98.8802C88.5154 99.2112 88.0163 99.1872 87.8323 98.8562C87.2468 97.8031 86.6205 96.7733 86.0062 95.737C85.9326 95.613 85.8374 95.5011 85.7638 95.4004C85.5798 95.4243 85.5646 95.5315 85.5638 95.641C85.5599 96.4382 85.5583 97.2346 85.5567 98.0318C85.5559 98.6339 85.5567 99.2352 85.5567 99.8301C85.2655 100.073 84.9735 99.9676 84.6496 99.942C84.6272 99.7989 84.592 99.6782 84.592 99.5574C84.588 97.5113 84.5864 95.4651 84.5896 93.419C84.5896 93.2734 84.6256 93.1287 84.644 92.9944C84.9039 92.8848 85.1359 92.9104 85.4079 92.96C85.7542 93.4006 86.0054 93.9259 86.2974 94.4241C86.8845 95.4267 87.4612 96.435 88.0443 97.4393C88.0859 97.5113 88.1363 97.588 88.2019 97.6336C88.2411 97.6616 88.3387 97.6576 88.3755 97.6264C88.4378 97.5744 88.477 97.4921 88.5194 97.4185C89.2817 96.0944 90.0424 94.7703 90.8055 93.447C90.9015 93.2806 91.0079 93.1215 91.1183 92.9448H91.8038C92.0053 93.1119 91.9502 93.319 91.951 93.5045C91.955 94.7103 91.9526 95.9169 91.9518 97.1227C91.9518 97.8551 91.9542 98.5875 91.9494 99.32C91.9478 99.5087 91.9238 99.6974 91.9086 99.9101C91.7526 99.9372 91.631 99.9748 91.5086 99.9764C91.0439 99.9812 90.9943 99.9396 90.9911 99.4591C90.9831 98.2965 90.9871 97.1331 90.9871 95.9705C90.9871 95.757 90.9871 95.5435 90.9871 95.2716L90.9855 95.2708Z" fill="#FEFEFE"/>
<path d="M110.064 92.9732C110.23 92.95 110.334 92.9236 110.439 92.9236C111.386 92.9204 112.334 92.8972 113.28 92.9276C114.442 92.9644 115.393 93.4433 116.086 94.398C116.384 94.8074 116.561 95.2696 116.636 95.7597C116.742 96.4466 116.72 97.1334 116.46 97.7931C116.076 98.7726 115.376 99.4219 114.388 99.7729C113.936 99.9336 113.474 99.9968 112.995 99.9904C112.22 99.98 111.445 99.9904 110.671 99.9856C110.483 99.9848 110.295 99.9616 110.085 99.9472C110.058 99.7849 110.02 99.6617 110.02 99.5394C110.016 97.4948 110.017 95.4511 110.02 93.4065C110.02 93.281 110.044 93.1555 110.064 92.974V92.9732ZM111.068 93.8495C111.06 94.1118 111.047 94.3253 111.047 94.5388C111.045 95.8101 111.046 97.0815 111.046 98.3528C111.046 98.4823 111.042 98.6119 111.049 98.7406C111.067 99.0524 111.132 99.1268 111.434 99.1324C111.93 99.142 112.426 99.1244 112.921 99.1428C113.412 99.162 113.864 99.0141 114.286 98.807C114.843 98.5335 115.249 98.0993 115.474 97.5004C115.622 97.1062 115.666 96.7073 115.649 96.2955C115.591 94.8298 114.601 93.9335 113.188 93.7783C112.592 93.7128 111.982 93.7672 111.379 93.7736C111.297 93.7743 111.216 93.8119 111.068 93.8487V93.8495Z" fill="#FEFEFE"/>
<path d="M136.141 97.8754C136.134 98.5855 136.126 99.2252 136.12 99.8704C135.785 100.046 135.478 100.014 135.173 99.936C135.079 99.453 135.03 95.0777 135.099 93.349C135.103 93.225 135.143 93.1035 135.168 92.9668C135.316 92.95 135.442 92.9236 135.567 92.9228C136.428 92.9188 137.289 92.9132 138.149 92.9228C138.888 92.9316 139.546 93.1706 140.063 93.7096C140.238 93.8911 140.392 94.1126 140.487 94.3445C141.038 95.679 140.604 97.4205 138.607 97.7915C138.335 97.8419 138.051 97.8363 137.773 97.8435C137.26 97.8579 136.745 97.8243 136.141 97.8754ZM136.224 96.9799C136.893 96.9799 137.537 97.0119 138.176 96.9671C138.531 96.9423 138.873 96.8096 139.173 96.5657C139.832 96.0284 139.904 94.6771 139.036 94.0894C138.732 93.8831 138.379 93.7727 138.007 93.7671C137.513 93.7591 137.019 93.7599 136.526 93.7703C136.407 93.7727 136.29 93.8279 136.185 93.8551C136.1 94.5699 136.117 96.4362 136.225 96.9807L136.224 96.9799Z" fill="#FEFEFE"/>
<path d="M148.968 98.3633C148.743 98.8534 148.495 99.3955 148.259 99.9073C147.878 99.9776 147.537 99.9638 147.236 99.8657C148.255 97.5733 149.239 95.2705 150.285 92.9932C150.645 92.8797 150.981 92.9037 151.355 92.9772C152.37 95.2585 153.395 97.5461 154.413 99.8713C154.089 100.035 153.792 100.013 153.509 99.9449C153.408 99.9209 153.307 99.7898 153.256 99.6834C153.088 99.3356 152.939 98.979 152.792 98.6207C152.701 98.3969 152.554 98.2705 152.307 98.2721C151.231 98.2801 150.156 98.2865 149.081 98.2953C149.062 98.2953 149.044 98.3161 148.969 98.3633H148.968ZM150.728 94.2646C150.262 95.2625 149.838 96.2819 149.398 97.3054C149.49 97.3558 149.544 97.4102 149.598 97.4102C150.393 97.4126 151.188 97.4102 151.983 97.4022C152.039 97.4022 152.094 97.3486 152.184 97.3022C151.957 96.5394 151.582 95.843 151.281 95.1177C151.167 94.8427 151.021 94.5804 150.882 94.3158C150.869 94.2902 150.807 94.2894 150.728 94.2646Z" fill="#FEFEFE"/>
<path d="M98.4844 99.9062C98.4844 97.6578 98.4844 95.4437 98.4868 93.2296C98.4868 93.1489 98.5268 93.0673 98.5508 92.9785C98.646 92.9586 98.7283 92.9258 98.8115 92.9258C100.254 92.9258 101.696 92.9282 103.137 92.9338C103.197 92.9338 103.256 92.9721 103.332 92.9977C103.429 93.2216 103.417 93.4439 103.352 93.6534C103.13 93.8037 102.909 93.7573 102.7 93.7589C101.882 93.7645 101.064 93.7598 100.246 93.7638C100.035 93.7646 99.8234 93.7813 99.6298 93.7893C99.4682 94.2843 99.465 95.3477 99.6154 95.8699C100.159 95.9698 100.718 95.8971 101.273 95.917C101.806 95.9362 102.342 95.8835 102.876 95.9538C103 96.2105 102.975 96.436 102.913 96.7086C102.747 96.7302 102.583 96.7678 102.419 96.7694C101.687 96.7766 100.955 96.7702 100.223 96.775C100.011 96.7766 99.7914 96.7382 99.597 96.8558C99.481 97.3379 99.473 98.4549 99.5818 99.0299C99.737 99.1858 99.941 99.1338 100.127 99.1346C101.053 99.1402 101.978 99.1346 102.904 99.1394C103.093 99.1402 103.293 99.0914 103.491 99.2497V99.8886C103.394 99.9198 103.297 99.9774 103.201 99.9774C101.715 99.9822 100.231 99.9798 98.7451 99.9758C98.6843 99.9758 98.6236 99.9446 98.4844 99.9062Z" fill="#FEFEFE"/>
<path d="M128.16 93.5103C128.099 93.8067 127.991 94.0503 127.836 94.2412C127.457 94.1148 127.076 93.9813 126.689 93.8606C126.066 93.6655 125.461 93.7374 124.874 94.0053C124.523 94.166 124.366 94.4666 124.356 94.8345C124.347 95.1575 124.483 95.4269 124.79 95.5693C125.061 95.6956 125.338 95.8187 125.623 95.9059C125.993 96.0194 126.379 96.0786 126.748 96.1938C127.054 96.2889 127.359 96.4064 127.641 96.5576C128.833 97.1932 128.699 98.5589 128.044 99.2482C127.689 99.6208 127.244 99.8367 126.747 99.9183C125.727 100.085 124.727 100.012 123.784 99.5464C123.136 99.2266 123.053 99.0963 123.515 98.4542C123.597 98.4774 123.708 98.483 123.787 98.5358C124.208 98.814 124.68 98.9747 125.161 99.0795C125.757 99.209 126.365 99.209 126.925 98.9188C127.108 98.8244 127.278 98.6653 127.397 98.4958C127.649 98.1328 127.511 97.6482 127.098 97.3804C126.75 97.1541 126.349 97.0621 125.954 96.959C125.518 96.8454 125.083 96.7215 124.654 96.584C124.472 96.5256 124.303 96.4248 124.132 96.3353C123.328 95.9139 123.032 94.7289 123.641 93.863C123.984 93.3752 124.469 93.0929 125.03 92.9978C126.044 92.8259 127.049 92.8507 127.983 93.3704C128.037 93.4008 128.081 93.4488 128.158 93.5119L128.16 93.5103Z" fill="#FEFEFE"/>
</g>
<defs>
<clipPath id="clip0_6181_6384">
<rect width="239" height="100" fill="white"/>
</clipPath>
</defs>
</svg>
