<?xml version="1.0" encoding="UTF-8"?><svg id="Layer_1" xmlns="http://www.w3.org/2000/svg" viewBox="0 0 200 45.96"><defs><style>.cls-1{fill:#095360;}</style></defs><polygon class="cls-1" points="54.69 8.59 57.2 8.59 57.2 24.46 54.69 24.46 54.69 25.06 62.09 25.06 62.09 24.46 59.36 24.46 59.36 8.59 62.09 8.59 62.09 7.98 54.69 7.98 54.69 8.59"/><polygon class="cls-1" points="76.75 8.59 79.34 8.59 79.34 21.52 71.16 7.98 68.98 7.98 68.54 7.98 66 7.98 66 8.59 68.36 8.59 68.36 24.46 66 24.46 66 25.06 71.65 25.06 71.65 24.46 68.98 24.46 68.98 8.71 79.12 25.29 79.96 25.29 79.96 8.59 82.36 8.59 82.36 7.98 76.75 7.98 76.75 8.59"/><path class="cls-1" d="M94.38,8.59h2.28c.67,0,1.2.1,1.61.3.41.2.72.49.93.88.22.39.36.86.43,1.42.07.56.11,1.2.11,1.92h.6v-5.12h-14.09v5.12h.6c0-.72.04-1.36.11-1.92.07-.56.21-1.04.43-1.42.21-.39.52-.68.93-.88.41-.2.94-.3,1.61-.3h2.28v15.87h-2.51v.6h7.17v-.6h-2.51v-15.87Z"/><path class="cls-1" d="M116.51,19.94h-.6c0,.96-.12,1.78-.35,2.45-.23.67-.64,1.18-1.21,1.54-.58.35-1.39.53-2.43.53h-3.63v-7.93h1.35c.43,0,.81.08,1.13.23s.58.39.76.71c.18.32.27.74.27,1.25h.6v-4.89h-.6c0,.51-.09.92-.27,1.22-.18.31-.43.53-.76.67s-.7.21-1.13.21h-1.35v-7.34h3.87c.89,0,1.59.17,2.1.51.51.34.88.81,1.09,1.42.22.61.32,1.32.32,2.13h.6v-4.67h-12.22v.6h2.05v15.87h-2.05v.6h12.45v-5.12Z"/><path class="cls-1" d="M134.45,24.44c-.18.05-.39.07-.62.07-.37,0-.63-.14-.77-.43-.14-.29-.22-.67-.25-1.15-.03-.48-.05-1-.06-1.58-.02-.57-.08-1.14-.21-1.71-.12-.57-.34-1.09-.67-1.57-.32-.48-.8-.86-1.44-1.16-.48-.22-1.09-.36-1.82-.41.76-.06,1.44-.19,2.02-.38.85-.28,1.49-.72,1.93-1.33.44-.61.66-1.4.66-2.39s-.24-1.81-.71-2.47c-.47-.66-1.13-1.15-1.99-1.47-.85-.32-1.85-.48-3-.48h-7.52v.6h2.51v15.87h-2.51v.6h7.19v-.6h-2.52v-7.66h2.73c.7,0,1.25.12,1.65.35.4.24.69.55.87.95.18.4.3.85.35,1.34.05.5.08,1.01.09,1.54,0,.53.03,1.05.07,1.54.04.5.15.95.31,1.34.17.4.43.72.8.95s.88.35,1.54.35c.43,0,.84-.03,1.21-.1.38-.07.65-.15.84-.25l-.22-.57c-.15.08-.32.14-.5.19ZM127.53,8.59c.73,0,1.35.14,1.86.43.51.29.9.72,1.17,1.29.27.57.4,1.27.4,2.1s-.13,1.52-.4,2.09c-.27.57-.66.99-1.17,1.28-.51.28-1.13.43-1.86.43h-2.85v-7.61h2.85Z"/><path class="cls-1" d="M138.96,8.59h2.05v15.87h-2.05v.6h6.49v-.6h-2.27v-7.6h1.02c.66,0,1.19.07,1.58.21.39.14.68.36.87.67.18.31.27.72.27,1.22h.6v-4.66h-.6c0,.51-.09.91-.27,1.19-.18.28-.47.49-.87.6-.39.12-.92.18-1.58.18h-1.02v-7.69h3.63c.89,0,1.59.17,2.1.51.51.34.88.81,1.1,1.42.22.61.33,1.32.33,2.13h.6v-4.67h-11.99v.6Z"/><path class="cls-1" d="M160.37,7.65h-.62l-5.93,16.81h-2.04v.6h5.01v-.6h-2.29l1.63-4.67h6.06l1.51,4.67h-2.28v.6h6.6v-.6h-1.83l-5.83-16.81ZM156.34,19.2l2.94-8.44,2.73,8.44h-5.67Z"/><path class="cls-1" d="M182.57,22.05c-.25.51-.6.96-1.04,1.34-.44.38-.96.68-1.55.89-.6.21-1.26.32-2,.32-.99,0-1.82-.22-2.51-.67-.68-.45-1.23-1.05-1.65-1.81-.42-.76-.72-1.62-.91-2.59-.19-.97-.28-1.97-.28-3s.09-2.03.28-3c.19-.97.49-1.83.91-2.59.42-.76.97-1.36,1.65-1.81.68-.45,1.52-.67,2.51-.67.81,0,1.57.17,2.28.5.71.33,1.29.82,1.75,1.45s.71,1.38.76,2.25h.61v-4.67h-.54l-1.1,1.24c-.53-.46-1.14-.82-1.83-1.08-.69-.26-1.41-.39-2.16-.39-1.54,0-2.89.38-4.05,1.13-1.16.76-2.06,1.79-2.71,3.11-.65,1.32-.97,2.83-.97,4.52s.32,3.2.97,4.52c.65,1.32,1.55,2.36,2.71,3.11,1.16.76,2.51,1.13,4.05,1.13.87,0,1.67-.14,2.41-.42.74-.28,1.38-.65,1.91-1.13l1.01,1.32h.54v-4.67h-.6c-.05.59-.19,1.14-.44,1.66Z"/><path class="cls-1" d="M199.4,19.94c0,.96-.12,1.78-.35,2.45-.23.67-.64,1.18-1.21,1.54-.58.35-1.39.53-2.43.53h-3.63v-7.93h1.35c.43,0,.81.08,1.13.23.32.15.58.39.76.71.18.32.27.74.27,1.25h.6v-4.89h-.6c0,.51-.09.92-.27,1.22-.18.31-.43.53-.76.67-.32.14-.7.21-1.13.21h-1.35v-7.34h3.87c.89,0,1.59.17,2.1.51.51.34.88.81,1.09,1.42.22.61.32,1.32.32,2.13h.6v-4.67h-12.22v.6h2.05v15.87h-2.05v.6h12.45v-5.12h-.6Z"/><path class="cls-1" d="M91.14,32.84h-.49l-1.83,5.18h-.63v.18h1.55v-.18h-.71l.5-1.42h1.69l.46,1.42h-.61v.18h2.43v-.18h-.56l-1.8-5.18ZM89.59,36.41l.81-2.33.75,2.33h-1.57Z"/><path class="cls-1" d="M101.06,37.38c-.12.21-.28.37-.49.48-.21.11-.48.17-.79.17h-.7v-2.45h.2c.13,0,.26.03.37.1.11.07.21.16.29.27.08.12.14.25.18.41h.19v-1.72h-.19c-.04.16-.09.29-.18.4s-.18.2-.29.26-.24.09-.37.09h-.2v-2.27h.77c.27,0,.51.05.7.16.19.11.34.25.45.44.11.19.18.41.22.66h.19v-1.44h-4.05v.18h.64v4.9h-.64v.18h4.12v-1.58h-.19c-.04.3-.11.55-.23.76Z"/><path class="cls-1" d="M108.72,35.45c-.17-.14-.35-.26-.55-.36-.2-.1-.4-.19-.6-.28-.2-.08-.38-.17-.55-.26-.17-.09-.3-.2-.4-.31-.1-.12-.15-.26-.15-.43,0-.22.08-.4.23-.53.15-.13.37-.19.65-.19.24,0,.46.06.65.17.19.11.36.27.5.48.14.21.26.45.35.74h.19v-1.58h-.16l-.52.39c-.14-.13-.3-.22-.48-.29-.18-.07-.37-.1-.58-.1-.28,0-.54.06-.77.17-.24.11-.43.27-.57.48-.14.21-.22.46-.22.75s.05.54.15.74c.1.2.24.37.4.5.17.14.35.25.55.35.2.1.4.18.6.27.2.08.38.17.55.26.17.09.3.2.4.33.1.13.15.29.15.48s-.04.35-.13.49c-.09.14-.21.24-.37.32-.16.07-.35.11-.57.11-.23,0-.44-.04-.62-.13-.18-.09-.33-.2-.47-.34-.13-.14-.25-.3-.34-.48-.09-.18-.17-.36-.24-.54h-.19v1.65h.17l.53-.43c.15.14.32.25.52.34.2.08.43.12.68.12.33,0,.63-.07.89-.2.26-.13.47-.32.63-.56.15-.24.23-.53.23-.85,0-.29-.05-.53-.15-.73-.1-.2-.24-.37-.4-.51Z"/><path class="cls-1" d="M113.22,34.62h.19c.03-.22.07-.43.12-.61.05-.18.13-.34.22-.48s.2-.24.34-.31c.13-.07.29-.11.48-.11h.42v4.9h-.77v.18h2.63v-.18h-.77v-4.9h.42c.19,0,.35.04.48.11.13.07.25.18.34.31.09.13.16.29.22.48.05.18.1.39.12.61h.18v-1.69h-4.61v1.69Z"/><polygon class="cls-1" points="124.68 33.12 125.31 33.12 125.31 35.51 123.42 35.51 123.42 33.12 124.05 33.12 124.05 32.94 121.69 32.94 121.69 33.12 122.33 33.12 122.33 38.02 121.69 38.02 121.69 38.2 124.05 38.2 124.05 38.02 123.42 38.02 123.42 35.7 125.31 35.7 125.31 38.02 124.68 38.02 124.68 38.2 127.03 38.2 127.03 38.02 126.4 38.02 126.4 33.12 127.03 33.12 127.03 32.94 124.68 32.94 124.68 33.12"/><path class="cls-1" d="M134.6,37.38c-.12.21-.28.37-.49.48-.21.11-.48.17-.79.17h-.7v-2.45h.2c.13,0,.26.03.37.1.11.07.21.16.29.27.08.12.14.25.18.41h.19v-1.72h-.19c-.04.16-.09.29-.18.4-.08.11-.18.2-.29.26s-.24.09-.37.09h-.2v-2.27h.77c.27,0,.51.05.7.16.19.11.34.25.45.44.11.19.18.41.22.66h.19v-1.44h-4.05v.18h.64v4.9h-.64v.18h4.12v-1.58h-.19c-.04.3-.11.55-.23.76Z"/><path class="cls-1" d="M138.97,34.62h.19c.03-.22.07-.43.12-.61.05-.18.13-.34.22-.48.09-.13.2-.24.34-.31.13-.07.29-.11.48-.11h.42v4.9h-.77v.18h2.63v-.18h-.77v-4.9h.42c.19,0,.35.04.48.11.13.07.25.18.34.31s.16.29.22.48c.05.18.1.39.12.61h.18v-1.69h-4.61v1.69Z"/><polygon class="cls-1" points="147.45 33.12 148.22 33.12 148.22 38.02 147.45 38.02 147.45 38.2 150.15 38.2 150.15 38.02 149.31 38.02 149.31 33.12 150.15 33.12 150.15 32.94 147.45 32.94 147.45 33.12"/><path class="cls-1" d="M158.16,37.2c-.09.17-.2.32-.33.44-.13.13-.28.22-.45.29-.17.07-.37.11-.6.11-.26,0-.48-.07-.65-.2-.18-.14-.32-.32-.42-.55-.1-.23-.18-.5-.22-.79-.05-.3-.07-.6-.07-.92s.02-.63.07-.92c.05-.29.12-.56.22-.79.1-.23.24-.42.42-.55.18-.14.39-.2.65-.2.24,0,.46.06.66.17s.37.27.52.48c.15.21.27.46.36.74h.19v-1.55h-.16l-.53.35c-.15-.13-.32-.23-.51-.31-.19-.07-.39-.11-.6-.11-.52,0-.97.12-1.35.35-.38.23-.67.55-.87.96-.2.41-.31.87-.31,1.39s.1.98.31,1.39c.2.41.49.73.87.96.38.23.83.35,1.35.35.25,0,.47-.04.68-.12.2-.08.38-.18.54-.32l.49.37h.16v-1.55h-.19c-.07.2-.14.38-.24.55Z"/><path class="cls-1" d="M165.96,35.45c-.17-.14-.35-.26-.55-.36-.2-.1-.4-.19-.6-.28-.2-.08-.38-.17-.55-.26-.17-.09-.3-.2-.4-.31-.1-.12-.15-.26-.15-.43,0-.22.08-.4.23-.53.15-.13.37-.19.65-.19.24,0,.46.06.65.17.19.11.36.27.5.48.14.21.26.45.35.74h.19v-1.58h-.16l-.52.39c-.14-.13-.3-.22-.48-.29-.18-.07-.37-.1-.58-.1-.28,0-.54.06-.77.17-.24.11-.43.27-.57.48-.14.21-.22.46-.22.75s.05.54.15.74c.1.2.24.37.4.5.17.14.35.25.55.35.2.1.4.18.6.27.2.08.38.17.55.26.17.09.3.2.4.33.1.13.15.29.15.48s-.04.35-.13.49c-.09.14-.21.24-.37.32s-.35.11-.57.11c-.23,0-.44-.04-.62-.13-.18-.09-.33-.2-.47-.34-.13-.14-.25-.3-.34-.48-.09-.18-.17-.36-.24-.54h-.19v1.65h.17l.53-.43c.15.14.32.25.52.34.2.08.43.12.68.12.33,0,.63-.07.89-.2.26-.13.47-.32.63-.56.15-.24.23-.53.23-.85,0-.29-.05-.53-.15-.73-.1-.2-.24-.37-.4-.51Z"/><path class="cls-1" d="M45.81,22.9s0-.02,0-.03c0,0,0,0,0,0,0-.01,0-.02,0-.03,0,0,0,0,0,0,0,0,0-.02-.01-.02,0,0,0,0,0,0,0,0-.01-.02-.02-.03,0,0,0,0,0,0L28.19,5.2s0,0,0,0L23.05.06c-.07-.07-.2-.07-.28,0l-7.48,7.48s0,0,0,0L.06,22.77s0,0,0,0c0,0,0,.01-.01.02,0,0,0,0,0,.01,0,0,0,.01,0,.02,0,0,0,.01,0,.02,0,0,0,.01,0,.02,0,0,0,.01,0,.02,0,0,0,.01,0,.02,0,0,0,.01,0,.02,0,0,0,.01,0,.02,0,0,0,.01,0,.02,0,0,0,.01,0,.02,0,0,0,.01,0,.02,0,0,0,0,0,0,0,0,0,0,0,.01,0,0,0,0,0,0,0,0,.01.02.02.03,0,0,0,0,0,0l12.89,12.89c-.21.5-.43.99-.66,1.5-.2.45-.41.91-.61,1.38-.02.06-.02.12,0,.17.03.05.08.09.14.1.06.01.13.03.2.04.13.03.26.06.39.07,2.48.19,4.49,1.35,5.95,3.44,1.37,1.96,2.84,2.99,4.61,3.26.32.05.63.06.97.06.27,0,.55,0,.85-.02.32-.01.66-.02,1.02-.02.07,0,.13-.03.17-.09.04-.06.04-.13.01-.19-.33-.69-.61-1.33-.86-1.95l9.34-9.34s0,0,0,0,0,0,0,0l11.31-11.31s0,0,0,0c0,0,.01-.02.02-.02,0,0,0,0,0,0,0,0,.01-.02.02-.03,0,0,0,0,0,0,0,0,0-.02,0-.03,0,0,0,0,0,0,0,0,0-.02,0-.03,0,0,0,0,0,0,0,0,0,0,0,0ZM44.3,21.86l-10.31-6.35c.07-.52.13-1.06.14-1.61.02-.97-.19-1.92-.62-2.83l10.79,10.79ZM33.29,27.8c-.03-.27.08-.65.23-.78l.05-.05c.44-.39.67-.59.68-.86,0-.25-.17-.47-.51-.81.34-.16.68-.39.8-.75.11-.32.03-.69-.23-1.12,0-.09.14-.37.32-.58.07-.08.19-.15.32-.21.11-.06.22-.11.33-.19.43-.34.65-.68.67-1.04.02-.37-.17-.75-.57-1.16-.12-.12-.24-.23-.35-.35-.58-.56-1.13-1.09-1.2-1.87-.05-.63,0-1.22.07-1.83l5.48,9.44c.05.09.15.12.24.08l-6.39,3.24c.08-.31.1-.69.05-1.16ZM15.62,7.75l3.31-3.31c.29,2.71-.82,6.08-3.31,10.03v-6.72ZM15.59,15.24s0,0,0,0c1.42-2.17,2.44-4.2,3.06-6.04.64-1.89.85-3.61.63-5.1l3.62-3.62,4.96,4.96c0,.05.01.1.02.15,0,.01,0,.03,0,.04,0,.08.02.15.02.23,0,.03,0,.06,0,.08,0,.06,0,.13.01.19,0,.04,0,.08,0,.12,0,.06,0,.13,0,.19,0,.03,0,.07,0,.1,0,.48-.05.96-.14,1.45,0,.03-.01.05-.02.08-.01.07-.03.13-.04.2-.35,1.55-1.15,3.1-2.34,4.55-.12.14-.24.28-.37.42-.1.11-.21.23-.32.33-.04.04-.07.07-.11.11-.88.88-1.85,1.66-2.86,2.35-.03.02-.06.04-.09.06-.72.49-1.48.95-2.21,1.4-.19.12-.39.24-.58.36,0,0,0,0,0,0-.04.03-.09.05-.13.08-.18.1-.35.21-.53.31-.18.1-.35.21-.53.32-.19.12-.36.22-.52.32-.81.51-1.45.96-2.01,1.42-1.06.86-1.88,1.8-2.44,2.79-.01.02-.02.03-.02.05-.2.37-.37.74-.49,1.09-.6,1.71-.4,3.57.52,4.86.26.38.61.71,1,.98-1.01-.23-2.39-.78-3.06-2.12-.5-1-.53-2.31-.09-3.88.54-1.93,1.81-4.28,3.76-6.97.45-.62.87-1.24,1.27-1.84ZM12.92,23.52c.28.29.6.58.94.87.51.43.79.93.91,1.64.21,1.31.2,2.66-.03,4.11-.69-.26-1.3-.72-1.7-1.3-.85-1.19-1.03-2.91-.47-4.5.09-.27.21-.55.36-.83ZM15.23,8.15v6.87L1.21,22.17l14.02-14.02ZM7.5,29.94L.52,22.96l7.09-3.62-.11,10.6ZM8.01,19.14l6.84-3.49c-.27.4-.55.8-.84,1.2-3.66,5.06-4.91,8.84-3.7,11.25.57,1.15,1.61,1.77,2.55,2.1h-4.96l.11-11.07ZM8.17,30.6h6.48c-.3,1.57-.83,3.08-1.27,4.24-.08.22-.17.45-.28.7l-4.94-4.94ZM25.49,45.52c-.25,0-.49.01-.72.02-.64.02-1.2.04-1.74-.04-1.66-.25-3.05-1.24-4.35-3.1-1.53-2.2-3.63-3.41-6.24-3.61-.1,0-.21-.03-.31-.05.17-.39.34-.78.51-1.15.24-.54.49-1.09.72-1.63,0,0,0,0,0,0,0,0,0,0,0,0,.15-.36.28-.68.39-.98.46-1.23,1.03-2.86,1.33-4.54.28-1.58.31-3.04.07-4.47-.13-.81-.45-1.39-1.04-1.88-.38-.31-.71-.63-1-.94.49-.84,1.18-1.64,2.05-2.38.41-.31.85-.61,1.28-.89.22-.15.45-.3.67-.45.67-.46,1.36-.9,1.95-1.26.13-.08.26-.16.39-.23.84-.5,1.69-1.03,2.53-1.61.69-.47,1.29-.91,1.81-1.35.69-.58,1.34-1.23,1.91-1.93.01-.01.03-.03.04-.04.22-.26.42-.53.62-.8.06-.09.13-.18.19-.28.04-.06.08-.12.12-.19.14-.23.28-.45.4-.68.07-.13.14-.26.21-.4.44-.88.75-1.78.91-2.68,0-.02,0-.03,0-.05,0-.02,0-.05.01-.07.03-.15.05-.29.06-.44,0-.04,0-.09.01-.13,0-.05,0-.09.01-.14,0-.05,0-.09.01-.13,0-.05,0-.09,0-.14,0,0,0,0,0-.01,0-.04,0-.08,0-.12,0-.05,0-.1,0-.14,0-.01,0-.03,0-.05,0-.07,0-.14,0-.21,0-.03,0-.05,0-.08,0-.08,0-.17-.01-.25,0,0,0-.02,0-.03,0,0,0-.01,0-.02,0,0,0,0,0,0,0-.04,0-.08,0-.12l4.27,4.27c.04.12.09.22.15.31.69,1.09,1.04,2.25,1.01,3.44-.01.58-.09,1.15-.16,1.71-.1.8-.21,1.62-.14,2.47.08.93.71,1.53,1.31,2.12.11.11.23.22.35.34.33.33.48.61.46.86-.01.24-.19.49-.52.75-.07.06-.16.1-.26.15-.16.08-.33.17-.45.31-.06.07-.56.7-.36,1.02.2.33.27.6.2.8-.08.23-.35.43-.84.62-.06.02-.11.08-.12.14-.01.06,0,.13.05.18.34.33.6.6.6.72,0,.11-.23.31-.54.58l-.06.05c-.27.25-.39.76-.36,1.11.07.71-.01,1.16-.26,1.43,0,0,0,0-.01.01-.24.26-.67.37-1.33.34-.33-.01-.65-.07-.98-.13-.14-.03-.29-.05-.44-.07-.28-.04-.57-.09-.85-.14-.67-.11-1.36-.23-2.05-.26-1.21-.04-2.11.59-2.54,1.79-.02.07-.04.13-.07.2,0,0,0,0,0,0,0,0,0,0,0,0-.72,2.11-1.06,4.08-1.05,6.02,0,2.14.44,4.26,1.39,6.65.23.58.49,1.18.79,1.81ZM24.92,43.18c-.83-2.19-1.22-4.14-1.22-6.12,0-1.84.31-3.72.97-5.72l5.78,1.85-5.54,9.99ZM25.73,42.51l5.11-9.2,3.1.99-8.21,8.21ZM30.81,32.89s0,0,0,0l-6-1.92s0,0,0,0c.37-1.04,1.11-1.57,2.15-1.53.67.03,1.35.14,2,.25.28.05.57.1.86.14.14.02.29.05.42.07.34.06.69.12,1.04.13.54.02.95-.05,1.26-.2l1.45,4.08-3.18-1.02ZM34.39,33.86l-1.5-4.23.03-.06,11.69-5.93-10.22,10.22ZM39.65,25.71c.09-.06.12-.17.07-.26l-5.38-9.26,10.88,6.7-5.57,2.82Z"/></svg>