<svg width="90" height="28" viewBox="0 0 90 28" fill="none" xmlns="http://www.w3.org/2000/svg">
<g id="Logo Black">
<g id="layer1">
<g id="g438">
<path id="path88" d="M58.7559 27.8314C58.4357 27.7791 58.1121 27.7339 57.792 27.6712C55.5127 27.2182 54.1556 25.8142 53.5953 23.5915C53.3831 22.7553 53.3796 21.9018 53.3691 21.0517C53.3482 18.829 53.3309 16.6063 53.3239 14.3835C53.3173 11.7671 53.32 9.15069 53.3305 6.53427C53.3344 5.55529 53.4419 4.58329 53.755 3.6496C54.3431 1.90067 55.5471 0.768407 57.3114 0.287621C58.8738 -0.137413 60.4606 -0.0781834 62.0126 0.378216C63.6655 0.862492 64.6225 1.99128 64.9635 3.67052C65.1723 4.70873 65.1618 5.75738 65.1827 6.80255C65.1893 7.13353 65.1827 7.46798 65.1827 7.81637C64.5598 7.81637 63.93 7.81637 63.2723 7.81637C63.2723 7.71537 63.2762 7.62127 63.2723 7.5272C63.2374 6.31133 63.2305 5.09543 63.1505 3.87955C63.1157 3.32909 62.98 2.76819 62.806 2.24212C62.4719 1.23526 61.7516 0.639511 60.6972 0.479249C59.8934 0.357318 59.0861 0.332932 58.2823 0.479249C57.1722 0.681318 56.4205 1.32584 55.996 2.36056C55.6724 3.14096 55.4984 3.95968 55.4775 4.80278C55.4288 6.68758 55.3766 8.57586 55.3627 10.4607C55.3453 13.1642 55.3561 15.8712 55.3587 18.5747C55.3627 19.7627 55.3522 20.9507 55.3935 22.1352C55.4317 23.1909 55.5257 24.2465 55.898 25.2498C56.3922 26.5842 57.3387 27.3228 58.7689 27.4377C59.4196 27.49 60.0634 27.483 60.7037 27.3611C61.9773 27.1207 62.7185 26.3403 63.0351 25.107C63.2822 24.1489 63.3588 23.17 63.3692 22.184C63.3831 20.9368 63.3731 19.693 63.3731 18.4284C63.9891 18.4284 64.5876 18.4284 65.2174 18.4284C65.2174 18.951 65.2135 19.4666 65.2174 19.9822C65.224 21.3549 65.1513 22.7206 64.9495 24.0793C64.7233 25.6018 63.8081 26.6051 62.4614 27.2566C61.755 27.598 60.986 27.6851 60.2204 27.7827C60.1509 27.7932 60.0812 27.8106 60.0117 27.8244C59.601 27.831 59.177 27.8314 58.7559 27.8314Z" fill="#212526"/>
<path id="path90" d="M5.87374 27.832C5.5188 27.7588 5.16038 27.7031 4.8124 27.6091C3.80325 27.3408 2.94374 26.8461 2.35565 25.9472C1.96939 25.3515 1.80583 24.6861 1.71536 23.9928C1.53789 22.6654 1.58661 21.3311 1.57964 19.9967C1.57623 19.4532 1.57964 18.9063 1.57964 18.3488C2.21297 18.3488 2.82194 18.3488 3.47614 18.3488C3.47614 18.7042 3.47272 19.063 3.47614 19.4253C3.49006 20.9408 3.5005 22.4564 3.52139 23.9719C3.53178 24.6512 3.63622 25.3236 3.83806 25.9716C4.106 26.8252 4.7428 27.2432 5.59188 27.3791C6.21476 27.4801 6.84113 27.4593 7.46054 27.3268C8.19478 27.1701 8.675 26.7032 8.99166 26.0448C9.2596 25.4839 9.37792 24.8811 9.41272 24.2715C9.46839 23.296 9.52408 22.3205 9.52408 21.3485C9.53447 14.5165 9.52749 7.68804 9.52749 0.856095C9.52749 0.7551 9.52749 0.654041 9.52749 0.539062C10.1921 0.539062 10.8359 0.539062 11.511 0.539062C11.511 0.622676 11.511 0.69932 11.511 0.775968C11.511 7.73681 11.5144 14.6977 11.5076 21.662C11.5076 22.756 11.4032 23.8464 11.0308 24.8881C10.4427 26.543 9.25613 27.4662 7.54058 27.7449C7.39443 27.7693 7.24828 27.8006 7.09864 27.8319C6.68803 27.8319 6.28088 27.832 5.87374 27.832Z" fill="#212526"/>
<path id="path92" d="M89.42 1.27783C87.875 1.27388 86.33 1.27388 84.7849 1.27125C84.764 1.27125 84.7432 1.27783 84.7014 1.28863C84.7014 9.92175 84.7014 18.5549 84.7014 27.2054C84.0089 27.2054 83.3338 27.2054 82.6344 27.2054C82.6344 18.5688 82.6344 9.93569 82.6344 1.27817C81.0546 1.27817 79.4991 1.27817 77.9297 1.27817C77.9297 1.01687 77.9297 0.779981 77.9297 0.511719C78.0062 0.511719 78.0828 0.511719 78.1594 0.511719C81.834 0.511719 85.5052 0.511719 89.1799 0.511719C89.2599 0.511719 89.34 0.525676 89.4166 0.532655C89.4205 0.783496 89.42 1.03048 89.42 1.27783Z" fill="#212526"/>
<path id="path94" d="M30.3127 14.1777C30.3127 18.3131 30.3127 22.4067 30.3127 26.5212C33.448 26.5212 36.5729 26.5212 39.7116 26.5212C39.7116 26.7721 39.7116 27.002 39.7116 27.2494C35.8978 27.2494 32.0769 27.2494 28.2422 27.2494C28.2422 18.3445 28.2422 9.44658 28.2422 0.53125C32.063 0.53125 35.8838 0.53125 39.7151 0.53125C39.7151 0.771636 39.7151 1.00855 39.7151 1.26636C36.5833 1.26636 33.4584 1.26636 30.3161 1.26636C30.3161 5.32859 30.3161 9.36643 30.3161 13.4287C32.5467 13.4287 34.7668 13.4287 37.0044 13.4287C37.0044 13.683 37.0044 13.9199 37.0044 14.1812C34.7773 14.1773 32.5537 14.1777 30.3127 14.1777Z" fill="#212526"/>
</g>
</g>
</g>
</svg>
