<?xml version="1.0" encoding="UTF-8"?> <svg xmlns="http://www.w3.org/2000/svg" id="Layer_1" viewBox="0 0 100 16.38"><defs><style>.cls-1{fill:#f8c9de;}.cls-1,.cls-2,.cls-3{stroke-width:0px;}.cls-2{fill:#e0579f;}.cls-3{fill:#ea93be;}</style></defs><path class="cls-2" d="m23.07,10.38c0,.14.01.24.03.3.02.06.06.1.12.12.06.02.16.03.3.03h.27c.41,0,.77-.11,1.07-.33.3-.22.5-.52.61-.9,0-.01.01-.02.03-.02.01,0,.02,0,.04.01.01,0,.02.01.02.02-.05.53-.07.96-.07,1.31,0,.04,0,.07-.03.09s-.05.03-.09.03h-3.76s-.02-.02-.02-.05,0-.05.02-.05c.17,0,.29-.01.37-.04.08-.03.13-.08.16-.16.03-.08.04-.2.04-.35v-3.69c0-.16-.01-.28-.04-.35-.03-.07-.08-.13-.16-.16-.08-.03-.2-.04-.37-.04-.01,0-.02-.02-.02-.05s0-.05.02-.05h.41c.24.02.45.02.61.02s.36,0,.61-.02h.41s.02,0,.02.04,0,.05-.02.05c-.16,0-.29.01-.37.04-.08.03-.13.08-.16.16-.03.08-.04.2-.04.35v3.65Z"></path><path class="cls-2" d="m28.36,10.77c.03.07.08.12.16.15.08.03.2.04.37.04.02,0,.02.02.02.05s0,.05-.02.05c-.18,0-.31,0-.41,0h-.61s-.59,0-.59,0c-.11,0-.25,0-.43,0-.01,0-.02-.02-.02-.05s0-.05.02-.05c.17,0,.29-.01.37-.04.08-.03.13-.08.16-.16.03-.08.04-.2.04-.35v-3.69c0-.16-.01-.28-.04-.35-.03-.07-.08-.13-.16-.16-.08-.03-.2-.04-.37-.04-.01,0-.02-.02-.02-.05s0-.05.02-.05h.43c.24.02.44.02.59.02.16,0,.37,0,.61-.02h.41s.02,0,.02.04,0,.05-.02.05c-.16,0-.29.02-.37.05-.08.03-.13.09-.16.16-.03.08-.04.2-.04.35v3.67c0,.16.01.28.04.36Z"></path><path class="cls-2" d="m35.81,6.13s0,.05-.02.05c-.21,0-.38.08-.5.25-.12.17-.18.39-.18.67v4.08s-.01.03-.04.03c-.02,0-.04,0-.05,0l-3.73-4.25v3.1c0,.28.06.5.18.67.12.16.28.25.49.25.01,0,.02.02.02.05s0,.05-.02.05c-.15,0-.26,0-.34,0h-.43s-.49,0-.49,0c-.09,0-.22,0-.39,0-.02,0-.02-.02-.02-.05s0-.05.02-.05c.23,0,.42-.08.55-.25.14-.16.2-.39.2-.67v-3.37c-.18-.19-.33-.32-.45-.39-.12-.07-.25-.11-.39-.11-.01,0-.02-.02-.02-.05s0-.05.02-.05h.33c.07.01.17.02.3.02h.61c.07-.01.16-.02.27-.02.04,0,.07.01.1.03.02.02.06.07.11.14.09.12.15.2.19.25l2.75,3.18v-2.57c0-.29-.06-.51-.18-.68-.12-.16-.28-.25-.49-.25-.01,0-.02-.02-.02-.05s0-.05.02-.05h.34c.17.02.31.02.43.02.11,0,.25,0,.45-.02h.36s.02,0,.02.04Z"></path><path class="cls-2" d="m40.66,9.78s.03,0,.04.01c.01,0,.02.01.02.02-.05.41-.08.79-.08,1.13,0,.04,0,.07-.02.09-.02.02-.05.03-.1.03h-3.52s-.02-.02-.02-.05,0-.05.02-.05c.17,0,.29-.01.37-.04.08-.03.13-.08.16-.16.03-.08.04-.2.04-.35v-3.69c0-.16-.01-.28-.04-.35-.03-.07-.08-.13-.16-.16-.08-.03-.2-.04-.37-.04-.02,0-.02-.02-.02-.05s0-.05.02-.05h3.38c.05,0,.08.02.08.07l.02,1.06s-.01.02-.04.02c-.03,0-.05,0-.05-.02-.08-.31-.23-.54-.43-.68-.2-.15-.47-.22-.8-.22h-.24c-.16,0-.28.03-.35.1-.07.07-.11.18-.11.32v1.62h.66c.31,0,.54-.05.71-.16.16-.11.25-.25.25-.45,0-.02.01-.02.04-.02s.04,0,.04.02v.72s0,.38,0,.38c.01.18.02.32.02.43,0,.01-.02.02-.05.02s-.05,0-.05-.02c0-.22-.08-.39-.25-.51-.17-.12-.41-.19-.72-.19h-.65v1.8c0,.15.03.27.09.34.06.07.15.11.28.11h.26c.41,0,.75-.08,1-.25.25-.17.43-.43.55-.79,0-.01.01-.02.03-.02Z"></path><path class="cls-2" d="m43.57,10.38c0,.14.01.24.03.3.02.06.06.1.12.12.06.02.16.03.3.03h.27c.41,0,.77-.11,1.07-.33.3-.22.5-.52.61-.9,0-.01.01-.02.03-.02.01,0,.02,0,.04.01.01,0,.02.01.02.02-.05.53-.07.96-.07,1.31,0,.04,0,.07-.03.09s-.05.03-.09.03h-3.76s-.02-.02-.02-.05,0-.05.02-.05c.17,0,.29-.01.37-.04.08-.03.13-.08.16-.16.03-.08.04-.2.04-.35v-3.69c0-.16-.01-.28-.04-.35-.03-.07-.08-.13-.16-.16-.08-.03-.2-.04-.37-.04-.01,0-.02-.02-.02-.05s0-.05.02-.05h.41c.24.02.45.02.61.02s.36,0,.61-.02h.41s.02,0,.02.04,0,.05-.02.05c-.16,0-.29.01-.37.04-.08.03-.13.08-.16.16-.03.08-.04.2-.04.35v3.65Z"></path><path class="cls-2" d="m50.99,9.78s.03,0,.04.01c.01,0,.02.01.02.02-.05.41-.08.79-.08,1.13,0,.04,0,.07-.02.09-.02.02-.05.03-.1.03h-3.52s-.02-.02-.02-.05,0-.05.02-.05c.17,0,.29-.01.37-.04.08-.03.13-.08.16-.16.03-.08.04-.2.04-.35v-3.69c0-.16-.01-.28-.04-.35-.03-.07-.08-.13-.16-.16-.08-.03-.2-.04-.37-.04-.02,0-.02-.02-.02-.05s0-.05.02-.05h3.38c.05,0,.08.02.08.07l.02,1.06s-.01.02-.04.02c-.03,0-.05,0-.05-.02-.08-.31-.23-.54-.43-.68-.2-.15-.47-.22-.8-.22h-.24c-.16,0-.28.03-.35.1-.07.07-.11.18-.11.32v1.62h.66c.31,0,.54-.05.71-.16.16-.11.25-.25.25-.45,0-.02.01-.02.04-.02s.04,0,.04.02v.72s0,.38,0,.38c.01.18.02.32.02.43,0,.01-.02.02-.05.02s-.05,0-.05-.02c0-.22-.08-.39-.25-.51-.17-.12-.41-.19-.72-.19h-.65v1.8c0,.15.03.27.09.34.06.07.15.11.28.11h.26c.41,0,.75-.08,1-.25.25-.17.43-.43.55-.79,0-.01.01-.02.03-.02Z"></path><path class="cls-2" d="m53.73,7.4c.1.15.22.28.36.39.14.11.34.25.58.41.27.17.48.32.64.45.16.13.29.28.41.47.11.18.17.39.17.63,0,.28-.07.52-.22.74-.15.21-.35.38-.62.5-.26.12-.56.18-.88.18-.24,0-.49-.03-.75-.1-.26-.07-.44-.14-.53-.22-.03-.02-.05-.04-.06-.06-.01-.02-.02-.05-.02-.09l-.02-1.27h0s.01-.04.04-.04c.03,0,.04,0,.05.03.16.32.3.59.42.79.12.2.27.38.45.53.18.15.39.23.63.23.21,0,.39-.06.53-.17.14-.11.21-.31.21-.59,0-.23-.05-.44-.16-.61-.1-.18-.23-.32-.38-.45-.15-.12-.35-.27-.61-.44-.25-.16-.45-.31-.59-.42-.14-.12-.26-.26-.36-.42-.1-.16-.15-.36-.15-.58,0-.28.08-.52.24-.71.16-.19.37-.34.62-.43.25-.09.52-.14.8-.14.19,0,.37.02.57.05.19.03.34.08.46.12.05.02.08.04.1.07.02.02.02.05.02.09v1.17s-.01.03-.04.04c-.03,0-.04,0-.05-.01l-.06-.15c-.13-.33-.29-.62-.47-.85-.18-.23-.43-.35-.74-.35-.21,0-.39.06-.52.18-.14.12-.2.3-.2.53,0,.19.05.36.15.51Z"></path><path class="cls-2" d="m58.63,7.4c.1.15.22.28.36.39.14.11.34.25.58.41.27.17.48.32.64.45.16.13.29.28.41.47.11.18.17.39.17.63,0,.28-.07.52-.22.74-.15.21-.35.38-.62.5-.26.12-.56.18-.88.18-.24,0-.49-.03-.75-.1-.26-.07-.44-.14-.53-.22-.03-.02-.05-.04-.06-.06-.01-.02-.02-.05-.02-.09l-.02-1.27h0s.01-.04.04-.04c.03,0,.04,0,.05.03.16.32.3.59.42.79.12.2.27.38.45.53.18.15.39.23.63.23.21,0,.39-.06.53-.17.14-.11.21-.31.21-.59,0-.23-.05-.44-.16-.61-.1-.18-.23-.32-.38-.45-.15-.12-.35-.27-.61-.44-.25-.16-.45-.31-.59-.42-.14-.12-.26-.26-.36-.42-.1-.16-.15-.36-.15-.58,0-.28.08-.52.24-.71.16-.19.37-.34.62-.43.25-.09.52-.14.8-.14.19,0,.37.02.57.05.19.03.34.08.46.12.05.02.08.04.1.07.02.02.02.05.02.09v1.17s-.01.03-.04.04c-.03,0-.04,0-.05-.01l-.06-.15c-.13-.33-.29-.62-.47-.85-.18-.23-.43-.35-.74-.35-.21,0-.39.06-.52.18-.14.12-.2.3-.2.53,0,.19.05.36.15.51Z"></path><path class="cls-1" d="m92.54,6.91c-.22.2-.55.82-.17,1.02.17.09.35.03.44-.13.11-.14.2-.28.31-.46.24-.36-.35-.66-.58-.44Z"></path><path class="cls-1" d="m99.08,9.7c-.41.16-.9.55-1.23.8-.99-.83-.25-1.68.61-1.86.55-.11.25-.86-.31-.66-.79.28-1.38.97-1.35,1.66h0s0,0,0,0c-.47.57-1.26,1.12-1.82,1.27-.99.3-1.37-.38-.99-1.27.27-.6.96-1.29,1.6-1.07.11.03.2.13.2.25.02.41.68.25.6-.14-.11-.68-1.05-.68-1.48-.52-.57.17-1.05.6-1.32,1.08-.08.15-.14.3-.18.45h0c-.78.87-2.22,2.35-1.6.18.09-.32.27-.63.46-.9.25-.38-.33-.61-.55-.31-.2.28-.36.63-.49.97-.02.07-.05.14-.07.21h0c-.16.27-.35.54-.54.73-.75.76-1.4.76-.93-.9.28-1.01.83-2.31,1.27-3.19.42-.05.83-.08,1.29-.05.41.03.46-.49.06-.46-.33.02-.72.03-1.05.06.46-.79.88-1.51,1.37-2.19.11-.13.06-.31-.08-.39-.14-.11-.33-.05-.42.11-.6.79-1.02,1.62-1.49,2.5-.41.03-1.04.05-1.46.06-.38,0-.3.63.08.63.28-.02.74-.14,1.15-.22-.47.99-.99,2.11-1.27,3.1,0,.01,0,.03-.01.04-.33.32-.75.72-1.18.93-.9.46-1.51-.08-1.04-.8.42.03,2.33-.53,1.67-1.62-.22-.35-.88-.11-1.18.08-.52.34-.95.92-1.08,1.52-.76,1.06-1.3,1.13-1.56.18-.05-.17-.06-.52-.11-.82-.05-.25-.19-.52-.49-.58-.65-.11-1.7,1.37-2.11,1.79-.16.16-.3.32-.46.46.02-1.57,2.26-5.52,3.44-7,.25-.33-.31-.68-.52-.31-1.04,1.11-2.53,4.07-3.29,6.33-.16.27-.35.53-.54.73-.76.76-1.4.76-.93-.9.28-1.01.83-2.31,1.27-3.19.43-.05.83-.08,1.29-.05.41.03.46-.49.06-.46-.33.02-.72.03-1.05.06.46-.79.88-1.51,1.37-2.19.11-.13.06-.31-.08-.39-.14-.11-.33-.05-.43.11-.6.79-1.02,1.62-1.49,2.5-.41.03-1.04.05-1.46.06-.38,0-.3.63.08.63.28-.02.74-.14,1.15-.22-.47.99-.99,2.11-1.27,3.1-.04,0-.08,0-.13.03-.41.16-.9.55-1.23.8-.99-.83-.25-1.68.61-1.86.55-.11.25-.86-.31-.66-.81.29-1.42,1.01-1.34,1.72-.33.33-.76.72-1.19.94-.9.46-1.51-.08-1.04-.8.42.03,2.33-.53,1.67-1.62-.22-.35-.88-.11-1.18.08-.11.07-.23.16-.33.26-.05,0-.09,0-.14.01-.04,0-.09.01-.13.02-.52.08-1.16.15-1.7.21l-.06-.28c-.43-2.23-.72-3.71-.72-5.17,0-.18,0-.38.02-.57l.03-.04c.05-.07,0-.18-.1-.27-.11-.09-.27-.16-.36-.08l-.02.02-.03.03c-.89,1.92-1.99,3.92-3.18,5.77-1.59-.67-3.12-.99-3.76-1.04-.25-.02-.44-.02-.6.01-.22.04-.37.2-.37.43,0,.14.04.26.13.38.38.56,1.84,1.02,3.92,1.22l-.03.04c-1.13,1.66-2.3,3.37-3.17,3.3-.09,0-.12.04-.13.06-.03.06,0,.15.07.22h.02c.85.27,1.72-.53,3.84-3.58.46.03.94.05,1.46.07h.02c1.32.71,2.61,2.03,3.53,3.64.04.06.09.09.15.09.03,0,.07,0,.1-.02.1-.04.22-.16.2-.25l-.04-.13c-.32-1.19-.6-2.23-.85-3.39.42-.03.99-.06,1.4-.12-.2.33-.32.69-.32,1.05-.06,1.13.97,1.32,1.98.82.42-.2.82-.5,1.1-.77.14.16.38.35.52.47-.2.16-.63.46-.85.74-.55.66-.09,1.1.63.71.63-.31,1.02-1.02.72-1.43.2-.22.63-.38,1.04-.49-.06.73.19,1.41.93,1.23.38-.08.75-.36,1.05-.69.01.14.05.27.13.39.28.47.65.08.91-.17.33-.31,1.93-2.61,2-1.35.02.3.02.6.13.86.48,1.11,1.47.63,2.08.04.16.81,1.07.9,1.96.46.27-.13.54-.3.77-.48.02.61.3,1.1.93.94.39-.09.77-.38,1.08-.72.01.17.05.32.15.45.24.36.79.28,1.19.05.37-.21.7-.51,1-.82.12.73.83,1.15,1.76.9.73-.2,1.52-.68,1.92-1.08.15.16.37.34.51.46-.2.16-.63.46-.85.74-.55.66-.09,1.1.63.71.63-.31,1.02-1.02.72-1.43.24-.25.77-.43,1.23-.53.36-.08.14-.66-.2-.49Zm-11.4-1.04c.58-.46.83-.08.24.35-.31.22-.74.36-.88.35.09-.17.33-.49.64-.69Zm-12.34,0c.58-.46.83-.08.24.35-.31.22-.74.36-.88.35.09-.17.33-.49.64-.69Zm-7.4.13c-1.89-.17-3.62-.69-3.81-1.02-.04-.08,0-.12,0-.13.06-.08.26-.11.42-.11.07,0,.13,0,.17.01,1.37.16,2.6.6,3.41.96l-.19.28Zm.62.04s.05-.07.07-.1l.21.11c-.09,0-.19,0-.28,0Zm1.18.06c-.26-.14-.55-.29-.91-.46l.08-.11c.19-.33.37-.64.55-.94.77-1.3,1.38-2.34,1.99-3.69.03,1.23.41,3.49.78,5.14-.36,0-.7.02-1.02.03-.59.02-1.09.04-1.48.02Zm3.16,2.62l-.1-.13c-.62-.75-1.39-1.44-2.31-2.04.21,0,.45-.01.7-.02.31-.01.66-.03,1.02-.03h.12c.17.72.36,1.44.57,2.22Zm4.22.2s-.08-.06-.05-.13c.08-.14.41-.53.68-.66.09.13-.33.76-.63.79Zm20.03,0s-.08-.06-.05-.13c.08-.14.41-.53.68-.66.09.13-.33.76-.63.79Z"></path><path class="cls-3" d="m70.44,3.29c-.09.18-.17.34-.24.48-16.49.05-33.04-.03-49.36-.24,16.39-.21,33.02-.29,49.59-.24Z"></path><path class="cls-3" d="m82.03,3.35c-.1.12-.19.25-.26.36-3.07.02-6.14.04-9.22.05-.02-.16-.03-.32-.03-.46,3.17.01,6.34.03,9.5.05Z"></path><path class="cls-3" d="m84.28,3.37c-.09.11-.17.22-.24.32-.31,0-.63,0-.94,0,0-.13-.04-.24-.09-.34.42,0,.85,0,1.27.01Z"></path><path class="cls-3" d="m85.37,3.38c2.15.02,4.29.04,6.43.06-.05.06-.1.13-.14.19-2.05.02-4.09.04-6.14.06-.02-.1-.07-.21-.14-.31Z"></path><path class="cls-3" d="m100,3.53c-2.28.03-4.57.06-6.86.08,0-.06-.02-.11-.04-.16,2.3.02,4.6.05,6.9.08Z"></path><path class="cls-3" d="m20.85,13.78c26.18-.34,52.97-.34,79.15,0-26.18.34-52.97.34-79.15,0h0Z"></path><path class="cls-2" d="m12.77,11.41s-.08-.04-.12-.04c-.07,0-.1.02-.1.05-.07.26-.15.5-.25.74-.02.06-.05.11-.07.17-.09.2-.2.4-.32.59-.03.05-.06.1-.1.15-.33.48-.73.9-1.22,1.26-.98.71-2.14,1.07-3.48,1.07h-.88c-.45,0-.77-.03-.97-.1-.2-.07-.33-.2-.4-.4-.07-.19-.1-.5-.1-.92-.95,1.18-1.66,1.84-2.28,2.15h9.73c.14,0,.24-.03.3-.09.06-.06.09-.16.09-.3,0-.52.02-1.1.05-1.74,0-.08,0-.17.01-.25.02-.3.04-.61.06-.94,0-.07.01-.15.02-.22.03-.35.06-.72.09-1.1,0-.02-.02-.04-.06-.06ZM1.91,8.36v5.66c0,.52-.05.9-.14,1.15-.04.1-.09.19-.15.26.9-.25,2.04-1.65,3.16-3.22v-3.19c-.85-.27-1.83-.52-2.86-.66ZM6.6,0l-1.31.03c-.79.03-1.44.05-1.96.05s-1.17-.02-1.96-.05l-1.31-.03s-.05.05-.05.15.02.15.05.15c.53,0,.93.05,1.19.14.26.09.43.26.53.5.09.24.14.62.14,1.13v5.37c.68.1,1.7.31,2.86.67V2.11c0-.52.04-.9.13-1.15.09-.25.26-.42.52-.52.26-.09.65-.14,1.19-.14.05,0,.08-.05.08-.15s-.03-.15-.08-.15Z"></path><path class="cls-1" d="m16.82,9.68c-.05-.01-.11-.02-.17-.02-.09,0-.17,0-.25.02-.06,0-.13.02-.19.03-.77.12-1.73.23-2.54.32l-.09-.43c-.65-3.34-1.08-5.54-1.08-7.73,0-.27.01-.56.03-.86l.04-.06c.07-.11.01-.27-.15-.41-.03-.02-.06-.05-.09-.07-.03-.02-.06-.04-.1-.05-.02,0-.03-.01-.05-.02-.02,0-.03-.01-.05-.02s-.03,0-.05,0c-.02,0-.03,0-.05,0-.06,0-.11.02-.15.05l-.03.02-.04.05c-1.33,2.88-2.97,5.86-4.75,8.63-.73-.31-1.45-.57-2.12-.78-.06-.02-.12-.04-.17-.05-1.16-.35-2.17-.57-2.86-.67-.06,0-.12-.02-.17-.02-.11-.01-.2-.02-.29-.03-.16-.02-.31-.02-.44-.02-.18,0-.32.01-.46.04-.33.05-.55.31-.55.64,0,.2.07.4.2.57.24.36.77.68,1.54.97v-.74c-.52-.2-.86-.39-.95-.55-.05-.12-.01-.18,0-.19.09-.12.39-.16.63-.16.1,0,.2,0,.26.02.02,0,.05,0,.07,0,.06,0,.12.01.17.02,1.03.14,2,.38,2.86.65.06.02.12.04.17.05.7.23,1.31.47,1.82.7l-.28.43c-.52-.05-1.04-.11-1.53-.19v.69c.36.05.73.09,1.12.13l-.04.06c-.13.19-.26.38-.39.57-.05.08-.1.15-.16.23-.18.26-.35.51-.53.76-.06.08-.11.16-.17.24-.28.4-.57.78-.85,1.13-.08.1-.15.19-.23.28-.15.18-.3.35-.45.51-.05.05-.1.1-.15.15-.63.65-1.23,1.07-1.76,1.07,0,0-.01,0-.02,0-.02,0-.04,0-.06,0-.01,0-.02,0-.03,0,0,0-.01,0-.02,0,0,0,0,0,0,0,0,0,0,0,0,0,0,0,0,0-.01,0,0,0,0,0,0,0,0,0-.01,0-.02,0-.05.02-.08.05-.09.07,0,0,0,0,0,.01-.04.09,0,.22.11.33l.03.02s.07.02.11.03c.11.03.22.04.33.04s.22-.01.33-.04c.05-.01.11-.03.17-.05.06-.02.12-.04.18-.07.12-.05.24-.12.37-.21.09-.05.17-.12.26-.19.07-.05.14-.11.21-.17.07-.06.14-.12.21-.19.05-.05.1-.09.15-.14.08-.07.15-.15.23-.24.04-.04.08-.08.12-.13s.08-.09.12-.13h0c.05-.06.11-.13.17-.19h0s.04-.05.06-.08c.04-.05.09-.1.13-.15.02-.03.04-.05.07-.08.06-.07.12-.15.18-.22.03-.04.06-.08.09-.12.02-.02.04-.05.05-.07.05-.06.09-.11.14-.17.01-.01.02-.03.03-.04h0c.05-.07.11-.14.16-.21.07-.09.13-.18.21-.27h0c.07-.09.14-.19.21-.28h0c.07-.1.14-.2.22-.3.37-.51.77-1.07,1.21-1.7h0c.17.01.35.02.53.03.53.03,1.08.05,1.66.06h.02c.9.49,1.79,1.16,2.63,1.98.11-.18.22-.38.31-.58-.55-.48-1.16-.94-1.81-1.37.32,0,.68-.02,1.05-.03.46-.02.99-.04,1.53-.05h.18c.25,1.08.53,2.16.85,3.32l-.16-.19c-.27-.32-.55-.64-.85-.94-.02.34-.04.66-.06.97.59.71,1.13,1.49,1.61,2.33.05.09.14.13.23.13.05,0,.1,0,.15-.03.15-.07.33-.24.29-.38l-.05-.2c-.48-1.78-.89-3.33-1.27-5.07.95-.08,2.4-.11,2.81-.39.14-.1.26-.29.3-.46.03-.11,0-.16-.1-.18Zm-9.41.4c.04-.05.07-.1.1-.15l.32.16c-.14,0-.28,0-.42,0Zm3.97.06c-.65.02-1.24.04-1.73.04-.17,0-.33,0-.47,0-.39-.21-.82-.43-1.36-.7l.11-.16c.29-.49.56-.95.82-1.4,1.15-1.94,2.06-3.5,2.98-5.51.05,1.84.61,5.22,1.17,7.69-.53.01-1.04.03-1.52.05Z"></path></svg> 