<svg xmlns="http://www.w3.org/2000/svg" xml:space="preserve" viewBox="80 250 780 240"><path d="M245.46 322.44c-.24.01-.55.04-.71.08s-.44.15-.63.25c-.21.1-.47.29-.7.53-.23.23-.43.49-.53.7-.1.19-.21.48-.25.65-.07.27-.08 1.45-.08 9.49 0 7.91.01 9.22.08 9.5.04.18.14.45.21.6.08.15.22.38.32.5s.25.29.32.36c.08.07.27.22.43.32.17.11.47.25.68.32.29.1.5.13.88.13s.58-.03.88-.13c.21-.07.51-.21.68-.32.16-.1.35-.25.43-.32.07-.07.21-.24.32-.36.1-.12.24-.35.32-.5.07-.15.17-.42.21-.6.07-.28.08-1.59.08-9.5 0-8.04-.01-9.22-.08-9.49-.04-.17-.15-.46-.25-.65-.11-.21-.3-.47-.53-.7-.24-.24-.49-.43-.71-.53-.18-.1-.47-.21-.64-.25-.18-.04-.5-.08-.73-.08m-29.17 5.79c-.15 0-.44.04-.62.08-.19.04-.49.15-.68.24-.23.11-.46.29-.73.56-.22.22-.46.51-.54.66-.07.15-.18.45-.24.68-.06.22-.11.53-.1.69 0 .16.03.44.07.63s1.55 3.89 3.52 8.65c2.05 4.96 3.52 8.43 3.63 8.6.11.16.31.39.45.53.14.13.41.33.61.43.19.1.49.22.66.27.16.04.49.08.72.08s.56-.04.73-.08c.17-.05.47-.17.66-.27s.47-.3.61-.44c.15-.13.36-.39.47-.56s.26-.48.32-.69c.09-.27.13-.5.13-.85 0-.32-.03-.58-.09-.79-.06-.17-1.62-3.99-3.49-8.49-1.86-4.5-3.45-8.3-3.52-8.45-.08-.14-.29-.41-.48-.6-.23-.24-.46-.41-.72-.54-.22-.11-.55-.23-.73-.27-.19-.04-.48-.07-.64-.07m58.33 0c-.16.01-.4.03-.55.06-.14.02-.45.14-.7.26-.34.16-.53.3-.79.56-.23.24-.4.48-.53.74-.1.21-1.69 4.01-3.52 8.44s-3.38 8.19-3.43 8.36c-.06.21-.09.48-.09.78 0 .35.03.57.12.86.07.21.22.52.33.69s.32.43.46.56c.15.14.42.34.61.44s.49.22.66.27c.23.07.44.08.86.07.39-.02.64-.06.86-.14.18-.06.48-.22.67-.35.19-.14.44-.34.54-.46s.24-.31.31-.43 1.68-3.95 3.57-8.52c1.99-4.81 3.48-8.45 3.52-8.65.04-.19.07-.47.07-.63s-.04-.47-.1-.69-.17-.53-.25-.68-.32-.44-.53-.66c-.27-.27-.5-.45-.73-.56-.19-.09-.51-.2-.71-.25-.2-.04-.49-.07-.65-.07m236.76 13.49v18.27c-1.01-1.1-2.15-2.07-3.46-2.85-2.47-1.47-5.28-2.2-8.3-2.2-3.2 0-6.12.8-8.69 2.24h-.01c-2.66 1.47-4.74 3.62-6.19 6.26-1.46 2.65-2.18 5.69-2.18 9 0 3.36.73 6.35 2.18 9 1.45 2.63 3.53 4.78 6.19 6.24 2.59 1.52 5.52 2.25 8.7 2.25 3.07 0 5.89-.73 8.41-2.19l.01-.01c1.28-.76 2.41-1.7 3.4-2.8v4.75h5.55v-47.96h-5.61m271.66 0v47.96h5.61v-47.96zm24.52 0v47.96h5.61v-47.96zM375 344.29v45.39h5.61V356.6l15.92 27.39h3l15.93-27.51.05 33.2h5.61l-.06-45.39h-4.58l-18.42 31.84-18.42-31.84zm309.42 0v5.25h19.03c3.56 0 6.16.71 7.87 1.96 1.73 1.25 2.54 2.84 2.54 5.27 0 2.5-.82 4.15-2.54 5.39-1.7 1.24-4.29 1.9-7.87 1.9h-19.03v5.24h20.37c3.94 0 6.89.73 8.71 1.93 1.82 1.25 2.69 2.93 2.69 5.61 0 2.76-.87 4.44-2.69 5.68-1.82 1.25-4.68 1.92-8.71 1.92h-20.37v5.24h20.37c5.36 0 9.56-.99 12.56-3.18h.01l.01-.01c2.92-2.17 4.49-5.42 4.49-9.4 0-3.13-.97-5.85-2.75-7.98l-.01-.01v-.01c-1.18-1.36-2.81-2.27-4.61-2.99 1.1-.71 2.09-1.57 2.88-2.62 1.46-1.88 2.22-4.22 2.22-6.96 0-3.81-1.57-6.99-4.43-9.1s-6.76-3.13-11.59-3.13zm-385.04.46c-.16.01-.44.04-.63.08-.18.04-.48.15-.65.23-.18.09-.49.31-.71.49-.21.19-3.17 3.12-6.57 6.53-3.89 3.9-6.24 6.3-6.35 6.47-.09.15-.22.43-.29.63-.07.19-.14.52-.15.74-.03.27-.01.5.04.77.04.2.15.52.24.7.08.18.24.43.35.56s.31.34.46.45c.14.12.38.28.53.35.15.08.42.17.6.22.18.04.49.07.7.07.2 0 .51-.03.69-.08.19-.04.5-.16.71-.26l.37-.19 6.52-6.52 6.52-6.52.19-.37c.1-.21.22-.51.27-.68.04-.17.07-.51.07-.76 0-.34-.03-.56-.12-.87-.09-.26-.23-.54-.4-.78-.14-.21-.38-.47-.53-.59-.15-.11-.38-.27-.52-.34s-.44-.17-.65-.23c-.22-.06-.53-.1-.69-.1m-107.69.03c-.24-.02-.5-.01-.57 0l-.39.11c-.15.05-.37.14-.5.2-.13.07-.36.22-.51.33-.15.12-.39.38-.53.59-.17.24-.31.52-.39.78-.1.31-.13.53-.13.87 0 .25.03.59.08.76.04.17.16.47.27.68l.19.37 6.28 6.29c3.46 3.47 6.44 6.43 6.63 6.58.18.15.46.34.61.41.15.08.42.17.6.22.18.04.49.07.69.07s.51-.03.7-.08c.18-.04.49-.16.68-.26s.47-.3.63-.45c.15-.15.36-.41.47-.57.1-.16.24-.47.31-.68.1-.29.13-.49.13-.87s-.03-.59-.13-.88c-.07-.21-.21-.53-.33-.71-.14-.22-2.04-2.16-6.6-6.71-4.7-4.7-6.48-6.45-6.73-6.61-.18-.11-.48-.26-.67-.32s-.54-.11-.79-.12m54.34 6.98c-.92-.01-2.12 0-2.66.03-.55.02-1.44.08-1.98.13-.55.04-1.47.14-2.06.21s-1.48.2-1.98.28c-.5.09-1.38.25-1.96.37-.57.12-1.53.34-2.13.49-.61.16-1.39.37-1.75.47s-1.14.35-1.73.55-1.46.5-1.92.68c-.47.18-1.35.53-1.95.79-.61.25-1.66.74-2.35 1.08s-1.58.8-1.98 1.02-1.16.66-1.69.98-1.46.91-2.06 1.31-1.6 1.11-2.21 1.57c-.62.47-1.49 1.15-1.94 1.52-.44.37-1.18 1.01-1.63 1.42-.46.41-1.23 1.15-1.72 1.64s-1.17 1.19-1.51 1.56-.88.98-1.2 1.36c-.33.37-.86 1.02-1.19 1.44-.33.41-.8 1.02-1.04 1.35-.25.33-.66.91-.92 1.28s-.68 1-.93 1.41c-.26.4-.66 1.04-.89 1.43s-.59 1-.79 1.36-.63 1.18-.95 1.82-.73 1.5-.91 1.91c-.19.41-.48 1.08-.64 1.49-.17.41-.43 1.06-.57 1.45-.15.38-.4 1.09-.56 1.56s-.44 1.38-.63 2.01c-.18.63-.42 1.53-.54 2.01s-.32 1.39-.45 2.04c-.12.64-.29 1.53-.36 1.99s-.18 1.21-.23 1.67c-.06.46-.14 1.23-.19 1.72-.04.49-.1 1.32-.13 1.85s-.05 1.69-.05 2.56c0 .88.02 2.02.05 2.53s.09 1.33.13 1.82c.05.49.14 1.34.21 1.9s.21 1.5.32 2.09a49 49 0 0 0 .98 4.47c.15.56.33 1.18.39 1.36.06.19.11.38.11.43v.1h-11.93c-10.49 0-11.96 0-12.23.07-.17.05-.46.16-.65.25-.22.11-.47.3-.71.54-.27.27-.42.47-.56.75-.1.22-.21.52-.24.67s-.06.44-.06.63c0 .2.03.49.06.64s.14.45.24.66c.14.29.29.49.56.76.24.23.49.43.71.54.19.09.48.2.65.24.28.07 7.97.08 71.26.08 63.17 0 70.98-.01 71.25-.08.17-.04.47-.15.65-.24.22-.11.47-.3.7-.54.24-.23.43-.48.54-.7.09-.19.2-.48.25-.65.04-.17.07-.49.07-.71 0-.21-.03-.53-.07-.7-.05-.17-.16-.47-.25-.65-.11-.22-.3-.47-.54-.71s-.48-.42-.7-.53c-.19-.09-.48-.2-.65-.25-.27-.07-1.67-.07-11.69-.07h-11.37v-.09c0-.05.07-.31.16-.59.08-.27.25-.9.38-1.38a54.728 54.728 0 0 0 .89-4.02c.11-.57.25-1.47.32-2s.18-1.44.23-2.03c.06-.59.13-1.51.16-2.04.03-.52.05-1.66.05-2.52 0-.87-.02-2.01-.05-2.54s-.09-1.37-.13-1.87c-.05-.5-.14-1.37-.21-1.93s-.2-1.44-.29-1.95-.25-1.37-.36-1.9-.31-1.4-.44-1.91c-.13-.52-.34-1.31-.47-1.77-.14-.46-.4-1.32-.6-1.91-.2-.58-.49-1.4-.65-1.82s-.4-1.04-.54-1.38c-.15-.35-.42-.97-.6-1.39-.19-.42-.59-1.26-.9-1.86-.3-.61-.74-1.45-.97-1.88-.24-.42-.66-1.15-.95-1.62-.28-.47-.76-1.22-1.05-1.67-.29-.44-.79-1.16-1.09-1.59-.31-.43-.84-1.13-1.16-1.55-.33-.43-.8-1.01-1.05-1.3-.24-.3-.62-.74-.83-.98-.22-.24-.81-.89-1.33-1.44a50 50 0 0 0-1.93-1.94c-.55-.51-1.21-1.12-1.47-1.34-.26-.23-.79-.67-1.17-.99-.39-.32-.97-.78-1.28-1.02-.32-.25-.9-.68-1.3-.97-.41-.28-1.05-.73-1.44-.99-.38-.26-.96-.63-1.27-.82-.32-.2-.82-.5-1.12-.68s-.92-.53-1.37-.78c-.45-.24-1.15-.61-1.56-.82-.41-.2-1.18-.57-1.71-.81s-1.46-.64-2.08-.88c-.62-.25-1.6-.62-2.17-.82-.58-.19-1.51-.5-2.09-.67-.57-.17-1.6-.45-2.29-.61-.69-.17-1.6-.38-2.03-.47-.44-.09-1.14-.21-1.57-.29a48 48 0 0 0-3.36-.44c-.59-.06-1.44-.13-1.9-.16s-1.59-.06-2.5-.08zm208.27 3.18c-3.21 0-6.14.8-8.66 2.26h-.01c-2.57 1.52-4.59 3.6-6.03 6.24-1.47 2.66-2.12 5.71-2.12 9 0 3.36.72 6.36 2.25 9.02 1.51 2.63 3.65 4.77 6.37 6.23 2.71 1.52 5.76 2.24 9.18 2.24 2.59 0 5.03-.46 7.33-1.38h.01l.01-.01c2.2-.93 4.16-2.35 5.7-4.3l.66-.83-3.48-3.96-.95 1.18c-1.1 1.38-2.37 2.33-3.96 2.99-1.6.66-3.4 1-5.26 1-3.08 0-5.53-.77-7.63-2.32-1.73-1.27-2.86-2.98-3.62-5l26.55-5.17-.08-1.12c-.19-2.97-.91-5.7-2.37-8.16-1.45-2.44-3.39-4.38-5.78-5.78-2.4-1.4-5.15-2.13-8.11-2.13m91.44 0c-4.1 0-7.41.9-9.78 2.79-2.33 1.85-3.61 4.38-3.61 7.24 0 2.3.63 4.32 2 5.76 1.22 1.36 2.72 2.36 4.51 2.91 1.63.59 3.7 1.09 6.31 1.52 2.11.42 3.79.79 4.92 1.13 1.02.31 1.82.81 2.57 1.45.6.55.87 1.16.87 2.22 0 1.54-.53 2.51-1.77 3.36h-.01l-.02.02c-1.16.83-3.3 1.35-6.35 1.35-2.13 0-4.12-.35-6.07-1.03-1.96-.7-3.47-1.55-4.61-2.52l-1.17-1-2.67 4.65.72.69c1.48 1.4 3.49 2.45 5.93 3.22 2.47.84 5.06 1.23 7.75 1.23 4.14 0 7.54-.82 10.04-2.63 2.47-1.78 3.84-4.36 3.84-7.4 0-2.2-.64-4.13-1.92-5.56l-.02-.03-.03-.02c-1.22-1.22-2.68-2.2-4.43-2.76-1.6-.52-3.66-1.01-6.13-1.51h-.02c-2.23-.42-3.97-.84-5.13-1.19-1.04-.31-1.9-.82-2.62-1.49-.58-.54-.88-1.21-.88-2.43 0-1.42.49-2.41 1.74-3.31l.01-.01.01-.01c1.13-.84 3.12-1.39 5.96-1.39 1.59 0 3.19.22 4.79.68 1.51.45 2.85 1.12 4.1 1.97l1.14.78 2.67-4.65-.94-.67c-1.44-1.03-3.22-1.8-5.26-2.44l-.02-.01-.02-.01c-2.11-.57-4.25-.9-6.4-.9m45.26 0c-3.1 0-5.91.81-8.42 2.26-1.29.74-2.42 1.66-3.41 2.73v-4.74h-5.48v46.37h5.61V385.1a14.7 14.7 0 0 0 3.4 2.69c2.48 1.48 5.3 2.14 8.3 2.14 3.13 0 6.05-.73 8.69-2.18h.01v-.01c2.6-1.46 4.67-3.6 6.12-6.24s2.24-5.69 2.24-9.06c0-3.33-.79-6.36-2.24-9-1.45-2.65-3.53-4.73-6.1-6.24l-.01-.01-.02-.01a17.87 17.87 0 0 0-8.69-2.24m44.47 0c-2.6 0-5.13.46-7.47 1.3-2.4.85-4.45 2.03-6.16 3.55l-.85.75 3 4.33 1.08-.98c1.23-1.11 2.66-2 4.48-2.68 1.82-.69 3.68-1.02 5.68-1.02 2.83 0 4.85.72 6.14 1.96 1.32 1.33 2.07 3.2 2.07 5.88v1.29h-9.68c-4.34 0-7.71.87-9.96 2.83-2.15 1.88-3.25 4.46-3.25 7.39 0 3.05 1.18 5.72 3.53 7.59 2.37 1.95 5.51 2.8 9.25 2.8 2.85 0 5.44-.52 7.63-1.68.98-.52 1.83-1.18 2.6-1.9v3.33h5.49v-21.53c0-4.15-1.21-7.49-3.57-9.79h-.01l-.01-.01c-2.42-2.29-5.85-3.41-9.99-3.41m115.82 0c-3.2 0-6.13.8-8.65 2.26h-.01a16.17 16.17 0 0 0-6.04 6.24c-1.47 2.66-2.12 5.71-2.12 9 0 3.36.73 6.36 2.25 9.02 1.52 2.63 3.66 4.77 6.37 6.23 2.71 1.52 5.77 2.24 9.18 2.24 2.6 0 5.04-.46 7.33-1.38h.01l.01-.01c2.2-.93 4.16-2.35 5.71-4.3l.66-.83-3.48-3.96-.95 1.18c-1.1 1.38-2.37 2.33-3.96 2.99-1.61.66-3.4 1-5.27 1-3.08 0-5.52-.77-7.62-2.32-1.74-1.27-2.86-2.98-3.63-5l26.55-5.17-.07-1.12c-.19-2.97-.92-5.7-2.38-8.16-1.45-2.44-3.39-4.38-5.78-5.78-2.4-1.4-5.15-2.13-8.11-2.13m92.83 0c-2.6 0-5.13.46-7.47 1.3-2.4.85-4.45 2.03-6.17 3.55l-.85.75 3.01 4.33 1.08-.98c1.22-1.11 2.66-2 4.48-2.68 1.82-.69 3.68-1.02 5.68-1.02 2.83 0 4.85.72 6.14 1.96 1.32 1.33 2.07 3.2 2.07 5.88v1.29h-9.68c-4.34 0-7.72.87-9.96 2.83-2.16 1.88-3.25 4.46-3.25 7.39 0 3.05 1.18 5.72 3.53 7.59 2.36 1.95 5.51 2.8 9.25 2.8 2.85 0 5.44-.52 7.63-1.68.98-.52 1.83-1.18 2.6-1.9v3.33h5.49v-21.53c0-4.15-1.21-7.49-3.57-9.79h-.01l-.01-.01c-2.42-2.29-5.85-3.41-9.99-3.41m-598.82 2.69c.86 0 1.99.02 2.52.05s1.34.09 1.8.13 1.2.13 1.64.18c.45.06 1.15.17 1.56.24s1.09.2 1.51.28c.42.09 1.15.25 1.63.37.47.11 1.26.32 1.74.46.49.15 1.34.41 1.88.6.55.18 1.44.51 1.98.72.55.22 1.33.55 1.75.73.41.19 1.23.58 1.82.87.59.3 1.28.66 1.54.8s.73.41 1.04.6c.32.19.89.54 1.28.78s.96.62 1.28.84c.31.21 1.01.72 1.56 1.13.54.41 1.31 1.01 1.69 1.33.39.32 1.02.87 1.41 1.22.38.34 1.12 1.05 1.64 1.57.52.51 1.22 1.25 1.57 1.64.34.39.86.98 1.15 1.33.28.34.72.88.96 1.2a46 46 0 0 1 2.05 2.88 40 40 0 0 1 1.61 2.64c.13.23.45.83.71 1.33.25.5.65 1.32.88 1.83.23.5.53 1.18.66 1.51.14.33.38.96.55 1.4.16.45.43 1.21.59 1.7s.41 1.31.55 1.82c.14.52.35 1.35.47 1.85s.28 1.29.37 1.75.23 1.31.31 1.9c.09.59.19 1.43.23 1.88.05.44.11 1.15.14 1.56.02.42.06 1.3.08 1.96.02.68.01 1.75-.03 2.5-.03.71-.09 1.7-.13 2.18-.04.49-.13 1.26-.18 1.72-.06.46-.19 1.32-.29 1.91s-.29 1.55-.42 2.14c-.13.58-.37 1.52-.52 2.08-.16.56-.43 1.46-.61 2.01l-.33.99h-82.92l-.32-.99c-.19-.55-.46-1.45-.61-2.01-.16-.56-.4-1.5-.53-2.1s-.33-1.63-.44-2.29c-.12-.67-.26-1.62-.31-2.12-.06-.51-.15-1.42-.2-2.04-.06-.77-.09-1.73-.09-3.07 0-1.08.03-2.33.06-2.79.04-.46.1-1.2.15-1.64a45.193 45.193 0 0 1 .5-3.55c.08-.47.27-1.35.4-1.96.14-.6.39-1.56.55-2.12s.45-1.5.66-2.09c.2-.6.49-1.41.65-1.82s.44-1.07.61-1.47.53-1.17.79-1.72c.26-.54.69-1.38.95-1.85.27-.48.66-1.17.88-1.54s.74-1.18 1.15-1.79c.4-.62 1.01-1.49 1.34-1.92.33-.44.89-1.16 1.24-1.59.36-.43.97-1.15 1.37-1.59s1.1-1.18 1.56-1.65c.47-.46 1.19-1.14 1.6-1.52.42-.37.91-.8 1.09-.96.19-.16.59-.49.89-.74.3-.24.87-.67 1.25-.96.39-.29.94-.69 1.23-.89.28-.2.85-.57 1.25-.83s.96-.61 1.25-.78c.28-.18.84-.5 1.22-.71.39-.22 1.18-.63 1.75-.92.57-.28 1.43-.69 1.9-.89.48-.21 1.24-.53 1.7-.71s1.22-.46 1.68-.62a46.244 46.244 0 0 1 3.29-.99c.51-.13 1.2-.29 1.54-.37.35-.07.92-.19 1.28-.26s1.04-.18 1.51-.26c.47-.07 1.15-.16 1.51-.2.36-.05.96-.11 1.33-.14s1-.08 1.38-.1c.39-.02 1.41-.04 2.27-.05m209 2.56c1.88 0 3.63.44 5.15 1.25 1.51.81 2.7 1.94 3.71 3.34.71 1.08 1.17 2.29 1.5 3.54l-21.61 4.24c0-.11-.02-.26-.02-.37 0-2.34.45-4.44 1.43-6.24l.01-.02.01-.01c.94-1.83 2.22-3.21 3.96-4.18l.01-.01c1.72-1 3.61-1.54 5.85-1.54m296.99 0c1.88 0 3.63.44 5.16 1.25 1.51.81 2.69 1.94 3.7 3.33.71 1.09 1.17 2.29 1.5 3.55l-21.6 4.24c0-.11-.03-.26-.03-.37 0-2.34.46-4.44 1.44-6.24v-.02l.01-.01c.94-1.83 2.22-3.21 3.96-4.18l.01-.01h.01c1.71-1 3.61-1.54 5.84-1.54m-251.49.06c2.23 0 4.13.54 5.91 1.54 1.76 1.05 3.11 2.45 4.11 4.27 1 1.91 1.56 4.01 1.56 6.38 0 2.43-.56 4.53-1.56 6.36v.01l-.01.01c-.99 1.88-2.33 3.27-4.08 4.25l-.02.01-.01.01c-1.76 1.04-3.64 1.53-5.9 1.53-2.25 0-4.2-.49-5.95-1.53l-.02-.01-.01-.01c-1.75-.98-3.09-2.37-4.09-4.25v-.01l-.01-.01c-.99-1.81-1.49-3.91-1.49-6.36 0-2.39.5-4.49 1.5-6.38.99-1.82 2.34-3.22 4.1-4.27 1.78-.99 3.74-1.54 5.97-1.54m91.01 0c2.23 0 4.2.55 5.98 1.54 1.76 1.05 3.1 2.45 4.1 4.27 1 1.91 1.56 4.01 1.56 6.38 0 2.43-.56 4.53-1.56 6.36v.01l-.01.01c-.99 1.88-2.33 3.27-4.08 4.25l-.02.01-.01.01c-1.75 1.04-3.7 1.53-5.96 1.53-2.25 0-4.21-.49-5.96-1.53l-.01-.01-.01-.01c-1.75-.98-3.09-2.37-4.09-4.25v-.01l-.01-.01c-.99-1.81-1.49-3.91-1.49-6.36 0-2.39.5-4.49 1.5-6.38.99-1.82 2.34-3.22 4.1-4.27 1.78-.99 3.74-1.54 5.97-1.54m-274.94 9.26c-.26.01-.57.04-.7.07-.13.04-.49.18-.81.31-.31.13-2.21.91-4.22 1.74-2.01.84-5.44 2.26-7.63 3.17-2.2.91-4.12 1.72-4.28 1.8-.16.09-.42.28-.56.42a3.119 3.119 0 0 0-.81 1.27c-.08.27-.11.5-.11.86 0 .37.03.59.11.86.06.21.21.52.33.7.11.17.33.43.48.58.15.14.42.34.61.44s.49.22.68.26c.25.07.47.09.83.07.28-.02.62-.07.76-.12s1.21-.48 2.37-.97l7.3-3.02c2.85-1.18 5.61-2.32 6.12-2.53.51-.22 1.06-.47 1.21-.58.16-.1.4-.31.54-.47s.32-.42.41-.58c.08-.16.19-.44.24-.61.04-.18.08-.53.08-.79 0-.28-.03-.58-.08-.75-.05-.15-.16-.42-.25-.59-.08-.17-.3-.47-.49-.66-.21-.22-.47-.42-.68-.53-.19-.1-.49-.22-.67-.27a3.6 3.6 0 0 0-.78-.08m-140.73.02c-.39-.01-.66 0-.85.06-.15.04-.41.15-.59.24-.21.1-.47.3-.7.53s-.44.5-.54.7c-.09.18-.2.46-.24.62-.04.17-.08.5-.08.75 0 .24.04.57.08.73.04.15.15.43.24.62.1.2.3.47.51.68s.47.42.66.51c.18.09 1.28.56 2.45 1.05 1.17.48 3.44 1.42 5.03 2.08s4.31 1.78 6.05 2.5 3.3 1.35 3.46 1.39c.17.05.48.08.69.08.22 0 .54-.04.71-.08.18-.05.49-.17.69-.28.22-.11.49-.31.68-.51.21-.21.39-.46.51-.71.11-.2.22-.54.27-.74.04-.2.07-.48.07-.63 0-.14-.04-.44-.1-.66-.05-.21-.16-.51-.23-.65s-.23-.39-.37-.55c-.13-.16-.39-.39-.58-.52-.26-.17-1.88-.86-5.81-2.49-2.99-1.24-6.68-2.76-8.18-3.39-1.51-.62-2.86-1.17-3-1.23-.17-.06-.45-.09-.83-.1m458.68 4.73h9.62v4.4c-.89 2.04-2.09 3.55-3.66 4.59-1.59 1.06-3.59 1.62-6.02 1.62-2.65 0-4.54-.53-5.75-1.49l-.01-.01-.01-.01c-1.31-1-1.83-2.17-1.83-3.95 0-1.66.5-2.79 1.61-3.71 1.06-.83 3.04-1.44 6.05-1.44m208.65 0h9.62v4.4c-.9 2.04-2.1 3.55-3.66 4.59-1.59 1.06-3.59 1.62-6.02 1.62-2.65 0-4.55-.53-5.76-1.49l-.01-.01-.01-.01c-1.3-1-1.82-2.17-1.82-3.95 0-1.66.49-2.79 1.6-3.71 1.07-.83 3.05-1.44 6.06-1.44m-529.56 24.39c-4.96.01-9.15.03-9.3.05-.15.03-.41.1-.58.17s-.41.2-.54.29-.35.28-.5.43c-.14.15-.34.43-.44.62s-.22.5-.27.68c-.04.18-.07.5-.07.7s.03.52.07.7c.05.18.17.49.27.68s.3.47.45.63c.15.15.41.36.57.47.16.1.47.25.68.31l.38.13h18.55l.37-.12c.2-.06.5-.19.68-.3.17-.1.44-.32.6-.49s.36-.45.45-.61c.09-.17.2-.45.26-.62.05-.2.09-.49.09-.78 0-.34-.03-.57-.11-.83-.07-.2-.21-.52-.31-.7-.11-.18-.34-.46-.5-.61-.17-.15-.47-.36-.68-.46-.21-.11-.54-.23-.74-.27-.31-.06-1.64-.07-9.38-.07m-134.72.01c-7.75 0-9.26 0-9.54.07-.19.04-.52.16-.73.26-.27.13-.5.3-.74.54-.23.23-.4.46-.53.73-.11.22-.23.56-.27.76s-.08.46-.08.57.04.37.08.57.16.54.27.76c.13.27.29.49.53.73.19.18.49.41.66.5s.45.21.62.26l.32.1h18.55l.39-.13c.21-.06.51-.21.67-.32.17-.1.36-.25.44-.32.07-.07.22-.23.32-.36.1-.12.24-.35.32-.5.07-.15.17-.42.21-.6s.08-.49.08-.69-.04-.51-.08-.69-.14-.45-.21-.6c-.08-.15-.22-.37-.32-.5-.1-.12-.26-.29-.35-.38-.09-.08-.27-.22-.41-.31-.13-.09-.42-.23-.62-.3l-.39-.13zm547.34 12.31c-.5 0-.92.18-1.25.53-.33.32-.49.75-.49 1.24v17.08c0 .51.16.95.49 1.27.33.33.75.5 1.25.5.49 0 .91-.17 1.24-.5.32-.34.48-.76.48-1.24.5.46 1.06.88 1.77 1.21.79.35 1.63.53 2.52.53 1.23 0 2.36-.33 3.37-.97 1.04-.66 1.85-1.58 2.43-2.74h.01c.58-1.17.88-2.5.88-3.96s-.31-2.78-.91-3.94q-.885-1.74-2.43-2.7h-.01c-1.03-.67-2.18-1-3.45-1-.87 0-1.7.21-2.5.64-.35.18-.56.43-.83.64-.1.08-.19.15-.28.23-.17.15-.41.26-.55.42v-5.47c0-.49-.17-.91-.5-1.24-.32-.35-.75-.53-1.24-.53m-296.49.58c-.61 0-1.06.1-1.36.32-.31.22-.46.62-.46 1.14v.52c0 .52.14.92.43 1.14.28.23.74.33 1.37.33.64 0 1.1-.09 1.39-.29v-.01c.31-.22.46-.63.46-1.17v-.52c0-.52-.14-.91-.43-1.14-.28-.23-.75-.32-1.4-.32m-52.25.51c-.49 0-.92.18-1.27.52-.32.33-.49.75-.49 1.25v15.72c0 .5.21.94.61 1.28.42.32.91.49 1.45.49.46 0 .85-.17 1.12-.51.29-.32.43-.75.43-1.26v-5.17h4.98c.78 0 1.36.19 1.75.54l.01.01c.41.36.61.84.61 1.46 0 2.31.67 3.87 2.01 4.64.38.21.8.31 1.25.31.58 0 1.04-.17 1.33-.52l.01-.01c.23-.28.35-.61.35-.96 0-.27-.08-.54-.23-.79h-.01c-.13-.25-.33-.45-.58-.61-.24-.12-.38-.27-.44-.48-.07-.24-.14-.65-.21-1.21q0-.405-.09-.84c-.11-1.33-.74-2.39-1.84-3.2a6.1 6.1 0 0 0 1.86-1.98c.5-.89.75-1.8.75-2.72 0-1.12-.26-2.14-.78-3.05-.5-.9-1.17-1.61-2.02-2.13s-1.76-.78-2.72-.78zm194.42 1.36c-.5 0-.93.18-1.28.52-.32.33-.49.75-.49 1.25v1.63h-1.15c-.45 0-.85.16-1.16.47-.31.29-.46.67-.46 1.11 0 .46.15.85.46 1.16s.71.47 1.16.47h1.15v7.4c0 1.58.39 2.64 1.19 3.16.8.49 1.78.73 2.91.73q1.035 0 1.86-.51c.56-.36.86-.81.86-1.34 0-.42-.11-.76-.35-1.02-.21-.27-.47-.42-.76-.42-.21 0-.43.05-.66.14h-.01c-.24.07-.43.11-.55.11-.33 0-.57-.08-.75-.22-.17-.16-.26-.4-.26-.77v-7.26h1.82c.46 0 .85-.15 1.16-.44.31-.31.47-.7.47-1.14 0-.46-.16-.85-.47-1.16-.3-.31-.7-.47-1.16-.47h-1.82v-1.63c0-.49-.17-.92-.49-1.24-.33-.35-.75-.53-1.22-.53m256.96 0c-.49 0-.93.18-1.27.52-.33.33-.49.75-.49 1.25v1.63h-1.15c-.46 0-.85.16-1.16.47-.31.29-.47.67-.47 1.11 0 .46.16.85.47 1.16s.7.47 1.16.47h1.15v7.4c0 1.58.38 2.64 1.19 3.16.8.49 1.77.73 2.91.73.69 0 1.31-.17 1.85-.51.57-.36.87-.81.87-1.34 0-.42-.12-.76-.35-1.02-.22-.27-.48-.42-.76-.42-.22 0-.43.05-.66.14h-.01c-.24.07-.43.11-.56.11-.33 0-.57-.08-.74-.22-.18-.16-.27-.4-.27-.77v-7.26h1.83c.45 0 .85-.15 1.16-.44.31-.31.47-.7.47-1.14 0-.46-.16-.85-.47-1.16s-.7-.47-1.16-.47h-1.83v-1.63c0-.49-.16-.92-.49-1.24a1.62 1.62 0 0 0-1.22-.53m-449.53 1.98h5.85c.3 0 .59.12.89.36.29.24.54.57.73 1 .19.4.29.85.29 1.34 0 .59-.1 1.13-.29 1.65-.2.49-.45.89-.74 1.19-.3.29-.58.43-.88.43h-5.85zm29.86.88c-1.23 0-2.39.32-3.48.97-1.09.62-1.96 1.54-2.62 2.73s-.99 2.58-.99 4.16c0 1.41.31 2.69.93 3.83h.01a6.75 6.75 0 0 0 2.65 2.65c1.16.65 2.51.97 4.05.97.88 0 1.75-.15 2.62-.44.86-.3 1.55-.65 2.07-1.08.52-.41.8-.89.8-1.42 0-.39-.15-.74-.44-1.03a1.5 1.5 0 0 0-1.06-.43c-.31 0-.63.08-.97.25v.01c-.1.05-.27.16-.52.33q-.345.195-.96.42-.6.18-1.71.18c-.95 0-1.81-.29-2.57-.87-.72-.58-1.18-1.36-1.41-2.34h8.83c.45 0 .86-.15 1.21-.43.34-.29.53-.68.55-1.14v-.01c0-1.3-.32-2.52-.96-3.64a7.4 7.4 0 0 0-2.6-2.67c-1.07-.67-2.21-1-3.43-1m90.1 0c-1.23 0-2.39.32-3.48.97-1.09.62-1.96 1.54-2.62 2.73s-.99 2.58-.99 4.16c0 1.41.31 2.69.94 3.83a6.75 6.75 0 0 0 2.65 2.65c1.16.65 2.51.97 4.05.97.88 0 1.75-.15 2.62-.44.86-.3 1.55-.65 2.07-1.08.52-.41.8-.89.8-1.42 0-.39-.15-.74-.44-1.03-.29-.28-.65-.43-1.05-.43-.31 0-.64.08-.98.25v.01c-.1.05-.27.16-.52.33q-.345.195-.96.42-.6.18-1.71.18c-.95 0-1.81-.29-2.57-.87-.72-.58-1.18-1.36-1.41-2.34h8.83c.45 0 .86-.15 1.21-.43.34-.29.53-.68.55-1.14v-.01c0-1.3-.32-2.52-.97-3.64a7.3 7.3 0 0 0-2.59-2.67c-1.07-.67-2.21-1-3.43-1m26.31 0c-.96 0-1.85.24-2.66.72h-.01c-.35.21-.57.51-.86.77-.09.07-.17.15-.25.22-.2.2-.46.35-.63.55v-.22c0-.5-.16-.92-.49-1.25-.33-.34-.75-.52-1.25-.52-.49 0-.91.18-1.24.52-.33.33-.49.75-.49 1.25v11.23c0 .5.16.93.49 1.27.33.33.75.5 1.24.5.5 0 .92-.17 1.25-.5.33-.34.49-.77.49-1.27v-6.96c0-.9.29-1.63.87-2.21.58-.6 1.37-.9 2.4-.9.99 0 1.67.28 2.06.83.4.54.61 1.3.61 2.28v6.96c0 .5.16.93.49 1.27.33.33.75.5 1.25.5.49 0 .91-.17 1.24-.5.33-.34.49-.77.49-1.27v-6.96c0-1.95-.35-3.49-1.07-4.6-.73-1.14-2.06-1.71-3.93-1.71m23.12 0c-1.24 0-2.38.33-3.41 1q-1.515.96-2.4 2.73c-.59 1.16-.88 2.47-.88 3.94 0 1.46.29 2.78.88 3.93v.01c.61 1.15 1.43 2.07 2.46 2.73 1.03.64 2.19.97 3.45.97.87 0 1.7-.19 2.47-.56.74-.36 1.31-.8 1.76-1.29.05.41.16.79.43 1.08.33.33.75.5 1.25.5.49 0 .92-.17 1.24-.5h.01c.32-.34.49-.77.49-1.27v-11.51c0-.51-.17-.94-.5-1.27-.32-.32-.75-.49-1.24-.49-.5 0-.92.18-1.25.52-.29.29-.41.69-.44 1.11-.52-.45-1.11-.84-1.83-1.13h-.01c-.77-.33-1.6-.5-2.48-.5m46.15 0c-1.24 0-2.4.32-3.49.97-1.08.62-1.96 1.54-2.62 2.73s-.99 2.58-.99 4.16c0 1.41.31 2.69.94 3.83a6.75 6.75 0 0 0 2.65 2.65c1.16.65 2.51.97 4.05.97.88 0 1.76-.15 2.62-.44.86-.3 1.55-.65 2.07-1.08.52-.41.8-.89.8-1.42 0-.39-.15-.74-.44-1.03-.29-.28-.65-.43-1.05-.43-.31 0-.64.08-.97.25l-.01.01c-.1.05-.27.16-.52.33-.23.13-.55.27-.95.42-.4.12-.98.18-1.71.18-.96 0-1.81-.29-2.58-.87-.72-.58-1.18-1.36-1.41-2.34h8.83c.46 0 .86-.15 1.21-.43.34-.29.53-.68.55-1.14v-.01c0-1.3-.32-2.52-.96-3.64a7.4 7.4 0 0 0-2.6-2.67c-1.06-.67-2.21-1-3.42-1m57.46 0q-2.1 0-3.81.99a7.04 7.04 0 0 0-2.7 2.74c-.66 1.16-1 2.47-1 3.94 0 1.46.33 2.79 1 3.97.66 1.15 1.56 2.06 2.7 2.7 1.14.65 2.41.97 3.81.97 1.38 0 2.64-.32 3.78-.97a7 7 0 0 0 2.73-2.7c.66-1.18.99-2.51.99-3.97 0-1.47-.33-2.78-.99-3.94a7 7 0 0 0-2.73-2.74c-1.14-.66-2.41-.99-3.78-.99m51.5 0c-.9 0-1.76.2-2.55.61-.71.35-1.22.9-1.64 1.54v-.11c0-.5-.17-.92-.49-1.25-.33-.34-.75-.52-1.25-.52-.49 0-.92.18-1.24.52-.33.33-.5.75-.5 1.25v11.23c0 .5.17.93.49 1.27h.01c.32.33.75.5 1.24.5.5 0 .92-.17 1.25-.5.32-.34.49-.77.49-1.27v-6.45c0-.8.13-1.48.4-2.05.28-.58.63-1.01 1.05-1.28.42-.28.85-.42 1.3-.42.21 0 .4.02.57.08.2.05.33.09.37.1.36.13.68.2.96.2.43 0 .8-.15 1.11-.44.32-.32.47-.77.47-1.35 0-.45-.21-.85-.61-1.17-.38-.33-.87-.49-1.43-.49m52.8 0c-1.23 0-2.4.32-3.48.97-1.09.62-1.96 1.54-2.62 2.73-.67 1.19-1 2.58-1 4.16 0 1.41.32 2.69.94 3.83a6.8 6.8 0 0 0 2.65 2.65h.01c1.16.65 2.51.97 4.04.97.89 0 1.76-.15 2.62-.44.86-.3 1.55-.65 2.07-1.08h.01c.52-.41.8-.89.8-1.42 0-.39-.15-.74-.44-1.03a1.5 1.5 0 0 0-1.06-.43c-.31 0-.63.08-.97.25v.01h-.01c-.09.05-.26.16-.52.33-.22.13-.54.27-.95.42q-.6.18-1.71.18c-.95 0-1.81-.29-2.57-.87-.73-.58-1.19-1.36-1.41-2.34h8.82c.46 0 .87-.15 1.21-.43.35-.29.54-.68.56-1.14v-.01c0-1.3-.32-2.52-.97-3.64a7.4 7.4 0 0 0-2.59-2.67c-1.07-.67-2.21-1-3.43-1m24.4 0c-1.23 0-2.37.33-3.4 1-1.01.64-1.82 1.55-2.4 2.73-.59 1.16-.89 2.47-.89 3.94 0 1.46.3 2.78.89 3.93v.01c.6 1.15 1.42 2.07 2.45 2.73 1.04.64 2.19.97 3.46.97.87 0 1.69-.19 2.47-.56.74-.36 1.3-.8 1.76-1.29.05.41.16.79.43 1.08.33.33.75.5 1.24.5.5 0 .92-.17 1.25-.5.33-.34.49-.77.49-1.27v-11.51c0-.51-.16-.94-.49-1.27-.33-.32-.75-.49-1.25-.49-.49 0-.91.18-1.24.52-.29.29-.41.69-.44 1.12-.52-.46-1.12-.85-1.84-1.14-.77-.33-1.61-.5-2.49-.5m-351.27.27c-.49 0-.92.18-1.24.52-.33.33-.5.75-.5 1.25v12.21c0 .75-.08 1.33-.23 1.73h-.01c-.13.4-.45.69-1.01.86-.48.14-.84.34-1.09.61s-.38.6-.38.99v.3c0 .46.16.85.47 1.16s.71.47 1.16.47c.86 0 1.63-.22 2.32-.64.7-.43 1.25-1.04 1.64-1.81.41-.78.61-1.69.61-2.72v-13.16c0-.5-.17-.92-.49-1.25-.33-.34-.75-.52-1.25-.52m16.01 0c-.49 0-.92.18-1.25.52-.32.33-.49.75-.49 1.25v6.91c0 1.97.54 3.54 1.64 4.67 1.09 1.13 2.65 1.69 4.67 1.69 2.01 0 3.58-.56 4.67-1.69 1.11-1.13 1.66-2.7 1.66-4.67v-6.91c0-.5-.16-.92-.49-1.25a1.66 1.66 0 0 0-1.24-.52c-.5 0-.92.18-1.25.52-.33.33-.49.75-.49 1.25v6.91c0 1.09-.24 1.88-.71 2.4-.46.5-1.17.75-2.15.75-.96 0-1.66-.25-2.12-.75-.47-.52-.71-1.31-.71-2.4v-6.91c0-.5-.17-.92-.49-1.25-.33-.34-.75-.52-1.25-.52m23.94 0c-.48 0-.89.17-1.22.49-.32.31-.5.67-.5 1.06 0 .31.07.61.2.91l5.06 11.21c.16.34.37.62.63.83h.01c.29.19.6.29.93.29l.26-.03c.32-.02.61-.12.86-.32h.01c.26-.19.47-.45.6-.77l5.09-11.21c.14-.33.22-.61.22-.86 0-.44-.16-.81-.46-1.11-.31-.3-.71-.46-1.17-.46-.32-.02-.63.07-.9.26-.28.2-.49.48-.64.84l-3.62 8.34-3.66-8.37c-.15-.35-.39-.62-.7-.81-.3-.19-.64-.29-1-.29m152.91 0c-.49 0-.92.18-1.24.52-.33.33-.49.75-.49 1.25v7.94c0 1.03.2 1.95.6 2.77.41.79.99 1.43 1.73 1.89.74.45 1.6.67 2.56.67.44 0 .77-.14 1.16-.2.15-.02.3-.05.44-.08 1.09-.24 2.04-.65 2.7-1.39v.07c0 1.32-.31 2.23-.89 2.74v.01c-.57.53-1.49.81-2.76.81-.37 0-.74-.04-1.09-.13q-.51-.105-.99-.3a9 9 0 0 1-.65-.27H623a1.7 1.7 0 0 0-.55-.09c-.33 0-.65.11-.93.32h-.01v.01c-.27.23-.46.56-.58.97-.05.17-.08.33-.08.47q0 .54.36.96c.23.28.58.52 1.03.71h.01v.01c.41.16.93.29 1.57.38.66.11 1.3.17 1.92.17 2.14 0 3.86-.56 5.16-1.66 1.29-1.1 1.94-2.85 1.94-5.22v-11.56c0-.5-.17-.92-.49-1.25-.33-.34-.75-.52-1.25-.52s-.92.18-1.25.52c-.32.33-.49.75-.49 1.25v6.96c0 1.01-.25 1.78-.76 2.32q-.72.78-2.1.78c-.94 0-1.64-.23-2.12-.7-.47-.48-.71-1.27-.71-2.4v-6.96c0-.5-.16-.92-.49-1.25-.33-.34-.75-.52-1.25-.52m50.36 0c-.49 0-.91.18-1.24.52-.33.33-.49.75-.49 1.25v6.91c0 1.97.54 3.54 1.63 4.67s2.66 1.69 4.68 1.69c2.01 0 3.57-.56 4.67-1.69 1.11-1.13 1.66-2.7 1.66-4.67v-6.91c0-.5-.16-.92-.49-1.25-.33-.34-.75-.52-1.25-.52-.49 0-.92.18-1.24.52-.33.33-.5.75-.5 1.25v6.91c0 1.09-.24 1.88-.7 2.4-.47.5-1.18.75-2.15.75-.96 0-1.66-.25-2.13-.75-.46-.52-.71-1.31-.71-2.4v-6.91c0-.5-.16-.92-.49-1.25-.33-.34-.75-.52-1.25-.52m129.52 0c-.49 0-.92.18-1.24.52-.33.33-.49.75-.49 1.25v6.91c0 1.97.54 3.54 1.63 4.67s2.66 1.69 4.67 1.69c2.02 0 3.58-.56 4.68-1.69 1.11-1.13 1.66-2.7 1.66-4.67v-6.91c0-.5-.17-.92-.49-1.25-.33-.34-.75-.52-1.25-.52-.49 0-.92.18-1.24.52-.33.33-.5.75-.5 1.25v6.91c0 1.09-.24 1.88-.7 2.4-.47.5-1.18.75-2.16.75-.96 0-1.65-.25-2.12-.75-.47-.52-.71-1.31-.71-2.4v-6.91c0-.5-.16-.92-.49-1.25-.33-.34-.75-.52-1.25-.52m44.95 0c-.5 0-.92.18-1.25.52-.32.33-.49.75-.49 1.25v7.94c0 1.03.2 1.95.61 2.77.41.79.98 1.43 1.72 1.89h.01c.74.45 1.59.67 2.55.67.44 0 .77-.14 1.16-.2.15-.02.31-.05.45-.08 1.09-.25 2.04-.66 2.69-1.39v.07c0 1.32-.3 2.23-.89 2.74v.01c-.57.53-1.48.81-2.75.81-.38 0-.74-.04-1.09-.13h-.01q-.51-.105-.99-.3c-.3-.12-.52-.21-.65-.27h-.01a1.57 1.57 0 0 0-1.48.23v.01c-.28.23-.47.56-.58.97-.06.17-.09.33-.09.47q0 .54.36.96c.36.42.59.52 1.04.71v.01c.41.16.94.29 1.57.38.66.11 1.3.17 1.93.17 2.14 0 3.86-.56 5.15-1.66 1.3-1.1 1.94-2.85 1.94-5.22v-11.56c0-.5-.16-.92-.49-1.25-.33-.34-.75-.52-1.25-.52-.49 0-.91.18-1.24.52-.33.33-.49.75-.49 1.25v6.96c0 1.01-.26 1.78-.76 2.32-.49.52-1.18.78-2.1.78-.94 0-1.65-.23-2.13-.7-.46-.48-.7-1.27-.7-2.4v-6.96c0-.5-.17-.92-.5-1.25a1.66 1.66 0 0 0-1.24-.52m-438.26 2.93c.83 0 1.57.27 2.22.8s1.01 1.15 1.08 1.88v.08h-6.85c.2-.89.55-1.59 1.11-2.04.6-.47 1.41-.72 2.44-.72m90.1 0c.83 0 1.57.27 2.22.8.65.52 1.01 1.15 1.08 1.88v.08h-6.85c.2-.89.55-1.59 1.11-2.04.6-.47 1.41-.72 2.44-.72m49.94 0c1.16 0 2.08.42 2.81 1.27.72.85 1.09 1.91 1.09 3.2 0 1.28-.37 2.34-1.09 3.19-.73.83-1.65 1.24-2.81 1.24-1.15 0-2.07-.41-2.8-1.24-.71-.85-1.06-1.91-1.06-3.19 0-1.29.36-2.35 1.09-3.2.72-.85 1.64-1.27 2.77-1.27m45.64 0c.83 0 1.56.27 2.21.8.66.53 1.01 1.15 1.08 1.88v.08h-6.85c.2-.89.55-1.59 1.11-2.04.6-.47 1.41-.72 2.45-.72m57.46 0c.74 0 1.41.19 2.01.56.62.37 1.1.9 1.46 1.59.37.67.56 1.44.56 2.32 0 .87-.19 1.64-.56 2.31-.36.68-.84 1.2-1.46 1.57-.6.37-1.27.55-2.01.55s-1.42-.18-2.04-.55c-.6-.37-1.08-.89-1.46-1.57-.35-.67-.53-1.44-.53-2.31 0-.88.18-1.65.53-2.32.38-.69.86-1.22 1.46-1.59.62-.37 1.29-.56 2.04-.56m79.38 0c1.15 0 2.07.42 2.77 1.27h.01c.72.84 1.09 1.88 1.09 3.17s-.37 2.34-1.09 3.2c-.73.84-1.64 1.26-2.78 1.26-1.15 0-2.08-.42-2.8-1.26-.73-.86-1.09-1.91-1.09-3.2s.36-2.33 1.09-3.17c.72-.85 1.65-1.27 2.8-1.27m24.92 0c.83 0 1.56.27 2.22.8.65.53 1 1.15 1.07 1.88v.08h-6.84c.2-.89.54-1.59 1.11-2.04.6-.47 1.41-.72 2.44-.72m24.92 0c1.15 0 2.08.42 2.8 1.27.73.85 1.09 1.91 1.09 3.2 0 1.28-.36 2.34-1.09 3.19-.72.83-1.65 1.24-2.8 1.24s-2.08-.41-2.8-1.24c-.71-.85-1.07-1.91-1.07-3.19 0-1.29.37-2.35 1.09-3.2.73-.85 1.65-1.27 2.78-1.27m-535.4 8.51c-51.37.01-59.1.02-59.35.08-.16.04-.44.15-.62.25-.22.1-.47.3-.71.53-.23.24-.42.49-.53.7-.09.19-.2.48-.25.65-.04.17-.08.49-.08.71s.04.53.08.71c.05.17.16.46.25.65.11.21.3.46.53.7.24.23.49.42.71.53.18.09.47.21.64.25.28.07 6.74.08 59.35.08 52.68 0 59.07-.01 59.35-.08.17-.04.46-.15.65-.24.22-.11.46-.29.7-.54.23-.23.43-.49.53-.7.1-.19.21-.48.25-.65.05-.18.08-.49.08-.71s-.03-.54-.08-.71c-.04-.17-.15-.46-.25-.65-.1-.21-.3-.47-.53-.7a2.6 2.6 0 0 0-.7-.54c-.19-.09-.48-.2-.65-.24-.28-.07-6.66-.08-59.37-.08m0 11.73c-41.13.01-47.37.01-47.62.08-.16.04-.44.15-.63.24-.21.11-.47.31-.7.54s-.43.49-.53.7c-.1.19-.21.48-.25.65s-.08.49-.08.71.04.53.08.7.15.47.25.65c.1.22.3.47.53.71.23.23.49.42.7.53.19.09.48.21.65.25.28.07 5.49.08 47.62.08 42.18 0 47.34-.01 47.62-.08.17-.05.46-.16.65-.25.22-.1.46-.28.7-.53.24-.23.43-.49.54-.71.09-.18.2-.48.24-.65.05-.17.08-.48.08-.7s-.03-.54-.08-.71c-.04-.17-.15-.46-.24-.65-.11-.21-.3-.47-.54-.71s-.48-.42-.7-.53c-.19-.09-.48-.2-.65-.24-.28-.07-5.43-.08-47.64-.08"/></svg>