<?xml version="1.0" encoding="UTF-8"?><svg id="Layer_2" xmlns="http://www.w3.org/2000/svg" viewBox="0 0 1564.57 391.29"><defs><style>.cls-1{fill:#9c2128;}</style></defs><g id="Layer_1-2"><path class="cls-1" d="M939.98,143c-.39-.03-.76.15-.98.48l-113.23,172.15c-.29.43-.87.55-1.3.26-.08-.05-.15-.12-.21-.19l-3.05-3.74c-.44-.54-.56-1.28-.3-1.93,3.37-8.48,4.8-17.13,4.3-25.96-.37-6.4-1.76-14.73-4.18-25-6.02-25.46-15.9-54.19-22.81-74.77-.21-.61-.56-1.11-1.07-1.5-.6-.45-1.44-.32-1.89.27-.02.03-.04.06-.06.09-10.5,16.92-20.01,31.34-28.54,43.25-12.57,17.57-27.66,33.24-43.96,48.77-25.8,24.58-55.33,45.55-89.01,56.41-17.75,5.72-36.47,7.98-56.18,6.77-30.17-1.84-56.46-12.75-78.88-32.73-4.28-3.81-7.96-7.95-11.05-12.42-10.75-15.59-18.22-31.55-22.39-47.9-4.37-17.12-4.54-34.36-.49-51.72,7.37-31.56,27.64-55.32,56.22-69.46,23.83-11.79,48.82-17.01,74.95-15.66,22.75,1.17,44.4,8.21,64.65,19.44,12.9,7.15,27.99,16.59,45.27,28.3,6.27,4.26,17,10.61,25.15,7.76,8.19-2.87,16.2-7.93,22.83-12.61.75-.53,1.42-.44,2.01.28l3.34,4.1c.55.67.46,1.24-.25,1.73-16.47,11.23-30.73,20.96-42.78,29.21-1.54,1.05-2.9,1.6-4.08,1.64-1.13.04-2.85.18-5.15.41-.29.03-.58-.05-.82-.23-21.98-17.01-44.55-31.28-67.7-42.81-21.36-10.63-45.12-18.59-69.13-19.76-14.64-.71-29.12,1.56-43.45,6.79-26.4,9.64-44.92,32.95-49.49,60.57-2.63,15.96-1.06,31.55,4.73,46.77,7.05,18.53,17.75,34.77,32.08,48.72,3.18,3.1,6.13,5.54,8.84,7.32,16.8,11.01,35.78,17.47,56.95,19.37,30.12,2.7,60.53-1.93,87.7-14.71,11.73-5.51,23.04-12.26,33.94-20.25,4.66-3.41,9.67-7.78,15.04-13.1,13.37-13.24,26.58-26.24,38.55-41.32,11.07-13.95,23.08-30.77,36.03-50.47.4-.61,1.38-2.3,2.94-5.08.56-1,.52-1.88.22-2.9-12.5-41.53-10.64-84.53,7.17-124.38,4.48-10.03,13.06-25.87,24.77-27.3,8.69-1.06,14.26,3.96,16.99,11.77,4.22,12.05,4.35,24.96,2.16,37.42-1.96,11.12-5.15,22.75-9.57,34.9-5.98,16.42-13.26,33.15-21.83,50.2-1.12,2.22.84,5.71,1.45,7.76.47,1.59,5.25,15.19,14.32,40.82,7.39,20.89,13.58,42.1,18.55,63.64.14.61.53,1.14,1.07,1.46.76.43,1.45.17,2.08-.78,66.09-100.48,100.57-152.9,103.44-157.27,14.93-22.69,25.53-38.26,31.8-46.7,9.8-13.2,20.41-24.59,31.82-34.18,15.5-13.01,32.91-22.11,53.07-24.99.58-.08,1.12.32,1.2.9.02.12.01.24-.01.36l-10.94,55.3c-.03.16-.12.23-.29.22l-7.63-.6c-.19-.01-.27-.11-.24-.3.93-5.49,1.39-9.35,1.38-11.59-.03-8.83-8.18-10.89-15.49-10.5-16.91.92-30.71,10.69-40.95,23.79-9.01,11.53-15.85,24.02-20.53,37.49-3.35,9.65-6.1,19.85-8.25,30.62-.93,4.65-1.87,11.24-2.84,19.79-2.89,25.65-5.16,48.63-6.81,68.93-.87,10.71-1.78,25.06-2.73,43.05-.25,4.65-.21,10.27.67,14.31,2.95,13.63,21.07,3.77,27.68-.18.73-.43,1.67-.24,2.16.45l2.94,4.15c.55.77.4,1.36-.44,1.78-13.6,6.93-26.88,13.9-40.75,20.02-8,3.53-13.56,6.01-16.68,7.43-.38.18-.83.01-1.01-.37-.04-.09-.07-.18-.07-.28-.79-14.92-.88-29.87-.26-44.84.11-2.57.12-4.99.03-7.25-.07-1.91-.08-4.34-.03-7.3.53-33.76,4.11-66.93,10.72-99.5.37-1.83-.1-2.8-1.43-2.89ZM809.66,134.84c.77.07,1.42-.48,1.95-1.66,9.65-21.74,16.8-44.54,17.95-68.08.38-7.71.59-24.98-10.79-26.06-11.37-1.08-14.42,15.92-15.51,23.56-3.31,23.33-.59,47.07,4.79,70.24.29,1.26.83,1.93,1.61,2Z"/><path d="M19.5,220.69c-.25-.55-.42-.52-.5.08-1.19,8.89-2.75,20.81-4.69,35.77-.07.49-.06,1.6.03,3.31.02.34.14.64.36.89,1.54,1.73,3.62,1.55,6.48,1.95.32.04.56.32.56.64v.32c0,.31-.26.57-.58.57H2.03c-.53,0-1.03-.13-1.5-.39l-.27-.15c-.25-.14-.33-.45-.2-.69.08-.14.22-.23.38-.26l3.63-.53c.35-.05.65-.19.9-.44,1.21-1.16,1.96-2.61,2.23-4.34.37-2.29,3.47-22.65,9.31-61.1.13-.8.87-1.34,1.67-1.22.24.04.46.13.65.28.47.35.91.96,1.33,1.82,14.51,29.97,22.53,46.54,24.08,49.71.08.18.3.26.48.17.08-.04.14-.1.18-.18l24.27-50.94c.32-.66,1.23-.92,2.12-.61.42.15.7.62.83,1.42.53,3.2,3.34,22.04,8.43,56.52.26,1.77.53,3.19.82,4.24,1.34,4.89,5.65,4.66,9.76,5.25.21.03.37.22.36.43v.45c-.03.43-.38.76-.81.75l-20.64-.61c-1.73-.05-2-.65-.81-1.78,1.3-1.25.83-3.24.6-4.93-2.95-21.7-4.61-33.93-4.99-36.7-.13-.99-.41-1.03-.84-.13l-21.05,43.63c-.25.53-.9.76-1.43.5-.16-.08-.3-.19-.41-.34-.69-.95-1.4-2.11-2.12-3.47-5.56-10.45-12.06-23.74-19.49-39.89Z"/><path d="M502.97,234.58c-.51-4.3-.23-8.48.84-12.55,3.57-13.57,12.03-21.93,25.37-25.08,7.35-1.74,14.88-1.6,22.59.42,17.93,4.7,25.77,20.14,23.21,37.92-3.1,21.59-21.78,32.51-42.45,29.9-16.62-2.09-27.58-13.93-29.56-30.61ZM515.57,232.55c1.25,12.49,7.68,25.12,20.82,27.64,21.13,4.05,27.95-14.57,26.23-31.67-1.27-12.49-7.7-25.12-20.84-27.64-21.13-4.05-27.94,14.56-26.21,31.67Z"/><path d="M1356.23,234.58c-.51-4.3-.23-8.48.84-12.55,3.57-13.57,12.03-21.93,25.37-25.08,7.35-1.74,14.88-1.6,22.59.42,17.93,4.7,25.77,20.14,23.21,37.92-3.1,21.59-21.78,32.51-42.45,29.9-16.62-2.09-27.58-13.93-29.56-30.61ZM1368.82,232.54c1.25,12.49,7.67,25.12,20.81,27.64,21.13,4.05,27.94-14.56,26.23-31.66-1.27-12.49-7.69-25.12-20.83-27.64-21.13-4.05-27.94,14.56-26.21,31.66Z"/><path d="M175.99,260.1c.61,2.37,5.56,2.34,8.26,2.66.31.04.53.31.49.62-.02.14-.09.28-.2.37l-.37.3c-.14.11-.3.17-.47.17h-26.8c-.33,0-.6-.27-.6-.6v-.43c0-.41.2-.61.61-.61,2.31,0,5.58,0,6.15-2.76.43-2.03.67-4.27.72-6.72.05-2.57.05-18.59,0-48.06-.01-3.77-.97-6.06-5.65-5.99-.57,0-1.03-.21-1.39-.65l-.35-.44c-.39-.47-.28-.7.33-.71l24.2-.19c1.87-.01,2.09.57.66,1.76-.37.31-1.1.44-2.18.38-2.22-.12-3.74,1.26-3.95,3.47-.03.34-.08,2.05-.15,5.13-.19,8.37-.27,21.97-.24,40.78,0,5.27.32,9.11.94,11.52Z"/><path d="M291.26,232.79c-.12.09-.14.25-.05.36,0,0,0,0,0,0,7.23,9.77,13.98,17.92,20.25,24.43,2.77,2.88,6.47,4.55,11.09,5.02.33.03.61.24.73.55l.11.29c.2.53.02.8-.55.81-4.21.06-8.47.06-12.77,0-6.66-.09-10.87-4.53-14.88-9.78-2.97-3.89-6.92-9.37-11.84-16.44-.52-.75-1.37-1.21-2.28-1.24l-6.87-.2c-.57-.02-1.04.43-1.06,1,0,0,0,0,0,0-.23,7.71-.11,14.43.34,20.16.46,5.72,4.75,3.93,7.98,4.91.4.12.65.32.74.6.11.33.04.61-.22.84-.06.06-.15.09-.24.09h-26.56c-.21,0-.38-.17-.38-.37,0,0,0-.01,0-.02l.02-.64c0-.39.2-.59.59-.6,2.76-.1,5.57-.09,6.04-3.15.53-3.43.81-6.89.82-10.38.08-19.33.1-33,.06-41,0-1.33-.11-2.88-.31-4.67-.49-4.51-3.42-4.11-7.54-4.56-.05,0-.09-.03-.14-.06l-.7-.56c-.29-.23-.33-.66-.1-.94.13-.16.33-.25.54-.25,9.13.33,17.95.35,26.48.07,7.67-.25,16.17,1.5,20.13,8.72,5.65,10.28-1.64,20.77-9.43,27ZM277.55,232.13c7.59,1.17,12.17-1.97,13.73-9.4,2.4-11.44-3.18-23.17-16.63-21.03-1.06.17-1.59.79-1.59,1.86l.03,26.18c0,.9.65,1.69,1.58,1.91.35.08,1.31.24,2.88.48Z"/><path d="M416.52,232.79c-.12.09-.14.25-.05.36,0,0,0,0,0,0,7.23,9.77,13.99,17.92,20.27,24.43,2.77,2.88,6.47,4.55,11.09,5.01.33.03.61.24.73.55l.11.29c.2.53.02.81-.55.82-4.21.06-8.47.06-12.77,0-6.66-.09-10.87-4.53-14.89-9.78-2.97-3.88-6.92-9.36-11.85-16.43-.52-.75-1.37-1.21-2.28-1.24l-6.87-.2c-.57-.02-1.04.43-1.06,1,0,0,0,0,0,0-.22,7.71-.1,14.43.35,20.16.46,5.72,4.75,3.93,7.98,4.91.4.12.65.32.74.6.11.33.04.61-.22.84-.06.06-.15.09-.24.09h-26.56c-.21.01-.38-.16-.38-.36,0,0,0-.01,0-.02l.02-.64c0-.39.2-.59.59-.6,2.76-.1,5.57-.09,6.04-3.15.53-3.43.8-6.89.81-10.38.07-19.34.09-33.01.05-41.01,0-1.33-.11-2.88-.31-4.67-.5-4.51-3.43-4.11-7.55-4.56-.05,0-.09-.03-.14-.06l-.7-.56c-.29-.23-.33-.66-.1-.94.13-.16.33-.25.54-.25,9.13.32,17.96.34,26.49.06,7.67-.25,16.17,1.49,20.13,8.71,5.66,10.28-1.63,20.78-9.42,27.01ZM402.81,232.13c7.6,1.17,12.18-1.97,13.73-9.41,2.4-11.45-3.19-23.18-16.65-21.03-1.06.17-1.59.79-1.59,1.86l.05,26.2c0,.9.65,1.69,1.58,1.91.35.08,1.31.24,2.88.47Z"/><path d="M681.03,232.79c-.12.09-.14.25-.05.36,0,0,0,0,0,0,7.23,9.77,13.99,17.92,20.27,24.43,2.77,2.88,6.47,4.55,11.09,5.01.33.03.61.24.73.55l.11.29c.2.53.02.8-.55.81-4.21.07-8.47.07-12.77.01-6.66-.09-10.88-4.53-14.89-9.78-2.98-3.88-6.93-9.36-11.85-16.43-.52-.76-1.37-1.22-2.29-1.24l-6.87-.2c-.57-.02-1.04.43-1.06,1h0c-.22,7.71-.1,14.44.35,20.17.47,5.72,4.76,3.93,7.99,4.9.4.12.65.32.74.6.11.33.04.61-.22.84-.06.06-.15.1-.24.1h-26.57c-.21.01-.38-.16-.38-.36,0,0,0-.01,0-.02l.02-.64c0-.39.2-.59.59-.6,2.76-.1,5.57-.09,6.04-3.16.53-3.43.81-6.89.82-10.38.07-19.34.08-33.01.03-41.01,0-1.33-.11-2.88-.31-4.67-.49-4.51-3.42-4.11-7.55-4.56-.05,0-.09-.03-.14-.06l-.7-.56c-.29-.23-.33-.66-.1-.94.13-.16.33-.25.54-.25,9.13.32,17.96.34,26.49.05,7.67-.25,16.18,1.5,20.14,8.72,5.66,10.28-1.63,20.77-9.41,27.01ZM667.32,232.13c7.59,1.16,12.17-1.98,13.73-9.41,2.39-11.45-3.2-23.18-16.65-21.03-1.06.17-1.59.79-1.59,1.86l.04,26.19c0,.9.66,1.69,1.59,1.91.35.08,1.31.24,2.88.48Z"/><path d="M1029.23,260.09c.61,2.37,5.56,2.34,8.26,2.66.31.04.53.31.49.62-.02.14-.09.28-.2.37l-.37.3c-.14.11-.3.17-.47.17h-26.79c-.33,0-.6-.27-.6-.6h0v-.43c0-.41.2-.61.61-.61,2.31.01,5.58,0,6.15-2.76.43-2.03.67-4.27.72-6.72.05-2.57.05-18.58,0-48.04-.01-3.77-.97-6.05-5.64-5.98-.57,0-1.03-.21-1.39-.65l-.35-.44c-.39-.47-.28-.7.33-.71l24.19-.19c1.87-.01,2.09.57.66,1.76-.37.31-1.1.44-2.18.38-2.22-.12-3.74,1.26-3.95,3.46-.03.34-.08,2.05-.15,5.13-.19,8.37-.27,21.96-.24,40.77,0,5.26.32,9.1.93,11.51Z"/><path d="M1136.87,232.79c-7.79-6.23-15.08-16.73-9.42-27.01,3.96-7.22,12.47-8.97,20.14-8.72,8.53.29,17.36.27,26.49-.06.37-.02.68.27.7.64.01.22-.09.43-.26.56l-.71.55s-.09.05-.14.06c-4.12.45-7.05.05-7.54,4.56-.2,1.79-.3,3.34-.31,4.67-.05,8.01-.03,21.68.04,41.02.01,3.49.29,6.95.82,10.38.47,3.06,3.28,3.05,6.04,3.15.39.01.58.21.59.6l.02.64c.01.2-.15.38-.36.39,0,0-.01,0-.02,0h-26.57c-.09-.01-.18-.04-.24-.1-.26-.23-.33-.51-.22-.84.09-.28.34-.48.74-.6,3.23-.98,7.52.82,7.99-4.91.45-5.73.57-12.45.34-20.16-.02-.57-.49-1.02-1.06-1,0,0,0,0,0,0l-6.87.2c-.91.03-1.76.49-2.28,1.24-4.92,7.07-8.87,12.55-11.85,16.44-4.01,5.25-8.22,9.69-14.89,9.77-4.3.06-8.56.06-12.77,0-.57,0-.75-.28-.55-.81l.11-.29c.12-.31.4-.52.73-.55,4.62-.47,8.32-2.14,11.1-5.02,6.27-6.51,13.03-14.66,20.26-24.43.09-.11.07-.28-.04-.37,0,0,0,0,0,0ZM1150.6,232.1c1.57-.24,2.53-.4,2.88-.48.92-.23,1.57-1.01,1.57-1.91v-26.15c.01-1.07-.52-1.69-1.58-1.86-13.44-2.13-19.01,9.6-16.6,21.03,1.57,7.42,6.14,10.54,13.73,9.37Z"/><path d="M1262.16,232.78c-7.8-6.24-15.08-16.74-9.42-27.02,3.97-7.22,12.47-8.97,20.15-8.71,8.53.29,17.36.27,26.49-.05.37,0,.68.28.69.65,0,.21-.09.41-.25.54l-.7.56s-.09.05-.14.06c-4.12.45-7.05.04-7.54,4.56-.21,1.79-.31,3.34-.32,4.67-.05,8.01-.04,21.68.03,41.03.01,3.49.29,6.95.82,10.38.46,3.07,3.28,3.06,6.04,3.16.39.01.58.21.59.6l.02.64c.01.2-.15.38-.36.39,0,0-.01,0-.02,0l-26.58-.02c-.09,0-.18-.03-.24-.09-.26-.23-.33-.51-.22-.84.09-.28.34-.48.74-.6,3.23-.98,7.52.82,7.99-4.91.46-5.73.58-12.46.35-20.17-.02-.57-.49-1.02-1.06-1,0,0,0,0,0,0l-6.87.19c-.91.03-1.76.49-2.28,1.24-4.93,7.07-8.89,12.56-11.86,16.45-4.02,5.25-8.24,9.69-14.9,9.77-4.3.06-8.56.06-12.78-.01-.57,0-.75-.28-.55-.81l.11-.29c.12-.31.4-.52.73-.55,4.63-.46,8.33-2.13,11.1-5.01,6.29-6.51,13.05-14.66,20.28-24.44.09-.11.08-.27-.04-.37,0,0,0,0,0,0ZM1275.88,232.1c1.57-.24,2.52-.4,2.87-.48.93-.22,1.58-1.01,1.58-1.91v-26.15c-.02-1.07-.55-1.68-1.61-1.85-13.43-2.12-18.98,9.6-16.57,21.02,1.57,7.42,6.14,10.54,13.73,9.37Z"/><path d="M1526.65,232.78c-7.79-6.23-15.08-16.74-9.42-27.02,3.97-7.22,12.48-8.97,20.15-8.71,8.53.29,17.37.27,26.5-.05.37,0,.68.28.69.65,0,.21-.09.41-.25.54l-.7.56s-.09.05-.14.06c-4.13.44-7.06.04-7.55,4.55-.2,1.79-.3,3.35-.31,4.68-.05,8.01-.04,21.68.03,41.02.01,3.49.28,6.96.81,10.39.47,3.06,3.28,3.06,6.04,3.16.39.01.58.21.59.6l.02.64c.01.2-.15.38-.36.39,0,0-.01,0-.02,0l-26.57-.02c-.09,0-.18-.03-.24-.09-.26-.23-.33-.51-.22-.84.09-.28.34-.48.74-.6,3.23-.98,7.52.82,7.99-4.91.45-5.73.57-12.46.35-20.17-.02-.57-.49-1.02-1.06-1,0,0,0,0,0,0l-6.88.19c-.91.03-1.76.49-2.28,1.24-4.93,7.08-8.88,12.56-11.86,16.45-4.01,5.25-8.23,9.69-14.89,9.77-4.31.06-8.57.06-12.78-.01-.57,0-.75-.28-.55-.81l.11-.29c.12-.31.4-.52.73-.55,4.63-.46,8.33-2.13,11.1-5.01,6.28-6.51,13.04-14.66,20.28-24.44.09-.11.07-.28-.04-.37,0,0,0,0,0,0ZM1540.36,232.1c1.57-.24,2.53-.4,2.88-.48.92-.22,1.57-1.01,1.57-1.9v-26.14c.01-1.07-.52-1.69-1.58-1.86-13.43-2.12-18.99,9.59-16.58,21.01,1.56,7.42,6.13,10.54,13.71,9.37Z"/><path d="M1291.55,391.29h-5.22c-6.09-1.04-9.15-4.79-9.19-11.26-.13-23.31-.15-40.88-.04-52.71.08-8.99,8.07-11.81,15.65-10.13,5.21,1.15,7.85,4.57,7.93,10.25.17,11.49.17,29.02.02,52.59-.05,6.45-3.1,10.21-9.15,11.26ZM1293.8,327.28c0-2.5-2.02-4.52-4.52-4.52h-.7c-2.5,0-4.52,2.02-4.52,4.52h0v53.52c0,2.5,2.02,4.52,4.52,4.52h.7c2.5,0,4.52-2.02,4.52-4.52h0v-53.52Z"/><path d="M1461.52,391.29h-4.39c-4.09-.65-6.84-2.59-8.24-5.82-.68-1.57-1.03-4.6-1.05-9.1-.03-6.52-.02-22.69.01-48.51,0-5.55,2.42-9.07,7.25-10.56,3.95-1.22,10.78-.75,13.62,2.93,1.68,2.17,2.52,4.55,2.53,7.14.09,30.23.1,47.87.03,52.92,0,.63-.33,2.12-.98,4.46-.1.38.05.54.44.49l4.16-.61c.43-.07.65.12.65.56v5.1c0,.46-.23.67-.69.63-4.35-.39-8.79-.26-13.34.37ZM1464.31,327.33c0-2.53-2.05-4.58-4.58-4.58h-.34c-2.53,0-4.58,2.05-4.58,4.58v53.42c0,2.53,2.05,4.58,4.58,4.58h.34c2.53,0,4.58-2.05,4.58-4.58v-53.42Z"/><path d="M946.72,352.66c4.32.5,5.33,3.19,5.34,7.28.01,7.87.01,15.74,0,23.59-.01,6.48-5.68,7.35-11.5,7.31-3.42-.02-7.19-.03-11.3-.04-.25,0-.45-.2-.45-.45h0v-72.53c0-.26.21-.47.47-.48,2.36-.04,6.21-.06,11.56-.07,6.67,0,10.88.94,10.92,8.74.06,10.93.06,17.73-.01,20.41-.05,1.91-.84,3.49-2.37,4.76-.7.58-1.81.77-2.71,1.1-.51.19-.49.31.05.38ZM935.81,323.71v25.6c0,.24.2.44.44.44h4.17c2.44,0,4.41-1.94,4.41-4.34h0v-17.8c0-2.4-1.97-4.34-4.41-4.34h-4.17c-.24,0-.44.2-.44.44h0ZM935.83,355.95l-.04,28.38c0,.24.2.44.44.45h4.44c2.42.02,4.39-1.81,4.4-4.06h0s.04-21.12.04-21.12c0-2.25-1.96-4.08-4.38-4.09h-4.44c-.25-.02-.45.18-.46.43,0,0,0,0,0,.01Z"/><path d="M984.37,349.27c0,.35.17.53.52.53l9.5-.02c.32,0,.48.16.48.48v4.8c0,.33-.16.49-.49.49l-9.49-.02c-.35,0-.52.17-.52.52v28.23c.01.35.18.52.53.52h9.99c.32-.01.48.15.48.47v5.05c-.01.32-.17.48-.49.48h-16.9c-.27.02-.48-.19-.49-.46,0,0,0,0,0-.01v-72.41c-.01-.35.28-.63.63-.63h16.53c.39,0,.71.32.71.71v4.54c.01.49-.23.74-.72.74h-9.76c-.35,0-.52.17-.52.51v25.48Z"/><path d="M1030.4,317.29c1.39,0,2.77.05,4.14.14.37.03.59.22.64.59l10.6,72.24c.05.35-.11.53-.46.53h-5.91c-.27,0-.42-.13-.46-.4l-2.84-19.33c-.04-.28-.2-.43-.49-.44-.96-.05-2.7-.08-5.22-.08s-4.26.03-5.22.08c-.29.01-.45.16-.49.44l-2.84,19.33c-.04.27-.19.4-.46.4h-5.91c-.35,0-.51-.18-.46-.53l10.6-72.24c.05-.37.27-.56.65-.59,1.37-.09,2.74-.14,4.13-.14ZM1030.4,364.53c1.47,0,2.96,0,4.47,0,.31,0,.45-.15.42-.46-3.1-26.75-4.74-40.12-4.91-40.12s-1.79,13.37-4.86,40.12c-.03.31.11.47.42.47h4.46Z"/><path d="M1080.65,391.29h-5.14c-6.19-1.08-9.28-4.74-9.28-10.99.01-20.97.02-41.88.03-62.75,0-.17.08-.26.25-.26h6.43c.12,0,.18.06.18.18l.05,62.83c0,3.18,1.68,4.89,5.04,5.12.08,0,.21,0,.4-.04,3-.54,4.5-2.33,4.5-5.36v-62.48c0-.13.11-.24.25-.24h6.39c.18,0,.27.09.27.26,0,23.68,0,42.57-.03,56.68,0,5.69-.16,9.04-.45,10.07-1.09,3.83-4.06,6.15-8.89,6.98Z"/><path d="M1123.06,317.28c3.53,0,7,.01,10.42.01.35,0,.53.17.53.53v4.97c0,.33-.16.49-.48.49h-6.5c-.35,0-.53.18-.53.53v66.46c0,.29-.24.53-.54.53-.94,0-1.91-.01-2.9-.01s-1.97,0-2.91.01c-.3,0-.54-.24-.54-.53v-66.46c.01-.35-.17-.53-.52-.53h-6.5c-.32,0-.48-.16-.48-.49v-4.97c0-.36.18-.54.53-.54,3.42,0,6.89,0,10.42,0Z"/><path d="M1165.31,349.7c.05,0,.1-.02.14-.06.02-.02.04-.05.05-.1,2.09-10.89,4.13-21.53,6.12-31.93.04-.21.17-.31.38-.31h6.48c.13,0,.18.06.15.19-5.37,22.62-8.32,34.99-8.85,37.1-.7,2.79-1.03,5.63-1,8.5.03,2.15.04,11.28.03,27.39,0,.13-.11.24-.25.25-1.05.04-2.14.06-3.25.06s-2.21-.02-3.26-.06c-.14-.01-.24-.12-.24-.25,0-16.11,0-25.24.03-27.39.04-2.87-.29-5.71-.99-8.5-.53-2.11-3.47-14.48-8.84-37.1-.03-.13.02-.19.15-.19h6.48c.21,0,.34.1.38.31,1.99,10.4,4.02,21.04,6.11,31.93.01.05.03.08.05.1.04.04.08.06.13.06Z"/><path d="M1246.18,352.28c-.51.19-.49.31.05.38,4.32.5,5.33,3.19,5.33,7.27.01,7.87.01,15.74,0,23.59-.01,6.48-5.68,7.35-11.5,7.3-3.42-.02-7.19-.03-11.3-.04-.25,0-.45-.2-.45-.45l.02-72.51c0-.26.21-.47.47-.48,2.36-.04,6.21-.06,11.56-.07,6.66,0,10.87.95,10.91,8.74.06,10.93.06,17.73-.01,20.41-.05,1.91-.84,3.49-2.37,4.76-.7.58-1.81.77-2.71,1.1ZM1235.35,324.05l-.08,24.96c0,.43.33.77.76.78h3.75c2.5.02,4.53-1.91,4.54-4.31h0s.06-17.82.06-17.82c.01-2.4-2-4.35-4.5-4.36h-3.75c-.43-.02-.77.32-.78.75h0ZM1235.33,355.98l-.04,28.34c0,.26.21.47.47.48h4.37c2.58.02,4.67-2.04,4.68-4.58h0s.04-20.1.04-20.1c0-2.54-2.08-4.6-4.66-4.61h-4.37c-.27-.02-.48.19-.49.46,0,0,0,0,0,.01Z"/><path d="M1340.24,391.29h-5.04c-6.29-1.02-9.43-4.43-9.42-10.24.03-19.51.04-40.68.03-63.51,0-.16.08-.24.24-.24h6.52c.17,0,.25.08.25.25v62.99c-.01,3.04,1.62,4.63,4.89,4.78.05,0,.13,0,.25-.01,3.05-.29,4.57-1.96,4.57-5.02l.04-62.74c0-.14.11-.25.25-.25h6.45c.2,0,.3.1.3.3-.02,21.05-.02,42.12,0,63.2,0,5.91-3.1,9.41-9.33,10.49Z"/><path d="M1382.7,390.79c-.99,0-1.96.01-2.9.02-.3,0-.54-.24-.54-.53h0s-.02-66.46-.02-66.46c0-.35-.18-.53-.53-.53h-6.5c-.32,0-.48-.16-.48-.49v-4.97c0-.36.17-.54.52-.53,3.43,0,6.9,0,10.43-.01h10.42c.35,0,.52.17.52.53v4.97c0,.33-.15.49-.47.49h-6.5c-.35.01-.53.19-.53.54l.03,66.45c0,.29-.24.53-.54.53-.94,0-1.91-.01-2.91-.01Z"/><rect x="1415.81" y="317.3" width="7" height="73.5" rx=".44" ry=".44"/><path d="M1510.79,391.29h-4.59c-4.03-.53-6.82-2.2-8.36-5.01-.85-1.57-1.28-4.47-1.28-8.68,0-15.43,0-35.44-.01-60.05,0-.17.09-.25.26-.25h6.51c.17,0,.25.08.25.25v62.73c0,3.21,1.6,4.91,4.8,5.11.23.01.35.02.36.02,3.04-.36,4.56-1.99,4.56-4.89l.03-62.98c0-.16.08-.24.24-.24h6.47c.19,0,.28.09.28.28,0,23.59,0,44.75.03,63.47,0,5.88-3.18,9.29-9.55,10.24Z"/><path d="M1562.76,350.27v4.79c0,.27-.21.48-.48.48h-9.55c-.27,0-.48.21-.48.48h0v28.28c0,.27.21.48.48.48h10.03c.27,0,.48.21.48.48h0v5.05c0,.27-.21.48-.48.48h-16.9c-.27,0-.48-.21-.48-.48h0v-72.51c0-.27.21-.48.48-.48h16.91c.27,0,.48.21.48.48v5.01c0,.27-.21.48-.48.48h-10.03c-.27,0-.48.21-.48.48h0v25.54c0,.27.21.48.48.48h9.54c.27,0,.48.21.48.48Z"/></g></svg>