<svg xmlns="http://www.w3.org/2000/svg" width="428" height="76" fill="#fff" xmlns:v="https://vecta.io/nano"><path d="M30.506 36.715l-5.695-11.952-4.507-9.456h-.311a.31.31 0 0 1-.155.039h-.732l-.62.059-.62.02h-2.472a8.72 8.72 0 0 1-.615-.02l-.62-.059h-.62a1.83 1.83 0 0 1-.286-.019.81.81 0 0 1-.291-.097v1.164l1.702.189.615.058a1.75 1.75 0 0 1 .465.097.76.76 0 0 1 .329.155.95.95 0 0 1 .213.272c.048.102.102.247.15.427a3.35 3.35 0 0 1 .116.615l.059.834.02.945V37.42l-.02 1.003-.059.848a3.13 3.13 0 0 1-.116.64c-.053.17-.102.306-.15.407a.54.54 0 0 1-.213.228 2.88 2.88 0 0 1-.329.16l-.465.092a1.85 1.85 0 0 1-.615.02l-1.702.116v1.163h.383c.053-.029.111-.039.175-.039h.989L15.26 42l.756-.02h2.549c.131 0 .257.009.388.039h1.119a1.72 1.72 0 0 1 .388.039h.984a.59.59 0 0 1 .213.039h.427v-1.164l-1.702-.039-.62-.097-.461-.092-.311-.16a.46.46 0 0 1-.233-.228 1.07 1.07 0 0 1-.175-.407 4.79 4.79 0 0 1-.097-.64l-.059-.848-.019-1.081v-17.55h.077L29.19 42.479h.771l.136-.291.097-.209c.029-.053.048-.097.058-.136s.034-.087.059-.136l.155-.388c.054-.131.116-.257.194-.388v-.058c0-.009.014-.029.039-.059v-.077c0-.025.005-.048.02-.073a.4.4 0 0 1 .058-.077l.311-.717.311-.751.116-.286-1.008-2.118h.001zm15.772 4.178a2.95 2.95 0 0 1-.62-.059l-.465-.097a3.25 3.25 0 0 1-.306-.17.61.61 0 0 1-.233-.252 1.07 1.07 0 0 1-.175-.407 4.81 4.81 0 0 1-.097-.64l-.059-.848-.02-1.081V20.061l.02-1.003.059-.853a5.91 5.91 0 0 1 .097-.615 1.09 1.09 0 0 1 .175-.427.72.72 0 0 1 .233-.272.93.93 0 0 1 .306-.155.85.85 0 0 1 .194-.059 1.79 1.79 0 0 0 .272-.058 2.39 2.39 0 0 0 .291-.02.96.96 0 0 0 .329-.093l1.624-.116v-1.085h-.272a.32.32 0 0 1-.155.039h-.737c-.102 0-.204.009-.305.02a2 2 0 0 1-.272.019 1.17 1.17 0 0 1-.311.039h-2.705a.64.64 0 0 1-.233-.039h-.814c-.025 0-.048-.009-.073-.039h-.776a2.23 2.23 0 0 1-.31-.019.86.86 0 0 1-.311-.097l-9 19.101.984 2.06 6.32-13.353.17-.388.213-.383.175-.407a4.02 4.02 0 0 1 .213-.407.42.42 0 0 0 .116-.175 1.06 1.06 0 0 1 .116-.213 2.61 2.61 0 0 1 .097-.17 1.39 1.39 0 0 0 .097-.213 2.92 2.92 0 0 1 .194-.407 5.14 5.14 0 0 0 .233-.485h.073v17.628l-.02 1.003-.053.848a3.93 3.93 0 0 1-.116.64 3.14 3.14 0 0 1-.155.407c-.053.102-.126.179-.213.227-.092.053-.199.107-.329.16l-.465.092c-.179.039-.383.048-.615.02l-1.314.116v1.163l1.158-.059 1.275-.02 1.332-.039h2.743l1.372.039 1.43.02 1.468.059v-1.163l-1.852-.039.003.003zm31.151-18.704c-.669-1.648-1.663-3.029-2.976-4.139-1.314-1.134-2.821-1.982-4.522-2.549s-3.582-.848-5.642-.848c-2.244 0-4.25.334-6.029 1.003s-3.311 1.686-4.6 3.054a13.12 13.12 0 0 0-2.937 4.541c-.645 1.686-.969 3.524-.969 5.506 0 2.167.325 4.105.969 5.816.645 1.716 1.624 3.204 2.937 4.468s2.787 2.196 4.425 2.802c1.634.601 3.431.906 5.389.906 2.113 0 4.062-.354 5.836-1.062s3.378-1.784 4.794-3.228c1.444-1.444 2.525-3.049 3.247-4.813s1.081-3.688 1.081-5.777-.334-4.032-1.003-5.68h-.001zm-3.727 11.729c-.402 1.454-1.003 2.748-1.798 3.882s-1.798 1.987-2.995 2.555-2.598.848-4.198.848c-1.827 0-3.412-.334-4.75-1.003s-2.438-1.677-3.286-3.015a18.62 18.62 0 0 1-1.972-4.25c-.465-1.468-.722-3.015-.771-4.638a.52.52 0 0 0-.02-.136c-.014-.039-.02-.082-.02-.136v-.698c0-1.595.194-3.054.577-4.367s.979-2.487 1.779-3.514a7.42 7.42 0 0 1 3.054-2.38c1.236-.528 2.695-.819 4.367-.867v.077c1.803 0 3.368.295 4.697.887a8.34 8.34 0 0 1 3.306 2.627c.877 1.187 1.532 2.555 1.972 4.1s.654 3.272.654 5.176c0 1.779-.199 3.397-.596 4.852v-.001zm33.661-11.749a9.77 9.77 0 0 0-2.841-3.732c-1.26-1.057-2.685-1.842-4.27-2.355-1.584-.519-3.329-.776-5.239-.776H94.01a.65.65 0 0 1-.233.039h-1.236l-1.119.059-1.198.02H85.45a6.49 6.49 0 0 1-.756-.039h-1.255c-.092 0-.175-.009-.252-.039h-1.779a9.64 9.64 0 0 1-.635-.019 3.12 3.12 0 0 1-.64-.097v1.164l1.546.189.62.058a1.75 1.75 0 0 1 .465.097.72.72 0 0 1 .325.155c.087.078.16.17.213.272s.102.247.155.427.093.383.116.615l.058.833.02.945v18.398c0 .257-.02.504-.059.737a3.47 3.47 0 0 1-.175.654c-.077.209-.179.383-.31.524a1.03 1.03 0 0 1-.422.291l-1.202.615v.892h.465a.4.4 0 0 1 .194-.039h1.12c.179-.029.363-.039.543-.039h1.081c.077-.029.16-.039.252-.039h3.747c.145 0 .291.009.446.039l.407.019.407.02h.984a.59.59 0 0 1 .213.039h1.042l2.186-.059a18.36 18.36 0 0 0 1.949-.213l1.759-.426c.581-.155 1.153-.349 1.721-.581 1.158-.49 2.234-1.164 3.227-2.026s1.886-1.929 2.686-3.189a14.44 14.44 0 0 0 1.798-4.003 16.74 16.74 0 0 0 .601-4.503c0-1.827-.32-3.47-.95-4.924l-.001-.003zm-3.553 9.66c-.247 1.124-.615 2.171-1.105 3.15-.49.955-1.125 1.798-1.91 2.535-.79.732-1.711 1.343-2.767 1.832l-.228.097-.194.097-.233.077-.233.077-.446.155-.402.155-1.202.252-1.158.136-1.12.058-1.081.02h-1.45a3.07 3.07 0 0 1-.485-.039c-.233 0-.465-.009-.698-.02l-.654-.058-.62-.097c-.179-.039-.349-.097-.499-.175v-22.92c.15-.053.32-.082.499-.097l.62-.058.654-.059.698-.058h.233c.077 0 .165-.009.272-.039h1.43c1.75 0 3.359.175 4.828.524s2.797.867 3.984 1.566c1.212.693 2.118 1.808 2.724 3.344s.906 3.494.906 5.893c0 1.314-.121 2.53-.363 3.649l-.001.002zm26.144 3.887l-.252 1.604a9.91 9.91 0 0 1-.325 1.333c-.107.388-.228.693-.369.926s-.276.388-.407.465c-.155.077-.407.141-.751.194l-1.411.155-1.798.097-1.953.053h-2.976a3.97 3.97 0 0 1-.543-.034l-.538-.077c-.107 0-.203-.009-.291-.02a1.7 1.7 0 0 1-.252-.059.75.75 0 0 1-.291-.058 1.57 1.57 0 0 1-.252-.136V29.415l.93-.058 1.042-.02h.562a6.09 6.09 0 0 0 .635-.039h1.314l1.585.02 1.201.097c.335.024.611.073.829.136s.378.136.485.213c.048.025.087.068.116.136l.078.209c.024.077.043.165.058.252a1.66 1.66 0 0 0 .059.291l.189 2.283 1.163.077v-.349c-.028-.053-.039-.111-.039-.175v-.911c-.029-.126-.039-.247-.039-.363v-1.066a1.66 1.66 0 0 1-.039-.363v-2.496l.02-.732.058-.776v-.945c0-.063.01-.136.039-.213v-.465h-1.163l-.189 2.089c-.029.131-.049.252-.059.368a1.69 1.69 0 0 1-.058.291l-.078.189a.69.69 0 0 1-.116.155c-.107.077-.266.136-.485.175l-.829.136-1.201.077-1.585.039h-1.314c-.412 0-.799-.014-1.158-.039a14.25 14.25 0 0 1-1.043-.039l-.969-.116V17.24c.078-.025.165-.043.252-.058l.291-.058a1.54 1.54 0 0 0 .252-.02l.291-.059.539-.058.543-.02h.291a.83.83 0 0 0 .252-.039h2.666a1.51 1.51 0 0 0 .348.039h.383l.621.059.659.058.615.058.621.059c.411.053.795.121 1.158.213a8.86 8.86 0 0 1 1.042.329.29.29 0 0 1 .175.136.83.83 0 0 1 .097.247l.059.291a1.95 1.95 0 0 1 .019.291v2.51l1.352.077v-.926l.02-.485.058-.518.02-.524.019-.524.059-.48.058-.524.175-.964.213-.931-1.164-.059-1.235-.02h-.635a4.56 4.56 0 0 1-.64-.039h-2.201c-.155.029-.32.039-.484.039h-2.763l-.93.059-.926.02h-5.332c-.363 0-.722-.005-1.085-.02l-1.081-.059h-1.082c-.184 0-.363-.005-.543-.019a2.63 2.63 0 0 1-.543-.097v1.163l1.856.189.621.059a1.67 1.67 0 0 1 .46.097c.131.029.243.077.33.155a.89.89 0 0 1 .213.272c.053.102.102.247.155.427s.093.383.116.615l.059.833.019.945v17.434l-.019 1.003-.059.848a3.05 3.05 0 0 1-.116.64c-.053.17-.102.306-.155.407a.51.51 0 0 1-.213.227 2.38 2.38 0 0 1-.33.16l-.46.092c-.185.039-.388.048-.621.02l-1.391.116v1.164h.349c.048-.029.107-.039.175-.039h1.023l.62-.058.615-.02h3.674l1.256.02 1.255.058h1.779a1.71 1.71 0 0 1 .388.039h3.669a3.54 3.54 0 0 1 .561-.039h1.683a3.23 3.23 0 0 1 .518-.039h1.105a1.06 1.06 0 0 1 .291-.039h1.216v-1.391a1.12 1.12 0 0 1 .039-.311c0-.077.006-.17.02-.272l.019-.31.02-.524c.009-.165.029-.339.058-.518l.059-.485a5.22 5.22 0 0 1 .058-.524l.151-1.023.193-.984-1.352.077-.001.001zm28.044 5.196l-.64-.136a1.51 1.51 0 0 1-.582-.286 1.85 1.85 0 0 1-.461-.562l-8.773-11.366h.039c.025 0 .049-.009.073-.034a11.41 11.41 0 0 0 2.671-.872c.848-.397 1.663-.906 2.433-1.527a5.92 5.92 0 0 0 1.74-2.201c.388-.849.582-1.793.582-2.825v-.189c-.029-.029-.039-.059-.039-.097v-.485c-.078-.62-.272-1.216-.582-1.798s-.722-1.125-1.235-1.643c-.544-.514-1.275-.907-2.205-1.178s-2.06-.407-3.403-.407h-.887a1.05 1.05 0 0 1-.291.039h-1.41l-1.139.059-1.1.02h-4.561c-.388 0-.756-.005-1.105-.02l-1.062-.059h-1.081c-.179 0-.364-.005-.543-.019a1.74 1.74 0 0 1-.499-.097v1.163l1.58.189.62.059a1.7 1.7 0 0 1 .465.097c.126.029.238.077.33.155s.159.17.208.271.107.247.156.427a3.4 3.4 0 0 1 .116.615l.059.834.019.945v17.434l-.019 1.003-.059.848a3.2 3.2 0 0 1-.116.64 2.17 2.17 0 0 1-.156.407.7.7 0 0 1-.208.252 1.67 1.67 0 0 1-.33.17 5.64 5.64 0 0 1-.465.077 2.22 2.22 0 0 1-.62 0l-1.852.116v1.163l1.062-.058 1.022-.02h1.009a2.61 2.61 0 0 1 .479-.039h3.48l1.372.039 1.43.02 1.468.058v-1.163l-1.856-.039c-.228 0-.437-.02-.616-.059l-.465-.097a4.07 4.07 0 0 1-.31-.17.63.63 0 0 1-.228-.252 1.07 1.07 0 0 1-.175-.407 4.67 4.67 0 0 1-.096-.64l-.059-.848-.019-1.081v-20.1l.829-.175c.271-.064.562-.111.872-.136l1.023-.116 1.216-.039h.233c.746.029 1.449.136 2.108.329s1.294.47 1.91.829a3.57 3.57 0 0 1 1.391 1.624c.309.698.465 1.546.465 2.555 0 .722-.122 1.377-.369 1.968a4.79 4.79 0 0 1-1.139 1.624 6.23 6.23 0 0 1-1.623 1.182 7.17 7.17 0 0 1-1.895.635l-.209.058c-.068.014-.126.02-.175.02h-.193c-.054.024-.093.039-.117.039h-.077l-.388.058a3.44 3.44 0 0 1-.388.02h-1.313a1.91 1.91 0 0 1-.292-.02.6.6 0 0 1-.247-.097l-.232.543a1.77 1.77 0 0 0 .175.233 2.37 2.37 0 0 0 .213.228.34.34 0 0 1 .116.116c.025.053.063.092.111.116a.59.59 0 0 0 .097.136.53.53 0 0 1 .097.136l.31.329.311.368c.102.102.199.213.291.325a3.05 3.05 0 0 0 .286.329l7.115 9.626a1.23 1.23 0 0 1 .136.175c.039.063.067.121.096.175a2.06 2.06 0 0 1 .156.174 1.66 1.66 0 0 0 .15.17c0 .029.014.053.039.077l.077.077c0 .029.01.048.02.058s.034.02.058.02c0 .029.01.048.02.059l.058.059c.025.024.054.063.077.116s.063.092.117.116a.46.46 0 0 0 .097.136.45.45 0 0 1 .096.136c.054.102.112.184.175.252l.213.213h.233c.024-.029.058-.039.096-.039h.674c0-.029.005-.039.02-.039h.601c.048-.029.102-.039.155-.039h1.735l.465.02a3.76 3.76 0 0 1 .465.058h.596c.039 0 .087.009.136.039h.232V41.01l-.674-.097.003-.001zm31.634-25.605c-.077.029-.15.039-.213.039h-.988a1.73 1.73 0 0 1-.383.039h-1.125a1.71 1.71 0 0 1-.383.039h-2.554a12.22 12.22 0 0 1-.751-.02l-.756-.059h-.771a3.5 3.5 0 0 1-.388-.019 1.23 1.23 0 0 1-.388-.097v1.164l1.702.189.62.058a1.74 1.74 0 0 1 .465.097.72.72 0 0 1 .325.155c.087.078.165.17.213.272.054.102.102.247.156.427a3.4 3.4 0 0 1 .116.615l.059.833.019.945v14.89l1.779 2.191V20.062l.019-1.003.059-.853c.024-.233.058-.436.097-.615s.096-.325.174-.427a.76.76 0 0 1 .228-.272 1 1 0 0 1 .311-.155c.053-.024.116-.043.193-.059a1.79 1.79 0 0 0 .272-.058 2.38 2.38 0 0 0 .291-.02c.116-.009.223-.043.325-.092l1.701-.116v-1.085h-.421-.003zm-3.17 26.9c-.028-.024-.039-.048-.039-.077v-.189c-.028-.029-.039-.058-.039-.097v-1.478l-1.895-2.331-5.055-6.219-13.42-16.508h-.156c-.048.029-.087.039-.116.039h-.422a1.93 1.93 0 0 1-.329.059l-.368.02h-2.162c-.262 0-.509-.005-.756-.02l-.751-.059h-.853a3.97 3.97 0 0 1-.403-.019 1.22 1.22 0 0 1-.407-.097v1.164l1.701.189.615.058a1.74 1.74 0 0 1 .465.097c.126.029.238.077.33.155a.9.9 0 0 1 .213.272c.048.102.102.247.15.427a3.4 3.4 0 0 1 .116.615l.059.833.019.945V37.42l-.019 1.003-.059.848a3.13 3.13 0 0 1-.116.64 2.65 2.65 0 0 1-.15.407.54.54 0 0 1-.213.227 2.98 2.98 0 0 1-.33.16l-.465.092a1.85 1.85 0 0 1-.615.02l-1.701.116v1.164h.388c.048-.029.107-.039.17-.039h.988l.751-.058.757-.02h2.549c.131 0 .257.009.388.039h1.119a1.72 1.72 0 0 1 .388.039h.984a.59.59 0 0 1 .213.039h.427v-1.164l-1.702-.039-.62-.097-.461-.093-.31-.16c-.107-.048-.184-.126-.232-.228a1.05 1.05 0 0 1-.175-.407c-.039-.17-.073-.378-.097-.64l-.058-.848-.02-1.081V19.52h.077l18.205 22.611 3.48.62v-.116c-.029-.024-.039-.043-.039-.059v-.368l.001-.002zm40.428-1.314a1.42 1.42 0 0 1-.485-.155 2.4 2.4 0 0 1-.402-.267l-.329-.407a3.4 3.4 0 0 1-.33-.485c-.053-.077-.102-.165-.155-.272l-.155-.306-.156-.329-.15-.329-.155-.368-.155-.329a1.08 1.08 0 0 1-.078-.17l-.077-.213-.077-.175-.077-.213-9.355-21.951-1.236.073-.291.698-.252.698-.286.693-.291.698-.155.383-.155.388a2.81 2.81 0 0 0-.194.388l-.155.388-.33.771-.363.776-.291.615-.252.62-.291.596-.252.562-6.878 15.733c-.102.257-.228.49-.368.693-.141.209-.301.402-.485.581s-.373.32-.577.427a1.14 1.14 0 0 1-.659.111l-1.431.116v1.164h.388c.054-.029.107-.039.175-.039h.907l.717-.058.751-.02h2.743l.717.02.751.058h1.066a.59.59 0 0 1 .213.039h.461v-1.164l-1.43-.039-.81-.097c-.232-.039-.426-.092-.581-.17a.61.61 0 0 1-.349-.291 1.08 1.08 0 0 1-.116-.524c0-.077.014-.184.039-.329l.116-.48c.054-.209.116-.412.194-.62l.233-.62v-.059c0-.009.014-.029.039-.058s.039-.048.039-.073c0-.053.005-.097.02-.136s.033-.073.058-.097l.077-.233c.025-.077.063-.155.117-.233l.077-.194.077-.233.077-.213.078-.174a.28.28 0 0 1 .039-.15l.077-.194 1.081-2.593.66-1.546h-.005l.659-1.541 4.25-9.975 4.871 11.516h-7.483l-.659 1.546h8.835l1.779 4.522c0 .029.015.039.039.039v.077c0 .029.01.053.02.077.014.029.034.039.058.039v.077c0 .029.015.039.039.039v.039l.233.601.232.596.136.485a1.52 1.52 0 0 1 .058.407c0 .102-.048.204-.136.311-.091.102-.213.179-.368.233a1.7 1.7 0 0 1-.504.15 1.93 1.93 0 0 1-.577 0l-1.818.116v1.163h.504a1 1 0 0 1 .272-.039h1.197l.867-.058.834-.02h3.209l.848.02.848.058h1.066a.55.55 0 0 1 .208.039h.427V40.93l-1.314-.039h.002z"/><path d="M249.811 35.716l-.252 1.604a9.88 9.88 0 0 1-.329 1.333c-.102.388-.224.693-.364.926s-.281.388-.407.465c-.155.077-.407.141-.756.194l-1.411.155-1.798.097-1.949.053h-2.975a4.04 4.04 0 0 1-.544-.034l-.543-.077a2.5 2.5 0 0 1-.286-.02 1.76 1.76 0 0 1-.252-.059.74.74 0 0 1-.291-.058c-.093-.038-.175-.082-.252-.136V29.415l.931-.058 1.042-.02h.558c.193 0 .407-.015.64-.039h1.314l1.584.02c.465.014.862.043 1.198.097a4.17 4.17 0 0 1 .833.136c.218.063.378.136.48.213.053.025.091.068.116.136a2.03 2.03 0 0 1 .077.209 1.08 1.08 0 0 1 .059.252l.058.291.193 2.283 1.159.077v-.349c-.025-.053-.039-.111-.039-.175v-.911a1.87 1.87 0 0 1-.039-.363v-1.066a1.87 1.87 0 0 1-.039-.363v-2.496l.019-.732.058-.776v-.945a.71.71 0 0 1 .039-.213v-.465h-1.159l-.193 2.089-.058.368a1.04 1.04 0 0 1-.059.291 1 1 0 0 1-.077.189.48.48 0 0 1-.116.155c-.102.077-.262.136-.48.175l-.833.136-1.198.077-1.584.039h-1.314c-.412 0-.799-.014-1.158-.039a14.04 14.04 0 0 1-1.043-.039l-.969-.116V17.24a1.7 1.7 0 0 1 .252-.058l.291-.058a1.53 1.53 0 0 0 .252-.02l.286-.059.543-.058.544-.02h.286a.81.81 0 0 0 .252-.039h2.671a1.47 1.47 0 0 0 .343.039h.388l.621.059.654.058.62.058.616.059a10.1 10.1 0 0 1 1.163.213 9.1 9.1 0 0 1 1.042.329.29.29 0 0 1 .175.136.99.99 0 0 1 .097.247l.058.291.02.291v2.51l1.352.077v-.926l.019-.485a4.98 4.98 0 0 1 .059-.518l.019-.524.02-.524.058-.48a5.21 5.21 0 0 1 .058-.524l.175-.964.209-.931-1.159-.059-1.235-.02h-.64c-.218 0-.432-.009-.635-.039h-2.205c-.155.029-.315.039-.48.039h-2.762l-.931.059-.926.02h-5.336c-.359 0-.722-.005-1.081-.02l-1.082-.059h-1.085c-.179 0-.359-.005-.538-.019a2.31 2.31 0 0 1-.543-.097v1.163l1.856.189.62.059c.179.014.33.048.46.097.131.029.238.077.33.155a.89.89 0 0 1 .213.272 3.09 3.09 0 0 1 .155.427 4.57 4.57 0 0 1 .116.615l.059.833.019.945v17.434l-.019 1.003-.059.848c-.029.261-.068.47-.116.64s-.107.306-.155.407a.52.52 0 0 1-.213.227 2.6 2.6 0 0 1-.33.16l-.46.092a1.88 1.88 0 0 1-.62.02l-1.391.116v1.164h.349c.048-.029.107-.039.169-.039h1.028l.616-.058.62-.02h3.669l1.26.02 1.255.058h1.779a1.66 1.66 0 0 1 .383.039h3.674c.179-.029.369-.039.562-.039h1.682c.179-.029.354-.039.519-.039h1.1c.107-.029.203-.039.291-.039h1.216v-1.391a1.29 1.29 0 0 1 .039-.311 2.7 2.7 0 0 1 .02-.272 2.31 2.31 0 0 0 .019-.31l.02-.524.058-.518a3.86 3.86 0 0 0 .058-.485l.058-.524.156-1.023.193-.984-1.352.077-.002.001zm21.699-5.491c-.397-.771-.998-1.362-1.793-1.774-.8-.441-1.74-.799-2.822-1.085-1.085-.281-2.306-.499-3.674-.654-1.211-.131-2.234-.329-3.073-.601s-1.487-.611-1.953-1.023a3.55 3.55 0 0 1-1.022-1.391c-.218-.543-.33-1.134-.33-1.779 0-.853.131-1.609.388-2.283.257-.669.645-1.236 1.159-1.702.513-.46 1.056-.829 1.623-1.1a5.72 5.72 0 0 1 1.779-.519h.465a.29.29 0 0 0 .111-.039h.814c.025.024.058.039.097.039h.097a2.46 2.46 0 0 1 .465.039c.15.024.306.039.461.039l.427.077a3.28 3.28 0 0 1 .465.111c.305.077.591.17.848.272a6.85 6.85 0 0 1 .736.349l.403.272.329.233.272.227.232.233.194.291a1.33 1.33 0 0 1 .116.329 1.11 1.11 0 0 1 .097.329 2.26 2.26 0 0 0 .053.329l.233 2.201h1.236v-1.042c0-.077.014-.155.039-.233v-.427l.096-.867.097-.911.136-.926a9.38 9.38 0 0 1 .175-.964.54.54 0 0 0-.175-.058.92.92 0 0 1-.175-.058l-.213-.077-.17-.077a3.9 3.9 0 0 0-.368-.155l-.407-.155-1.159-.368-1.314-.329a8.8 8.8 0 0 0-1.449-.267c-.504-.053-1.028-.077-1.566-.077h-.349c-.077.024-.15.039-.213.039h-.562c-.048.024-.107.039-.169.039h-.175c-1.057.155-2.069.441-3.034.867a12.4 12.4 0 0 0-2.763 1.682c-.877.693-1.536 1.551-1.972 2.569-.442 1.018-.66 2.196-.66 3.538 0 1.003.16 1.886.485 2.646.32.761.804 1.401 1.449 1.915.669.49 1.547.906 2.627 1.255 1.086.349 2.385.611 3.907.795.979.102 1.87.267 2.685.499s1.541.528 2.186.892c.64.334 1.125.824 1.45 1.468s.479 1.416.479 2.317c0 .955-.179 1.798-.538 2.53s-.906 1.362-1.623 1.876a8.29 8.29 0 0 1-2.264 1.158c-.785.261-1.618.388-2.491.388a10.11 10.11 0 0 1-2.205-.232 9.18 9.18 0 0 1-2.006-.693c-.645-.31-1.144-.649-1.488-1.028-.349-.368-.547-.776-.601-1.216l-.31-2.588-1.236.077v2.859l-.059.776-.019.771a.75.75 0 0 1-.02.175.8.8 0 0 0-.019.175c-.025.077-.039.145-.039.213v.175l-.059.383-.058.388.193.097a1.78 1.78 0 0 1 .233.136c.048.024.097.043.136.059s.082.019.136.019a.87.87 0 0 0 .155.059c.048.014.102.029.155.059l.538.136a6.03 6.03 0 0 1 .621.175l.634.15.718.155a10.76 10.76 0 0 0 1.526.272 14.85 14.85 0 0 0 1.566.077h.427c1.391-.025 2.729-.247 4.018-.654s2.525-1.018 3.708-1.818c1.163-.799 2.036-1.798 2.632-2.995s.887-2.612.887-4.232c0-1.11-.199-2.05-.601-2.825l.002-.002zm23.405-14.919a3.26 3.26 0 0 1-.523.039h-2.607l-1.023.059-1.066.02h-1.023a7.3 7.3 0 0 1-1.062-.077l-5.607.077h-2.084a24.36 24.36 0 0 1-1.023-.02l-1.066-.059h-2.607a3.15 3.15 0 0 1-.524-.039h-1.042a12.01 12.01 0 0 1 .097 1.164l.058 1.158.058 1.159.059 1.159v1.507h1.197l.156-2.976a2.05 2.05 0 0 1 .136-.577c.062-.155.145-.286.252-.388.101-.102.252-.179.441-.233a8.28 8.28 0 0 1 .717-.155l5.991.077.058.887.058.931v.485a3.13 3.13 0 0 0 .039.48v17.434l-.019 1.003-.059.848c-.029.261-.062.47-.116.64s-.102.306-.155.407a.73.73 0 0 1-.213.252 1.43 1.43 0 0 1-.33.17 5.19 5.19 0 0 1-.46.077 2.22 2.22 0 0 1-.621 0l-1.856.116v1.164l1.066-.059 1.023-.02h1.003c.155-.029.315-.039.485-.039h3.479l1.372.039 1.43.02 1.468.059v-1.164l-1.856-.039a2.96 2.96 0 0 1-.615-.058l-.465-.097a3.29 3.29 0 0 1-.311-.17c-.102-.068-.179-.15-.233-.252a1.07 1.07 0 0 1-.174-.407 5.6 5.6 0 0 1-.096-.64l-.059-.848-.019-1.081V20.002l.039-.984.039-.931.077-.964 5.991.077a3.06 3.06 0 0 1 .737.077c.203.053.359.131.465.233s.179.232.227.388a2.45 2.45 0 0 1 .116.499l.156 3.054 1.197.077v-1.585l.02-1.158.058-1.158.097-1.158.097-1.164h-1.042l-.003.002zm29.241 3.752l.054-.853.096-.615a1.09 1.09 0 0 1 .175-.427.83.83 0 0 1 .233-.272.95.95 0 0 1 .31-.155.87.87 0 0 1 .194-.059c.077-.009.165-.029.272-.058a2.17 2.17 0 0 0 .286-.02.91.91 0 0 0 .329-.093l1.856-.116v-1.085l-1.468.059-1.43.019-1.372.039h-3.48a2.57 2.57 0 0 1-.484-.039h-1.003a12.03 12.03 0 0 1-1.023-.039l-1.066-.116v1.164l1.856.189.62.058c.18.014.335.048.466.097a.73.73 0 0 1 .325.155c.088.078.164.17.213.272s.101.247.155.427a3.4 3.4 0 0 1 .116.615l.058.834.019.945v6.96c-.101.025-.252.043-.445.059l-.713.014h-.892c-.334 0-.722-.025-1.158-.073l-9.044.073h-.286v1.657l.286-.034 9.044.077h1.158c.155.029.311.039.465.039h1.139c.194 0 .344-.009.446-.039v8.7l-.02 1.003-.058.848c-.024.261-.062.47-.116.64a2.69 2.69 0 0 1-.155.407.71.71 0 0 1-.213.252c-.088.063-.199.121-.325.17-.131.029-.286.053-.465.077-.179.029-.388.029-.621 0l-1.856.116v1.163l1.066-.059 1.023-.02h1.003a2.67 2.67 0 0 1 .485-.039h3.479l1.372.039 1.43.02 1.468.059V40.93l-1.856-.039a2.9 2.9 0 0 1-.615-.059l-.465-.097a3.29 3.29 0 0 1-.311-.17c-.102-.068-.179-.15-.232-.252-.078-.102-.136-.238-.175-.407a5.82 5.82 0 0 1-.097-.64l-.053-.848-.02-1.081V20.06l.02-1.003v.001zm-19.135 0l.059-.853c.024-.233.058-.436.097-.615s.096-.325.174-.427a.83.83 0 0 1 .233-.272.91.91 0 0 1 .31-.155c.048-.025.116-.043.194-.059a1.83 1.83 0 0 0 .267-.058 2.4 2.4 0 0 0 .291-.02.91.91 0 0 0 .329-.093l1.856-.116v-1.085l-1.468.059-1.43.019-1.377.039h-3.475c-.17 0-.33-.009-.485-.039h-1.003a12 12 0 0 1-1.028-.039l-1.062-.116v1.164l1.857.189.62.058a1.63 1.63 0 0 1 .46.097.73.73 0 0 1 .329.155.86.86 0 0 1 .213.272c.049.102.102.247.156.427a4.57 4.57 0 0 1 .116.615l.059.834.019.945v17.434l-.019 1.003-.059.848a3.99 3.99 0 0 1-.116.64c-.054.17-.107.305-.156.407a.71.71 0 0 1-.213.252 1.49 1.49 0 0 1-.329.17c-.126.029-.281.053-.46.077a2.22 2.22 0 0 1-.62 0l-1.857.116v1.163l1.062-.059 1.028-.02h1.003c.155-.029.315-.039.485-.039h3.475l1.377.039 1.43.02 1.468.059v-1.163l-1.856-.039a2.94 2.94 0 0 1-.62-.059l-.461-.097a2.6 2.6 0 0 1-.31-.17c-.101-.063-.179-.15-.233-.252a1.07 1.07 0 0 1-.174-.407 4.82 4.82 0 0 1-.097-.64l-.059-.848-.019-1.081V20.06l.019-1.003v.001zm44.547 16.658l-.252 1.604c-.092.499-.203.945-.329 1.333-.102.388-.228.693-.368.926s-.277.388-.408.465c-.15.077-.402.141-.751.194l-1.41.155-1.799.097-1.953.053h-2.975a3.94 3.94 0 0 1-.538-.034l-.544-.077c-.101 0-.198-.009-.291-.02-.087-.015-.174-.034-.252-.059-.102 0-.198-.02-.286-.058a1.42 1.42 0 0 1-.252-.136V29.415l.926-.058 1.047-.02h.558a6.34 6.34 0 0 0 .64-.039h1.314l1.584.02c.46.014.863.043 1.198.097a4.08 4.08 0 0 1 .829.136c.218.063.383.136.484.213a.22.22 0 0 1 .117.136l.077.209a1.86 1.86 0 0 1 .058.252l.058.291.194 2.283 1.158.077v-.349a.42.42 0 0 1-.039-.175v-.911a1.95 1.95 0 0 1-.039-.363v-1.066a1.95 1.95 0 0 1-.039-.363v-2.496l.02-.732.058-.776v-.945c0-.063.015-.136.039-.213v-.465h-1.158l-.194 2.089-.058.368a1.79 1.79 0 0 1-.058.291 1.62 1.62 0 0 1-.077.189c-.025.053-.063.107-.117.155-.101.077-.266.136-.484.175l-.829.136-1.198.077-1.584.039h-1.314a17.25 17.25 0 0 1-1.164-.039c-.359 0-.708-.014-1.042-.039l-.964-.116V17.24a1.7 1.7 0 0 1 .252-.058l.286-.058a1.57 1.57 0 0 0 .252-.02l.291-.059.543-.058.538-.02h.291a.82.82 0 0 0 .252-.039h2.666a1.49 1.49 0 0 0 .349.039h.388l.615.059.66.058.615.058.62.059c.412.053.8.121 1.159.213a9.21 9.21 0 0 1 1.047.329c.077.024.136.068.175.136s.068.145.092.247l.058.291a1.82 1.82 0 0 1 .02.291v2.51l1.352.077v-.926l.019-.485.058-.518.019-.524.02-.524c.029-.155.048-.315.058-.48l.059-.524.175-.964.213-.931-1.159-.059-1.235-.02h-.64a4.55 4.55 0 0 1-.64-.039h-2.201c-.155.029-.315.039-.485.039h-2.762l-.926.059-.931.02h-5.332a26.93 26.93 0 0 1-1.081-.02l-1.085-.059h-1.081a6.95 6.95 0 0 1-.544-.019 2.31 2.31 0 0 1-.538-.097v1.163l1.856.189.616.059a1.75 1.75 0 0 1 .465.097c.126.029.238.077.329.155s.161.17.209.272a2.17 2.17 0 0 1 .155.427 3.31 3.31 0 0 1 .117.615l.058.833.02.945v17.434l-.02 1.003-.058.848a3.11 3.11 0 0 1-.117.64 2.18 2.18 0 0 1-.155.407c-.048.102-.121.179-.209.227-.091.053-.203.107-.329.16l-.465.092a1.83 1.83 0 0 1-.616.02l-1.396.116v1.164h.349c.054-.029.111-.039.175-.039h1.023l.62-.058.621-.02h3.668l1.256.02 1.255.058h1.779a1.72 1.72 0 0 1 .388.039h3.674a3.47 3.47 0 0 1 .557-.039h1.682a3.27 3.27 0 0 1 .524-.039h1.1a1.06 1.06 0 0 1 .291-.039h1.216v-1.391a1.34 1.34 0 0 1 .039-.311 1.87 1.87 0 0 1 .02-.272 2.31 2.31 0 0 0 .019-.31l.02-.524.058-.518.059-.485.058-.524.156-1.023.194-.984-1.352.077-.004.001zm24.812-20.41a3.28 3.28 0 0 1-.524.039h-2.607l-1.023.059-1.062.02h-1.028c-.348 0-.702-.025-1.061-.077l-5.603.077h-2.089a23.58 23.58 0 0 1-1.023-.02l-1.066-.059h-2.607a3.13 3.13 0 0 1-.519-.039h-1.047a11.7 11.7 0 0 1 .097 1.164l.058 1.158.058 1.159.058 1.159v1.507h1.197l.156-2.976c.024-.233.073-.427.135-.577a1.17 1.17 0 0 1 .253-.388c.102-.102.252-.179.445-.233a8.92 8.92 0 0 1 .712-.155l5.991.077.059.887.058.931v.485a3.13 3.13 0 0 0 .039.48v17.434l-.019 1.003-.059.848a3.13 3.13 0 0 1-.116.64c-.053.17-.102.306-.155.407a.73.73 0 0 1-.213.252c-.088.063-.199.121-.325.17-.131.029-.286.053-.465.077s-.388.029-.621 0l-1.852.116v1.164l1.062-.059 1.023-.02h1.008c.15-.029.315-.039.479-.039h3.48l1.372.039 1.43.02 1.468.059v-1.164l-1.856-.039c-.228 0-.436-.02-.615-.058l-.465-.097a3.29 3.29 0 0 1-.311-.17c-.102-.068-.179-.15-.233-.252a1.07 1.07 0 0 1-.174-.407 5.98 5.98 0 0 1-.092-.64l-.059-.848-.019-1.081V20.002l.039-.984.039-.931.077-.964 5.991.077a3.04 3.04 0 0 1 .732.077 1.02 1.02 0 0 1 .465.233.99.99 0 0 1 .232.388c.049.15.088.32.117.499l.15 3.054 1.202.077v-1.585l.019-1.158.059-1.158.091-1.158.097-1.164h-1.042l.002.002zm10.105 3.752l.058-.853.097-.615c.039-.179.096-.325.174-.427a.83.83 0 0 1 .233-.272.9.9 0 0 1 .311-.155.77.77 0 0 1 .193-.059 1.74 1.74 0 0 0 .267-.058 2.4 2.4 0 0 0 .291-.02.91.91 0 0 0 .329-.093l1.856-.116v-1.085l-1.468.059-1.43.019-1.372.039h-3.479c-.17 0-.33-.009-.485-.039h-1.003c-.335 0-.679-.009-1.023-.039l-1.066-.116v1.164l1.856.189.621.058a1.63 1.63 0 0 1 .46.097c.131.029.238.077.33.155a.9.9 0 0 1 .213.272c.054.102.102.247.155.427s.087.383.116.615l.058.834.02.945v17.434l-.02 1.003-.058.848a3.99 3.99 0 0 1-.116.64c-.053.17-.102.305-.155.407a.72.72 0 0 1-.213.252 1.52 1.52 0 0 1-.33.17 5.19 5.19 0 0 1-.46.077 2.22 2.22 0 0 1-.621 0l-1.856.116v1.163l1.066-.059 1.023-.02h1.003c.155-.029.315-.039.485-.039h3.479l1.372.039 1.43.02 1.468.059v-1.163l-1.856-.039c-.233 0-.436-.02-.62-.059l-.461-.097a2.77 2.77 0 0 1-.311-.17c-.102-.068-.179-.15-.232-.252-.078-.102-.136-.238-.175-.407a5.82 5.82 0 0 1-.097-.64l-.058-.848-.019-1.081V20.06l.019-1.003.001.001zm30.206 19.363a6.67 6.67 0 0 1-1.139.698l-1.411.615-1.527.485c-.528.141-1.061.252-1.604.325l-.543.102c-.179.034-.359.059-.538.059a4 4 0 0 1-.543.034h-.543c-1.905 0-3.63-.281-5.176-.848a11.04 11.04 0 0 1-4.057-2.588c-1.164-1.134-2.031-2.467-2.613-4.003s-.867-3.252-.867-5.157c0-1.648.233-3.17.693-4.561s1.173-2.666 2.128-3.829c.926-1.158 2.089-2.026 3.48-2.607s2.986-.867 4.793-.867h.383a.41.41 0 0 0 .175.039h.601a.43.43 0 0 0 .193.039h.228l.368.059a2.67 2.67 0 0 1 .369.058 2.15 2.15 0 0 0 .348.053 3.12 3.12 0 0 1 .349.059l.674.175.64.175 1.236.524 1.081.519c.334.184.586.383.756.601s.247.446.247.679v2.782l1.202.077v-.659a.29.29 0 0 1 .019-.097c.01-.039.02-.068.02-.097l.019-.635.059-.679c0-.204.019-.417.058-.635l.092-.64.233-1.255.232-1.178c-.102-.053-.213-.097-.329-.136a2.77 2.77 0 0 0-.363-.097 2.04 2.04 0 0 0-.369-.136l-.407-.097-1.585-.407-1.856-.368a16.52 16.52 0 0 0-1.968-.267l-2.05-.077a19.71 19.71 0 0 0-3.151.247 21.8 21.8 0 0 0-2.995.717c-.955.311-1.847.698-2.685 1.158s-1.619.994-2.341 1.585a13.27 13.27 0 0 0-1.987 2.031c-.581.732-1.076 1.541-1.488 2.414s-.722 1.813-.93 2.802-.305 2.045-.305 3.15c0 2.191.359 4.149 1.081 5.875s1.788 3.209 3.209 4.45c1.439 1.236 3.097 2.157 4.968 2.763 1.866.601 3.96.906 6.276.906l.912-.039.983-.116a9.3 9.3 0 0 0 1.082-.136l1.124-.213.577-.15c.179-.053.374-.092.582-.116l.562-.155.557-.155c.388-.131.746-.276 1.081-.446a9.03 9.03 0 0 0 .97-.558l1.081-1.934-.349-.311-.002-.002zM119.029 72.736a5.01 5.01 0 0 1-.819.499l-1.013.441a12.14 12.14 0 0 1-1.096.349 9.3 9.3 0 0 1-1.148.233l-.393.073a2.04 2.04 0 0 1-.388.039 2.55 2.55 0 0 1-.388.029h-.388c-1.366 0-2.607-.204-3.717-.61s-2.08-1.028-2.913-1.856a7.86 7.86 0 0 1-1.876-2.874c-.411-1.1-.62-2.336-.62-3.703 0-1.182.165-2.278.499-3.277s.838-1.915 1.527-2.743c.664-.834 1.498-1.459 2.496-1.876s2.142-.625 3.441-.625h.277c.034.02.077.029.126.029h.426c.039.02.083.029.141.029h.165l.266.043.262.039a1.55 1.55 0 0 0 .252.043 2.58 2.58 0 0 1 .247.039l.485.126.46.126.887.373.776.373a1.7 1.7 0 0 1 .543.431c.121.16.179.32.179.485v1.997l.858.058v-.47c0-.02.005-.043.015-.073.009-.024.014-.048.014-.068l.015-.456.043-.49c0-.145.009-.3.039-.456l.068-.46.17-.901.164-.844a1.22 1.22 0 0 0-.232-.097c-.088-.029-.175-.053-.267-.073a1.73 1.73 0 0 0-.261-.097l-.291-.068-1.139-.291a14.2 14.2 0 0 0-1.333-.261c-.46-.093-.935-.16-1.415-.194l-1.469-.058a14.42 14.42 0 0 0-2.263.179c-.728.121-1.445.291-2.147.514a10.78 10.78 0 0 0-1.93.834c-.601.334-1.163.713-1.677 1.139a9.44 9.44 0 0 0-1.43 1.454 8.93 8.93 0 0 0-1.071 1.735 8.97 8.97 0 0 0-.664 2.011c-.15.712-.223 1.464-.223 2.264 0 1.57.262 2.976.776 4.216a8.6 8.6 0 0 0 2.307 3.189 10.19 10.19 0 0 0 3.562 1.983c1.343.436 2.845.654 4.507.654l.655-.029.708-.082.775-.097.805-.155.417-.111a3.31 3.31 0 0 1 .416-.082l.403-.111.402-.111a5.76 5.76 0 0 0 .776-.315 7.09 7.09 0 0 0 .693-.402l.78-1.391-.252-.218h0z"/><path d="M151.905 70.793l-.179 1.148c-.063.363-.141.683-.233.96-.077.276-.165.499-.266.664s-.199.281-.291.334c-.112.053-.292.102-.544.141l-1.008.111-1.294.068-1.401.039h-2.137a2.62 2.62 0 0 1-.387-.025l-.388-.058a1.57 1.57 0 0 1-.209-.014.74.74 0 0 1-.179-.039.51.51 0 0 1-.209-.043c-.063-.025-.126-.059-.179-.097V66.27l.664-.043.751-.014h.402c.136 0 .291-.005.456-.025h.945l1.139.014a6.02 6.02 0 0 1 .858.068c.243.019.442.048.596.097a1.13 1.13 0 0 1 .349.15.2.2 0 0 1 .082.097c.02.048.034.097.054.155a.95.95 0 0 1 .043.179 2.23 2.23 0 0 0 .043.209l.136 1.638.834.053v-.247c-.02-.039-.029-.082-.029-.126v-.654c-.02-.092-.029-.179-.029-.261v-.761a1.7 1.7 0 0 1-.025-.266v-1.788l.015-.528.039-.553v-.683a.44.44 0 0 1 .029-.15v-.334h-.834l-.136 1.498-.043.267a1.05 1.05 0 0 1-.043.209c-.019.059-.034.102-.054.136-.019.039-.048.077-.082.111-.077.059-.189.097-.349.126l-.596.097-.858.058-1.139.025h-.945a14.01 14.01 0 0 1-.829-.025 9.07 9.07 0 0 1-.751-.029l-.694-.082v-7.352a.97.97 0 0 1 .179-.043 2.23 2.23 0 0 0 .209-.043c.059 0 .116 0 .179-.009a2.23 2.23 0 0 0 .209-.043l.388-.043.388-.009h.208a.57.57 0 0 0 .185-.029h1.914c.073.02.155.029.247.029h.277l.445.039.471.043.445.039.442.043.833.15a7.09 7.09 0 0 1 .751.238.22.22 0 0 1 .121.097.68.68 0 0 1 .073.179c.019.072.029.145.039.209a1.38 1.38 0 0 1 .015.209v1.803l.974.058v-.669l.01-.344.043-.373.014-.378.015-.373a4.08 4.08 0 0 0 .039-.349l.043-.373.126-.693.15-.664-.833-.043-.887-.014h-.456c-.16 0-.311-.009-.461-.029h-1.58c-.111.02-.228.029-.344.029h-1.987l-.664.043-.668.014h-3.825a21.63 21.63 0 0 1-.78-.014l-.775-.043h-.776a5.57 5.57 0 0 1-.393-.014c-.126-.009-.257-.029-.388-.068v.833l1.333.136.445.043a1.21 1.21 0 0 1 .33.068.54.54 0 0 1 .237.111.76.76 0 0 1 .156.194c.034.073.073.175.107.306a2.63 2.63 0 0 1 .087.446l.039.596.014.678v12.514l-.014.722-.039.611c-.02.184-.048.334-.087.456a1.9 1.9 0 0 1-.107.291c-.039.073-.093.131-.156.165a1.85 1.85 0 0 1-.237.111l-.33.073a1.48 1.48 0 0 1-.445.009l-.998.087v.829h.252c.034-.015.077-.025.121-.025h.737l.445-.043.442-.014h2.637l.901.014.901.043h1.275c.097 0 .189.009.281.025h2.632l.402-.025h1.212a2.45 2.45 0 0 1 .373-.029h.791c.072-.02.14-.029.208-.029h.873v-.998a.88.88 0 0 1 .029-.223 1.74 1.74 0 0 1 .014-.194l.015-.218.009-.378.043-.373a3.65 3.65 0 0 0 .044-.349l.039-.373.111-.737.141-.708-.975.058.002-.004zm40.956-14.652a.47.47 0 0 1-.155.029h-.708c-.093.02-.184.029-.277.029h-.804a1.31 1.31 0 0 1-.277.029h-1.832a10.15 10.15 0 0 1-.543-.014l-.539-.043h-.557c-.093 0-.184-.005-.277-.014a.94.94 0 0 1-.276-.068v.834l1.217.136.445.043c.131.009.243.034.335.068a.54.54 0 0 1 .232.111.65.65 0 0 1 .156.194 2.46 2.46 0 0 1 .111.306 3.13 3.13 0 0 1 .082.446l.043.596.01.678v12.956h-.083l-13.261-16.315h-.111c-.039.019-.063.029-.082.029h-.306a1.66 1.66 0 0 1-.237.043c-.083.009-.17.015-.262.015h-1.555c-.185 0-.364-.005-.539-.015l-.543-.043h-.611a3.18 3.18 0 0 1-.291-.014.97.97 0 0 1-.291-.068v.833l1.222.136.441.043a1.2 1.2 0 0 1 .334.068.57.57 0 0 1 .238.111c.063.059.116.121.15.194a2.17 2.17 0 0 1 .111.306 2.65 2.65 0 0 1 .083.446l.043.596.014.678v12.51l-.014.722-.043.611c-.02.184-.044.334-.083.456a1.96 1.96 0 0 1-.111.291c-.034.073-.087.131-.15.165a1.51 1.51 0 0 1-.238.111l-.334.073a1.45 1.45 0 0 1-.441.009l-1.222.087v.829h.276c.039-.014.077-.025.126-.025h.708l.543-.043.538-.014h1.832c.093 0 .184.009.277.029h.804c.093 0 .184.009.277.029h.708c.048 0 .096.009.155.025h.305v-.829l-1.221-.029-.445-.068-.33-.073-.223-.111c-.073-.034-.131-.093-.165-.165-.058-.073-.096-.17-.125-.291s-.054-.272-.068-.456l-.044-.611-.014-.78v-12.79h.059l13.066 16.232 2.496.446v-.082c-.019-.02-.029-.034-.029-.043v-.261c-.019-.019-.028-.039-.028-.058v-.141c-.015-.014-.025-.039-.025-.068V59.555l.014-.722.039-.611.068-.446a.82.82 0 0 1 .126-.305.57.57 0 0 1 .17-.194c.073-.053.145-.092.218-.111.039-.02.087-.029.141-.039l.193-.043a1.97 1.97 0 0 0 .209-.014.69.69 0 0 0 .238-.068l1.221-.082v-.78h-.306l.002.003zm33.21 0a2.5 2.5 0 0 1-.378.029h-1.871l-.736.043-.762.014h-.736c-.247 0-.504-.02-.761-.058l-4.023.058h-1.498a20.3 20.3 0 0 1-.737-.014l-.766-.043h-1.87a2.41 2.41 0 0 1-.374-.029h-.751a8.22 8.22 0 0 1 .073.833l.039.834.044.833.039.829v1.085h.862l.111-2.137a1.34 1.34 0 0 1 .097-.417.81.81 0 0 1 .179-.277c.073-.077.179-.131.32-.17l.514-.111 4.299.059.039.64.043.664v.349c0 .116.01.233.029.344v12.514l-.014.722-.043.611c-.02.184-.044.334-.083.456a1.96 1.96 0 0 1-.111.291.45.45 0 0 1-.15.179 1.23 1.23 0 0 1-.238.126l-.334.053a1.67 1.67 0 0 1-.442 0l-1.332.087v.829l.765-.039.732-.014h.722a2.03 2.03 0 0 1 .349-.029h2.496l.984.029 1.028.014 1.051.039v-.829l-1.328-.029a2.05 2.05 0 0 1-.446-.043l-.334-.068-.218-.126c-.077-.043-.131-.107-.17-.179a.8.8 0 0 1-.125-.291 3.86 3.86 0 0 1-.068-.456l-.039-.611-.015-.78v-12.44l.025-.708.029-.664.058-.698 4.3.058a2.4 2.4 0 0 1 .528.053c.145.039.257.092.329.17.077.073.131.165.17.277a2.52 2.52 0 0 1 .082.359l.111 2.196.858.053v-1.139l.015-.829.043-.833.068-.834.068-.833h-.746v-.002zm32.794 14.652l-.179 1.148c-.068.363-.145.683-.238.96a2.68 2.68 0 0 1-.261.664c-.107.17-.204.281-.296.334-.107.053-.291.102-.538.141l-1.013.111-1.289.068-1.401.039h-2.137c-.13 0-.261-.005-.388-.025l-.387-.058c-.078 0-.146-.005-.209-.014a.73.73 0 0 1-.184-.039.52.52 0 0 1-.209-.043.96.96 0 0 1-.179-.097V66.27l.669-.043.746-.014h.402a3.93 3.93 0 0 0 .46-.025h.94l1.139.014c.335.005.621.029.858.068a2.93 2.93 0 0 1 .601.097 1.08 1.08 0 0 1 .344.15c.039.019.063.053.082.097l.059.155.039.179a2.23 2.23 0 0 0 .043.209l.136 1.638.834.053v-.247c-.02-.039-.029-.082-.029-.126v-.654a1.64 1.64 0 0 1-.025-.261v-.761a1.34 1.34 0 0 1-.029-.266v-1.788l.015-.528.039-.553v-.683a.44.44 0 0 1 .029-.15v-.334h-.834l-.136 1.498-.043.267a1.61 1.61 0 0 1-.039.209.93.93 0 0 1-.059.136c-.019.039-.043.077-.082.111-.073.059-.189.097-.344.126l-.601.097-.858.058-1.139.025h-.94a14.15 14.15 0 0 1-.833-.025 9.32 9.32 0 0 1-.752-.029l-.693-.082v-7.352c.059-.02.116-.034.179-.043.068-.009.136-.025.209-.043l.184-.009c.068-.009.131-.025.209-.043l.388-.043.388-.009h.208c.063 0 .122-.009.179-.029h1.915c.073.02.155.029.247.029h.281l.441.039.476.043.441.039.445.043.834.15.746.238c.058.02.097.053.126.097a.72.72 0 0 1 .068.179l.043.209a1.57 1.57 0 0 1 .014.209v1.803l.97.058v-.669l.014-.344.039-.373.014-.378.015-.373.043-.349.039-.373.126-.693.15-.664-.829-.043-.887-.014h-.46c-.155 0-.311-.009-.456-.029h-1.584a1.93 1.93 0 0 1-.344.029h-1.983l-.668.043-.664.014h-3.829a21.73 21.73 0 0 1-.781-.014l-.775-.043h-.776a5.5 5.5 0 0 1-.388-.014 1.75 1.75 0 0 1-.388-.068v.833l1.329.136.446.043a1.19 1.19 0 0 1 .334.068.53.53 0 0 1 .233.111.66.66 0 0 1 .155.194 2.17 2.17 0 0 1 .111.306 3.27 3.27 0 0 1 .083.446l.043.596.01.678v12.514l-.01.722-.043.611c-.02.184-.049.334-.083.456a2.54 2.54 0 0 1-.111.291c-.039.073-.087.131-.155.165-.063.039-.141.077-.233.111l-.334.073c-.131.025-.277.029-.446.009l-.999.087v.829h.253a.31.31 0 0 1 .125-.025h.732l.445-.043.442-.014h2.637l.901.014.901.043h1.28a1.63 1.63 0 0 1 .277.025h2.637a3.57 3.57 0 0 1 .402-.025h1.207a2.45 2.45 0 0 1 .373-.029h.79a.83.83 0 0 1 .209-.029h.873v-.998a.93.93 0 0 1 .028-.223c0-.053.006-.116.015-.194s.014-.145.014-.218l.015-.378.039-.373.043-.349.043-.373.107-.737.141-.708-.969.058v-.004zm36.773 3.732l-.456-.097a1.13 1.13 0 0 1-.417-.209 1.32 1.32 0 0 1-.334-.402l-6.296-8.157h.029c.015 0 .034-.009.054-.029a7.98 7.98 0 0 0 1.914-.625 8.66 8.66 0 0 0 1.75-1.096 4.25 4.25 0 0 0 1.246-1.58c.277-.611.417-1.284.417-2.026v-.141c-.02-.015-.029-.039-.029-.068v-.345c-.054-.446-.194-.878-.412-1.294a4.99 4.99 0 0 0-.892-1.178c-.388-.368-.911-.649-1.58-.848s-1.478-.291-2.443-.291h-.634a.86.86 0 0 1-.209.029h-1.013l-.819.043-.79.014h-3.277a21.15 21.15 0 0 1-.79-.014l-.761-.043h-.776a5.51 5.51 0 0 1-.393-.014 1.42 1.42 0 0 1-.359-.068v.834l1.139.136.442.043c.13.009.242.034.334.068a.58.58 0 0 1 .238.111c.062.059.111.121.15.194s.073.175.111.305a2.64 2.64 0 0 1 .082.446l.044.596.014.678v12.514l-.014.722-.044.611a2.32 2.32 0 0 1-.082.456 1.96 1.96 0 0 1-.111.291.5.5 0 0 1-.15.179 1.26 1.26 0 0 1-.238.126 3.19 3.19 0 0 1-.334.053 1.67 1.67 0 0 1-.442 0l-1.332.087v.829l.761-.039.737-.014h.722c.111-.019.227-.029.344-.029h2.501l.984.029 1.027.014 1.052.039v-.829l-1.333-.029a2.01 2.01 0 0 1-.441-.043l-.334-.068-.223-.126a.45.45 0 0 1-.165-.179.8.8 0 0 1-.126-.291l-.068-.456-.043-.611-.014-.78V57.53l.6-.126a4.2 4.2 0 0 1 .621-.097 6.25 6.25 0 0 1 .736-.082l.873-.029h.17c.533.02 1.037.097 1.512.238a6.07 6.07 0 0 1 1.372.597 2.55 2.55 0 0 1 .998 1.163c.222.5.334 1.11.334 1.832a3.62 3.62 0 0 1-.266 1.416c-.174.427-.446.814-.814 1.164a4.47 4.47 0 0 1-1.168.848c-.426.213-.878.363-1.357.456l-.156.043a.63.63 0 0 1-.125.014h-.136c-.039.02-.068.029-.082.029h-.059l-.276.039-.276.014h-.946c-.073 0-.145-.005-.209-.014a.48.48 0 0 1-.179-.068l-.164.388a1.73 1.73 0 0 0 .121.165c.048.059.097.111.155.17.034.014.063.043.083.082s.043.063.082.082a.44.44 0 0 0 .068.097c.025.029.053.059.073.097l.223.238.218.261a2.1 2.1 0 0 1 .209.238l.209.233 5.103 6.912a.52.52 0 0 1 .102.126l.068.121.111.126c.034.048.073.087.111.126 0 .019.005.039.025.053l.058.058c0 .019.005.029.015.039s.019.014.039.014c0 .019.005.034.014.043a.47.47 0 0 0 .043.039.86.86 0 0 1 .054.082c.019.039.048.068.082.087a.45.45 0 0 0 .073.097.39.39 0 0 1 .068.097.72.72 0 0 0 .126.179l.15.15h.165c.019-.014.043-.025.073-.025h.484c0-.019.005-.029.015-.029h.431a.22.22 0 0 1 .107-.029h1.25l.334.014.335.043h.426a.25.25 0 0 1 .097.025h.17v-.776l-.49-.068-.001.002zm30.631-7.673c-.286-.553-.717-.979-1.289-1.275-.572-.315-1.25-.577-2.026-.78s-1.657-.359-2.637-.47c-.867-.093-1.604-.238-2.205-.431s-1.066-.436-1.4-.732c-.334-.281-.577-.611-.737-.998-.155-.393-.232-.814-.232-1.28 0-.611.091-1.153.276-1.634a3.06 3.06 0 0 1 .834-1.221 4.78 4.78 0 0 1 1.163-.79 4.11 4.11 0 0 1 1.275-.378h.335c.019 0 .048-.009.082-.029h.586c.015.02.039.029.068.029h.068a1.95 1.95 0 0 1 .335.029 1.93 1.93 0 0 0 .334.029l.305.053c.107.02.219.048.33.082l.611.194.528.252.291.194.237.165.194.17.165.165.14.209a.92.92 0 0 1 .083.238c.034.073.058.15.068.233a1.69 1.69 0 0 0 .043.238l.165 1.58h.887v-.746a.53.53 0 0 1 .028-.17v-.306l.068-.62.073-.654.097-.664c.025-.223.068-.456.121-.698a.72.72 0 0 0-.121-.039.52.52 0 0 1-.126-.043c-.057-.014-.106-.034-.155-.053l-.121-.058-.267-.107-.291-.111-.833-.267-.941-.233a5.88 5.88 0 0 0-1.042-.194 10.44 10.44 0 0 0-1.124-.059h-.247a.47.47 0 0 1-.156.029h-.402a.24.24 0 0 1-.121.029h-.126c-.761.107-1.488.315-2.181.62a9.11 9.11 0 0 0-1.983 1.207 4.69 4.69 0 0 0-1.415 1.847c-.315.732-.47 1.575-.47 2.539 0 .722.116 1.352.344 1.9a3.42 3.42 0 0 0 1.042 1.371c.48.354 1.11.654 1.885.901.781.252 1.711.441 2.802.572a11.29 11.29 0 0 1 1.929.359 7.07 7.07 0 0 1 1.57.64 2.31 2.31 0 0 1 1.037 1.052c.233.465.349 1.018.349 1.667 0 .683-.131 1.289-.388 1.818s-.649.974-1.168 1.343a5.83 5.83 0 0 1-1.618.833c-.562.184-1.164.277-1.793.277-.553 0-1.082-.053-1.581-.165a6.73 6.73 0 0 1-1.444-.499c-.465-.223-.814-.465-1.066-.737s-.393-.558-.431-.872l-.218-1.861-.892.058v2.05l-.039.558-.015.552a.63.63 0 0 1-.014.126.61.61 0 0 0-.015.126c-.019.053-.029.107-.029.15v.126l-.039.277c-.009.097-.024.189-.043.281l.141.068.165.097.096.043c.029.009.063.009.097.009a.53.53 0 0 0 .111.043c.038.009.073.025.112.043l.387.097c.131.025.276.068.446.121l.456.111.513.111c.369.092.737.16 1.096.194a10.51 10.51 0 0 0 1.124.059h.306a10.03 10.03 0 0 0 2.884-.475 10.34 10.34 0 0 0 2.666-1.304c.833-.572 1.459-1.289 1.885-2.147s.64-1.876.64-3.039c0-.795-.145-1.468-.431-2.026l-.001.001zM0 0v66.726h86.313v-.969H.969V.969h426.062v64.788h-86.739v.969H428V0H0zm207.605 33.125l.66-1.546.653-1.541m.98 3.087l.659-1.546.654-1.541"/></svg>