<svg xmlns="http://www.w3.org/2000/svg" width="176.898" height="25.002" viewBox="0 0 176.898 25.002">
  <g id="Group_14606" data-name="Group 14606" transform="translate(20145.77 17589)">
    <path id="Path_6991" data-name="Path 6991" d="M1737.9.237a20.052,20.052,0,0,1,2.871.671c8.682,2.733,14.75,9.689,22.2,14.225a3.318,3.318,0,0,1,.551.289c.16.04.605-.34.765-.436,3-1.812,5.939-3.956,9.373-4.933,2.537-.721,6.007-1.034,8.135.78a4.793,4.793,0,0,1,1.507,4.254,5.447,5.447,0,0,1-3.13,3.839,10.521,10.521,0,0,1-5.231,1.119,23.24,23.24,0,0,1-3.822-.249,27.374,27.374,0,0,1-6.825-2.6c-.365-.191-.723-.411-1.075-.625a16.159,16.159,0,0,1-1.954,1.067,15.894,15.894,0,0,1-11.416,1.151,3.354,3.354,0,0,1-.933-.391,1.64,1.64,0,0,1-.009-.337,9.67,9.67,0,0,1,2.1.519,15.3,15.3,0,0,0,9.839-1.571l1.6-.911a6.8,6.8,0,0,0-.624-.359c-3.03-1.906-5.877-4.32-8.761-6.5-7-5.3-17.68-12.377-26.041-5.461-3.861,3.193-5.836,8.883-2.439,13.229a9.438,9.438,0,0,0,2.3,2.117,14.988,14.988,0,0,0,1.472.687c.132.061.066.1.073.22h-.953l-1.224-.656-.805-.575a9.958,9.958,0,0,1-1.96-2.173c-2.388-3.892-1.148-9.311,1.818-12.5a14.019,14.019,0,0,1,4.968-3.3A14.792,14.792,0,0,1,1737.9.237m42.68,11c-4.475-2.793-11.469,1.785-15.195,4.11-.231.144-.716.343-.9.5a.473.473,0,0,0-.071.142c.686.285,1.333.713,2.011,1.037,4.187,2,10.324,3.467,14.336.262,2.177-1.738,2.277-4.52-.179-6.053" transform="translate(-21868 -17589)" fill="#a3a3a3"/>
    <path id="Path_6992" data-name="Path 6992" d="M1801.481,22.248c2.074-2.456,4.115-4.953,6.337-7.279,1.49-1.561,5.542-5.67,7.61-5.91,1.745-.2,1.843,1.33,1.466,2.63-1.121,3.862-5.708,8.228-8,11.6a2.881,2.881,0,0,0-.492.9c1.051-1.07,1.955-2.293,2.942-3.429.868-1,1.75-2.007,2.652-2.976,1.637-1.758,6.139-6.486,8.473-6.665,1.156-.089,1.783.456,1.635,1.635-.273,2.184-4.566,7.034-6.025,8.983-1.065,1.422-3.325,4.325-3.278,6.107s2.126,1.114,3.1.512c.433-.267.8-.74,1.334-.677s-.186.679-.392.843c-1.559,1.243-5.05,1.531-4.885-1.262.172-2.907,5.356-8.514,7.208-10.969.666-.883,2.224-2.9,2.243-3.972.016-.882-.729-.931-1.386-.669-1.936.771-5.061,4.02-6.577,5.585-1.716,1.771-3.494,3.714-5.042,5.631a10.112,10.112,0,0,0-2.207,3.582c-.3.073-.456-.245-.587-.468-.628-1.068-.237-1.848.3-2.826,1.669-3.04,4.417-5.961,6.388-8.879.639-.945,2.142-3.161,1.985-4.278-.217-1.546-2.669.506-3.194.934a62.125,62.125,0,0,0-5.566,5.5c-3.115,3.331-6.075,6.826-9.119,10.223-.981,1.094-2.586,2.439-3.045,3.814a.824.824,0,0,0-.03.261,1.421,1.421,0,0,1-.984-1.729c3.664-4.59,7.332-9.2,10.676-14.035,1.176-1.7,3.244-4.517,3.878-6.408.188-.559.357-.917-.425-.748-2.169.47-6.22,3.276-8.119,4.624-2.351,1.668-8.168,6.136-9.132,8.722-.167.448-.337.9.139,1.217.786.526,3.043-.05,3.968-.28.406-.1,2.505-.853,2.716-.55.019.089-.006.107-.066.16a10.272,10.272,0,0,1-1.081.472c-1.54.618-5.59,1.989-6.735.3-.834-1.234.994-3.193,1.8-4.067a52.936,52.936,0,0,1,10.1-7.95c1.4-.878,5.243-3.224,6.758-3.274,1.024-.034,1.269,1.065,1.031,1.877a22.031,22.031,0,0,1-2.14,3.812c-1.756,2.785-3.749,5.419-5.527,8.187a10.25,10.25,0,0,0-.709,1.2" transform="translate(-21922.035 -17594.721)" fill="#8c6423"/>
    <path id="Path_6993" data-name="Path 6993" d="M1617.094,129.868l-4.292,9.607h-.236l-4.207-9.223v6.76a3.167,3.167,0,0,0,.3,1.685,1.648,1.648,0,0,0,1.276.459v.32H1606v-.32a1.79,1.79,0,0,0,1.331-.459,3.167,3.167,0,0,0,.295-1.685V130.2a1.712,1.712,0,0,0-.278-1.183,2.352,2.352,0,0,0-1.314-.329v-.316h3.319l3.875,8.465,3.7-8.465h3.34v.316a2.057,2.057,0,0,0-1.2.354,1.758,1.758,0,0,0-.261,1.158v7.442a1.753,1.753,0,0,0,.27,1.167,1.965,1.965,0,0,0,1.192.341v.32h-4.7v-.32a1.994,1.994,0,0,0,1.255-.358,2.174,2.174,0,0,0,.27-1.335Z" transform="translate(-21682.068 -17713.258)" fill="#353535"/>
    <path id="Path_6994" data-name="Path 6994" d="M1706.326,138.779a5.136,5.136,0,0,1-3.824-1.6,6.389,6.389,0,0,1-.017-8.343,5.608,5.608,0,0,1,7.888-.008,5.891,5.891,0,0,1,1.537,4.233,5.666,5.666,0,0,1-1.554,4.127,5.377,5.377,0,0,1-4.031,1.592m3.673-5.736a8.851,8.851,0,0,0-.236-2.144,5.11,5.11,0,0,0-.594-1.508,3.55,3.55,0,0,0-.847-.939,2.955,2.955,0,0,0-.947-.505,3.361,3.361,0,0,0-.948-.135,3.04,3.04,0,0,0-1.474.354,2.954,2.954,0,0,0-1.032.88,4.908,4.908,0,0,0-.632,1.251,7.3,7.3,0,0,0-.341,1.381,9.674,9.674,0,0,0-.093,1.348,8.278,8.278,0,0,0,.168,1.676,7.97,7.97,0,0,0,.535,1.647,3.13,3.13,0,0,0,1.1,1.323,2.978,2.978,0,0,0,1.735.5,3.091,3.091,0,0,0,1.769-.5,3.132,3.132,0,0,0,1.12-1.323,7.621,7.621,0,0,0,.548-1.647,8.286,8.286,0,0,0,.168-1.659" transform="translate(-21757.822 -17712.326)" fill="#353535"/>
    <path id="Path_6995" data-name="Path 6995" d="M1783.456,128.377a7.824,7.824,0,0,1,1.377.118,6.2,6.2,0,0,1,1.348.409,2.479,2.479,0,0,1,1.116.914,2.624,2.624,0,0,1,.421,1.508q0,2.233-2.952,2.784a.268.268,0,0,1-.084.017l3.454,4.241a2.439,2.439,0,0,0,.661.59,1.992,1.992,0,0,0,.8.2v.32h-2.7l-3.993-5.164-.939.034v3.3a1.749,1.749,0,0,0,.27,1.175,2.118,2.118,0,0,0,1.238.333v.32h-4.641v-.32a1.768,1.768,0,0,0,1.179-.358,2.358,2.358,0,0,0,.244-1.335V130.2a1.822,1.822,0,0,0-.244-1.15,2.044,2.044,0,0,0-1.179-.362v-.316Zm-1.491,5.349a6.91,6.91,0,0,0,2.978-.535,1.953,1.953,0,0,0,.948-1.9,2.022,2.022,0,0,0-.75-1.731,3.853,3.853,0,0,0-2.321-.564,1.261,1.261,0,0,0-.678.126.55.55,0,0,0-.177.476Z" transform="translate(-21819.965 -17713.258)" fill="#353535"/>
    <path id="Path_6996" data-name="Path 6996" d="M1864.974,138.357v.32H1860.7v-.32a2.666,2.666,0,0,0,.923-.131.438.438,0,0,0,.253-.438,3.046,3.046,0,0,0-.32-1.125l-.687-1.609h-4.393l-.771,1.963a1.8,1.8,0,0,0-.135.653q0,.687,1.141.687v.32h-3.319v-.32a1.232,1.232,0,0,0,.96-.476,13.055,13.055,0,0,0,1.116-2.274l3.487-8.229h.337l4.174,9.522a4.112,4.112,0,0,0,.669,1.175,1.326,1.326,0,0,0,.843.282m-8.217-3.988h3.875l-1.946-4.612Z" transform="translate(-21879.449 -17712.459)" fill="#353535"/>
    <path id="Path_6997" data-name="Path 6997" d="M1934.548,137.647V130.2a1.712,1.712,0,0,0-.278-1.183,2.448,2.448,0,0,0-1.348-.329v-.316h4.978v.316a2.385,2.385,0,0,0-1.352.32,1.691,1.691,0,0,0-.291,1.192v7.442a1.686,1.686,0,0,0,.3,1.2,2.288,2.288,0,0,0,1.343.307v.32h-4.978v-.32a2.3,2.3,0,0,0,1.339-.3,1.741,1.741,0,0,0,.287-1.209" transform="translate(-21942.904 -17713.258)" fill="#353535"/>
    <path id="Path_6998" data-name="Path 6998" d="M1983.834,129.08h-.905a2.1,2.1,0,0,0-2.666,2.144h-.4l.1-2.847h9.455l.1,2.847h-.4a3.091,3.091,0,0,0-.762-1.765,3.29,3.29,0,0,0-1.9-.379h-.906v8.566a1.7,1.7,0,0,0,.286,1.192,2.315,2.315,0,0,0,1.323.316v.32h-4.894v-.32a2.195,2.195,0,0,0,1.306-.341,2.169,2.169,0,0,0,.27-1.352Z" transform="translate(-21980.357 -17713.258)" fill="#353535"/>
    <path id="Path_6999" data-name="Path 6999" d="M2051.652,137.647V130.2a1.714,1.714,0,0,0-.278-1.183,2.45,2.45,0,0,0-1.348-.329v-.316H2055v.316a2.384,2.384,0,0,0-1.352.32,1.693,1.693,0,0,0-.291,1.192v7.442a1.686,1.686,0,0,0,.3,1.2,2.289,2.289,0,0,0,1.343.307v.32h-4.978v-.32a2.3,2.3,0,0,0,1.339-.3,1.743,1.743,0,0,0,.287-1.209" transform="translate(-22036.334 -17713.258)" fill="#353535"/>
    <path id="Path_7000" data-name="Path 7000" d="M2104.867,136.282a2.025,2.025,0,0,0-.556-1.4,5.148,5.148,0,0,0-1.34-1.045q-.788-.438-1.571-.9a4.643,4.643,0,0,1-1.331-1.183,2.876,2.876,0,0,1,.312-3.748,2.9,2.9,0,0,1,2.034-.8,4.673,4.673,0,0,1,1.529.286,5.032,5.032,0,0,0,.99.282c.288,0,.468-.189.535-.568h.354l.366,3.572h-.417a4.242,4.242,0,0,0-1.234-2.182,2.778,2.778,0,0,0-1.836-.7,1.817,1.817,0,0,0-1.26.438,1.436,1.436,0,0,0-.484,1.12,1.841,1.841,0,0,0,.569,1.276,8.132,8.132,0,0,0,1.9,1.339,8.374,8.374,0,0,1,2.4,1.752,2.86,2.86,0,0,1,.741,1.9,2.794,2.794,0,0,1-.99,2.173,3.523,3.523,0,0,1-2.43.88,5.4,5.4,0,0,1-1.705-.286,5.3,5.3,0,0,0-1.061-.286.4.4,0,0,0-.32.16.659.659,0,0,0-.152.4h-.366l-.506-3.555h.387a5.886,5.886,0,0,0,1.44,2.245,2.853,2.853,0,0,0,1.946.72,2.1,2.1,0,0,0,1.491-.526,1.77,1.77,0,0,0,.573-1.365" transform="translate(-22075.434 -17712.326)" fill="#353535"/>
    <path id="Path_7001" data-name="Path 7001" d="M1610.146,200.731a1.2,1.2,0,0,1-.036.3,1,1,0,0,1-.138.3.933.933,0,0,1-.275.275,1.525,1.525,0,0,1-.467.192,2.724,2.724,0,0,1-.684.077c-.118,0-.254-.007-.407-.019v1.074a.6.6,0,0,0,.1.422.739.739,0,0,0,.454.109v.113h-1.654v-.113a.636.636,0,0,0,.415-.126.848.848,0,0,0,.081-.469v-2.555a.652.652,0,0,0-.083-.407.723.723,0,0,0-.414-.124v-.113h1.558a2.543,2.543,0,0,1,.514.051,2.188,2.188,0,0,1,.492.162.923.923,0,0,1,.392.33.908.908,0,0,1,.149.524m-2.008-.648v1.532q.2.019.337.019,1.027,0,1.027-.867a.787.787,0,0,0-.284-.669,1.446,1.446,0,0,0-.88-.217.228.228,0,0,0-.16.042.231.231,0,0,0-.041.16" transform="translate(-21682.902 -17770.131)" fill="#8c6423"/>
    <path id="Path_7002" data-name="Path 7002" d="M1644.407,203.339a2.176,2.176,0,0,0,.286-.017c.089-.013.167-.026.234-.038a.8.8,0,0,0,.194-.068q.1-.046.153-.077a.419.419,0,0,0,.121-.1,1.333,1.333,0,0,1,.094-.1.377.377,0,0,0,.075-.109c.027-.054.044-.088.051-.1s.025-.05.049-.1a.83.83,0,0,0,.036-.088h.147l-.283,1.027h-3.175v-.113a.7.7,0,0,0,.42-.119.627.627,0,0,0,.094-.411v-2.619a.618.618,0,0,0-.094-.409.688.688,0,0,0-.42-.121v-.113h1.664v.113a.765.765,0,0,0-.448.121.585.585,0,0,0-.1.409v2.79q0,.153.089.2a1.189,1.189,0,0,0,.418.045Z" transform="translate(-21711.105 -17770.131)" fill="#8c6423"/>
    <path id="Path_7003" data-name="Path 7003" d="M1681.161,203.179v.113h-1.5v-.113a.906.906,0,0,0,.324-.045.156.156,0,0,0,.09-.156,1.063,1.063,0,0,0-.113-.394l-.241-.567h-1.547l-.271.69a.644.644,0,0,0-.047.23c0,.161.133.241.4.241v.113h-1.168v-.113a.433.433,0,0,0,.339-.166,4.627,4.627,0,0,0,.392-.8l1.228-2.9h.117l1.471,3.35a1.422,1.422,0,0,0,.234.415.464.464,0,0,0,.3.1m-2.892-1.4h1.364l-.684-1.622Z" transform="translate(-21738.785 -17769.855)" fill="#8c6423"/>
    <path id="Path_7004" data-name="Path 7004" d="M1718.888,202.444a.712.712,0,0,0-.2-.492,1.81,1.81,0,0,0-.471-.369q-.277-.153-.552-.315a1.606,1.606,0,0,1-.469-.416,1.014,1.014,0,0,1,.109-1.319,1.024,1.024,0,0,1,.718-.281,1.64,1.64,0,0,1,.535.1,1.733,1.733,0,0,0,.35.1c.1,0,.165-.067.19-.2h.124l.13,1.257h-.149a1.484,1.484,0,0,0-.433-.767.978.978,0,0,0-.646-.247.637.637,0,0,0-.443.153.506.506,0,0,0-.17.394.651.651,0,0,0,.2.45,2.864,2.864,0,0,0,.667.471,2.959,2.959,0,0,1,.844.618,1.007,1.007,0,0,1,.26.669.985.985,0,0,1-.349.765,1.24,1.24,0,0,1-.855.309,1.919,1.919,0,0,1-.6-.1,1.854,1.854,0,0,0-.373-.1.143.143,0,0,0-.113.055.235.235,0,0,0-.053.138h-.13l-.177-1.251h.136a2.057,2.057,0,0,0,.507.791,1,1,0,0,0,.684.254.745.745,0,0,0,.526-.185.627.627,0,0,0,.2-.482" transform="translate(-21770.5 -17769.805)" fill="#8c6423"/>
    <path id="Path_7005" data-name="Path 7005" d="M1752.6,199.91h-.317a.739.739,0,0,0-.938.757h-.143l.036-1h3.327l.036,1h-.141a1.109,1.109,0,0,0-.271-.622,1.147,1.147,0,0,0-.669-.134h-.317v3.016a.607.607,0,0,0,.1.42.805.805,0,0,0,.467.111v.113h-1.724v-.113a.782.782,0,0,0,.46-.119.772.772,0,0,0,.094-.475Z" transform="translate(-21797.924 -17770.131)" fill="#8c6423"/>
    <path id="Path_7006" data-name="Path 7006" d="M1792.076,202.926v-2.619a.6.6,0,0,0-.1-.416.857.857,0,0,0-.473-.115v-.113h1.752v.113a.851.851,0,0,0-.475.111.6.6,0,0,0-.1.42v2.619a.588.588,0,0,0,.106.422.787.787,0,0,0,.471.109v.113h-1.752v-.113a.794.794,0,0,0,.471-.1.62.62,0,0,0,.1-.426" transform="translate(-21830.076 -17770.131)" fill="#8c6423"/>
    <path id="Path_7007" data-name="Path 7007" d="M1823.232,201.324a2.044,2.044,0,0,1,.565-1.5,1.9,1.9,0,0,1,1.411-.575,2.493,2.493,0,0,1,.708.1,2.546,2.546,0,0,0,.384.1.238.238,0,0,0,.249-.2h.124l.053,1.334h-.136a1.289,1.289,0,0,0-1.268-1.1,1.244,1.244,0,0,0-1.025.477,2,2,0,0,0-.379,1.281,2.666,2.666,0,0,0,.132.889,1.289,1.289,0,0,0,.356.567,1.43,1.43,0,0,0,.974.362,1.882,1.882,0,0,0,1.317-.6l.106.107a1.822,1.822,0,0,1-.693.556,2.164,2.164,0,0,1-.918.194,1.907,1.907,0,0,1-1.417-.548,1.98,1.98,0,0,1-.541-1.454" transform="translate(-21855.389 -17769.805)" fill="#8c6423"/>
    <path id="Path_7008" data-name="Path 7008" d="M1888.561,202.444a.712.712,0,0,0-.2-.492,1.817,1.817,0,0,0-.471-.369q-.277-.153-.552-.315a1.61,1.61,0,0,1-.469-.416,1.014,1.014,0,0,1,.109-1.319,1.024,1.024,0,0,1,.718-.281,1.636,1.636,0,0,1,.535.1,1.738,1.738,0,0,0,.35.1c.1,0,.165-.067.189-.2h.124l.13,1.257h-.149a1.485,1.485,0,0,0-.433-.767.979.979,0,0,0-.646-.247.636.636,0,0,0-.443.153.506.506,0,0,0-.171.394.65.65,0,0,0,.2.45,2.87,2.87,0,0,0,.667.471,2.953,2.953,0,0,1,.844.618,1.006,1.006,0,0,1,.26.669.985.985,0,0,1-.35.765,1.239,1.239,0,0,1-.854.309,1.916,1.916,0,0,1-.6-.1,1.851,1.851,0,0,0-.373-.1.143.143,0,0,0-.113.055.236.236,0,0,0-.053.138h-.13l-.177-1.251h.136a2.063,2.063,0,0,0,.507.791,1,1,0,0,0,.684.254.745.745,0,0,0,.526-.185.627.627,0,0,0,.2-.482" transform="translate(-21905.873 -17769.805)" fill="#8c6423"/>
    <path id="Path_7009" data-name="Path 7009" d="M1922.991,202.195a1.512,1.512,0,0,0,.221.9.925.925,0,0,0,.8.3,1.365,1.365,0,0,0,.594-.126.826.826,0,0,0,.383-.341,1.776,1.776,0,0,0,.137-.8V200.53a1.084,1.084,0,0,0-.106-.586.593.593,0,0,0-.448-.168v-.113h1.368v.113a.683.683,0,0,0-.46.177,1.135,1.135,0,0,0-.094.578v1.541a2.654,2.654,0,0,1-.062.607,1.473,1.473,0,0,1-.219.492.986.986,0,0,1-.467.358,2.07,2.07,0,0,1-.763.124,1.512,1.512,0,0,1-1.119-.369,1.564,1.564,0,0,1-.362-1.136v-1.841a.619.619,0,0,0-.091-.413.788.788,0,0,0-.439-.117v-.113h1.669v.113a.789.789,0,0,0-.446.119.621.621,0,0,0-.092.411Z" transform="translate(-21934.076 -17770.131)" fill="#8c6423"/>
    <path id="Path_7010" data-name="Path 7010" d="M1963.078,199.663a2.68,2.68,0,0,1,.484.043,2.21,2.21,0,0,1,.475.145.865.865,0,0,1,.392.322.916.916,0,0,1,.149.528q0,.787-1.04.98a.087.087,0,0,1-.03.006l1.217,1.492a.863.863,0,0,0,.232.207.664.664,0,0,0,.281.07v.113h-.95l-1.4-1.818-.33.013v1.161a.617.617,0,0,0,.094.413.737.737,0,0,0,.437.117v.113h-1.635v-.113a.624.624,0,0,0,.416-.126.834.834,0,0,0,.085-.469v-2.555a.644.644,0,0,0-.085-.4.723.723,0,0,0-.416-.126v-.113Zm-.524,1.882a2.4,2.4,0,0,0,1.046-.188.684.684,0,0,0,.335-.667.716.716,0,0,0-.264-.612,1.357,1.357,0,0,0-.816-.2.438.438,0,0,0-.239.045.2.2,0,0,0-.062.168Z" transform="translate(-21965.666 -17770.131)" fill="#8c6423"/>
    <path id="Path_7011" data-name="Path 7011" d="M2001.946,199.489a1.385,1.385,0,0,0-.594.122,1.186,1.186,0,0,0-.42.309,1.59,1.59,0,0,0-.26.443,2.354,2.354,0,0,0-.139.488,2.857,2.857,0,0,0-.038.467,1.9,1.9,0,0,0,.415,1.3,1.437,1.437,0,0,0,1.138.475,1.355,1.355,0,0,0,.55-.1c.156-.069.234-.151.234-.245v-.957a.615.615,0,0,0-.092-.416.785.785,0,0,0-.428-.109v-.107h1.5v.107a.536.536,0,0,0-.336.109.544.544,0,0,0-.077.345v1.2a1.748,1.748,0,0,1-.64.283,3.154,3.154,0,0,1-.842.13,2.723,2.723,0,0,1-.531-.053,2.305,2.305,0,0,1-.554-.194,1.925,1.925,0,0,1-.509-.358,1.673,1.673,0,0,1-.363-.576,2.21,2.21,0,0,1-.143-.82,2.045,2.045,0,0,1,.569-1.488,1.943,1.943,0,0,1,1.454-.584,2.384,2.384,0,0,1,.675.1,2.619,2.619,0,0,0,.388.1.256.256,0,0,0,.164-.055.3.3,0,0,0,.1-.141h.13l.047,1.244h-.134a2.137,2.137,0,0,0-.473-.733,1.1,1.1,0,0,0-.8-.275" transform="translate(-21996.279 -17769.805)" fill="#8c6423"/>
    <path id="Path_7012" data-name="Path 7012" d="M2041.158,203.1c0,.115.032.187.1.215a1.9,1.9,0,0,0,.522.04h.16a1.96,1.96,0,0,0,.9-.151,1.317,1.317,0,0,0,.492-.629h.164l-.266,1h-3.186v-.113a.7.7,0,0,0,.42-.119.626.626,0,0,0,.094-.411v-2.619a.618.618,0,0,0-.094-.409.69.69,0,0,0-.42-.121v-.113h3.135l.017.844h-.147a.794.794,0,0,0-.237-.507,1.284,1.284,0,0,0-.66-.113h-.8a.227.227,0,0,0-.156.038.24.24,0,0,0-.038.162V201.4h.908a.7.7,0,0,0,.486-.115.866.866,0,0,0,.164-.446h.135v1.368h-.135a.841.841,0,0,0-.173-.465.77.77,0,0,0-.478-.1h-.908Z" transform="translate(-22028.369 -17770.131)" fill="#8c6423"/>
    <path id="Path_7013" data-name="Path 7013" d="M2079.715,199.663a2.673,2.673,0,0,1,.483.043,2.205,2.205,0,0,1,.475.145.865.865,0,0,1,.393.322.916.916,0,0,1,.149.528q0,.787-1.04.98a.089.089,0,0,1-.03.006l1.217,1.492a.869.869,0,0,0,.232.207.666.666,0,0,0,.281.07v.113h-.95l-1.4-1.818-.33.013v1.161a.618.618,0,0,0,.094.413.736.736,0,0,0,.437.117v.113h-1.635v-.113a.624.624,0,0,0,.416-.126.836.836,0,0,0,.085-.469v-2.555a.646.646,0,0,0-.085-.4.723.723,0,0,0-.416-.126v-.113Zm-.524,1.882a2.4,2.4,0,0,0,1.046-.188.685.685,0,0,0,.334-.667.716.716,0,0,0-.264-.612,1.357,1.357,0,0,0-.816-.2.439.439,0,0,0-.239.045.2.2,0,0,0-.062.168Z" transform="translate(-22058.723 -17770.131)" fill="#8c6423"/>
    <path id="Path_7014" data-name="Path 7014" d="M2120.417,199.663v.113a.707.707,0,0,0-.4.149,2.4,2.4,0,0,0-.42.522l-.872,1.334v1.144q0,.337.1.428a.909.909,0,0,0,.5.1v.113h-1.805v-.113a.852.852,0,0,0,.5-.113.757.757,0,0,0,.1-.482v-1.027l-.773-1.134q-.294-.43-.448-.616a1.145,1.145,0,0,0-.254-.245.525.525,0,0,0-.253-.064v-.113h1.651v.113q-.417.028-.417.177a.478.478,0,0,0,.1.258l.874,1.311.842-1.334a.453.453,0,0,0,.083-.217.147.147,0,0,0-.09-.147.855.855,0,0,0-.317-.047v-.113Z" transform="translate(-22089.289 -17770.131)" fill="#8c6423"/>
  </g>
</svg>
