<?xml version="1.0" encoding="UTF-8"?>
<svg id="Group_2" data-name="Group 2" xmlns="http://www.w3.org/2000/svg" xmlns:xlink="http://www.w3.org/1999/xlink" version="1.1" viewBox="0 0 96.5 87.7">
  <defs>
    <style>
      .cls-1 {
        fill: url(#linear-gradient);
        stroke-width: 0px;
      }
    </style>
    <linearGradient id="linear-gradient" x1="48.3" y1="1.9" x2="48.3" y2="83.9" gradientUnits="userSpaceOnUse">
      <stop offset="0" stop-color="#8a622e"/>
      <stop offset="1" stop-color="#fedba3"/>
    </linearGradient>
  </defs>
  <path class="cls-1" d="M20.5,77.1h0c.6-.1.6-.2.6-.7,0-2.1,0-4.2,0-6.3,0-.6,0-.7-.7-.8-.2,0-.3-.1-.3-.3,0-.2.2-.3.3-.3.8,0,1.6,0,2.4,0,1.1,0,2.2,0,3.3,0,.3,0,.5,0,.5.4,0,.5.2.9.3,1.4,0,.1.1.3-.1.4,0,0,0,0,0,0-.2,0-.4,0-.5-.2,0-.2-.2-.4-.3-.5-.2-.5-.7-.8-1.3-.7-.4,0-.9,0-1.3,0-.2,0-.3.1-.4.3,0,.9,0,1.9,0,2.8,0,.2.1.2.3.2.5,0,.9,0,1.4,0,.4,0,.6-.3.7-.7,0-.2.1-.4.4-.3.3,0,.2.3.2.4v2c0,.2,0,.3-.2.3-.2,0-.3,0-.3-.2-.3-.7-.4-.8-1.1-.8-.3,0-.6,0-.9,0-.2,0-.4,0-.4.4,0,.9,0,1.7,0,2.6,0,0,0,0,0,0,0,.3.2.5.5.5.6,0,1.2,0,1.8,0,.5,0,.9-.4,1.1-.8.1-.2.2-.4.3-.7.1-.3.3-.3.6-.2.3.1.1.3,0,.4-.2.6-.4,1.1-.5,1.7,0,.3-.2.3-.4.3h-5.9c-.2,0-.4,0-.4-.3,0-.3.1-.3.4-.4ZM31.5,69.2h0c.2,0,.3-.2.2-.4,0-.2-.1-.2-.3-.2-.6,0-1.2,0-1.8,0-.5,0-1,0-1.6,0-.1,0-.3,0-.3.2,0,0,0,.1,0,.2,0,.1.2.2.3.2.4,0,.7.3.8.7.1.3.3.6.4,1,.8,2.1,1.5,4.3,2.3,6.4,0,.2,0,.5.4.5.3,0,.3-.3.4-.5.2-.6.5-1.2.7-1.8.4-1.1.7-2.2,1.1-3.3h0c0,.1,0,.2.1.3l1.9,4.7c0,.1,0,.2.2.3,0,.2.2.2.4.2,0,0,.1,0,.1-.1.2-.2.3-.5.4-.7.3-.8.5-1.5.8-2.3.5-1.4,1-2.8,1.4-4.3.2-.6.4-1.2,1.2-1.2,0,0,0,0,0,0,.2,0,.1-.3.1-.4s-.1-.2-.2-.2c-.9,0-1.8.1-2.7,0-.2,0-.3,0-.3.2,0,.2,0,.3.2.4.1,0,.2,0,.4,0,.5,0,.6.2.4.7-.3,1-.6,1.9-.9,2.9-.2.6-.4,1.1-.6,1.8,0-.2-.1-.3-.1-.3-.7-1.7-1.3-3.4-2-5,0-.2,0-.5-.3-.5-.3,0-.4.3-.5.5-.3.7-.5,1.4-.8,2.1-.3.9-.6,1.8-.9,2.6-.1,0-.1-.2-.2-.3-.4-1.2-.9-2.4-1.3-3.6-.2-.6-.4-.8.4-.9ZM65,83.6h0c-.2,0-.3,0-.5,0H6.8c-.1,0-.3,0-.4,0-.3,0-.4,0-.4-.4,0-3.3,0-6.6,0-9.9,0-.3.1-.4.4-.4,1.2,0,2.3,0,3.5,0,.1,0,.3,0,.3-.2,0-.2-.2-.3-.3-.3h-3.8c-.3,0-.5.2-.5.4,0,0,0,0,0,.1,0,3.5,0,6.9,0,10.4,0,.2.1.4.3.5.1,0,.3,0,.4,0h58.2c.1,0,.3,0,.4,0,.1,0,.2,0,.2-.2,0-.1,0-.2-.2-.2ZM46.4,23.8h0c1.4,1.5,3.8,1.5,5.2.1,0,0,0,0,.1-.1,1.1-1.4,1.7-3.1,1.7-4.8,0-.4,0-.8-.1-1.1-.1-1.4-.7-2.6-1.6-3.6-.8-1-2.1-1.4-3.3-1.2-1.1.2-2.1.9-2.6,1.9-1,1.5-1.4,3.4-1.1,5.2.2,1.4.8,2.6,1.7,3.7ZM54.6,40h0c-1.2,2.5-1.8,5.2-1.7,7.9,0,.2,0,.5.2.5.2,0,.2-.2.3-.4.9-2.3,2.2-4.5,3.9-6.4,1.6-2,3.4-3.8,5.4-5.5,2.1-1.8,4.5-3.4,7-4.6.7-.3.9-.3,1.2.5.7,1.7,1,3.5,1,5.4,0,1.5,0,3.1-.4,4.6-.2,1.1-.4,2.1-.8,3.1-.5,1.2-1,2.4-1.7,3.5,0,0-.2.2-.1.3.1.1.2,0,.3,0,.4-.2.8-.5,1.2-.9,1.6-1.5,2.9-3.4,3.8-5.5.8-2,1.2-4.2,1.2-6.4,0-1.3,0-2.5-.3-3.8-.2-1.1-.4-2.2-.7-3.3-.1-.6-.3-1.1-.5-1.7,0-.5-.6-.8-1.1-.8,0,0-.1,0-.2,0-.1,0-.2,0-.3,0-1.6.1-3.1.5-4.6,1.2-2.8,1.2-5.3,2.8-7.5,4.8-2.3,2.1-4.2,4.6-5.5,7.4ZM49.2,68.8c0-.2-.1-.2-.3-.2-1,.1-1.9.1-2.9,0-.2,0-.4,0-.5,0s-.3,0-.3.2c0,.2,0,.3.2.4,0,0,.2,0,.3,0,.3,0,.5.2.5.5,0,0,0,0,0,0,0,.1,0,.2,0,.3v6.1c0,.7,0,.8-.7.9-.2,0-.3.2-.3.4,0,.2.1.2.3.2.3,0,.5,0,.8,0,.9,0,1.7,0,2.6,0,.2,0,.3,0,.3-.2,0-.2,0-.3-.3-.4,0,0-.2,0-.3,0-.3,0-.4-.2-.4-.4-.1-2.1,0-4.2,0-6.4,0-.8,0-.8.8-1h0s0,0,0,0c.2,0,.2-.2.2-.4ZM14.1,28c.3,2.5,1,4.9,2.2,7.1,1.2,2.3,2.9,4.2,5.1,5.7.4.2.7.4,1.1.6,0,0,.2.1.2,0s0-.2,0-.2c0,0,0-.1-.1-.2-.8-1-1.5-2.2-2.1-3.4-.8-1.6-1.4-3.3-1.9-5-.4-1.4-.7-2.7-.9-4.1-.2-1-.2-2-.3-3,0-.7,0-1.4,0-2,0-.3.2-.5.5-.5,0,0,.1,0,.2,0,.7.2,1.3.4,2,.6,2.3.6,4.4,1.9,6,3.6.8.8,1.5,1.8,2.3,2.7.1.2.3.3.4.5.1.1.2,0,.2,0,0,0,0-.2,0-.2-.5-2.5-1.7-4.7-3.5-6.4-1.6-1.5-3.4-2.7-5.5-3.4-1.3-.5-2.7-.8-4.1-1-.5,0-.6,0-.8.5-.1.3-.2.6-.3.9-.3.8-.5,1.6-.7,2.4-.1,1-.2,2-.2,3,0,.7,0,1.5,0,2.2h0ZM8.8,52.6h0c1.2,1.1,2.5,2.1,3.9,3,2.2,1.4,4.5,2.6,6.9,3.5,1.1.4,2.3.8,3.4,1.2,1.4.4,2.9.8,4.4,1.1.8.2,1.5.3,2.3.4.7,0,1.3.1,2,.2,1.5,0,3,0,4.5,0,1.1,0,2.2-.2,3.4-.2.7,0,1.5,0,2.2-.1.5,0,.9,0,1.4-.2.3,0,.4-.2.2-.5-.1-.2-.3-.3-.4-.5-.8-.8-1.5-1.7-2.2-2.7-.9-1.2-1.6-2.5-2.2-3.9-.8-1.8-1.2-3.7-1.4-5.6-.1-1.5,0-3,0-4.4.2-1.4.4-2.9.7-4.3.2-.9.4-1.8.7-2.7.3-1.3.6-2.5.9-3.8.3-1.1.5-2.1.6-3.2.2-1.1.4-2.2.5-3.3.2-1.5.2-2.9,0-4.4-.2-1.3-.5-2.5-.9-3.8-.5-1.8-1.4-3.6-2.4-5.1-1.1-1.6-2.3-3-3.6-4.3-.8-.7-1.6-1.5-2.4-2.2,0,0-.2-.2-.3,0-.1,0,0,.2,0,.3s.2.2.2.3c1,1.3,2,2.6,3,4,1.7,2.6,2.7,5.6,2.9,8.8,0,1.3,0,2.7,0,4-.2,1.5-.5,3-.9,4.4-.7,2.5-1.4,5.1-2.1,7.6-.4,1.6-.9,3.2-1.2,4.8-.3,1.5-.5,3.1-.6,4.7,0,1.1,0,2.1,0,3.2.1.9.2,1.8.4,2.7.5,1.8,1.2,3.6,2.1,5.3.2.4.2.4-.3.4-1,0-1.9,0-2.9,0-1.5,0-2.9-.2-4.4-.5-1.7-.3-3.4-.8-5-1.3-2-.7-3.9-1.6-5.7-2.6-3.9-2.3-7.1-5.6-9.3-9.5-.2-.4-.1-.6.3-.6.4,0,.8,0,1.2,0,2.1,0,4.2.2,6.2.6,1.5.3,2.9.6,4.4.9.2,0,.5,0,.6-.1.1-.2-.1-.3-.3-.4-1.2-1-2.4-1.8-3.8-2.5-3.1-1.6-6.4-2.4-9.9-2.3-1.2,0-2.4.1-3.6.3-.7.1-1.4.3-2,.5-.5.1-.5.3-.4.8,0,.3.2.6.3.9.5,1.3,1.1,2.5,1.8,3.8.6,1.2,1.3,2.3,2.2,3.3,1.4,1.5,2.9,3,4.4,4.4ZM19.2,69.2h0c.2,0,.3-.1.3-.3,0,0,0,0,0,0,0-.2-.2-.2-.4-.2-.9.1-1.9.1-2.8,0-.2,0-.3,0-.3.2,0,.2,0,.4.3.4.2,0,.3,0,.5,0,.2,0,.4.2.4.4,0,.3,0,.5,0,.8,0,1.1,0,2.2,0,3.3,0,0,0,.2,0,.3,0,0-.1-.1-.2-.2-1.4-1.6-2.7-3.3-4-5.1,0-.1-.2-.2-.3-.1-.8,0-1.7,0-2.6,0-.2,0-.3,0-.3.2,0,.2,0,.3.2.4,0,0,.1,0,.2,0,.6.1.7.3.8.9,0,.1,0,.3,0,.4,0,1.8,0,3.6,0,5.5,0,.9,0,1-1,1.1-.2,0-.3.2-.3.4,0,.2.1.2.3.2.2,0,.5,0,.7,0,.7,0,1.4,0,2.1,0,.2,0,.4,0,.4-.2,0-.2,0-.4-.3-.4-.1,0-.2,0-.4,0-.3,0-.6-.3-.6-.6-.1-1.8,0-3.7,0-5.5,0,0,0,0,0,0,0,0,.2.2.2.3,1.6,2,3.3,4,4.9,6,.1.2.3.3.4.5.1.1.4.2.5,0,.2,0,0-.2,0-.4,0-2.3,0-4.6,0-7,0-.9-.2-1,1-1.1ZM88.5,75.2h0c-.2,0-.4,0-.5.2,0,0,0,0,0,0,0,.2-.2.5-.3.7-.2.5-.8.8-1.3.9-.5,0-.9,0-1.4,0-.5,0-.6-.2-.6-.6,0-.8,0-1.7,0-2.5,0-.3.1-.4.4-.4.3,0,.6,0,1,0,.6,0,.8.1,1,.7,0,.2.1.3.4.3.2,0,.2-.2.2-.4v-1.9c0-.2,0-.4-.2-.4-.3,0-.3.2-.4.3,0,.3-.3.6-.7.7-.4,0-.9,0-1.3,0-.2,0-.3-.1-.3-.4,0-.8,0-1.7,0-2.5,0-.5,0-.6.6-.6.4,0,.8,0,1.2,0,.4,0,.8.2,1,.6.1.2.3.4.3.7,0,.2.3.3.4.2,0,0,0,0,0,0,.2,0,.1-.2,0-.4,0-.5-.2-.9-.3-1.4,0-.3-.2-.4-.4-.4-1,0-1.9,0-2.9,0-1,0-1.9,0-2.8,0s-.4,0-.4.2c0,.3.1.3.3.4.6,0,.6.1.6.7,0,2.1,0,4.3,0,6.4,0,.6,0,.6-.6.7-.2,0-.4,0-.4.4,0,.3.3.2.4.2,1,0,1.9,0,2.9,0h3c.2,0,.4,0,.4-.2.2-.7.4-1.4.7-2,0-.2,0-.2-.2-.3ZM95.6,39.1s0,0,0,0c0,0,0,0,0,0h0ZM83.5,82.8c-.2.2-.4.3-.6.5.2,0,.4,0,.6,0,0,0,0,.1,0,.1-.3.2-.4.4-.1.7.1.2.1.4,0,.6-.4.5-1,.8-1.6.9-.3,0-.6-.1-.7-.4-.1-.2,0-.4.2-.6.1-.2.3-.4.4-.5-.5.2-1,.5-1.5.8-.2.1-.2.4-.3.6,0,.2-.2.4-.4.2-.2,0-.2-.2-.2-.3,0,0,0,0,0-.1,0-.1,0-.2,0-.3-.2-.1-.2-.4,0-.5,0,0,0,0,0,0,.1-.3.3-.5.5-.7.2-.2.4-.3.2-.6,0,0,0-.2,0-.2.3-.1.3-.4.4-.6.4-1.1,1-2.2,1.7-3.2.1-.2.3-.4.5-.5.1-.1.3-.1.5,0,.1.1.2.3.1.5-.1.4-.3.8-.6,1.2-.5.7-1,1.4-1.4,2.2,0,.1-.2.3,0,.3.2,0,.3.2.3.4,0,.2,0,.3-.2.4,0,0-.2.1-.2,0-.1-.3-.3,0-.4,0-.2.1-.3.3-.4.5.2,0,.3-.1.5-.2.4-.2.7-.3,1.1-.4.1,0,.2-.1.3-.2.2-.3.5-.5.7-.8.2-.2.3-.1.5,0,.2.2.1.3,0,.5h0ZM82.7,84.3h0c0,0-.2-.2-.3,0-.3.2-.6.5-.9.8.4,0,.8-.2,1.2-.5,0,0,.1-.2,0-.3ZM95.6,39.1c-1-.2-2-.3-3-.4-2.2-.2-4.4,0-6.5.5-2,.5-4,1.3-5.8,2.3-1.3.7-2.4,1.6-3.5,2.5,0,0-.2.1-.2.3,0,.1.2.2.3.2.2,0,.3,0,.5,0,1.2-.3,2.4-.6,3.7-.9,1.4-.3,2.8-.6,4.2-.7,1.3-.2,2.5-.2,3.8-.1.4,0,.4.2.3.5-.3.5-.5,1-.9,1.5-1.6,2.7-3.8,5.1-6.3,7-1.7,1.3-3.5,2.4-5.4,3.3-2.7,1.3-5.7,2.2-8.7,2.7-1.4.2-2.7.3-4.1.4-1.8.1-3.6,0-5.3-.1-1.6-.2-3.2-.5-4.7-1-1.2-.3-2.3-.9-3.4-1.6-2-1.3-3.3-3.4-3.7-5.8-.3-1.6-.2-3.3.3-4.9.6-1.9,1.5-3.6,2.6-5.2,1.4-2.1,3-4,4.6-6,1.5-1.9,2.9-3.9,4.2-5.9,1.5-2.4,2.6-5.1,3.3-7.8.4-1.6.7-3.2.7-4.8,0-2.2-.3-4.4-1.1-6.5-.6-1.6-1.4-3.1-2.3-4.5-.9-1.3-1.9-2.5-3-3.6-.1-.1-.2-.4-.4-.3-.2.2,0,.4,0,.6,1.1,1.7,2,3.6,2.7,5.5.5,1.6.8,3.2.9,4.9,0,1.6,0,3.2-.3,4.7-.3,1.7-.8,3.4-1.5,5-.7,1.7-1.5,3.3-2.5,4.8-1.1,1.7-2.4,3.3-3.7,4.9-1.4,1.7-2.8,3.3-4.2,5-1.4,1.7-2.7,3.6-3.7,5.6-1,1.9-1.7,4.1-2,6.3-.2,1.8,0,3.7.8,5.4,1.2,2.6,3.1,4.7,5.4,6.2,1.5,1,3.2,1.8,4.9,2.4,1.1.4,2.2.7,3.3.9,2.2.4,4.5.6,6.7.6,1.3,0,2.6,0,3.9-.2,1.5-.2,3-.5,4.4-.9,2.8-.8,5.5-1.8,8.1-3,3.5-1.7,6.7-3.9,9.5-6.6.9-.9,1.7-1.8,2.6-2.7.6-.7,1.2-1.4,1.7-2.1,1.4-2.2,2.5-4.5,3.3-6.9.3-1,.2-1.1-.8-1.3ZM51.1,76c0,.8-.2,1-1,1.1,0,0,0,0,0,0-.2,0-.3.2-.2.3,0,.2.1.3.3.2.3,0,.5,0,.8,0,.7,0,1.4,0,2.1,0,.2,0,.3,0,.3-.2,0-.2,0-.3-.2-.4-.2,0-.4,0-.5-.1-.3,0-.5-.3-.5-.6,0-1.1,0-2.3,0-3.4,0-.7,0-1.4.1-2.1l1.1,2.5c.6,1.3,1.1,2.7,1.7,4,.2.4.4.4.7,0,.1-.2.2-.3.3-.5.6-1.6,1.1-3.1,1.7-4.7.2-.5.4-1,.6-1.5.1,0,0,.1,0,.2,0,1.2,0,2.3.1,3.5,0,.7,0,1.4,0,2.1,0,.3-.1.5-.4.5,0,0,0,0,0,0-.1,0-.2,0-.3,0-.2,0-.3.1-.3.3,0,.2.1.3.3.3.3,0,.6,0,1,0,.8,0,1.6,0,2.5,0,.2,0,.3,0,.4-.2,0-.2,0-.3-.3-.4-.6,0-.7-.2-.7-.8,0-1.2,0-2.4-.2-3.7,0-.9,0-1.8,0-2.7,0-.5,0-.6.6-.7.2,0,.4,0,.3-.3,0-.2-.1-.3-.4-.3-.8.1-1.6.1-2.4,0-.2,0-.4,0-.5.2,0,0,0,0,0,0-.5,1.7-1.1,3.4-1.9,5.1,0,0,0,.2-.1.2,0-.1-.2-.3-.2-.4-.7-1.6-1.5-3.3-2.2-4.9,0-.2-.2-.3-.4-.3-.8,0-1.6,0-2.4,0-.2,0-.3,0-.3.3,0,.3.2.3.3.3.6.1.7.2.6.8,0,1.2-.1,2.4-.1,3.6h0c0,.8,0,1.6-.1,2.3ZM67.1,77.4h0c0-.1,0-.3.2-.3,0,0,.2,0,.3,0,.5-.1.5-.3.4-.7-.2-.5-.4-1-.6-1.5,0-.2-.2-.3-.4-.3-.4,0-.7,0-1.1,0h0c-.4,0-.8,0-1.2,0-.2,0-.3,0-.4.2-.2.5-.5,1.1-.6,1.6,0,.2,0,.4.1.5,0,0,0,0,.1,0,.2,0,.4.1.5.1.2,0,.3.2.3.4,0,.2-.2.2-.3.2-.8,0-1.6,0-2.4,0-.2,0-.3,0-.3-.2,0-.2,0-.4.2-.4.5-.1.9-.5,1-.9,1-2.3,2-4.5,3-6.8,0-.2.2-.3.3-.5.3-.4.6-.4.8,0,.7,1.6,1.3,3.2,2,4.8.3.8.7,1.7,1,2.5.1.4.5.7.9.7.2,0,.4.1.3.4,0,.3-.2.2-.4.2-1.1-.1-2.2-.1-3.2,0-.2,0-.4,0-.4-.3ZM66.7,73.1h0c-.2-.6-.5-1.2-.8-1.8-.4.9-.7,1.6-1,2.4,0,.2,0,.2.2.2.4,0,.8,0,1.1,0q.8,0,.5-.7ZM75.8,80.1c.2-.5.5-1,.7-1.6,0,0,0,0,0,0,0-.1,0-.3-.2-.4-.1,0-.3,0-.4.2,0,0,0,.2-.1.3-.9,1.9-1.6,3.9-2.3,6-.2.8-.5,1.5-.9,2.2,0,.1-.1.3-.3.3-.2,0-.2-.2-.2-.4-.1-.9,0-1.8,0-2.7.1-1.1.2-2.2.2-3.3,0-.1,0-.3,0-.4-.1-.4-.5-.5-.8-.2-.3.4-.6.8-.7,1.3-.5,1.1-.9,2.3-1.4,3.4,0,.1-.1.3-.2.4,0-1.3.4-2.6.8-3.8,0,0,0-.1.1-.2.3-.5.6-.9.8-1.4.1-.2.2-.4,0-.5-.2-.2-.4,0-.5.1-.2.2-.4.5-.5.8-.4,1.1-1.1,2.1-1.9,3-.1.2-.3.3-.5.2,0,0,0,0,0,0-.1,0-.3,0-.3.2,0,.1,0,.3.2.3.2.1.5,0,.7-.1.3-.3.6-.6.9-.9,0,.3-.1.6-.2.9-.1.6-.2,1.1-.2,1.7,0,.3.2.5.4.6.3,0,.4-.1.5-.3,0-.1.1-.2.2-.3.3-.7.6-1.4.9-2.2.3-.8.7-1.6,1.1-2.4,0,.6,0,1.2,0,1.8-.2,1.3-.2,2.6-.2,3.9,0,.5.2.9.6,1.2h.3c.3-.1.5-.4.6-.6.4-.8.7-1.6,1-2.5.4-1.5,1-3,1.6-4.4h0ZM79.5,83.1h0c.2.2.3,0,.3-.1,0-.2,0-.4-.2-.5-.2-.1-.4-.2-.6,0-.1,0-.3.2-.3.2-.5-.2-.8,0-1.2.2-.3.1-.6.2-.9.2,0,0-.2,0-.2-.1.2-.4-.2-.4-.4-.6-.2-.2-.4-.2-.6,0-.2.1-.2.4-.1.6.2.3.2.7,0,1.1,0,0,0,.1,0,.2,0,.2,0,.3.2.4.2,0,.3,0,.4-.1.1-.1.2-.3.2-.5,0-.1,0-.3.2-.2.5,0,1-.1,1.4-.3-.1.3-.2.6-.3.9,0,.2,0,.4.2.5,0,0,0,0,0,0,.2,0,.2-.2.3-.3.2-.5.5-.9.8-1.3.2-.2.3-.3.5,0ZM76.7,69.3s0,0,0,0h0c1,0,1.8.6,2.1,1.5,0,.2.2.4.4.3s.3-.3.2-.5c-.1-.5-.2-1-.3-1.4,0-.2-.2-.4-.5-.4-.6,0-1.2-.1-1.8-.2-1.1-.1-2.2.1-3.2.7-2.2,1.3-2.9,4.1-1.6,6.2.4.7,1,1.3,1.7,1.7,1.9,1.1,3.8.6,5.7-.2.1,0,.2-.2.2-.3,0-.5,0-1.1,0-1.6,0-.7,0-.7.6-.8.2,0,.3-.2.3-.4,0-.2-.2-.2-.3-.2-1.1,0-2.1,0-3.2,0-.1,0-.3,0-.3.2,0,.2,0,.4.2.4,0,0,.1,0,.2,0,.4,0,.5.2.5.6,0,.3,0,.6,0,.9h0c0,.3,0,.6,0,.9,0,.2-.1.4-.3.4-1.2.4-2.4-.2-3-1.3-.7-1.4-.9-3.1-.4-4.6.2-1.2,1.4-2.1,2.7-1.9ZM92.9,33.3c0-.6,0-1.3,0-1.7h0c.1.5.3,1,.5,1.5l.6,1.9h.4l.7-1.9c.2-.5.4-1,.5-1.5h0c0,.5,0,1.2,0,1.7v1.7h.6l-.2-3.9h-.6l-.7,1.9c-.2.5-.3.9-.4,1.3h0c0-.4-.2-.8-.4-1.3l-.7-1.9h-.6l-.3,3.9h.5v-1.7ZM90.2,35h.5v-3.5h1.2v-.4h-2.9v.4h1.2v3.5Z"/>
</svg>