<svg xmlns="http://www.w3.org/2000/svg" width="200" height="32" viewBox="0 0 200 32" fill="none"><path d="M31.5203 0.359528L42.6672 12.7585V4.79425C42.6672 4.15307 42.6601 3.59509 42.6455 3.11992C42.6311 2.63733 42.6095 2.22251 42.5807 1.87546C42.5517 1.52099 42.5157 1.22687 42.4725 0.99309C42.4365 0.759314 42.3967 0.563226 42.3533 0.404837V0.359528H44.2798V0.404837C44.2364 0.563226 44.1968 0.759314 44.1608 0.99309C44.1247 1.22687 44.0922 1.52099 44.0634 1.87546C44.0345 2.22251 44.0128 2.63733 43.9984 3.11992C43.984 3.59509 43.9767 4.15307 43.9767 4.79425V16.8084H43.598L32.4511 4.42083V12.1589C32.4511 12.7999 32.4582 13.3617 32.4728 13.8443C32.4872 14.3195 32.5088 14.7306 32.5376 15.0775C32.5666 15.4243 32.5989 15.7147 32.6349 15.9485C32.671 16.1823 32.7108 16.3784 32.7541 16.5368V16.5821H30.8277V16.5368C30.871 16.3784 30.9107 16.1823 30.9467 15.9485C30.9901 15.7147 31.0261 15.4243 31.0549 15.0775C31.0838 14.7306 31.1055 14.3195 31.1199 13.8443C31.1343 13.3617 31.1416 12.7999 31.1416 12.1589V4.79425C31.1416 4.15307 31.1343 3.59509 31.1199 3.11992C31.1055 2.63733 31.0838 2.22251 31.0549 1.87546C31.0261 1.52099 30.9901 1.22687 30.9467 0.99309C30.9107 0.759314 30.871 0.563226 30.8277 0.404837V0.359528H31.5203Z" fill="#5FB6C5"></path><path d="M58.8179 0.249969C60.0165 0.249969 61.1218 0.456209 62.1337 0.868882C63.1527 1.27394 64.0317 1.84793 64.771 2.59047C65.5101 3.32578 66.0878 4.21089 66.5041 5.24619C66.9204 6.28148 67.1285 7.42536 67.1285 8.67822C67.1285 9.39088 67.0495 10.0924 66.8916 10.7826C66.7337 11.4726 66.5005 12.1253 66.1919 12.7405C65.8905 13.3557 65.5174 13.9258 65.0724 14.451C64.6275 14.9685 64.1178 15.4187 63.5437 15.8013C62.9769 16.1762 62.3489 16.469 61.6599 16.679C60.971 16.8965 60.2281 17.0053 59.4317 17.0053C58.2331 17.0053 57.1243 16.8065 56.1053 16.4089C55.0934 16.0038 54.2179 15.4337 53.4786 14.6984C52.7394 13.9633 52.1618 13.0819 51.7455 12.054C51.3292 11.0189 51.1211 9.87112 51.1211 8.61084C51.1211 7.89799 51.2001 7.19667 51.358 6.50647C51.5159 5.81627 51.7455 5.15986 52.0469 4.53724C52.3555 3.91462 52.7286 3.34453 53.1664 2.82679C53.6114 2.30162 54.1174 1.84793 54.6842 1.46534C55.2584 1.08274 55.89 0.786272 56.5789 0.576323C57.275 0.358757 58.0214 0.249969 58.8179 0.249969ZM59.4317 15.9925C60.2281 15.9925 60.9566 15.8425 61.6169 15.5425C62.2772 15.2423 62.844 14.8072 63.3176 14.2371C63.7986 13.667 64.1717 12.9731 64.4373 12.1554C64.7028 11.3302 64.8355 10.3961 64.8355 9.35338C64.8355 8.19817 64.7064 7.12908 64.448 6.14632C64.1969 5.15614 63.82 4.30092 63.3176 3.58084C62.8154 2.85315 62.1875 2.28677 61.4338 1.88152C60.6876 1.46904 59.8156 1.26261 58.8179 1.26261C58.0214 1.26261 57.293 1.4128 56.6327 1.71278C55.9724 2.00535 55.402 2.43306 54.9211 2.99572C54.4475 3.55819 54.0779 4.24839 53.8123 5.06612C53.5468 5.88385 53.4141 6.81407 53.4141 7.85679C53.4141 9.00457 53.5397 10.0774 53.7908 11.0752C54.0421 12.0653 54.4187 12.9243 54.9211 13.652C55.4235 14.3797 56.0515 14.9535 56.805 15.3736C57.5585 15.7862 58.434 15.9925 59.4317 15.9925Z" fill="#5FB6C5"></path><path d="M58.8179 0.249969C60.0165 0.249969 61.1218 0.456209 62.1337 0.868882C63.1527 1.27394 64.0317 1.84793 64.771 2.59047C65.5101 3.32578 66.0878 4.21089 66.5041 5.24619C66.9204 6.28148 67.1285 7.42536 67.1285 8.67822C67.1285 9.39088 67.0495 10.0924 66.8916 10.7826C66.7337 11.4726 66.5005 12.1253 66.1919 12.7405C65.8905 13.3557 65.5174 13.9258 65.0724 14.451C64.6275 14.9685 64.1178 15.4187 63.5437 15.8013C62.9769 16.1762 62.3489 16.469 61.6599 16.679C60.971 16.8965 60.2281 17.0053 59.4317 17.0053C58.2331 17.0053 57.1243 16.8065 56.1053 16.4089C55.0934 16.0038 54.2179 15.4337 53.4786 14.6984C52.7394 13.9633 52.1618 13.0819 51.7455 12.054C51.3292 11.0189 51.1211 9.87112 51.1211 8.61084C51.1211 7.89799 51.2001 7.19667 51.358 6.50647C51.5159 5.81627 51.7455 5.15986 52.0469 4.53724C52.3555 3.91462 52.7286 3.34453 53.1664 2.82679C53.6114 2.30162 54.1174 1.84793 54.6842 1.46534C55.2584 1.08274 55.89 0.786272 56.5789 0.576323C57.275 0.358757 58.0214 0.249969 58.8179 0.249969ZM59.4317 15.9925C60.2281 15.9925 60.9566 15.8425 61.6169 15.5425C62.2772 15.2423 62.844 14.8072 63.3176 14.2371C63.7986 13.667 64.1717 12.9731 64.4373 12.1554C64.7028 11.3302 64.8355 10.3961 64.8355 9.35338C64.8355 8.19817 64.7064 7.12908 64.448 6.14632C64.1969 5.15614 63.82 4.30092 63.3176 3.58084C62.8154 2.85315 62.1875 2.28677 61.4338 1.88152C60.6876 1.46904 59.8156 1.26261 58.8179 1.26261C58.0214 1.26261 57.293 1.4128 56.6327 1.71278C55.9724 2.00535 55.402 2.43306 54.9211 2.99572C54.4475 3.55819 54.0779 4.24839 53.8123 5.06612C53.5468 5.88385 53.4141 6.81407 53.4141 7.85679C53.4141 9.00457 53.5397 10.0774 53.7908 11.0752C54.0421 12.0653 54.4187 12.9243 54.9211 13.652C55.4235 14.3797 56.0515 14.9535 56.805 15.3736C57.5585 15.7862 58.434 15.9925 59.4317 15.9925Z" fill="#5FB6C5"></path><path d="M58.8179 0.249969C60.0165 0.249969 61.1218 0.456209 62.1337 0.868882C63.1527 1.27394 64.0317 1.84793 64.771 2.59047C65.5101 3.32578 66.0878 4.21089 66.5041 5.24619C66.9204 6.28148 67.1285 7.42536 67.1285 8.67822C67.1285 9.39088 67.0495 10.0924 66.8916 10.7826C66.7337 11.4726 66.5005 12.1253 66.1919 12.7405C65.8905 13.3557 65.5174 13.9258 65.0724 14.451C64.6275 14.9685 64.1178 15.4187 63.5437 15.8013C62.9769 16.1762 62.3489 16.469 61.6599 16.679C60.971 16.8965 60.2281 17.0053 59.4317 17.0053C58.2331 17.0053 57.1243 16.8065 56.1053 16.4089C55.0934 16.0038 54.2179 15.4337 53.4786 14.6984C52.7394 13.9633 52.1618 13.0819 51.7455 12.054C51.3292 11.0189 51.1211 9.87112 51.1211 8.61084C51.1211 7.89799 51.2001 7.19667 51.358 6.50647C51.5159 5.81627 51.7455 5.15986 52.0469 4.53724C52.3555 3.91462 52.7286 3.34453 53.1664 2.82679C53.6114 2.30162 54.1174 1.84793 54.6842 1.46534C55.2584 1.08274 55.89 0.786272 56.5789 0.576323C57.275 0.358757 58.0214 0.249969 58.8179 0.249969ZM59.4317 15.9925C60.2281 15.9925 60.9566 15.8425 61.6169 15.5425C62.2772 15.2423 62.844 14.8072 63.3176 14.2371C63.7986 13.667 64.1717 12.9731 64.4373 12.1554C64.7028 11.3302 64.8355 10.3961 64.8355 9.35338C64.8355 8.19817 64.7064 7.12908 64.448 6.14632C64.1969 5.15614 63.82 4.30092 63.3176 3.58084C62.8154 2.85315 62.1875 2.28677 61.4338 1.88152C60.6876 1.46904 59.8156 1.26261 58.8179 1.26261C58.0214 1.26261 57.293 1.4128 56.6327 1.71278C55.9724 2.00535 55.402 2.43306 54.9211 2.99572C54.4475 3.55819 54.0779 4.24839 53.8123 5.06612C53.5468 5.88385 53.4141 6.81407 53.4141 7.85679C53.4141 9.00457 53.5397 10.0774 53.7908 11.0752C54.0421 12.0653 54.4187 12.9243 54.9211 13.652C55.4235 14.3797 56.0515 14.9535 56.805 15.3736C57.5585 15.7862 58.434 15.9925 59.4317 15.9925Z" fill="#5FB6C5"></path><path d="M75.1228 0.384918V0.43003C75.1084 0.467528 75.0977 0.523778 75.0904 0.598774C75.0833 0.67377 75.0798 0.741342 75.0798 0.801299C75.0798 1.0339 75.1084 1.29268 75.1657 1.57782C75.2304 1.85535 75.3488 2.20415 75.5211 2.62425L80.2899 13.8658L84.8972 2.71428C85.005 2.43676 85.1197 2.13287 85.2417 1.80281C85.3637 1.47275 85.4248 1.13898 85.4248 0.801299C85.4248 0.711265 85.4175 0.636274 85.4031 0.576316C85.3889 0.508742 85.3746 0.459912 85.3602 0.43003V0.384918H87.5671V0.43003C87.4307 0.572601 87.2655 0.827665 87.0718 1.19522C86.878 1.56278 86.6663 2.01666 86.4367 2.55667L80.2684 16.8703H79.4072L73.562 3.10821C73.4256 2.78557 73.2819 2.47426 73.1313 2.17408C72.9878 1.8741 72.8514 1.60399 72.7221 1.36397C72.593 1.11632 72.4781 0.910084 72.3778 0.745054C72.2773 0.580024 72.2091 0.47495 72.1732 0.43003V0.384918H75.1228Z" fill="#5FB6C5"></path><path d="M75.1228 0.384918V0.43003C75.1084 0.467528 75.0977 0.523778 75.0904 0.598774C75.0833 0.67377 75.0798 0.741342 75.0798 0.801299C75.0798 1.0339 75.1084 1.29268 75.1657 1.57782C75.2304 1.85535 75.3488 2.20415 75.5211 2.62425L80.2899 13.8658L84.8972 2.71428C85.005 2.43676 85.1197 2.13287 85.2417 1.80281C85.3637 1.47275 85.4248 1.13898 85.4248 0.801299C85.4248 0.711265 85.4175 0.636274 85.4031 0.576316C85.3889 0.508742 85.3746 0.459912 85.3602 0.43003V0.384918H87.5671V0.43003C87.4307 0.572601 87.2655 0.827665 87.0718 1.19522C86.878 1.56278 86.6663 2.01666 86.4367 2.55667L80.2684 16.8703H79.4072L73.562 3.10821C73.4256 2.78557 73.2819 2.47426 73.1313 2.17408C72.9878 1.8741 72.8514 1.60399 72.7221 1.36397C72.593 1.11632 72.4781 0.910084 72.3778 0.745054C72.2773 0.580024 72.2091 0.47495 72.1732 0.43003V0.384918H75.1228Z" fill="#5FB6C5"></path><path d="M75.1228 0.384918V0.43003C75.1084 0.467528 75.0977 0.523778 75.0904 0.598774C75.0833 0.67377 75.0798 0.741342 75.0798 0.801299C75.0798 1.0339 75.1084 1.29268 75.1657 1.57782C75.2304 1.85535 75.3488 2.20415 75.5211 2.62425L80.2899 13.8658L84.8972 2.71428C85.005 2.43676 85.1197 2.13287 85.2417 1.80281C85.3637 1.47275 85.4248 1.13898 85.4248 0.801299C85.4248 0.711265 85.4175 0.636274 85.4031 0.576316C85.3889 0.508742 85.3746 0.459912 85.3602 0.43003V0.384918H87.5671V0.43003C87.4307 0.572601 87.2655 0.827665 87.0718 1.19522C86.878 1.56278 86.6663 2.01666 86.4367 2.55667L80.2684 16.8703H79.4072L73.562 3.10821C73.4256 2.78557 73.2819 2.47426 73.1313 2.17408C72.9878 1.8741 72.8514 1.60399 72.7221 1.36397C72.593 1.11632 72.4781 0.910084 72.3778 0.745054C72.2773 0.580024 72.2091 0.47495 72.1732 0.43003V0.384918H75.1228Z" fill="#5FB6C5"></path><path d="M103.363 16.4741V16.429C103.378 16.3915 103.389 16.3352 103.396 16.2602C103.403 16.1852 103.406 16.1177 103.406 16.0577C103.406 15.8251 103.374 15.5701 103.31 15.2925C103.252 15.0074 103.137 14.6549 102.965 14.2348L101.663 11.174C101.261 11.159 100.726 11.1515 100.059 11.1515C99.3912 11.1515 98.6699 11.1515 97.8949 11.1515C97.3278 11.1515 96.7789 11.1515 96.2477 11.1515C95.7239 11.1515 95.2502 11.159 94.8269 11.174L93.5889 14.1447C93.4813 14.4223 93.3664 14.7261 93.2444 15.0562C93.1224 15.3863 93.0615 15.72 93.0615 16.0577C93.0615 16.1552 93.0686 16.2378 93.0829 16.3052C93.0973 16.3653 93.1117 16.4065 93.1259 16.429V16.4741H90.9301V16.429C91.0592 16.2864 91.2206 16.0353 91.4143 15.6751C91.6081 15.3076 91.8199 14.85 92.0496 14.3023L98.2177 0H99.079L104.924 13.7508C105.061 14.0734 105.201 14.3885 105.344 14.6961C105.495 14.9963 105.635 15.2662 105.764 15.5064C105.893 15.7464 106.008 15.9489 106.108 16.114C106.209 16.279 106.277 16.3841 106.313 16.429V16.4741H103.363ZM96.3877 10.1838C96.8039 10.1838 97.231 10.1838 97.6688 10.1838C98.1065 10.1762 98.5335 10.1725 98.9497 10.1725C99.3733 10.1651 99.7787 10.1612 100.166 10.1612C100.554 10.1537 100.905 10.1463 101.221 10.1387L98.1962 2.9932L95.2252 10.1838H96.3877Z" fill="#5FB6C5"></path><path d="M103.363 16.4741V16.429C103.378 16.3915 103.389 16.3352 103.396 16.2602C103.403 16.1852 103.406 16.1177 103.406 16.0577C103.406 15.8251 103.374 15.5701 103.31 15.2925C103.252 15.0074 103.137 14.6549 102.965 14.2348L101.663 11.174C101.261 11.159 100.726 11.1515 100.059 11.1515C99.3912 11.1515 98.6699 11.1515 97.8949 11.1515C97.3278 11.1515 96.7789 11.1515 96.2477 11.1515C95.7239 11.1515 95.2502 11.159 94.8269 11.174L93.5889 14.1447C93.4813 14.4223 93.3664 14.7261 93.2444 15.0562C93.1224 15.3863 93.0615 15.72 93.0615 16.0577C93.0615 16.1552 93.0686 16.2378 93.0829 16.3052C93.0973 16.3653 93.1117 16.4065 93.1259 16.429V16.4741H90.9301V16.429C91.0592 16.2864 91.2206 16.0353 91.4143 15.6751C91.6081 15.3076 91.8199 14.85 92.0496 14.3023L98.2177 0H99.079L104.924 13.7508C105.061 14.0734 105.201 14.3885 105.344 14.6961C105.495 14.9963 105.635 15.2662 105.764 15.5064C105.893 15.7464 106.008 15.9489 106.108 16.114C106.209 16.279 106.277 16.3841 106.313 16.429V16.4741H103.363ZM96.3877 10.1838C96.8039 10.1838 97.231 10.1838 97.6688 10.1838C98.1065 10.1762 98.5335 10.1725 98.9497 10.1725C99.3733 10.1651 99.7787 10.1612 100.166 10.1612C100.554 10.1537 100.905 10.1463 101.221 10.1387L98.1962 2.9932L95.2252 10.1838H96.3877Z" fill="#5FB6C5"></path><path d="M103.363 16.4741V16.429C103.378 16.3915 103.389 16.3352 103.396 16.2602C103.403 16.1852 103.406 16.1177 103.406 16.0577C103.406 15.8251 103.374 15.5701 103.31 15.2925C103.252 15.0074 103.137 14.6549 102.965 14.2348L101.663 11.174C101.261 11.159 100.726 11.1515 100.059 11.1515C99.3912 11.1515 98.6699 11.1515 97.8949 11.1515C97.3278 11.1515 96.7789 11.1515 96.2477 11.1515C95.7239 11.1515 95.2502 11.159 94.8269 11.174L93.5889 14.1447C93.4813 14.4223 93.3664 14.7261 93.2444 15.0562C93.1224 15.3863 93.0615 15.72 93.0615 16.0577C93.0615 16.1552 93.0686 16.2378 93.0829 16.3052C93.0973 16.3653 93.1117 16.4065 93.1259 16.429V16.4741H90.9301V16.429C91.0592 16.2864 91.2206 16.0353 91.4143 15.6751C91.6081 15.3076 91.8199 14.85 92.0496 14.3023L98.2177 0H99.079L104.924 13.7508C105.061 14.0734 105.201 14.3885 105.344 14.6961C105.495 14.9963 105.635 15.2662 105.764 15.5064C105.893 15.7464 106.008 15.9489 106.108 16.114C106.209 16.279 106.277 16.3841 106.313 16.429V16.4741H103.363ZM96.3877 10.1838C96.8039 10.1838 97.231 10.1838 97.6688 10.1838C98.1065 10.1762 98.5335 10.1725 98.9497 10.1725C99.3733 10.1651 99.7787 10.1612 100.166 10.1612C100.554 10.1537 100.905 10.1463 101.221 10.1387L98.1962 2.9932L95.2252 10.1838H96.3877Z" fill="#5FB6C5"></path><path d="M118.61 2.90161H118.373C118.316 2.72916 118.223 2.53405 118.093 2.31648C117.971 2.09892 117.806 1.89639 117.598 1.7089C117.397 1.51379 117.15 1.35247 116.855 1.22494C116.568 1.09741 116.227 1.03374 115.833 1.03374C115.481 1.03374 115.169 1.08999 114.896 1.20248C114.623 1.31497 114.394 1.47258 114.207 1.67511C114.028 1.87764 113.891 2.11766 113.798 2.39519C113.705 2.67291 113.658 2.98031 113.658 3.31798C113.658 3.85819 113.802 4.37575 114.089 4.87084C114.383 5.35851 114.749 5.84227 115.187 6.32251C115.625 6.80257 116.098 7.28262 116.608 7.76286C117.117 8.24292 117.591 8.74171 118.029 9.25945C118.467 9.777 118.829 10.3209 119.116 10.891C119.41 11.4537 119.557 12.0613 119.557 12.714C119.557 13.2016 119.475 13.693 119.31 14.1881C119.152 14.6758 118.904 15.1146 118.567 15.5046C118.23 15.8948 117.796 16.2136 117.265 16.4612C116.733 16.7012 116.102 16.8214 115.37 16.8214C114.961 16.8214 114.57 16.7799 114.197 16.6975C113.831 16.6225 113.49 16.5286 113.174 16.4161C112.865 16.2962 112.585 16.1686 112.334 16.0335C112.09 15.8985 111.889 15.7747 111.731 15.6622L111.979 13.1755H112.248C112.327 13.528 112.456 13.8655 112.636 14.1881C112.815 14.5031 113.034 14.7845 113.292 15.032C113.558 15.2722 113.859 15.4671 114.197 15.6171C114.534 15.7597 114.903 15.831 115.305 15.831C115.671 15.831 115.998 15.7747 116.285 15.6622C116.579 15.5421 116.83 15.381 117.038 15.1783C117.247 14.9683 117.404 14.7207 117.512 14.4357C117.627 14.1506 117.684 13.8393 117.684 13.5016C117.684 13.0292 117.602 12.594 117.437 12.1964C117.272 11.7914 117.053 11.4088 116.78 11.0486C116.515 10.6885 116.209 10.3397 115.865 10.0022C115.528 9.66452 115.18 9.32683 114.821 8.98935C114.462 8.64425 114.11 8.29174 113.766 7.93161C113.429 7.57147 113.124 7.18887 112.851 6.78382C112.585 6.37114 112.37 5.93229 112.205 5.46728C112.04 4.99465 111.957 4.47691 111.957 3.91444C111.957 3.3217 112.065 2.78911 112.28 2.31648C112.503 1.83643 112.793 1.42746 113.152 1.08998C113.518 0.752307 113.931 0.493535 114.39 0.313467C114.85 0.133399 115.323 0.0433655 115.811 0.0433655C116.17 0.0433655 116.5 0.0734417 116.802 0.133399C117.103 0.193552 117.372 0.264642 117.609 0.347255C117.853 0.429868 118.065 0.512286 118.244 0.594899C118.423 0.677316 118.571 0.744888 118.685 0.797424L118.61 2.90161Z" fill="#5FB6C5"></path><path d="M118.61 2.90161H118.373C118.316 2.72916 118.223 2.53405 118.093 2.31648C117.971 2.09892 117.806 1.89639 117.598 1.7089C117.397 1.51379 117.15 1.35247 116.855 1.22494C116.568 1.09741 116.227 1.03374 115.833 1.03374C115.481 1.03374 115.169 1.08999 114.896 1.20248C114.623 1.31497 114.394 1.47258 114.207 1.67511C114.028 1.87764 113.891 2.11766 113.798 2.39519C113.705 2.67291 113.658 2.98031 113.658 3.31798C113.658 3.85819 113.802 4.37575 114.089 4.87084C114.383 5.35851 114.749 5.84227 115.187 6.32251C115.625 6.80257 116.098 7.28262 116.608 7.76286C117.117 8.24292 117.591 8.74171 118.029 9.25945C118.467 9.777 118.829 10.3209 119.116 10.891C119.41 11.4537 119.557 12.0613 119.557 12.714C119.557 13.2016 119.475 13.693 119.31 14.1881C119.152 14.6758 118.904 15.1146 118.567 15.5046C118.23 15.8948 117.796 16.2136 117.265 16.4612C116.733 16.7012 116.102 16.8214 115.37 16.8214C114.961 16.8214 114.57 16.7799 114.197 16.6975C113.831 16.6225 113.49 16.5286 113.174 16.4161C112.865 16.2962 112.585 16.1686 112.334 16.0335C112.09 15.8985 111.889 15.7747 111.731 15.6622L111.979 13.1755H112.248C112.327 13.528 112.456 13.8655 112.636 14.1881C112.815 14.5031 113.034 14.7845 113.292 15.032C113.558 15.2722 113.859 15.4671 114.197 15.6171C114.534 15.7597 114.903 15.831 115.305 15.831C115.671 15.831 115.998 15.7747 116.285 15.6622C116.579 15.5421 116.83 15.381 117.038 15.1783C117.247 14.9683 117.404 14.7207 117.512 14.4357C117.627 14.1506 117.684 13.8393 117.684 13.5016C117.684 13.0292 117.602 12.594 117.437 12.1964C117.272 11.7914 117.053 11.4088 116.78 11.0486C116.515 10.6885 116.209 10.3397 115.865 10.0022C115.528 9.66452 115.18 9.32683 114.821 8.98935C114.462 8.64425 114.11 8.29174 113.766 7.93161C113.429 7.57147 113.124 7.18887 112.851 6.78382C112.585 6.37114 112.37 5.93229 112.205 5.46728C112.04 4.99465 111.957 4.47691 111.957 3.91444C111.957 3.3217 112.065 2.78911 112.28 2.31648C112.503 1.83643 112.793 1.42746 113.152 1.08998C113.518 0.752307 113.931 0.493535 114.39 0.313467C114.85 0.133399 115.323 0.0433655 115.811 0.0433655C116.17 0.0433655 116.5 0.0734417 116.802 0.133399C117.103 0.193552 117.372 0.264642 117.609 0.347255C117.853 0.429868 118.065 0.512286 118.244 0.594899C118.423 0.677316 118.571 0.744888 118.685 0.797424L118.61 2.90161Z" fill="#5FB6C5"></path><path d="M118.61 2.90161H118.373C118.316 2.72916 118.223 2.53405 118.093 2.31648C117.971 2.09892 117.806 1.89639 117.598 1.7089C117.397 1.51379 117.15 1.35247 116.855 1.22494C116.568 1.09741 116.227 1.03374 115.833 1.03374C115.481 1.03374 115.169 1.08999 114.896 1.20248C114.623 1.31497 114.394 1.47258 114.207 1.67511C114.028 1.87764 113.891 2.11766 113.798 2.39519C113.705 2.67291 113.658 2.98031 113.658 3.31798C113.658 3.85819 113.802 4.37575 114.089 4.87084C114.383 5.35851 114.749 5.84227 115.187 6.32251C115.625 6.80257 116.098 7.28262 116.608 7.76286C117.117 8.24292 117.591 8.74171 118.029 9.25945C118.467 9.777 118.829 10.3209 119.116 10.891C119.41 11.4537 119.557 12.0613 119.557 12.714C119.557 13.2016 119.475 13.693 119.31 14.1881C119.152 14.6758 118.904 15.1146 118.567 15.5046C118.23 15.8948 117.796 16.2136 117.265 16.4612C116.733 16.7012 116.102 16.8214 115.37 16.8214C114.961 16.8214 114.57 16.7799 114.197 16.6975C113.831 16.6225 113.49 16.5286 113.174 16.4161C112.865 16.2962 112.585 16.1686 112.334 16.0335C112.09 15.8985 111.889 15.7747 111.731 15.6622L111.979 13.1755H112.248C112.327 13.528 112.456 13.8655 112.636 14.1881C112.815 14.5031 113.034 14.7845 113.292 15.032C113.558 15.2722 113.859 15.4671 114.197 15.6171C114.534 15.7597 114.903 15.831 115.305 15.831C115.671 15.831 115.998 15.7747 116.285 15.6622C116.579 15.5421 116.83 15.381 117.038 15.1783C117.247 14.9683 117.404 14.7207 117.512 14.4357C117.627 14.1506 117.684 13.8393 117.684 13.5016C117.684 13.0292 117.602 12.594 117.437 12.1964C117.272 11.7914 117.053 11.4088 116.78 11.0486C116.515 10.6885 116.209 10.3397 115.865 10.0022C115.528 9.66452 115.18 9.32683 114.821 8.98935C114.462 8.64425 114.11 8.29174 113.766 7.93161C113.429 7.57147 113.124 7.18887 112.851 6.78382C112.585 6.37114 112.37 5.93229 112.205 5.46728C112.04 4.99465 111.957 4.47691 111.957 3.91444C111.957 3.3217 112.065 2.78911 112.28 2.31648C112.503 1.83643 112.793 1.42746 113.152 1.08998C113.518 0.752307 113.931 0.493535 114.39 0.313467C114.85 0.133399 115.323 0.0433655 115.811 0.0433655C116.17 0.0433655 116.5 0.0734417 116.802 0.133399C117.103 0.193552 117.372 0.264642 117.609 0.347255C117.853 0.429868 118.065 0.512286 118.244 0.594899C118.423 0.677316 118.571 0.744888 118.685 0.797424L118.61 2.90161Z" fill="#5FB6C5"></path><path d="M126.657 16.4555C126.7 16.2979 126.739 16.103 126.775 15.8704C126.818 15.6378 126.854 15.349 126.883 15.0039C126.912 14.6588 126.933 14.25 126.948 13.7774C126.962 13.2973 126.969 12.7384 126.969 12.1007V4.77512C126.969 4.13746 126.962 3.58242 126.948 3.10979C126.933 2.62974 126.912 2.21707 126.883 1.87197C126.854 1.51945 126.818 1.22689 126.775 0.994281C126.739 0.761677 126.7 0.566765 126.657 0.409156V0.364044H129.24V0.409156C129.197 0.566765 129.154 0.761677 129.111 0.994281C129.075 1.22689 129.043 1.51945 129.014 1.87197C128.993 2.21707 128.971 2.62974 128.95 3.10979C128.935 3.58242 128.928 4.13746 128.928 4.77512V7.28456L135.215 1.91708C135.918 1.31692 136.27 0.799177 136.27 0.364044H139.295V0.409156C138.871 0.514229 138.441 0.716755 138.003 1.01674C137.572 1.3093 137.113 1.66944 136.625 2.09695L131.07 6.95822L137.755 14.6326C138.035 14.9326 138.272 15.1839 138.466 15.3865C138.667 15.5816 138.843 15.7466 138.993 15.8817C139.144 16.0091 139.281 16.1179 139.403 16.2079C139.532 16.2905 139.664 16.3729 139.801 16.4555V16.5005H136.647C136.618 16.4331 136.568 16.3468 136.496 16.2417C136.431 16.1366 136.352 16.028 136.259 15.9153C136.173 15.8028 136.076 15.6866 135.969 15.5665C135.868 15.4466 135.771 15.3339 135.678 15.2291L128.928 7.48709V12.1007C128.928 12.7384 128.935 13.2973 128.95 13.7774C128.971 14.25 128.993 14.6588 129.014 15.0039C129.043 15.349 129.075 15.6378 129.111 15.8704C129.154 16.103 129.197 16.2979 129.24 16.4555V16.5005H126.657V16.4555Z" fill="#5FB6C5"></path><path d="M126.657 16.4555C126.7 16.2979 126.739 16.103 126.775 15.8704C126.818 15.6378 126.854 15.349 126.883 15.0039C126.912 14.6588 126.933 14.25 126.948 13.7774C126.962 13.2973 126.969 12.7384 126.969 12.1007V4.77512C126.969 4.13746 126.962 3.58242 126.948 3.10979C126.933 2.62974 126.912 2.21707 126.883 1.87197C126.854 1.51945 126.818 1.22689 126.775 0.994281C126.739 0.761677 126.7 0.566765 126.657 0.409156V0.364044H129.24V0.409156C129.197 0.566765 129.154 0.761677 129.111 0.994281C129.075 1.22689 129.043 1.51945 129.014 1.87197C128.993 2.21707 128.971 2.62974 128.95 3.10979C128.935 3.58242 128.928 4.13746 128.928 4.77512V7.28456L135.215 1.91708C135.918 1.31692 136.27 0.799177 136.27 0.364044H139.295V0.409156C138.871 0.514229 138.441 0.716755 138.003 1.01674C137.572 1.3093 137.113 1.66944 136.625 2.09695L131.07 6.95822L137.755 14.6326C138.035 14.9326 138.272 15.1839 138.466 15.3865C138.667 15.5816 138.843 15.7466 138.993 15.8817C139.144 16.0091 139.281 16.1179 139.403 16.2079C139.532 16.2905 139.664 16.3729 139.801 16.4555V16.5005H136.647C136.618 16.4331 136.568 16.3468 136.496 16.2417C136.431 16.1366 136.352 16.028 136.259 15.9153C136.173 15.8028 136.076 15.6866 135.969 15.5665C135.868 15.4466 135.771 15.3339 135.678 15.2291L128.928 7.48709V12.1007C128.928 12.7384 128.935 13.2973 128.95 13.7774C128.971 14.25 128.993 14.6588 129.014 15.0039C129.043 15.349 129.075 15.6378 129.111 15.8704C129.154 16.103 129.197 16.2979 129.24 16.4555V16.5005H126.657V16.4555Z" fill="#5FB6C5"></path><path d="M126.657 16.4555C126.7 16.2979 126.739 16.103 126.775 15.8704C126.818 15.6378 126.854 15.349 126.883 15.0039C126.912 14.6588 126.933 14.25 126.948 13.7774C126.962 13.2973 126.969 12.7384 126.969 12.1007V4.77512C126.969 4.13746 126.962 3.58242 126.948 3.10979C126.933 2.62974 126.912 2.21707 126.883 1.87197C126.854 1.51945 126.818 1.22689 126.775 0.994281C126.739 0.761677 126.7 0.566765 126.657 0.409156V0.364044H129.24V0.409156C129.197 0.566765 129.154 0.761677 129.111 0.994281C129.075 1.22689 129.043 1.51945 129.014 1.87197C128.993 2.21707 128.971 2.62974 128.95 3.10979C128.935 3.58242 128.928 4.13746 128.928 4.77512V7.28456L135.215 1.91708C135.918 1.31692 136.27 0.799177 136.27 0.364044H139.295V0.409156C138.871 0.514229 138.441 0.716755 138.003 1.01674C137.572 1.3093 137.113 1.66944 136.625 2.09695L131.07 6.95822L137.755 14.6326C138.035 14.9326 138.272 15.1839 138.466 15.3865C138.667 15.5816 138.843 15.7466 138.993 15.8817C139.144 16.0091 139.281 16.1179 139.403 16.2079C139.532 16.2905 139.664 16.3729 139.801 16.4555V16.5005H136.647C136.618 16.4331 136.568 16.3468 136.496 16.2417C136.431 16.1366 136.352 16.028 136.259 15.9153C136.173 15.8028 136.076 15.6866 135.969 15.5665C135.868 15.4466 135.771 15.3339 135.678 15.2291L128.928 7.48709V12.1007C128.928 12.7384 128.935 13.2973 128.95 13.7774C128.971 14.25 128.993 14.6588 129.014 15.0039C129.043 15.349 129.075 15.6378 129.111 15.8704C129.154 16.103 129.197 16.2979 129.24 16.4555V16.5005H126.657V16.4555Z" fill="#5FB6C5"></path><path d="M126.657 16.4555C126.7 16.2979 126.739 16.103 126.775 15.8704C126.818 15.6378 126.854 15.349 126.883 15.0039C126.912 14.6588 126.933 14.25 126.948 13.7774C126.962 13.2973 126.969 12.7384 126.969 12.1007V4.77512C126.969 4.13746 126.962 3.58242 126.948 3.10979C126.933 2.62974 126.912 2.21707 126.883 1.87197C126.854 1.51945 126.818 1.22689 126.775 0.994281C126.739 0.761677 126.7 0.566765 126.657 0.409156V0.364044H129.24V0.409156C129.197 0.566765 129.154 0.761677 129.111 0.994281C129.075 1.22689 129.043 1.51945 129.014 1.87197C128.993 2.21707 128.971 2.62974 128.95 3.10979C128.935 3.58242 128.928 4.13746 128.928 4.77512V7.28456L135.215 1.91708C135.918 1.31692 136.27 0.799177 136.27 0.364044H139.295V0.409156C138.871 0.514229 138.441 0.716755 138.003 1.01674C137.572 1.3093 137.113 1.66944 136.625 2.09695L131.07 6.95822L137.755 14.6326C138.035 14.9326 138.272 15.1839 138.466 15.3865C138.667 15.5816 138.843 15.7466 138.993 15.8817C139.144 16.0091 139.281 16.1179 139.403 16.2079C139.532 16.2905 139.664 16.3729 139.801 16.4555V16.5005H136.647C136.618 16.4331 136.568 16.3468 136.496 16.2417C136.431 16.1366 136.352 16.028 136.259 15.9153C136.173 15.8028 136.076 15.6866 135.969 15.5665C135.868 15.4466 135.771 15.3339 135.678 15.2291L128.928 7.48709V12.1007C128.928 12.7384 128.935 13.2973 128.95 13.7774C128.971 14.25 128.993 14.6588 129.014 15.0039C129.043 15.349 129.075 15.6378 129.111 15.8704C129.154 16.103 129.197 16.2979 129.24 16.4555V16.5005H126.657V16.4555Z" fill="#5FB6C5"></path><path d="M145.593 16.4555C145.636 16.2979 145.675 16.103 145.711 15.8704C145.747 15.6378 145.779 15.349 145.808 15.0039C145.837 14.6588 145.858 14.25 145.873 13.7774C145.887 13.2973 145.894 12.7384 145.894 12.1007V4.77512C145.894 4.13746 145.887 3.58242 145.873 3.10979C145.858 2.62974 145.837 2.21707 145.808 1.87197C145.779 1.51945 145.747 1.22689 145.711 0.994281C145.675 0.761677 145.636 0.566765 145.593 0.409156V0.364044H148.166V0.409156C148.123 0.566765 148.079 0.761677 148.036 0.994281C148.001 1.22689 147.968 1.51945 147.94 1.87197C147.918 2.21707 147.897 2.62974 147.875 3.10979C147.861 3.58242 147.853 4.13746 147.853 4.77512V12.1007C147.853 12.7384 147.861 13.2973 147.875 13.7774C147.897 14.25 147.918 14.6588 147.94 15.0039C147.968 15.349 148.001 15.6378 148.036 15.8704C148.079 16.103 148.123 16.2979 148.166 16.4555V16.5005H145.593V16.4555Z" fill="#5FB6C5"></path><path d="M145.593 16.4555C145.636 16.2979 145.675 16.103 145.711 15.8704C145.747 15.6378 145.779 15.349 145.808 15.0039C145.837 14.6588 145.858 14.25 145.873 13.7774C145.887 13.2973 145.894 12.7384 145.894 12.1007V4.77512C145.894 4.13746 145.887 3.58242 145.873 3.10979C145.858 2.62974 145.837 2.21707 145.808 1.87197C145.779 1.51945 145.747 1.22689 145.711 0.994281C145.675 0.761677 145.636 0.566765 145.593 0.409156V0.364044H148.166V0.409156C148.123 0.566765 148.079 0.761677 148.036 0.994281C148.001 1.22689 147.968 1.51945 147.94 1.87197C147.918 2.21707 147.897 2.62974 147.875 3.10979C147.861 3.58242 147.853 4.13746 147.853 4.77512V12.1007C147.853 12.7384 147.861 13.2973 147.875 13.7774C147.897 14.25 147.918 14.6588 147.94 15.0039C147.968 15.349 148.001 15.6378 148.036 15.8704C148.079 16.103 148.123 16.2979 148.166 16.4555V16.5005H145.593V16.4555Z" fill="#5FB6C5"></path><path d="M145.593 16.4555C145.636 16.2979 145.675 16.103 145.711 15.8704C145.747 15.6378 145.779 15.349 145.808 15.0039C145.837 14.6588 145.858 14.25 145.873 13.7774C145.887 13.2973 145.894 12.7384 145.894 12.1007V4.77512C145.894 4.13746 145.887 3.58242 145.873 3.10979C145.858 2.62974 145.837 2.21707 145.808 1.87197C145.779 1.51945 145.747 1.22689 145.711 0.994281C145.675 0.761677 145.636 0.566765 145.593 0.409156V0.364044H148.166V0.409156C148.123 0.566765 148.079 0.761677 148.036 0.994281C148.001 1.22689 147.968 1.51945 147.94 1.87197C147.918 2.21707 147.897 2.62974 147.875 3.10979C147.861 3.58242 147.853 4.13746 147.853 4.77512V12.1007C147.853 12.7384 147.861 13.2973 147.875 13.7774C147.897 14.25 147.918 14.6588 147.94 15.0039C147.968 15.349 148.001 15.6378 148.036 15.8704C148.079 16.103 148.123 16.2979 148.166 16.4555V16.5005H145.593V16.4555Z" fill="#5FB6C5"></path><path d="M145.593 16.4555C145.636 16.2979 145.675 16.103 145.711 15.8704C145.747 15.6378 145.779 15.349 145.808 15.0039C145.837 14.6588 145.858 14.25 145.873 13.7774C145.887 13.2973 145.894 12.7384 145.894 12.1007V4.77512C145.894 4.13746 145.887 3.58242 145.873 3.10979C145.858 2.62974 145.837 2.21707 145.808 1.87197C145.779 1.51945 145.747 1.22689 145.711 0.994281C145.675 0.761677 145.636 0.566765 145.593 0.409156V0.364044H148.166V0.409156C148.123 0.566765 148.079 0.761677 148.036 0.994281C148.001 1.22689 147.968 1.51945 147.94 1.87197C147.918 2.21707 147.897 2.62974 147.875 3.10979C147.861 3.58242 147.853 4.13746 147.853 4.77512V12.1007C147.853 12.7384 147.861 13.2973 147.875 13.7774C147.897 14.25 147.918 14.6588 147.94 15.0039C147.968 15.349 148.001 15.6378 148.036 15.8704C148.079 16.103 148.123 16.2979 148.166 16.4555V16.5005H145.593V16.4555Z" fill="#5FB6C5"></path><path d="M156.515 0.446838L167.602 12.7799V4.85792C167.602 4.22026 167.596 3.66522 167.581 3.19259C167.566 2.71234 167.546 2.29986 167.516 1.95477C167.488 1.60225 167.452 1.30969 167.409 1.07708C167.374 0.844477 167.333 0.64937 167.29 0.491957V0.446838H169.207V0.491957C169.164 0.64937 169.124 0.844477 169.089 1.07708C169.051 1.30969 169.02 1.60225 168.992 1.95477C168.962 2.29986 168.941 2.71234 168.926 3.19259C168.911 3.66522 168.906 4.22026 168.906 4.85792V16.8084H168.528L157.44 4.48666V12.1835C157.44 12.8212 157.448 13.3801 157.462 13.8602C157.476 14.3328 157.498 14.7416 157.527 15.0867C157.555 15.4318 157.587 15.7206 157.623 15.9532C157.659 16.1856 157.699 16.3807 157.742 16.5383V16.5833H155.826V16.5383C155.869 16.3807 155.908 16.1856 155.944 15.9532C155.987 15.7206 156.023 15.4318 156.052 15.0867C156.08 14.7416 156.102 14.3328 156.116 13.8602C156.131 13.3801 156.138 12.8212 156.138 12.1835V4.85792C156.138 4.22026 156.131 3.66522 156.116 3.19259C156.102 2.71234 156.08 2.29986 156.052 1.95477C156.023 1.60225 155.987 1.30969 155.944 1.07708C155.908 0.844477 155.869 0.64937 155.826 0.491957V0.446838H156.515Z" fill="#5FB6C5"></path><path d="M156.515 0.446838L167.602 12.7799V4.85792C167.602 4.22026 167.596 3.66522 167.581 3.19259C167.566 2.71234 167.546 2.29986 167.516 1.95477C167.488 1.60225 167.452 1.30969 167.409 1.07708C167.374 0.844477 167.333 0.64937 167.29 0.491957V0.446838H169.207V0.491957C169.164 0.64937 169.124 0.844477 169.089 1.07708C169.051 1.30969 169.02 1.60225 168.992 1.95477C168.962 2.29986 168.941 2.71234 168.926 3.19259C168.911 3.66522 168.906 4.22026 168.906 4.85792V16.8084H168.528L157.44 4.48666V12.1835C157.44 12.8212 157.448 13.3801 157.462 13.8602C157.476 14.3328 157.498 14.7416 157.527 15.0867C157.555 15.4318 157.587 15.7206 157.623 15.9532C157.659 16.1856 157.699 16.3807 157.742 16.5383V16.5833H155.826V16.5383C155.869 16.3807 155.908 16.1856 155.944 15.9532C155.987 15.7206 156.023 15.4318 156.052 15.0867C156.08 14.7416 156.102 14.3328 156.116 13.8602C156.131 13.3801 156.138 12.8212 156.138 12.1835V4.85792C156.138 4.22026 156.131 3.66522 156.116 3.19259C156.102 2.71234 156.08 2.29986 156.052 1.95477C156.023 1.60225 155.987 1.30969 155.944 1.07708C155.908 0.844477 155.869 0.64937 155.826 0.491957V0.446838H156.515Z" fill="#5FB6C5"></path><path d="M156.515 0.446838L167.602 12.7799V4.85792C167.602 4.22026 167.596 3.66522 167.581 3.19259C167.566 2.71234 167.546 2.29986 167.516 1.95477C167.488 1.60225 167.452 1.30969 167.409 1.07708C167.374 0.844477 167.333 0.64937 167.29 0.491957V0.446838H169.207V0.491957C169.164 0.64937 169.124 0.844477 169.089 1.07708C169.051 1.30969 169.02 1.60225 168.992 1.95477C168.962 2.29986 168.941 2.71234 168.926 3.19259C168.911 3.66522 168.906 4.22026 168.906 4.85792V16.8084H168.528L157.44 4.48666V12.1835C157.44 12.8212 157.448 13.3801 157.462 13.8602C157.476 14.3328 157.498 14.7416 157.527 15.0867C157.555 15.4318 157.587 15.7206 157.623 15.9532C157.659 16.1856 157.699 16.3807 157.742 16.5383V16.5833H155.826V16.5383C155.869 16.3807 155.908 16.1856 155.944 15.9532C155.987 15.7206 156.023 15.4318 156.052 15.0867C156.08 14.7416 156.102 14.3328 156.116 13.8602C156.131 13.3801 156.138 12.8212 156.138 12.1835V4.85792C156.138 4.22026 156.131 3.66522 156.116 3.19259C156.102 2.71234 156.08 2.29986 156.052 1.95477C156.023 1.60225 155.987 1.30969 155.944 1.07708C155.908 0.844477 155.869 0.64937 155.826 0.491957V0.446838H156.515Z" fill="#5FB6C5"></path><path d="M156.515 0.446838L167.602 12.7799V4.85792C167.602 4.22026 167.596 3.66522 167.581 3.19259C167.566 2.71234 167.546 2.29986 167.516 1.95477C167.488 1.60225 167.452 1.30969 167.409 1.07708C167.374 0.844477 167.333 0.64937 167.29 0.491957V0.446838H169.207V0.491957C169.164 0.64937 169.124 0.844477 169.089 1.07708C169.051 1.30969 169.02 1.60225 168.992 1.95477C168.962 2.29986 168.941 2.71234 168.926 3.19259C168.911 3.66522 168.906 4.22026 168.906 4.85792V16.8084H168.528L157.44 4.48666V12.1835C157.44 12.8212 157.448 13.3801 157.462 13.8602C157.476 14.3328 157.498 14.7416 157.527 15.0867C157.555 15.4318 157.587 15.7206 157.623 15.9532C157.659 16.1856 157.699 16.3807 157.742 16.5383V16.5833H155.826V16.5383C155.869 16.3807 155.908 16.1856 155.944 15.9532C155.987 15.7206 156.023 15.4318 156.052 15.0867C156.08 14.7416 156.102 14.3328 156.116 13.8602C156.131 13.3801 156.138 12.8212 156.138 12.1835V4.85792C156.138 4.22026 156.131 3.66522 156.116 3.19259C156.102 2.71234 156.08 2.29986 156.052 1.95477C156.023 1.60225 155.987 1.30969 155.944 1.07708C155.908 0.844477 155.869 0.64937 155.826 0.491957V0.446838H156.515Z" fill="#5FB6C5"></path><path d="M0.71296 31.9172V24.4955H1.42592C1.51174 24.4955 1.57445 24.5059 1.61406 24.5266C1.66027 24.5404 1.70648 24.5887 1.75269 24.6715L4.20844 29.2363C4.26126 29.326 4.30086 29.4157 4.32727 29.5054C4.36028 29.5882 4.39328 29.6779 4.42629 29.7745C4.4593 29.6848 4.49231 29.5951 4.52531 29.5054C4.56492 29.4088 4.60783 29.3156 4.65404 29.2259L7.06028 24.6715C7.10649 24.5887 7.1494 24.5404 7.18901 24.5266C7.23522 24.5059 7.30124 24.4955 7.38706 24.4955H8.10002V31.9172H7.25833V26.4622C7.25833 26.3932 7.25833 26.3173 7.25833 26.2345C7.26493 26.1517 7.27153 26.0654 7.27813 25.9757L4.84219 30.613C4.76297 30.7717 4.64744 30.851 4.49561 30.851H4.35698C4.21174 30.851 4.09622 30.7717 4.0104 30.613L1.52494 25.9654C1.53814 26.0551 1.54475 26.1448 1.54475 26.2345C1.55135 26.3173 1.55465 26.3932 1.55465 26.4622V31.9172H0.71296ZM0 31.9172V31.4928C0 31.4307 0.013203 31.3824 0.0396089 31.3479C0.0660148 31.3065 0.105624 31.2823 0.158436 31.2754L0.901102 31.1098L1.01003 31.9172H0ZM1.3566 31.9172L1.46553 31.1098L2.2082 31.2754C2.26101 31.2823 2.30062 31.3065 2.32702 31.3479C2.35343 31.3824 2.36663 31.4307 2.36663 31.4928V31.9172H1.3566ZM1.01003 24.4955L0.901102 25.3029L0.158436 25.1373C0.105624 25.1235 0.0660148 25.0993 0.0396089 25.0648C0.013203 25.0303 0 24.982 0 24.9199V24.4955H1.01003ZM6.44634 31.9172V31.4928C6.44634 31.4307 6.45955 31.3824 6.48595 31.3479C6.51236 31.3065 6.55197 31.2823 6.60478 31.2754L7.34745 31.1098L7.45637 31.9172H6.44634ZM7.80295 31.9172L7.91187 31.1098L8.65454 31.2754C8.70735 31.2823 8.74696 31.3065 8.77337 31.3479C8.79977 31.3824 8.81298 31.4307 8.81298 31.4928V31.9172H7.80295ZM8.81298 24.4955V24.9199C8.81298 24.982 8.79977 25.0303 8.77337 25.0648C8.74696 25.0993 8.70735 25.1235 8.65454 25.1373L7.91187 25.3029L7.80295 24.4955H8.81298Z" fill="#5FB6C5"></path><path d="M14.01 31.9172V24.4955H18.3868V25.3132H14.9804V27.7871H17.5946V28.5738H14.9804V31.0994H18.3868V31.9172H14.01ZM17.5748 31.3582L17.7234 30.3231C17.7366 30.261 17.7597 30.2196 17.7927 30.1989C17.8323 30.1713 17.8785 30.1575 17.9313 30.1575H18.3868V31.0994L17.5748 31.3582ZM17.5748 25.0545L18.3868 25.3132V26.2552H17.9313C17.8785 26.2552 17.8323 26.2448 17.7927 26.2241C17.7597 26.1965 17.7366 26.1517 17.7234 26.0896L17.5748 25.0545ZM14.3071 24.4955L14.1982 25.3029L13.4555 25.1373C13.4027 25.1235 13.3631 25.0993 13.3367 25.0648C13.3103 25.0303 13.2971 24.982 13.2971 24.9199V24.4955H14.3071ZM13.2971 31.9172V31.4928C13.2971 31.4307 13.3103 31.3824 13.3367 31.3479C13.3631 31.3065 13.4027 31.2823 13.4555 31.2754L14.1982 31.1098L14.3071 31.9172H13.2971Z" fill="#5FB6C5"></path><path d="M23.5838 31.9172V24.4955H26.2376C26.7591 24.4955 27.2344 24.5852 27.6635 24.7646C28.0992 24.9441 28.4689 25.1959 28.7726 25.5203C29.0828 25.8446 29.3205 26.2345 29.4855 26.6899C29.6506 27.1454 29.7331 27.6526 29.7331 28.2115C29.7331 28.7636 29.6506 29.2673 29.4855 29.7228C29.3205 30.1782 29.0828 30.5681 28.7726 30.8924C28.4689 31.2168 28.0992 31.4686 27.6635 31.6481C27.2344 31.8275 26.7591 31.9172 26.2376 31.9172H23.5838ZM24.5542 31.0994H26.2376C26.7591 31.0994 27.208 30.9821 27.5843 30.7475C27.9606 30.5129 28.2478 30.1817 28.4458 29.7538C28.6504 29.3191 28.7528 28.805 28.7528 28.2115C28.7528 27.6181 28.6504 27.104 28.4458 26.6692C28.2478 26.2345 27.9606 25.8998 27.5843 25.6652C27.208 25.4306 26.7591 25.3132 26.2376 25.3132H24.5542V31.0994ZM22.8708 31.9172V31.4928C22.8708 31.4307 22.8841 31.3824 22.9105 31.3479C22.9369 31.3065 22.9765 31.2823 23.0293 31.2754L23.772 31.1098L23.8809 31.9172H22.8708ZM23.8809 24.4955L23.772 25.3029L23.0293 25.1373C22.9765 25.1235 22.9369 25.0993 22.9105 25.0648C22.8841 25.0303 22.8708 24.982 22.8708 24.9199V24.4955H23.8809Z" fill="#5FB6C5"></path><path d="M38.4792 32C38.2283 32 37.9708 31.9758 37.7068 31.9275C37.4493 31.8861 37.2084 31.8344 36.9839 31.7723C36.7661 31.7102 36.5911 31.655 36.4591 31.6067V30.6854L37.2216 30.8821C37.4922 30.9856 37.72 31.0581 37.9048 31.0995C38.0963 31.1409 38.3141 31.1616 38.5584 31.1616C38.8554 31.1616 39.1096 31.1064 39.3208 30.996C39.5387 30.8855 39.707 30.7303 39.8259 30.5302C39.9447 30.33 40.0041 30.1023 40.0041 29.847C40.0041 29.6055 39.9546 29.4088 39.8556 29.257C39.7565 29.1052 39.6245 28.9844 39.4595 28.8947C39.2944 28.7981 39.1096 28.7187 38.905 28.6566C38.7069 28.5876 38.5023 28.5152 38.291 28.4393C38.0204 28.3426 37.753 28.2219 37.4889 28.077C37.2315 27.9321 37.0202 27.7388 36.8552 27.4973C36.6902 27.2489 36.6076 26.9211 36.6076 26.514C36.6076 26.1068 36.6968 25.7445 36.875 25.4271C37.0598 25.1097 37.3173 24.8613 37.6474 24.6818C37.9774 24.5024 38.3669 24.4127 38.8158 24.4127C39.0997 24.4127 39.4133 24.4507 39.7565 24.5266C40.1064 24.5956 40.4365 24.6991 40.7468 24.8371V25.6031L39.9942 25.4478C39.783 25.3857 39.5717 25.3374 39.3605 25.3029C39.1558 25.2684 38.9743 25.2511 38.8158 25.2511C38.4131 25.2511 38.093 25.3581 37.8553 25.572C37.6177 25.7791 37.4988 26.0482 37.4988 26.3794C37.4988 26.6692 37.5814 26.8935 37.7464 27.0522C37.918 27.2109 38.1326 27.3386 38.39 27.4352C38.6541 27.5318 38.9248 27.6319 39.202 27.7354C39.5123 27.8458 39.7962 27.9769 40.0536 28.1287C40.3111 28.2805 40.5157 28.4807 40.6675 28.7291C40.826 28.9706 40.9052 29.2949 40.9052 29.7021C40.9052 30.1368 40.8062 30.5302 40.6081 30.8821C40.4167 31.2271 40.1394 31.4997 39.7764 31.6998C39.4199 31.8999 38.9875 32 38.4792 32ZM39.9348 25.3443L40.7468 25.6031V26.545H40.2913C40.2385 26.545 40.1922 26.5347 40.1526 26.514C40.1196 26.4864 40.0965 26.4415 40.0833 26.3794L39.9348 25.3443ZM37.2711 30.9442L36.4591 30.6854V29.7435H36.9146C36.9674 29.7435 37.0136 29.7573 37.0532 29.7849C37.0928 29.8056 37.116 29.847 37.1226 29.9091L37.2711 30.9442Z" fill="#5FB6C5"></path><path d="M46.1021 31.9172V24.4955H48.2113C48.779 24.4955 49.2576 24.5852 49.6471 24.7646C50.0432 24.9441 50.3436 25.2063 50.5482 25.5513C50.7529 25.8894 50.8552 26.3035 50.8552 26.7934C50.8552 27.2696 50.7463 27.6836 50.5284 28.0356C50.3172 28.3875 50.0135 28.6601 49.6174 28.8533C49.2213 29.0465 48.7526 29.1431 48.2113 29.1431H47.0725V31.9172H46.1021ZM47.0725 28.3461H48.2113C48.5612 28.3461 48.8615 28.284 49.1124 28.1598C49.3633 28.0287 49.5547 27.8492 49.6867 27.6215C49.8254 27.3869 49.8947 27.1109 49.8947 26.7934C49.8947 26.3242 49.7527 25.9585 49.4689 25.6962C49.1916 25.4271 48.7724 25.2925 48.2113 25.2925H47.0725V28.3461ZM45.3892 31.9172V31.4928C45.3892 31.4307 45.4024 31.3824 45.4288 31.3479C45.4552 31.3065 45.4948 31.2823 45.5476 31.2754L46.2903 31.1098L46.3992 31.9172H45.3892ZM46.3992 24.4955L46.2903 25.3029L45.5476 25.1373C45.4948 25.1235 45.4552 25.0993 45.4288 25.0648C45.4024 25.0303 45.3892 24.982 45.3892 24.9199V24.4955H46.3992ZM46.7755 31.9172L46.8844 31.1098L47.6271 31.2754C47.6799 31.2823 47.7195 31.3065 47.7459 31.3479C47.7723 31.3824 47.7855 31.4307 47.7855 31.4928V31.9172H46.7755Z" fill="#5FB6C5"></path><path d="M55.6265 31.9172L58.4684 24.4955H59.4388L62.2808 31.9172H61.5381C61.4523 31.9172 61.3829 31.8965 61.3301 31.8551C61.2773 31.8068 61.2377 31.7481 61.2113 31.6791L59.1616 26.1413C59.1285 26.0447 59.0922 25.9412 59.0526 25.8308C59.0196 25.7135 58.9866 25.5858 58.9536 25.4478C58.914 25.5858 58.8777 25.7135 58.8447 25.8308C58.8117 25.9481 58.7787 26.0551 58.7457 26.1517L56.6959 31.6791C56.6761 31.7412 56.6365 31.7964 56.5771 31.8447C56.5243 31.893 56.4549 31.9172 56.3691 31.9172H55.6265ZM56.3592 31.9172V31.2754H56.884V31.9172H56.3592ZM57.2405 29.7228L57.5079 28.9982H60.429L60.6964 29.7228H57.2405ZM61.0529 31.9172V31.2754H61.5777V31.9172H61.0529ZM55.3393 31.9172V31.4928C55.3393 31.4307 55.3525 31.3824 55.3789 31.3479C55.4053 31.3065 55.4449 31.2823 55.4977 31.2754L56.2404 31.1098L56.3493 31.9172H55.3393ZM56.3988 31.9172L56.5078 31.1098L57.2504 31.2754C57.3032 31.2823 57.3428 31.3065 57.3693 31.3479C57.3957 31.3824 57.4089 31.4307 57.4089 31.4928V31.9172H56.3988ZM60.4984 31.9172V31.4928C60.4984 31.4307 60.5116 31.3824 60.538 31.3479C60.5644 31.3065 60.604 31.2823 60.6568 31.2754L61.3995 31.1098L61.5084 31.9172H60.4984ZM61.5579 31.9172L61.6668 31.1098L62.4095 31.2754C62.4623 31.2823 62.5019 31.3065 62.5283 31.3479C62.5547 31.3824 62.5679 31.4307 62.5679 31.4928V31.9172H61.5579Z" fill="#5FB6C5"></path><path d="M75.1595 32C74.7964 32 74.4498 31.9137 74.1198 31.7412C73.7963 31.5687 73.5322 31.3306 73.3276 31.027C73.1295 30.7165 73.0305 30.3542 73.0305 29.9402C73.0305 29.6158 73.0965 29.3156 73.2286 29.0396C73.3672 28.7636 73.552 28.5186 73.7831 28.3047C74.0207 28.0908 74.2848 27.9183 74.5753 27.7871C74.3772 27.5249 74.2287 27.2696 74.1297 27.0212C74.0372 26.7658 73.991 26.5036 73.991 26.2345C73.991 25.8826 74.0702 25.572 74.2287 25.3029C74.3871 25.0269 74.6083 24.8095 74.8921 24.6508C75.176 24.4921 75.5094 24.4127 75.8923 24.4127C76.2223 24.4127 76.5194 24.4852 76.7835 24.6301C77.0475 24.775 77.2588 24.9682 77.4172 25.2097C77.5822 25.4444 77.6747 25.7066 77.6945 25.9964L77.1003 26.1206C77.0541 26.1275 77.0112 26.1172 76.9716 26.0896C76.9386 26.062 76.9122 26.0171 76.8924 25.955C76.866 25.817 76.8066 25.6859 76.7141 25.5617C76.6283 25.4375 76.5161 25.3374 76.3775 25.2615C76.2388 25.1787 76.0771 25.1373 75.8923 25.1373C75.5754 25.1373 75.3146 25.2408 75.11 25.4478C74.9119 25.6479 74.8129 25.9067 74.8129 26.2241C74.8129 26.4588 74.8756 26.6934 75.0011 26.928C75.1265 27.1626 75.3014 27.3973 75.5259 27.6319L77.5657 29.7952C77.6912 29.5675 77.7902 29.326 77.8628 29.0707C77.9354 28.8153 77.9849 28.56 78.0113 28.3047C78.0179 28.2426 78.0377 28.1943 78.0707 28.1598C78.1038 28.1184 78.15 28.0977 78.2094 28.0977H78.754C78.7474 28.491 78.6847 28.8809 78.5659 29.2673C78.4536 29.6469 78.2886 30.0057 78.0707 30.3438L79.5561 31.9172H78.7045C78.6121 31.9172 78.5362 31.9068 78.4767 31.8861C78.4173 31.8585 78.3513 31.8068 78.2787 31.7309L77.5657 30.9752C77.2555 31.2927 76.8957 31.5446 76.4864 31.7309C76.0837 31.9103 75.6414 32 75.1595 32ZM75.308 31.2444C75.6777 31.2444 76.0078 31.1754 76.2982 31.0374C76.5953 30.8924 76.8561 30.7027 77.0805 30.4681L74.9813 28.2633C74.7502 28.3875 74.5555 28.5359 74.397 28.7084C74.2386 28.874 74.1198 29.0534 74.0405 29.2466C73.9679 29.4399 73.9316 29.6469 73.9316 29.8677C73.9316 30.1506 73.9943 30.3956 74.1198 30.6026C74.2518 30.8096 74.4234 30.9684 74.6347 31.0788C74.8459 31.1892 75.0704 31.2444 75.308 31.2444Z" fill="#5FB6C5"></path><path d="M90.7318 31.9172V24.4955H91.7022V31.0684H94.9997V31.9172H90.7318ZM94.1877 31.3272L94.3362 30.2921C94.3494 30.23 94.3725 30.1886 94.4055 30.1679C94.4452 30.1403 94.4914 30.1265 94.5442 30.1265H94.9997V31.0684L94.1877 31.3272ZM90.0189 31.9172V31.4928C90.0189 31.4307 90.0321 31.3824 90.0585 31.3479C90.0849 31.3065 90.1245 31.2823 90.1773 31.2754L90.92 31.1098L91.0289 31.9172H90.0189ZM91.0289 24.4955L90.92 25.3029L90.1773 25.1373C90.1245 25.1235 90.0849 25.0993 90.0585 25.0648C90.0321 25.0303 90.0189 24.982 90.0189 24.9199V24.4955H91.0289ZM92.4251 24.4955V24.9199C92.4251 24.982 92.4119 25.0303 92.3855 25.0648C92.3591 25.0993 92.3195 25.1235 92.2667 25.1373L91.524 25.3029L91.4151 24.4955H92.4251Z" fill="#5FB6C5"></path><path d="M99.7709 31.9172L102.613 24.4955H103.583L106.425 31.9172H105.682C105.597 31.9172 105.527 31.8965 105.475 31.8551C105.422 31.8068 105.382 31.7481 105.356 31.6791L103.306 26.1413C103.273 26.0447 103.237 25.9412 103.197 25.8308C103.164 25.7135 103.131 25.5858 103.098 25.4478C103.058 25.5858 103.022 25.7135 102.989 25.8308C102.956 25.9481 102.923 26.0551 102.89 26.1517L100.84 31.6791C100.821 31.7412 100.781 31.7964 100.721 31.8447C100.669 31.893 100.599 31.9172 100.514 31.9172H99.7709ZM100.504 31.9172V31.2754H101.028V31.9172H100.504ZM101.385 29.7228L101.652 28.9982H104.573L104.841 29.7228H101.385ZM105.197 31.9172V31.2754H105.722V31.9172H105.197ZM99.4837 31.9172V31.4928C99.4837 31.4307 99.4969 31.3824 99.5233 31.3479C99.5497 31.3065 99.5893 31.2823 99.6421 31.2754L100.385 31.1098L100.494 31.9172H99.4837ZM100.543 31.9172L100.652 31.1098L101.395 31.2754C101.448 31.2823 101.487 31.3065 101.514 31.3479C101.54 31.3824 101.553 31.4307 101.553 31.4928V31.9172H100.543ZM104.643 31.9172V31.4928C104.643 31.4307 104.656 31.3824 104.682 31.3479C104.709 31.3065 104.748 31.2823 104.801 31.2754L105.544 31.1098L105.653 31.9172H104.643ZM105.702 31.9172L105.811 31.1098L106.554 31.2754C106.607 31.2823 106.646 31.3065 106.673 31.3479C106.699 31.3824 106.712 31.4307 106.712 31.4928V31.9172H105.702Z" fill="#5FB6C5"></path><path d="M113.216 32C112.966 32 112.708 31.9758 112.444 31.9275C112.187 31.8861 111.946 31.8344 111.721 31.7723C111.503 31.7102 111.328 31.655 111.196 31.6067V30.6854L111.959 30.8821C112.23 30.9856 112.457 31.0581 112.642 31.0995C112.834 31.1409 113.051 31.1616 113.296 31.1616C113.593 31.1616 113.847 31.1064 114.058 30.996C114.276 30.8855 114.444 30.7303 114.563 30.5302C114.682 30.33 114.741 30.1023 114.741 29.847C114.741 29.6055 114.692 29.4088 114.593 29.257C114.494 29.1052 114.362 28.9844 114.197 28.8947C114.032 28.7981 113.847 28.7187 113.642 28.6566C113.444 28.5876 113.24 28.5152 113.028 28.4393C112.758 28.3426 112.49 28.2219 112.226 28.077C111.969 27.9321 111.758 27.7388 111.592 27.4973C111.427 27.2489 111.345 26.9211 111.345 26.514C111.345 26.1068 111.434 25.7445 111.612 25.4271C111.797 25.1097 112.055 24.8613 112.385 24.6818C112.715 24.5024 113.104 24.4127 113.553 24.4127C113.837 24.4127 114.151 24.4507 114.494 24.5266C114.844 24.5956 115.174 24.6991 115.484 24.8371V25.6031L114.732 25.4478C114.52 25.3857 114.309 25.3374 114.098 25.3029C113.893 25.2684 113.712 25.2511 113.553 25.2511C113.15 25.2511 112.83 25.3581 112.593 25.572C112.355 25.7791 112.236 26.0482 112.236 26.3794C112.236 26.6692 112.319 26.8935 112.484 27.0522C112.655 27.2109 112.87 27.3386 113.127 27.4352C113.391 27.5318 113.662 27.6319 113.939 27.7354C114.25 27.8458 114.533 27.9769 114.791 28.1287C115.048 28.2805 115.253 28.4807 115.405 28.7291C115.563 28.9706 115.643 29.2949 115.643 29.7021C115.643 30.1368 115.543 30.5302 115.345 30.8821C115.154 31.2271 114.877 31.4997 114.514 31.6998C114.157 31.8999 113.725 32 113.216 32ZM114.672 25.3443L115.484 25.6031V26.545H115.029C114.976 26.545 114.93 26.5347 114.89 26.514C114.857 26.4864 114.834 26.4415 114.821 26.3794L114.672 25.3443ZM112.008 30.9442L111.196 30.6854V29.7435H111.652C111.705 29.7435 111.751 29.7573 111.791 29.7849C111.83 29.8056 111.853 29.847 111.86 29.9091L112.008 30.9442Z" fill="#5FB6C5"></path><path d="M120.839 31.9172V24.4955H125.216V25.3132H121.81V27.7871H124.424V28.5738H121.81V31.0994H125.216V31.9172H120.839ZM124.404 31.3582L124.553 30.3231C124.566 30.261 124.589 30.2196 124.622 30.1989C124.662 30.1713 124.708 30.1575 124.761 30.1575H125.216V31.0994L124.404 31.3582ZM124.404 25.0545L125.216 25.3132V26.2552H124.761C124.708 26.2552 124.662 26.2448 124.622 26.2241C124.589 26.1965 124.566 26.1517 124.553 26.0896L124.404 25.0545ZM121.136 24.4955L121.028 25.3029L120.285 25.1373C120.232 25.1235 120.192 25.0993 120.166 25.0648C120.14 25.0303 120.126 24.982 120.126 24.9199V24.4955H121.136ZM120.126 31.9172V31.4928C120.126 31.4307 120.14 31.3824 120.166 31.3479C120.192 31.3065 120.232 31.2823 120.285 31.2754L121.028 31.1098L121.136 31.9172H120.126Z" fill="#5FB6C5"></path><path d="M130.413 31.9172V24.4955H132.433C132.994 24.4955 133.466 24.5749 133.849 24.7336C134.232 24.8854 134.523 25.1131 134.721 25.4168C134.925 25.7204 135.028 26.0999 135.028 26.5554C135.028 26.9142 134.955 27.2351 134.81 27.518C134.671 27.8009 134.47 28.039 134.206 28.2322C133.948 28.4254 133.641 28.5669 133.285 28.6566C133.39 28.7187 133.496 28.8222 133.602 28.9671L135.671 31.9172H134.82C134.641 31.9172 134.513 31.8447 134.433 31.6998L132.592 29.05C132.532 28.9671 132.47 28.9085 132.404 28.874C132.337 28.8395 132.238 28.8222 132.106 28.8222H131.384V31.9172H130.413ZM131.384 28.0873H132.384C132.918 28.0873 133.338 27.9596 133.641 27.7043C133.945 27.449 134.097 27.0902 134.097 26.6278C134.097 26.1862 133.955 25.8549 133.671 25.6341C133.394 25.4064 132.981 25.2925 132.433 25.2925H131.384V28.0873ZM134.839 31.9172L134.364 30.9752L134.948 31.1098L134.839 31.9172ZM129.7 31.9172V31.4928C129.7 31.4307 129.713 31.3824 129.74 31.3479C129.766 31.3065 129.806 31.2823 129.859 31.2754L130.601 31.1098L130.71 31.9172H129.7ZM130.71 24.4955L130.601 25.3029L129.859 25.1373C129.806 25.1235 129.766 25.0993 129.74 25.0648C129.713 25.0303 129.7 24.982 129.7 24.9199V24.4955H130.71ZM131.087 31.9172L131.195 31.1098L131.938 31.2754C131.991 31.2823 132.031 31.3065 132.057 31.3479C132.083 31.3824 132.097 31.4307 132.097 31.4928V31.9172H131.087ZM134.839 31.9172L134.948 31.1098L135.691 31.2754C135.744 31.2823 135.783 31.3065 135.81 31.3479C135.836 31.3824 135.849 31.4307 135.849 31.4928V31.9172H134.839Z" fill="#5FB6C5"></path><path d="M146.002 32C145.474 32 144.992 31.9068 144.556 31.7205C144.127 31.5273 143.757 31.2478 143.447 30.8821C143.15 30.5233 142.929 30.1161 142.784 29.6607C142.645 29.1983 142.576 28.7222 142.576 28.2322C142.576 27.6595 142.661 27.1419 142.833 26.6796C143.011 26.2103 143.256 25.8101 143.566 25.4789C143.883 25.1407 144.256 24.8785 144.685 24.6922C145.12 24.5059 145.592 24.4127 146.101 24.4127C146.371 24.4127 146.629 24.4369 146.873 24.4852C147.124 24.5335 147.372 24.599 147.616 24.6818C147.86 24.7647 148.108 24.8578 148.358 24.9613V25.7169L147.665 25.5824C147.461 25.5065 147.233 25.4375 146.982 25.3754C146.731 25.3133 146.461 25.2822 146.17 25.2822C145.642 25.2822 145.18 25.4064 144.784 25.6548C144.394 25.8964 144.091 26.2379 143.873 26.6796C143.662 27.1212 143.556 27.6388 143.556 28.2322C143.556 28.7774 143.652 29.2708 143.843 29.7124C144.034 30.1472 144.322 30.4922 144.705 30.7475C145.094 31.0029 145.573 31.1305 146.14 31.1305C146.457 31.1305 146.751 31.0822 147.022 30.9856C147.299 30.8821 147.57 30.7061 147.834 30.4577C147.867 30.4301 147.896 30.4128 147.923 30.4059C147.949 30.3921 147.976 30.3852 148.002 30.3852C148.055 30.3852 148.101 30.4059 148.141 30.4473L148.517 30.8821C148.253 31.1995 147.913 31.4652 147.497 31.6791C147.088 31.893 146.589 32 146.002 32ZM147.546 25.4582L148.358 25.7169V26.6589H147.903C147.85 26.6589 147.804 26.6485 147.764 26.6278C147.731 26.6002 147.708 26.5554 147.695 26.4933L147.546 25.4582Z" fill="#5FB6C5"></path><path d="M153.714 31.9172V24.4955H158.091V25.3132H154.684V27.7871H157.298V28.5738H154.684V31.0994H158.091V31.9172H153.714ZM157.279 31.3582L157.427 30.3231C157.44 30.261 157.464 30.2196 157.497 30.1989C157.536 30.1713 157.582 30.1575 157.635 30.1575H158.091V31.0994L157.279 31.3582ZM157.279 25.0545L158.091 25.3132V26.2552H157.635C157.582 26.2552 157.536 26.2448 157.497 26.2241C157.464 26.1965 157.44 26.1517 157.427 26.0896L157.279 25.0545ZM154.011 24.4955L153.902 25.3029L153.159 25.1373C153.107 25.1235 153.067 25.0993 153.041 25.0648C153.014 25.0303 153.001 24.982 153.001 24.9199V24.4955H154.011ZM153.001 31.9172V31.4928C153.001 31.4307 153.014 31.3824 153.041 31.3479C153.067 31.3065 153.107 31.2823 153.159 31.2754L153.902 31.1098L154.011 31.9172H153.001Z" fill="#5FB6C5"></path><path d="M163.288 31.9172V24.4955H163.783C163.869 24.4955 163.935 24.5059 163.981 24.5266C164.027 24.5473 164.073 24.5956 164.119 24.6715L168.229 30.261C168.216 30.1713 168.206 30.0851 168.199 30.0022C168.199 29.9125 168.199 29.8297 168.199 29.7538V24.4955H169.041V31.9172H168.556C168.483 31.9172 168.42 31.9034 168.368 31.8758C168.321 31.8482 168.272 31.7999 168.219 31.7309L164.11 26.1517C164.116 26.2345 164.119 26.3173 164.119 26.4001C164.126 26.4829 164.129 26.5588 164.129 26.6278V31.9172H163.288ZM162.575 31.9172V31.4928C162.575 31.4307 162.588 31.3824 162.614 31.3479C162.641 31.3065 162.68 31.2823 162.733 31.2754L163.476 31.1098L163.585 31.9172H162.575ZM163.931 31.9172L164.04 31.1098L164.783 31.2754C164.836 31.2823 164.875 31.3065 164.902 31.3479C164.928 31.3824 164.941 31.4307 164.941 31.4928V31.9172H163.931ZM163.585 24.4955L163.476 25.3029L162.733 25.1373C162.68 25.1235 162.641 25.0993 162.614 25.0648C162.588 25.0303 162.575 24.982 162.575 24.9199V24.4955H163.585ZM168.397 24.4955L168.288 25.3029L167.546 25.1373C167.493 25.1235 167.453 25.0993 167.427 25.0648C167.4 25.0303 167.387 24.982 167.387 24.9199V24.4955H168.397ZM169.754 24.4955V24.9199C169.754 24.982 169.741 25.0303 169.714 25.0648C169.688 25.0993 169.648 25.1235 169.595 25.1373L168.853 25.3029L168.744 24.4955H169.754Z" fill="#5FB6C5"></path><path d="M176.545 31.9172V25.3443H174.238V24.4955H179.793V25.3443H177.506V31.9172H176.545ZM175.832 31.9172V31.4928C175.832 31.4307 175.845 31.3824 175.872 31.3479C175.898 31.3065 175.938 31.2823 175.99 31.2754L176.733 31.1098L176.842 31.9172H175.832ZM177.208 31.9172L177.317 31.1098L178.06 31.2754C178.113 31.2823 178.152 31.3065 178.179 31.3479C178.205 31.3824 178.218 31.4307 178.218 31.4928V31.9172H177.208ZM178.981 25.0855L179.793 25.3443V26.2862H179.337C179.285 26.2862 179.238 26.2759 179.199 26.2552C179.166 26.2276 179.143 26.1827 179.129 26.1206L178.981 25.0855ZM175.05 25.0855L174.901 26.1206C174.895 26.1827 174.872 26.2276 174.832 26.2552C174.792 26.2759 174.746 26.2862 174.693 26.2862H174.238V25.3443L175.05 25.0855Z" fill="#5FB6C5"></path><path d="M184.99 31.9172V24.4955H189.367V25.3132H185.96V27.7871H188.575V28.5738H185.96V31.0994H189.367V31.9172H184.99ZM188.555 31.3582L188.703 30.3231C188.716 30.261 188.74 30.2196 188.773 30.1989C188.812 30.1713 188.858 30.1575 188.911 30.1575H189.367V31.0994L188.555 31.3582ZM188.555 25.0545L189.367 25.3132V26.2552H188.911C188.858 26.2552 188.812 26.2448 188.773 26.2241C188.74 26.1965 188.716 26.1517 188.703 26.0896L188.555 25.0545ZM185.287 24.4955L185.178 25.3029L184.435 25.1373C184.383 25.1235 184.343 25.0993 184.317 25.0648C184.29 25.0303 184.277 24.982 184.277 24.9199V24.4955H185.287ZM184.277 31.9172V31.4928C184.277 31.4307 184.29 31.3824 184.317 31.3479C184.343 31.3065 184.383 31.2823 184.435 31.2754L185.178 31.1098L185.287 31.9172H184.277Z" fill="#5FB6C5"></path><path d="M194.564 31.9172V24.4955H196.584C197.145 24.4955 197.617 24.5749 198 24.7336C198.383 24.8854 198.673 25.1131 198.871 25.4168C199.076 25.7204 199.178 26.0999 199.178 26.5554C199.178 26.9142 199.105 27.2351 198.96 27.518C198.822 27.8009 198.62 28.039 198.356 28.2322C198.099 28.4254 197.792 28.5669 197.435 28.6566C197.541 28.7187 197.647 28.8222 197.752 28.9671L199.822 31.9172H198.97C198.792 31.9172 198.663 31.8447 198.584 31.6998L196.742 29.05C196.683 28.9671 196.62 28.9085 196.554 28.874C196.488 28.8395 196.389 28.8222 196.257 28.8222H195.534V31.9172H194.564ZM195.534 28.0873H196.534C197.069 28.0873 197.488 27.9596 197.792 27.7043C198.095 27.449 198.247 27.0902 198.247 26.6278C198.247 26.1862 198.105 25.8549 197.821 25.6341C197.544 25.4064 197.132 25.2925 196.584 25.2925H195.534V28.0873ZM198.99 31.9172L198.515 30.9752L199.099 31.1098L198.99 31.9172ZM193.851 31.9172V31.4928C193.851 31.4307 193.864 31.3824 193.89 31.3479C193.917 31.3065 193.956 31.2823 194.009 31.2754L194.752 31.1098L194.861 31.9172H193.851ZM194.861 24.4955L194.752 25.3029L194.009 25.1373C193.956 25.1235 193.917 25.0993 193.89 25.0648C193.864 25.0303 193.851 24.982 193.851 24.9199V24.4955H194.861ZM195.237 31.9172L195.346 31.1098L196.089 31.2754C196.141 31.2823 196.181 31.3065 196.207 31.3479C196.234 31.3824 196.247 31.4307 196.247 31.4928V31.9172H195.237ZM198.99 31.9172L199.099 31.1098L199.842 31.2754C199.894 31.2823 199.934 31.3065 199.96 31.3479C199.987 31.3824 200 31.4307 200 31.4928V31.9172H198.99Z" fill="#5FB6C5"></path></svg>