<svg xmlns="http://www.w3.org/2000/svg" width="1070" height="310" viewBox="0 0 1070 310" fill="none"><path d="M438.352 111.737C441.091 105.659 446.966 101.498 453.27 99.6599C465.606 96.0626 481.675 100.517 497.169 109.775C498.229 110.407 499.278 111.06 500.326 111.737H515.91C509.551 106.708 499.379 99.6716 487.133 94.7997C483.412 93.3112 479.51 92.0374 475.451 91.0678C451.545 85.3728 436.141 97.7885 431.506 111.737H438.352ZM547.834 111.737C549.086 111.263 550.382 110.835 551.724 110.497C554.081 109.91 556.02 109.583 557.633 109.392C556.663 110.17 555.671 110.947 554.678 111.737H570.589C570.837 111.557 571.074 111.388 571.334 111.196C583.028 102.772 593.582 99.2319 602.524 98.555C611.41 97.8788 618.683 100.044 623.871 103.043C627.998 105.422 630.591 108.512 632.215 111.737H638.586C638.169 109.775 637.493 107.801 636.477 105.896C628.787 91.5635 610.181 88.4401 599.073 90.0298C583.67 92.2288 573.092 97.9574 562.854 105.423C562.73 105.366 562.651 105.332 562.651 105.332C562.651 105.332 559.076 102.321 554.442 102.017C547.045 101.51 539.456 105.185 535.374 108.219C533.715 109.448 532.171 110.632 530.75 111.737H547.834Z" fill="white"></path><path d="M445.455 51.0815C438.666 64.6131 450.022 73.1608 448.905 71.3905C447.18 68.6842 444.361 59.956 452.841 49.7734C462.256 38.4517 476.769 41.3051 477.412 41.4288C470.703 36.0504 453.168 35.7003 445.455 51.0815ZM621.096 17.4439C622.821 20.1502 625.628 28.8784 617.16 39.061C607.745 50.3827 593.22 47.5293 592.577 47.4056C599.298 52.7731 616.833 53.1342 624.546 37.753C631.323 24.2214 619.979 15.6736 621.096 17.4439ZM445.455 51.0815C438.666 64.6131 450.022 73.1608 448.905 71.3905C447.18 68.6842 444.361 59.956 452.841 49.7734C462.256 38.4517 476.769 41.3051 477.412 41.4288C470.703 36.0504 453.168 35.7003 445.455 51.0815ZM621.096 17.4439C622.821 20.1502 625.628 28.8784 617.16 39.061C607.745 50.3827 593.22 47.5293 592.577 47.4056C599.298 52.7731 616.833 53.1342 624.546 37.753C631.323 24.2214 619.979 15.6736 621.096 17.4439ZM445.455 51.0815C438.666 64.6131 450.022 73.1608 448.905 71.3905C447.18 68.6842 444.361 59.956 452.841 49.7734C462.256 38.4517 476.769 41.3051 477.412 41.4288C470.703 36.0504 453.168 35.7003 445.455 51.0815ZM621.096 17.4439C622.821 20.1502 625.628 28.8784 617.16 39.061C607.745 50.3827 593.22 47.5293 592.577 47.4056C599.298 52.7731 616.833 53.1342 624.546 37.753C631.323 24.2214 619.979 15.6736 621.096 17.4439ZM445.455 51.0815C438.666 64.6131 450.022 73.1608 448.905 71.3905C447.18 68.6842 444.361 59.956 452.841 49.7734C462.256 38.4517 476.769 41.3051 477.412 41.4288C470.703 36.0504 453.168 35.7003 445.455 51.0815ZM621.096 17.4439C622.821 20.1502 625.628 28.8784 617.16 39.061C607.745 50.3827 593.22 47.5293 592.577 47.4056C599.298 52.7731 616.833 53.1342 624.546 37.753C631.323 24.2214 619.979 15.6736 621.096 17.4439ZM445.455 51.0815C438.666 64.6131 450.022 73.1608 448.905 71.3905C447.18 68.6842 444.361 59.956 452.841 49.7734C462.256 38.4517 476.769 41.3051 477.412 41.4288C470.703 36.0504 453.168 35.7003 445.455 51.0815ZM621.096 17.4439C622.821 20.1502 625.628 28.8784 617.16 39.061C607.745 50.3827 593.22 47.5293 592.577 47.4056C599.298 52.7731 616.833 53.1342 624.546 37.753C631.323 24.2214 619.979 15.6736 621.096 17.4439ZM445.455 51.0815C438.666 64.6131 450.022 73.1608 448.905 71.3905C447.18 68.6842 444.361 59.956 452.841 49.7734C462.256 38.4517 476.769 41.3051 477.412 41.4288C470.703 36.0504 453.168 35.7003 445.455 51.0815ZM621.096 17.4439C622.821 20.1502 625.628 28.8784 617.16 39.061C607.745 50.3827 593.22 47.5293 592.577 47.4056C599.298 52.7731 616.833 53.1342 624.546 37.753C631.323 24.2214 619.979 15.6736 621.096 17.4439ZM445.455 51.0815C438.666 64.6131 450.022 73.1608 448.905 71.3905C447.18 68.6842 444.361 59.956 452.841 49.7734C462.256 38.4517 476.769 41.3051 477.412 41.4288C470.703 36.0504 453.168 35.7003 445.455 51.0815ZM621.096 17.4439C622.821 20.1502 625.628 28.8784 617.16 39.061C607.745 50.3827 593.22 47.5293 592.577 47.4056C599.298 52.7731 616.833 53.1342 624.546 37.753C631.323 24.2214 619.979 15.6736 621.096 17.4439ZM445.455 51.0815C438.666 64.6131 450.022 73.1608 448.905 71.3905C447.18 68.6842 444.361 59.956 452.841 49.7734C462.256 38.4517 476.769 41.3051 477.412 41.4288C470.703 36.0504 453.168 35.7003 445.455 51.0815ZM621.096 17.4439C622.821 20.1502 625.628 28.8784 617.16 39.061C607.745 50.3827 593.22 47.5293 592.577 47.4056C599.298 52.7731 616.833 53.1342 624.546 37.753C631.323 24.2214 619.979 15.6736 621.096 17.4439ZM445.455 51.0815C438.666 64.6131 450.022 73.1608 448.905 71.3905C447.18 68.6842 444.361 59.956 452.841 49.7734C462.256 38.4517 476.769 41.3051 477.412 41.4288C470.703 36.0504 453.168 35.7003 445.455 51.0815ZM621.096 17.4439C622.821 20.1502 625.628 28.8784 617.16 39.061C607.745 50.3827 593.22 47.5293 592.577 47.4056C599.298 52.7731 616.833 53.1342 624.546 37.753C631.323 24.2214 619.979 15.6736 621.096 17.4439ZM445.455 51.0815C438.666 64.6131 450.022 73.1608 448.905 71.3905C447.18 68.6842 444.361 59.956 452.841 49.7734C462.256 38.4517 476.769 41.3051 477.412 41.4288C470.703 36.0504 453.168 35.7003 445.455 51.0815ZM621.096 17.4439C622.821 20.1502 625.628 28.8784 617.16 39.061C607.745 50.3827 593.22 47.5293 592.577 47.4056C599.298 52.7731 616.833 53.1342 624.546 37.753C631.323 24.2214 619.979 15.6736 621.096 17.4439ZM445.455 51.0815C438.666 64.6131 450.022 73.1608 448.905 71.3905C447.18 68.6842 444.361 59.956 452.841 49.7734C462.256 38.4517 476.769 41.3051 477.412 41.4288C470.703 36.0504 453.168 35.7003 445.455 51.0815ZM621.096 17.4439C622.821 20.1502 625.628 28.8784 617.16 39.061C607.745 50.3827 593.22 47.5293 592.577 47.4056C599.298 52.7731 616.833 53.1342 624.546 37.753C631.323 24.2214 619.979 15.6736 621.096 17.4439ZM635.428 48.2172C635.416 48.2289 635.405 48.2397 635.394 48.2623C634.977 48.8716 634.627 50.1905 634.763 52.9762C635.044 58.9973 634.278 69.4281 623.881 75.4384C618.694 78.438 611.42 80.6028 602.534 79.9266C593.592 79.2496 583.038 75.7091 571.344 67.2859C554.283 54.9946 546.356 48.7136 543.164 46.075C541.823 44.9584 541.315 44.4845 541.315 44.4845L542.894 43.2893L545.758 41.1129L546.558 40.5044C546.592 40.527 546.615 40.5604 546.649 40.5947C546.705 40.6507 546.761 40.7075 546.807 40.7635C548.16 42.0941 554.903 48.702 561.196 53.7995C574.761 64.771 592.949 69.9471 609.831 65.7631C632.406 60.1591 640.648 43.7181 639.961 29.6675C639.149 13.193 622.765 -5.31162 594.551 1.42072C590.356 2.42372 586.308 3.76601 582.474 5.31059C562.402 13.407 547.991 27.221 546.954 28.2357C546.919 28.2692 546.897 28.2917 546.897 28.2917C546.897 28.2917 541.642 23.7926 534.617 18.5714C530.535 15.5383 522.946 11.8624 515.548 12.358C510.903 12.674 507.339 15.6853 507.339 15.6853C507.339 15.6853 507.261 15.7188 507.125 15.7865C496.886 8.31024 486.32 2.58169 470.917 0.371811C459.81 -1.20701 441.203 1.90549 433.513 16.2487C432.126 18.8422 431.37 21.5602 431.043 24.1988V24.2097C429.95 33.0391 433.536 41.0452 433.536 41.0452C433.536 41.0452 435.52 41.8801 435.238 35.8582C434.956 29.8371 435.723 19.4063 446.12 13.3961C451.476 10.2945 459.065 8.09627 468.357 8.98645C468.368 8.97556 468.368 8.98645 468.379 8.98645C477.13 9.83227 487.358 13.4186 498.657 21.5485C515.695 33.8289 523.622 40.1099 526.825 42.7594C528.178 43.876 528.685 44.3499 528.685 44.3499L527.107 45.5451L524.299 47.6764L523.442 48.33L523.351 48.2398C522.495 47.383 515.402 40.369 508.794 35.035C495.24 24.0634 477.04 18.8873 460.17 23.0713C437.595 28.6753 429.352 45.1164 430.039 59.1553C430.852 75.6414 447.225 94.1344 475.438 87.4137C479.498 86.4441 483.399 85.1704 487.121 83.6818C507.238 75.6757 521.751 61.8507 523.002 60.633C523.059 60.5762 523.092 60.5427 523.092 60.5427C523.092 60.5427 528.359 65.0418 535.384 70.263C539.466 73.2962 547.055 76.972 554.452 76.4647C559.087 76.1605 562.662 73.1491 562.662 73.1491C562.662 73.1491 562.74 73.1156 562.864 73.0588C573.103 80.5242 583.68 86.2527 599.084 88.4517C610.191 90.0414 628.798 86.918 636.488 72.5857C637.864 70.0148 638.619 67.3194 638.946 64.7033C638.946 64.6924 638.946 64.6924 638.946 64.6924C640.062 55.8405 636.465 47.7884 636.465 47.7884C636.465 47.7884 635.913 47.5636 635.428 48.2172ZM572.415 20.3759H572.426C588.044 10.9489 604.283 6.38206 616.731 10.0128C626.463 12.8545 635.168 21.2108 632.925 33.6484C630.681 46.075 618.513 59.4938 596.772 57.9827C576.182 56.5509 565.988 45.8602 560.361 40.7978C555.952 36.8285 554.215 35.2272 553.663 34.7198C553.505 34.5728 553.449 34.5167 553.449 34.5167C559.447 29.115 565.875 24.3116 572.415 20.3759ZM497.168 68.7068C481.674 77.9641 465.605 82.4189 453.269 78.8216C443.527 75.9799 434.832 67.6236 437.076 55.1861C439.309 42.7594 451.488 29.3406 473.217 30.8518C493.819 32.2726 504.013 42.9742 509.64 48.0367C515.267 53.089 516.552 54.3177 516.552 54.3177C516.541 54.3294 516.541 54.3294 516.53 54.3403C510.407 59.8432 503.844 64.7259 497.168 68.7068ZM515.548 22.2706C514.477 21.4131 513.417 20.5673 512.357 19.7448C513.97 19.9362 515.909 20.263 518.266 20.8498C529.994 23.7592 538.925 33.1745 539.77 34.088C539.815 34.144 539.838 34.1666 539.838 34.1666L536.985 36.0504L534.989 37.3693C529.813 33.4561 523.036 28.2357 515.548 22.2706ZM551.723 67.9847C539.387 64.929 530.162 54.6671 530.162 54.6671L530.185 54.6562L533.083 52.7389L535.023 51.4534C540.199 55.3892 546.987 60.6104 554.452 66.5638C555.523 67.4213 556.584 68.2555 557.632 69.0896C556.019 68.8982 554.08 68.5714 551.723 67.9847ZM624.546 37.753C631.323 24.2214 619.979 15.6736 621.096 17.4439C622.821 20.1502 625.628 28.8784 617.16 39.061C607.745 50.3827 593.22 47.5293 592.577 47.4056C599.298 52.7731 616.833 53.1342 624.546 37.753ZM445.455 51.0815C438.666 64.6131 450.022 73.1608 448.905 71.3905C447.18 68.6842 444.361 59.956 452.841 49.7734C462.256 38.4517 476.769 41.3051 477.412 41.4288C470.703 36.0504 453.168 35.7003 445.455 51.0815ZM621.096 17.4439C622.821 20.1502 625.628 28.8784 617.16 39.061C607.745 50.3827 593.22 47.5293 592.577 47.4056C599.298 52.7731 616.833 53.1342 624.546 37.753C631.323 24.2214 619.979 15.6736 621.096 17.4439ZM445.455 51.0815C438.666 64.6131 450.022 73.1608 448.905 71.3905C447.18 68.6842 444.361 59.956 452.841 49.7734C462.256 38.4517 476.769 41.3051 477.412 41.4288C470.703 36.0504 453.168 35.7003 445.455 51.0815ZM621.096 17.4439C622.821 20.1502 625.628 28.8784 617.16 39.061C607.745 50.3827 593.22 47.5293 592.577 47.4056C599.298 52.7731 616.833 53.1342 624.546 37.753C631.323 24.2214 619.979 15.6736 621.096 17.4439ZM445.455 51.0815C438.666 64.6131 450.022 73.1608 448.905 71.3905C447.18 68.6842 444.361 59.956 452.841 49.7734C462.256 38.4517 476.769 41.3051 477.412 41.4288C470.703 36.0504 453.168 35.7003 445.455 51.0815ZM621.096 17.4439C622.821 20.1502 625.628 28.8784 617.16 39.061C607.745 50.3827 593.22 47.5293 592.577 47.4056C599.298 52.7731 616.833 53.1342 624.546 37.753C631.323 24.2214 619.979 15.6736 621.096 17.4439ZM445.455 51.0815C438.666 64.6131 450.022 73.1608 448.905 71.3905C447.18 68.6842 444.361 59.956 452.841 49.7734C462.256 38.4517 476.769 41.3051 477.412 41.4288C470.703 36.0504 453.168 35.7003 445.455 51.0815ZM621.096 17.4439C622.821 20.1502 625.628 28.8784 617.16 39.061C607.745 50.3827 593.22 47.5293 592.577 47.4056C599.298 52.7731 616.833 53.1342 624.546 37.753C631.323 24.2214 619.979 15.6736 621.096 17.4439ZM445.455 51.0815C438.666 64.6131 450.022 73.1608 448.905 71.3905C447.18 68.6842 444.361 59.956 452.841 49.7734C462.256 38.4517 476.769 41.3051 477.412 41.4288C470.703 36.0504 453.168 35.7003 445.455 51.0815ZM621.096 17.4439C622.821 20.1502 625.628 28.8784 617.16 39.061C607.745 50.3827 593.22 47.5293 592.577 47.4056C599.298 52.7731 616.833 53.1342 624.546 37.753C631.323 24.2214 619.979 15.6736 621.096 17.4439ZM445.455 51.0815C438.666 64.6131 450.022 73.1608 448.905 71.3905C447.18 68.6842 444.361 59.956 452.841 49.7734C462.256 38.4517 476.769 41.3051 477.412 41.4288C470.703 36.0504 453.168 35.7003 445.455 51.0815ZM621.096 17.4439C622.821 20.1502 625.628 28.8784 617.16 39.061C607.745 50.3827 593.22 47.5293 592.577 47.4056C599.298 52.7731 616.833 53.1342 624.546 37.753C631.323 24.2214 619.979 15.6736 621.096 17.4439ZM445.455 51.0815C438.666 64.6131 450.022 73.1608 448.905 71.3905C447.18 68.6842 444.361 59.956 452.841 49.7734C462.256 38.4517 476.769 41.3051 477.412 41.4288C470.703 36.0504 453.168 35.7003 445.455 51.0815ZM621.096 17.4439C622.821 20.1502 625.628 28.8784 617.16 39.061C607.745 50.3827 593.22 47.5293 592.577 47.4056C599.298 52.7731 616.833 53.1342 624.546 37.753C631.323 24.2214 619.979 15.6736 621.096 17.4439ZM445.455 51.0815C438.666 64.6131 450.022 73.1608 448.905 71.3905C447.18 68.6842 444.361 59.956 452.841 49.7734C462.256 38.4517 476.769 41.3051 477.412 41.4288C470.703 36.0504 453.168 35.7003 445.455 51.0815ZM621.096 17.4439C622.821 20.1502 625.628 28.8784 617.16 39.061C607.745 50.3827 593.22 47.5293 592.577 47.4056C599.298 52.7731 616.833 53.1342 624.546 37.753C631.323 24.2214 619.979 15.6736 621.096 17.4439ZM445.455 51.0815C438.666 64.6131 450.022 73.1608 448.905 71.3905C447.18 68.6842 444.361 59.956 452.841 49.7734C462.256 38.4517 476.769 41.3051 477.412 41.4288C470.703 36.0504 453.168 35.7003 445.455 51.0815ZM621.096 17.4439C622.821 20.1502 625.628 28.8784 617.16 39.061C607.745 50.3827 593.22 47.5293 592.577 47.4056C599.298 52.7731 616.833 53.1342 624.546 37.753C631.323 24.2214 619.979 15.6736 621.096 17.4439ZM445.455 51.0815C438.666 64.6131 450.022 73.1608 448.905 71.3905C447.18 68.6842 444.361 59.956 452.841 49.7734C462.256 38.4517 476.769 41.3051 477.412 41.4288C470.703 36.0504 453.168 35.7003 445.455 51.0815ZM621.096 17.4439C622.821 20.1502 625.628 28.8784 617.16 39.061C607.745 50.3827 593.22 47.5293 592.577 47.4056C599.298 52.7731 616.833 53.1342 624.546 37.753C631.323 24.2214 619.979 15.6736 621.096 17.4439ZM445.455 51.0815C438.666 64.6131 450.022 73.1608 448.905 71.3905C447.18 68.6842 444.361 59.956 452.841 49.7734C462.256 38.4517 476.769 41.3051 477.412 41.4288C470.703 36.0504 453.168 35.7003 445.455 51.0815ZM621.096 17.4439C622.821 20.1502 625.628 28.8784 617.16 39.061C607.745 50.3827 593.22 47.5293 592.577 47.4056C599.298 52.7731 616.833 53.1342 624.546 37.753C631.323 24.2214 619.979 15.6736 621.096 17.4439ZM445.455 51.0815C438.666 64.6131 450.022 73.1608 448.905 71.3905C447.18 68.6842 444.361 59.956 452.841 49.7734C462.256 38.4517 476.769 41.3051 477.412 41.4288C470.703 36.0504 453.168 35.7003 445.455 51.0815Z" fill="white"></path><path d="M638.947 64.6925C638.947 64.6925 638.947 64.6925 638.947 64.7034C636.725 69.9021 632.485 75.6415 624.456 79.2613C617.476 82.4073 608.895 81.4487 602.535 79.9266C611.421 80.6036 618.694 78.4381 623.881 75.4384C634.278 69.4282 635.044 58.9974 634.763 52.9763C634.627 50.1906 634.977 48.8716 635.395 48.2624C635.405 48.2398 635.417 48.2289 635.428 48.2172C635.913 47.5636 636.465 47.7893 636.465 47.7893C636.465 47.7893 640.063 55.8405 638.947 64.6925ZM523.443 48.3301C527.513 52.8183 529.746 54.3629 530.186 54.6562L533.084 52.7397L524.299 47.6764L523.443 48.3301ZM539.771 34.088C539.816 34.1449 539.838 34.1674 539.838 34.1674L536.985 36.0505L545.758 41.1137L546.559 40.5044C542.545 36.0388 540.29 34.4374 539.771 34.088ZM445.624 9.44948C437.494 13.1145 433.243 18.9442 431.044 24.1988V24.2097C429.95 33.0391 433.536 41.046 433.536 41.046C433.536 41.046 435.521 41.8802 435.239 35.8583C434.956 29.8371 435.724 19.4064 446.12 13.3961C451.477 10.2953 459.066 8.0963 468.358 8.98726C461.941 7.35164 452.909 6.15646 445.624 9.44948Z" fill="white" fill-opacity="0.25"></path><g clip-path="url(#clip0_230_336)"><path d="M168.707 137.578L228.369 201.064V160.285C228.369 157.002 228.331 154.145 228.253 151.712C228.176 149.241 228.06 147.117 227.906 145.34C227.751 143.525 227.558 142.019 227.327 140.822C227.134 139.625 226.921 138.621 226.689 137.81V137.578H237V137.81C236.768 138.621 236.556 139.625 236.363 140.822C236.17 142.019 235.996 143.525 235.842 145.34C235.687 147.117 235.571 149.241 235.494 151.712C235.417 154.145 235.378 157.002 235.378 160.285V221.801H233.351L173.689 158.373V197.994C173.689 201.276 173.727 204.153 173.805 206.624C173.882 209.057 173.998 211.162 174.152 212.938C174.307 214.714 174.48 216.201 174.673 217.398C174.866 218.595 175.079 219.599 175.311 220.41V220.642H165V220.41C165.232 219.599 165.444 218.595 165.637 217.398C165.869 216.201 166.062 214.714 166.216 212.938C166.371 211.162 166.487 209.057 166.564 206.624C166.641 204.153 166.68 201.276 166.68 197.994V160.285C166.68 157.002 166.641 154.145 166.564 151.712C166.487 149.241 166.371 147.117 166.216 145.34C166.062 143.525 165.869 142.019 165.637 140.822C165.444 139.625 165.232 138.621 165 137.81V137.578H168.707Z" fill="white"></path><path d="M314.813 137.017C321.228 137.017 327.144 138.073 332.56 140.186C338.014 142.26 342.719 145.199 346.676 149.001C350.632 152.766 353.724 157.298 355.952 162.599C358.18 167.9 359.294 173.757 359.294 180.172C359.294 183.821 358.871 187.413 358.026 190.947C357.181 194.48 355.933 197.822 354.281 200.972C352.668 204.122 350.671 207.041 348.289 209.73C345.908 212.38 343.18 214.685 340.107 216.644C337.073 218.564 333.712 220.063 330.024 221.138C326.337 222.252 322.361 222.809 318.098 222.809C311.683 222.809 305.748 221.791 300.294 219.755C294.878 217.681 290.192 214.762 286.235 210.997C282.279 207.233 279.187 202.72 276.959 197.457C274.731 192.157 273.617 186.28 273.617 179.827C273.617 176.177 274.04 172.586 274.885 169.052C275.73 165.518 276.959 162.157 278.572 158.969C280.224 155.781 282.221 152.862 284.564 150.211C286.946 147.522 289.654 145.199 292.688 143.24C295.761 141.281 299.142 139.763 302.829 138.688C306.555 137.574 310.55 137.017 314.813 137.017ZM318.098 217.623C322.361 217.623 326.26 216.855 329.794 215.319C333.328 213.782 336.362 211.554 338.897 208.635C341.471 205.716 343.468 202.163 344.89 197.976C346.311 193.751 347.021 188.968 347.021 183.629C347.021 177.714 346.33 172.24 344.947 167.208C343.603 162.138 341.586 157.759 338.897 154.072C336.209 150.346 332.848 147.446 328.814 145.371C324.82 143.259 320.153 142.202 314.813 142.202C310.55 142.202 306.651 142.971 303.117 144.507C299.583 146.005 296.53 148.195 293.956 151.076C291.421 153.956 289.443 157.49 288.021 161.677C286.6 165.864 285.89 170.627 285.89 175.966C285.89 181.843 286.562 187.336 287.906 192.445C289.251 197.515 291.267 201.913 293.956 205.639C296.645 209.365 300.006 212.303 304.039 214.454C308.072 216.567 312.758 217.623 318.098 217.623Z" fill="white"></path><path d="M314.813 137.017C321.228 137.017 327.144 138.073 332.56 140.186C338.014 142.26 342.719 145.199 346.676 149.001C350.632 152.766 353.724 157.298 355.952 162.599C358.18 167.9 359.294 173.757 359.294 180.172C359.294 183.821 358.871 187.413 358.026 190.947C357.181 194.48 355.933 197.822 354.281 200.972C352.668 204.122 350.671 207.041 348.289 209.73C345.908 212.38 343.18 214.685 340.107 216.644C337.073 218.564 333.712 220.063 330.024 221.138C326.337 222.252 322.361 222.809 318.098 222.809C311.683 222.809 305.748 221.791 300.294 219.755C294.878 217.681 290.192 214.762 286.235 210.997C282.279 207.233 279.187 202.72 276.959 197.457C274.731 192.157 273.617 186.28 273.617 179.827C273.617 176.177 274.04 172.586 274.885 169.052C275.73 165.518 276.959 162.157 278.572 158.969C280.224 155.781 282.221 152.862 284.564 150.211C286.946 147.522 289.654 145.199 292.688 143.24C295.761 141.281 299.142 139.763 302.829 138.688C306.555 137.574 310.55 137.017 314.813 137.017ZM318.098 217.623C322.361 217.623 326.26 216.855 329.794 215.319C333.328 213.782 336.362 211.554 338.897 208.635C341.471 205.716 343.468 202.163 344.89 197.976C346.311 193.751 347.021 188.968 347.021 183.629C347.021 177.714 346.33 172.24 344.947 167.208C343.603 162.138 341.586 157.759 338.897 154.072C336.209 150.346 332.848 147.446 328.814 145.371C324.82 143.259 320.153 142.202 314.813 142.202C310.55 142.202 306.651 142.971 303.117 144.507C299.583 146.005 296.53 148.195 293.956 151.076C291.421 153.956 289.443 157.49 288.021 161.677C286.6 165.864 285.89 170.627 285.89 175.966C285.89 181.843 286.562 187.336 287.906 192.445C289.251 197.515 291.267 201.913 293.956 205.639C296.645 209.365 300.006 212.303 304.039 214.454C308.072 216.567 312.758 217.623 318.098 217.623Z" fill="white"></path><path d="M314.813 137.017C321.228 137.017 327.144 138.073 332.56 140.186C338.014 142.26 342.719 145.199 346.676 149.001C350.632 152.766 353.724 157.298 355.952 162.599C358.18 167.9 359.294 173.757 359.294 180.172C359.294 183.821 358.871 187.413 358.026 190.947C357.181 194.48 355.933 197.822 354.281 200.972C352.668 204.122 350.671 207.041 348.289 209.73C345.908 212.38 343.18 214.685 340.107 216.644C337.073 218.564 333.712 220.063 330.024 221.138C326.337 222.252 322.361 222.809 318.098 222.809C311.683 222.809 305.748 221.791 300.294 219.755C294.878 217.681 290.192 214.762 286.235 210.997C282.279 207.233 279.187 202.72 276.959 197.457C274.731 192.157 273.617 186.28 273.617 179.827C273.617 176.177 274.04 172.586 274.885 169.052C275.73 165.518 276.959 162.157 278.572 158.969C280.224 155.781 282.221 152.862 284.564 150.211C286.946 147.522 289.654 145.199 292.688 143.24C295.761 141.281 299.142 139.763 302.829 138.688C306.555 137.574 310.55 137.017 314.813 137.017ZM318.098 217.623C322.361 217.623 326.26 216.855 329.794 215.319C333.328 213.782 336.362 211.554 338.897 208.635C341.471 205.716 343.468 202.163 344.89 197.976C346.311 193.751 347.021 188.968 347.021 183.629C347.021 177.714 346.33 172.24 344.947 167.208C343.603 162.138 341.586 157.759 338.897 154.072C336.209 150.346 332.848 147.446 328.814 145.371C324.82 143.259 320.153 142.202 314.813 142.202C310.55 142.202 306.651 142.971 303.117 144.507C299.583 146.005 296.53 148.195 293.956 151.076C291.421 153.956 289.443 157.49 288.021 161.677C286.6 165.864 285.89 170.627 285.89 175.966C285.89 181.843 286.562 187.336 287.906 192.445C289.251 197.515 291.267 201.913 293.956 205.639C296.645 209.365 300.006 212.303 304.039 214.454C308.072 216.567 312.758 217.623 318.098 217.623Z" fill="white"></path><path d="M402.082 137.708V137.939C402.005 138.131 401.948 138.419 401.909 138.803C401.871 139.187 401.852 139.533 401.852 139.84C401.852 141.031 402.005 142.356 402.312 143.816C402.658 145.237 403.292 147.023 404.214 149.174L429.738 206.734L454.398 149.635C454.975 148.214 455.589 146.658 456.242 144.968C456.895 143.278 457.222 141.569 457.222 139.84C457.222 139.379 457.183 138.995 457.106 138.688C457.03 138.342 456.953 138.092 456.876 137.939V137.708H468.688V137.939C467.958 138.669 467.074 139.975 466.037 141.857C465 143.739 463.867 146.063 462.638 148.828L429.623 222.118H425.014L393.728 151.652C392.998 150 392.229 148.406 391.423 146.869C390.655 145.333 389.925 143.95 389.233 142.721C388.542 141.453 387.927 140.397 387.39 139.552C386.852 138.707 386.487 138.169 386.295 137.939V137.708H402.082Z" fill="white"></path><path d="M402.082 137.708V137.939C402.005 138.131 401.948 138.419 401.909 138.803C401.871 139.187 401.852 139.533 401.852 139.84C401.852 141.031 402.005 142.356 402.312 143.816C402.658 145.237 403.292 147.023 404.214 149.174L429.738 206.734L454.398 149.635C454.975 148.214 455.589 146.658 456.242 144.968C456.895 143.278 457.222 141.569 457.222 139.84C457.222 139.379 457.183 138.995 457.106 138.688C457.03 138.342 456.953 138.092 456.876 137.939V137.708H468.688V137.939C467.958 138.669 467.074 139.975 466.037 141.857C465 143.739 463.867 146.063 462.638 148.828L429.623 222.118H425.014L393.728 151.652C392.998 150 392.229 148.406 391.423 146.869C390.655 145.333 389.925 143.95 389.233 142.721C388.542 141.453 387.927 140.397 387.39 139.552C386.852 138.707 386.487 138.169 386.295 137.939V137.708H402.082Z" fill="white"></path><path d="M402.082 137.708V137.939C402.005 138.131 401.948 138.419 401.909 138.803C401.871 139.187 401.852 139.533 401.852 139.84C401.852 141.031 402.005 142.356 402.312 143.816C402.658 145.237 403.292 147.023 404.214 149.174L429.738 206.734L454.398 149.635C454.975 148.214 455.589 146.658 456.242 144.968C456.895 143.278 457.222 141.569 457.222 139.84C457.222 139.379 457.183 138.995 457.106 138.688C457.03 138.342 456.953 138.092 456.876 137.939V137.708H468.688V137.939C467.958 138.669 467.074 139.975 466.037 141.857C465 143.739 463.867 146.063 462.638 148.828L429.623 222.118H425.014L393.728 151.652C392.998 150 392.229 148.406 391.423 146.869C390.655 145.333 389.925 143.95 389.233 142.721C388.542 141.453 387.927 140.397 387.39 139.552C386.852 138.707 386.487 138.169 386.295 137.939V137.708H402.082Z" fill="white"></path><path d="M553.235 220.089V219.858C553.312 219.666 553.37 219.378 553.408 218.994C553.447 218.61 553.466 218.264 553.466 217.957C553.466 216.766 553.293 215.46 552.947 214.039C552.64 212.579 552.025 210.774 551.104 208.623L544.132 192.951C541.981 192.874 539.119 192.836 535.547 192.836C531.975 192.836 528.114 192.836 523.966 192.836C520.931 192.836 517.993 192.836 515.15 192.836C512.346 192.836 509.811 192.874 507.545 192.951L500.919 208.162C500.343 209.583 499.728 211.139 499.075 212.829C498.422 214.519 498.096 216.228 498.096 217.957C498.096 218.456 498.134 218.879 498.211 219.224C498.288 219.532 498.365 219.743 498.441 219.858V220.089H486.688V219.858C487.379 219.128 488.243 217.842 489.28 215.998C490.317 214.116 491.451 211.773 492.68 208.969L525.694 135.737H530.304L561.59 206.145C562.32 207.797 563.069 209.41 563.837 210.985C564.644 212.522 565.393 213.904 566.084 215.134C566.775 216.363 567.39 217.4 567.928 218.245C568.465 219.09 568.83 219.628 569.022 219.858V220.089H553.235ZM515.899 187.881C518.127 187.881 520.413 187.881 522.756 187.881C525.099 187.842 527.384 187.823 529.612 187.823C531.879 187.785 534.049 187.765 536.123 187.765C538.197 187.727 540.079 187.689 541.77 187.65L525.579 151.063L509.677 187.881H515.899Z" fill="white"></path><path d="M553.235 220.089V219.858C553.312 219.666 553.37 219.378 553.408 218.994C553.447 218.61 553.466 218.264 553.466 217.957C553.466 216.766 553.293 215.46 552.947 214.039C552.64 212.579 552.025 210.774 551.104 208.623L544.132 192.951C541.981 192.874 539.119 192.836 535.547 192.836C531.975 192.836 528.114 192.836 523.966 192.836C520.931 192.836 517.993 192.836 515.15 192.836C512.346 192.836 509.811 192.874 507.545 192.951L500.919 208.162C500.343 209.583 499.728 211.139 499.075 212.829C498.422 214.519 498.096 216.228 498.096 217.957C498.096 218.456 498.134 218.879 498.211 219.224C498.288 219.532 498.365 219.743 498.441 219.858V220.089H486.688V219.858C487.379 219.128 488.243 217.842 489.28 215.998C490.317 214.116 491.451 211.773 492.68 208.969L525.694 135.737H530.304L561.59 206.145C562.32 207.797 563.069 209.41 563.837 210.985C564.644 212.522 565.393 213.904 566.084 215.134C566.775 216.363 567.39 217.4 567.928 218.245C568.465 219.09 568.83 219.628 569.022 219.858V220.089H553.235ZM515.899 187.881C518.127 187.881 520.413 187.881 522.756 187.881C525.099 187.842 527.384 187.823 529.612 187.823C531.879 187.785 534.049 187.765 536.123 187.765C538.197 187.727 540.079 187.689 541.77 187.65L525.579 151.063L509.677 187.881H515.899Z" fill="white"></path><path d="M553.235 220.089V219.858C553.312 219.666 553.37 219.378 553.408 218.994C553.447 218.61 553.466 218.264 553.466 217.957C553.466 216.766 553.293 215.46 552.947 214.039C552.64 212.579 552.025 210.774 551.104 208.623L544.132 192.951C541.981 192.874 539.119 192.836 535.547 192.836C531.975 192.836 528.114 192.836 523.966 192.836C520.931 192.836 517.993 192.836 515.15 192.836C512.346 192.836 509.811 192.874 507.545 192.951L500.919 208.162C500.343 209.583 499.728 211.139 499.075 212.829C498.422 214.519 498.096 216.228 498.096 217.957C498.096 218.456 498.134 218.879 498.211 219.224C498.288 219.532 498.365 219.743 498.441 219.858V220.089H486.688V219.858C487.379 219.128 488.243 217.842 489.28 215.998C490.317 214.116 491.451 211.773 492.68 208.969L525.694 135.737H530.304L561.59 206.145C562.32 207.797 563.069 209.41 563.837 210.985C564.644 212.522 565.393 213.904 566.084 215.134C566.775 216.363 567.39 217.4 567.928 218.245C568.465 219.09 568.83 219.628 569.022 219.858V220.089H553.235ZM515.899 187.881C518.127 187.881 520.413 187.881 522.756 187.881C525.099 187.842 527.384 187.823 529.612 187.823C531.879 187.785 534.049 187.765 536.123 187.765C538.197 187.727 540.079 187.689 541.77 187.65L525.579 151.063L509.677 187.881H515.899Z" fill="white"></path><path d="M634.841 150.594H633.573C633.266 149.711 632.767 148.712 632.075 147.598C631.422 146.484 630.539 145.447 629.425 144.487C628.349 143.488 627.024 142.662 625.449 142.009C623.913 141.356 622.088 141.03 619.976 141.03C618.093 141.03 616.423 141.318 614.963 141.894C613.503 142.47 612.274 143.277 611.275 144.314C610.315 145.351 609.585 146.58 609.086 148.001C608.587 149.423 608.337 150.997 608.337 152.726C608.337 155.492 609.105 158.142 610.642 160.677C612.216 163.174 614.175 165.651 616.519 168.11C618.862 170.568 621.397 173.026 624.124 175.485C626.851 177.943 629.386 180.497 631.729 183.148C634.073 185.798 636.012 188.583 637.549 191.502C639.124 194.383 639.911 197.494 639.911 200.836C639.911 203.333 639.469 205.849 638.586 208.384C637.741 210.881 636.416 213.128 634.61 215.125C632.805 217.123 630.481 218.755 627.639 220.023C624.796 221.252 621.416 221.867 617.498 221.867C615.309 221.867 613.215 221.655 611.218 221.233C609.259 220.849 607.434 220.368 605.744 219.792C604.092 219.178 602.594 218.525 601.25 217.833C599.944 217.142 598.868 216.508 598.023 215.932L599.349 203.199H600.789C601.212 205.004 601.903 206.732 602.863 208.384C603.824 209.997 604.995 211.438 606.378 212.705C607.799 213.935 609.412 214.933 611.218 215.701C613.023 216.431 615.001 216.796 617.152 216.796C619.111 216.796 620.859 216.508 622.396 215.932C623.97 215.317 625.315 214.492 626.429 213.454C627.543 212.379 628.388 211.111 628.964 209.652C629.578 208.192 629.886 206.598 629.886 204.869C629.886 202.45 629.444 200.222 628.561 198.186C627.677 196.112 626.506 194.153 625.046 192.309C623.625 190.465 621.992 188.679 620.148 186.951C618.343 185.222 616.48 183.493 614.56 181.765C612.639 179.998 610.757 178.193 608.913 176.349C607.108 174.505 605.475 172.546 604.016 170.472C602.594 168.359 601.442 166.112 600.559 163.731C599.675 161.311 599.233 158.66 599.233 155.78C599.233 152.745 599.81 150.018 600.962 147.598C602.153 145.14 603.708 143.046 605.629 141.318C607.588 139.589 609.797 138.264 612.255 137.342C614.713 136.42 617.248 135.959 619.86 135.959C621.781 135.959 623.548 136.113 625.161 136.42C626.774 136.728 628.215 137.092 629.482 137.515C630.788 137.938 631.922 138.36 632.882 138.783C633.842 139.205 634.63 139.551 635.244 139.82L634.841 150.594Z" fill="white"></path><path d="M634.841 150.594H633.573C633.266 149.711 632.767 148.712 632.075 147.598C631.422 146.484 630.539 145.447 629.425 144.487C628.349 143.488 627.024 142.662 625.449 142.009C623.913 141.356 622.088 141.03 619.976 141.03C618.093 141.03 616.423 141.318 614.963 141.894C613.503 142.47 612.274 143.277 611.275 144.314C610.315 145.351 609.585 146.58 609.086 148.001C608.587 149.423 608.337 150.997 608.337 152.726C608.337 155.492 609.105 158.142 610.642 160.677C612.216 163.174 614.175 165.651 616.519 168.11C618.862 170.568 621.397 173.026 624.124 175.485C626.851 177.943 629.386 180.497 631.729 183.148C634.073 185.798 636.012 188.583 637.549 191.502C639.124 194.383 639.911 197.494 639.911 200.836C639.911 203.333 639.469 205.849 638.586 208.384C637.741 210.881 636.416 213.128 634.61 215.125C632.805 217.123 630.481 218.755 627.639 220.023C624.796 221.252 621.416 221.867 617.498 221.867C615.309 221.867 613.215 221.655 611.218 221.233C609.259 220.849 607.434 220.368 605.744 219.792C604.092 219.178 602.594 218.525 601.25 217.833C599.944 217.142 598.868 216.508 598.023 215.932L599.349 203.199H600.789C601.212 205.004 601.903 206.732 602.863 208.384C603.824 209.997 604.995 211.438 606.378 212.705C607.799 213.935 609.412 214.933 611.218 215.701C613.023 216.431 615.001 216.796 617.152 216.796C619.111 216.796 620.859 216.508 622.396 215.932C623.97 215.317 625.315 214.492 626.429 213.454C627.543 212.379 628.388 211.111 628.964 209.652C629.578 208.192 629.886 206.598 629.886 204.869C629.886 202.45 629.444 200.222 628.561 198.186C627.677 196.112 626.506 194.153 625.046 192.309C623.625 190.465 621.992 188.679 620.148 186.951C618.343 185.222 616.48 183.493 614.56 181.765C612.639 179.998 610.757 178.193 608.913 176.349C607.108 174.505 605.475 172.546 604.016 170.472C602.594 168.359 601.442 166.112 600.559 163.731C599.675 161.311 599.233 158.66 599.233 155.78C599.233 152.745 599.81 150.018 600.962 147.598C602.153 145.14 603.708 143.046 605.629 141.318C607.588 139.589 609.797 138.264 612.255 137.342C614.713 136.42 617.248 135.959 619.86 135.959C621.781 135.959 623.548 136.113 625.161 136.42C626.774 136.728 628.215 137.092 629.482 137.515C630.788 137.938 631.922 138.36 632.882 138.783C633.842 139.205 634.63 139.551 635.244 139.82L634.841 150.594Z" fill="white"></path><path d="M634.841 150.594H633.573C633.266 149.711 632.767 148.712 632.075 147.598C631.422 146.484 630.539 145.447 629.425 144.487C628.349 143.488 627.024 142.662 625.449 142.009C623.913 141.356 622.088 141.03 619.976 141.03C618.093 141.03 616.423 141.318 614.963 141.894C613.503 142.47 612.274 143.277 611.275 144.314C610.315 145.351 609.585 146.58 609.086 148.001C608.587 149.423 608.337 150.997 608.337 152.726C608.337 155.492 609.105 158.142 610.642 160.677C612.216 163.174 614.175 165.651 616.519 168.11C618.862 170.568 621.397 173.026 624.124 175.485C626.851 177.943 629.386 180.497 631.729 183.148C634.073 185.798 636.012 188.583 637.549 191.502C639.124 194.383 639.911 197.494 639.911 200.836C639.911 203.333 639.469 205.849 638.586 208.384C637.741 210.881 636.416 213.128 634.61 215.125C632.805 217.123 630.481 218.755 627.639 220.023C624.796 221.252 621.416 221.867 617.498 221.867C615.309 221.867 613.215 221.655 611.218 221.233C609.259 220.849 607.434 220.368 605.744 219.792C604.092 219.178 602.594 218.525 601.25 217.833C599.944 217.142 598.868 216.508 598.023 215.932L599.349 203.199H600.789C601.212 205.004 601.903 206.732 602.863 208.384C603.824 209.997 604.995 211.438 606.378 212.705C607.799 213.935 609.412 214.933 611.218 215.701C613.023 216.431 615.001 216.796 617.152 216.796C619.111 216.796 620.859 216.508 622.396 215.932C623.97 215.317 625.315 214.492 626.429 213.454C627.543 212.379 628.388 211.111 628.964 209.652C629.578 208.192 629.886 206.598 629.886 204.869C629.886 202.45 629.444 200.222 628.561 198.186C627.677 196.112 626.506 194.153 625.046 192.309C623.625 190.465 621.992 188.679 620.148 186.951C618.343 185.222 616.48 183.493 614.56 181.765C612.639 179.998 610.757 178.193 608.913 176.349C607.108 174.505 605.475 172.546 604.016 170.472C602.594 168.359 601.442 166.112 600.559 163.731C599.675 161.311 599.233 158.66 599.233 155.78C599.233 152.745 599.81 150.018 600.962 147.598C602.153 145.14 603.708 143.046 605.629 141.318C607.588 139.589 609.797 138.264 612.255 137.342C614.713 136.42 617.248 135.959 619.86 135.959C621.781 135.959 623.548 136.113 625.161 136.42C626.774 136.728 628.215 137.092 629.482 137.515C630.788 137.938 631.922 138.36 632.882 138.783C633.842 139.205 634.63 139.551 635.244 139.82L634.841 150.594Z" fill="white"></path><path d="M677.91 219.994C678.141 219.187 678.352 218.189 678.544 216.998C678.774 215.807 678.966 214.328 679.12 212.561C679.274 210.794 679.389 208.701 679.466 206.281C679.543 203.823 679.581 200.961 679.581 197.696V160.187C679.581 156.922 679.543 154.08 679.466 151.66C679.389 149.202 679.274 147.089 679.12 145.322C678.966 143.517 678.774 142.019 678.544 140.828C678.352 139.637 678.141 138.639 677.91 137.832V137.601H691.738V137.832C691.508 138.639 691.277 139.637 691.047 140.828C690.855 142.019 690.682 143.517 690.528 145.322C690.413 147.089 690.298 149.202 690.183 151.66C690.106 154.08 690.067 156.922 690.067 160.187V173.036L723.716 145.553C727.48 142.48 729.362 139.829 729.362 137.601H745.553V137.832C743.286 138.37 740.982 139.407 738.639 140.943C736.334 142.441 733.876 144.285 731.264 146.474L701.533 171.365L737.313 210.66C738.812 212.196 740.079 213.483 741.116 214.52C742.192 215.519 743.133 216.364 743.939 217.056C744.746 217.708 745.476 218.265 746.129 218.726C746.82 219.149 747.531 219.571 748.261 219.994V220.224H731.379C731.225 219.879 730.956 219.437 730.572 218.899C730.227 218.361 729.804 217.805 729.305 217.228C728.844 216.652 728.325 216.057 727.749 215.442C727.211 214.828 726.693 214.251 726.193 213.714L690.067 174.073V197.696C690.067 200.961 690.106 203.823 690.183 206.281C690.298 208.701 690.413 210.794 690.528 212.561C690.682 214.328 690.855 215.807 691.047 216.998C691.277 218.189 691.508 219.187 691.738 219.994V220.224H677.91V219.994Z" fill="white"></path><path d="M677.91 219.994C678.141 219.187 678.352 218.189 678.544 216.998C678.774 215.807 678.966 214.328 679.12 212.561C679.274 210.794 679.389 208.701 679.466 206.281C679.543 203.823 679.581 200.961 679.581 197.696V160.187C679.581 156.922 679.543 154.08 679.466 151.66C679.389 149.202 679.274 147.089 679.12 145.322C678.966 143.517 678.774 142.019 678.544 140.828C678.352 139.637 678.141 138.639 677.91 137.832V137.601H691.738V137.832C691.508 138.639 691.277 139.637 691.047 140.828C690.855 142.019 690.682 143.517 690.528 145.322C690.413 147.089 690.298 149.202 690.183 151.66C690.106 154.08 690.067 156.922 690.067 160.187V173.036L723.716 145.553C727.48 142.48 729.362 139.829 729.362 137.601H745.553V137.832C743.286 138.37 740.982 139.407 738.639 140.943C736.334 142.441 733.876 144.285 731.264 146.474L701.533 171.365L737.313 210.66C738.812 212.196 740.079 213.483 741.116 214.52C742.192 215.519 743.133 216.364 743.939 217.056C744.746 217.708 745.476 218.265 746.129 218.726C746.82 219.149 747.531 219.571 748.261 219.994V220.224H731.379C731.225 219.879 730.956 219.437 730.572 218.899C730.227 218.361 729.804 217.805 729.305 217.228C728.844 216.652 728.325 216.057 727.749 215.442C727.211 214.828 726.693 214.251 726.193 213.714L690.067 174.073V197.696C690.067 200.961 690.106 203.823 690.183 206.281C690.298 208.701 690.413 210.794 690.528 212.561C690.682 214.328 690.855 215.807 691.047 216.998C691.277 218.189 691.508 219.187 691.738 219.994V220.224H677.91V219.994Z" fill="white"></path><path d="M677.91 219.994C678.141 219.187 678.352 218.189 678.544 216.998C678.774 215.807 678.966 214.328 679.12 212.561C679.274 210.794 679.389 208.701 679.466 206.281C679.543 203.823 679.581 200.961 679.581 197.696V160.187C679.581 156.922 679.543 154.08 679.466 151.66C679.389 149.202 679.274 147.089 679.12 145.322C678.966 143.517 678.774 142.019 678.544 140.828C678.352 139.637 678.141 138.639 677.91 137.832V137.601H691.738V137.832C691.508 138.639 691.277 139.637 691.047 140.828C690.855 142.019 690.682 143.517 690.528 145.322C690.413 147.089 690.298 149.202 690.183 151.66C690.106 154.08 690.067 156.922 690.067 160.187V173.036L723.716 145.553C727.48 142.48 729.362 139.829 729.362 137.601H745.553V137.832C743.286 138.37 740.982 139.407 738.639 140.943C736.334 142.441 733.876 144.285 731.264 146.474L701.533 171.365L737.313 210.66C738.812 212.196 740.079 213.483 741.116 214.52C742.192 215.519 743.133 216.364 743.939 217.056C744.746 217.708 745.476 218.265 746.129 218.726C746.82 219.149 747.531 219.571 748.261 219.994V220.224H731.379C731.225 219.879 730.956 219.437 730.572 218.899C730.227 218.361 729.804 217.805 729.305 217.228C728.844 216.652 728.325 216.057 727.749 215.442C727.211 214.828 726.693 214.251 726.193 213.714L690.067 174.073V197.696C690.067 200.961 690.106 203.823 690.183 206.281C690.298 208.701 690.413 210.794 690.528 212.561C690.682 214.328 690.855 215.807 691.047 216.998C691.277 218.189 691.508 219.187 691.738 219.994V220.224H677.91V219.994Z" fill="white"></path><path d="M677.91 219.994C678.141 219.187 678.352 218.189 678.544 216.998C678.774 215.807 678.966 214.328 679.12 212.561C679.274 210.794 679.389 208.701 679.466 206.281C679.543 203.823 679.581 200.961 679.581 197.696V160.187C679.581 156.922 679.543 154.08 679.466 151.66C679.389 149.202 679.274 147.089 679.12 145.322C678.966 143.517 678.774 142.019 678.544 140.828C678.352 139.637 678.141 138.639 677.91 137.832V137.601H691.738V137.832C691.508 138.639 691.277 139.637 691.047 140.828C690.855 142.019 690.682 143.517 690.528 145.322C690.413 147.089 690.298 149.202 690.183 151.66C690.106 154.08 690.067 156.922 690.067 160.187V173.036L723.716 145.553C727.48 142.48 729.362 139.829 729.362 137.601H745.553V137.832C743.286 138.37 740.982 139.407 738.639 140.943C736.334 142.441 733.876 144.285 731.264 146.474L701.533 171.365L737.313 210.66C738.812 212.196 740.079 213.483 741.116 214.52C742.192 215.519 743.133 216.364 743.939 217.056C744.746 217.708 745.476 218.265 746.129 218.726C746.82 219.149 747.531 219.571 748.261 219.994V220.224H731.379C731.225 219.879 730.956 219.437 730.572 218.899C730.227 218.361 729.804 217.805 729.305 217.228C728.844 216.652 728.325 216.057 727.749 215.442C727.211 214.828 726.693 214.251 726.193 213.714L690.067 174.073V197.696C690.067 200.961 690.106 203.823 690.183 206.281C690.298 208.701 690.413 210.794 690.528 212.561C690.682 214.328 690.855 215.807 691.047 216.998C691.277 218.189 691.508 219.187 691.738 219.994V220.224H677.91V219.994Z" fill="white"></path><path d="M779.262 219.994C779.492 219.187 779.703 218.189 779.896 216.998C780.088 215.807 780.26 214.328 780.414 212.561C780.568 210.794 780.683 208.701 780.76 206.281C780.837 203.823 780.875 200.961 780.875 197.696V160.187C780.875 156.922 780.837 154.08 780.76 151.66C780.683 149.202 780.568 147.089 780.414 145.322C780.26 143.517 780.088 142.019 779.896 140.828C779.703 139.637 779.492 138.639 779.262 137.832V137.601H793.032V137.832C792.802 138.639 792.571 139.637 792.341 140.828C792.149 142.019 791.976 143.517 791.822 145.322C791.707 147.089 791.592 149.202 791.477 151.66C791.4 154.08 791.361 156.922 791.361 160.187V197.696C791.361 200.961 791.4 203.823 791.477 206.281C791.592 208.701 791.707 210.794 791.822 212.561C791.976 214.328 792.149 215.807 792.341 216.998C792.571 218.189 792.802 219.187 793.032 219.994V220.224H779.262V219.994Z" fill="white"></path><path d="M779.262 219.994C779.492 219.187 779.703 218.189 779.896 216.998C780.088 215.807 780.26 214.328 780.414 212.561C780.568 210.794 780.683 208.701 780.76 206.281C780.837 203.823 780.875 200.961 780.875 197.696V160.187C780.875 156.922 780.837 154.08 780.76 151.66C780.683 149.202 780.568 147.089 780.414 145.322C780.26 143.517 780.088 142.019 779.896 140.828C779.703 139.637 779.492 138.639 779.262 137.832V137.601H793.032V137.832C792.802 138.639 792.571 139.637 792.341 140.828C792.149 142.019 791.976 143.517 791.822 145.322C791.707 147.089 791.592 149.202 791.477 151.66C791.4 154.08 791.361 156.922 791.361 160.187V197.696C791.361 200.961 791.4 203.823 791.477 206.281C791.592 208.701 791.707 210.794 791.822 212.561C791.976 214.328 792.149 215.807 792.341 216.998C792.571 218.189 792.802 219.187 793.032 219.994V220.224H779.262V219.994Z" fill="white"></path><path d="M779.262 219.994C779.492 219.187 779.703 218.189 779.896 216.998C780.088 215.807 780.26 214.328 780.414 212.561C780.568 210.794 780.683 208.701 780.76 206.281C780.837 203.823 780.875 200.961 780.875 197.696V160.187C780.875 156.922 780.837 154.08 780.76 151.66C780.683 149.202 780.568 147.089 780.414 145.322C780.26 143.517 780.088 142.019 779.896 140.828C779.703 139.637 779.492 138.639 779.262 137.832V137.601H793.032V137.832C792.802 138.639 792.571 139.637 792.341 140.828C792.149 142.019 791.976 143.517 791.822 145.322C791.707 147.089 791.592 149.202 791.477 151.66C791.4 154.08 791.361 156.922 791.361 160.187V197.696C791.361 200.961 791.4 203.823 791.477 206.281C791.592 208.701 791.707 210.794 791.822 212.561C791.976 214.328 792.149 215.807 792.341 216.998C792.571 218.189 792.802 219.187 793.032 219.994V220.224H779.262V219.994Z" fill="white"></path><path d="M779.262 219.994C779.492 219.187 779.703 218.189 779.896 216.998C780.088 215.807 780.26 214.328 780.414 212.561C780.568 210.794 780.683 208.701 780.76 206.281C780.837 203.823 780.875 200.961 780.875 197.696V160.187C780.875 156.922 780.837 154.08 780.76 151.66C780.683 149.202 780.568 147.089 780.414 145.322C780.26 143.517 780.088 142.019 779.896 140.828C779.703 139.637 779.492 138.639 779.262 137.832V137.601H793.032V137.832C792.802 138.639 792.571 139.637 792.341 140.828C792.149 142.019 791.976 143.517 791.822 145.322C791.707 147.089 791.592 149.202 791.477 151.66C791.4 154.08 791.361 156.922 791.361 160.187V197.696C791.361 200.961 791.4 203.823 791.477 206.281C791.592 208.701 791.707 210.794 791.822 212.561C791.976 214.328 792.149 215.807 792.341 216.998C792.571 218.189 792.802 219.187 793.032 219.994V220.224H779.262V219.994Z" fill="white"></path><path d="M837.719 138.025L897.06 201.174V160.611C897.06 157.346 897.03 154.504 896.95 152.084C896.87 149.625 896.76 147.513 896.6 145.746C896.45 143.941 896.26 142.443 896.03 141.252C895.84 140.061 895.62 139.062 895.39 138.256V138.025H905.65V138.256C905.42 139.062 905.21 140.061 905.02 141.252C904.82 142.443 904.65 143.941 904.5 145.746C904.34 147.513 904.23 149.625 904.15 152.084C904.07 154.504 904.04 157.346 904.04 160.611V221.801H902.02L842.674 158.71V198.12C842.674 201.385 842.712 204.247 842.789 206.705C842.866 209.125 842.981 211.218 843.135 212.985C843.288 214.752 843.461 216.231 843.653 217.422C843.845 218.612 844.057 219.611 844.287 220.418V220.648H834.031V220.418C834.262 219.611 834.473 218.612 834.665 217.422C834.896 216.231 835.088 214.752 835.241 212.985C835.395 211.218 835.51 209.125 835.587 206.705C835.664 204.247 835.702 201.385 835.702 198.12V160.611C835.702 157.346 835.664 154.504 835.587 152.084C835.51 149.625 835.395 147.513 835.241 145.746C835.088 143.941 834.896 142.443 834.665 141.252C834.473 140.061 834.262 139.062 834.031 138.256V138.025H837.719Z" fill="white"></path><path d="M837.719 138.025L897.06 201.174V160.611C897.06 157.346 897.03 154.504 896.95 152.084C896.87 149.625 896.76 147.513 896.6 145.746C896.45 143.941 896.26 142.443 896.03 141.252C895.84 140.061 895.62 139.062 895.39 138.256V138.025H905.65V138.256C905.42 139.062 905.21 140.061 905.02 141.252C904.82 142.443 904.65 143.941 904.5 145.746C904.34 147.513 904.23 149.625 904.15 152.084C904.07 154.504 904.04 157.346 904.04 160.611V221.801H902.02L842.674 158.71V198.12C842.674 201.385 842.712 204.247 842.789 206.705C842.866 209.125 842.981 211.218 843.135 212.985C843.288 214.752 843.461 216.231 843.653 217.422C843.845 218.612 844.057 219.611 844.287 220.418V220.648H834.031V220.418C834.262 219.611 834.473 218.612 834.665 217.422C834.896 216.231 835.088 214.752 835.241 212.985C835.395 211.218 835.51 209.125 835.587 206.705C835.664 204.247 835.702 201.385 835.702 198.12V160.611C835.702 157.346 835.664 154.504 835.587 152.084C835.51 149.625 835.395 147.513 835.241 145.746C835.088 143.941 834.896 142.443 834.665 141.252C834.473 140.061 834.262 139.062 834.031 138.256V138.025H837.719Z" fill="white"></path><path d="M837.719 138.025L897.06 201.174V160.611C897.06 157.346 897.03 154.504 896.95 152.084C896.87 149.625 896.76 147.513 896.6 145.746C896.45 143.941 896.26 142.443 896.03 141.252C895.84 140.061 895.62 139.062 895.39 138.256V138.025H905.65V138.256C905.42 139.062 905.21 140.061 905.02 141.252C904.82 142.443 904.65 143.941 904.5 145.746C904.34 147.513 904.23 149.625 904.15 152.084C904.07 154.504 904.04 157.346 904.04 160.611V221.801H902.02L842.674 158.71V198.12C842.674 201.385 842.712 204.247 842.789 206.705C842.866 209.125 842.981 211.218 843.135 212.985C843.288 214.752 843.461 216.231 843.653 217.422C843.845 218.612 844.057 219.611 844.287 220.418V220.648H834.031V220.418C834.262 219.611 834.473 218.612 834.665 217.422C834.896 216.231 835.088 214.752 835.241 212.985C835.395 211.218 835.51 209.125 835.587 206.705C835.664 204.247 835.702 201.385 835.702 198.12V160.611C835.702 157.346 835.664 154.504 835.587 152.084C835.51 149.625 835.395 147.513 835.241 145.746C835.088 143.941 834.896 142.443 834.665 141.252C834.473 140.061 834.262 139.062 834.031 138.256V138.025H837.719Z" fill="white"></path><path d="M837.719 138.025L897.06 201.174V160.611C897.06 157.346 897.03 154.504 896.95 152.084C896.87 149.625 896.76 147.513 896.6 145.746C896.45 143.941 896.26 142.443 896.03 141.252C895.84 140.061 895.62 139.062 895.39 138.256V138.025H905.65V138.256C905.42 139.062 905.21 140.061 905.02 141.252C904.82 142.443 904.65 143.941 904.5 145.746C904.34 147.513 904.23 149.625 904.15 152.084C904.07 154.504 904.04 157.346 904.04 160.611V221.801H902.02L842.674 158.71V198.12C842.674 201.385 842.712 204.247 842.789 206.705C842.866 209.125 842.981 211.218 843.135 212.985C843.288 214.752 843.461 216.231 843.653 217.422C843.845 218.612 844.057 219.611 844.287 220.418V220.648H834.031V220.418C834.262 219.611 834.473 218.612 834.665 217.422C834.896 216.231 835.088 214.752 835.241 212.985C835.395 211.218 835.51 209.125 835.587 206.705C835.664 204.247 835.702 201.385 835.702 198.12V160.611C835.702 157.346 835.664 154.504 835.587 152.084C835.51 149.625 835.395 147.513 835.241 145.746C835.088 143.941 834.896 142.443 834.665 141.252C834.473 140.061 834.262 139.062 834.031 138.256V138.025H837.719Z" fill="white"></path><path d="M3.816 299.162V261.161H7.632C8.09133 261.161 8.427 261.214 8.639 261.32C8.88633 261.391 9.13367 261.638 9.381 262.062L22.525 285.435C22.8077 285.894 23.0197 286.354 23.161 286.813C23.3377 287.237 23.5143 287.696 23.691 288.191C23.8677 287.732 24.0443 287.272 24.221 286.813C24.433 286.318 24.6627 285.841 24.91 285.382L37.789 262.062C38.0363 261.638 38.266 261.391 38.478 261.32C38.7253 261.214 39.0787 261.161 39.538 261.161H43.354V299.162H38.849V271.231C38.849 270.878 38.849 270.489 38.849 270.065C38.8843 269.641 38.9197 269.199 38.955 268.74L25.917 292.484C25.493 293.297 24.8747 293.703 24.062 293.703H23.32C22.5427 293.703 21.9243 293.297 21.465 292.484L8.162 268.687C8.23267 269.146 8.268 269.606 8.268 270.065C8.30333 270.489 8.321 270.878 8.321 271.231V299.162H3.816ZM0 299.162V296.989C0 296.671 0.0706667 296.424 0.212 296.247C0.353333 296.035 0.565333 295.911 0.848 295.876L4.823 295.028L5.406 299.162H0ZM7.261 299.162L7.844 295.028L11.819 295.876C12.1017 295.911 12.3137 296.035 12.455 296.247C12.5963 296.424 12.667 296.671 12.667 296.989V299.162H7.261ZM5.406 261.161L4.823 265.295L0.848 264.447C0.565333 264.376 0.353333 264.253 0.212 264.076C0.0706667 263.899 0 263.652 0 263.334V261.161H5.406ZM34.503 299.162V296.989C34.503 296.671 34.5737 296.424 34.715 296.247C34.8563 296.035 35.0683 295.911 35.351 295.876L39.326 295.028L39.909 299.162H34.503ZM41.764 299.162L42.347 295.028L46.322 295.876C46.6047 295.911 46.8167 296.035 46.958 296.247C47.0993 296.424 47.17 296.671 47.17 296.989V299.162H41.764ZM47.17 261.161V263.334C47.17 263.652 47.0993 263.899 46.958 264.076C46.8167 264.253 46.6047 264.376 46.322 264.447L42.347 265.295L41.764 261.161H47.17Z" fill="white"></path><path d="M74.9859 299.162V261.161H98.4119V265.348H80.1799V278.015H94.1719V282.043H80.1799V294.975H98.4119V299.162H74.9859ZM94.0659 296.3L94.8609 291C94.9316 290.682 95.0553 290.47 95.2319 290.364C95.4439 290.223 95.6913 290.152 95.9739 290.152H98.4119V294.975L94.0659 296.3ZM94.0659 264.023L98.4119 265.348V270.171H95.9739C95.6913 270.171 95.4439 270.118 95.2319 270.012C95.0553 269.871 94.9316 269.641 94.8609 269.323L94.0659 264.023ZM76.5759 261.161L75.9929 265.295L72.0179 264.447C71.7353 264.376 71.5233 264.253 71.3819 264.076C71.2406 263.899 71.1699 263.652 71.1699 263.334V261.161H76.5759ZM71.1699 299.162V296.989C71.1699 296.671 71.2406 296.424 71.3819 296.247C71.5233 296.035 71.7353 295.911 72.0179 295.876L75.9929 295.028L76.5759 299.162H71.1699Z" fill="white"></path><path d="M126.228 299.162V261.161H140.432C143.223 261.161 145.767 261.62 148.064 262.539C150.396 263.458 152.375 264.747 154 266.408C155.661 268.069 156.933 270.065 157.816 272.397C158.699 274.729 159.141 277.326 159.141 280.188C159.141 283.015 158.699 285.594 157.816 287.926C156.933 290.258 155.661 292.254 154 293.915C152.375 295.576 150.396 296.865 148.064 297.784C145.767 298.703 143.223 299.162 140.432 299.162H126.228ZM131.422 294.975H140.432C143.223 294.975 145.626 294.374 147.64 293.173C149.654 291.972 151.191 290.276 152.251 288.085C153.346 285.859 153.894 283.227 153.894 280.188C153.894 277.149 153.346 274.517 152.251 272.291C151.191 270.065 149.654 268.351 147.64 267.15C145.626 265.949 143.223 265.348 140.432 265.348H131.422V294.975ZM122.412 299.162V296.989C122.412 296.671 122.483 296.424 122.624 296.247C122.765 296.035 122.977 295.911 123.26 295.876L127.235 295.028L127.818 299.162H122.412ZM127.818 261.161L127.235 265.295L123.26 264.447C122.977 264.376 122.765 264.253 122.624 264.076C122.483 263.899 122.412 263.652 122.412 263.334V261.161H127.818Z" fill="white"></path><path d="M205.953 299.586C204.61 299.586 203.232 299.463 201.819 299.215C200.441 299.003 199.151 298.738 197.95 298.42C196.784 298.102 195.848 297.82 195.141 297.572V292.855L199.222 293.862C200.671 294.392 201.89 294.763 202.879 294.975C203.904 295.187 205.07 295.293 206.377 295.293C207.967 295.293 209.327 295.011 210.458 294.445C211.624 293.88 212.525 293.085 213.161 292.06C213.797 291.036 214.115 289.87 214.115 288.562C214.115 287.326 213.85 286.319 213.32 285.541C212.79 284.764 212.083 284.146 211.2 283.686C210.317 283.192 209.327 282.785 208.232 282.467C207.172 282.114 206.077 281.743 204.946 281.354C203.497 280.86 202.066 280.241 200.653 279.499C199.275 278.757 198.144 277.768 197.261 276.531C196.378 275.259 195.936 273.581 195.936 271.496C195.936 269.412 196.413 267.557 197.367 265.931C198.356 264.306 199.734 263.034 201.501 262.115C203.268 261.197 205.352 260.737 207.755 260.737C209.274 260.737 210.953 260.932 212.79 261.32C214.663 261.674 216.429 262.204 218.09 262.91V266.832L214.062 266.037C212.931 265.719 211.801 265.472 210.67 265.295C209.575 265.119 208.603 265.03 207.755 265.03C205.6 265.03 203.886 265.578 202.614 266.673C201.342 267.733 200.706 269.111 200.706 270.807C200.706 272.291 201.148 273.44 202.031 274.252C202.95 275.065 204.098 275.719 205.476 276.213C206.889 276.708 208.338 277.22 209.822 277.75C211.483 278.316 213.002 278.987 214.38 279.764C215.758 280.542 216.853 281.566 217.666 282.838C218.514 284.075 218.938 285.736 218.938 287.82C218.938 290.046 218.408 292.06 217.348 293.862C216.323 295.629 214.839 297.025 212.896 298.049C210.988 299.074 208.674 299.586 205.953 299.586ZM213.744 265.507L218.09 266.832V271.655H215.652C215.369 271.655 215.122 271.602 214.91 271.496C214.733 271.355 214.61 271.125 214.539 270.807L213.744 265.507ZM199.487 294.18L195.141 292.855V288.032H197.579C197.862 288.032 198.109 288.103 198.321 288.244C198.533 288.35 198.657 288.562 198.692 288.88L199.487 294.18Z" fill="white"></path><path d="M246.754 299.162V261.161H258.043C261.082 261.161 263.643 261.62 265.728 262.539C267.848 263.458 269.456 264.8 270.551 266.567C271.646 268.298 272.194 270.418 272.194 272.927C272.194 275.365 271.611 277.485 270.445 279.287C269.314 281.089 267.689 282.485 265.569 283.474C263.449 284.463 260.94 284.958 258.043 284.958H251.948V299.162H246.754ZM251.948 280.877H258.043C259.916 280.877 261.523 280.559 262.866 279.923C264.209 279.252 265.233 278.333 265.94 277.167C266.682 275.966 267.053 274.552 267.053 272.927C267.053 270.524 266.293 268.652 264.774 267.309C263.29 265.931 261.046 265.242 258.043 265.242H251.948V280.877ZM242.938 299.162V296.989C242.938 296.671 243.009 296.424 243.15 296.247C243.291 296.035 243.503 295.911 243.786 295.876L247.761 295.028L248.344 299.162H242.938ZM248.344 261.161L247.761 265.295L243.786 264.447C243.503 264.376 243.291 264.253 243.15 264.076C243.009 263.899 242.938 263.652 242.938 263.334V261.161H248.344ZM250.358 299.162L250.941 295.028L254.916 295.876C255.199 295.911 255.411 296.035 255.552 296.247C255.693 296.424 255.764 296.671 255.764 296.989V299.162H250.358Z" fill="white"></path><path d="M297.731 299.162L312.942 261.161H318.136L333.347 299.162H329.372C328.913 299.162 328.542 299.056 328.259 298.844C327.976 298.597 327.764 298.296 327.623 297.943L316.652 269.588C316.475 269.093 316.281 268.563 316.069 267.998C315.892 267.397 315.716 266.744 315.539 266.037C315.327 266.744 315.133 267.397 314.956 267.998C314.779 268.599 314.603 269.146 314.426 269.641L303.455 297.943C303.349 298.261 303.137 298.544 302.819 298.791C302.536 299.038 302.165 299.162 301.706 299.162H297.731ZM301.653 299.162V295.876H304.462V299.162H301.653ZM306.37 287.926L307.801 284.216H323.436L324.867 287.926H306.37ZM326.775 299.162V295.876H329.584V299.162H326.775ZM296.194 299.162V296.989C296.194 296.671 296.265 296.424 296.406 296.247C296.547 296.035 296.759 295.911 297.042 295.876L301.017 295.028L301.6 299.162H296.194ZM301.865 299.162L302.448 295.028L306.423 295.876C306.706 295.911 306.918 296.035 307.059 296.247C307.2 296.424 307.271 296.671 307.271 296.989V299.162H301.865ZM323.807 299.162V296.989C323.807 296.671 323.878 296.424 324.019 296.247C324.16 296.035 324.372 295.911 324.655 295.876L328.63 295.028L329.213 299.162H323.807ZM329.478 299.162L330.061 295.028L334.036 295.876C334.319 295.911 334.531 296.035 334.672 296.247C334.813 296.424 334.884 296.671 334.884 296.989V299.162H329.478Z" fill="white"></path><path d="M402.279 299.586C400.336 299.586 398.481 299.145 396.714 298.261C394.983 297.378 393.569 296.159 392.474 294.604C391.414 293.014 390.884 291.159 390.884 289.039C390.884 287.379 391.237 285.842 391.944 284.428C392.686 283.015 393.675 281.761 394.912 280.665C396.184 279.57 397.597 278.687 399.152 278.015C398.092 276.673 397.297 275.365 396.767 274.093C396.272 272.786 396.025 271.443 396.025 270.065C396.025 268.263 396.449 266.673 397.297 265.295C398.145 263.882 399.329 262.769 400.848 261.956C402.367 261.144 404.152 260.737 406.201 260.737C407.968 260.737 409.558 261.108 410.971 261.85C412.384 262.592 413.515 263.582 414.363 264.818C415.246 266.02 415.741 267.362 415.847 268.846L412.667 269.482C412.42 269.518 412.19 269.465 411.978 269.323C411.801 269.182 411.66 268.952 411.554 268.634C411.413 267.928 411.095 267.256 410.6 266.62C410.141 265.984 409.54 265.472 408.798 265.083C408.056 264.659 407.19 264.447 406.201 264.447C404.505 264.447 403.109 264.977 402.014 266.037C400.954 267.062 400.424 268.387 400.424 270.012C400.424 271.214 400.76 272.415 401.431 273.616C402.102 274.818 403.039 276.019 404.24 277.22L415.158 288.297C415.829 287.131 416.359 285.895 416.748 284.587C417.137 283.28 417.402 281.973 417.543 280.665C417.578 280.347 417.684 280.1 417.861 279.923C418.038 279.711 418.285 279.605 418.603 279.605H421.518C421.483 281.619 421.147 283.616 420.511 285.594C419.91 287.538 419.027 289.375 417.861 291.106L425.811 299.162H421.253C420.758 299.162 420.352 299.109 420.034 299.003C419.716 298.862 419.363 298.597 418.974 298.208L415.158 294.339C413.497 295.965 411.572 297.254 409.381 298.208C407.226 299.127 404.858 299.586 402.279 299.586ZM403.074 295.717C405.053 295.717 406.819 295.364 408.374 294.657C409.964 293.915 411.36 292.944 412.561 291.742L401.325 280.453C400.088 281.089 399.046 281.849 398.198 282.732C397.35 283.58 396.714 284.499 396.29 285.488C395.901 286.478 395.707 287.538 395.707 288.668C395.707 290.117 396.043 291.371 396.714 292.431C397.421 293.491 398.339 294.304 399.47 294.869C400.601 295.435 401.802 295.717 403.074 295.717Z" fill="white"></path><path d="M485.627 299.162V261.161H490.821V294.816H508.47V299.162H485.627ZM504.124 296.141L504.919 290.841C504.99 290.523 505.113 290.311 505.29 290.205C505.502 290.064 505.749 289.993 506.032 289.993H508.47V294.816L504.124 296.141ZM481.811 299.162V296.989C481.811 296.671 481.882 296.424 482.023 296.247C482.164 296.035 482.376 295.911 482.659 295.876L486.634 295.028L487.217 299.162H481.811ZM487.217 261.161L486.634 265.295L482.659 264.447C482.376 264.376 482.164 264.253 482.023 264.076C481.882 263.899 481.811 263.652 481.811 263.334V261.161H487.217ZM494.69 261.161V263.334C494.69 263.652 494.619 263.899 494.478 264.076C494.337 264.253 494.125 264.376 493.842 264.447L489.867 265.295L489.284 261.161H494.69Z" fill="white"></path><path d="M534.007 299.162L549.218 261.161H554.412L569.623 299.162H565.648C565.189 299.162 564.818 299.056 564.535 298.844C564.252 298.597 564.04 298.296 563.899 297.943L552.928 269.588C552.751 269.093 552.557 268.563 552.345 267.998C552.168 267.397 551.992 266.744 551.815 266.037C551.603 266.744 551.409 267.397 551.232 267.998C551.055 268.599 550.879 269.146 550.702 269.641L539.731 297.943C539.625 298.261 539.413 298.544 539.095 298.791C538.812 299.038 538.441 299.162 537.982 299.162H534.007ZM537.929 299.162V295.876H540.738V299.162H537.929ZM542.646 287.926L544.077 284.216H559.712L561.143 287.926H542.646ZM563.051 299.162V295.876H565.86V299.162H563.051ZM532.47 299.162V296.989C532.47 296.671 532.541 296.424 532.682 296.247C532.823 296.035 533.035 295.911 533.318 295.876L537.293 295.028L537.876 299.162H532.47ZM538.141 299.162L538.724 295.028L542.699 295.876C542.982 295.911 543.194 296.035 543.335 296.247C543.476 296.424 543.547 296.671 543.547 296.989V299.162H538.141ZM560.083 299.162V296.989C560.083 296.671 560.154 296.424 560.295 296.247C560.436 296.035 560.648 295.911 560.931 295.876L564.906 295.028L565.489 299.162H560.083ZM565.754 299.162L566.337 295.028L570.312 295.876C570.595 295.911 570.807 296.035 570.948 296.247C571.089 296.424 571.16 296.671 571.16 296.989V299.162H565.754Z" fill="white"></path><path d="M605.972 299.586C604.63 299.586 603.251 299.463 601.838 299.215C600.46 299.003 599.17 298.738 597.969 298.42C596.803 298.102 595.867 297.82 595.16 297.572V292.855L599.241 293.862C600.69 294.392 601.909 294.763 602.898 294.975C603.923 295.187 605.089 295.293 606.396 295.293C607.986 295.293 609.346 295.011 610.477 294.445C611.643 293.88 612.544 293.085 613.18 292.06C613.816 291.036 614.134 289.87 614.134 288.562C614.134 287.326 613.869 286.319 613.339 285.541C612.809 284.764 612.102 284.146 611.219 283.686C610.336 283.192 609.346 282.785 608.251 282.467C607.191 282.114 606.096 281.743 604.965 281.354C603.516 280.86 602.085 280.241 600.672 279.499C599.294 278.757 598.163 277.768 597.28 276.531C596.397 275.259 595.955 273.581 595.955 271.496C595.955 269.412 596.432 267.557 597.386 265.931C598.375 264.306 599.753 263.034 601.52 262.115C603.287 261.197 605.371 260.737 607.774 260.737C609.293 260.737 610.972 260.932 612.809 261.32C614.682 261.674 616.448 262.204 618.109 262.91V266.832L614.081 266.037C612.95 265.719 611.82 265.472 610.689 265.295C609.594 265.119 608.622 265.03 607.774 265.03C605.619 265.03 603.905 265.578 602.633 266.673C601.361 267.733 600.725 269.111 600.725 270.807C600.725 272.291 601.167 273.44 602.05 274.252C602.969 275.065 604.117 275.719 605.495 276.213C606.908 276.708 608.357 277.22 609.841 277.75C611.502 278.316 613.021 278.987 614.399 279.764C615.777 280.542 616.872 281.566 617.685 282.838C618.533 284.075 618.957 285.736 618.957 287.82C618.957 290.046 618.427 292.06 617.367 293.862C616.342 295.629 614.858 297.025 612.915 298.049C611.007 299.074 608.693 299.586 605.972 299.586ZM613.763 265.507L618.109 266.832V271.655H615.671C615.388 271.655 615.141 271.602 614.929 271.496C614.753 271.355 614.629 271.125 614.558 270.807L613.763 265.507ZM599.506 294.18L595.16 292.855V288.032H597.598C597.881 288.032 598.128 288.103 598.34 288.244C598.552 288.35 598.676 288.562 598.711 288.88L599.506 294.18Z" fill="white"></path><path d="M646.773 299.162V261.161H670.199V265.348H651.967V278.015H665.959V282.043H651.967V294.975H670.199V299.162H646.773ZM665.853 296.3L666.648 291C666.719 290.682 666.842 290.47 667.019 290.364C667.231 290.223 667.478 290.152 667.761 290.152H670.199V294.975L665.853 296.3ZM665.853 264.023L670.199 265.348V270.171H667.761C667.478 270.171 667.231 270.118 667.019 270.012C666.842 269.871 666.719 269.641 666.648 269.323L665.853 264.023ZM648.363 261.161L647.78 265.295L643.805 264.447C643.522 264.376 643.31 264.253 643.169 264.076C643.028 263.899 642.957 263.652 642.957 263.334V261.161H648.363ZM642.957 299.162V296.989C642.957 296.671 643.028 296.424 643.169 296.247C643.31 296.035 643.522 295.911 643.805 295.876L647.78 295.028L648.363 299.162H642.957Z" fill="white"></path><path d="M698.015 299.162V261.161H708.827C711.83 261.161 714.357 261.567 716.406 262.38C718.455 263.157 720.01 264.323 721.07 265.878C722.165 267.433 722.713 269.376 722.713 271.708C722.713 273.545 722.324 275.188 721.547 276.637C720.805 278.086 719.727 279.305 718.314 280.294C716.936 281.283 715.293 282.008 713.385 282.467C713.95 282.785 714.516 283.315 715.081 284.057L726.158 299.162H721.6C720.646 299.162 719.957 298.791 719.533 298.049L709.675 284.481C709.357 284.057 709.021 283.757 708.668 283.58C708.315 283.403 707.785 283.315 707.078 283.315H703.209V299.162H698.015ZM703.209 279.552H708.562C711.424 279.552 713.668 278.898 715.293 277.591C716.918 276.284 717.731 274.446 717.731 272.079C717.731 269.818 716.971 268.122 715.452 266.991C713.968 265.825 711.76 265.242 708.827 265.242H703.209V279.552ZM721.706 299.162L719.162 294.339L722.289 295.028L721.706 299.162ZM694.199 299.162V296.989C694.199 296.671 694.27 296.424 694.411 296.247C694.552 296.035 694.764 295.911 695.047 295.876L699.022 295.028L699.605 299.162H694.199ZM699.605 261.161L699.022 265.295L695.047 264.447C694.764 264.376 694.552 264.253 694.411 264.076C694.27 263.899 694.199 263.652 694.199 263.334V261.161H699.605ZM701.619 299.162L702.202 295.028L706.177 295.876C706.46 295.911 706.672 296.035 706.813 296.247C706.954 296.424 707.025 296.671 707.025 296.989V299.162H701.619ZM721.706 299.162L722.289 295.028L726.264 295.876C726.547 295.911 726.759 296.035 726.9 296.247C727.041 296.424 727.112 296.671 727.112 296.989V299.162H721.706Z" fill="white"></path><path d="M781.45 299.586C778.623 299.586 776.044 299.109 773.712 298.155C771.415 297.166 769.437 295.735 767.776 293.862C766.186 292.025 765.002 289.94 764.225 287.608C763.483 285.241 763.112 282.803 763.112 280.294C763.112 277.362 763.571 274.712 764.49 272.344C765.444 269.942 766.751 267.892 768.412 266.196C770.108 264.465 772.104 263.122 774.401 262.168C776.733 261.214 779.259 260.737 781.98 260.737C783.429 260.737 784.807 260.861 786.114 261.108C787.457 261.356 788.782 261.691 790.089 262.115C791.396 262.539 792.721 263.016 794.064 263.546V267.415L790.354 266.726C789.259 266.338 788.04 265.984 786.697 265.666C785.354 265.348 783.906 265.189 782.351 265.189C779.524 265.189 777.051 265.825 774.931 267.097C772.846 268.334 771.221 270.083 770.055 272.344C768.924 274.606 768.359 277.256 768.359 280.294C768.359 283.086 768.871 285.612 769.896 287.873C770.921 290.099 772.458 291.866 774.507 293.173C776.592 294.481 779.153 295.134 782.192 295.134C783.888 295.134 785.46 294.887 786.909 294.392C788.393 293.862 789.842 292.961 791.255 291.689C791.432 291.548 791.591 291.46 791.732 291.424C791.873 291.354 792.015 291.318 792.156 291.318C792.439 291.318 792.686 291.424 792.898 291.636L794.912 293.862C793.499 295.488 791.679 296.848 789.453 297.943C787.262 299.039 784.595 299.586 781.45 299.586ZM789.718 266.09L794.064 267.415V272.238H791.626C791.343 272.238 791.096 272.185 790.884 272.079C790.707 271.938 790.584 271.708 790.513 271.39L789.718 266.09Z" fill="white"></path><path d="M822.728 299.162V261.161H846.154V265.348H827.922V278.015H841.914V282.043H827.922V294.975H846.154V299.162H822.728ZM841.808 296.3L842.603 291C842.674 290.682 842.797 290.47 842.974 290.364C843.186 290.223 843.433 290.152 843.716 290.152H846.154V294.975L841.808 296.3ZM841.808 264.023L846.154 265.348V270.171H843.716C843.433 270.171 843.186 270.118 842.974 270.012C842.797 269.871 842.674 269.641 842.603 269.323L841.808 264.023ZM824.318 261.161L823.735 265.295L819.76 264.447C819.477 264.376 819.265 264.253 819.124 264.076C818.983 263.899 818.912 263.652 818.912 263.334V261.161H824.318ZM818.912 299.162V296.989C818.912 296.671 818.983 296.424 819.124 296.247C819.265 296.035 819.477 295.911 819.76 295.876L823.735 295.028L824.318 299.162H818.912Z" fill="white"></path><path d="M873.97 299.162V261.161H876.62C877.079 261.161 877.433 261.214 877.68 261.32C877.927 261.426 878.175 261.673 878.422 262.062L900.417 290.682C900.346 290.223 900.293 289.781 900.258 289.357C900.258 288.898 900.258 288.474 900.258 288.085V261.161H904.763V299.162H902.166C901.777 299.162 901.442 299.091 901.159 298.95C900.912 298.809 900.647 298.561 900.364 298.208L878.369 269.641C878.404 270.065 878.422 270.489 878.422 270.913C878.457 271.337 878.475 271.726 878.475 272.079V299.162H873.97ZM870.154 299.162V296.989C870.154 296.671 870.225 296.424 870.366 296.247C870.507 296.035 870.719 295.911 871.002 295.876L874.977 295.028L875.56 299.162H870.154ZM877.415 299.162L877.998 295.028L881.973 295.876C882.256 295.911 882.468 296.035 882.609 296.247C882.75 296.424 882.821 296.671 882.821 296.989V299.162H877.415ZM875.56 261.161L874.977 265.295L871.002 264.447C870.719 264.376 870.507 264.253 870.366 264.076C870.225 263.899 870.154 263.652 870.154 263.334V261.161H875.56ZM901.318 261.161L900.735 265.295L896.76 264.447C896.477 264.376 896.265 264.253 896.124 264.076C895.983 263.899 895.912 263.652 895.912 263.334V261.161H901.318ZM908.579 261.161V263.334C908.579 263.652 908.508 263.899 908.367 264.076C908.226 264.253 908.014 264.376 907.731 264.447L903.756 265.295L903.173 261.161H908.579Z" fill="white"></path><path d="M944.928 299.162V265.507H932.579V261.161H962.312V265.507H950.069V299.162H944.928ZM941.112 299.162V296.989C941.112 296.671 941.183 296.424 941.324 296.247C941.465 296.035 941.677 295.911 941.96 295.876L945.935 295.028L946.518 299.162H941.112ZM948.479 299.162L949.062 295.028L953.037 295.876C953.32 295.911 953.532 296.035 953.673 296.247C953.814 296.424 953.885 296.671 953.885 296.989V299.162H948.479ZM957.966 264.182L962.312 265.507V270.33H959.874C959.591 270.33 959.344 270.277 959.132 270.171C958.955 270.03 958.832 269.8 958.761 269.482L957.966 264.182ZM936.925 264.182L936.13 269.482C936.095 269.8 935.971 270.03 935.759 270.171C935.547 270.277 935.3 270.33 935.017 270.33H932.579V265.507L936.925 264.182Z" fill="white"></path><path d="M990.128 299.162V261.161H1013.55V265.348H995.322V278.015H1009.31V282.043H995.322V294.975H1013.55V299.162H990.128ZM1009.21 296.3L1010 291C1010.07 290.682 1010.2 290.47 1010.37 290.364C1010.59 290.223 1010.83 290.152 1011.12 290.152H1013.55V294.975L1009.21 296.3ZM1009.21 264.023L1013.55 265.348V270.171H1011.12C1010.83 270.171 1010.59 270.118 1010.37 270.012C1010.2 269.871 1010.07 269.641 1010 269.323L1009.21 264.023ZM991.718 261.161L991.135 265.295L987.16 264.447C986.877 264.376 986.665 264.253 986.524 264.076C986.383 263.899 986.312 263.652 986.312 263.334V261.161H991.718ZM986.312 299.162V296.989C986.312 296.671 986.383 296.424 986.524 296.247C986.665 296.035 986.877 295.911 987.16 295.876L991.135 295.028L991.718 299.162H986.312Z" fill="white"></path><path d="M1041.37 299.162V261.161H1052.18C1055.19 261.161 1057.71 261.567 1059.76 262.38C1061.81 263.157 1063.36 264.323 1064.42 265.878C1065.52 267.433 1066.07 269.376 1066.07 271.708C1066.07 273.545 1065.68 275.188 1064.9 276.637C1064.16 278.086 1063.08 279.305 1061.67 280.294C1060.29 281.283 1058.65 282.008 1056.74 282.467C1057.31 282.785 1057.87 283.315 1058.44 284.057L1069.51 299.162H1064.95C1064 299.162 1063.31 298.791 1062.89 298.049L1053.03 284.481C1052.71 284.057 1052.38 283.757 1052.02 283.58C1051.67 283.403 1051.14 283.315 1050.43 283.315H1046.56V299.162H1041.37ZM1046.56 279.552H1051.92C1054.78 279.552 1057.02 278.898 1058.65 277.591C1060.27 276.284 1061.09 274.446 1061.09 272.079C1061.09 269.818 1060.33 268.122 1058.81 266.991C1057.32 265.825 1055.11 265.242 1052.18 265.242H1046.56V279.552ZM1065.06 299.162L1062.52 294.339L1065.64 295.028L1065.06 299.162ZM1037.55 299.162V296.989C1037.55 296.671 1037.62 296.424 1037.77 296.247C1037.91 296.035 1038.12 295.911 1038.4 295.876L1042.38 295.028L1042.96 299.162H1037.55ZM1042.96 261.161L1042.38 265.295L1038.4 264.447C1038.12 264.376 1037.91 264.253 1037.77 264.076C1037.62 263.899 1037.55 263.652 1037.55 263.334V261.161H1042.96ZM1044.97 299.162L1045.56 295.028L1049.53 295.876C1049.81 295.911 1050.03 296.035 1050.17 296.247C1050.31 296.424 1050.38 296.671 1050.38 296.989V299.162H1044.97ZM1065.06 299.162L1065.64 295.028L1069.62 295.876C1069.9 295.911 1070.11 296.035 1070.25 296.247C1070.4 296.424 1070.47 296.671 1070.47 296.989V299.162H1065.06Z" fill="white"></path></g><defs><clipPath id="clip0_230_336"><rect width="1070" height="174" fill="white" transform="translate(0 135.737)"></rect></clipPath></defs></svg>