<?xml version="1.0" encoding="UTF-8"?>
<svg id="Layer_1" data-name="Layer 1" xmlns="http://www.w3.org/2000/svg" viewBox="0 0 296.48 90">
  <defs>
    <style>
      .cls-1 {
        fill: none;
      }

      .cls-2 {
        fill: #fcfbfb;
      }
    </style>
  </defs>
  <g id="logo_1x.png" data-name="logo 1x.png">
    <g id="Group_323" data-name="Group 323">
      <path id="Path_86000" data-name="Path 86000" class="cls-1" d="M41.77,0C24.41,1.39,11.81,9.63,3.95,24.71.93,30.53-.41,37.07.11,43.61c.1-2.56.35-5.52.75-8.87.04-.34.12-.67.25-.98.95-2.39,1.53-3.89,1.73-4.48,2.8-8.23,9.82-15.96,16.51-20.19C28.13,3.42,38.71,1.2,49.03,2.87c18.72,2.77,34,18.71,35.01,37.89.34,4.36,0,8.75-1.04,13-3.63,13.1-11.91,22.4-24.85,27.89-.72.3-1.48.49-2.25.57-.31.03-.59-.19-.63-.51-.01-.1,0-.2.05-.29,3.71-8.32-.42-19.41-4.93-26.85-6.95-11.47-17.98-18.48-30.61-22.54-.08-.02-.16.02-.19.09-.04.09,0,.19.09.23,15.6,6.91,27.09,17.53,30.48,34.91,1.27,6.49-.19,12-4.36,16.53-.17.18-.45.19-.63.03-4.46-3.88-11.2-8.04-14.86-12.56-2.96-3.66-5.01-7.97-5.97-12.58-1.06-5.09-1.79-10.24-2.19-15.42-.02-.1-.12-.16-.21-.14-.07.01-.12.06-.14.13-1.24,8.18-.94,18.67,3.38,25.88,4.68,7.82,11.46,11.04,19.24,15.55,2.31,1.34,3,2.33,5.13,4.5.41.41,1,.6,1.57.5,9.62-1.74,18.41-6.55,25.05-13.72,7.66-8.1,12.01-18.78,12.17-29.93C88.92,21.27,70.09,1.55,45.59,0"/>
      <path id="Path_86001" data-name="Path 86001" class="cls-1" d="M296.48,14.28c-.53-1.01-1.2-1.41-1.99-1.2-8.64,2.36-17.4,4.26-26.24,5.7-11.96,1.81-24.31,3.2-37.05,4.19-.24.02-.45-.15-.47-.39,0-.08,0-.15.04-.22l5.34-11.7c.48-1.05.42-2.27-.16-3.27l-.36-.63c-.45-.79-1.46-1.06-2.25-.61-.34.19-.59.5-.73.86l-5.99,16.09c-.14.38-.5.64-.91.66-10.51.57-21.21,1.7-32.1,3.38-1.33.15-2.61.6-3.74,1.31-.34.24-.42.72-.18,1.06.17.24.45.36.74.31,11.43-2.03,22.99-3.28,34.59-3.75.22-.01.41.16.42.38,0,.05,0,.09-.02.14-4.61,14.26-8.78,29.12-12.51,44.57-.07.32-.38.54-.71.5-3.05-.32-8.6,1.58-5.19,5.55.61.71,2.69,1.8,6.24,3.27.88.33,1.62.96,2.07,1.79.22.44.22.96,0,1.39-.24.46-.66.8-1.16.93-3.91,1.07-6.41.06-7.51-3.03-.05-.14-.2-.22-.34-.18-.09.03-.16.1-.18.2-.15.66-.17,1.34-.04,2,.06.35.26.66.55.86,2.89,1.95,9.48,2.93,10.94-1.42,1-2.98-2.58-3.97-4.62-5.09-.27-.15-.39-.47-.27-.76.49-1.02.8-2.12.92-3.25.03-.47.43-.83.89-.8.29.02.55.18.7.43l1.34,2.32c.1.16.31.21.47.11.08-.05.13-.12.15-.21.59-2.78-1.14-3.12-3.04-3.89-.16-.07-.24-.26-.17-.42.03-.06.07-.12.13-.15l.41-.24c.2-.12.35-.31.41-.54,3.77-13.76,8.06-27.19,12.88-40.3.47-1.28.99-2.64,1.56-4.07.18-.46.62-.77,1.11-.8,20.42-1.06,40.7-2.81,61.5-6.64,2.21-.28,4.02-1.9,4.54-4.07"/>
      <path id="Path_86002" data-name="Path 86002" class="cls-1" d="M45.74,90c.54-.4.76-1.11.53-1.74-.24-.59-.58-.9-1.03-.93-.37-.02-.74.1-1.02.35-.28.25-.44.6-.46.97-.03.57.31,1.02,1.02,1.35"/>
      <path id="Path_86003" data-name="Path 86003" class="cls-1" d="M104.87,68.22c5.43,4.46,13.27,1.64,18-2.66,10.47-9.53,16.53-22.7,18.45-36.73.79-5.72-.51-14.02-5.6-17.46-7.4-5-16.54-.06-21.7,5.97-7.56,8.83-11.8,21.11-13.25,33.41-.6,5.04-.05,14.06,4.1,17.47"/>
      <path id="Path_86004" data-name="Path 86004" class="cls-1" d="M147.55,41.86s.02.04,0,.06c-2.01,5.31-3.73,10.72-5.15,16.22-.14.57-.2,1.16-.17,1.75.04.62.58,1.08,1.19,1.04.19-.01.38-.08.54-.18,3.07-2.08,5.76-4.67,7.94-7.67.08-.12.24-.15.36-.06.08.06.12.16.11.25-.04.4-.11,1.23-.22,2.49-.19,2.28,1.24,4.28,3.61,2.97,3.58-1.98,6.71-8.88,8.31-13.14.05-.12.19-.18.31-.13.1.04.16.14.15.25-.8,5.43-2.03,11.98-1.44,17.15.07.6.62,1.02,1.22.95.34-.04.63-.24.8-.53l11.18-19.35c.17-.3.07-.68-.23-.85-.03-.02-.06-.03-.09-.04l-.39-.14c-.4-.15-.84.01-1.05.38l-9.53,16.49c-.07.12-.23.16-.36.09-.09-.05-.14-.15-.12-.26.45-3.07.91-5.64,1.38-7.69,2.2-9.69,4.91-19.27,8.11-28.68.22-.63-.12-1.31-.74-1.53-.11-.04-.22-.06-.33-.06-.98-.05-1.93.39-2.52,1.17-.11.13-.18.27-.23.43l-5.76,18.52c-.1.31-.36.53-.68.58-.32.05-.64-.09-.82-.35-1.52-2.22-4.3-.67-5.6,1.15-3.51,4.82-7.36,9.39-11.52,13.67-.06.07-.15.11-.25.1-.1,0-.18-.05-.24-.13-.04-.08-.06-.17-.07-.26-.01-.13,0-.26.05-.38l8.51-22.87c.31-.83.72-1.62,1.21-2.36,2.26-3.42,5.45-6.75,6.18-11.49.07-.45-.04-.92-.3-1.29-.25-.34-.64-.55-1.07-.54-1.38.03-2.62.85-3.18,2.11-5.39,9.93-10.22,18.8-14.49,26.6-.16.29-.05.66.24.82.03.02.07.03.1.04l.36.11c.42.13.88-.05,1.11-.43l3.01-5.23c.05-.08.16-.11.25-.06.01,0,.02.02.03.03l.28.28"/>
      <path id="Path_86005" data-name="Path 86005" class="cls-1" d="M42.14,29.81c0-2.33-1.89-4.22-4.22-4.22-2.33,0-4.22,1.89-4.22,4.22s1.89,4.22,4.22,4.22,4.22-1.89,4.22-4.22h0"/>
      <path id="Path_86006" data-name="Path 86006" class="cls-1" d="M44.07,43.38l7.21-16.89c.02-.05,0-.11-.06-.13,0,0,0,0,0,0h0c-.67-.3-1.68.31-2.83,1.67-1.34,1.71-2.44,3.59-3.26,5.6l-.15.35c-1.97,4.62-2.44,8.84-1.05,9.44h.02s.11,0,.13-.04"/>
      <path id="Path_86007" data-name="Path 86007" class="cls-1" d="M259.4,52.79l5.94-11.43c.28-.54.08-1.21-.47-1.5-.22-.11-.46-.15-.7-.11-2.02.35-2.96,1.55-3.7,3.47-.84,2.27-2.22,4.29-4.03,5.89-.31.27-.79.24-1.06-.07-.13-.15-.2-.35-.18-.55.14-1.89.83-3.69,1.98-5.19.71-1.14.98-2.49.75-3.81-.07-.43-.35-.81-.75-.99-.42-.2-.91-.21-1.35-.04-.82.36-1.47,1.01-1.83,1.83-2.58,5.17-4.89,10.48-6.92,15.89-.03.09-.13.13-.22.1l-.28-.08s-.02-.02-.02-.03l3.83-11.44c.19-.56-.11-1.17-.67-1.36-.04-.01-.08-.03-.13-.03l-.55-.11c-.97-.19-1.95.25-2.45,1.11l-8.27,14.33c-.08.14-.25.19-.4.13-.15-.06-.23-.21-.18-.37,1.44-5.8,5.27-11.55,8.25-16.16.52-.66.71-1.53.51-2.35-.11-.33-.38-.58-.71-.66-.37-.09-.76-.03-1.08.17-.87.52-1.62,1.24-2.18,2.09-2.32,4.07-4.22,8.36-5.68,12.81-.74,2.1-1.03,4.32-.85,6.54.01.26.14.5.33.66.2.17.46.24.72.21,1.47-.18,1.87-1.21,2.64-2.29,3.41-4.75,5.15-7.18,5.22-7.27.09-.14.28-.17.42-.08.1.07.15.2.12.32l-1.62,8.15c-.12.56.24,1.1.8,1.22.31.06.64-.02.88-.23,1.02-.85,1.88-1.87,2.53-3.03,2.13-3.83,3.67-6.48,4.63-7.95.12-.19.38-.25.57-.12.08.05.13.12.16.2.47,1.3,1.6,1.53,3.37.68.11-.05.23-.03.32.05.09.08.12.21.08.32l-3.68,9.88c-.15.39.05.82.44.97.25.09.53.05.73-.12l.71-.55c.07-.06.14-.13.19-.21,2.97-4.55,6.65-8.59,10.9-11.97.18-.15.45-.13.61.06.08.09.11.21.09.33-.21,1.7-.3,3.42-.26,5.13-.08.88.13,1.77.59,2.52.35.36.84.54,1.34.48.54-.06,1.03-.34,1.37-.76,2.25-2.78,5.37-7.05,9.34-12.81.25-.37.27-.84.05-1.23l-.25-.43c-.07-.13-.2-.21-.34-.22-.15,0-.29.05-.38.17-2.59,3.32-5.35,7.03-8.28,11.12-.11.13-.27.22-.44.26-.12.04-.26,0-.36-.08-.09-.09-.13-.23-.1-.36.81-3.31,2.92-7.3,3.13-11.29,0-.17-.05-.33-.17-.45-.11-.12-.27-.19-.43-.19-1.49.09-2.87.8-3.81,1.96-1.59,1.69-4.41,4.72-8.45,9.08-.06.09-.18.11-.26.04-.09-.06-.11-.18-.05-.26"/>
      <path id="Path_86008" data-name="Path 86008" class="cls-1" d="M236.05,40.84c-2.17-.96-5.7,2.28-7.88,7.22s-2.19,9.74-.02,10.69,5.7-2.28,7.88-7.22,2.19-9.74.02-10.69"/>
      <path id="Path_86009" data-name="Path 86009" class="cls-1" d="M33.16,49.26c3.74,4.95,6.16,8.79,7.25,11.5,1.26,3.75,2.22,7.6,2.86,11.5.62,3,1.5,5.95,2.62,8.81.05.1.16.14.27.1.08-.04.13-.12.11-.21-.79-4.69-1.6-9.2-2.44-13.53-1.22-7.17-4.85-13.71-10.29-18.53-.09-.11-.26-.12-.37-.03-.11.09-.12.26-.03.37,0,0,.01.01.02.02"/>
      <path id="Path_86010" data-name="Path 86010" class="cls-1" d="M8.04,55.92c0-2-1.62-3.62-3.62-3.62-2,0-3.62,1.62-3.62,3.62,0,2,1.62,3.62,3.62,3.62h0c2,0,3.62-1.62,3.62-3.62"/>
      <path id="Path_86011" data-name="Path 86011" class="cls-1" d="M12.17,67.91c0-1.72-1.4-3.12-3.12-3.12s-3.12,1.4-3.12,3.12c0,1.72,1.4,3.12,3.12,3.12s3.12-1.4,3.12-3.12h0"/>
      <path id="Path_86012" data-name="Path 86012" class="cls-1" d="M148.33,86.24c-.69-.67-1.2-1.51-1.45-2.44-.17-3.46-.15-6.92.05-10.38.06-.87-.59-1.63-1.46-1.69-.6-.04-1.17.26-1.48.78l-5.38,9.3c-.18.31-.59.42-.9.24-.1-.06-.18-.14-.24-.24l-5.35-9.26c-.45-.77-1.44-1.04-2.22-.58-.5.29-.8.82-.8,1.39v11.71c0,.16.07.31.18.41.12.11.28.16.44.14l.29-.03c.16-.02.27-.15.27-.31v-10.08c0-.2.16-.37.37-.37.13,0,.26.07.32.18l5.83,10.11c.19.33.6.44.93.25.1-.06.19-.15.25-.25l5.76-9.96c.11-.18.32-.27.52-.21.2.05.34.24.33.44l-.13,8c0,.25.03.5.11.73.51,1.52,1.94,2.55,3.55,2.53.14.01.26-.09.27-.23,0-.06-.02-.13-.06-.18"/>
      <path id="Path_86013" data-name="Path 86013" class="cls-1" d="M157.39,72.66c.42-.05.85,0,1.24.18.33.31.52.75.52,1.2v11.14c0,.28.23.51.51.51h9.03c.32,0,.64-.11.89-.32.82-.52,1.38-1.38,1.51-2.35,0-.11-.07-.2-.17-.24-.1-.03-.21,0-.27.09-1.75,2.43-4.93,2-8.51,1.84-.35-.02-.63-.31-.63-.66v-4.31c0-.34.27-.62.61-.62h6.41c.15,0,.28-.12.28-.27h0v-.34c0-.29-.23-.52-.52-.52h-6.33c-.25,0-.46-.21-.46-.46h0v-4.04c0-.28.22-.5.5-.5h6.22c.54,0,1.05.29,1.32.76l.41.72c.1.18.33.24.51.13.09-.05.15-.14.17-.23.17-.73-.11-1.48-.72-1.92-.24-.21-.55-.32-.87-.3-3.35.13-6.7.09-10.04-.12-.58-.03-1.15.09-1.67.35-.07.04-.1.13-.06.2.02.04.07.07.12.08"/>
      <path id="Path_86014" data-name="Path 86014" class="cls-1" d="M179.9,72.73h1.05c.47,0,.85.38.85.85h0v11.55c0,.25.19.46.44.48,5.92.56,16.38-.1,14.21-9.06-.09-.37-.26-.72-.5-1.02-1.29-1.84-3.34-3-5.58-3.15-2.98-.09-5.86-.21-8.63-.37-.66-.07-1.33.04-1.94.31-.1.04-.15.14-.12.24.03.1.12.17.22.17"/>
      <path id="Path_86015" data-name="Path 86015" class="cls-1" d="M226.8,72.84h.87c.46,0,.84.38.84.84v11.32c0,.38.32.69.7.69h1.06c.31,0,.57-.25.57-.56h0v-4.57c0-.18.08-.36.22-.48.14-.12.32-.17.5-.15,2.3.31,7.16.19,7.81-2.88.57-2.68-.52-4.23-3.27-4.65-.47-.07-3-.18-7.61-.33-.64-.1-1.29.02-1.85.33-.1.09-.12.25-.03.35.05.05.12.09.19.09"/>
      <path id="Path_86016" data-name="Path 86016" class="cls-1" d="M264.33,85.35c-.98-.43-1.8-1.17-2.34-2.1-.88-1.51-2.82-5.13-5.81-10.86-.11-.21-.32-.34-.56-.35-.23,0-.45.12-.57.32l-7.22,12.51c-.15.26-.06.59.2.74,0,0,0,0,0,0l.34.2c.06.03.12.04.18.03.06-.01.11-.05.14-.11l2.07-3.58c.15-.26.43-.43.74-.43h6.4c.42,0,.79.26.94.65.85,2.2,2.99,3.63,5.35,3.56.16.02.32-.09.34-.26.02-.14-.06-.27-.2-.32"/>
      <path id="Path_86017" data-name="Path 86017" class="cls-1" d="M17.37,76.54c0-1.07-.86-1.93-1.93-1.93s-1.93.86-1.93,1.93.86,1.93,1.93,1.93,1.93-.86,1.93-1.93h0"/>
      <path id="Path_86018" data-name="Path 86018" class="cls-1" d="M24.21,83.06c0-.9-.73-1.63-1.63-1.63s-1.63.73-1.63,1.63.73,1.63,1.63,1.63h0c.9,0,1.63-.73,1.63-1.63"/>
      <path id="Path_86019" data-name="Path 86019" class="cls-1" d="M31.96,87.31c0-.81-.66-1.47-1.47-1.47s-1.47.66-1.47,1.47c0,.81.66,1.47,1.47,1.47s1.47-.66,1.47-1.47h0"/>
      <path id="Path_86020" data-name="Path 86020" class="cls-1" d="M39.45,88.5c0-.67-.54-1.21-1.21-1.21s-1.21.54-1.21,1.21c0,.67.54,1.21,1.21,1.21h0c.67,0,1.21-.54,1.21-1.21"/>
      <path id="Path_86021" data-name="Path 86021" class="cls-1" d="M211.46,76.97l1.06-3.9c.04-.14-.04-.28-.18-.32l-.16-.04c-1.83-.5-3.58.06-3.9,1.25l-.03.09c-.13.65.08,1.33.56,1.79.59.62,1.35,1.06,2.18,1.27l.15.04c.14.04.28-.04.32-.18"/>
      <path id="Path_86022" data-name="Path 86022" class="cls-1" d="M137.63,24.59c-.52-4.72-3.49-9.65-8.67-9.71-16.29-.2-24.71,23.24-26.34,35.93-.66,5.12-.37,13.23,4.1,16.11,5.26,3.39,12.06.1,16.05-4.02,7.87-8.03,13-18.35,14.65-29.47.47-2.92.54-5.9.21-8.84"/>
      <path id="Path_86023" data-name="Path 86023" class="cls-1" d="M162,44c-.83-.5-3.28,2.03-5.48,5.66s-3.31,6.97-2.48,7.48,3.28-2.03,5.48-5.66,3.31-6.98,2.48-7.48"/>
      <path id="Path_86024" data-name="Path 86024" class="cls-1" d="M233.56,45.71c-1.06-.43-2.93,1.72-4.17,4.81s-1.4,5.93-.34,6.36,2.93-1.72,4.17-4.81,1.4-5.93.34-6.36"/>
      <path id="Path_86025" data-name="Path 86025" class="cls-1" d="M184.24,73.78l.02,10.06c0,.49.39.88.88.88h2.53c3.28.14,6.06-2.39,6.22-5.67v-.52c-.17-3.28-2.96-5.8-6.24-5.64h-2.53c-.49.01-.88.4-.88.89h0"/>
      <path id="Path_86026" data-name="Path 86026" class="cls-1" d="M230.79,73.48l.06,5.3c0,.34.28.61.62.6h0l1.68-.02c2.13-.03,3.83-1.45,3.81-3.17v-.28c-.02-1.72-1.76-3.1-3.89-3.07l-1.68.02c-.34,0-.61.28-.6.62h0"/>
      <path id="Path_86027" data-name="Path 86027" class="cls-1" d="M253,77.92c-.77,1.33-1.24,2.19-1.41,2.59-.05.1-.03.23.03.32.06.09.17.15.28.14,1.99-.12,3.78-.15,5.37-.09.14,0,.27-.08.38-.27.1-.13.12-.31.04-.46-.84-1.35-1.71-2.91-2.6-4.7-.05-.1-.15-.16-.26-.17-.11,0-.22.04-.29.13-.26.35-.77,1.19-1.54,2.51"/>
    </g>
    <path id="Path_86029" data-name="Path 86029" class="cls-2" d="M45.59,0c24.5,1.55,43.33,21.27,42.75,46.03-.16,11.15-4.51,21.83-12.17,29.93-6.64,7.17-15.43,11.98-25.05,13.72-.57.1-1.16-.09-1.57-.5-2.13-2.17-2.82-3.16-5.13-4.5-7.78-4.51-14.56-7.73-19.24-15.55-4.32-7.21-4.62-17.7-3.38-25.88.03-.1.12-.15.22-.13.07.02.12.07.13.14.4,5.18,1.13,10.33,2.19,15.42.96,4.61,3.01,8.92,5.97,12.58,3.66,4.52,10.4,8.68,14.86,12.56.18.16.46.15.63-.03,4.17-4.53,5.63-10.04,4.36-16.53-3.39-17.38-14.88-28-30.48-34.91-.09-.04-.13-.14-.09-.23.03-.07.11-.11.19-.09,12.63,4.06,23.66,11.07,30.61,22.54,4.51,7.44,8.64,18.53,4.93,26.85-.13.29,0,.62.29.75.09.04.19.06.29.05.77-.08,1.53-.27,2.25-.57,12.94-5.49,21.22-14.79,24.85-27.89,1.03-4.25,1.38-8.64,1.04-13-1.01-19.18-16.29-35.12-35.01-37.89-10.32-1.67-20.9.55-29.68,6.22C12.66,13.32,5.64,21.05,2.84,29.28c-.2.59-.78,2.09-1.73,4.48-.13.31-.21.64-.25.98-.4,3.35-.65,6.31-.75,8.87-.51-6.54.82-13.08,3.84-18.9C11.81,9.63,24.41,1.39,41.77,0h3.82Z"/>
    <path id="Path_86030" data-name="Path 86030" class="cls-2" d="M296.48,14.28v.37c-.52,2.17-2.33,3.79-4.54,4.07-20.8,3.83-41.08,5.58-61.5,6.64-.49.03-.93.34-1.11.8-.57,1.43-1.09,2.79-1.56,4.07-4.82,13.11-9.11,26.54-12.88,40.3-.06.23-.21.42-.41.54l-.41.24c-.15.09-.2.29-.11.44.04.06.09.1.15.13,1.9.77,3.63,1.11,3.04,3.89-.04.18-.23.3-.41.25-.09-.02-.16-.08-.21-.15l-1.34-2.32c-.23-.41-.75-.55-1.16-.33-.25.14-.42.4-.43.7-.12,1.13-.43,2.23-.92,3.25-.12.29,0,.61.27.76,2.04,1.12,5.62,2.11,4.62,5.09-1.46,4.35-8.05,3.37-10.94,1.42-.29-.2-.49-.51-.55-.86-.13-.66-.11-1.34.04-2,.03-.15.18-.23.32-.2.09.02.17.09.2.18,1.1,3.09,3.6,4.1,7.51,3.03.5-.13.92-.47,1.16-.93.23-.44.23-.95,0-1.39-.45-.83-1.19-1.46-2.07-1.79-3.55-1.47-5.63-2.56-6.24-3.27-3.41-3.97,2.14-5.87,5.19-5.55.33.04.64-.18.71-.5,3.73-15.45,7.9-30.31,12.51-44.57.07-.21-.05-.44-.26-.5-.04-.01-.09-.02-.14-.02-11.6.47-23.16,1.72-34.59,3.75-.41.07-.8-.22-.87-.63-.05-.29.07-.57.31-.74,1.13-.71,2.41-1.16,3.74-1.31,10.89-1.68,21.59-2.81,32.1-3.38.41-.02.77-.28.91-.66l5.99-16.09c.31-.86,1.26-1.29,2.12-.98.36.13.67.39.86.73l.36.63c.58,1,.64,2.22.16,3.27l-5.34,11.7c-.1.22,0,.47.21.57.07.03.15.05.22.04,12.74-.99,25.09-2.38,37.05-4.19,8.84-1.44,17.6-3.34,26.24-5.7.79-.21,1.46.19,1.99,1.2ZM211.46,76.97l1.06-3.9c.04-.14-.04-.28-.18-.32l-.16-.04c-1.83-.5-3.58.06-3.9,1.25l-.03.09c-.13.65.08,1.33.56,1.79.59.62,1.35,1.06,2.18,1.27l.15.04c.14.04.28-.04.32-.18h0Z"/>
    <path id="Path_86031" data-name="Path 86031" class="cls-2" d="M104.87,68.22c-4.15-3.41-4.7-12.43-4.1-17.47,1.45-12.3,5.69-24.58,13.25-33.41,5.16-6.03,14.3-10.97,21.7-5.97,5.09,3.44,6.39,11.74,5.6,17.46-1.92,14.03-7.98,27.2-18.45,36.73-4.73,4.3-12.57,7.12-18,2.66ZM137.63,24.59c-.52-4.72-3.49-9.65-8.67-9.71-16.29-.2-24.71,23.24-26.34,35.93-.66,5.12-.37,13.23,4.1,16.11,5.26,3.39,12.06.1,16.05-4.02,7.87-8.03,13-18.35,14.65-29.47.47-2.92.54-5.9.21-8.84Z"/>
    <path id="Path_86033" data-name="Path 86033" class="cls-2" d="M146.99,41.61l-3.01,5.23c-.23.38-.69.56-1.11.43l-.36-.11c-.32-.1-.49-.44-.38-.76.01-.04.03-.07.04-.1,4.27-7.8,9.1-16.67,14.49-26.6.56-1.26,1.8-2.08,3.18-2.11.42,0,.82.2,1.07.54.27.37.38.84.3,1.29-.73,4.74-3.92,8.07-6.18,11.49-.49.74-.9,1.53-1.21,2.36l-8.51,22.87c-.05.12-.06.25-.05.38,0,.09.03.18.07.26.06.07.15.12.24.13.09,0,.18-.03.25-.1,4.16-4.28,8.01-8.85,11.52-13.67,1.3-1.82,4.08-3.37,5.6-1.15.18.27.5.4.82.35.32-.05.58-.28.68-.58l5.76-18.52c.05-.16.12-.3.23-.43.59-.78,1.54-1.22,2.52-1.17.66.04,1.17.6,1.13,1.26,0,.11-.03.22-.06.33-3.2,9.41-5.91,18.99-8.11,28.68-.47,2.05-.93,4.62-1.38,7.69-.02.14.08.27.22.29.1.01.2-.03.26-.12l9.53-16.49c.21-.37.65-.53,1.05-.38l.39.14c.32.12.48.48.36.8-.01.03-.03.06-.04.09l-11.18,19.35c-.31.52-.97.69-1.49.38-.29-.17-.49-.47-.53-.8-.59-5.17.64-11.72,1.44-17.15.02-.13-.08-.25-.21-.27-.11-.01-.21.05-.25.15-1.6,4.26-4.73,11.16-8.31,13.14-2.37,1.31-3.8-.69-3.61-2.97.11-1.26.18-2.09.22-2.49.02-.14-.07-.28-.22-.3-.1-.02-.2.03-.25.11-2.18,3-4.87,5.59-7.94,7.67-.52.34-1.21.19-1.55-.32-.1-.16-.17-.34-.18-.54-.03-.59.03-1.18.17-1.75,1.42-5.5,3.14-10.91,5.15-16.22,0-.02,0-.04,0-.06l-.28-.28c-.07-.07-.18-.07-.25,0,0,0-.02.02-.03.03ZM162,44c-.83-.5-3.28,2.03-5.48,5.66s-3.31,6.97-2.48,7.48,3.28-2.03,5.48-5.66,3.31-6.98,2.48-7.48Z"/>
    <circle id="Ellipse_119" data-name="Ellipse 119" class="cls-2" cx="37.92" cy="29.81" r="4.22"/>
    <path id="Path_86034" data-name="Path 86034" class="cls-2" d="M44.07,43.38s-.08.07-.13.05h-.02c-1.39-.61-.92-4.83,1.05-9.45l.15-.35c.82-2.01,1.92-3.89,3.26-5.6,1.14-1.37,2.16-1.97,2.83-1.68h0c.05.03.08.09.06.14,0,0,0,0,0,0l-7.21,16.89Z"/>
    <path id="Path_86035" data-name="Path 86035" class="cls-2" d="M259.71,53.01c4.04-4.36,6.86-7.39,8.45-9.08.94-1.16,2.32-1.87,3.81-1.96.16,0,.32.07.43.19.11.12.17.28.17.45-.21,3.99-2.32,7.98-3.13,11.29-.03.13,0,.26.1.36.09.09.23.12.36.08.17-.04.33-.13.44-.26,2.93-4.09,5.69-7.8,8.28-11.12.09-.11.23-.18.38-.17.14,0,.27.09.34.22l.25.43c.22.39.2.86-.05,1.23-3.97,5.76-7.09,10.03-9.34,12.81-.34.42-.83.7-1.37.76-.5.06-1-.12-1.34-.48-.46-.75-.67-1.64-.59-2.52-.04-1.71.05-3.43.26-5.13.03-.24-.13-.45-.37-.48-.12-.02-.24.02-.33.09-4.25,3.38-7.93,7.42-10.9,11.97-.05.08-.12.15-.19.21l-.71.55c-.32.26-.8.21-1.05-.12-.16-.21-.21-.48-.12-.73l3.68-9.88c.04-.11,0-.24-.08-.32-.09-.08-.21-.1-.32-.05-1.77.85-2.9.62-3.37-.68-.08-.21-.31-.32-.53-.24-.08.03-.16.09-.2.16-.96,1.47-2.5,4.12-4.63,7.95-.65,1.16-1.51,2.18-2.53,3.03-.43.37-1.08.32-1.45-.11-.21-.24-.29-.57-.23-.88l1.62-8.15c.04-.16-.06-.32-.22-.36-.12-.03-.25.02-.32.12-.07.09-1.81,2.52-5.22,7.27-.77,1.08-1.17,2.11-2.64,2.29-.26.03-.52-.04-.72-.21-.2-.16-.32-.4-.33-.66-.18-2.22.11-4.44.85-6.54,1.46-4.45,3.36-8.74,5.68-12.81.56-.85,1.31-1.57,2.18-2.09.32-.2.71-.26,1.08-.17.34.08.6.33.71.66.2.82,0,1.69-.51,2.35-2.98,4.61-6.81,10.36-8.25,16.16-.04.15.04.31.18.37.15.06.32,0,.4-.13l8.27-14.33c.5-.86,1.48-1.3,2.45-1.11l.55.11c.58.12.95.68.83,1.26,0,.04-.02.09-.03.13l-3.83,11.44s0,.02.02.03l.28.08c.09.03.19-.01.22-.1,2.03-5.41,4.34-10.72,6.92-15.89.36-.82,1.01-1.47,1.83-1.83.43-.18.92-.16,1.35.04.4.19.68.56.75.99.23,1.32-.04,2.67-.75,3.81-1.15,1.5-1.84,3.3-1.98,5.19-.03.41.28.77.69.8.2.01.4-.05.55-.18,1.81-1.6,3.19-3.62,4.03-5.89.74-1.92,1.68-3.12,3.7-3.47.6-.1,1.18.3,1.28.91.04.24,0,.49-.11.7l-5.94,11.43c-.06.09-.04.2.05.26.09.06.2.04.26-.04h0Z"/>
    <path id="Path_86036" data-name="Path 86036" class="cls-2" d="M236.05,40.84c2.17.96,2.17,5.75-.02,10.69s-5.71,8.18-7.88,7.22-2.16-5.75.02-10.69,5.71-8.18,7.88-7.22ZM233.56,45.71c-1.06-.43-2.93,1.72-4.17,4.81s-1.4,5.93-.34,6.36,2.93-1.72,4.17-4.81,1.4-5.93.34-6.36Z"/>
    <path id="Path_86037" data-name="Path 86037" class="cls-2" d="M33.54,48.9c5.44,4.82,9.07,11.36,10.29,18.53.84,4.33,1.65,8.84,2.44,13.53.01.11-.06.21-.17.22-.09.01-.17-.03-.21-.11-1.12-2.86-2-5.81-2.62-8.81-.64-3.9-1.6-7.75-2.86-11.5-1.09-2.71-3.51-6.55-7.25-11.5-.09-.11-.08-.27.03-.37.1-.09.26-.08.35,0Z"/>
    <circle id="Ellipse_122" data-name="Ellipse 122" class="cls-2" cx="4.42" cy="55.92" r="3.62"/>
    <circle id="Ellipse_123" data-name="Ellipse 123" class="cls-2" cx="9.05" cy="67.91" r="3.12"/>
    <path id="Path_86038" data-name="Path 86038" class="cls-2" d="M148.12,86.65c-1.61.02-3.04-1.01-3.55-2.53-.08-.23-.12-.48-.11-.73l.13-8c0-.21-.13-.39-.33-.44-.2-.05-.41.03-.52.21l-5.76,9.96c-.19.33-.6.44-.93.25-.1-.06-.19-.15-.25-.25l-5.83-10.11c-.1-.18-.33-.24-.51-.13-.12.07-.19.19-.18.32v10.08c0,.16-.11.29-.27.31l-.29.03c-.16.02-.32-.03-.44-.14-.12-.1-.19-.25-.18-.41v-11.71c0-.89.73-1.62,1.63-1.61.57,0,1.11.31,1.39.8l5.35,9.26c.18.31.59.42.9.24.1-.06.18-.14.24-.24l5.38-9.3c.44-.75,1.41-1.01,2.16-.57.52.3.82.88.78,1.48-.2,3.46-.22,6.92-.05,10.38.25.93.76,1.77,1.45,2.44.09.11.07.26-.03.35-.05.04-.11.06-.18.06h0Z"/>
    <path id="Path_86039" data-name="Path 86039" class="cls-2" d="M157.33,72.38c.52-.26,1.09-.38,1.67-.35,3.34.21,6.69.25,10.04.12.32-.02.63.09.87.3.61.44.89,1.19.72,1.92-.05.2-.25.32-.45.27-.1-.02-.18-.09-.23-.17l-.41-.72c-.27-.47-.78-.76-1.32-.76h-6.22c-.28,0-.5.22-.5.5v4.04c0,.25.21.46.46.46h6.33c.29,0,.52.23.52.52h0v.34c0,.15-.13.27-.28.27h-6.41c-.34,0-.61.28-.61.62h0v4.31c0,.35.28.64.63.66,3.58.16,6.76.59,8.51-1.84.06-.09.17-.12.27-.09.1.04.17.13.17.24-.13.97-.69,1.83-1.51,2.35-.25.21-.57.32-.89.32h-9.03c-.28,0-.5-.23-.5-.51h0s0-11.14,0-11.14c0-.45-.19-.89-.52-1.2-.39-.17-.82-.23-1.24-.18-.08,0-.14-.08-.14-.16,0-.05.03-.09.08-.12Z"/>
    <path id="Path_86040" data-name="Path 86040" class="cls-2" d="M179.8,72.32c.61-.27,1.28-.38,1.94-.31,2.77.16,5.65.28,8.63.37,2.24.15,4.29,1.31,5.58,3.15.24.3.41.65.5,1.02,2.17,8.96-8.29,9.62-14.21,9.06-.25-.02-.44-.23-.44-.48v-11.55c0-.47-.38-.85-.85-.85h-1.05c-.1,0-.2-.07-.22-.17-.03-.1.03-.2.12-.24ZM184.24,73.78l.02,10.06c0,.49.39.88.88.88h2.53c3.28.14,6.06-2.39,6.22-5.67v-.52c-.17-3.28-2.96-5.8-6.24-5.64h-2.53c-.49.01-.88.4-.88.89h0Z"/>
    <path id="Path_86041" data-name="Path 86041" class="cls-2" d="M226.64,72.4c.56-.31,1.21-.43,1.85-.33,4.61.15,7.14.26,7.61.33,2.75.42,3.84,1.97,3.27,4.65-.65,3.07-5.51,3.19-7.81,2.88-.18-.03-.36.03-.5.15-.14.12-.22.3-.22.48v4.57c0,.31-.26.56-.57.56h-1.06c-.38,0-.69-.31-.7-.69v-11.32c0-.46-.38-.84-.84-.84h-.87c-.14,0-.25-.11-.25-.25,0-.07.03-.14.09-.19h0ZM230.79,73.48l.06,5.3c0,.34.28.61.62.6h0l1.68-.02c2.13-.03,3.83-1.45,3.81-3.17v-.28c-.02-1.72-1.76-3.1-3.89-3.07l-1.68.02c-.34,0-.61.28-.6.62h0s0,0,0,0Z"/>
    <path id="Path_86042" data-name="Path 86042" class="cls-2" d="M264.33,85.35c.16.06.24.23.18.38-.05.13-.18.22-.32.2-2.36.07-4.5-1.36-5.35-3.56-.15-.39-.52-.65-.94-.65h-6.4c-.31,0-.59.17-.74.43l-2.07,3.58c-.03.05-.08.09-.14.11-.06.01-.13,0-.18-.03l-.34-.2c-.26-.15-.35-.48-.2-.74,0,0,0,0,0,0l7.22-12.51c.12-.2.33-.33.57-.32.24,0,.45.14.56.35,2.99,5.73,4.93,9.35,5.81,10.86.54.93,1.36,1.67,2.34,2.1ZM253,77.92c-.77,1.33-1.24,2.19-1.41,2.59-.05.1-.03.23.03.32.06.09.17.15.28.14,1.99-.12,3.78-.15,5.37-.09.14,0,.27-.08.38-.27.1-.13.12-.31.04-.46-.84-1.35-1.71-2.91-2.6-4.7-.05-.1-.15-.16-.26-.17-.11,0-.22.04-.29.13-.26.35-.77,1.19-1.54,2.51Z"/>
    <circle id="Ellipse_124" data-name="Ellipse 124" class="cls-2" cx="15.44" cy="76.54" r="1.93"/>
    <circle id="Ellipse_125" data-name="Ellipse 125" class="cls-2" cx="22.58" cy="83.06" r="1.63"/>
    <circle id="Ellipse_126" data-name="Ellipse 126" class="cls-2" cx="30.49" cy="87.31" r="1.47"/>
    <circle id="Ellipse_127" data-name="Ellipse 127" class="cls-2" cx="38.24" cy="88.5" r="1.21"/>
    <path id="Path_86047" data-name="Path 86047" class="cls-2" d="M45.74,90h-.96c-.71-.33-1.05-.78-1.02-1.35.02-.37.18-.72.46-.97.28-.25.65-.38,1.02-.35.45.03.79.34,1.03.93.23.63.01,1.34-.53,1.74Z"/>
  </g>
</svg>