<svg width="149" height="58" viewBox="0 0 149 58" fill="none" xmlns="http://www.w3.org/2000/svg">
<path d="M47.3388 10.1294C47.3388 10.1294 22.3991 14.0862 22.3991 31.9949C22.3991 49.9035 37.6035 58.0001 37.6035 58.0001C37.6035 58.0001 18.927 52.2364 16.5896 25.7966C14.5246 2.71894 47.3388 10.1294 47.3388 10.1294Z" fill="#304463"/>
<path d="M32.4512 56.4676C-3.08627 37.5297 26.4829 1.18642 0 20.1243C16.566 12.5537 -7.35257 38.0329 32.4512 56.4676Z" fill="#304463"/>
<path d="M19.6768 0.36308C17.1579 -0.711895 14.1624 0.683285 13.005 3.45077C11.8477 6.21826 12.9596 9.32883 15.4786 10.4038C17.9975 11.4788 20.993 10.0836 22.1503 7.31611C23.3077 4.54862 22.1957 1.43806 19.6768 0.36308Z" fill="#304463"/>
<path d="M36.9805 25.0646C36.9805 21.3364 39.4313 16.5105 45.9216 16.5105C51.2998 16.5105 54.6584 19.6668 54.6584 24.6529C54.6584 29.6389 51.1864 33.5957 45.6946 33.5957C39.4994 33.6186 36.9805 28.9299 36.9805 25.0646ZM51.6402 25.4763C51.6402 20.5817 48.849 17.5626 45.3088 17.5626C42.8126 17.5626 39.9987 18.9578 39.9987 24.3784C39.9987 28.907 42.4949 32.4979 46.6477 32.4979C48.1228 32.5208 51.6402 31.766 51.6402 25.4763Z" fill="#304463"/>
<path d="M57.4068 18.9578C56.9075 17.7685 56.5444 17.5169 55.7729 17.311C55.4552 17.2195 55.0921 17.2196 54.9332 17.2196C54.729 17.2196 54.6836 17.1509 54.6836 17.0137C54.6836 16.8307 54.9332 16.8079 55.2509 16.8079C56.4083 16.8079 57.6337 16.8765 58.3826 16.8765C58.9272 16.8765 59.9711 16.8079 61.0377 16.8079C61.2873 16.8079 61.5369 16.8536 61.5369 17.0137C61.5369 17.1738 61.4008 17.2196 61.2192 17.2196C60.8788 17.2196 60.5384 17.2424 60.3796 17.3797C60.2207 17.494 60.1526 17.6312 60.1526 17.8371C60.1526 18.1116 60.3569 18.7291 60.6519 19.5067L64.3736 29.4102H64.4643C65.3947 27.0087 68.2087 19.987 68.7306 18.5461C68.8441 18.2717 68.9349 17.9286 68.9349 17.7456C68.9349 17.5626 68.8441 17.4025 68.6626 17.3339C68.4129 17.2424 68.0725 17.2196 67.8002 17.2196C67.596 17.2196 67.4371 17.1967 67.4371 17.0366C67.4371 16.8536 67.6187 16.8079 68.0498 16.8079C69.1391 16.8079 70.0468 16.8765 70.3192 16.8765C70.6822 16.8765 71.7034 16.8079 72.3615 16.8079C72.6339 16.8079 72.8154 16.8536 72.8154 17.0137C72.8154 17.1738 72.6792 17.2196 72.475 17.2196C72.2481 17.2196 71.7942 17.2196 71.4084 17.4711C71.1361 17.6541 70.7957 18.0429 70.2284 19.4381C69.3887 21.4966 68.7987 22.663 67.6414 25.339C66.2571 28.5182 65.2359 30.8969 64.7593 31.9947C64.192 33.2527 64.0559 33.6186 63.7608 33.6186C63.4885 33.6186 63.3524 33.3213 62.9439 32.2921L57.4068 18.9578Z" fill="#304463"/>
<path d="M86.4534 32.9097C86.2038 32.9097 85.8634 32.8868 85.5457 32.8182C85.0918 32.7039 84.4564 32.4065 83.6395 30.4395C82.2552 27.1231 78.7832 18.226 78.2839 17.0367C78.057 16.5335 77.9435 16.3276 77.7393 16.3276C77.535 16.3276 77.3989 16.5564 77.1266 17.1968L71.7029 30.897C71.2717 31.9948 70.8633 32.7267 69.8648 32.864C69.6832 32.8868 69.3882 32.9097 69.2067 32.9097C69.0251 32.9097 68.957 32.9554 68.957 33.0927C68.957 33.2756 69.0932 33.3214 69.3655 33.3214C70.5002 33.3214 71.6802 33.2528 71.9298 33.2528C72.5879 33.2528 73.541 33.3214 74.2218 33.3214C74.4488 33.3214 74.5849 33.2756 74.5849 33.0927C74.5849 32.9554 74.5168 32.9097 74.2672 32.9097H73.9495C73.2687 32.9097 73.0872 32.6352 73.0872 32.2464C73.0872 31.9948 73.2006 31.4688 73.4049 30.9198L74.5849 27.8093C74.6303 27.6721 75.1069 26.4827 75.1296 26.3912L77.1266 21.0392C77.1493 20.9477 77.1946 20.8334 77.2627 20.8334C77.3308 20.8334 77.3535 20.9477 77.3762 21.0392L79.3278 26.4141C79.3505 26.4827 79.8044 27.6721 79.8497 27.7864L81.5744 32.4065C81.6879 32.6581 81.529 32.864 81.3702 32.9097C81.1659 32.9326 81.0752 32.9783 81.0752 33.1155C81.0752 33.2756 81.3248 33.2756 81.7333 33.2985C83.4579 33.3443 85.0465 33.3443 85.818 33.3443C86.6123 33.3443 86.8165 33.2985 86.8165 33.1155C86.7484 32.9326 86.635 32.9097 86.4534 32.9097Z" fill="#304463"/>
<path d="M90.4904 18.0429L87.268 18.1344C86.0199 18.1801 85.4979 18.2945 85.1802 18.7748C84.9533 19.095 84.8625 19.3695 84.8171 19.5296C84.7718 19.7126 84.7037 19.7812 84.5675 19.7812C84.4087 19.7812 84.3633 19.6668 84.3633 19.4381C84.3633 19.095 84.7718 17.1052 84.8171 16.9222C84.8852 16.6477 84.9533 16.5105 85.0668 16.5105C85.2483 16.5105 85.4526 16.7163 85.9972 16.7621C86.6326 16.8307 87.4495 16.8764 88.153 16.8764H96.7083C97.3891 16.8764 97.8657 16.8078 98.2061 16.7621C98.5238 16.6935 98.7053 16.6477 98.7961 16.6477C98.955 16.6477 98.9777 16.785 98.9777 17.1052C98.9777 17.5626 98.9096 19.0721 98.9096 19.6439C98.8869 19.8727 98.8415 19.987 98.7053 19.987C98.5238 19.987 98.4784 19.8727 98.4784 19.5525L98.4557 19.3009C98.4103 18.7291 97.8203 18.1344 95.9141 18.0887L93.1909 18.02V26.9629C93.1909 28.9756 93.1909 30.691 93.3044 31.6288C93.3725 32.2463 93.4859 32.7266 94.144 32.7952C94.439 32.841 94.9156 32.8867 95.256 32.8867C95.5056 32.8867 95.5964 32.9553 95.5964 33.0697C95.5964 33.2298 95.4148 33.2984 95.1879 33.2984C93.7582 33.2984 92.3967 33.2298 91.7839 33.2298C91.2847 33.2298 89.9231 33.2984 89.0608 33.2984C88.7884 33.2984 88.6296 33.2298 88.6296 33.0697C88.6296 32.9553 88.7204 32.8867 88.97 32.8867C89.2877 32.8867 89.56 32.841 89.7416 32.7952C90.1727 32.7037 90.3089 32.2234 90.377 31.6059C90.4904 30.691 90.4904 28.9756 90.4904 26.9629V18.0429Z" fill="#304463"/>
<path d="M102.973 23.1433C102.973 19.8269 102.973 19.2094 102.928 18.5232C102.883 17.7913 102.678 17.4025 102.202 17.311C101.975 17.2424 101.68 17.2196 101.43 17.2196C101.203 17.2196 101.09 17.1738 101.09 16.9908C101.09 16.8536 101.271 16.8079 101.612 16.8079C102.429 16.8079 103.79 16.8765 104.426 16.8765C104.97 16.8765 106.241 16.8079 107.058 16.8079C107.33 16.8079 107.512 16.8536 107.512 16.9908C107.512 17.1738 107.376 17.2196 107.172 17.2196C106.945 17.2196 106.786 17.2424 106.514 17.2882C105.923 17.4025 105.765 17.7685 105.719 18.5232C105.674 19.2323 105.674 19.8269 105.674 23.1433V26.9858C105.674 29.09 105.674 30.8283 105.765 31.766C105.833 32.3607 105.992 32.7495 106.627 32.841C106.922 32.8867 107.399 32.9325 107.739 32.9325C107.966 32.9325 108.079 33.0011 108.079 33.1155C108.079 33.2756 107.898 33.3442 107.671 33.3442C106.241 33.3442 104.88 33.2756 104.29 33.2756C103.79 33.2756 102.429 33.3442 101.566 33.3442C101.294 33.3442 101.135 33.2756 101.135 33.1155C101.135 33.0011 101.226 32.9325 101.476 32.9325C101.793 32.9325 102.066 32.8867 102.247 32.841C102.678 32.7495 102.815 32.3836 102.883 31.7432C102.996 30.8283 102.996 29.1129 102.996 26.9858V23.1433H102.973Z" fill="#304463"/>
<path d="M110.164 25.0646C110.164 21.3364 112.615 16.5105 119.105 16.5105C124.483 16.5105 127.842 19.6668 127.842 24.6529C127.842 29.6389 124.393 33.5957 118.878 33.5957C112.683 33.6186 110.164 28.9299 110.164 25.0646ZM124.801 25.4763C124.801 20.5817 122.01 17.5626 118.47 17.5626C115.973 17.5626 113.16 18.9578 113.16 24.3784C113.16 28.907 115.656 32.4979 119.809 32.4979C121.306 32.5208 124.801 31.766 124.801 25.4763Z" fill="#304463"/>
<path d="M133.561 30.3481C133.606 32.0406 133.878 32.6124 134.31 32.7725C134.673 32.9098 135.081 32.9326 135.444 32.9326C135.671 32.9326 135.807 32.9784 135.807 33.1156C135.807 33.2986 135.603 33.3443 135.308 33.3443C133.901 33.3443 133.039 33.2757 132.63 33.2757C132.426 33.2757 131.428 33.3443 130.293 33.3443C130.021 33.3443 129.816 33.3214 129.816 33.1156C129.816 32.9784 129.953 32.9326 130.157 32.9326C130.452 32.9326 130.838 32.9098 131.133 32.8183C131.7 32.6353 131.791 32.0178 131.813 30.1194L132.018 17.2197C132.018 16.7851 132.086 16.4878 132.29 16.4878C132.54 16.4878 132.721 16.7623 133.084 17.1739C133.334 17.4484 136.624 21.0164 139.801 24.1727C141.276 25.6594 144.204 28.7928 144.567 29.1359H144.68L144.453 19.3468C144.431 18.0202 144.227 17.6085 143.727 17.3798C143.41 17.2426 142.888 17.2426 142.57 17.2426C142.32 17.2426 142.23 17.174 142.23 17.0367C142.23 16.8537 142.456 16.8309 142.797 16.8309C143.932 16.8309 144.953 16.8995 145.407 16.8995C145.656 16.8995 146.473 16.8309 147.517 16.8309C147.789 16.8309 148.016 16.8537 148.016 17.0367C148.016 17.174 147.88 17.2426 147.631 17.2426C147.404 17.2426 147.245 17.2426 146.972 17.3112C146.36 17.4942 146.201 17.9516 146.178 19.1638L145.951 32.9098C145.951 33.3901 145.86 33.5959 145.679 33.5959C145.429 33.5959 145.18 33.3672 144.953 33.1156C143.591 31.8119 140.823 28.9529 138.576 26.7115C136.216 24.3557 133.81 21.634 133.425 21.2223H133.357L133.561 30.3481Z" fill="#304463"/>
<path d="M68.5529 44.4142C68.5983 44.803 68.689 45.4206 69.1656 45.5578C69.506 45.6493 69.801 45.6493 69.9145 45.6493C69.9825 45.6493 70.0052 45.6493 70.0052 45.695C70.0052 45.7636 69.9145 45.7865 69.7783 45.7865C69.5287 45.7865 68.3032 45.7637 67.8721 45.7179C67.5998 45.695 67.5544 45.6722 67.5544 45.6035C67.5544 45.5578 67.5771 45.5349 67.6451 45.5349C67.6905 45.5349 67.7132 45.3291 67.6905 45.1461L67.1459 39.5654H67.1005L64.3093 45.1919C64.0823 45.6722 64.0369 45.7636 63.9235 45.7636C63.8554 45.7636 63.7873 45.6493 63.5604 45.2605C63.2654 44.7344 62.2896 42.8589 62.2215 42.7446C62.1307 42.5616 60.8372 39.9542 60.7237 39.6569H60.6784L60.2245 44.6658C60.2245 44.8488 60.2245 45.0318 60.2245 45.2147C60.2245 45.3748 60.3607 45.5121 60.5195 45.5578C60.7011 45.6035 60.8826 45.6035 60.9507 45.6035C60.9961 45.6035 61.0414 45.6264 61.0414 45.6493C61.0414 45.7179 60.9734 45.7408 60.8372 45.7408C60.406 45.7408 59.8614 45.7179 59.7706 45.7179C59.6572 45.7179 59.1125 45.7408 58.8175 45.7408C58.7041 45.7408 58.6133 45.7179 58.6133 45.6493C58.6133 45.6264 58.6814 45.6035 58.7267 45.6035C58.8175 45.6035 58.9083 45.6035 59.0671 45.5807C59.4529 45.5121 59.4756 45.1004 59.521 44.6887L60.338 37.6442C60.3607 37.5298 60.3833 37.4612 60.4741 37.4612C60.5422 37.4612 60.5876 37.5069 60.6557 37.6213L64.1277 44.4371L67.4863 37.6442C67.5317 37.5527 67.5771 37.4612 67.6451 37.4612C67.7132 37.4612 67.7586 37.5527 67.7813 37.7585L68.5529 44.4142Z" fill="#304463"/>
<path d="M74.3156 40.7775C74.3156 39.085 74.3156 38.7876 74.293 38.4446C74.2703 38.0786 74.1795 37.8956 73.8164 37.827C73.7256 37.8042 73.5214 37.8042 73.4306 37.8042C73.3852 37.8042 73.3398 37.7813 73.3398 37.7355C73.3398 37.6669 73.4079 37.6441 73.5214 37.6441C73.7937 37.6441 74.0887 37.6441 74.3383 37.6441L74.8149 37.6669C74.9057 37.6669 77.1523 37.6669 77.4246 37.6669C77.6515 37.6669 77.8331 37.6441 77.9012 37.6212C77.9692 37.6212 78.0146 37.5754 78.06 37.5754C78.1054 37.5754 78.1054 37.6212 78.1054 37.6669C78.1054 37.7355 78.0373 37.8728 78.0146 38.1701C77.9919 38.2845 77.9692 38.7648 77.9692 38.8791C77.9465 38.9249 77.9239 38.9935 77.8785 38.9935C77.8104 38.9935 77.7877 38.9477 77.7877 38.8563C77.7877 38.7876 77.7877 38.6047 77.7196 38.4674C77.6515 38.2845 77.5154 38.1701 76.9027 38.1015C76.6984 38.0786 75.473 38.0786 75.3368 38.0786C75.2914 38.0786 75.2688 38.1015 75.2688 38.193V41.1663C75.2688 41.2349 75.2688 41.2807 75.3368 41.2807C75.473 41.2807 76.88 41.2807 77.1523 41.2578C77.4246 41.2349 77.5835 41.2121 77.6969 41.0977C77.7877 41.0062 77.8331 40.9605 77.8785 40.9605C77.9012 40.9605 77.9239 40.9833 77.9239 41.052C77.9239 41.1206 77.8785 41.3035 77.8331 41.6695C77.8104 41.8753 77.7877 42.287 77.7877 42.3556C77.7877 42.4471 77.7877 42.5615 77.6969 42.5615C77.6515 42.5615 77.6288 42.5157 77.6288 42.47C77.6288 42.3556 77.6288 42.2413 77.5835 42.1041C77.5381 41.944 77.4246 41.761 76.9934 41.7152C76.6757 41.6924 75.5638 41.6695 75.3595 41.6695C75.3141 41.6695 75.2914 41.6924 75.2914 41.7381V42.6987C75.2914 43.0647 75.2688 44.3226 75.2914 44.5513C75.3141 45.3061 75.4957 45.4433 76.6076 45.4433C76.9027 45.4433 77.4019 45.4433 77.6969 45.329C77.9919 45.2146 78.1281 44.9859 78.2189 44.5513C78.2416 44.437 78.2643 44.3912 78.3323 44.3912C78.4004 44.3912 78.4004 44.4827 78.4004 44.5513C78.4004 44.6428 78.3096 45.3747 78.2416 45.6034C78.1508 45.8779 78.06 45.8779 77.6288 45.8779C76.7665 45.8779 76.1538 45.855 75.6999 45.855C75.2688 45.8322 74.9964 45.8322 74.8149 45.8322C74.7922 45.8322 74.588 45.8322 74.361 45.855C74.1341 45.855 73.8845 45.8779 73.7029 45.8779C73.5668 45.8779 73.5214 45.855 73.5214 45.7864C73.5214 45.7635 73.5441 45.7178 73.6122 45.7178C73.7029 45.7178 73.8618 45.6949 73.9526 45.6721C74.1795 45.6263 74.2249 45.3976 74.2703 45.0774C74.3383 44.62 74.3383 43.7737 74.3383 42.7216V40.7775H74.3156Z" fill="#304463"/>
<path d="M83.5305 40.7776C83.5305 39.0851 83.5305 38.7878 83.5078 38.4447C83.4851 38.0787 83.3943 37.8958 83.0313 37.8271C82.9405 37.8043 82.7362 37.8043 82.6455 37.8043C82.6001 37.8043 82.5547 37.7814 82.5547 37.7357C82.5547 37.667 82.6228 37.6442 82.7362 37.6442C83.2582 37.6442 83.9617 37.667 84.0297 37.667C84.1659 37.667 84.8921 37.6442 85.5729 37.6442C86.7075 37.6442 88.7726 37.5527 90.1342 38.8792C90.7015 39.451 91.2462 40.343 91.2462 41.6239C91.2462 42.9962 90.6561 44.0483 90.0207 44.6658C89.5215 45.1461 88.5003 45.9009 86.5714 45.9009C86.0721 45.9009 85.4821 45.878 84.9829 45.8323C84.4836 45.8094 84.0978 45.7637 84.0297 45.7637C84.007 45.7637 83.8255 45.7637 83.5759 45.7865C83.3489 45.7865 83.0766 45.8094 82.9178 45.8094C82.7816 45.8094 82.7362 45.7865 82.7362 45.7179C82.7362 45.695 82.7589 45.6493 82.827 45.6493C82.9178 45.6493 83.0766 45.6264 83.1674 45.6036C83.3943 45.5578 83.4624 45.3291 83.5078 45.0089C83.5759 44.5515 83.5759 43.7052 83.5759 42.6531V40.7776H83.5305ZM84.4836 41.9441C84.4836 43.0877 84.5063 44.094 84.5063 44.2999C84.5063 44.5743 84.5517 45.0089 84.6425 45.1233C84.7786 45.3291 85.2325 45.5578 86.5714 45.5578C87.638 45.5578 88.6138 45.1919 89.2719 44.5515C89.8619 44.0025 90.1796 42.9733 90.1796 41.9669C90.1796 40.5946 89.5442 39.7026 89.0903 39.2452C88.0237 38.1702 86.7302 38.033 85.3686 38.033C85.1417 38.033 84.7105 38.0559 84.6198 38.1016C84.5063 38.1473 84.4836 38.1931 84.4836 38.3303C84.4609 38.6963 84.4609 39.7941 84.4609 40.6404V41.9441H84.4836Z" fill="#304463"/>
<path d="M101.503 45.6722C101.344 45.6035 101.344 45.5578 101.344 45.2605C101.344 44.7115 101.389 44.277 101.389 44.1169C101.389 44.0025 101.435 43.9339 101.48 43.9339C101.548 43.9339 101.571 43.9568 101.571 44.0483C101.571 44.1397 101.571 44.2999 101.593 44.4371C101.775 45.2376 102.524 45.5349 103.273 45.5349C104.362 45.5349 104.907 44.7802 104.907 44.094C104.907 43.3392 104.566 42.9047 103.59 42.1499L103.068 41.7611C101.866 40.8233 101.593 40.1372 101.593 39.4053C101.593 38.2388 102.501 37.4612 103.953 37.4612C104.407 37.4612 104.725 37.5069 105.02 37.5755C105.247 37.6213 105.315 37.6213 105.406 37.6213C105.497 37.6213 105.519 37.6442 105.519 37.6899C105.519 37.7356 105.474 38.1016 105.474 38.8335C105.474 39.0165 105.451 39.0851 105.383 39.0851C105.315 39.0851 105.292 39.0393 105.292 38.9478C105.292 38.8106 105.202 38.5362 105.134 38.3989C105.065 38.2846 104.748 37.8271 103.704 37.8271C102.91 37.8271 102.297 38.2846 102.297 39.0851C102.297 39.7026 102.592 40.0914 103.681 40.892L103.999 41.1207C105.338 42.127 105.655 42.7903 105.655 43.6594C105.655 44.094 105.474 44.9174 104.68 45.4434C104.18 45.7636 103.568 45.9009 102.955 45.9009C102.478 45.9695 101.956 45.878 101.503 45.6722Z" fill="#304463"/>
<path d="M110.987 40.7775C110.987 39.085 110.987 38.7876 110.964 38.4446C110.941 38.0786 110.851 37.8956 110.465 37.827C110.374 37.8041 110.17 37.8041 110.079 37.8041C110.034 37.8041 109.988 37.7813 109.988 37.7355C109.988 37.6669 110.034 37.644 110.17 37.644C110.692 37.644 111.373 37.6669 111.463 37.6669C111.713 37.6669 112.371 37.644 112.893 37.644C114.323 37.644 114.822 38.1015 115.003 38.2616C115.253 38.4903 115.571 38.9706 115.571 39.5424C115.571 41.0748 114.391 42.1269 112.78 42.1269C112.711 42.1269 112.598 42.1269 112.53 42.1269C112.485 42.1269 112.394 42.1041 112.394 42.0583C112.394 41.9668 112.462 41.9668 112.711 41.9668C113.823 41.9668 114.686 41.1892 114.686 40.2057C114.686 39.8397 114.64 39.1307 114.05 38.536C113.438 37.9414 112.757 37.9871 112.485 37.9871C112.303 37.9871 112.099 38.01 111.985 38.0557C111.917 38.0786 111.894 38.1472 111.894 38.2616V42.6987C111.894 43.7279 111.895 44.5971 111.963 45.0545C111.985 45.3747 112.053 45.6034 112.394 45.6492C112.553 45.672 112.802 45.6949 112.916 45.6949C112.984 45.6949 113.006 45.7178 113.006 45.7635C113.006 45.8093 112.938 45.855 112.825 45.855C112.19 45.855 111.486 45.8322 111.418 45.8322C111.395 45.8322 110.669 45.855 110.329 45.855C110.215 45.855 110.147 45.8322 110.147 45.7635C110.147 45.7407 110.17 45.6949 110.238 45.6949C110.351 45.6949 110.488 45.672 110.578 45.6492C110.805 45.6034 110.873 45.3747 110.919 45.0545C110.964 44.5971 110.964 43.7508 110.964 42.6987V40.7775H110.987Z" fill="#304463"/>
<path d="M121.7 37.8958C121.836 37.5299 121.881 37.4841 121.949 37.4841C122.017 37.4841 122.063 37.5299 122.199 37.8729C122.38 38.2846 124.15 42.7446 124.854 44.3914C125.262 45.352 125.603 45.535 125.83 45.5808C126.011 45.6265 126.17 45.6494 126.284 45.6494C126.352 45.6494 126.397 45.6494 126.397 45.718C126.397 45.7866 126.284 45.8095 126.17 45.8095C125.989 45.8095 125.172 45.8095 124.377 45.7866C124.15 45.7637 124.037 45.7637 124.037 45.718C124.037 45.6722 124.06 45.6494 124.105 45.6494C124.173 45.6265 124.241 45.535 124.173 45.352L123.107 42.6989C123.084 42.6532 123.061 42.6303 122.993 42.6303H120.542C120.474 42.6303 120.451 42.6532 120.429 42.7218L119.748 44.643C119.657 44.9175 119.589 45.1691 119.589 45.3749C119.589 45.5808 119.839 45.6951 120.02 45.6951H120.134C120.202 45.6951 120.247 45.718 120.247 45.7637C120.247 45.8323 120.179 45.8552 120.066 45.8552C119.793 45.8552 119.294 45.8323 119.181 45.8323C119.044 45.8323 118.432 45.8552 117.887 45.8552C117.751 45.8552 117.66 45.8323 117.66 45.7637C117.66 45.718 117.706 45.6951 117.774 45.6951C117.842 45.6951 118.023 45.6951 118.114 45.6722C118.636 45.6036 118.863 45.1919 119.067 44.643L121.7 37.8958ZM122.88 42.2186C122.925 42.2186 122.925 42.1957 122.925 42.15L121.836 39.2224C121.768 39.0623 121.722 39.0623 121.654 39.2224L120.656 42.15C120.633 42.1957 120.656 42.2186 120.678 42.2186H122.88Z" fill="#304463"/>
</svg>
