<?xml version="1.0" encoding="UTF-8"?><svg xmlns="http://www.w3.org/2000/svg" viewBox="0 0 200 60"><g id="Background"><rect width="200" height="60" style="fill:none;"/></g><g id="Logo"><g><path d="M12.02,15.12H2.5v22.75h2.8v-9.59h7.38c5.07,0,8.32-2.7,8.32-6.43,0-4.84-4.35-6.73-8.97-6.73Zm.42,12.51H5.3V15.77h6.73c3.93,0,6.17,2.11,6.17,6.04,0,2.57-1.04,5.82-5.75,5.82Z" style="fill:#8fe2e0;"/><polygon points="30.67 27.34 43.19 27.34 43.19 26.69 30.67 26.69 30.67 15.77 44.81 15.77 44.81 15.12 27.88 15.12 27.88 37.87 45.04 37.87 45.04 37.22 30.67 37.22 30.67 27.34" style="fill:#8fe2e0;"/><path d="M70.91,22.11c0-6.01-4.91-6.99-10.43-6.99h-8.06v22.75h2.8v-8.84h6.11l9.07,8.84h.94l-9.13-8.87c5.36-.26,8.71-2.6,8.71-6.89Zm-10.01,6.27h-5.69V15.77h5.26c4.84,0,7.64,1.92,7.64,6.3,0,3.41-1.59,6.3-7.21,6.3Z" style="fill:#8fe2e0;"/><path d="M197.46,37.52c-1.79-6.56-7.66-8.93-14.4-9.05l-6.79-13.47h-3.18l1.56,3.09-6.98,13.11-.04,.08c-2.63,.94-4.97,2.03-6.78,3.12,2.07-.96,4.21-1.76,6.4-2.4l-3.12,5.87h.75l3.26-6.1v-.02c4.11-1.1,8.37-1.63,12.63-1.6l.22,.45,.32,.65,3.35,6.63h3.15l-3.83-7.6h0c18.27,2.52,11.86,18.11-4.13,15.1-8.78-1.49-15.82-6.22-22.45-11.71V15.12h-.65v18c-6.95-5.83-13.51-12.41-21.24-16.88h-.01c-13.25-7.79-29.84-11.93-44.28-6.88-9.15,3.36-13.08,6.1-13.69,11.97,0,4.71,4.51,5.79,8.97,6.6,4.29,.78,8.51,1.01,8.51,4.39,0,2.57-2.31,5.17-8.03,5.17-4.48,0-7.54-2.11-9.52-4.97l-.42,1.24c3.66,5.97,20.46,6.34,20.05-2.63,0-4.65-5.17-5.52-9.91-6.34-3.23-.55-6.27-1.04-7.32-2.92-.55-.87-.1-4.59,2.14-6.24,12.77-11.12,39.43-6.1,53.5,4.28h0v17.97h.65V20.34c6.65,4.52,12.82,10.61,19.36,15.98l.12,.1,.31,.25c8.21,6.69,17.01,12.17,28.09,11.93,6.26,.17,14.16-3.89,13.45-11.08Zm-28.88-6.63l.15-.3,6.27-11.79,4.95,9.76c-3.87,.29-7.86,1.2-11.4,2.39l.04-.07Z" style="fill:#8fe2e0;"/><path d="M107.08,18.24c-4.58,4.58-4.58,11.99,0,16.54,4.55,4.58,11.96,4.58,16.54,0,4.55-4.55,4.55-11.96,0-16.54-4.58-4.55-11.99-4.55-16.54,0Zm16.12,16.12c-4.29,4.29-10.63,2.01-14.14-1.53-3.54-3.51-5.85-9.88-1.53-14.14,4.26-4.32,10.56-2.01,14.1,1.53,3.54,3.51,5.85,9.84,1.56,14.13Z" style="fill:#8fe2e0;"/><path d="M38.22,52.73v-5.66l-2.31,5.66h-.35l-2.3-5.66v5.66h-.85v-6.8h1.21l2.11,5.18,2.12-5.18h1.21v6.8h-.85Z" style="fill:#8fe2e0;"/><path d="M46.78,52.73v-6.8h4.46v.75h-3.61v2.19h3.54v.75h-3.54v2.34h3.61v.75h-4.46Z" style="fill:#8fe2e0;"/><path d="M58.7,52.73v-6.8h2.32c2.11,0,3.49,1.48,3.49,3.41s-1.38,3.39-3.49,3.39h-2.32Zm.85-.75h1.48c1.65,0,2.61-1.18,2.61-2.64s-.93-2.65-2.61-2.65h-1.48v5.29Z" style="fill:#8fe2e0;"/><path d="M71.95,52.73v-6.8h.85v6.8h-.85Z" style="fill:#8fe2e0;"/><path d="M80.23,49.33c0-2.09,1.54-3.52,3.47-3.52,1.23,0,2.07,.58,2.61,1.35l-.71,.4c-.39-.57-1.09-.99-1.9-.99-1.46,0-2.59,1.14-2.59,2.76s1.13,2.76,2.59,2.76c.81,0,1.51-.41,1.9-.99l.72,.4c-.57,.77-1.39,1.35-2.62,1.35-1.93,0-3.47-1.43-3.47-3.52Z" style="fill:#8fe2e0;"/><path d="M98.37,52.73l-.6-1.51h-3.45l-.6,1.51h-.94l2.73-6.8h1.05l2.74,6.8h-.94Zm-2.32-6.05l-1.48,3.78h2.95l-1.47-3.78Z" style="fill:#8fe2e0;"/><path d="M106.31,52.73v-6.8h.85v6.05h3.16v.75h-4.01Z" style="fill:#8fe2e0;"/><path d="M126.72,51.12c.45,.5,1.18,.97,2.14,.97,1.21,0,1.6-.65,1.6-1.17,0-.82-.83-1.04-1.72-1.28-1.09-.29-2.3-.59-2.3-1.93,0-1.12,1-1.89,2.33-1.89,1.04,0,1.85,.35,2.42,.95l-.51,.62c-.51-.56-1.22-.82-1.97-.82-.82,0-1.4,.44-1.4,1.08,0,.68,.79,.89,1.65,1.12,1.11,.3,2.38,.64,2.38,2.07,0,.99-.67,2-2.51,2-1.18,0-2.05-.45-2.61-1.08l.5-.64Z" style="fill:#8fe2e0;"/><path d="M138.72,52.73v-6.8h2.73c1.37,0,2.13,.94,2.13,2.05s-.78,2.05-2.13,2.05h-1.89v2.7h-.85Zm2.63-6.05h-1.78v2.59h1.78c.81,0,1.36-.53,1.36-1.29s-.55-1.29-1.36-1.29Z" style="fill:#8fe2e0;"/><path d="M154.93,52.73l-.6-1.51h-3.45l-.6,1.51h-.94l2.73-6.8h1.05l2.74,6.8h-.94Zm-2.32-6.05l-1.48,3.78h2.95l-1.47-3.78Z" style="fill:#8fe2e0;"/></g></g></svg>