<svg xmlns="http://www.w3.org/2000/svg" width="238" height="128.209" viewBox="0 0 238 128.209"><g id="Group_2" data-name="Group 2" transform="translate(-55.908 -49.196)"><g id="TEXT" transform="translate(55.908 133.771)"><g id="Prestige" transform="translate(0 0)"><path id="Path_1" data-name="Path 1" d="M72.914,372.529q-.032-.349.417-.3a2.456,2.456,0,0,1,.995.381,4.245,4.245,0,0,1,1.043.937,2.459,2.459,0,0,1,.562,1.4,2.68,2.68,0,0,1-.112.905,8.327,8.327,0,0,1-.4,1.111q-.255.588-.589,1.207t-.684,1.223q-.827,1.4-1.878,2.89a16.073,16.073,0,0,0,4.993-1.683,14.053,14.053,0,0,0,3.51-2.652,9.9,9.9,0,0,0,2.017-3.065,6.449,6.449,0,0,0,.508-2.985,4.322,4.322,0,0,0-.873-2.318A6.037,6.037,0,0,0,80.6,368.02a8.031,8.031,0,0,0-2.334-.857,11.943,11.943,0,0,0-2.366-.254,16.066,16.066,0,0,0-4.233.571,19.473,19.473,0,0,0-3.994,1.572,20.361,20.361,0,0,0-3.485,2.318,17.464,17.464,0,0,0-2.736,2.811,12.357,12.357,0,0,0-1.748,3.049,6.779,6.779,0,0,0-.476,3.048,4.277,4.277,0,0,0,.27,1.286,4.373,4.373,0,0,0,.429.81,1.945,1.945,0,0,0,.571.54,7.859,7.859,0,0,1,.762.508.922.922,0,0,1,.317.349q.063.159-.381.159a4.413,4.413,0,0,1-1.746-.381,4.648,4.648,0,0,1-1.619-1.191,7.182,7.182,0,0,1-1.254-2.064,9.6,9.6,0,0,1-.651-3,6.123,6.123,0,0,1,.714-3.382,10.018,10.018,0,0,1,2.334-2.858,17.047,17.047,0,0,1,3.477-2.286,27.333,27.333,0,0,1,4.176-1.683,32.319,32.319,0,0,1,4.446-1.048,26.7,26.7,0,0,1,4.255-.365,24.348,24.348,0,0,1,4,.349,14.4,14.4,0,0,1,3.906,1.223,8.977,8.977,0,0,1,3.048,2.366,7.2,7.2,0,0,1,1.27,5.939,8.26,8.26,0,0,1-.73,1.905,9.23,9.23,0,0,1-1.1,1.619,13.933,13.933,0,0,1-1.286,1.334,15.614,15.614,0,0,1-3.652,2.413l-1.747.857a15.179,15.179,0,0,1-3.08,1q-1.588.333-2.922.492a29.663,29.663,0,0,1-3.017.159q-1.779,2.35-3.176,4.35-.6.857-1.175,1.747t-1.016,1.667a13.672,13.672,0,0,0-.715,1.413,2.761,2.761,0,0,0-.27.985q0,.731-.016,1.128t-.556.4a.922.922,0,0,1-.587-.254,2.329,2.329,0,0,1-.556-.778,6.043,6.043,0,0,1-.429-1.286,8.191,8.191,0,0,1-.174-1.81,7.307,7.307,0,0,1,.873-3.017,39.488,39.488,0,0,1,2.175-3.874q1.3-2.064,2.811-4.208t2.795-4q1.286-1.858,2.112-3.255A4.4,4.4,0,0,0,72.914,372.529Z" transform="translate(-55.908 -365.67)" fill="#0a3d60"></path><path id="Path_2" data-name="Path 2" d="M160.01,425.482q.222-.381.476-.191a.582.582,0,0,1,.19.254,3.383,3.383,0,0,1-.857,1.143,4.229,4.229,0,0,1-1.286.778,5.424,5.424,0,0,1-2.048.333,6.858,6.858,0,0,1-2.62-.572,7.913,7.913,0,0,1-2.541-1.715,8.953,8.953,0,0,1-1.905-2.874,10.163,10.163,0,0,1-.746-4.049,12.872,12.872,0,0,1,.46-3.382,24.564,24.564,0,0,1,1.127-3.255,27.7,27.7,0,0,1,1.413-2.858q.746-1.3,1.318-2.16a12.9,12.9,0,0,1-1.842.635,9.347,9.347,0,0,1-2.509.318,2.6,2.6,0,0,1-.762-.127,1.792,1.792,0,0,1-.794-.556,3.38,3.38,0,0,1-.635-1.223,7.047,7.047,0,0,1-.254-2.1,9.2,9.2,0,0,1,.619-3.43,10.115,10.115,0,0,1,1.54-2.683,7.9,7.9,0,0,1,1.953-1.762,3.637,3.637,0,0,1,1.858-.635,2.278,2.278,0,0,1,1.524.54,1.892,1.892,0,0,1,.635,1.524,3.778,3.778,0,0,1-.191,1.1,11.083,11.083,0,0,1-.508,1.318q-.317.7-.714,1.413t-.81,1.381q-.984,1.589-2.191,3.3,1.175-.6,2.191-1.143l1.652-.858q.793-.412,1.048-.572.317-.19.635-.4a.6.6,0,0,1,.73.111q.191.159.667.572a5.3,5.3,0,0,1,.858.952,2.88,2.88,0,0,1,.492,1.159,1.425,1.425,0,0,1-.429,1.223q-.54.635-1.508,1.969a26.125,26.125,0,0,0-1.905,3.1,24.837,24.837,0,0,0-1.62,3.811,12.928,12.928,0,0,0-.683,4.113,9.66,9.66,0,0,0,.508,3.4,6.159,6.159,0,0,0,1.238,2.1,4.087,4.087,0,0,0,1.588,1.064,4.738,4.738,0,0,0,1.556.3,3.922,3.922,0,0,0,2.128-.461A2.925,2.925,0,0,0,160.01,425.482Zm-11.4-21.721a2.969,2.969,0,0,0,.079.746,2.126,2.126,0,0,0,.207.524,2.249,2.249,0,0,0,.286.445q.7-1.27,1.366-2.413t1.1-2.033a7.663,7.663,0,0,0,.556-1.413q.126-.524-.286-.524a1.567,1.567,0,0,0-.969.508,7.933,7.933,0,0,0-1.08,1.238,8.971,8.971,0,0,0-.889,1.54A3.486,3.486,0,0,0,148.609,403.761Z" transform="translate(-122.067 -387.438)" fill="#0a3d60"></path><path id="Path_3" data-name="Path 3" d="M194.5,428.66a.92.92,0,0,1,.413-.334.47.47,0,0,1,.4.016.394.394,0,0,1,.19.35,1.1,1.1,0,0,1-.238.635q-.159.255-.857,1.127t-1.747,2.032q-1.048,1.16-2.318,2.445a31.161,31.161,0,0,1-2.588,2.35,18.261,18.261,0,0,1-2.572,1.762,4.759,4.759,0,0,1-2.271.7,3.108,3.108,0,0,1-1.524-.508,3.642,3.642,0,0,1-1.048-1.159,4.4,4.4,0,0,1-.476-2.271,7.769,7.769,0,0,1,.572-2.874,13.914,13.914,0,0,1,1.477-2.763,18.731,18.731,0,0,1,2.016-2.461,24.421,24.421,0,0,1,2.175-2,12.006,12.006,0,0,1,1.985-1.334,3.47,3.47,0,0,1,1.461-.477,2,2,0,0,1,.7.143,1.8,1.8,0,0,1,.715.524,3.2,3.2,0,0,1,.572,1.08,5.85,5.85,0,0,1,.238,1.842,3.455,3.455,0,0,1-.508,1.667,10.767,10.767,0,0,1-1.3,1.81,19.828,19.828,0,0,1-1.762,1.762,23.231,23.231,0,0,1-1.905,1.524,13.9,13.9,0,0,1-1.715,1.064,2.941,2.941,0,0,1-1.191.4,4.759,4.759,0,0,0-.381,1.08,1.275,1.275,0,0,0,.079.73q.143.318.778.318A4.582,4.582,0,0,0,186.02,437a23.558,23.558,0,0,0,2.906-2.16,34.353,34.353,0,0,0,3.033-2.953A26.3,26.3,0,0,0,194.5,428.66Zm-5.272-.826a1.016,1.016,0,0,0-.54.286,5.665,5.665,0,0,0-.746.762q-.4.476-.857,1.08t-.905,1.207q-1.048,1.493-2.255,3.334a14.2,14.2,0,0,0,2.795-2.111,15.354,15.354,0,0,0,1.874-2.176,5.4,5.4,0,0,0,.858-1.7Q189.608,427.834,189.227,427.834Z" transform="translate(-146.734 -408.335)" fill="#0a3d60"></path><path id="Path_4" data-name="Path 4" d="M238.622,419.426a.916.916,0,0,1,.413-.333.469.469,0,0,1,.4.015.4.4,0,0,1,.191.35,1.11,1.11,0,0,1-.238.635q-.191.317-.651.952a8.561,8.561,0,0,1-1.27,1.35,10.581,10.581,0,0,1-2.08,1.382,11.189,11.189,0,0,1-3.08,1.016v.222a7.331,7.331,0,0,1-.54,2.89,4.787,4.787,0,0,1-1.254,1.731,4.372,4.372,0,0,1-1.556.857,5.182,5.182,0,0,1-1.445.238,3.147,3.147,0,0,1-.794-.143,4.172,4.172,0,0,1-1.032-.46,3.021,3.021,0,0,1-.905-.857,2.2,2.2,0,0,1-.381-1.3,2.028,2.028,0,0,1,.206-.921,3.181,3.181,0,0,1,.556-.778,3.871,3.871,0,0,1,.794-.635,9.7,9.7,0,0,1,.921-.492,12.163,12.163,0,0,1,2.477-.826q.159-1.079.254-2.254.063-1.016.063-2.239a13.419,13.419,0,0,0-.222-2.429.278.278,0,0,1-.032-.127v-.318q-.476.795-1.08,1.715t-1.239,1.81a.8.8,0,0,1-.46.365.45.45,0,0,1-.381-.064.455.455,0,0,1-.159-.349.857.857,0,0,1,.174-.524q.413-.6.937-1.4t1.032-1.651q.507-.857.937-1.715a8.6,8.6,0,0,0,.619-1.556q.063-.285.191-.683t.27-.731a1.288,1.288,0,0,1,.334-.492.308.308,0,0,1,.413,0q.286.222.762.587a7.762,7.762,0,0,1,.937.857,5.5,5.5,0,0,1,.794,1.1,2.592,2.592,0,0,1,.333,1.27,2.5,2.5,0,0,1-.222,1.1,12.423,12.423,0,0,0-.493,1.222,13.807,13.807,0,0,0-.508,2.112,27.212,27.212,0,0,0-.3,3.8,10.314,10.314,0,0,0,3.588-1.461A9.984,9.984,0,0,0,238.622,419.426Zm-13.179,8.733a.779.779,0,0,0,.46.762,1.285,1.285,0,0,0,1.08-.032,3.5,3.5,0,0,0,1.286-1.064,5.935,5.935,0,0,0,1.048-2.366,13.482,13.482,0,0,0-1.937.7,6.622,6.622,0,0,0-1.334.841A1.461,1.461,0,0,0,225.443,428.159Z" transform="translate(-179.368 -399.324)" fill="#0a3d60"></path><path id="Path_5" data-name="Path 5" d="M283.464,385.917a.843.843,0,0,1,0,.651.623.623,0,0,1-.286.27.991.991,0,0,1-.508.064,1.45,1.45,0,0,0-.365-.826,4.024,4.024,0,0,0-1.08-.921,7.1,7.1,0,0,0-1.731-.746,8.281,8.281,0,0,0-2.35-.3h-1q-.493,0-.969.032-.985,1.779-2.191,3.827l-2.414,4.1q-1.207,2.048-2.286,3.938t-1.763,3.35a11.026,11.026,0,0,0-.857,2.334q-.175.874.4.874a3.417,3.417,0,0,0,1.413-.889,31.46,31.46,0,0,0,2.4-2.271q1.334-1.381,2.747-3.049a34.2,34.2,0,0,0,2.461-3.255.75.75,0,0,1,.4-.333.464.464,0,0,1,.4.016.406.406,0,0,1,.175.35,1.107,1.107,0,0,1-.238.635q-.159.254-.81,1.127t-1.6,2.033q-.953,1.159-2.1,2.445t-2.271,2.366a16.722,16.722,0,0,1-2.159,1.778,3.343,3.343,0,0,1-1.762.7,2.509,2.509,0,0,1-1.429-.365,2.631,2.631,0,0,1-.842-.905,3.432,3.432,0,0,1-.4-1.191,8.454,8.454,0,0,1-.1-1.223,4.819,4.819,0,0,1,.35-1.508,24.041,24.041,0,0,1,.953-2.223q.6-1.254,1.413-2.747t1.7-3.1q.889-1.6,1.826-3.271t1.826-3.255q-.826.064-1.715.064h-1.842a9.144,9.144,0,0,1-2.255-.238,5.622,5.622,0,0,1-1.54-.619,3.358,3.358,0,0,1-.968-.857,4.33,4.33,0,0,1-.54-.953q-.286-.825-.016-1.016t.683.159A6.963,6.963,0,0,0,264.093,382a7.741,7.741,0,0,0,2.826.461q1.429,0,2.652-.079t2.048-.175q1.206-2.254,1.953-3.97a7.3,7.3,0,0,0,.746-2.509q0-.349.476-.318a2.115,2.115,0,0,1,1.064.461,4.025,4.025,0,0,1,1.064,1.238,3.92,3.92,0,0,1,.477,2.016,3.664,3.664,0,0,1-.286,1.175,15.5,15.5,0,0,1-.826,1.779h.921a8.215,8.215,0,0,1,2.588.365,6.773,6.773,0,0,1,1.858.921,4.529,4.529,0,0,1,1.191,1.238A5.446,5.446,0,0,1,283.464,385.917Z" transform="translate(-206.488 -372.802)" fill="#0a3d60"></path><path id="Path_6" data-name="Path 6" d="M315.623,407.777a.815.815,0,0,1,.413-.318.509.509,0,0,1,.4.032.394.394,0,0,1,.191.349,1.107,1.107,0,0,1-.238.635q-.16.255-.81,1.127T314,411.635q-.921,1.16-2.032,2.461t-2.223,2.382a16.609,16.609,0,0,1-2.128,1.778,3.271,3.271,0,0,1-1.747.7,2.424,2.424,0,0,1-1.493-.429,2.941,2.941,0,0,1-.889-1.08,4.454,4.454,0,0,1-.413-1.413,6.243,6.243,0,0,1-.032-1.4,5.407,5.407,0,0,1,.635-1.985q.572-1.127,1.334-2.429t1.572-2.715a22.574,22.574,0,0,0,1.382-2.842,1.762,1.762,0,0,0,.127-.476,2.672,2.672,0,0,1,.1-.46.79.79,0,0,1,.191-.334.568.568,0,0,1,.413-.127,1.312,1.312,0,0,1,.667.238,2.44,2.44,0,0,1,.7.7,3.8,3.8,0,0,1,.508,1.159,4.438,4.438,0,0,1,.1,1.619,4.7,4.7,0,0,1-.6,1.635q-.54,1-1.254,2.144t-1.445,2.3a15.834,15.834,0,0,0-1.143,2.111,3.414,3.414,0,0,0-.365,1.54q.048.588.873.587.349,0,1.381-.889a30.106,30.106,0,0,0,2.318-2.27q1.286-1.381,2.668-3.064A36.342,36.342,0,0,0,315.623,407.777Zm-3.207-5.43a1.087,1.087,0,0,1-.619-.238,2.341,2.341,0,0,1-.619-.714,4.321,4.321,0,0,1-.46-1.159,4.278,4.278,0,0,1-.08-1.54,4.112,4.112,0,0,1,.349-1.461,3.386,3.386,0,0,1,.635-.953,2.291,2.291,0,0,1,.73-.508,1.777,1.777,0,0,1,.667-.159,2.508,2.508,0,0,1,.778.175,5.368,5.368,0,0,1,.968.46,3.583,3.583,0,0,1,.81.651,1.017,1.017,0,0,1,.3.778,1.34,1.34,0,0,1-.222.683,4.343,4.343,0,0,1-.477.556q-.286.286-.635.683a7.147,7.147,0,0,0-.73,1.032q-.381.636-.572.984a3.7,3.7,0,0,1-.318.508.553.553,0,0,1-.222.191A.954.954,0,0,1,312.416,402.347Z" transform="translate(-236.983 -387.612)" fill="#0a3d60"></path><path id="Path_7" data-name="Path 7" d="M336.863,428.541a.749.749,0,0,1,.4-.333.464.464,0,0,1,.4.016.406.406,0,0,1,.175.349,1.109,1.109,0,0,1-.238.635q-.159.222-.778,1.016t-1.525,1.858q-.9,1.064-2,2.254t-2.207,2.255a25.554,25.554,0,0,1-2.175,1.873,6.535,6.535,0,0,1-1.858,1.064l-.063.1-.7,1.207q-1.3,2.1-2.826,4.1a26.183,26.183,0,0,1-3.223,3.541,16.636,16.636,0,0,1-3.509,2.477,7.878,7.878,0,0,1-3.652.937,2.672,2.672,0,0,1-.969-.191,2.884,2.884,0,0,1-.921-.588,3.278,3.278,0,0,1-.715-.984,3.788,3.788,0,0,1-.349-1.35,1.307,1.307,0,0,1,.445-.905,8.791,8.791,0,0,1,1.27-1.111q.794-.588,1.81-1.207t2.1-1.191q2.508-1.366,5.748-2.826a9.089,9.089,0,0,0,.572-.73q.317-.445.651-1.016t.7-1.191q.365-.619.715-1.223.793-1.429,1.651-3.049-1.175,1.493-2.223,2.636-.445.508-.905.984t-.873.842a7.077,7.077,0,0,1-.746.587,1.08,1.08,0,0,1-.556.222,2.224,2.224,0,0,1-.984-.27,4.149,4.149,0,0,1-1.032-.746,4.611,4.611,0,0,1-.858-1.159,3.821,3.821,0,0,1-.429-1.54,4.739,4.739,0,0,1,.4-2.175,15.444,15.444,0,0,1,1.334-2.588,25.056,25.056,0,0,1,1.937-2.652,22.037,22.037,0,0,1,2.271-2.366,13.323,13.323,0,0,1,2.3-1.683,4.211,4.211,0,0,1,2.017-.635,1.952,1.952,0,0,1,1.3.524,4.968,4.968,0,0,1,.984,1.143,4.042,4.042,0,0,1,.508,1.143q.127.524-.127.524a3.257,3.257,0,0,0-1.54.46,10.779,10.779,0,0,0-1.747,1.223,18.407,18.407,0,0,0-1.794,1.746q-.89.985-1.651,1.985A23.741,23.741,0,0,0,322,434.511a14.693,14.693,0,0,0-.937,1.747,3.583,3.583,0,0,0-.35,1.223q-.016.461.429.46.191,0,.762-.54t1.3-1.366q.73-.825,1.54-1.81t1.445-1.858q.635-.873,1.016-1.509t.286-.794q-.159-.222.19-.222a1.746,1.746,0,0,1,.826.27,3.387,3.387,0,0,1,.921.81,2.426,2.426,0,0,1,.508,1.4,5.648,5.648,0,0,1-.429,2.16,24.623,24.623,0,0,1-1.445,3.207,17.2,17.2,0,0,0,1.826-1.413q1.127-.968,2.366-2.239t2.461-2.7A30.984,30.984,0,0,0,336.863,428.541Zm-24.8,21.309a3.028,3.028,0,0,0,1.238-.3,9.136,9.136,0,0,0,1.366-.778,12.764,12.764,0,0,0,1.381-1.1q.683-.619,1.318-1.254a41.373,41.373,0,0,0,2.985-3.43q-2.668,1.4-4.732,2.572-.889.508-1.731,1.032t-1.508.968a8.8,8.8,0,0,0-1.064.81q-.4.364-.365.587a.989.989,0,0,0,.365.651A1.167,1.167,0,0,0,312.061,449.849Z" transform="translate(-242.185 -408.248)" fill="#0a3d60"></path><path id="Path_8" data-name="Path 8" d="M412.37,428.66a.92.92,0,0,1,.413-.334.47.47,0,0,1,.4.016.4.4,0,0,1,.19.35,1.1,1.1,0,0,1-.238.635q-.159.255-.857,1.127t-1.747,2.032q-1.048,1.16-2.318,2.445a31.073,31.073,0,0,1-2.588,2.35,18.263,18.263,0,0,1-2.572,1.762,4.758,4.758,0,0,1-2.27.7,3.107,3.107,0,0,1-1.524-.508,3.642,3.642,0,0,1-1.048-1.159,4.4,4.4,0,0,1-.476-2.271,7.769,7.769,0,0,1,.572-2.874,13.91,13.91,0,0,1,1.477-2.763,18.734,18.734,0,0,1,2.016-2.461,24.451,24.451,0,0,1,2.175-2,12.015,12.015,0,0,1,1.985-1.334,3.47,3.47,0,0,1,1.461-.477,2.007,2.007,0,0,1,.7.143,1.8,1.8,0,0,1,.714.524,3.2,3.2,0,0,1,.572,1.08,5.85,5.85,0,0,1,.238,1.842,3.456,3.456,0,0,1-.508,1.667,10.77,10.77,0,0,1-1.3,1.81,19.8,19.8,0,0,1-1.762,1.762,23.194,23.194,0,0,1-1.905,1.524,13.877,13.877,0,0,1-1.715,1.064,2.941,2.941,0,0,1-1.191.4,4.762,4.762,0,0,0-.381,1.08,1.275,1.275,0,0,0,.079.73q.143.318.778.318a4.582,4.582,0,0,0,2.159-.841,23.563,23.563,0,0,0,2.906-2.16,34.361,34.361,0,0,0,3.033-2.953A26.31,26.31,0,0,0,412.37,428.66Zm-5.272-.826a1.016,1.016,0,0,0-.54.286,5.669,5.669,0,0,0-.746.762q-.4.476-.857,1.08t-.905,1.207q-1.048,1.493-2.255,3.334a14.2,14.2,0,0,0,2.794-2.111,15.352,15.352,0,0,0,1.874-2.176,5.4,5.4,0,0,0,.858-1.7Q407.479,427.834,407.1,427.834Z" transform="translate(-306.38 -408.335)" fill="#0a3d60"></path></g><g id="Physicians" transform="translate(112.497 5.992)"><path id="Path_9" data-name="Path 9" d="M476.863,393.624h4.892a12.239,12.239,0,0,1,4.206.651,7.9,7.9,0,0,1,2.957,1.848,7.427,7.427,0,0,1,1.742,2.833,10.921,10.921,0,0,1,.563,3.572,10.647,10.647,0,0,1-.563,3.52,7.287,7.287,0,0,1-1.742,2.8,8.39,8.39,0,0,1-2.957,1.865,11.663,11.663,0,0,1-4.206.686h-3.449v6.159h-1.443Zm4.762,16.542a10.6,10.6,0,0,0,3.812-.6,6.778,6.778,0,0,0,2.524-1.626,6.008,6.008,0,0,0,1.395-2.423,10.239,10.239,0,0,0,.424-2.988,10.425,10.425,0,0,0-.424-3.005,6,6,0,0,0-1.395-2.439,6.783,6.783,0,0,0-2.524-1.627,10.617,10.617,0,0,0-3.812-.6h-3.319v15.31Z" transform="translate(-476.863 -392.146)" fill="#0a3d60"></path><path id="Path_10" data-name="Path 10" d="M541,388.093h1.372v14.113a5.645,5.645,0,0,1,2.129-2.464,6.02,6.02,0,0,1,3.326-.915,5.157,5.157,0,0,1,3.889,1.513,5.783,5.783,0,0,1,1.46,4.188V413.5H551.8v-8.751a5.285,5.285,0,0,0-1.021-3.458,3.831,3.831,0,0,0-3.132-1.235,5,5,0,0,0-5.279,5.4V413.5H541Z" transform="translate(-523.859 -388.093)" fill="#0a3d60"></path><path id="Path_11" data-name="Path 11" d="M598.993,442.749l-6.37-13.3H594.1l5.033,10.629q.106.282.211.581c.071.2.129.382.176.546.07.211.128.4.176.563a3.241,3.241,0,0,1,.141-.563q.07-.246.158-.546a3.519,3.519,0,0,1,.228-.581l4.54-10.629h1.408l-9.4,21.821h-1.408Z" transform="translate(-561.687 -418.394)" fill="#0a3d60"></path><path id="Path_12" data-name="Path 12" d="M650.941,443.217a7.1,7.1,0,0,1-2.059-.281,5.946,5.946,0,0,1-1.655-.774A5.445,5.445,0,0,1,646,441.018a6.19,6.19,0,0,1-.827-1.39l1.2-.528a5.489,5.489,0,0,0,1.672,2.077,4.712,4.712,0,0,0,2.9.809,4.146,4.146,0,0,0,2.622-.757,2.4,2.4,0,0,0,.968-1.988,2.59,2.59,0,0,0-.264-1.232,2.47,2.47,0,0,0-.757-.845,5.047,5.047,0,0,0-1.232-.616q-.739-.264-1.725-.581a16.388,16.388,0,0,1-1.725-.563,5.412,5.412,0,0,1-1.408-.792,3.556,3.556,0,0,1-.95-1.144,3.436,3.436,0,0,1-.352-1.619,3.178,3.178,0,0,1,.335-1.443,3.458,3.458,0,0,1,.915-1.144,4.317,4.317,0,0,1,1.355-.739,5.205,5.205,0,0,1,1.689-.264,4.773,4.773,0,0,1,2.781.757,6.013,6.013,0,0,1,1.795,1.989l-1.056.633a4.752,4.752,0,0,0-1.408-1.531,3.593,3.593,0,0,0-2.112-.616,3.39,3.39,0,0,0-2.182.649,2.043,2.043,0,0,0-.809,1.667,2.739,2.739,0,0,0,.176,1.053,1.848,1.848,0,0,0,.616.755,4.891,4.891,0,0,0,1.144.614q.7.281,1.76.6a18.021,18.021,0,0,1,1.848.633,6.308,6.308,0,0,1,1.513.86,3.949,3.949,0,0,1,1.038,1.211,3.443,3.443,0,0,1,.387,1.685,3.689,3.689,0,0,1-1.267,2.861A5.352,5.352,0,0,1,650.941,443.217Z" transform="translate(-600.19 -417.526)" fill="#0a3d60"></path><path id="Path_13" data-name="Path 13" d="M694.927,404.243a1.174,1.174,0,0,1-.81-.317,1.08,1.08,0,0,1-.352-.844,1.1,1.1,0,0,1,.352-.827,1.148,1.148,0,0,1,1.619,0,1.1,1.1,0,0,1,.352.827,1.082,1.082,0,0,1-.352.844A1.175,1.175,0,0,1,694.927,404.243Zm-.668,5.033h1.372v14.359h-1.372Z" transform="translate(-635.8 -398.225)" fill="#0a3d60"></path><path id="Path_14" data-name="Path 14" d="M718.038,443.217a7.166,7.166,0,0,1-2.886-.58,6.954,6.954,0,0,1-2.306-1.6,7.709,7.709,0,0,1-1.531-2.376,7.769,7.769,0,0,1,0-5.807,7.723,7.723,0,0,1,1.531-2.375,7.182,7.182,0,0,1,2.306-1.619,6.989,6.989,0,0,1,2.886-.6,7.286,7.286,0,0,1,3.185.651,6.532,6.532,0,0,1,2.27,1.777l-.985.809a5.533,5.533,0,0,0-1.83-1.478,6.611,6.611,0,0,0-5.051-.053,5.307,5.307,0,0,0-1.83,1.32,6.113,6.113,0,0,0-1.179,1.988,7.111,7.111,0,0,0-.422,2.481,6.959,6.959,0,0,0,.422,2.463,6.145,6.145,0,0,0,1.179,1.971,5.3,5.3,0,0,0,1.83,1.32,5.9,5.9,0,0,0,2.411.475,6.219,6.219,0,0,0,2.833-.581,5.67,5.67,0,0,0,1.918-1.566l.986.809a7.158,7.158,0,0,1-2.393,1.9A7.593,7.593,0,0,1,718.038,443.217Z" transform="translate(-648.248 -417.526)" fill="#0a3d60"></path><path id="Path_15" data-name="Path 15" d="M767.62,404.243a1.172,1.172,0,0,1-.809-.317,1.08,1.08,0,0,1-.352-.844,1.1,1.1,0,0,1,.352-.827,1.147,1.147,0,0,1,1.619,0,1.1,1.1,0,0,1,.352.827,1.082,1.082,0,0,1-.352.844A1.175,1.175,0,0,1,767.62,404.243Zm-.669,5.033h1.373v14.359h-1.373Z" transform="translate(-689.067 -398.225)" fill="#0a3d60"></path><path id="Path_16" data-name="Path 16" d="M790.486,443.217a6.712,6.712,0,0,1-2.8-.58,7.047,7.047,0,0,1-2.235-1.584,7.136,7.136,0,0,1-1.478-2.376,8.168,8.168,0,0,1-.528-2.956,8.03,8.03,0,0,1,.528-2.939,7.181,7.181,0,0,1,1.478-2.358,7.035,7.035,0,0,1,2.235-1.584,6.709,6.709,0,0,1,2.8-.581,6.374,6.374,0,0,1,3.766,1.091,7.111,7.111,0,0,1,2.358,2.78l-.035-3.555h1.373v14.359h-1.373l.035-3.555a7.02,7.02,0,0,1-2.411,2.745A6.433,6.433,0,0,1,790.486,443.217Zm.211-1.232a6.022,6.022,0,0,0,2.428-.475,5.758,5.758,0,0,0,1.883-1.3,5.656,5.656,0,0,0,1.214-1.954,6.955,6.955,0,0,0,.422-2.464,7.1,7.1,0,0,0-.422-2.481,5.774,5.774,0,0,0-5.525-3.819,5.9,5.9,0,0,0-2.411.475,5.424,5.424,0,0,0-1.83,1.3,5.688,5.688,0,0,0-1.161,1.971,7.809,7.809,0,0,0,0,4.962,5.873,5.873,0,0,0,1.161,1.988,5.3,5.3,0,0,0,1.83,1.32A5.894,5.894,0,0,0,790.7,441.986Z" transform="translate(-701.515 -417.526)" fill="#0a3d60"></path><path id="Path_17" data-name="Path 17" d="M852.06,428.577h1.372l-.035,3.2a5.612,5.612,0,0,1,2.147-2.587,6.024,6.024,0,0,1,3.344-.933,5.156,5.156,0,0,1,3.889,1.513,5.782,5.782,0,0,1,1.461,4.188v8.975h-1.373v-8.751a5.283,5.283,0,0,0-1.021-3.458,3.831,3.831,0,0,0-3.132-1.235,5.005,5.005,0,0,0-5.28,5.4v8.045H852.06Z" transform="translate(-751.791 -417.526)" fill="#0a3d60"></path><path id="Path_18" data-name="Path 18" d="M912.089,443.217a7.1,7.1,0,0,1-2.059-.281,5.938,5.938,0,0,1-1.654-.774,5.453,5.453,0,0,1-1.232-1.144,6.191,6.191,0,0,1-.827-1.39l1.2-.528a5.489,5.489,0,0,0,1.672,2.077,4.711,4.711,0,0,0,2.9.809,4.147,4.147,0,0,0,2.622-.757,2.4,2.4,0,0,0,.968-1.988,2.59,2.59,0,0,0-.264-1.232,2.472,2.472,0,0,0-.757-.845,5.045,5.045,0,0,0-1.232-.616q-.74-.264-1.724-.581a16.373,16.373,0,0,1-1.725-.563,5.411,5.411,0,0,1-1.408-.792,3.553,3.553,0,0,1-.95-1.144,3.434,3.434,0,0,1-.352-1.619,3.176,3.176,0,0,1,.335-1.443,3.461,3.461,0,0,1,.915-1.144,4.319,4.319,0,0,1,1.355-.739,5.206,5.206,0,0,1,1.69-.264,4.774,4.774,0,0,1,2.78.757,6.012,6.012,0,0,1,1.795,1.989l-1.056.633a4.754,4.754,0,0,0-1.408-1.531,3.591,3.591,0,0,0-2.111-.616,3.39,3.39,0,0,0-2.182.649,2.043,2.043,0,0,0-.81,1.667,2.736,2.736,0,0,0,.176,1.053,1.852,1.852,0,0,0,.616.755,4.906,4.906,0,0,0,1.144.614q.7.281,1.76.6a18.034,18.034,0,0,1,1.848.633,6.308,6.308,0,0,1,1.514.86,3.945,3.945,0,0,1,1.038,1.211,3.443,3.443,0,0,1,.387,1.685,3.689,3.689,0,0,1-1.267,2.861A5.351,5.351,0,0,1,912.089,443.217Z" transform="translate(-791.548 -417.526)" fill="#0a3d60"></path></g></g><g id="MARK" transform="translate(130.538 49.196)"><g id="Group_1" data-name="Group 1" transform="translate(0 14.546)"><path id="Path_19" data-name="Path 19" d="M521.366,120.661a20.8,20.8,0,0,1-2.117,9.563,19.1,19.1,0,0,1-5.865,6.887,25.311,25.311,0,0,1-8.128,3.991,34.027,34.027,0,0,1-9.393,1.265h-7.738V163.3a7.454,7.454,0,0,0,.56,2.993A3.859,3.859,0,0,0,491,168.259a15.093,15.093,0,0,0,3.091.633,39.153,39.153,0,0,0,4.064.341v3.455H468.511v-3.455q1.168-.1,3.383-.341a11.624,11.624,0,0,0,3.091-.633,4.194,4.194,0,0,0,2.117-1.849,6.52,6.52,0,0,0,.657-3.115V113.458a9.094,9.094,0,0,0-.487-3.066,3.556,3.556,0,0,0-2.287-2.044,20.634,20.634,0,0,0-3.675-.9q-1.825-.267-3.139-.365v-3.456h31.537q9.636,0,15.647,4.648A14.872,14.872,0,0,1,521.366,120.661Zm-14.8,11.778a13.1,13.1,0,0,0,2.19-4.842,21.783,21.783,0,0,0,.535-4.5,25.263,25.263,0,0,0-.657-5.645,13.124,13.124,0,0,0-2.263-5.013,11.333,11.333,0,0,0-4.478-3.553,16.653,16.653,0,0,0-6.911-1.265h-6.862v30.515h4.964a19.255,19.255,0,0,0,8.541-1.63A12.512,12.512,0,0,0,506.57,132.439Z" transform="translate(-432.627 -103.627)" fill="#6fa8c9"></path><path id="Path_20" data-name="Path 20" d="M341.18,108.275q6.011-4.647,15.647-4.648h31.537v3.456q-1.314.1-3.139.365a20.637,20.637,0,0,0-3.674.9,3.556,3.556,0,0,0-2.288,2.044,9.1,9.1,0,0,0-.487,3.066V163.3a6.52,6.52,0,0,0,.657,3.115,4.194,4.194,0,0,0,2.117,1.849,11.619,11.619,0,0,0,3.09.633q2.216.244,3.382.341v3.455H358.384v-3.455a39.16,39.16,0,0,0,4.064-.341,15.09,15.09,0,0,0,3.09-.633,3.858,3.858,0,0,0,2.312-1.971,7.459,7.459,0,0,0,.56-2.993V142.368h-7.738a34.03,34.03,0,0,1-9.393-1.265,25.317,25.317,0,0,1-8.128-3.991,19.106,19.106,0,0,1-5.865-6.887,20.8,20.8,0,0,1-2.117-9.563A14.872,14.872,0,0,1,341.18,108.275ZM354.9,136.5a19.256,19.256,0,0,0,8.541,1.63h4.964V107.618h-6.862a16.654,16.654,0,0,0-6.911,1.265,11.333,11.333,0,0,0-4.477,3.553,13.126,13.126,0,0,0-2.263,5.013,25.262,25.262,0,0,0-.657,5.645,21.8,21.8,0,0,0,.535,4.5,13.1,13.1,0,0,0,2.19,4.842A12.518,12.518,0,0,0,354.9,136.5Z" transform="translate(-335.169 -103.627)" fill="#a6cee0"></path></g><path id="Path_21" data-name="Path 21" d="M481.811,207.9h-9.061v-9.062h-4.134V207.9h-9.061v4.234l9.061.009V221.1h4.134v-8.952l9.061-.009Z" transform="translate(-426.313 -158.848)" fill="#0a3d60"></path><circle id="Ellipse_1" data-name="Ellipse 1" cx="6.812" cy="6.812" r="6.812" transform="translate(37.557)" fill="#0a3d60"></circle></g></g></svg>