<svg xmlns="http://www.w3.org/2000/svg" xmlns:xlink="http://www.w3.org/1999/xlink" viewBox="0 0 370.8 113.02"><defs><style>.cls-1{fill:none;}.cls-2{clip-path:url(#clip-path);}.cls-3{fill:url(#linear-gradient);}.cls-4{fill:#231f20;}</style><clipPath id="clip-path"><path class="cls-1" d="M156.89,36.21l-1.16-.64a.15.15,0,0,1-.08-.14.14.14,0,0,1,.11-.13L157,35a28.65,28.65,0,0,0,6.29-2.75,21.59,21.59,0,0,1,8.56-3.06l.36-.05a27.8,27.8,0,0,1,2.94-.15,21.25,21.25,0,0,1,11.71,3.18l1.17.64a.16.16,0,0,1,.08.15A.16.16,0,0,1,188,33l-1.28.35a28.44,28.44,0,0,0-6.29,2.75,23.16,23.16,0,0,1-23.58.07m-9.68-3.46a21.57,21.57,0,0,1-9-3.11,28.19,28.19,0,0,0-6.29-2.75l-1.28-.35a.16.16,0,0,1-.11-.13.14.14,0,0,1,.08-.15l1.16-.64a21.29,21.29,0,0,1,11.72-3.18,26.78,26.78,0,0,1,2.89.14h.06l.31,0,.47.07.32,0,.5.08.26.05.7.15.18.05.51.13.22.06.48.15.17.06c.41.13.83.29,1.23.45l.09,0,.51.22.14.06.47.22.08,0,.55.27.12.07.41.21,2,1.06.56.3.12.06.61.31.08,0c.23.11.46.23.7.33a21.47,21.47,0,0,0,3.46,1.29l1.29.36a.14.14,0,0,1,.11.12.18.18,0,0,1-.08.15l-1.17.64a21.29,21.29,0,0,1-11.72,3.18c-.79,0-1.54,0-2.28-.09h0Zm50.3,0-.63-.08a21.73,21.73,0,0,1-8.44-3,28.54,28.54,0,0,0-6.3-2.75l-1.27-.35a.14.14,0,0,1-.11-.13.15.15,0,0,1,.07-.15L183,25.08c.79-.42,1.46-.74,2.11-1a21,21,0,0,1,8.62-1.62l1.3,0h.25c.42,0,.82.05,1.18.09h.06l.63.08a22.13,22.13,0,0,1,8.43,3,27.73,27.73,0,0,0,6.29,2.75l1.29.36a.13.13,0,0,1,.1.12.15.15,0,0,1-.07.15l-1.17.64a21.3,21.3,0,0,1-11.73,3.18,27.72,27.72,0,0,1-2.78-.13m-40.1-9.28-1.68-.91a.18.18,0,0,1-.08-.15.16.16,0,0,1,.11-.13l1.28-.35a28.67,28.67,0,0,0,6.29-2.74,21.59,21.59,0,0,1,8.56-3.07l.39,0a27,27,0,0,1,2.91-.15,21.28,21.28,0,0,1,11.71,3.18l1.17.64a.15.15,0,0,1,.08.14A.14.14,0,0,1,188,20l-1.28.36c-.57.16-1.14.34-1.72.55L185,21l-.52.2h0l-.16.07h-.05l-.11,0-.27.12c-1.3.57-2.45,1.2-3.37,1.7l-1.74.93-.53.27-.09,0-.45.21-.22.1-.34.15-.26.1-.32.13-.08,0-.09,0-.12.05-.21.07-.79.26-.15.05-.48.13-.09,0-.59.14c-.65.14-1.32.26-2,.35l-.63.07-.5,0h-.34c-.2,0-.39,0-.6,0h-.29l-.94,0a21,21,0,0,1-11.2-2.91m-10.29-3.76-.25,0a21.6,21.6,0,0,1-8.65-3.07,28.65,28.65,0,0,0-6.29-2.75l-1.28-.35a.16.16,0,0,1-.11-.13.12.12,0,0,1,.08-.14l1.16-.64a23.18,23.18,0,0,1,23.57.06,28.36,28.36,0,0,0,6.31,2.76l1.25.34a.16.16,0,0,1,0,.28l-1,.57a21.31,21.31,0,0,1-11.84,3.25,27.4,27.4,0,0,1-3-.16m50.39,0-.82-.1h-.05a22,22,0,0,1-8.19-3A28,28,0,0,0,182,13.84l-1.14-.31a.16.16,0,0,1,0-.28l1.16-.63a23.16,23.16,0,0,1,23.58.07,28.19,28.19,0,0,0,6.29,2.75l1.29.35a.15.15,0,0,1,.1.13.15.15,0,0,1-.07.15L212,16.7a21.21,21.21,0,0,1-11.73,3.19,25,25,0,0,1-2.78-.14m-40.63-9.56-1.17-.63a.21.21,0,0,1-.08-.15.15.15,0,0,1,.11-.13L157,8.92a28.18,28.18,0,0,0,6.31-2.74,23.18,23.18,0,0,1,23.59-.07l1.17.63a.19.19,0,0,1,.08.16.14.14,0,0,1-.11.12l-1.28.36a27.53,27.53,0,0,0-6.31,2.75,21.87,21.87,0,0,1-8.22,3l-1.06.13c-.85.08-1.69.12-2.58.12a21.23,21.23,0,0,1-11.73-3.2m5.05-6.58a21.26,21.26,0,0,1-11.85,3.26,27.75,27.75,0,0,1-3-.15,30.53,30.53,0,0,0-3.6-.21,24.31,24.31,0,0,0-13.25,3.62,21.76,21.76,0,0,1-8.43,3l-.22,0-.19,0c-.92.1-1.91.15-3,.16a1.46,1.46,0,1,0,0,2.91,29.18,29.18,0,0,0,3.45-.19l.17,0a24.73,24.73,0,0,1,2.89-.15,21.35,21.35,0,0,1,11.85,3.25l1,.57a.16.16,0,0,1,.08.15.16.16,0,0,1-.11.13l-1.15.31a28,28,0,0,0-6.43,2.78,21.76,21.76,0,0,1-8.43,3.05l-.22,0-.2,0a27.31,27.31,0,0,1-2.94.16,1.46,1.46,0,1,0,0,2.92,29.12,29.12,0,0,0,3.45-.2l.17,0a27,27,0,0,1,2.89-.15,21.26,21.26,0,0,1,11.85,3.26A24.48,24.48,0,0,0,147,35.66a21.69,21.69,0,0,1,8.33,3,26.16,26.16,0,0,0,26.52,0,21.28,21.28,0,0,1,11.86-3.25,27.38,27.38,0,0,1,2.77.13l.65.07.16,0,.19,0h.08c.92.07,1.8.11,2.71.11a24.27,24.27,0,0,0,13.26-3.61,21.53,21.53,0,0,1,8.59-3.07l.32,0c.93-.09,1.88-.15,2.88-.15a1.46,1.46,0,1,0,0-2.92,29.75,29.75,0,0,0-3.6.22,27.23,27.23,0,0,1-2.91.15A21.24,21.24,0,0,1,207,23.13l-1-.57c-.06,0-.08-.08-.08-.15a.14.14,0,0,1,.11-.12l1.15-.31a27.73,27.73,0,0,0,6.42-2.78,21.64,21.64,0,0,1,8.6-3.07l.32,0a26.93,26.93,0,0,1,2.88-.15,1.46,1.46,0,1,0,0-2.92,27.85,27.85,0,0,0-3.6.22,27,27,0,0,1-2.91.15A21.35,21.35,0,0,1,207,10.13a24.51,24.51,0,0,0-9.74-3.42l-.55-.06-.05,0a21.62,21.62,0,0,1-8.2-3,26.14,26.14,0,0,0-26.51,0"></path></clipPath><linearGradient id="linear-gradient" x1="-598.81" y1="490.99" x2="-597.81" y2="490.99" gradientTransform="matrix(109.8, 0, 0, -109.8, 65866.45, 53932)" gradientUnits="userSpaceOnUse"><stop offset="0" stop-color="#401617"></stop><stop offset="0.01" stop-color="#401617"></stop><stop offset="0.08" stop-color="#6b4c2d"></stop><stop offset="0.38" stop-color="#a58a55"></stop><stop offset="0.56" stop-color="#e5d4b5"></stop><stop offset="0.8" stop-color="#987a59"></stop><stop offset="0.8" stop-color="#967857"></stop><stop offset="0.96" stop-color="#814f2f"></stop><stop offset="1" stop-color="#814f2f"></stop></linearGradient></defs><g id="Layer_2" data-name="Layer 2"><g id="Layer_1-2" data-name="Layer 1"><g class="cls-2"><rect class="cls-3" x="117" width="109.8" height="42.31"></rect></g><path class="cls-4" d="M14.77,88.3H3.21V63.43H14.77a12.44,12.44,0,1,1,0,24.87M1.61,60.39A1.59,1.59,0,0,0,0,62v49a1.59,1.59,0,0,0,1.61,1.59,1.51,1.51,0,0,0,1.6-1.51V91.33h12a15.47,15.47,0,1,0,0-30.94Z"></path><path class="cls-4" d="M53.84,85.91H42.93V76.18H53.84a4.87,4.87,0,1,1,0,9.73m-10.91,3h7.63l9.59,10a2.37,2.37,0,0,0,1.56.67,1.31,1.31,0,0,0,1.36-1.27,1.79,1.79,0,0,0-.52-1.23l-7.83-8.2.74-.14A7.88,7.88,0,0,0,62.19,81a8,8,0,0,0-8.35-7.89H41.32a1.59,1.59,0,0,0-1.61,1.59V98a1.59,1.59,0,0,0,1.61,1.59,1.51,1.51,0,0,0,1.61-1.51Z"></path><path class="cls-4" d="M85.52,96.67A10.37,10.37,0,1,1,96,86.31,10.41,10.41,0,0,1,85.52,96.67m0-23.92A13.56,13.56,0,1,0,99.17,86.31,13.61,13.61,0,0,0,85.52,72.75"></path><path class="cls-4" d="M115.58,73A1.59,1.59,0,0,0,114,74.58V89.1c0,7-3.73,7.57-7.22,7.57a1.6,1.6,0,1,0,0,3.19c4.48,0,10.43-1.11,10.43-10.76V74.58a1.58,1.58,0,0,0-1.6-1.59"></path><path class="cls-4" d="M132.1,73.15a1.58,1.58,0,0,0-1.6,1.59V97.87a1.59,1.59,0,0,0,1.6,1.6h19.27a1.52,1.52,0,1,0,0-3H133.71V87.5h13.64a1.52,1.52,0,1,0,0-3H133.71V76.18h17.66a1.52,1.52,0,1,0,0-3Z"></path><path class="cls-4" d="M174.71,72.75a13.56,13.56,0,1,0,0,27.11,13.47,13.47,0,0,0,9.67-3.94,1.67,1.67,0,0,0,.44-1.16,1.71,1.71,0,0,0-1.69-1.59,1.46,1.46,0,0,0-1.08.44,10.26,10.26,0,0,1-7.34,3.06,10.37,10.37,0,1,1,0-20.73A10.23,10.23,0,0,1,182.05,79a1.5,1.5,0,0,0,1.08.44,1.71,1.71,0,0,0,1.69-1.59,1.65,1.65,0,0,0-.44-1.16,13.48,13.48,0,0,0-9.67-4"></path><path class="cls-4" d="M194.43,73.15a1.52,1.52,0,1,0,0,3h10.43V98a1.61,1.61,0,0,0,3.21,0V76.18H218.5a1.52,1.52,0,1,0,0-3Z"></path><path class="cls-4" d="M230.3,105.28a1.57,1.57,0,0,0-1.61,1.52,1.82,1.82,0,0,0,.4,1.11A15.6,15.6,0,0,0,240.57,113c8.7,0,14.78-5.87,14.78-14.27,0-7.86-6-11.24-11.88-14.52-5.54-3.1-10.76-6-10.76-12.43,0-5.64,3.72-9,9.95-9a10.55,10.55,0,0,1,8.24,3.55,1.43,1.43,0,0,0,1.15.59,1.59,1.59,0,0,0,1.69-1.51,1.74,1.74,0,0,0-.4-1.11,14.06,14.06,0,0,0-11-4.71c-7.78,0-13,5-13,12.35,0,7.86,6.08,11.32,12,14.67C246.79,89.74,252,92.69,252,98.91c0,7.5-5.82,10.92-11.23,10.92a12.07,12.07,0,0,1-9.22-4,1.32,1.32,0,0,0-1.22-.59"></path><path class="cls-4" d="M270.35,87.11h5.95L287.58,99a2.21,2.21,0,0,0,1.55.67,1.22,1.22,0,0,0,1.37-1.27,1.79,1.79,0,0,0-.52-1.23l-10.3-10.8,9.47-10.88a1.77,1.77,0,0,0,.55-1.25,1.25,1.25,0,0,0-1.29-1.28,2,2,0,0,0-1.64.68l-9.09,10.48h-7.33V74.58a1.61,1.61,0,0,0-3.21,0V98a1.61,1.61,0,0,0,3.21,0Z"></path><path class="cls-4" d="M301.68,73a1.58,1.58,0,0,0-1.61,1.59V98a1.61,1.61,0,0,0,3.21,0V74.58a1.58,1.58,0,0,0-1.6-1.59"></path><path class="cls-4" d="M319.56,78.4l20.27,20.3c.76.76,1.06.92,1.72.92a1.58,1.58,0,0,0,1.6-1.59V74.58a1.61,1.61,0,0,0-3.21,0V94.21l-20.27-20.3c-.76-.76-1.06-.92-1.72-.92a1.58,1.58,0,0,0-1.6,1.59V98a1.61,1.61,0,0,0,3.21,0Z"></path><path class="cls-4" d="M357.37,60.34a1,1,0,0,0-.82.41l-3.43,3.46-3.43-3.46a1.06,1.06,0,0,0-.82-.41.85.85,0,0,0-.86.85v8.45a.86.86,0,0,0,1.72,0V63.25l2.6,2.6a1,1,0,0,0,.82.42,1.06,1.06,0,0,0,.82-.42l2.54-2.6v6.39a.86.86,0,0,0,1.72,0V61.19a.85.85,0,0,0-.86-.85"></path><path class="cls-4" d="M365.6,68.78h-2.32V62.05h2.32a3.37,3.37,0,1,1,0,6.73m0-8.39h-3.18a.85.85,0,0,0-.86.86v8.33a.85.85,0,0,0,.86.85h3.18a5,5,0,1,0,0-10"></path></g></g></svg>