<svg xmlns="http://www.w3.org/2000/svg" xmlns:xlink="http://www.w3.org/1999/xlink" preserveAspectRatio="xMidYMid meet" viewBox="31.69 140.06 317.63 94.75"><defs><g></g><clipPath id="63272aaee5"><path d="M 31.691406 140.558594 L 124.691406 140.558594 L 124.691406 233.558594 L 31.691406 233.558594 Z M 31.691406 140.558594 " clip-rule="nonzero"></path></clipPath></defs><path stroke-linecap="butt" transform="matrix(0.000000000000000046, 0.74897, -0.75, 0.000000000000000046, 138.128609, 140.560539)" fill="none" stroke-linejoin="miter" d="M -0.00259693 -0.000396294 L 125.174507 -0.000396294 " stroke="#c59c50" stroke-width="1" stroke-opacity="1" stroke-miterlimit="4"></path><g fill="#c59c50" fill-opacity="1"><g transform="translate(152.005161, 179.002824)"><g><path d="M 0.640625 0 C 0.578125 0 0.546875 -0.0820312 0.546875 -0.25 L 0.546875 -0.40625 C 0.546875 -0.46875 0.578125 -0.5 0.640625 -0.5 C 0.691406 -0.5 0.769531 -0.503906 0.875 -0.515625 C 0.988281 -0.535156 1.101562 -0.550781 1.21875 -0.5625 C 1.332031 -0.582031 1.4375 -0.601562 1.53125 -0.625 C 1.632812 -0.644531 1.707031 -0.660156 1.75 -0.671875 C 2.601562 -0.859375 3.03125 -1.34375 3.03125 -2.125 L 3.03125 -15.28125 C 3.03125 -15.988281 2.742188 -16.492188 2.171875 -16.796875 C 1.828125 -16.972656 1.460938 -17.0625 1.078125 -17.0625 L 0.59375 -17.0625 C 0.53125 -17.0625 0.5 -17.097656 0.5 -17.171875 L 0.5 -17.46875 C 0.5 -17.53125 0.546875 -17.5625 0.640625 -17.5625 L 7.484375 -17.75 L 8.75 -17.75 C 10.21875 -17.65625 11.445312 -17.125 12.4375 -16.15625 C 13.425781 -15.1875 13.921875 -13.992188 13.921875 -12.578125 C 13.921875 -11.160156 13.332031 -10.054688 12.15625 -9.265625 C 11.789062 -9.023438 11.394531 -8.8125 10.96875 -8.625 L 14.75 -2.453125 C 15.40625 -1.367188 16.285156 -0.609375 17.390625 -0.171875 C 17.484375 -0.148438 17.53125 -0.09375 17.53125 0 C 17.53125 0.207031 17.394531 0.3125 17.125 0.3125 C 15.25 0.3125 13.757812 -0.394531 12.65625 -1.8125 C 12.414062 -2.132812 12.175781 -2.488281 11.9375 -2.875 L 8.703125 -7.9375 L 5.75 -8.078125 L 5.640625 -8.078125 C 5.515625 -8.078125 5.453125 -8.019531 5.453125 -7.90625 L 5.453125 -2.15625 C 5.453125 -1.695312 5.582031 -1.351562 5.84375 -1.125 C 6.101562 -0.90625 6.546875 -0.753906 7.171875 -0.671875 C 7.335938 -0.648438 7.539062 -0.613281 7.78125 -0.5625 C 8.019531 -0.519531 8.179688 -0.5 8.265625 -0.5 C 8.359375 -0.5 8.40625 -0.46875 8.40625 -0.40625 L 8.40625 -0.09375 C 8.40625 -0.03125 8.375 0 8.3125 0 Z M 6.453125 -17.09375 C 6.359375 -17.09375 6.253906 -17.085938 6.140625 -17.078125 C 6.035156 -17.078125 5.894531 -17.070312 5.71875 -17.0625 C 5.539062 -17.0625 5.453125 -17 5.453125 -16.875 L 5.453125 -9.3125 L 5.484375 -8.953125 C 5.503906 -8.773438 5.582031 -8.679688 5.71875 -8.671875 L 6.984375 -8.59375 C 9.316406 -8.59375 10.726562 -9.425781 11.21875 -11.09375 C 11.375 -11.613281 11.453125 -12.207031 11.453125 -12.875 C 11.453125 -14.1875 11.039062 -15.222656 10.21875 -15.984375 C 9.40625 -16.742188 8.363281 -17.125 7.09375 -17.125 C 6.976562 -17.125 6.867188 -17.117188 6.765625 -17.109375 C 6.660156 -17.109375 6.554688 -17.101562 6.453125 -17.09375 Z M 6.453125 -17.09375 "></path></g></g></g><g fill="#c59c50" fill-opacity="1"><g transform="translate(169.681498, 179.002824)"><g><path d="M 15.96875 -1.078125 C 15.25 -0.628906 14.460938 -0.28125 13.609375 -0.03125 C 12.753906 0.21875 11.992188 0.34375 11.328125 0.34375 C 9.960938 0.34375 8.660156 0.117188 7.421875 -0.328125 C 5.734375 -0.941406 4.375 -1.847656 3.34375 -3.046875 C 2.03125 -4.585938 1.375 -6.535156 1.375 -8.890625 C 1.375 -10.597656 1.804688 -12.148438 2.671875 -13.546875 C 3.546875 -14.941406 4.753906 -16.046875 6.296875 -16.859375 C 7.835938 -17.679688 9.492188 -18.09375 11.265625 -18.09375 C 13.035156 -18.09375 14.625 -17.695312 16.03125 -16.90625 C 17.4375 -16.113281 18.5625 -15.03125 19.40625 -13.65625 C 20.257812 -12.28125 20.6875 -10.785156 20.6875 -9.171875 C 20.6875 -7.566406 20.265625 -6.039062 19.421875 -4.59375 C 18.585938 -3.144531 17.4375 -1.972656 15.96875 -1.078125 Z M 3.984375 -9.28125 C 3.984375 -7.90625 4.285156 -6.539062 4.890625 -5.1875 C 5.503906 -3.832031 6.378906 -2.722656 7.515625 -1.859375 C 8.660156 -1.003906 9.976562 -0.578125 11.46875 -0.578125 C 13.59375 -0.578125 15.253906 -1.394531 16.453125 -3.03125 C 17.515625 -4.5 18.046875 -6.375 18.046875 -8.65625 C 18.046875 -10.9375 17.390625 -12.90625 16.078125 -14.5625 C 15.441406 -15.363281 14.660156 -16.007812 13.734375 -16.5 C 12.804688 -16.988281 11.867188 -17.234375 10.921875 -17.234375 C 9.984375 -17.234375 9.210938 -17.128906 8.609375 -16.921875 C 8.015625 -16.710938 7.46875 -16.425781 6.96875 -16.0625 C 6.476562 -15.707031 6.046875 -15.28125 5.671875 -14.78125 C 5.304688 -14.28125 5 -13.738281 4.75 -13.15625 C 4.238281 -11.957031 3.984375 -10.664062 3.984375 -9.28125 Z M 3.984375 -9.28125 "></path></g></g></g><g fill="#c59c50" fill-opacity="1"><g transform="translate(191.730199, 179.002824)"><g><path d="M 10.515625 -17.421875 C 10.597656 -17.421875 10.640625 -17.328125 10.640625 -17.140625 L 10.96875 -14.484375 C 11 -14.316406 11.015625 -14.210938 11.015625 -14.171875 C 11.015625 -14.128906 10.945312 -14.109375 10.8125 -14.109375 C 10.6875 -14.109375 10.609375 -14.125 10.578125 -14.15625 C 10.546875 -14.1875 10.507812 -14.238281 10.46875 -14.3125 C 10.4375 -14.394531 10.398438 -14.484375 10.359375 -14.578125 C 10.316406 -14.679688 10.269531 -14.785156 10.21875 -14.890625 C 10.039062 -15.273438 9.765625 -15.648438 9.390625 -16.015625 C 8.484375 -16.898438 7.453125 -17.34375 6.296875 -17.34375 C 5.609375 -17.34375 4.957031 -17.117188 4.34375 -16.671875 C 3.726562 -16.222656 3.421875 -15.691406 3.421875 -15.078125 C 3.421875 -14.472656 3.535156 -13.941406 3.765625 -13.484375 C 3.992188 -13.035156 4.296875 -12.617188 4.671875 -12.234375 C 5.046875 -11.859375 5.472656 -11.492188 5.953125 -11.140625 C 6.429688 -10.796875 6.921875 -10.445312 7.421875 -10.09375 C 8.742188 -9.164062 9.679688 -8.375 10.234375 -7.71875 C 11.109375 -6.707031 11.582031 -5.570312 11.65625 -4.3125 C 11.65625 -2.894531 11.113281 -1.765625 10.03125 -0.921875 C 8.945312 -0.078125 7.6875 0.34375 6.25 0.34375 C 5.332031 0.34375 4.597656 0.25 4.046875 0.0625 C 3.503906 -0.125 3.128906 -0.257812 2.921875 -0.34375 C 2.710938 -0.425781 2.5625 -0.46875 2.46875 -0.46875 C 2.375 -0.46875 2.316406 -0.46875 2.296875 -0.46875 L 1.6875 -0.34375 C 1.570312 -0.34375 1.503906 -0.425781 1.484375 -0.59375 C 1.242188 -2.65625 1.125 -3.75 1.125 -3.875 C 1.125 -4.007812 1.132812 -4.097656 1.15625 -4.140625 C 1.175781 -4.191406 1.234375 -4.21875 1.328125 -4.21875 C 1.554688 -4.21875 1.765625 -3.882812 1.953125 -3.21875 C 2.828125 -1.34375 4.273438 -0.40625 6.296875 -0.40625 C 7.234375 -0.40625 8.03125 -0.6875 8.6875 -1.25 C 9.351562 -1.820312 9.6875 -2.5625 9.6875 -3.46875 C 9.6875 -4.90625 8.820312 -6.25 7.09375 -7.5 C 6.601562 -7.851562 5.894531 -8.335938 4.96875 -8.953125 C 4.050781 -9.578125 3.316406 -10.203125 2.765625 -10.828125 C 1.910156 -11.785156 1.484375 -12.859375 1.484375 -14.046875 C 1.484375 -15.234375 1.953125 -16.203125 2.890625 -16.953125 C 3.835938 -17.710938 4.921875 -18.09375 6.140625 -18.09375 C 6.773438 -18.09375 7.472656 -17.984375 8.234375 -17.765625 C 8.992188 -17.546875 9.519531 -17.398438 9.8125 -17.328125 Z M 10.515625 -17.421875 "></path></g></g></g><g fill="#c59c50" fill-opacity="1"><g transform="translate(204.510971, 179.002824)"><g><path d="M 0.09375 -0.09375 L 0.09375 -0.453125 C 0.09375 -0.515625 0.125 -0.546875 0.1875 -0.546875 L 0.46875 -0.546875 C 0.8125 -0.566406 1.164062 -0.578125 1.53125 -0.578125 C 1.894531 -0.585938 2.226562 -0.632812 2.53125 -0.71875 C 3.207031 -0.914062 3.546875 -1.414062 3.546875 -2.21875 L 3.546875 -15.34375 C 3.546875 -16.164062 3.0625 -16.691406 2.09375 -16.921875 C 1.820312 -16.972656 1.546875 -17.019531 1.265625 -17.0625 L 1 -17.0625 C 0.925781 -17.0625 0.890625 -17.097656 0.890625 -17.171875 L 0.890625 -17.46875 C 0.890625 -17.53125 0.925781 -17.5625 1 -17.5625 L 12.84375 -17.5625 C 12.988281 -17.5625 13.09375 -17.535156 13.15625 -17.484375 C 13.226562 -17.429688 13.273438 -17.3125 13.296875 -17.125 L 13.515625 -13.515625 C 13.515625 -13.429688 13.453125 -13.390625 13.328125 -13.390625 C 13.203125 -13.390625 13.113281 -13.425781 13.0625 -13.5 C 13.007812 -13.582031 12.941406 -13.882812 12.859375 -14.40625 C 12.785156 -14.9375 12.644531 -15.375 12.4375 -15.71875 C 12.226562 -16.070312 11.863281 -16.296875 11.34375 -16.390625 L 6.140625 -16.390625 C 6.035156 -16.390625 5.984375 -16.332031 5.984375 -16.21875 L 5.984375 -9.78125 C 5.984375 -9.695312 6.023438 -9.65625 6.109375 -9.65625 L 10.421875 -9.65625 C 11.523438 -9.65625 12.078125 -10.300781 12.078125 -11.59375 C 12.078125 -11.664062 12.113281 -11.703125 12.1875 -11.703125 L 12.484375 -11.703125 C 12.546875 -11.703125 12.578125 -11.664062 12.578125 -11.59375 L 12.578125 -6.265625 C 12.578125 -6.203125 12.546875 -6.171875 12.484375 -6.171875 L 12.1875 -6.171875 C 12.113281 -6.171875 12.078125 -6.203125 12.078125 -6.265625 C 12.078125 -7.492188 11.722656 -8.203125 11.015625 -8.390625 C 10.816406 -8.441406 10.601562 -8.46875 10.375 -8.46875 L 6.109375 -8.46875 C 6.023438 -8.46875 5.984375 -8.425781 5.984375 -8.34375 L 5.984375 -2.28125 C 5.984375 -1.65625 6.269531 -1.300781 6.84375 -1.21875 C 7.007812 -1.195312 7.179688 -1.1875 7.359375 -1.1875 L 11.515625 -1.1875 C 12.367188 -1.1875 13.03125 -1.5625 13.5 -2.3125 C 13.84375 -2.851562 14.050781 -3.472656 14.125 -4.171875 C 14.15625 -4.398438 14.28125 -4.515625 14.5 -4.515625 C 14.601562 -4.515625 14.65625 -4.460938 14.65625 -4.359375 L 14.234375 -0.171875 C 14.191406 -0.0546875 14.132812 0 14.0625 0 L 0.1875 0 C 0.125 0 0.09375 -0.03125 0.09375 -0.09375 Z M 0.09375 -0.09375 "></path></g></g></g><g fill="#c59c50" fill-opacity="1"><g transform="translate(220.256485, 179.002824)"><g></g></g></g><g fill="#c59c50" fill-opacity="1"><g transform="translate(227.107776, 179.002824)"><g><path d="M 6.234375 -0.5 C 6.285156 -0.5 6.3125 -0.46875 6.3125 -0.40625 L 6.3125 -0.09375 C 6.3125 -0.03125 6.285156 0 6.234375 0 L 0.421875 0 C 0.359375 0 0.328125 -0.03125 0.328125 -0.09375 L 0.328125 -0.40625 C 0.328125 -0.46875 0.359375 -0.5 0.421875 -0.5 C 1.785156 -0.5 2.523438 -1.082031 2.640625 -2.25 C 2.671875 -2.59375 2.703125 -3.160156 2.734375 -3.953125 C 2.773438 -4.742188 2.882812 -6.445312 3.0625 -9.0625 C 3.25 -11.6875 3.34375 -13.8125 3.34375 -15.4375 L 3.34375 -15.890625 C 3.34375 -16.222656 3.15625 -16.5 2.78125 -16.71875 C 2.40625 -16.945312 2.128906 -17.0625 1.953125 -17.0625 C 1.773438 -17.0625 1.6875 -17.097656 1.6875 -17.171875 L 1.6875 -17.46875 C 1.6875 -17.53125 1.722656 -17.5625 1.796875 -17.5625 L 5.390625 -17.5625 C 5.546875 -17.539062 5.675781 -17.453125 5.78125 -17.296875 L 11.625 -4.265625 C 11.664062 -4.210938 11.695312 -4.164062 11.71875 -4.125 C 11.75 -4.082031 11.8125 -4.0625 11.90625 -4.0625 C 12.007812 -4.070312 12.085938 -4.144531 12.140625 -4.28125 L 17.921875 -17.0625 C 18.085938 -17.394531 18.242188 -17.5625 18.390625 -17.5625 L 22.015625 -17.5625 C 22.078125 -17.5625 22.109375 -17.53125 22.109375 -17.46875 L 22.109375 -17.171875 C 22.109375 -17.097656 22.085938 -17.0625 22.046875 -17.0625 C 21.796875 -17.0625 21.488281 -16.976562 21.125 -16.8125 C 20.570312 -16.570312 20.296875 -16.203125 20.296875 -15.703125 L 21.046875 -1.9375 C 21.054688 -1.507812 21.273438 -1.160156 21.703125 -0.890625 C 22.140625 -0.628906 22.707031 -0.5 23.40625 -0.5 C 23.476562 -0.5 23.515625 -0.46875 23.515625 -0.40625 L 23.515625 -0.09375 C 23.515625 -0.03125 23.476562 0 23.40625 0 L 16.328125 0 C 16.265625 0 16.234375 -0.03125 16.234375 -0.09375 L 16.234375 -0.40625 C 16.234375 -0.46875 16.265625 -0.5 16.328125 -0.5 C 17.816406 -0.5 18.5625 -0.859375 18.5625 -1.578125 L 17.90625 -13.484375 C 17.894531 -13.566406 17.867188 -13.609375 17.828125 -13.609375 C 17.796875 -13.609375 17.765625 -13.570312 17.734375 -13.5 L 11.546875 -0.09375 C 11.515625 -0.03125 11.421875 0 11.265625 0 C 11.109375 0 11.015625 -0.03125 10.984375 -0.09375 L 4.890625 -13.53125 C 4.835938 -13.644531 4.785156 -13.703125 4.734375 -13.703125 C 4.691406 -13.703125 4.671875 -13.613281 4.671875 -13.4375 C 4.671875 -13.050781 4.570312 -11.242188 4.375 -8.015625 C 4.175781 -4.796875 4.078125 -2.789062 4.078125 -2 L 4.078125 -1.484375 C 4.171875 -1.003906 4.640625 -0.695312 5.484375 -0.5625 C 5.722656 -0.519531 5.972656 -0.5 6.234375 -0.5 Z M 6.234375 -0.5 "></path></g></g></g><g fill="#c59c50" fill-opacity="1"><g transform="translate(251.137129, 179.002824)"><g><path d="M 0.09375 -0.09375 L 0.09375 -0.453125 C 0.09375 -0.515625 0.125 -0.546875 0.1875 -0.546875 L 0.46875 -0.546875 C 0.8125 -0.566406 1.164062 -0.578125 1.53125 -0.578125 C 1.894531 -0.585938 2.226562 -0.632812 2.53125 -0.71875 C 3.207031 -0.914062 3.546875 -1.414062 3.546875 -2.21875 L 3.546875 -15.34375 C 3.546875 -16.164062 3.0625 -16.691406 2.09375 -16.921875 C 1.820312 -16.972656 1.546875 -17.019531 1.265625 -17.0625 L 1 -17.0625 C 0.925781 -17.0625 0.890625 -17.097656 0.890625 -17.171875 L 0.890625 -17.46875 C 0.890625 -17.53125 0.925781 -17.5625 1 -17.5625 L 12.84375 -17.5625 C 12.988281 -17.5625 13.09375 -17.535156 13.15625 -17.484375 C 13.226562 -17.429688 13.273438 -17.3125 13.296875 -17.125 L 13.515625 -13.515625 C 13.515625 -13.429688 13.453125 -13.390625 13.328125 -13.390625 C 13.203125 -13.390625 13.113281 -13.425781 13.0625 -13.5 C 13.007812 -13.582031 12.941406 -13.882812 12.859375 -14.40625 C 12.785156 -14.9375 12.644531 -15.375 12.4375 -15.71875 C 12.226562 -16.070312 11.863281 -16.296875 11.34375 -16.390625 L 6.140625 -16.390625 C 6.035156 -16.390625 5.984375 -16.332031 5.984375 -16.21875 L 5.984375 -9.78125 C 5.984375 -9.695312 6.023438 -9.65625 6.109375 -9.65625 L 10.421875 -9.65625 C 11.523438 -9.65625 12.078125 -10.300781 12.078125 -11.59375 C 12.078125 -11.664062 12.113281 -11.703125 12.1875 -11.703125 L 12.484375 -11.703125 C 12.546875 -11.703125 12.578125 -11.664062 12.578125 -11.59375 L 12.578125 -6.265625 C 12.578125 -6.203125 12.546875 -6.171875 12.484375 -6.171875 L 12.1875 -6.171875 C 12.113281 -6.171875 12.078125 -6.203125 12.078125 -6.265625 C 12.078125 -7.492188 11.722656 -8.203125 11.015625 -8.390625 C 10.816406 -8.441406 10.601562 -8.46875 10.375 -8.46875 L 6.109375 -8.46875 C 6.023438 -8.46875 5.984375 -8.425781 5.984375 -8.34375 L 5.984375 -2.28125 C 5.984375 -1.65625 6.269531 -1.300781 6.84375 -1.21875 C 7.007812 -1.195312 7.179688 -1.1875 7.359375 -1.1875 L 11.515625 -1.1875 C 12.367188 -1.1875 13.03125 -1.5625 13.5 -2.3125 C 13.84375 -2.851562 14.050781 -3.472656 14.125 -4.171875 C 14.15625 -4.398438 14.28125 -4.515625 14.5 -4.515625 C 14.601562 -4.515625 14.65625 -4.460938 14.65625 -4.359375 L 14.234375 -0.171875 C 14.191406 -0.0546875 14.132812 0 14.0625 0 L 0.1875 0 C 0.125 0 0.09375 -0.03125 0.09375 -0.09375 Z M 0.09375 -0.09375 "></path></g></g></g><g fill="#c59c50" fill-opacity="1"><g transform="translate(266.882642, 179.002824)"><g><path d="M 0.5625 -17.5 C 0.5625 -17.570312 0.59375 -17.609375 0.65625 -17.609375 L 0.9375 -17.609375 L 4.9375 -17.6875 C 5.414062 -17.707031 5.9375 -17.71875 6.5 -17.71875 L 8.0625 -17.71875 C 9.507812 -17.71875 10.59375 -17.660156 11.3125 -17.546875 C 12.039062 -17.441406 12.753906 -17.316406 13.453125 -17.171875 C 14.160156 -17.023438 14.910156 -16.691406 15.703125 -16.171875 C 16.492188 -15.660156 17.179688 -15.039062 17.765625 -14.3125 C 18.992188 -12.75 19.609375 -11.0625 19.609375 -9.25 C 19.609375 -7.445312 19.132812 -5.828125 18.1875 -4.390625 C 16.820312 -2.304688 14.847656 -0.941406 12.265625 -0.296875 C 11.441406 -0.0976562 10.601562 0 9.75 0 L 0.65625 0 C 0.59375 0 0.5625 -0.03125 0.5625 -0.09375 L 0.5625 -0.453125 C 0.5625 -0.515625 0.59375 -0.546875 0.65625 -0.546875 L 0.9375 -0.546875 C 2.445312 -0.546875 3.203125 -1.03125 3.203125 -2 L 3.203125 -15.640625 C 3.203125 -16.109375 3.019531 -16.460938 2.65625 -16.703125 C 2.300781 -16.941406 1.898438 -17.0625 1.453125 -17.0625 L 0.65625 -17.0625 C 0.59375 -17.0625 0.5625 -17.09375 0.5625 -17.15625 Z M 5.9375 -17.125 C 5.726562 -17.125 5.625 -17.015625 5.625 -16.796875 L 5.625 -1.5625 C 5.625 -0.945312 6.203125 -0.625 7.359375 -0.59375 C 7.703125 -0.582031 8.0625 -0.578125 8.4375 -0.578125 C 11.082031 -0.578125 13.160156 -1.320312 14.671875 -2.8125 C 16.191406 -4.300781 16.953125 -6.28125 16.953125 -8.75 C 16.953125 -11.21875 16.253906 -13.226562 14.859375 -14.78125 C 13.460938 -16.34375 11.617188 -17.125 9.328125 -17.125 Z M 5.9375 -17.125 "></path></g></g></g><g fill="#c59c50" fill-opacity="1"><g transform="translate(287.610912, 179.002824)"><g><path d="M 3.140625 -15.578125 C 3.140625 -16.566406 2.566406 -17.0625 1.421875 -17.0625 C 1.234375 -17.0625 1.140625 -17.097656 1.140625 -17.171875 L 1.140625 -17.46875 C 1.140625 -17.53125 1.175781 -17.5625 1.25 -17.5625 L 7.484375 -17.5625 C 7.554688 -17.5625 7.59375 -17.53125 7.59375 -17.46875 L 7.59375 -17.171875 C 7.59375 -17.097656 7.40625 -17.0625 7.03125 -17.0625 C 6.664062 -17.0625 6.328125 -16.945312 6.015625 -16.71875 C 5.710938 -16.488281 5.5625 -16.007812 5.5625 -15.28125 L 5.5625 -2 C 5.5625 -1 6.140625 -0.5 7.296875 -0.5 C 7.472656 -0.5 7.5625 -0.46875 7.5625 -0.40625 L 7.5625 -0.09375 C 7.5625 -0.03125 7.53125 0 7.46875 0 L 1.21875 0 C 1.15625 0 1.125 -0.03125 1.125 -0.09375 L 1.125 -0.40625 C 1.125 -0.46875 1.304688 -0.5 1.671875 -0.5 C 2.035156 -0.5 2.367188 -0.613281 2.671875 -0.84375 C 2.984375 -1.082031 3.140625 -1.5625 3.140625 -2.28125 Z M 3.140625 -15.578125 "></path></g></g></g><g fill="#c59c50" fill-opacity="1"><g transform="translate(296.318286, 179.002824)"><g><path d="M 16.75 -0.46875 C 16.707031 -0.40625 16.601562 -0.390625 16.4375 -0.421875 C 16.28125 -0.460938 16.09375 -0.484375 15.875 -0.484375 C 15.664062 -0.484375 15.363281 -0.4375 14.96875 -0.34375 C 14.570312 -0.257812 13.945312 -0.125 13.09375 0.0625 C 12.25 0.25 11.484375 0.34375 10.796875 0.34375 C 9.210938 0.34375 7.675781 -0.0234375 6.1875 -0.765625 C 4.707031 -1.515625 3.523438 -2.570312 2.640625 -3.9375 C 1.753906 -5.3125 1.3125 -6.898438 1.3125 -8.703125 C 1.3125 -10.503906 1.753906 -12.132812 2.640625 -13.59375 C 3.929688 -15.738281 5.882812 -17.132812 8.5 -17.78125 C 9.332031 -17.988281 10.160156 -18.09375 10.984375 -18.09375 C 12.128906 -18.09375 13.476562 -17.898438 15.03125 -17.515625 C 15.507812 -17.398438 15.910156 -17.28125 16.234375 -17.15625 C 16.566406 -17.03125 16.769531 -16.96875 16.84375 -16.96875 L 17.21875 -17.0625 L 17.609375 -17.0625 C 17.703125 -17.0625 17.75 -16.992188 17.75 -16.859375 L 17.75 -12.984375 C 17.75 -12.898438 17.675781 -12.859375 17.53125 -12.859375 C 17.382812 -12.859375 17.296875 -12.875 17.265625 -12.90625 C 17.242188 -12.945312 17.21875 -12.992188 17.1875 -13.046875 C 17.164062 -13.097656 17.140625 -13.15625 17.109375 -13.21875 C 17.078125 -13.28125 17.046875 -13.332031 17.015625 -13.375 C 16.992188 -13.425781 16.976562 -13.46875 16.96875 -13.5 C 15.71875 -16 13.828125 -17.25 11.296875 -17.25 C 9.015625 -17.25 7.226562 -16.519531 5.9375 -15.0625 C 4.65625 -13.601562 4.015625 -11.675781 4.015625 -9.28125 C 4.015625 -6.882812 4.722656 -4.828125 6.140625 -3.109375 C 7.554688 -1.390625 9.476562 -0.53125 11.90625 -0.53125 C 13.238281 -0.53125 14.453125 -0.925781 15.546875 -1.71875 C 16.640625 -2.507812 17.492188 -3.476562 18.109375 -4.625 C 18.128906 -4.675781 18.179688 -4.703125 18.265625 -4.703125 L 18.421875 -4.703125 C 18.503906 -4.703125 18.546875 -4.648438 18.546875 -4.546875 C 18.546875 -4.441406 18.519531 -4.347656 18.46875 -4.265625 Z M 16.75 -0.46875 "></path></g></g></g><g fill="#c59c50" fill-opacity="1"><g transform="translate(315.825781, 179.002824)"><g><path d="M 6.625 -0.09375 C 6.625 -0.03125 6.59375 0 6.53125 0 L 0.15625 0 C 0.09375 0 0.0625 -0.03125 0.0625 -0.09375 L 0.0625 -0.40625 C 0.0625 -0.46875 0.113281 -0.5 0.21875 -0.5 C 1.363281 -0.550781 2.132812 -1.15625 2.53125 -2.3125 L 7.609375 -17.03125 C 7.617188 -17.050781 7.625 -17.070312 7.625 -17.09375 L 7.484375 -17.5 C 7.484375 -17.539062 7.5 -17.5625 7.53125 -17.5625 L 10.03125 -17.5625 C 10.039062 -17.550781 10.0625 -17.539062 10.09375 -17.53125 C 10.125 -17.53125 10.148438 -17.507812 10.171875 -17.46875 L 15.4375 -2.671875 C 15.550781 -2.453125 15.644531 -2.25 15.71875 -2.0625 C 15.789062 -1.882812 15.867188 -1.71875 15.953125 -1.5625 C 16.160156 -1.226562 16.488281 -0.96875 16.9375 -0.78125 C 17.320312 -0.59375 17.671875 -0.5 17.984375 -0.5 C 18.054688 -0.5 18.09375 -0.460938 18.09375 -0.390625 L 18.09375 -0.09375 C 18.09375 -0.03125 18.054688 0 17.984375 0 L 10.359375 0 C 10.296875 0 10.265625 -0.03125 10.265625 -0.09375 L 10.265625 -0.40625 C 10.265625 -0.46875 10.414062 -0.503906 10.71875 -0.515625 C 11.03125 -0.535156 11.285156 -0.554688 11.484375 -0.578125 C 12.640625 -0.703125 13.21875 -1.09375 13.21875 -1.75 C 13.21875 -1.789062 13.207031 -1.847656 13.1875 -1.921875 L 11.3125 -7.21875 C 11.300781 -7.238281 11.285156 -7.28125 11.265625 -7.34375 C 11.160156 -7.625 10.984375 -7.765625 10.734375 -7.765625 L 6.3125 -7.765625 C 6.0625 -7.765625 5.867188 -7.625 5.734375 -7.34375 C 5.703125 -7.289062 5.6875 -7.257812 5.6875 -7.25 L 3.828125 -1.78125 L 3.828125 -1.671875 C 3.828125 -1.453125 3.9375 -1.253906 4.15625 -1.078125 C 4.664062 -0.691406 5.347656 -0.5 6.203125 -0.5 L 6.53125 -0.5 C 6.59375 -0.5 6.625 -0.46875 6.625 -0.40625 Z M 10.3125 -9.140625 C 10.46875 -9.140625 10.546875 -9.203125 10.546875 -9.328125 C 10.546875 -9.398438 10.523438 -9.476562 10.484375 -9.5625 L 8.640625 -14.65625 C 8.554688 -14.882812 8.492188 -15 8.453125 -15 C 8.410156 -15 8.34375 -14.882812 8.25 -14.65625 L 6.5 -9.5625 C 6.46875 -9.476562 6.453125 -9.382812 6.453125 -9.28125 C 6.453125 -9.1875 6.515625 -9.140625 6.640625 -9.140625 Z M 10.3125 -9.140625 "></path></g></g></g><g fill="#c59c50" fill-opacity="1"><g transform="translate(333.975479, 179.002824)"><g><path d="M 0.59375 0 C 0.53125 0 0.5 -0.03125 0.5 -0.09375 L 0.5 -0.40625 C 0.5 -0.46875 0.53125 -0.5 0.59375 -0.5 L 0.890625 -0.5 C 1.609375 -0.5 2.234375 -0.648438 2.765625 -0.953125 C 2.984375 -1.078125 3.160156 -1.269531 3.296875 -1.53125 C 3.441406 -1.789062 3.515625 -2.082031 3.515625 -2.40625 L 3.515625 -15.59375 C 3.515625 -16.101562 3.179688 -16.492188 2.515625 -16.765625 C 2.046875 -16.960938 1.550781 -17.0625 1.03125 -17.0625 L 0.765625 -17.0625 C 0.691406 -17.0625 0.65625 -17.097656 0.65625 -17.171875 L 0.65625 -17.46875 C 0.65625 -17.53125 0.691406 -17.5625 0.765625 -17.5625 L 9.1875 -17.5625 C 9.257812 -17.5625 9.296875 -17.53125 9.296875 -17.46875 L 9.296875 -17.171875 C 9.296875 -17.097656 9.257812 -17.0625 9.1875 -17.0625 L 8.65625 -17.0625 C 7.800781 -17.0625 7.046875 -16.941406 6.390625 -16.703125 C 6.203125 -16.640625 6.078125 -16.53125 6.015625 -16.375 C 5.960938 -16.21875 5.9375 -15.957031 5.9375 -15.59375 L 5.9375 -1.765625 C 5.957031 -1.628906 6.03125 -1.5 6.15625 -1.375 C 6.289062 -1.25 6.441406 -1.1875 6.609375 -1.1875 L 11.53125 -1.1875 C 12.269531 -1.1875 13 -1.617188 13.71875 -2.484375 C 13.90625 -2.722656 14.140625 -3.035156 14.421875 -3.421875 C 14.703125 -3.804688 14.878906 -4.023438 14.953125 -4.078125 C 15.210938 -4.273438 15.34375 -4.269531 15.34375 -4.0625 C 15.34375 -4.007812 15.332031 -3.957031 15.3125 -3.90625 L 13.4375 -0.21875 C 13.351562 -0.0703125 13.265625 0 13.171875 0 Z M 0.59375 0 "></path></g></g></g><g fill="#c59c50" fill-opacity="1"><g transform="translate(155.816039, 213.765924)"><g><path d="M 7.875 -2.28125 L 2.765625 -2.28125 L 1.796875 0 L 0.015625 0 L 4.484375 -10.140625 L 6.25 -10.140625 L 10.671875 0 L 8.84375 0 Z M 7.234375 -3.8125 L 5.3125 -8.3125 L 3.40625 -3.8125 Z M 7.234375 -3.8125 "></path></g></g></g><g fill="#c59c50" fill-opacity="1"><g transform="translate(173.073896, 213.765924)"><g><path d="M 8.578125 -8.609375 L 3.046875 -8.609375 L 3.046875 -5.859375 L 8 -5.859375 L 8 -4.328125 L 3.046875 -4.328125 L 3.046875 -1.53125 L 8.75 -1.53125 L 8.75 0 L 1.328125 0 L 1.328125 -10.140625 L 8.578125 -10.140625 Z M 8.578125 -8.609375 "></path></g></g></g><g fill="#c59c50" fill-opacity="1"><g transform="translate(189.144988, 213.765924)"><g><path d="M 4.65625 -10.21875 C 5.976562 -10.21875 7.164062 -9.867188 8.21875 -9.171875 L 7.5 -7.65625 C 6.46875 -8.289062 5.476562 -8.609375 4.53125 -8.609375 C 4.019531 -8.609375 3.613281 -8.515625 3.3125 -8.328125 C 3.019531 -8.140625 2.875 -7.878906 2.875 -7.546875 C 2.875 -7.210938 3.007812 -6.925781 3.28125 -6.6875 C 3.550781 -6.445312 3.890625 -6.269531 4.296875 -6.15625 C 4.703125 -6.050781 5.140625 -5.910156 5.609375 -5.734375 C 6.085938 -5.566406 6.53125 -5.390625 6.9375 -5.203125 C 7.34375 -5.015625 7.675781 -4.71875 7.9375 -4.3125 C 8.207031 -3.914062 8.34375 -3.4375 8.34375 -2.875 C 8.34375 -1.976562 7.988281 -1.265625 7.28125 -0.734375 C 6.570312 -0.203125 5.648438 0.0625 4.515625 0.0625 C 3.742188 0.0625 2.992188 -0.0820312 2.265625 -0.375 C 1.546875 -0.664062 0.914062 -1.054688 0.375 -1.546875 L 1.109375 -3.03125 C 1.628906 -2.550781 2.191406 -2.179688 2.796875 -1.921875 C 3.410156 -1.671875 3.992188 -1.546875 4.546875 -1.546875 C 5.148438 -1.546875 5.617188 -1.65625 5.953125 -1.875 C 6.285156 -2.09375 6.453125 -2.394531 6.453125 -2.78125 C 6.453125 -3.125 6.316406 -3.414062 6.046875 -3.65625 C 5.773438 -3.894531 5.4375 -4.066406 5.03125 -4.171875 C 4.625 -4.285156 4.179688 -4.421875 3.703125 -4.578125 C 3.234375 -4.742188 2.796875 -4.914062 2.390625 -5.09375 C 1.984375 -5.269531 1.644531 -5.554688 1.375 -5.953125 C 1.101562 -6.347656 0.96875 -6.828125 0.96875 -7.390625 C 0.96875 -8.242188 1.304688 -8.925781 1.984375 -9.4375 C 2.660156 -9.957031 3.550781 -10.21875 4.65625 -10.21875 Z M 4.65625 -10.21875 "></path></g></g></g><g fill="#c59c50" fill-opacity="1"><g transform="translate(204.72401, 213.765924)"><g><path d="M 8.25 -8.609375 L 5.046875 -8.609375 L 5.046875 0 L 3.328125 0 L 3.328125 -8.609375 L 0.125 -8.609375 L 0.125 -10.140625 L 8.25 -10.140625 Z M 8.25 -8.609375 "></path></g></g></g><g fill="#c59c50" fill-opacity="1"><g transform="translate(219.68071, 213.765924)"><g><path d="M 10.125 0 L 8.421875 0 L 8.421875 -4.203125 L 3.046875 -4.203125 L 3.046875 0 L 1.328125 0 L 1.328125 -10.140625 L 3.046875 -10.140625 L 3.046875 -5.734375 L 8.421875 -5.734375 L 8.421875 -10.140625 L 10.125 -10.140625 Z M 10.125 0 "></path></g></g></g><g fill="#c59c50" fill-opacity="1"><g transform="translate(237.705617, 213.765924)"><g><path d="M 8.578125 -8.609375 L 3.046875 -8.609375 L 3.046875 -5.859375 L 8 -5.859375 L 8 -4.328125 L 3.046875 -4.328125 L 3.046875 -1.53125 L 8.75 -1.53125 L 8.75 0 L 1.328125 0 L 1.328125 -10.140625 L 8.578125 -10.140625 Z M 8.578125 -8.609375 "></path></g></g></g><g fill="#c59c50" fill-opacity="1"><g transform="translate(253.776714, 213.765924)"><g><path d="M 8.25 -8.609375 L 5.046875 -8.609375 L 5.046875 0 L 3.328125 0 L 3.328125 -8.609375 L 0.125 -8.609375 L 0.125 -10.140625 L 8.25 -10.140625 Z M 8.25 -8.609375 "></path></g></g></g><g fill="#c59c50" fill-opacity="1"><g transform="translate(268.73342, 213.765924)"><g><path d="M 3.046875 0 L 1.328125 0 L 1.328125 -10.140625 L 3.046875 -10.140625 Z M 3.046875 0 "></path></g></g></g><g fill="#c59c50" fill-opacity="1"><g transform="translate(279.681192, 213.765924)"><g><path d="M 5.828125 -10.1875 C 6.535156 -10.1875 7.226562 -10.046875 7.90625 -9.765625 C 8.59375 -9.492188 9.179688 -9.113281 9.671875 -8.625 L 8.671875 -7.375 C 8.304688 -7.769531 7.875 -8.082031 7.375 -8.3125 C 6.875 -8.539062 6.367188 -8.65625 5.859375 -8.65625 C 4.835938 -8.65625 3.976562 -8.3125 3.28125 -7.625 C 2.582031 -6.9375 2.234375 -6.09375 2.234375 -5.09375 C 2.234375 -4.09375 2.582031 -3.242188 3.28125 -2.546875 C 3.976562 -1.859375 4.835938 -1.515625 5.859375 -1.515625 C 6.910156 -1.515625 7.847656 -1.914062 8.671875 -2.71875 L 9.6875 -1.59375 C 9.164062 -1.082031 8.554688 -0.675781 7.859375 -0.375 C 7.171875 -0.0703125 6.472656 0.078125 5.765625 0.078125 C 4.273438 0.078125 3.023438 -0.414062 2.015625 -1.40625 C 1.003906 -2.394531 0.5 -3.617188 0.5 -5.078125 C 0.5 -6.523438 1.007812 -7.738281 2.03125 -8.71875 C 3.0625 -9.695312 4.328125 -10.1875 5.828125 -10.1875 Z M 5.828125 -10.1875 "></path></g></g></g><g fill="#c59c50" fill-opacity="1"><g transform="translate(296.345678, 213.765924)"><g><path d="M 4.65625 -10.21875 C 5.976562 -10.21875 7.164062 -9.867188 8.21875 -9.171875 L 7.5 -7.65625 C 6.46875 -8.289062 5.476562 -8.609375 4.53125 -8.609375 C 4.019531 -8.609375 3.613281 -8.515625 3.3125 -8.328125 C 3.019531 -8.140625 2.875 -7.878906 2.875 -7.546875 C 2.875 -7.210938 3.007812 -6.925781 3.28125 -6.6875 C 3.550781 -6.445312 3.890625 -6.269531 4.296875 -6.15625 C 4.703125 -6.050781 5.140625 -5.910156 5.609375 -5.734375 C 6.085938 -5.566406 6.53125 -5.390625 6.9375 -5.203125 C 7.34375 -5.015625 7.675781 -4.71875 7.9375 -4.3125 C 8.207031 -3.914062 8.34375 -3.4375 8.34375 -2.875 C 8.34375 -1.976562 7.988281 -1.265625 7.28125 -0.734375 C 6.570312 -0.203125 5.648438 0.0625 4.515625 0.0625 C 3.742188 0.0625 2.992188 -0.0820312 2.265625 -0.375 C 1.546875 -0.664062 0.914062 -1.054688 0.375 -1.546875 L 1.109375 -3.03125 C 1.628906 -2.550781 2.191406 -2.179688 2.796875 -1.921875 C 3.410156 -1.671875 3.992188 -1.546875 4.546875 -1.546875 C 5.148438 -1.546875 5.617188 -1.65625 5.953125 -1.875 C 6.285156 -2.09375 6.453125 -2.394531 6.453125 -2.78125 C 6.453125 -3.125 6.316406 -3.414062 6.046875 -3.65625 C 5.773438 -3.894531 5.4375 -4.066406 5.03125 -4.171875 C 4.625 -4.285156 4.179688 -4.421875 3.703125 -4.578125 C 3.234375 -4.742188 2.796875 -4.914062 2.390625 -5.09375 C 1.984375 -5.269531 1.644531 -5.554688 1.375 -5.953125 C 1.101562 -6.347656 0.96875 -6.828125 0.96875 -7.390625 C 0.96875 -8.242188 1.304688 -8.925781 1.984375 -9.4375 C 2.660156 -9.957031 3.550781 -10.21875 4.65625 -10.21875 Z M 4.65625 -10.21875 "></path></g></g></g><path fill="#c59c50" d="M 80.691406 159.800781 C 80.390625 160.289062 80.832031 160.636719 81.238281 160.808594 C 82.21875 161.222656 83.429688 161.394531 84.484375 161.457031 C 99.574219 162.359375 108.035156 177.792969 105.6875 191.714844 C 105.964844 191.46875 106.234375 191.207031 106.496094 190.9375 C 111.851562 185.402344 112.328125 176.546875 109.492188 169.671875 C 106.972656 163.558594 101.476562 158.371094 94.691406 157.667969 C 90.414062 157.226562 85.539062 157.726562 81.5 159.261719 C 81.191406 159.378906 80.867188 159.519531 80.691406 159.800781 Z M 80.691406 159.800781 " fill-opacity="1" fill-rule="nonzero"></path><path fill="#c59c50" d="M 70.464844 167.148438 C 69.714844 167.21875 69.007812 167.625 68.542969 168.21875 C 65.421875 172.210938 65.09375 178.417969 67.554688 182.75 C 69.785156 186.675781 74.855469 188.910156 79.25 188.511719 C 81.019531 188.351562 82.75 187.789062 84.28125 186.894531 C 88.695312 184.304688 91.121094 178.996094 90.214844 173.964844 C 89.777344 171.53125 88.566406 169.203125 86.664062 167.628906 C 84.761719 166.050781 82.144531 165.285156 79.734375 165.820312 C 77.320312 166.355469 75.203125 168.261719 74.632812 170.664062 C 74.492188 171.265625 74.539062 172.058594 75.113281 172.28125 C 75.628906 172.480469 76.148438 172.0625 76.585938 171.730469 C 76.695312 171.644531 76.808594 171.566406 76.925781 171.492188 C 78.683594 170.328125 81.035156 170.09375 82.984375 170.910156 C 85.679688 172.042969 87.386719 174.988281 86.644531 177.855469 C 79.285156 186.65625 68.941406 176.289062 70.519531 167.144531 C 70.5 167.144531 70.484375 167.144531 70.464844 167.148438 Z M 70.464844 167.148438 " fill-opacity="1" fill-rule="nonzero"></path><path fill="#c59c50" d="M 64.222656 190.316406 C 63.949219 191.417969 65.351562 193.277344 65.878906 194.121094 C 68.125 197.683594 71.019531 200.636719 74.984375 202.226562 C 78.898438 203.800781 83.355469 203.902344 87.386719 202.703125 C 88.085938 202.496094 88.777344 202.246094 89.449219 201.960938 C 96.054688 199.15625 101.164062 192.519531 101.777344 185.3125 C 101.984375 182.898438 101.648438 180.449219 100.734375 178.199219 C 100.25 177.007812 99.609375 175.882812 98.847656 174.847656 C 98.4375 174.296875 97.996094 173.769531 97.523438 173.269531 C 97.257812 172.984375 96.058594 172.160156 96.007812 171.828125 C 98.679688 188.617188 81.265625 200.316406 66.980469 191.183594 C 66.539062 190.898438 64.527344 189.09375 64.222656 190.316406 Z M 64.222656 190.316406 " fill-opacity="1" fill-rule="nonzero"></path><path fill="#c59c50" d="M 62.144531 196.800781 C 52.40625 176.367188 66.539062 157.523438 86.210938 154.007812 C 74.5625 146.734375 56.414062 153.890625 51.746094 167.085938 C 48.640625 177.109375 52.359375 192.5 62.144531 196.800781 Z M 62.144531 196.800781 " fill-opacity="1" fill-rule="nonzero"></path><path fill="#c59c50" d="M 113.300781 189.375 C 111.289062 190.964844 110.117188 193.238281 108.617188 195.265625 C 107.042969 197.398438 105.214844 199.359375 103.15625 201.035156 C 94.148438 208.382812 81.484375 210.085938 70.492188 206.796875 C 66.359375 205.5625 62.4375 203.589844 59.035156 200.929688 C 55.289062 198 52.300781 194.296875 50.234375 190.007812 C 47.632812 184.605469 46.976562 178.839844 46.683594 172.925781 C 46.644531 172.144531 46.117188 171.476562 45.371094 172.175781 C 45.125 172.40625 44.972656 172.722656 44.832031 173.03125 C 42.851562 177.429688 42.058594 182.316406 42.082031 187.121094 C 42.101562 191.503906 42.808594 195.886719 44.324219 200.007812 C 44.632812 200.84375 44.976562 201.671875 45.351562 202.484375 C 49.859375 212.257812 59.160156 219.355469 69.542969 221.921875 C 80.296875 224.582031 92.335938 222.371094 101 215.339844 C 104.449219 212.539062 107.332031 209.050781 109.460938 205.148438 C 111.730469 200.992188 112.761719 196.5625 113.894531 192.007812 C 114.082031 191.257812 114.988281 188.042969 113.300781 189.375 Z M 113.300781 189.375 " fill-opacity="1" fill-rule="nonzero"></path><g clip-path="url(#63272aaee5)"><path fill="#c59c50" d="M 78.191406 140.558594 C 52.554688 140.558594 31.695312 161.417969 31.695312 187.058594 C 31.691406 212.699219 52.550781 233.558594 78.191406 233.558594 C 103.832031 233.558594 124.691406 212.699219 124.691406 187.058594 C 124.691406 161.417969 103.832031 140.558594 78.191406 140.558594 Z M 78.191406 229.398438 C 54.847656 229.398438 35.855469 210.402344 35.855469 187.058594 C 35.855469 163.714844 54.847656 144.722656 78.191406 144.722656 C 101.539062 144.722656 120.53125 163.714844 120.53125 187.058594 C 120.53125 210.402344 101.539062 229.398438 78.191406 229.398438 Z M 78.191406 229.398438 " fill-opacity="1" fill-rule="nonzero"></path></g></svg>