<svg width="236" height="25" viewBox="0 0 236 25" fill="none" xmlns="http://www.w3.org/2000/svg">
<g clip-path="url(#clip0_3595_46481)">
<path d="M0.112303 23.4408C1.60218 24.2429 4.53702 25.0075 7.1649 25.0075C13.4538 25.0075 16.0892 21.6117 16.0892 18.021C16.0892 14.7002 14.2999 12.6012 8.96174 10.6897C4.68676 9.16042 3.09206 7.90105 3.09206 5.53973C3.09206 3.55322 4.84398 1.67916 7.82374 1.67916C10.3393 1.67916 12.3233 2.4063 14.225 3.89805L15.0261 1.34183C13.6934 0.697151 10.8709 0.00749625 8.08578 0.00749625C2.36584 0 0 3.35832 0 6.52924C0 9.70015 1.86422 11.9115 6.5959 13.5157C11.6271 15.2324 12.8474 16.7241 12.8474 18.8981C12.8474 21.072 11.2452 23.3283 7.39699 23.3283C4.88142 23.3283 2.89741 22.3388 0.920881 20.8096L0.119789 23.4408H0.112303ZM45.9916 24.4378L36.2288 10.3898L45.9168 0.569715H43.2065L31.2351 12.8261V0.569715H27.5366V24.4303H31.2351V15.4198L33.7132 12.9011L41.492 24.4303H45.9916V24.4378ZM60.2316 0.569715H56.5331V24.4303H60.2316V0.569715ZM91.4891 24.3103V0.569715H89.4677V20.1124H89.1981L77.1219 0.41979L73.2362 0.727137V24.4303H75.2577V4.85008H75.4898L87.6858 24.6252L91.4966 24.3178L91.4891 24.3103ZM103.311 23.4333C104.801 24.2354 107.736 25 110.363 25C116.652 25 119.288 21.6042 119.288 18.0135C119.288 14.6927 117.498 12.5937 112.16 10.6822C107.893 9.15292 106.291 7.89355 106.291 5.53223C106.291 3.54573 108.043 1.67166 111.022 1.67166C113.538 1.67166 115.522 2.3988 117.431 3.89056L118.232 1.33433C116.899 0.689655 114.077 0 111.292 0C105.572 0 103.206 3.35832 103.206 6.52924C103.206 9.70015 105.07 11.9115 109.802 13.5157C114.833 15.2324 116.053 16.7241 116.053 18.8981C116.053 21.072 114.451 23.3283 110.603 23.3283C108.087 23.3283 106.103 22.3388 104.119 20.8096L103.318 23.4408L103.311 23.4333ZM134.434 24.4303V14.8876C135.429 14.9625 136.567 15.0375 137.638 15.0375C142.751 15.0375 146.982 12.2864 146.982 7.06147C146.982 3.5907 144.047 0.344828 137.833 0.457271L130.743 0.569715V24.4303H134.441H134.434ZM137.481 2.24888C140.797 2.24888 143.088 4.46027 143.088 7.78111C143.088 11.1019 140.573 13.3508 137.294 13.3508C136.186 13.3508 135.272 13.2759 134.434 13.081V2.25637H137.481V2.24888ZM161.454 0.569715H157.755V24.4303H161.454V0.569715ZM191.835 24.4303L184.932 13.2459C188.399 12.1364 190.458 9.65517 190.458 6.45427C190.458 2.94603 187.905 0.344828 181.878 0.457271L174.443 0.607196V24.4303H178.142V14.048L181.458 14.1604L187.598 24.4303H191.828H191.835ZM180.852 2.24888C184.588 2.24888 186.572 3.92804 186.572 7.24888C186.572 10.5697 184.019 12.3688 180.545 12.3688C179.781 12.3688 178.793 12.2939 178.142 12.1739V2.25637H180.852V2.24888ZM206.315 0.569715H202.616V24.4303H206.315V0.569715ZM228.333 24.4303V2.29385H229.898C232.451 2.29385 234.36 2.56372 236 3.05847V0.569715H216.939V3.05097C218.578 2.55622 220.487 2.28636 223.04 2.28636H224.642V24.4303H228.341H228.333Z" fill="#10312B"/>
</g>
<defs>
<clipPath id="clip0_3595_46481">
<rect width="236" height="25" fill="white"/>
</clipPath>
</defs>
</svg>
