<?xml version="1.0" standalone="no"?>
<!DOCTYPE svg PUBLIC "-//W3C//DTD SVG 20010904//EN"
 "http://www.w3.org/TR/2001/REC-SVG-20010904/DTD/svg10.dtd">
<svg version="1.0" xmlns="http://www.w3.org/2000/svg"
 width="700.000000pt" height="700.000000pt" viewBox="0 0 700.000000 700.000000"
 preserveAspectRatio="xMidYMid meet">
<metadata>
Created by potrace 1.14, written by Peter Selinger 2001-2017
</metadata>
<g transform="translate(0.000000,700.000000) scale(0.100000,-0.100000)"
fill="#000000" stroke="none">
<path d="M3470 6990 c-257 -34 -421 -85 -655 -202 -348 -174 -603 -426 -755
-743 -68 -142 -100 -249 -128 -421 -10 -59 -8 -335 2 -409 66 -457 331 -808
851 -1125 39 -23 367 -190 730 -370 603 -300 790 -395 1050 -535 278 -149 341
-191 451 -302 145 -147 267 -371 289 -533 3 -25 8 -54 10 -65 2 -11 4 -35 4
-52 1 -28 5 -33 25 -33 53 0 51 -11 50 308 -1 317 -4 366 -35 507 -81 370
-268 673 -549 892 -58 45 -224 153 -236 153 -2 0 -48 21 -102 46 -53 26 -142
68 -197 94 -400 189 -518 247 -820 398 -459 230 -651 359 -784 526 -75 94
-134 209 -162 316 -42 155 -49 394 -18 539 20 88 46 169 61 186 4 5 8 14 8 21
0 12 56 108 112 192 41 61 159 175 240 233 79 55 185 111 288 152 230 91 584
105 835 33 6 -1 30 -8 55 -15 73 -20 209 -81 290 -129 315 -188 538 -507 645
-922 10 -36 19 -78 22 -95 3 -16 6 -31 8 -33 1 -2 84 119 184 268 l181 271
-26 42 c-51 82 -110 153 -204 247 -91 92 -276 240 -299 240 -6 0 -11 5 -11 10
0 6 -4 10 -9 10 -5 0 -39 18 -75 40 -199 121 -477 214 -761 255 -62 9 -504 13
-565 5z"/>
<path d="M2294 2113 c0 -769 -3 -1433 -7 -1476 -10 -102 -32 -194 -62 -263
-32 -72 -122 -162 -199 -198 -55 -26 -205 -68 -286 -80 -52 -7 -214 -23 -256
-25 -25 -1 -35 -20 -27 -50 l5 -21 1966 2 1966 3 1 740 c1 407 -1 746 -3 753
-2 6 -19 12 -38 12 -25 0 -34 -4 -35 -17 0 -10 -2 -26 -4 -35 -2 -9 -6 -35 -9
-57 -11 -78 -68 -307 -103 -411 -134 -400 -272 -580 -559 -727 -89 -46 -197
-87 -264 -99 -14 -3 -43 -9 -65 -14 -52 -11 -179 -28 -280 -36 -129 -11 -987
-11 -1020 -1 -44 14 -91 52 -111 89 -17 31 -18 109 -19 1263 -1 1289 1 1341
43 1505 11 41 32 101 46 134 14 32 26 60 26 62 0 5 -688 344 -698 344 -4 0 -7
-629 -8 -1397z"/>
</g>
</svg>
