<?xml version="1.0" encoding="UTF-8"?> <svg xmlns="http://www.w3.org/2000/svg" xmlns:xlink="http://www.w3.org/1999/xlink" xmlns:xodm="http://www.corel.com/coreldraw/odm/2003" xml:space="preserve" width="6.66666in" height="2.21846in" version="1.1" style="shape-rendering:geometricPrecision; text-rendering:geometricPrecision; image-rendering:optimizeQuality; fill-rule:evenodd; clip-rule:evenodd" viewBox="0 0 6666.66 2218.46"> <defs> <style type="text/css"> .fil1 {fill:none} .fil0 {fill:#CCB194} </style> </defs> <g id="Layer_x0020_1"> <metadata id="CorelCorpID_0Corel-Layer"></metadata> <g> <path class="fil0" d="M1036.43 4.74c-406.26,27.35 -759.44,268.96 -933.94,638.89 -66.31,140.57 -102.5,305.82 -102.5,468.02 0,425.77 240.15,809.85 623.23,996.77 160.09,78.11 301.57,110.26 485.28,110.26 177.96,0 321.94,-31.83 475.43,-105.11 226.09,-107.95 406.23,-284.8 517.76,-508.34 74.7,-149.71 108.88,-287.94 113.8,-460.16 5.31,-186.11 -27.7,-346.79 -104.47,-508.59 -155.02,-326.73 -461.37,-558.54 -818.69,-619.5 -38.24,-6.52 -180.51,-18.53 -196.14,-16.55 -2.71,0.34 -29.6,2.28 -59.76,4.31l0 0zm-35.79 128.59c-184.24,19.26 -375.24,100.67 -520.3,221.75 -295.76,246.89 -420.07,636.35 -322.15,1009.22 81.48,310.3 319.03,567.9 621.98,674.48 119.27,41.97 219.06,56.8 357.89,53.2 99.06,-2.57 142.35,-8.4 224.13,-30.17 382.43,-101.78 667.86,-426.17 722.16,-820.68 14.57,-105.86 5.78,-261.85 -20.7,-367.04 -60.25,-239.41 -209.2,-449.07 -415.67,-585.14 -187.3,-123.43 -420.04,-179.38 -647.34,-155.63l0 0zm46.28 51.13c-37.94,3.75 -92,11.44 -120.14,17.09 -349.98,70.24 -631.23,337.71 -717.55,682.39 -22.97,91.71 -28.87,152.46 -25.49,262.17 3.51,113.67 20.31,200.22 60.71,312.64 70.46,196.07 260.83,396.39 467.78,492.22 106.14,49.15 259.06,88.67 312.49,80.75l22.15 -3.28 -12.9 -10.61c-20.28,-16.67 -24.01,-28.88 -24.01,-78.53 0,-42.68 -0.99,-47.48 -12.31,-59.7 -13.91,-15 -14.69,-22.18 -5.27,-48.57 6.44,-18.04 6.23,-18.81 -7.62,-28.67 -23.38,-16.65 -25.9,-26.03 -14.17,-52.55 5.67,-12.8 9.16,-27.75 7.76,-33.2 -1.4,-5.45 -13.64,-16.11 -27.2,-23.68 -57.06,-31.82 -54.96,-51.13 14.3,-131.58 61.44,-71.36 64.17,-78.43 52.4,-135.39 -15.26,-73.75 -6.41,-124.7 38.54,-221.98l16.75 -36.26 -87.18 -117.26c-47.95,-64.5 -94.53,-127.96 -103.52,-141.05 -25.29,-36.8 -54.15,-102.39 -68.22,-155.03 -11.04,-41.28 -12.83,-58.27 -13.14,-124.19 -0.44,-93.87 9.49,-138.56 48.71,-219.24 56.26,-115.74 98.79,-151.49 216.59,-182.09 54.35,-14.13 170.72,-24.42 226.89,-20.08 51.26,3.97 40.28,-3.34 -24.91,-16.57 -66.13,-13.42 -138.56,-15.96 -221.42,-7.77l0 0zm165.04 36.42c-27.42,3.85 -62.93,14.26 -70.82,20.76 -2.37,1.95 11.21,38.63 30.19,81.52 18.96,42.89 35.97,84.81 37.78,93.18 1.97,9.13 -0.74,33.69 -6.78,61.35 -5.54,25.37 -10.07,54.21 -10.07,64.08 0,20.04 21.98,57.38 66.2,112.5 14.39,17.93 29.83,39.81 34.3,48.61 7.3,14.35 7.38,17.48 0.8,30.2 -4.04,7.8 -18.51,22.21 -32.15,32.02 -13.65,9.8 -24.81,20.87 -24.81,24.6 0,3.72 4.56,17.09 10.15,29.7 12.14,27.45 9.64,38.05 -13.06,55.37 -16.22,12.37 -16.68,13.54 -9.52,24.46 4.13,6.3 7.52,18.94 7.52,28.09 0,13.18 -2.69,17.85 -12.97,22.54 -14.05,6.39 -13.97,4.86 -3.93,79.43 2.46,18.25 0.95,25.13 -8.53,38.91 -6.33,9.21 -18.92,20.68 -27.96,25.48 -9.04,4.8 -17.44,9.73 -18.65,10.94 -1.21,1.21 34.69,51.82 79.77,112.46 90.8,122.14 112.74,156.51 137.78,215.87 28.87,68.44 37.36,108.26 40.3,188.75 2.31,63.69 1.28,78.54 -8.35,120.23 -11.2,48.5 -39.74,111.55 -60.48,133.65 -17.82,18.99 -101.48,77.33 -142.93,99.67 -21.06,11.35 -58.6,27.89 -83.41,36.74 -40.22,14.36 -43.98,16.71 -34.69,21.68 21.28,11.39 150.2,2.73 222.91,-14.96 240.22,-58.49 435.71,-192.62 568.28,-389.91 65.61,-97.65 113.98,-212.98 139.13,-331.78 11.07,-52.31 13.8,-79.78 15.7,-158.3 2.67,-110.65 -2.61,-162.83 -25.84,-254.79 -50.04,-198.08 -156.5,-368.34 -305.59,-488.67 -76.2,-61.51 -196.69,-128.85 -285.75,-159.7 -39.57,-13.7 -51.5,-15.53 -110.85,-16.93 -36.58,-0.87 -78.7,0.14 -93.61,2.23l0 0zm-129.46 46.06c-98.89,55.42 -166.25,137.92 -188.01,230.26 -9.76,41.4 -9.82,127.16 -0.14,173.19 20.07,95.41 47.89,146.9 162.83,301.39l90.86 122.13 19.69 -11.07c31.36,-17.62 36.34,-28.99 31.94,-72.84 -5.46,-54.53 -4.78,-59.77 9.33,-71.28 16,-13.05 12.88,-29.75 -7.52,-40.31 -7.78,-4.02 -14.15,-9.43 -14.15,-12.02 0,-2.59 10.39,-9.74 23.09,-15.89 31.67,-15.33 34.45,-21.62 21.83,-49.32 -15.44,-33.89 -13.84,-40.32 15.44,-61.94 47.72,-35.26 48.05,-40.18 5.96,-91.2 -41.91,-50.81 -65.87,-86.82 -71.38,-107.31 -3.91,-14.52 -2.74,-28.82 5.49,-66.77 14.89,-68.73 12.46,-82.31 -30.25,-169.38 -19.88,-40.54 -38.49,-73.68 -41.35,-73.64 -2.85,0.03 -18,7.24 -33.66,16.01l0 0zm1425.05 355.61c-75.85,27.95 -142.91,86.8 -176.85,155.22 -21.68,43.69 -27.49,71.69 -27.14,130.81 0.53,88.44 23.2,146.94 78.19,201.77 37.85,37.74 81.17,63.77 176.09,105.78 134.46,59.52 179.46,87.36 208.91,129.24 41.92,59.61 47.07,149.61 13.45,234.57 -10.3,26.02 -20.35,40.31 -46.71,66.41 -18.48,18.29 -30.63,33.26 -27,33.26 12.36,0 62.3,-19.16 95.6,-36.68 94.84,-49.89 158.95,-130 184.33,-230.3 8.44,-33.39 9.82,-49.58 7.45,-87.75 -8.33,-134.23 -75.85,-205.19 -274.17,-288.15 -133.44,-55.81 -188.52,-88.98 -226.67,-136.45 -67.5,-84 -55.31,-213.89 24.93,-265.88 13.33,-8.64 24.23,-16.44 24.23,-17.33 0,-3.5 -18.06,-0.64 -34.63,5.47l0 0zm2388.82 4.59c-47.52,19.54 -74.19,37.69 -113.13,76.94 -56.56,57.02 -83.25,121.35 -83.07,200.28 0.17,77.36 22.85,142.94 66.66,192.72 42.3,48.08 82.22,71.55 245.38,144.29 65.49,29.2 104.31,53.04 134.46,82.57 63.63,62.35 72.25,180.2 20.33,278.07 -14.2,26.77 -47.84,63.35 -63.28,68.82 -3.87,1.37 -5.34,4.3 -3.28,6.51 2.06,2.21 16.48,0.03 32.02,-4.85 118.7,-37.26 216.29,-133.39 250.6,-246.87 13.56,-44.84 12.17,-127.36 -2.9,-172.06 -29.65,-87.92 -87.55,-139.37 -225.09,-200.02 -37.53,-16.54 -88.19,-38.87 -112.58,-49.61 -142.39,-62.72 -200.63,-137.46 -193.51,-248.34 3.65,-56.82 30.82,-99.24 85.65,-133.72 9.06,-5.7 9.05,-5.87 -0.52,-6.04 -5.42,-0.1 -22.4,4.99 -37.73,11.29l0 0zm-1886.15 520.3l0 512.47 120.63 0 120.63 0 1.3 -147.07 1.31 -147.07 100.1 147.07 100.11 147.07 250.92 0 250.93 0 0 -322.7 0 -322.7 -120.67 0 -120.67 0 -1.27 302.79 -1.27 302.78 -160.1 -225.96c-88.06,-124.28 -161.48,-225.11 -163.16,-224.07 -1.69,1.04 -32.73,43.21 -68.99,93.7l-65.93 91.81 -2.46 -358.97 -2.46 -358.97 -119.47 -1.32 -119.47 -1.32 0 512.46 0 0zm775.38 -500.45c-57.32,26.69 -81.48,94.98 -54.27,153.41 20.24,43.48 56.65,66.38 105.19,66.2 66.1,-0.25 116.34,-50.5 115.75,-115.77 -0.78,-86.92 -87.28,-140.81 -166.67,-103.84l0 0zm-990.55 3.61c-75.83,13.37 -120.62,94.04 -89.89,161.92 21.74,48.02 57.65,71.15 110.45,71.15 70.4,0 115.78,-45.27 115.78,-115.49 0,-35.28 -9.38,-60.37 -31.04,-82.94 -27.94,-29.14 -65.83,-41.59 -105.3,-34.64l0 0zm2393.63 -0.12c-51.56,9.68 -94.57,63.02 -94.36,117.03 0.14,34.87 12.13,61.83 37.78,84.96 75.52,68.08 190.48,24.46 197.68,-74.99 5.88,-81.26 -61.53,-141.93 -141.1,-127l0 0zm596.29 348.87c7.33,5.84 20.05,24.39 28.26,41.22 30.56,62.66 41.91,160.84 38.43,332.42 -3.47,170.89 -17.83,240.48 -58.8,284.93l-19.33 20.97 31.08 -7.19c50.39,-11.65 107.94,-43.06 148.78,-81.2 43.96,-41.06 71.98,-82.91 92.35,-137.92 19.87,-53.68 25.15,-139.2 12.19,-197.45 -20.31,-91.29 -82.34,-176.3 -163.24,-223.71 -23.13,-13.55 -75.94,-33.12 -105.8,-39.19l-17.24 -3.51 13.33 10.61 0 0zm-1365.71 4.82c-17.61,4.82 -44.03,13.98 -58.7,20.37l-26.67 11.59 24.21 5.56c44.48,10.2 63.83,24.63 79.45,59.23 8.06,17.85 8.94,42.65 10.28,289.26l1.46 269.74 118.01 0 118.01 0 -0.18 -237.71c-0.19,-249.94 -1.26,-264.37 -23.35,-314.08 -40.71,-91.6 -136.94,-132.85 -242.51,-103.96l0 0zm1901.71 -3.53l-27.1 5.33 17.52 6.15c48.8,17.13 84.49,46.57 101.47,83.69 8.33,18.2 9.13,40.46 10.53,291.91l1.5 272.2 120.89 0 120.88 0 -1.97 -235.25c-1.92,-228.02 -2.31,-236.16 -12.87,-264.81 -14.88,-40.37 -39.1,-75.43 -70.5,-102.07 -31.47,-26.7 -56.09,-39.69 -95.52,-50.41 -36.83,-10.02 -129.04,-13.78 -164.83,-6.74l0 0zm-2305.7 336.58l0 322.7 120.7 0 120.7 0 0 -322.7 0 -322.7 -120.7 0 -120.7 0 0 322.7 0 0zm1395.47 188.45l1.26 511.15 118.24 0 118.24 0 1.25 -511.15 1.25 -511.15 -120.75 0 -120.75 0 1.25 511.15 0 0zm759.12 -486.28c-91.18,17.97 -123.9,139.16 -54.11,200.43 54.76,48.09 137.19,37.28 177.89,-23.33 18.51,-27.57 23.06,-72.64 10.6,-105.26 -19.61,-51.35 -78.54,-82.85 -134.38,-71.84l0 0zm-5094.32 161.12c-60.66,147.45 -60.88,148.46 -46.25,208.98 5.64,23.32 10.25,48.44 10.25,55.82 0,20.31 -26.11,64.71 -62.3,105.94 -17.84,20.32 -38,45.23 -44.8,55.36 -11.7,17.41 -11.93,19.06 -4.42,30.54 4.37,6.67 15.76,15.83 25.3,20.36 18.2,8.63 41.88,33.15 41.88,43.34 0,3.29 -4.43,14.67 -9.85,25.3 -15.14,29.71 -13.19,35.42 17.24,50.35 14.9,7.31 27.1,15.09 27.1,17.3 0,2.2 -5.51,6.51 -12.23,9.57 -17.6,8.02 -22.54,36.44 -8.09,46.57 9.47,6.63 10.46,11.96 10.46,56 0,57.39 3.45,68.56 26.67,86.27l17.43 13.29 38.31 -20.65c95.5,-51.5 167.45,-123.87 202.59,-203.8 46.09,-104.82 24.35,-257.7 -55.55,-390.63 -24.06,-40.02 -159.45,-223.44 -164.95,-223.44 -1.77,0 -5.73,6.1 -8.79,13.55l0 0zm5186.31 120.02c-40.78,6.5 -113.12,44.16 -145.44,75.71 -86.5,84.46 -78.85,222.87 14.99,271.08 25.91,13.31 33.2,14.76 73.45,14.52 48.03,-0.29 97.79,-12.45 141.51,-34.61 29.89,-15.15 31.94,-19.26 9.83,-19.61 -42,-0.67 -77.43,-23.06 -96.7,-61.08 -30.55,-60.28 -3.04,-172.29 57.83,-235.46l15.43 -16.01 -21.91 0.57c-12.05,0.32 -34.1,2.52 -49,4.89l0 0zm-3888.42 30.82c-99.12,36.98 -108.8,172.25 -15.59,217.85 49.54,24.24 101.07,15.69 138.94,-23.04 49.96,-51.1 37.41,-145.1 -24.48,-183.36 -27.61,-17.07 -70.51,-22.03 -98.87,-11.45l0 0zm2405.44 -2.13c-48.51,14.76 -81.14,53.33 -86.98,102.82 -10.43,88.36 80.98,155.93 164.69,121.73 26.29,-10.74 58.53,-46.74 65.74,-73.42 6.81,-25.17 3.13,-70.3 -7.4,-90.66 -24.85,-48.06 -86.61,-75.51 -136.05,-60.48l0 0zm21.63 357.22c-5.31,13.85 0.46,24.9 13.83,26.45 16.3,1.89 28.07,-14.95 18.5,-26.48 -7.6,-9.16 -28.82,-9.14 -32.33,0.03l0 0zm-1800.14 142.84l0 135.81 14.69 0 14.69 0 1.32 -108.66 1.33 -108.67 85.89 108.67c67.66,85.59 88.31,108.66 97.3,108.66l11.41 0 0 -135.48 0 -135.48 -14.69 0 -14.69 0 -1.33 107.36 -1.32 107.36 -84.12 -106.13c-67.49,-85.15 -86.73,-106.44 -97.31,-107.69l-13.18 -1.56 0 135.81 0 0zm995.2 0l0 135.81 14.78 0 14.78 0 0 -107.12 0 -107.12 51.82 88.64c32.98,56.42 54.69,88.65 59.71,88.65 5,0 25.84,-30.66 56.92,-83.76 26.97,-46.06 51.09,-85.86 53.61,-88.43 2.81,-2.88 4.57,36.39 4.57,102.23l0 106.91 12.31 0 12.32 0 0 -135.48 0 -135.48 -11.26 0c-9.46,0 -20.26,15.67 -67.74,98.37 -31.07,54.1 -58.23,97.87 -60.36,97.24 -2.13,-0.61 -29.03,-44.32 -59.79,-97.13 -47.97,-82.36 -57.75,-96.24 -68.8,-97.57l-12.88 -1.56 0 135.81 0 0zm-629.46 -66.39c-27.83,6.78 -53.06,27.19 -64.98,52.54 -24.16,51.41 -4.75,112.42 44.11,138.62 19.1,10.24 27.09,11.6 57.67,9.76 29.04,-1.74 38.68,-4.56 52.99,-15.48 14.74,-11.25 16.69,-14.85 12.36,-22.94 -5.04,-9.42 -5.41,-9.39 -19.84,1.28 -10.51,7.77 -23.74,11.45 -46.37,12.89 -45.79,2.91 -70.28,-13.78 -83.61,-56.99l-3.42 -11.08 87.22 0 87.22 0 -3.05 -22.26c-8.46,-61.74 -62.4,-100.45 -120.3,-86.34l0 0zm1049.39 0c-27.83,6.78 -53.06,27.19 -64.98,52.54 -24.16,51.41 -4.75,112.42 44.11,138.62 19.1,10.24 27.09,11.6 57.67,9.76 29.04,-1.74 38.68,-4.56 52.99,-15.48 14.74,-11.25 16.69,-14.85 12.36,-22.94 -5.04,-9.42 -5.42,-9.39 -19.84,1.28 -10.51,7.77 -23.74,11.45 -46.37,12.89 -45.79,2.91 -70.28,-13.78 -83.61,-56.99l-3.42 -11.08 87.22 0 87.22 0 -3.05 -22.26c-8.46,-61.74 -62.4,-100.45 -120.3,-86.34l0 0zm544.46 2.24c-46.07,12.39 -72.77,48.58 -72.56,98.33 0.26,60.19 42.2,101.63 102.87,101.63 29.86,0 47.96,-6.43 65.67,-23.32 10.28,-9.8 12.17,-14.39 8.02,-19.39 -7.61,-9.17 -14.15,-8.2 -27.16,4.01 -11.99,11.26 -50.45,17.74 -72.5,12.2 -18.3,-4.59 -41.59,-30.57 -47.68,-53.18 -20.09,-74.65 60.65,-131.68 121.13,-85.56 13.74,10.48 16.98,11.18 24.89,5.4 8.61,-6.3 8.24,-7.44 -6.87,-21.56 -10.05,-9.39 -25.13,-16.87 -40.72,-20.22 -29.02,-6.22 -25.42,-6.33 -55.08,1.65l0 0zm216.78 -0.11c-49.29,13.49 -74.85,51.02 -71.59,105.13 1.46,24.2 4.93,35.06 16.4,51.35 45.69,64.86 147.8,55.97 178.54,-15.53 15.94,-37.11 5.31,-95.07 -21.82,-118.88 -26.41,-23.18 -66.02,-31.79 -101.52,-22.07l0 0zm-1661.82 6.3c1.93,4.96 19.22,50.59 38.41,101.39 32.93,87.21 35.59,92.37 47.67,92.37 11.03,0 14.29,-3.91 23.66,-28.33 43.94,-114.53 52.22,-134.35 54.96,-131.66 1.7,1.68 16.54,37.8 32.96,80.28 28.58,73.93 30.44,77.24 43.51,77.24 13.21,0 14.84,-3.13 50.06,-96.07 20.03,-52.84 36.47,-97.73 36.54,-99.77 0.07,-2.04 -4.89,-3.69 -11.02,-3.69 -9.93,0 -14.62,9.26 -42.53,83.93 -17.26,46.16 -32.66,82.63 -34.23,81.06 -1.57,-1.57 -16.3,-38.78 -32.72,-82.69 -27.29,-72.95 -30.96,-79.96 -42.57,-81.33 -12.19,-1.43 -13.98,1.9 -44.22,82.44 -17.34,46.17 -32.63,83.94 -33.98,83.94 -1.35,0 -15.93,-37.1 -32.37,-82.44 -28.42,-78.33 -30.61,-82.54 -43.79,-84.08 -11.72,-1.37 -13.33,-0.22 -10.35,7.39l0 0zm1060.58 -2.07c2.59,3.39 17.64,22.78 33.44,43.11 15.8,20.32 30.59,39.41 32.87,42.42 2.59,3.41 -7.15,20.07 -25.94,44.34 -16.54,21.38 -34.45,44.97 -39.78,52.42l-9.69 13.55 14.45 0c12.37,0 18.99,-6.01 45.91,-41.67 17.3,-22.91 32.66,-41.76 34.14,-41.88 1.48,-0.11 16.64,18.64 33.7,41.67 26.8,36.19 33,41.87 45.65,41.87 17.43,0 18.66,2.5 -28.94,-58.49 -23.02,-29.48 -34.52,-48.19 -31.83,-51.73 2.32,-3.05 17.15,-22.18 32.94,-42.5 15.8,-20.32 30.85,-39.72 33.44,-43.11 3.53,-4.61 0.98,-6.16 -10.15,-6.16 -12.69,0 -18.99,5.39 -43.16,36.95 -15.57,20.32 -29.94,36.95 -31.95,36.95 -2.01,0 -16.16,-16.63 -31.46,-36.95 -24.12,-32.05 -29.83,-36.95 -43.07,-36.95 -11.44,0 -14.08,1.54 -10.55,6.16l0 0zm228.04 94.84l0 101 12.32 0 12.31 0 0 -101 0 -101 -12.31 0 -12.32 0 0 101 0 0zm-1446.5 -74.25c-17.11,7.46 -33.34,27.96 -38.28,48.39l-3.28 13.55 74.32 0 74.33 0 -3.31 -11.09c-14.29,-47.82 -59.66,-70.05 -103.79,-50.85l0 0zm1049.39 0c-17.11,7.46 -33.34,27.96 -38.28,48.39l-3.28 13.55 74.33 0 74.33 0 -3.31 -11.09c-14.29,-47.82 -59.66,-70.05 -103.79,-50.85l0 0zm769.08 -0.08c-43.12,19.17 -58.07,75.46 -31.61,119.07 14.23,23.46 37.05,33.42 70.24,30.67 42.99,-3.57 67.29,-32.1 67.29,-79.01 0,-55.57 -55.96,-92.93 -105.92,-70.72z"></path> </g> <path class="fil1" d="M4406.43 1809.81c-17.11,7.46 -33.34,27.96 -38.28,48.39l-3.28 13.55 74.33 0 74.33 0 -3.31 -11.09c-14.29,-47.82 -59.66,-70.05 -103.79,-50.85"></path> <path class="fil1" d="M3357.04 1809.81c-17.11,7.46 -33.34,27.96 -38.28,48.39l-3.28 13.55 74.32 0 74.33 0 -3.31 -11.09c-14.29,-47.82 -59.66,-70.05 -103.79,-50.85"></path> <path class="fil1" d="M4803.54 1884.07l0 101 12.32 0 12.31 0 0 -101 0 -101 -12.31 0 -12.32 0 0 101"></path> <path class="fil1" d="M4575.5 1789.23c2.59,3.39 17.64,22.78 33.44,43.11 15.8,20.32 30.59,39.41 32.87,42.42 2.59,3.41 -7.15,20.07 -25.94,44.34 -16.54,21.38 -34.45,44.97 -39.78,52.42l-9.69 13.55 14.45 0c12.37,0 18.99,-6.01 45.91,-41.67 17.3,-22.91 32.66,-41.76 34.14,-41.88 1.48,-0.11 16.64,18.64 33.7,41.67 26.8,36.19 33,41.87 45.65,41.87 17.43,0 18.66,2.5 -28.94,-58.49 -23.02,-29.48 -34.52,-48.19 -31.83,-51.73 2.32,-3.05 17.15,-22.18 32.94,-42.5 15.8,-20.32 30.85,-39.72 33.44,-43.11 3.53,-4.61 0.98,-6.16 -10.15,-6.16 -12.69,0 -18.99,5.39 -43.16,36.95 -15.57,20.32 -29.94,36.95 -31.95,36.95 -2.01,0 -16.16,-16.63 -31.46,-36.95 -24.12,-32.05 -29.83,-36.95 -43.07,-36.95 -11.44,0 -14.08,1.54 -10.55,6.16"></path> <path class="fil1" d="M3514.92 1791.3c1.93,4.96 19.22,50.59 38.41,101.39 32.93,87.21 35.59,92.37 47.67,92.37 11.03,0 14.29,-3.91 23.66,-28.33 43.94,-114.53 52.22,-134.35 54.96,-131.66 1.7,1.68 16.54,37.8 32.96,80.28 28.58,73.93 30.44,77.24 43.51,77.24 13.21,0 14.84,-3.13 50.06,-96.07 20.03,-52.84 36.47,-97.73 36.54,-99.77 0.07,-2.04 -4.89,-3.69 -11.02,-3.69 -9.93,0 -14.62,9.26 -42.53,83.93 -17.26,46.16 -32.66,82.63 -34.23,81.06 -1.57,-1.57 -16.3,-38.78 -32.72,-82.69 -27.29,-72.95 -30.96,-79.96 -42.57,-81.33 -12.19,-1.43 -13.98,1.9 -44.22,82.44 -17.34,46.17 -32.63,83.94 -33.98,83.94 -1.35,0 -15.93,-37.1 -32.37,-82.44 -28.42,-78.33 -30.61,-82.54 -43.79,-84.08 -11.72,-1.37 -13.33,-0.22 -10.35,7.39"></path> <path class="fil1" d="M4959.96 1785.11c-46.07,12.39 -72.77,48.58 -72.56,98.33 0.26,60.19 42.2,101.63 102.87,101.63 29.86,0 47.96,-6.43 65.67,-23.32 10.28,-9.8 12.17,-14.39 8.02,-19.39 -7.61,-9.17 -14.15,-8.2 -27.16,4.01 -11.99,11.26 -50.45,17.74 -72.5,12.2 -18.3,-4.59 -41.59,-30.57 -47.68,-53.18 -20.09,-74.65 60.65,-131.68 121.13,-85.56 13.74,10.48 16.98,11.18 24.89,5.4 8.61,-6.3 8.24,-7.44 -6.87,-21.56 -10.05,-9.39 -25.13,-16.87 -40.72,-20.22 -29.02,-6.22 -25.42,-6.33 -55.08,1.65"></path> <path class="fil1" d="M4415.5 1782.86c-27.83,6.78 -53.06,27.19 -64.98,52.54 -24.16,51.41 -4.75,112.42 44.11,138.62 19.1,10.24 27.09,11.6 57.67,9.76 29.04,-1.74 38.68,-4.56 52.99,-15.48 14.74,-11.25 16.69,-14.85 12.36,-22.94 -5.04,-9.42 -5.42,-9.39 -19.84,1.28 -10.51,7.77 -23.74,11.45 -46.37,12.89 -45.79,2.91 -70.28,-13.78 -83.61,-56.99l-3.42 -11.08 87.22 0 87.22 0 -3.05 -22.26c-8.46,-61.74 -62.4,-100.45 -120.3,-86.34"></path> <path class="fil1" d="M3366.11 1782.86c-27.83,6.78 -53.06,27.19 -64.98,52.54 -24.16,51.41 -4.75,112.42 44.11,138.62 19.1,10.24 27.09,11.6 57.67,9.76 29.04,-1.74 38.68,-4.56 52.99,-15.48 14.74,-11.25 16.69,-14.85 12.36,-22.94 -5.04,-9.42 -5.41,-9.39 -19.84,1.28 -10.51,7.77 -23.74,11.45 -46.37,12.89 -45.79,2.91 -70.28,-13.78 -83.61,-56.99l-3.42 -11.08 87.22 0 87.22 0 -3.05 -22.26c-8.46,-61.74 -62.4,-100.45 -120.3,-86.34"></path> <path class="fil1" d="M3995.56 1849.26l0 135.81 14.78 0 14.78 0 0 -107.12 0 -107.12 51.82 88.64c32.98,56.42 54.69,88.65 59.71,88.65 5,0 25.84,-30.66 56.92,-83.76 26.97,-46.06 51.09,-85.86 53.61,-88.43 2.81,-2.88 4.57,36.39 4.57,102.23l0 106.91 12.31 0 12.32 0 0 -135.48 0 -135.48 -11.26 0c-9.46,0 -20.26,15.67 -67.74,98.37 -31.07,54.1 -58.23,97.87 -60.36,97.24 -2.13,-0.61 -29.03,-44.32 -59.79,-97.13 -47.97,-82.36 -57.75,-96.24 -68.8,-97.57l-12.88 -1.56 0 135.81"></path> <path class="fil1" d="M3000.37 1849.26l0 135.81 14.69 0 14.69 0 1.32 -108.66 1.33 -108.67 85.89 108.67c67.66,85.59 88.31,108.66 97.3,108.66l11.41 0 0 -135.48 0 -135.48 -14.69 0 -14.69 0 -1.33 107.36 -1.32 107.36 -84.12 -106.13c-67.49,-85.15 -86.73,-106.44 -97.31,-107.69l-13.18 -1.56 0 135.81"></path> <path class="fil1" d="M4800.51 1706.42c-5.31,13.85 0.46,24.9 13.83,26.45 16.3,1.89 28.07,-14.95 18.5,-26.48 -7.6,-9.16 -28.82,-9.14 -32.33,0.03"></path> <path class="fil1" d="M4778.88 1349.19c-48.51,14.76 -81.14,53.33 -86.98,102.82 -10.43,88.36 80.98,155.93 164.69,121.73 26.29,-10.74 58.53,-46.74 65.74,-73.42 6.81,-25.17 3.13,-70.3 -7.4,-90.66 -24.85,-48.06 -86.61,-75.51 -136.05,-60.48"></path> <path class="fil1" d="M2373.43 1351.32c-99.12,36.98 -108.8,172.25 -15.59,217.85 49.54,24.24 101.07,15.69 138.94,-23.04 49.96,-51.1 37.41,-145.1 -24.48,-183.36 -27.61,-17.07 -70.51,-22.03 -98.87,-11.45"></path> <path class="fil1" d="M6261.85 1320.5c-40.78,6.5 -113.12,44.16 -145.44,75.71 -86.5,84.46 -78.85,222.87 14.99,271.08 25.91,13.31 33.2,14.76 73.45,14.52 48.03,-0.29 97.79,-12.45 141.51,-34.61 29.89,-15.15 31.94,-19.26 9.83,-19.61 -42,-0.67 -77.43,-23.06 -96.7,-61.08 -30.55,-60.28 -3.04,-172.29 57.83,-235.46l15.43 -16.01 -21.91 0.57c-12.05,0.32 -34.1,2.52 -49,4.89"></path> <path class="fil1" d="M1075.54 1200.48c-60.66,147.45 -60.88,148.46 -46.25,208.98 5.64,23.32 10.25,48.44 10.25,55.82 0,20.31 -26.11,64.71 -62.3,105.94 -17.84,20.32 -38,45.23 -44.8,55.36 -11.7,17.41 -11.93,19.06 -4.42,30.54 4.37,6.67 15.76,15.83 25.3,20.36 18.2,8.63 41.88,33.15 41.88,43.34 0,3.29 -4.43,14.67 -9.85,25.3 -15.14,29.71 -13.19,35.42 17.24,50.35 14.9,7.31 27.1,15.09 27.1,17.3 0,2.2 -5.51,6.51 -12.23,9.57 -17.6,8.02 -22.54,36.44 -8.09,46.57 9.47,6.63 10.46,11.96 10.46,56 0,57.39 3.45,68.56 26.67,86.27l17.43 13.29 38.31 -20.65c95.5,-51.5 167.45,-123.87 202.59,-203.8 46.09,-104.82 24.35,-257.7 -55.55,-390.63 -24.06,-40.02 -159.45,-223.44 -164.95,-223.44 -1.77,0 -5.73,6.1 -8.79,13.55"></path> <path class="fil1" d="M6169.85 1039.37c-91.18,17.97 -123.9,139.16 -54.11,200.43 54.76,48.09 137.19,37.28 177.89,-23.33 18.51,-27.57 23.06,-72.64 10.6,-105.26 -19.61,-51.35 -78.54,-82.85 -134.38,-71.84"></path> <path class="fil1" d="M5410.74 1525.65l1.26 511.15 118.24 0 118.24 0 1.25 -511.15 1.25 -511.15 -120.75 0 -120.75 0 1.25 511.15"></path> <path class="fil1" d="M4015.27 1337.2l0 322.7 120.7 0 120.7 0 0 -322.7 0 -322.7 -120.7 0 -120.7 0 0 322.7"></path> <path class="fil1" d="M6320.97 1000.62l-27.1 5.33 17.52 6.15c48.8,17.13 84.49,46.57 101.47,83.69 8.33,18.2 9.13,40.46 10.53,291.91l1.5 272.2 120.89 0 120.88 0 -1.97 -235.25c-1.92,-228.02 -2.31,-236.16 -12.87,-264.81 -14.88,-40.37 -39.1,-75.43 -70.5,-102.07 -31.47,-26.7 -56.09,-39.69 -95.52,-50.41 -36.83,-10.02 -129.04,-13.78 -164.83,-6.74"></path> <path class="fil1" d="M4419.26 1004.15c-17.61,4.82 -44.03,13.98 -58.7,20.37l-26.67 11.59 24.21 5.56c44.48,10.2 63.83,24.63 79.45,59.23 8.06,17.85 8.94,42.65 10.28,289.26l1.46 269.74 118.01 0 118.01 0 -0.18 -237.71c-0.19,-249.94 -1.26,-264.37 -23.35,-314.08 -40.71,-91.6 -136.94,-132.85 -242.51,-103.96"></path> <path class="fil1" d="M5784.97 999.33c7.33,5.84 20.05,24.39 28.26,41.22 30.56,62.66 41.91,160.84 38.43,332.42 -3.47,170.89 -17.83,240.48 -58.8,284.93l-19.33 20.97 31.08 -7.19c50.39,-11.65 107.94,-43.06 148.78,-81.2 43.96,-41.06 71.98,-82.91 92.35,-137.92 19.87,-53.68 25.15,-139.2 12.19,-197.45 -20.31,-91.29 -82.34,-176.3 -163.24,-223.71 -23.13,-13.55 -75.94,-33.12 -105.8,-39.19l-17.24 -3.51 13.33 10.61"></path> <path class="fil1" d="M5188.69 650.46c-51.56,9.68 -94.57,63.02 -94.36,117.03 0.14,34.87 12.13,61.83 37.78,84.96 75.52,68.08 190.48,24.46 197.68,-74.99 5.88,-81.26 -61.53,-141.93 -141.1,-127"></path> <path class="fil1" d="M2795.05 650.59c-75.83,13.37 -120.62,94.04 -89.89,161.92 21.74,48.02 57.65,71.15 110.45,71.15 70.4,0 115.78,-45.27 115.78,-115.49 0,-35.28 -9.38,-60.37 -31.04,-82.94 -27.94,-29.14 -65.83,-41.59 -105.3,-34.64"></path> <path class="fil1" d="M3785.6 646.98c-57.32,26.69 -81.48,94.98 -54.27,153.41 20.24,43.48 56.65,66.38 105.19,66.2 66.1,-0.25 116.34,-50.5 115.75,-115.77 -0.78,-86.92 -87.28,-140.81 -166.67,-103.84"></path> <path class="fil1" d="M3010.22 1147.43l0 512.47 120.63 0 120.63 0 1.3 -147.07 1.31 -147.07 100.1 147.07 100.11 147.07 250.92 0 250.93 0 0 -322.7 0 -322.7 -120.67 0 -120.67 0 -1.27 302.79 -1.27 302.78 -160.1 -225.96c-88.06,-124.28 -161.48,-225.11 -163.16,-224.07 -1.69,1.04 -32.73,43.21 -68.99,93.7l-65.93 91.81 -2.46 -358.97 -2.46 -358.97 -119.47 -1.32 -119.47 -1.32 0 512.46"></path> <path class="fil1" d="M4896.37 627.14c-47.52,19.54 -74.19,37.69 -113.13,76.94 -56.56,57.02 -83.25,121.35 -83.07,200.28 0.17,77.36 22.85,142.94 66.66,192.72 42.3,48.08 82.22,71.55 245.38,144.29 65.49,29.2 104.31,53.04 134.46,82.57 63.63,62.35 72.25,180.2 20.33,278.07 -14.2,26.77 -47.84,63.35 -63.28,68.82 -3.87,1.37 -5.34,4.3 -3.28,6.51 2.06,2.21 16.48,0.03 32.02,-4.85 118.7,-37.26 216.29,-133.39 250.6,-246.87 13.56,-44.84 12.17,-127.36 -2.9,-172.06 -29.65,-87.92 -87.55,-139.37 -225.09,-200.02 -37.53,-16.54 -88.19,-38.87 -112.58,-49.61 -142.39,-62.72 -200.63,-137.46 -193.51,-248.34 3.65,-56.82 30.82,-99.24 85.65,-133.72 9.06,-5.7 9.05,-5.87 -0.52,-6.04 -5.42,-0.1 -22.4,4.99 -37.73,11.29"></path> <path class="fil1" d="M2507.55 622.54c-75.85,27.95 -142.91,86.8 -176.85,155.22 -21.68,43.69 -27.49,71.69 -27.14,130.81 0.53,88.44 23.2,146.94 78.19,201.77 37.85,37.74 81.17,63.77 176.09,105.78 134.46,59.52 179.46,87.36 208.91,129.24 41.92,59.61 47.07,149.61 13.45,234.57 -10.3,26.02 -20.35,40.31 -46.71,66.41 -18.48,18.29 -30.63,33.26 -27,33.26 12.36,0 62.3,-19.16 95.6,-36.68 94.84,-49.89 158.95,-130 184.33,-230.3 8.44,-33.39 9.82,-49.58 7.45,-87.75 -8.33,-134.23 -75.85,-205.19 -274.17,-288.15 -133.44,-55.81 -188.52,-88.98 -226.67,-136.45 -67.5,-84 -55.31,-213.89 24.93,-265.88 13.33,-8.64 24.23,-16.44 24.23,-17.33 0,-3.5 -18.06,-0.64 -34.63,5.47"></path> <path class="fil1" d="M1082.5 266.93c-98.89,55.42 -166.25,137.92 -188.01,230.26 -9.76,41.4 -9.82,127.16 -0.14,173.19 20.07,95.41 47.89,146.9 162.83,301.39l90.86 122.13 19.69 -11.07c31.36,-17.62 36.34,-28.99 31.94,-72.84 -5.46,-54.53 -4.78,-59.77 9.33,-71.28 16,-13.05 12.88,-29.75 -7.52,-40.31 -7.78,-4.02 -14.15,-9.43 -14.15,-12.02 0,-2.59 10.39,-9.74 23.09,-15.89 31.67,-15.33 34.45,-21.62 21.83,-49.32 -15.44,-33.89 -13.84,-40.32 15.44,-61.94 47.72,-35.26 48.05,-40.18 5.96,-91.2 -41.91,-50.81 -65.87,-86.82 -71.38,-107.31 -3.91,-14.52 -2.74,-28.82 5.49,-66.77 14.89,-68.73 12.46,-82.31 -30.25,-169.38 -19.88,-40.54 -38.49,-73.68 -41.35,-73.64 -2.85,0.03 -18,7.24 -33.66,16.01"></path> <path class="fil1" d="M1046.93 184.46c-37.94,3.75 -92,11.44 -120.14,17.09 -349.98,70.24 -631.23,337.71 -717.55,682.39 -22.97,91.71 -28.87,152.46 -25.49,262.17 3.51,113.67 20.31,200.22 60.71,312.64 70.46,196.07 260.83,396.39 467.78,492.22 106.14,49.15 259.06,88.67 312.49,80.75l22.15 -3.28 -12.9 -10.61c-20.28,-16.67 -24.01,-28.88 -24.01,-78.53 0,-42.68 -0.99,-47.48 -12.31,-59.7 -13.91,-15 -14.69,-22.18 -5.27,-48.57 6.44,-18.04 6.23,-18.81 -7.62,-28.67 -23.38,-16.65 -25.9,-26.03 -14.17,-52.55 5.67,-12.8 9.16,-27.75 7.76,-33.2 -1.4,-5.45 -13.64,-16.11 -27.2,-23.68 -57.06,-31.82 -54.96,-51.13 14.3,-131.58 61.44,-71.36 64.17,-78.43 52.4,-135.39 -15.26,-73.75 -6.41,-124.7 38.54,-221.98l16.75 -36.26 -87.18 -117.26c-47.95,-64.5 -94.53,-127.96 -103.52,-141.05 -25.29,-36.8 -54.15,-102.39 -68.22,-155.03 -11.04,-41.28 -12.83,-58.27 -13.14,-124.19 -0.44,-93.87 9.49,-138.56 48.71,-219.24 56.26,-115.74 98.79,-151.49 216.59,-182.09 54.35,-14.13 170.72,-24.42 226.89,-20.08 51.26,3.97 40.28,-3.34 -24.91,-16.57 -66.13,-13.42 -138.56,-15.96 -221.42,-7.77"></path> </g> </svg> 