<svg xmlns="http://www.w3.org/2000/svg" xmlns:xlink="http://www.w3.org/1999/xlink" id="Layer_1" x="0px" y="0px" viewBox="0 0 451.4 118.8" style="enable-background:new 0 0 451.4 118.8;" xml:space="preserve"><style type="text/css">	.st0{fill:#FFFFFF;}	.st1{fill:none;stroke:#FFFFFF;stroke-width:0.75;stroke-miterlimit:10;}</style><g id="y">	<path class="st0" d="M26.5,78.8c-3.1-0.3-6.3-0.5-9.5-0.5C20.2,78.3,23.4,78.5,26.5,78.8h40.7c3.2-3.8,5.1-8.8,5.1-15.4   c0-15.3-11.6-19.6-23.4-22.5C38,37.9,25.5,36.4,25.5,27c0-8,8.2-10.1,15.2-10.1c7.8,0,15.8,3.2,16.6,13.3h11.8   c-1-19.3-13.6-24.8-29.3-24.8c-12.5,0-26.7,6.6-26.7,22.5c0,15.2,11.8,19.4,23.4,22.4S59.8,54.9,59.8,65c0,9.9-10,11.8-17.3,11.8   c-9.7,0-18.8-3.7-19.2-15.3H11.5c0.2,7,2.1,12.3,5.2,16.4c0.1-0.2,0.2-0.4,0.3-0.6c-0.1,0.2-0.2,0.4-0.3,0.6   c0.2,0.3,0.4,0.6,0.6,0.9L26.5,78.8z"></path>	<path class="st0" d="M130.6,78.8c3.3-0.3,6.7-0.3,10,0L114.4,39l31.9-34.1h-13L94.9,47V4.9H84.8v73.9h10.1V59.8l12.6-13.1L128,78.7   L130.6,78.8z"></path>	<path class="st0" d="M155.1,78.7v-74h6.7v74H155.1z"></path>	<polygon class="st0" points="178.1,4.6 178.1,78.7 182.3,78.7 182.3,12.3 182.5,12.3 224.4,78.7 230.1,78.7 183.4,4.6  "></polygon>	<rect x="230.8" y="4.6" class="st0" width="4.2" height="74.1"></rect>	<path class="st0" d="M357.9,7.2c0.1,1.2-0.7,2.2-1.8,2.3c-1.2,0.1-2.2-0.7-2.3-1.8c0-0.2,0-0.3,0-0.5c-0.1-1.2,0.7-2.2,1.8-2.3   s2.2,0.7,2.3,1.8C357.9,6.9,357.9,7.1,357.9,7.2z"></path>	<path class="st0" d="M351,7.2c0.2,1.2-0.6,2.2-1.8,2.4C348,9.8,347,9,346.8,7.8c0-0.2,0-0.4,0-0.6c-0.2-1.2,0.6-2.2,1.8-2.4   c1.2-0.2,2.2,0.6,2.4,1.8C351,6.8,351,7,351,7.2z"></path>	<path class="st0" d="M344.2,7.2c0.1,1.2-0.7,2.2-1.8,2.3c-1.2,0.1-2.2-0.7-2.3-1.8c0-0.2,0-0.3,0-0.5c-0.1-1.2,0.7-2.2,1.8-2.3   s2.2,0.7,2.3,1.8C344.2,6.9,344.2,7.1,344.2,7.2z"></path>	<path class="st0" d="M337.4,7.2c0.1,1.2-0.7,2.2-1.8,2.3c-1.2,0.1-2.2-0.7-2.3-1.8c0-0.2,0-0.3,0-0.5C333,6.1,333.9,5,335,4.9   s2.2,0.7,2.3,1.8C337.4,6.9,337.4,7.1,337.4,7.2z"></path>	<path class="st0" d="M330.5,7.2c0.2,1.2-0.6,2.2-1.8,2.4c-1.2,0.2-2.2-0.6-2.4-1.8c0-0.2,0-0.4,0-0.6c-0.2-1.2,0.6-2.2,1.8-2.4   c1.2-0.2,2.2,0.6,2.4,1.8C330.5,6.8,330.5,7,330.5,7.2z"></path>	<path class="st0" d="M323.7,7.2c0.1,1.2-0.7,2.2-1.8,2.3c-1.2,0.1-2.2-0.7-2.3-1.8c0-0.2,0-0.3,0-0.5c-0.1-1.2,0.7-2.2,1.8-2.3   s2.2,0.7,2.3,1.8C323.7,6.9,323.7,7.1,323.7,7.2z"></path>	<path class="st0" d="M323.7,15c0.1,1.2-0.7,2.2-1.8,2.3c-1.2,0.1-2.2-0.7-2.3-1.8c0-0.2,0-0.3,0-0.5c-0.1-1.2,0.7-2.2,1.8-2.3   s2.2,0.7,2.3,1.8C323.7,14.7,323.7,14.8,323.7,15z"></path>	<path class="st0" d="M323.7,22.8c0.1,1.2-0.7,2.2-1.8,2.3c-1.2,0.1-2.2-0.7-2.3-1.8c0-0.2,0-0.3,0-0.5c-0.1-1.2,0.7-2.2,1.8-2.3   c1.2-0.1,2.2,0.7,2.3,1.8C323.7,22.5,323.7,22.6,323.7,22.8z"></path>	<path class="st0" d="M323.7,30.6c-0.2,1.2-1.2,2-2.4,1.8c-1.2-0.2-2-1.2-1.8-2.4c0.1-1,1-1.8,2.1-1.8   C322.8,28.3,323.8,29.3,323.7,30.6z"></path>	<path class="st0" d="M323.7,46.1c-0.1,1.2-1.2,2-2.4,1.8c-1.2-0.1-2-1.2-1.8-2.4c0.1-1,1-1.8,2.1-1.8   C322.8,43.8,323.8,44.9,323.7,46.1z"></path>	<path class="st0" d="M357.9,38.4c-0.1,1.2-1.2,2-2.4,1.8c-1.2-0.1-2-1.2-1.8-2.4c0.1-1,1-1.8,2.1-1.8   C357,36.1,357.9,37.1,357.9,38.4z"></path>	<path class="st0" d="M351,38.4c-0.1,1.2-1.2,2-2.3,1.8s-2-1.2-1.8-2.3c0.1-1.1,1-1.9,2.1-1.9C350.2,36.1,351.1,37.1,351,38.4z"></path>	<path class="st0" d="M344.2,38.4c-0.1,1.2-1.2,2-2.3,1.8c-1.2-0.1-2-1.2-1.8-2.3c0.1-1.1,1-1.9,2.1-1.9   C343.3,36.1,344.3,37.1,344.2,38.4z"></path>	<path class="st0" d="M337.4,38.4c-0.1,1.2-1.2,2-2.3,1.8c-1.2-0.1-2-1.2-1.8-2.3c0.1-1.1,1-1.9,2.1-1.9   C336.5,36.1,337.4,37.1,337.4,38.4z"></path>	<path class="st0" d="M330.5,38.4c-0.1,1.2-1.2,2-2.3,1.8c-1.2-0.1-2-1.2-1.8-2.3c0.1-1.1,1-1.9,2.1-1.9   C329.7,36.1,330.6,37.1,330.5,38.4z"></path>	<path class="st0" d="M323.7,38.4c-0.1,1.2-1.2,2-2.4,1.8c-1.2-0.1-2-1.2-1.8-2.4c0.1-1,1-1.8,2.1-1.8   C322.8,36.1,323.8,37.1,323.7,38.4z"></path>	<path class="st0" d="M357.9,76.3c-0.1,1.2-1.2,2-2.4,1.8c-1.2-0.1-2-1.2-1.8-2.4c0.1-1,1-1.8,2.1-1.8C357,74,357.9,75.1,357.9,76.3   z"></path>	<path class="st0" d="M351,76.3c-0.1,1.2-1.2,2-2.4,1.8c-1.2-0.1-2-1.2-1.8-2.4c0.1-1.1,1-1.8,2.1-1.8C350.1,74,351.1,75.1,351,76.3   z"></path>	<path class="st0" d="M344.2,76.3c-0.1,1.2-1.2,2-2.4,1.8c-1.2-0.1-2-1.2-1.8-2.4c0.1-1,1-1.8,2.1-1.8   C343.3,74,344.3,75.1,344.2,76.3z"></path>	<path class="st0" d="M337.4,76.3c-0.1,1.2-1.2,2-2.4,1.8c-1.2-0.1-2-1.2-1.8-2.4c0.1-1.1,1-1.8,2.1-1.8   C336.5,74,337.4,75.1,337.4,76.3z"></path>	<path class="st0" d="M330.5,76.3c-0.1,1.2-1.2,2-2.4,1.8c-1.2-0.1-2-1.2-1.8-2.4c0.1-1.1,1-1.8,2.1-1.8   C329.7,74,330.6,75.1,330.5,76.3z"></path>	<path class="st0" d="M323.7,76.3c-0.1,1.2-1.2,2-2.4,1.8c-1.2-0.1-2-1.2-1.8-2.4c0.1-1,1-1.8,2.1-1.8   C322.8,74,323.8,75.1,323.7,76.3z"></path>	<path class="st0" d="M323.7,53.9c-0.1,1.2-1.2,2-2.4,1.8c-1.2-0.1-2-1.2-1.8-2.4c0.1-1,1-1.8,2.1-1.8   C322.8,51.6,323.8,52.7,323.7,53.9z"></path>	<path class="st0" d="M323.7,61.7c-0.1,1.2-1.2,2-2.4,1.8c-1.2-0.1-2-1.2-1.8-2.4c0.1-1,1-1.8,2.1-1.8   C322.8,59.4,323.8,60.5,323.7,61.7z"></path>	<path class="st0" d="M323.7,69.5c-0.1,1.2-1.2,2-2.4,1.8c-1.2-0.1-2-1.2-1.8-2.4c0.1-1,1-1.8,2.1-1.8   C322.8,67.2,323.8,68.3,323.7,69.5z"></path>	<path class="st0" d="M395.8,78.7V54.8L364,5.3h2.7l30,46.9l30-46.9h2.7l-31.8,49.6v23.9H395.8z"></path>	<polygon class="st0" points="249.8,4.6 249.8,78.7 254.1,78.7 254.1,12.3 254.2,12.3 296.1,78.7 301.9,78.7 255.2,4.6  "></polygon>	<rect x="302.6" y="4.6" class="st0" width="4.2" height="74.1"></rect></g><g id="medspa">	<path class="st0" d="M28.6,95h1.2v2.5h0c1-1.9,2.9-3,5-3c3.2,0,4.4,1.6,5,3.5c0.7-2.1,2.8-3.5,5-3.5c3.7,0,5.4,1.9,5.4,5.3V110H49   v-9.7c0-2.4-1.2-4.6-4.2-4.6s-4.8,1.9-4.8,5v9.2h-1.2V100c0-2.6-1.2-4.3-4.2-4.3s-4.8,1.9-4.8,5.3v8.9h-1.2V95z"></path>	<path class="st0" d="M62.3,102.8c0.1,3.7,2.3,6.5,6.2,6.5s5-2.9,5.5-4.3h1.2c-1.1,3.8-3.4,5.4-6.8,5.4c-4.4,0-7.2-3.1-7.2-8.1   c0-3.1,1.7-7.8,7.2-7.8c4.5,0,7.1,3.4,7.1,8.2L62.3,102.8z M74.2,101.6c-0.5-4.1-3-5.9-5.9-5.9c-3.3,0-5.4,2.3-5.9,5.9H74.2z"></path>	<path class="st0" d="M98.1,106.7L98.1,106.7c-1,2.4-3.3,3.9-5.8,3.7c-4.6,0-6.9-3.7-6.9-8c0-4.8,3-7.9,6.9-7.9   c2.5,0,4.7,1.4,5.7,3.7h0.1v-9.1h1.2v20.8h-1.1V106.7z M98.2,102.6c0-5.3-3.3-6.9-5.9-6.9c-3,0-5.8,2.2-5.8,6.7   c0,4.3,2.4,6.8,5.6,6.8C97,109.2,98.2,105.3,98.2,102.6z"></path>	<path class="st0" d="M120.9,99.4c-0.2-2.5-1.5-3.7-4.9-3.7c-3.2,0-4.2,1.4-4.2,3s1.1,2.3,2.6,2.5l4.1,0.6c2.4,0.4,4.1,1.4,4.1,4.1   c0,4-4,4.5-6.2,4.5c-3.6,0-6.1-1.4-6.3-5.1h1.2c0.2,1.6,0.4,4,5.5,4c3.4,0,4.7-1.2,4.7-3.3c0-1.7-1.1-2.5-2.6-2.7l-4.6-0.7   c-1.6-0.2-3.6-1.1-3.6-3.8c0-1.7,1-4.2,5.4-4.2c4.8,0,5.9,2.5,6,4.8L120.9,99.4z"></path>	<path class="st0" d="M133.4,95h1.2v3.3h0.1c0.9-2.4,3.2-3.9,5.7-3.7c4.6,0,6.9,3.7,6.9,8c0,4.8-3,7.9-6.9,7.9   c-2.5,0-4.7-1.4-5.7-3.7h-0.1v9.1h-1.2V95z M134.4,102.3c0,5.2,3.3,6.9,5.9,6.9c3,0,5.8-2.2,5.8-6.7c0-4.3-2.4-6.8-5.6-6.8   C135.6,95.7,134.4,99.7,134.4,102.3L134.4,102.3z"></path>	<path class="st0" d="M158,99.6c0.4-3.8,2.1-5.1,6-5.1s5.9,1,5.9,4.4v8.4c0,1.1,0,1.8,0.9,1.8c0.4,0,0.8-0.1,1.1-0.2v1.2   c-0.5,0.2-0.9,0.3-1.4,0.2c-1.6,0-1.6-1.3-1.6-3.3l0,0c-1.4,3.1-4.5,3.4-6.2,3.4c-1.1,0-5.3,0-5.3-4.6c0-3.1,2.2-4.1,4.9-4.3   l4.5-0.3c1.3-0.1,2-0.3,2-2.1c0-2-1-3.4-4.8-3.4c-3.4,0-4.5,1.2-4.8,3.9L158,99.6z M168.8,101.6L168.8,101.6   c-0.6,0.5-1.3,0.8-2.1,0.8l-4.4,0.3c-2.2,0.2-3.7,0.9-3.7,3.1c0,3,2.7,3.4,4.2,3.4c2.6,0,6-1.3,6-4.9L168.8,101.6z"></path></g><g id="_">	<path class="st0" d="M197.2,102.5h6v-6.8h1v6.8h6v1.2h-6v6.8h-1v-6.8h-6V102.5z"></path></g><g id="wellness">	<path class="st0" d="M246.2,95.5h1.4l4.5,13.2l4.4-13.2h1.4l-5.2,14.9h-1.3L247,97l-4.5,13.4h-1.3L236,95.5h1.3l4.6,13.2   L246.2,95.5z"></path>	<path class="st0" d="M268.3,103.2c0.1,3.7,2.2,6.5,6.1,6.5s5-2.9,5.4-4.3h1.2c-1.1,3.8-3.3,5.4-6.7,5.4c-4.4,0-7.1-3.1-7.1-8.1   c0-3.1,1.7-7.8,7.1-7.8c4.4,0,7,3.4,7,8.2H268.3z M280,102.1c-0.5-4.1-2.9-5.9-5.8-5.9c-3.3,0-5.4,2.3-5.9,5.9H280z"></path>	<path class="st0" d="M291.9,89.6h1.1v20.8h-1.1V89.6z"></path>	<path class="st0" d="M304.8,89.6h1.1v20.8h-1.1V89.6z"></path>	<path class="st0" d="M317.5,95.5h1.1v3l0,0c0.9-2.2,3.1-3.6,5.4-3.5c5.9,0,5.9,4.4,5.9,6.2v9.2h-1.1v-9.2c0-3-1-5.1-4.7-5.1   s-5.4,2.7-5.4,5.5v8.7h-1.1V95.5z"></path>	<path class="st0" d="M341.8,103.2c0.1,3.7,2.2,6.5,6.1,6.5s5-2.9,5.4-4.3h1.1c-1.1,3.8-3.3,5.4-6.7,5.4c-4.4,0-7.1-3.1-7.1-8.1   c0-3.1,1.7-7.8,7.1-7.8c4.4,0,7,3.4,7,8.2H341.8z M353.5,102.1c-0.5-4.1-2.9-5.9-5.9-5.9c-3.3,0-5.4,2.3-5.9,5.9H353.5z"></path>	<path class="st0" d="M375.2,99.9c-0.2-2.5-1.5-3.7-4.8-3.7c-3.1,0-4.1,1.4-4.1,3s1,2.3,2.6,2.5l4.1,0.7c2.4,0.4,4,1.4,4,4.1   c0,4.1-3.9,4.5-6.1,4.5c-3.5,0-6-1.4-6.2-5.1h1.1c0.1,1.6,0.4,4,5.4,4c3.4,0,4.7-1.2,4.7-3.3c0-1.7-1.1-2.5-2.6-2.7l-4.5-0.7   c-1.6-0.2-3.6-1.1-3.6-3.8c0-1.7,1-4.2,5.4-4.2c4.7,0,5.8,2.5,5.9,4.8L375.2,99.9z"></path>	<path class="st0" d="M397.2,99.9c-0.2-2.5-1.5-3.7-4.8-3.7c-3.1,0-4.1,1.4-4.1,3s1,2.3,2.6,2.5l4.1,0.7c2.4,0.4,4,1.4,4,4.1   c0,4.1-3.9,4.5-6.1,4.5c-3.5,0-6-1.4-6.2-5.1h1.1c0.1,1.6,0.4,4,5.4,4c3.4,0,4.7-1.2,4.7-3.3c0-1.7-1.1-2.5-2.6-2.7l-4.5-0.7   c-1.6-0.2-3.6-1.1-3.6-3.8c0-1.7,1-4.2,5.4-4.2c4.7,0,5.8,2.5,5.9,4.8L397.2,99.9z"></path>	<path class="st0" d="M433.5,7.4h3.5c1.3-0.1,2.4,0.8,2.5,2c0,0.2,0,0.3,0,0.5c0,1.3-0.6,2.3-1.7,2.4l0,0c1,0.1,1.5,0.6,1.6,2   c0,0.6,0,1.4,0.1,2c0,0.3,0.2,0.7,0.5,0.9h-1.8c-0.2-0.3-0.3-0.6-0.3-0.9c-0.1-0.6,0-1.1-0.1-1.9c0-1.1-0.4-1.6-1.5-1.6h-1.3v4.3   h-1.6L433.5,7.4z M436.3,11.9c0.8,0.1,1.5-0.5,1.6-1.3c0-0.1,0-0.2,0-0.3c0-1.1-0.5-1.6-1.5-1.6h-1.4v3.2L436.3,11.9z"></path>	<path class="st1" d="M443.8,12.6c0,4-3.2,7.3-7.3,7.4l0,0c-4.1,0-7.3-3.3-7.3-7.4l0,0c0-4.1,3.2-7.4,7.3-7.4c0,0,0,0,0,0l0,0   C440.6,5.3,443.8,8.6,443.8,12.6C443.8,12.6,443.8,12.6,443.8,12.6L443.8,12.6z"></path></g></svg>