<svg xmlns="http://www.w3.org/2000/svg" width="515.188" height="191.674" viewBox="0 0 515.188 191.674"><g transform="translate(-620.054 -728.093)"><path d="M947.967,874.926q-92.532,0-185.066-.027a3.838,3.838,0,0,0-3,1.25Q738.537,897.591,717.138,919c-1.01,1.015-1.484,1.039-2.514.007Q667.761,872.044,620.8,825.18c-1.055-1.054-.95-1.541.043-2.531q46.952-46.87,93.816-93.831c1.1-1.1,1.573-.85,2.512.094,12.766,12.826,25.592,25.592,38.337,38.437a5.94,5.94,0,0,0,4.647,1.958q186.369-.074,372.736-.04c2.578,0,2.307-.321,2.307,2.308q.007,50.56.042,101.12c0,1.737-.339,2.278-2.207,2.276Q1040.5,874.887,947.967,874.926Z" fill="#6d7c70"/><path d="M719.084,760.56h364.027c2.229,0,2.229,0,2.229,2.308q0,44.921.043,89.84c0,1.708-.451,2.038-2.083,2.038q-178.988-.063-357.975-.037H723.3l-.315-.463c1.659-1.554,3.313-3.115,4.982-4.656.484-.445,1.109-.214,1.664-.215q15.177-.022,30.352-.01c65.271,0,130.54.113,195.811-.042,40.811-.1,81.623-.022,122.435-.058,1.638,0,1.948-.478,1.946-2.008q-.07-39.544.007-79.087c0-1.628-.462-1.948-2-1.954-67.232-.256-134.465.124-201.7-.158-50.115-.21-100.229-.026-150.344-.131a3.5,3.5,0,0,1-2.866-1.2C722.046,763.377,720.69,762.144,719.084,760.56Z" transform="translate(44.107 14.461)" fill="#fff"/><path d="M713.3,733.608c.445.425.824.773,1.187,1.136q22.073,22.069,44.142,44.141,20.66,20.66,41.353,41.29c1.13,1.123.968,1.619-.055,2.641q-42.651,42.566-85.209,85.226c-1.211,1.215-1.743,1.1-2.886-.045q-42.493-42.6-85.1-85.086c-1.221-1.218-1.1-1.768.049-2.908q42.659-42.557,85.246-85.188C712.423,734.417,712.84,734.04,713.3,733.608Z" transform="translate(2.589 2.456)" fill="#fefefd"/><path d="M840.829,787.55c-1.578,3.94-2.975,7.457-4.4,10.96-.249.61-.356,1.481-1.207,1.523-1,.049-1.048-.924-1.311-1.574q-4.627-11.441-9.22-22.9c-.521-1.294-.974-2.615-2.538-3.031-.413-.111-.765-.341-.672-.846s.526-.53.944-.538a46.128,46.128,0,0,0,5.845.012c.312-.046.73-.1.856.357.119.429-.179.6-.507.768-.916.479-1.4,1.12-.95,2.232,2.608,6.386,5.189,12.782,7.789,19.17a4.136,4.136,0,0,0,.581.712c1.242-3.024,2.412-5.884,3.6-8.74a2.207,2.207,0,0,0-.273-1.805c-1.283-3.08-2.6-6.147-3.836-9.245a2.954,2.954,0,0,0-2.66-2.1c-.514-.048-1.314-.022-1.224-.867.1-.947.916-.457,1.383-.47,2.12-.059,4.241.289,6.367-.01.351-.049.863-.173.963.425.071.428-.256.614-.577.752-1.161.494-1.052,1.388-.7,2.311.758,1.984,1.551,3.954,2.438,6.206a32.677,32.677,0,0,0,2.782-6.743c.252-.953-.523-1.269-1.185-1.652-.411-.236-1.187-.334-.977-.99.194-.6.906-.318,1.379-.308a16.785,16.785,0,0,0,4.283,0c.3-.069.749-.134.846.335a.681.681,0,0,1-.231.58c-1.883,1.162-2.279,3.246-3.141,5.033-.5,1.036-.8,2.178-1.379,3.163a5.937,5.937,0,0,0-.073,6.046c1.122,2.323,1.992,4.767,2.97,7.159.15.367.233.869.691.9.507.03.555-.535.692-.872,2.459-6.014,4.872-12.049,7.354-18.054.63-1.526.221-2.433-1.291-2.924-.451-.146-.941-.246-.866-.872.087-.717.7-.553,1.084-.486a33.348,33.348,0,0,0,5.154-.013c.259,0,.613-.124.733.244a.567.567,0,0,1-.24.746c-1.594.838-1.96,2.5-2.584,3.957-3.2,7.448-6.347,14.918-9.508,22.382-.286.675-.389,1.578-1.351,1.558-.876-.017-.937-.9-1.194-1.5C843.958,795,842.474,791.459,840.829,787.55Z" transform="translate(89.705 19.136)" fill="#fefefd"/><path d="M899.746,814.893c0,1.1-.013,2.194,0,3.291.027,2.129.587,2.818,2.66,3.43.543.16,1.557,0,1.356.9-.171.766-1.071.382-1.649.343a62.963,62.963,0,0,0-7.085.046c-.451.022-1.143.315-1.307-.425-.132-.591.474-.739.873-.9,1.513-.609,1.927-1.736,1.914-3.3q-.087-9.616,0-19.234c.019-1.787-.551-2.888-2.384-3.173-.465-.072-.993-.2-1.028-.747-.036-.574.559-.583.9-.548,4.031.418,8.07-.354,12.095.09,3.5.386,5.821,2.175,6.409,4.875a7.4,7.4,0,0,1-3.677,8.347c-.705.412-1.083.655-.5,1.5,2.279,3.32,4.5,6.685,6.743,10.028a5.564,5.564,0,0,0,3.112,2.32c.376.11.922.134.844.655-.075.491-.645.4-1.017.454a6.092,6.092,0,0,1-6.019-2.158c-2.279-2.837-3.99-6.046-5.978-9.073a5.1,5.1,0,0,0-5.647-2c-.659.239-.6.769-.608,1.278C899.739,812.235,899.746,813.565,899.746,814.893Z" transform="translate(121.611 29.591)" fill="#fefefe"/><path d="M772.25,791.252c.1,1.214-.039,2.651.119,4.1.184,1.7.916,2.658,2.636,2.855.487.056,1.249.108,1.181.708-.072.629-.746.626-1.374.57a39.153,39.153,0,0,0-6.913,0c-.663.059-1.425.171-1.606-.529s.685-.575,1.109-.773a2.509,2.509,0,0,0,1.586-2.445c0-6.938-.013-13.876.008-20.814.006-1.6-1.029-2.169-2.305-2.6-.393-.132-1.027-.106-.883-.8.12-.569.64-.4,1-.381a55.114,55.114,0,0,0,6.89,0c.316-.022.752-.131.867.325.1.4-.176.626-.529.763a2.886,2.886,0,0,0-1.758,2.917c-.074,2.6-.027,5.2-.03,7.805,0,.351-.019.772.3.948.376.208.608-.192.854-.415q4.423-4,8.839-8.01a10.133,10.133,0,0,0,.728-.742c.908-1.006.982-1.8-.522-2.288-.386-.126-1.009-.215-.922-.85.1-.7.721-.474,1.116-.445a46.252,46.252,0,0,0,7.059-.006c.308-.025.73-.148.872.314a.577.577,0,0,1-.425.8c-3.918,1.2-6.4,4.4-9.427,6.828-1.482,1.191-2.821,2.554-4.288,3.765-1,.824-1.162,1.445-.152,2.467,3.612,3.652,7.13,7.4,10.7,11.1a5.574,5.574,0,0,0,3.109,1.755c.526.085,1.168.03,1.063.778-.126.893-.789.533-1.352.463a4.791,4.791,0,0,0-1.9-.011c-2.123.637-3.293-.666-4.531-1.995-3.149-3.374-6.331-6.715-9.51-10.058-.347-.366-.726-1.01-1.221-.817-.62.24-.364,1-.377,1.549C772.231,789.062,772.25,790.045,772.25,791.252Z" transform="translate(64.907 19.152)" fill="#fffffe"/><path d="M901.337,778.436c0,6.115-.026,11.877.019,17.636.012,1.477,1.083,2.008,2.4,2.236.364.062,1.084-.043,1,.665-.084.744-.675.591-1.208.538a32.493,32.493,0,0,0-6.557.007c-.409.043-.841.185-.96-.389a.735.735,0,0,1,.616-.9c2.116-.464,2.754-2.123,2.758-3.9.011-5.711.286-11.426-.15-17.134-.189-2.464-1.107-4.327-3.772-4.856-.395-.078-.869-.176-.82-.708.067-.72.687-.507,1.084-.475a11.553,11.553,0,0,0,2.735-.011c.7-.107,1.088.279,1.557.806q9.171,10.333,18.429,20.59a12.367,12.367,0,0,0,1.109.937c0-4.557,0-8.81,0-13.064,0-1.444.079-2.9-.031-4.33a3.707,3.707,0,0,0-3.253-3.693c-.458-.088-1.219-.143-1.1-.841.126-.72.875-.434,1.315-.387a43.015,43.015,0,0,0,6.027-.01c.357-.012.866-.229,1.054.295.178.493-.2.731-.584.9-1.419.6-1.58,1.772-1.573,3.138.036,7.454.023,14.906.006,22.359,0,.593.319,1.461-.457,1.677-.694.191-1.169-.486-1.639-1.018q-8.568-9.7-17.18-19.355C902.019,778.979,901.826,778.85,901.337,778.436Z" transform="translate(122.309 19.142)" fill="#fefefe"/><path d="M844.084,801.656c0,6.286-.029,12.047.02,17.807.012,1.451,1.038,2.1,2.383,2.271.467.058,1.031.04,1,.675-.036.676-.656.548-1.08.513a39.594,39.594,0,0,0-6.572-.006c-.406.035-.993.178-1.075-.525-.067-.564.4-.642.773-.736,2.187-.545,2.631-2.272,2.652-4.13.058-5.258.1-10.521-.013-15.778-.058-2.845-.763-5.445-4.21-6.04a.6.6,0,0,1-.546-.74c.1-.431.53-.429.847-.39a11.735,11.735,0,0,0,3.1,0c.624-.091,1,.3,1.412.766q9.6,10.764,19.276,21.5c.528-.415.256-.973.259-1.437.023-4.971.017-9.941.013-14.912,0-2.905-.61-3.729-3.342-4.669-.435-.149-1.206-.078-1.041-.838.121-.564.755-.452,1.187-.413a33.906,33.906,0,0,0,6.045,0c.416-.038,1.015-.22,1.223.328.226.591-.348.785-.743.968-1.252.578-1.469,1.617-1.464,2.863.025,7.282.012,14.564.012,21.847,0,.463.029.928-.013,1.386-.035.379.082.886-.337,1.08-.512.236-.88-.2-1.174-.522-1.746-1.911-3.468-3.845-5.187-5.779C853.134,811.851,848.788,806.953,844.084,801.656Z" transform="translate(96.8 29.583)" fill="#fefefe"/><path d="M817.575,793.432c0-6.009.039-11.718-.022-17.426-.02-1.959-.938-2.833-3.139-3.564-.481-.16-1.36-.107-1.139-.961.172-.664.915-.366,1.341-.3a45,45,0,0,0,6.2-.02c.364,0,.9-.182.992.386.055.354-.288.6-.623.736-1.458.607-1.758,1.773-1.75,3.235q.061,11.01,0,22.02c0,.681.473,1.685-.416,2-.822.289-1.259-.688-1.727-1.207-4.434-4.928-8.828-9.889-13.235-14.841q-2.17-2.437-4.345-4.867c-.6.39-.361.9-.363,1.314-.019,5.029.021,10.057-.029,15.085-.019,1.792.419,3.06,2.46,3.249.395.038,1.057.057.984.714-.082.746-.677.594-1.208.535a34.472,34.472,0,0,0-6.393-.026c-.486.036-1,.188-1.115-.424-.1-.553.335-.75.841-.873,2.012-.488,2.531-2.083,2.55-3.833.058-5.491.105-10.984-.016-16.472-.059-2.68-.934-5.036-4.063-5.623-.351-.067-.743-.152-.678-.6.057-.393.411-.5.789-.512,2.356-.071,4.323.2,6.111,2.32,5.607,6.642,11.521,13.026,17.322,19.5A4.613,4.613,0,0,0,817.575,793.432Z" transform="translate(76.882 19.136)" fill="#fefefe"/><path d="M884.623,815.026c0,1.386.029,2.774-.007,4.159-.029,1.1.409,1.785,1.544,1.872,4.3.331,8.4-.075,11.692-3.306.283-.277.5-.759.957-.513.437.233.229.7.148,1.09a5.733,5.733,0,0,1-5.624,4.6c-4.5-.038-9-.283-13.5-.01-.463.027-1.184.269-1.3-.453-.091-.565.569-.646.979-.8a2.515,2.515,0,0,0,1.72-2.681c-.032-6.7-.02-13.4-.007-20.1,0-1.628-.509-2.823-2.291-3.13-.431-.074-1.065-.1-.928-.735.118-.541.746-.447,1.181-.453,1.964-.02,3.932-.075,5.893.006a76.969,76.969,0,0,0,10.018-.036c1.419-.126,1.837.415,1.68,1.74-.129,1.083-.11,2.184-.214,3.271-.03.319-.2.7-.633.7-.452,0-.51-.439-.609-.729-1-2.907-1.214-3.076-4.268-3.084-1.56-.006-3.121.042-4.679-.016-1.24-.045-1.8.4-1.771,1.7.057,2.657.062,5.316,0,7.971-.027,1.149.383,1.535,1.51,1.46,1.266-.084,2.541-.049,3.812-.012,1.856.054,3.313-.468,3.84-2.461.093-.354.215-.69.659-.647.483.045.458.449.458.785q.013,3.378,0,6.754c0,.331.074.739-.395.828a.587.587,0,0,1-.756-.519c-.334-3.177-2.639-2.908-4.885-2.885-4.226.045-4.226.013-4.226,4.248Q884.622,814.332,884.623,815.026Z" transform="translate(114.88 29.584)" fill="#fffffe"/><path d="M829.425,814.956c0,1.272.062,2.547-.016,3.813-.091,1.469.4,2.333,1.979,2.378,4.17.117,8.188-.25,11.324-3.478.244-.251.448-.607.828-.462.521.2.307.671.239,1.042a5.771,5.771,0,0,1-5.571,4.672c-4.5-.023-9-.286-13.5-.01-.463.028-1.185.292-1.346-.386-.168-.71.617-.724,1.045-.9a2.468,2.468,0,0,0,1.622-2.573c-.023-6.76-.013-13.52-.007-20.28,0-1.561-.538-2.7-2.223-3.008-.447-.081-1.1-.123-1.009-.689.1-.643.815-.517,1.3-.513,3.288.026,6.577.111,9.863.12,2.133.006,4.267-.059,6.4-.144.861-.033,1.3.193,1.221,1.145-.1,1.205-.1,2.417-.166,3.625-.023.41-.15.858-.614.921-.552.075-.6-.477-.7-.822-.767-2.655-1.107-2.94-3.856-2.976-1.733-.022-3.467.032-5.2-.014-1.2-.032-1.645.489-1.628,1.662q.065,4.074,0,8.147c-.014.956.293,1.366,1.3,1.318,1.326-.064,2.657-.046,3.985-.009,1.847.053,3.322-.432,3.867-2.428.094-.34.191-.711.639-.677.609.048.484.554.486.927q.022,3.274,0,6.547c0,.375.129.867-.5.9-.545.029-.62-.421-.757-.794-.965-2.6-.973-2.606-3.674-2.609-1.328,0-2.661.061-3.986-.017-1.1-.065-1.409.388-1.36,1.417C829.474,812.181,829.425,813.57,829.425,814.956Z" transform="translate(90.293 29.591)" fill="#fff"/><path d="M920.117,785.431q0-4.683,0-9.365c0-2.624-.178-2.881-2.568-3.791-.389-.147-.831-.215-.7-.775.108-.457.529-.377.851-.367,3.4.1,6.8-.127,10.209.139a52.388,52.388,0,0,0,6.559-.16c.9-.043,1.266.263,1.2,1.174-.091,1.205-.1,2.418-.189,3.624-.029.389-.143.873-.677.836a.716.716,0,0,1-.652-.863c.223-2.045-1.126-2.633-2.722-2.815a32.546,32.546,0,0,0-6.391-.107c-1.19.1-1.659.587-1.656,1.705.006,2.717.039,5.435-.02,8.151-.02.944.454,1.249,1.22,1.3a22.773,22.773,0,0,0,5.865-.2,2.867,2.867,0,0,0,2.156-2.248c.088-.3.113-.779.567-.751.507.029.629.5.6.895a32.49,32.49,0,0,0,.009,6.892.6.6,0,0,1-.526.753.666.666,0,0,1-.7-.645c-.178-2.961-2.233-2.814-4.361-2.787-4.81.062-4.81.019-4.81,4.766,0,1.619.013,3.238,0,4.857a1.787,1.787,0,0,0,1.866,2.026c4.223.155,8.33-.152,11.554-3.415.218-.22.4-.661.82-.454.5.25.286.7.159,1.07-1.213,3.516-3.115,5.069-7.184,4.693a71.227,71.227,0,0,0-11.569-.03c-.536.038-1.3.328-1.542-.358-.28-.806.6-.832,1.064-1.049a2.733,2.733,0,0,0,1.58-2.813C920.1,792.02,920.117,788.725,920.117,785.431Z" transform="translate(132.179 19.158)" fill="#fff"/><path d="M854.966,771.133c3.914-.022,7.83.338,11.74-.019,1.265-.116,1.655.4,1.521,1.568-.13,1.14-.2,2.288-.341,3.427-.039.318-.163.724-.632.665-.415-.052-.483-.392-.564-.753-.554-2.492-.877-2.8-3.314-3.005a33.39,33.39,0,0,0-6.046-.033,1.317,1.317,0,0,0-1.4,1.551c.017,2.775.038,5.55-.013,8.324-.014.808.253,1.166,1.035,1.226a20.542,20.542,0,0,0,6.2-.224,2.762,2.762,0,0,0,1.929-2.253c.084-.311.221-.73.656-.671.467.062.387.509.389.827q.02,3.382,0,6.763c0,.374.1.893-.477.941-.435.036-.506-.413-.622-.714-1.035-2.7-1.029-2.706-3.875-2.706-1.328,0-2.659.033-3.988-.012-.86-.03-1.259.218-1.245,1.165.045,2.889.031,5.78.01,8.67a1.592,1.592,0,0,0,1.681,1.789c4.326.126,8.587-.043,11.794-3.6.217-.24.473-.457.7-.249.168.152.178.527.178.8,0,2.355-2.84,5.034-5.51,4.926-3.694-.15-7.386-.178-11.08-.162-.976,0-1.951.124-2.927.2-.434.032-.883-.046-.984-.489-.088-.392.321-.564.662-.665,2.019-.6,2.246-2.172,2.237-3.958-.032-5.954-.015-11.909-.011-17.862,0-2.041-.054-4.039-2.755-4.384a.545.545,0,0,1-.533-.568c0-.5.377-.512.723-.513C851.73,771.128,853.347,771.133,854.966,771.133Z" transform="translate(102.143 19.154)" fill="#fff"/><path d="M819.277,821.89a11.4,11.4,0,0,0,9.506-5.608c.169-.291.291-.7.723-.607.6.134.342.62.314.989-.228,2.918-1.495,4.855-4.557,5.624-4.137,1.038-8.284,1.534-12.429.516-6-1.471-9.545-6.3-9.884-13.016a14.53,14.53,0,0,1,11.479-15.153,16.722,16.722,0,0,1,12.169,1.954c.679.4,1.279.981,2.209.506.744-.381.721.364.756.744q.232,2.489.343,4.988c.015.338.1.9-.47.958-.376.038-.588-.307-.727-.637a13.444,13.444,0,0,0-1.6-2.648,10.969,10.969,0,0,0-12.266-4.537c-4.455,1.068-7.171,4.268-8,9.317a16.3,16.3,0,0,0,1.635,10.55C810.573,819.777,813.776,821.956,819.277,821.89Z" transform="translate(81.451 29.467)" fill="#fdfdfd"/><path d="M956.265,799.82c-.663,0-1.127.02-1.588,0-4.841-.246-7.121-2.834-6.763-7.662.03-.4-.035-.881.551-.886.525,0,.557.444.677.844,1.156,3.865,3.859,5.857,7.778,6.347a7.967,7.967,0,0,0,7.295-3.383,4.63,4.63,0,0,0-1.922-6.763c-2.671-1.385-5.692-1.788-8.463-2.906-2.954-1.191-4.942-3.141-5.078-6.524-.182-4.521,3.018-7.765,7.893-7.992a15.238,15.238,0,0,1,6.944,1.023.354.354,0,0,0,.163.053c2.755-.4,2.049,1.774,2.331,3.178.159.786.2,1.6.3,2.393.055.411.143.827-.415.957-.429.1-.636-.208-.8-.512a8.207,8.207,0,0,1-.315-.8A8.017,8.017,0,0,0,953.64,773.1,4.523,4.523,0,0,0,951,777.408a4.068,4.068,0,0,0,2.827,3.794c1.75.713,3.586,1.211,5.38,1.817,1.035.348,2.081.674,3.084,1.1,3.428,1.448,4.939,3.9,4.846,7.756a7.86,7.86,0,0,1-5.306,7.015A14.237,14.237,0,0,1,956.265,799.82Z" transform="translate(146.009 19.049)" fill="#fefefd"/><path d="M759.079,799.818c-.4,0-.809.016-1.213,0-5.076-.234-7.2-2.548-7-7.623.016-.4-.059-.895.509-.924.645-.033.593.546.741.97,2.042,5.828,8.557,8.077,13.432,4.648a4.937,4.937,0,0,0-.559-8.685c-2.274-1.152-4.794-1.574-7.178-2.4-4.95-1.72-6.931-4.91-5.815-9.4.789-3.176,3.859-5.371,7.7-5.513a14.812,14.812,0,0,1,6.929,1.06c.105.049.227.163.311.14,2.229-.627,1.866,1.113,2.058,2.285.178,1.078.272,2.169.376,3.256.032.33.074.713-.379.848-.425.127-.637-.113-.792-.458-.163-.369-.333-.736-.494-1.106a8.019,8.019,0,0,0-11.211-3.754,4.516,4.516,0,0,0-2.542,4.025,4.1,4.1,0,0,0,2.492,3.836,29.861,29.861,0,0,0,5.348,1.889,32.417,32.417,0,0,1,3.246,1.148c3.725,1.555,5.13,3.761,5.044,7.948a7.792,7.792,0,0,1-5.407,6.913,14.252,14.252,0,0,1-2.5.687c-1.019.166-2.063.191-3.095.276Z" transform="translate(58.258 19.05)" fill="#fefefd"/><path d="M940.727,799.82c-.462,0-.926.027-1.386,0-5.007-.332-7.043-2.633-6.79-7.652.022-.4-.039-.879.542-.893.52-.012.6.439.71.833,1.125,3.9,3.852,5.858,7.759,6.361,3.433.439,7.065-1.734,7.808-4.654.652-2.563-.055-4.239-2.372-5.461-2.359-1.242-5.017-1.629-7.486-2.557-2.58-.968-5.021-2.154-5.8-5.167-1.321-5.114,1.868-9.353,7.376-9.716a14.318,14.318,0,0,1,7.11,1c.156.074.345.237.47.2,2.391-.741,1.76,1.249,2.028,2.311a16.738,16.738,0,0,1,.35,2.9c.03.416.249.987-.4,1.161s-.778-.409-.921-.8a7.548,7.548,0,0,0-3.3-4.291,8.348,8.348,0,0,0-8.262-.194,4.372,4.372,0,0,0-2.516,4.213,4.1,4.1,0,0,0,2.541,3.619c2.73,1.427,5.787,1.867,8.619,3,6.555,2.616,6.147,10.456,2.083,13.516a12.348,12.348,0,0,1-7.121,2.282c-.345.015-.694,0-1.041,0Z" transform="translate(139.174 19.044)" fill="#fefefd"/><path d="M873.858,808.815c0,3.3.048,6.591-.02,9.885-.03,1.552.451,2.561,2.064,2.889.454.092,1.181.092,1.01.87-.16.731-.844.49-1.3.454a45.469,45.469,0,0,0-7.088,0c-.429.035-1.022.183-1.12-.468-.072-.47.334-.684.76-.785,2.06-.489,2.359-1.919,2.33-3.809q-.139-9.535,0-19.075c.023-1.587-.473-2.015-1.966-1.885a23.8,23.8,0,0,1-4.33,0c-2.006-.2-3.2.551-3.631,2.537-.1.462-.129,1.208-.818,1.081-.714-.13-.319-.859-.376-1.321a5.017,5.017,0,0,1,.111-1.023c.343-3.681.343-3.722,3.9-3.6,6.412.217,12.822.255,19.228-.043,1.756-.081,2.249.637,2.213,2.181-.019.8.093,1.609.111,2.414.009.338-.025.72-.5.762a.569.569,0,0,1-.675-.6c-.182-2.22-1.7-2.437-3.472-2.375-1.675.058-3.355.065-5.028,0-1.149-.048-1.479.364-1.453,1.51.077,3.466.028,6.936.028,10.4Z" transform="translate(106.565 29.583)" fill="#fff"/><path d="M885.407,793.739a5.33,5.33,0,0,1-5.28,5.8c-3.46-.1-6.918-.169-10.378-.155-1.148,0-2.3.139-3.444.189-.447.02-1.015.12-1.151-.476-.116-.5.361-.689.74-.8,1.729-.512,2-1.794,1.986-3.376-.042-6.41-.072-12.822.019-19.231.026-1.749-.319-2.917-2.214-3.239-.463-.08-1.149-.205-.987-.932.143-.636.769-.384,1.174-.366a38.318,38.318,0,0,0,7.053,0c.4-.055,1-.22,1.145.432.153.7-.463.708-.873.8a2.571,2.571,0,0,0-2.018,2.847c-.061,6.814-.049,13.627-.035,20.442,0,1.441.89,2.012,2.248,2.036,4.3.078,8.435-.322,11.55-3.827C885.032,793.777,885.246,793.784,885.407,793.739Z" transform="translate(108.951 19.149)" fill="#fffffe"/><path d="M900.8,793.733a5.364,5.364,0,0,1-5.391,5.806q-5.277-.174-10.553-.156c-1.091,0-2.181.137-3.272.191-.458.023-1,.061-1.112-.541-.1-.554.432-.633.785-.737,1.641-.484,1.989-1.684,1.982-3.214-.03-6.47-.069-12.941.023-19.409.026-1.788-.46-2.885-2.287-3.242-.412-.081-1-.194-.932-.824.074-.729.705-.486,1.093-.455a46.436,46.436,0,0,0,7.24,0c.359-.028.88-.191,1.028.353.187.681-.444.749-.834.854-1.649.45-2.08,1.662-2.08,3.167,0,6.643.009,13.286-.01,19.929,0,1.5.66,2.245,2.167,2.258,4.343.041,8.568-.253,11.664-3.927C900.382,793.691,900.629,793.746,900.8,793.733Z" transform="translate(115.793 19.15)" fill="#fffffe"/><path d="M787.909,785.016c0-3.233-.077-6.469.032-9.7.055-1.662-.535-2.646-2.126-3.042-.442-.11-1.048-.13-.979-.74.08-.7.747-.4,1.122-.371a67.757,67.757,0,0,0,7.23-.006c.328-.013.9-.263.925.408.015.4-.312.571-.685.645-1.8.354-2.1,1.561-2.08,3.209q.108,9.96,0,19.923c-.02,1.635.572,2.48,2.116,2.81.559.12,1.516.068,1.289.961-.205.81-1.039.393-1.646.357a39.115,39.115,0,0,0-6.734.049c-.565.065-1.114.1-1.312-.491-.243-.727.384-.808.887-.947,1.538-.425,2.009-1.493,1.983-3.015C787.868,791.717,787.909,788.366,787.909,785.016Z" transform="translate(73.39 19.143)" fill="#fff"/><path d="M747.7,852.87l-2.794,2.794a49.762,49.762,0,0,1-11.99,9,58,58,0,0,1-20.791,6.693,59.393,59.393,0,0,1-30.667-4.208A52.6,52.6,0,0,1,665.84,857.1q-2.947-2.946-5.891-5.894a50.487,50.487,0,0,1-7.853-11.122,61.427,61.427,0,0,1-6.452-21.239,55.774,55.774,0,0,1,1.269-19.745c2.144-8.817,5.717-16.926,11.958-23.68a2.633,2.633,0,0,0,.383-.574q3.657-3.972,7.629-7.629a52.327,52.327,0,0,1,8.837-6.342,59.419,59.419,0,0,1,24.511-7.327,58.39,58.39,0,0,1,32.407,6.845,46.1,46.1,0,0,1,10.9,7.9l5.553,5.581c5.557,5.562,9.113,12.332,11.631,19.67a59.477,59.477,0,0,1-7.348,52.784A58.356,58.356,0,0,1,747.7,852.87Z" transform="translate(11.234 11.251)" fill="#6d7c70"/><path d="M716.139,846.545c.6-1.487,1.938-2.389,2.891-3.6a57.593,57.593,0,0,0,12.053-27.38,58.526,58.526,0,0,0-9.667-42.771c-1.217-1.81-2.842-3.311-3.891-5.241a13.462,13.462,0,0,1,1.052.864q18.4,18.381,36.8,36.758c.841.838,1.091,1.291.091,2.284q-19.244,19.127-38.4,38.345A9.807,9.807,0,0,1,716.139,846.545Z" transform="translate(42.795 17.576)" fill="#98a377"/><path d="M659.5,825.576c1.282.243,1.957,1.364,2.9,2.078a57.571,57.571,0,0,0,30.618,11.92,58.3,58.3,0,0,0,40.738-11.58c1.661-1.221,2.992-2.844,4.815-3.856-2.016,2.46-4.4,4.567-6.631,6.811q-16.159,16.213-32.362,32.381c-.646.646-1.067,1.38-2.148.3Q678.761,844.9,660,826.263A5.135,5.135,0,0,1,659.5,825.576Z" transform="translate(17.571 42.777)" fill="#98a377"/><path d="M736.875,775.573c-1.613-.792-2.821-2.13-4.258-3.167a58.933,58.933,0,0,0-54.209-7.979,55.855,55.855,0,0,0-17.007,9.441c-.354.285-.636.7-1.177.623.367-.434.707-.9,1.107-1.3q17.32-17.336,34.653-34.659c2.012-2.012,2.013-2.009,4.01-.013q17.88,17.878,35.756,35.76C736.154,774.685,736.5,775.142,736.875,775.573Z" transform="translate(17.892 3.979)" fill="#98a377"/><path d="M666.552,768.225c-.7,1.8-2.149,3.08-3.2,4.637a59.083,59.083,0,0,0-4.028,59.462,48.258,48.258,0,0,0,7.412,11.218c.27.305.57.583.513,1.043a6.562,6.562,0,0,1-1.786-1.6q-17.893-17.869-35.778-35.75c-.705-.7-1.25-1.142-.22-2.167q18.247-18.13,36.405-36.347A5.228,5.228,0,0,1,666.552,768.225Z" transform="translate(3.936 17.874)" fill="#98a377"/><path d="M897.7,801.606c0-1.438-.006-2.878,0-4.318.007-1.188.519-1.792,1.808-1.7a18.414,18.414,0,0,1,3.248.312c3.352.847,5.1,3.389,4.708,6.958-.334,3.024-2.431,4.7-5.925,4.75-3.845.049-3.845.049-3.845-3.76Q897.7,802.73,897.7,801.606Z" transform="translate(123.659 30.058)" fill="#6d7c70"/><path d="M666.253,768.2c18.748-14.675,45.955-14.624,64.888.166-2.064-.266-3.813-.606-5.576-.7-6.077-.319-11.361,1.434-14.849,6.682-3.176,4.777-2.347,9.727.5,14.318a10.618,10.618,0,0,0,11.251,5.146c2.7-.386,4.095-1.958,3.978-4.341a4.69,4.69,0,0,0-4.487-4.03c-1.971-.084-3.946-.045-5.566,1.35-.48.415-.85.24-1.172-.168-1.36-1.714-2.311-3.505-1.782-5.855,1.207-5.357,4.121-7.94,10.251-8.9,6.892-1.075,12.664,2.184,14.308,8.434,1.194,4.539-.3,8.747-2.492,12.734-2.382,4.336-6.023,7.57-9.576,10.858-3.677,3.406-7.528,6.626-11.187,10.048a2.432,2.432,0,0,1-3.236.379c-3.372-1.83-5.312-4.87-6.782-8.249a63.734,63.734,0,0,1-4.286-17.016c-.441-3.248-.731-6.513-.851-9.791-.02-.555.3-1.373-.856-1.23-.851.106-1.3.32-1.312,1.347a86.278,86.278,0,0,1-1.847,16.089c-1.067,5.215-2.5,10.3-5.555,14.776a11.632,11.632,0,0,1-5.034,4.319,1.793,1.793,0,0,1-2.185-.278c-5.885-5.255-11.974-10.3-17.359-16.083-3.982-4.275-6.679-9.21-6.645-15.3a11.251,11.251,0,0,1,10.381-11.14,17.448,17.448,0,0,1,8.781,1.3,10.293,10.293,0,0,1,5.828,9.259,6.782,6.782,0,0,1-1.961,4.3c-.348.4-.694.554-1.172.139-1.892-1.642-4.2-1.457-6.425-1.269a4.116,4.116,0,0,0-.617,8.054,10.494,10.494,0,0,0,8.045-.893c6.689-3.686,9.43-14.645,2.892-20.627-4.312-3.947-9.369-4.92-14.94-4.222-1.025.129-2.041.332-3.064.49C666.453,768.312,666.349,768.234,666.253,768.2Z" transform="translate(17.255 12.977)" fill="#fff"/><path d="M657.891,775.193c-1.656,8.783,2.418,15.776,7.085,22.571a88.348,88.348,0,0,0,7.584,9.282,13.328,13.328,0,0,0-7.976,2.227c-4.043,2.717-5.266,6.717-4.722,11.31a8.888,8.888,0,0,0,6.9,8.141,7.264,7.264,0,0,0,5.235-.442,3.91,3.91,0,0,0,2.259-4.388c-.415-1.935-1.69-2.94-3.9-2.915a8.135,8.135,0,0,0-2.888.419c-1.327.531-1.539-.074-1.789-1.152a13.26,13.26,0,0,1-.237-4.466,5.168,5.168,0,0,1,4.52-4.554,9.41,9.41,0,0,1,6.039,1,46.012,46.012,0,0,1,20.224,19.423A13.577,13.577,0,0,1,698,840.8a10.743,10.743,0,0,1-10.488,8.622c-4.459.166-8.055-1.088-10.125-5.377-.564-1.168-.25-1.4.957-1.4,3.569.01,5.036-.9,5.475-3.264a3.265,3.265,0,0,0-1.333-3.673,8.488,8.488,0,0,0-8.4-.611c-2.561,1.234-3.376,4.146-2.506,7.885a16.8,16.8,0,0,0,2.411,5.13c-22.182-13.1-33.792-46.269-16.4-73.618C658.214,774.507,658.058,774.846,657.891,775.193Z" transform="translate(12.975 20.667)" fill="#fff"/><path d="M715.061,807.434a75.377,75.377,0,0,0,11.763-15.906c2.985-5.534,4.291-11.281,2.437-17.826,16.943,23.852,9.9,58.8-14.8,74.43l.987-1.956a9.716,9.716,0,0,0,1.123-4.833c-.1-2.438-.57-4.852-3.031-6a8.487,8.487,0,0,0-7.973.458,3.574,3.574,0,0,0-1.662,4.19A4.022,4.022,0,0,0,707.7,843c.965.074,1.941.013,3.131.013a9.4,9.4,0,0,1-3.44,5.055c-4.806,3.4-13.006,1.862-16.17-3.087a10.8,10.8,0,0,1-1.172-9.274,29.723,29.723,0,0,1,7.3-11.992A50.289,50.289,0,0,1,711.027,813a13.535,13.535,0,0,1,4.582-1.467c3.748-.429,7.114,1.8,6.841,6.809-.007.113-.072.22-.091.334-.191,1.071-.016,2.433-.8,3.1-.765.656-1.911-.241-2.908-.354-3.583-.4-5.482,1.059-5.2,4.111a3.954,3.954,0,0,0,2.739,3.271,8.083,8.083,0,0,0,10.83-4.751,15.326,15.326,0,0,0,.513-8c-1.047-5.727-5.847-8.275-11.034-8.622C716.122,807.411,715.733,807.434,715.061,807.434Z" transform="translate(30.933 20.314)" fill="#fff"/><path d="M689.084,788.074a40.975,40.975,0,0,0,3.638,11.657,23.774,23.774,0,0,0,4.812,6.7c.675.627.791,1.072.2,1.818-4,5.054-7.2,10.525-8.658,17.236-1.31-6.721-4.683-12.072-8.486-17.2-.412-.555-.952-.931-.159-1.69,5.067-4.843,7.28-11.067,8.461-17.774C688.923,788.658,688.975,788.5,689.084,788.074Z" transform="translate(26.711 26.715)" fill="#fff"/><path d="M709.884,833.827a52.567,52.567,0,0,1-36.584-.493c4.374.393,8.6.042,12.319-2.538,3.774-2.618,5.644-6.407,6.42-11.4,1.547,8.107,5.673,13.021,13.72,13.89a22.234,22.234,0,0,0,3.223.124C709.31,833.438,709.835,833.155,709.884,833.827Z" transform="translate(23.715 40.665)" fill="#fff"/><path d="M699.882,829.547c-1.315-.63-2.834.281-4.125-.542h5.182l.078.175Z" transform="translate(33.717 44.945)" fill="#cbceba"/><path d="M655.3,775.378l-.3-.7c.056-.278.321-.687.435-.584C655.918,774.521,655.416,774.949,655.3,775.378Z" transform="translate(15.566 20.482)" fill="#e4e5dc"/></g></svg>