<?xml version="1.0" encoding="UTF-8"?><svg id="Layer_2" xmlns="http://www.w3.org/2000/svg" xmlns:xlink="http://www.w3.org/1999/xlink" viewBox="0 0 274 94"><defs><style>.cls-1{fill:none;}.cls-2{clip-path:url(#clippath);}.cls-3{fill:#ebba12;}</style><clipPath id="clippath"><rect class="cls-1" width="274" height="94"/></clipPath></defs><g id="Layer_1-2"><g class="cls-2"><g><path class="cls-3" d="M0,48l43.47-.12v30.5c-12.49-.76-23.77-8.18-29.14-19.25h14.1v6.49c0,.43,6.69,3.86,7.75,3.71v-14.03l-26.66-.33-.32,.51c10.21,36.39,62.82,36.3,73.01,0l-.32-.53h-26.55l-.35,.35v14.03c1.03,.03,7.52-3.29,7.52-3.71v-6.15l.35-.35h14.22c-5.91,11.17-16.57,18.19-29.37,19.48v-30.73l.35-.35h42.77c.79,0-.5,6.8-.65,7.48-3.65,16.75-16.58,29.82-33.3,34.17l-7.77,1.27h-6.81c-16.77-1.61-31.95-11.85-38.47-27.32C1.78,58.26,.95,53.39,0,48.23v-.23Z"/><path class="cls-3" d="M0,42.2C2.84,13.57,29.62-6.08,58.29,1.72c18.66,5.07,31.94,22.17,32.89,41.18H48.06l-.35-.35V11.81c12.94,1.41,23.04,8.13,29.37,19.25h-14.57v-6.26c0-.42-6.51-3.66-7.52-3.71v14.38h27.26C74.13,2.89,28.77-2.25,12.29,26.61l-3.12,8.87h26.67l.35-.35v-14.03c-2.7,.46-5.13,2.01-7.3,3.58l-.45,6.4H14.34c5.83-10.97,16.18-17.65,28.6-19.21l.54,.31v30.73H0c.02-.23-.02-.47,0-.7H0Z"/><path class="cls-3" d="M130.38,10.15c-.09,.31-.4,.5-.71,.44-5.6-1.25-13.8-1.71-21.81-1.49-1.07,11.52-1.53,38.9-1.18,49.12,.07,1.82,.13,3.4,.22,4.69,.2,.09,.33,.26,.36,.46,.44,3.16,.06,3.42-.11,3.55-.09,.06-.22,.11-.36,.11-.09,0-.18-.02-.27-.06-.29-.15-.44-.31-.64-2.37-.11-1.07-.27-3.03-.38-6.34-.33-10.22,.11-37.49,1.18-49.14-8.91,.31-17.45,1.45-21.76,3.25-.93,.4-1.36,.68-1.53,.81,.6,.26,2.62,.61,7.34,.48,3.73-.09,7-.4,7.67-.59,.07-.04,.13-.09,.22-.11,.29-.11,.62,.06,.73,.37,.07,.2,.04,.61-.49,.81-.82,.28-4.85,.61-8.45,.68-.53,.02-1.04,.02-1.56,.02-6.16,0-6.51-.88-6.67-1.29-.4-.97,.93-1.69,2.29-2.24,4.67-1.97,13.38-3.05,22.29-3.33,.02,0,.02-.02,.02-.02,0-.15,.09-.31,.2-.4,.13-.09,.29-.13,.44-.13,.16,.02,.29,.11,.38,.22,.09,.09,.13,.2,.13,.31,8.34-.2,16.69,.33,21.99,1.49,.31,.09,.51,.4,.44,.7h0Z"/><path class="cls-3" d="M130.51,50.93c-.02,.15-.82,3.8-3.62,6.34-.71,.64-1.38,.94-2.02,.94-.24,0-.49-.04-.71-.13-2.25-.88-2.78-5.97-2.89-7.5-.02-.26-.04-.4-.09-.48-.47,.2-1.73,1.62-2.51,2.5l-.2,.22c-1.18,1.29-2.78,1.78-3.78,1.58-.58-.11-.98-.46-1.13-.92-.24-.75,.13-1.67,1.11-2.74,2.98-3.25,6.96-3.69,9.6-2.7,.29,.11,.44,.44,.33,.75-.11,.28-.47,.44-.76,.33-2.27-.86-5.71-.44-8.31,2.41-.82,.88-.93,1.4-.87,1.58,.02,.09,.15,.13,.27,.15,.64,.13,1.82-.28,2.65-1.21l.2-.22c1.87-2.08,2.89-3.16,3.82-2.85,.73,.24,.8,1.21,.82,1.51,.22,2.9,1.02,6.08,2.16,6.52,.4,.15,.91-.04,1.51-.59,2.53-2.3,3.58-5.57,3.6-5.6,.07-.31,.33-.28,.49-.24,.16,0,.36,.09,.33,.35h0Z"/><path class="cls-3" d="M143.98,62.1c-1.67-2.63-1.18-13.71-.33-20.36,.13-.94,0-1.29-.04-1.38-.29,.04-1.22,.77-2.4,2.74-.73,1.23-2.07,3.86-2.8,7.59-.18,.9-.38,1.65-.56,2.22-.18,.5-.42,1.29-1.09,1.23-.67-.09-.71-.92-.73-1.4-.04-.64-.02-1.56,.05-2.79,.02-.24,.04-.5,.04-.79,.07-.92,.2-2.63,.09-3.51-.2,.28-.51,.79-.93,1.71-1.42,2.94-2.09,5.92-2.53,7.88-.42,1.91-.58,2.61-1.27,2.7-.58,.04-.87-.55-.96-.75l-.02-.06-.02-.06c-.4-2-.67-3.77-.87-5.29-.13-.13-.22-.35-.15-.57,.02-.09,.04-.2,.07-.28-.22-1.91-.29-3.4-.29-4.48-.04-4.28,.76-4.63,1.07-4.76l.04-.02h.04c.27-.06,.56,.02,.78,.24,.91,.88,.76,3.93-.44,9.08,.15,1.34,.38,2.87,.71,4.65,.04-.22,.09-.44,.13-.66,.47-2,1.13-5.05,2.62-8.12,1.04-2.17,1.69-2.9,2.42-2.7,.96,.24,.96,1.73,.71,5.09-.02,.28-.02,.55-.04,.77,0,.09,0,.18-.02,.26,.6-2.87,1.67-5.66,2.98-7.88,.78-1.29,2.29-3.42,3.6-3.22,.62,.11,1.29,.66,1.02,2.7-.98,7.61-1.11,17.59,.15,19.61,.07,.09,.11,.13,.13,.15,.09-.02,.76-.24,2.24-3.33,1-2.11,2.04-4.8,2.93-7.17,.11-.31,.47-.46,.78-.35,.31,.11,.47,.46,.36,.77-3.09,8.16-4.71,11.12-6.2,11.28h-.13c-.29,0-.76-.11-1.13-.72h0Zm-13.58-15.99c.13-1.03,.15-1.75,.13-2.26-.07,.53-.13,1.25-.13,2.26Z"/><path class="cls-3" d="M150.61,93.32c-.67-2.04-.78-15.18-.69-25.8v-.18c-.04-1.47-.07-2.83-.07-4.08-.18,0-.36,0-.53-.02-.73-.02-1.27-.13-1.67-.33-.69-.33-.78-.81-.78-1.1,.04-1.1,1.73-2,3.05-2.52,.04-.68,.09-1.25,.15-1.67,.04-1.95,.11-3.86,.18-5.7-.07-.11-.07-.26-.02-.42,0-.02,.02-.06,.02-.09,.2-5.35,.49-9.79,.85-11.5,.55-2.63,1.02-3.49,1.8-3.47,.24,.02,1,.04,1.29,2.44v.04c0,.15,.18,4.08-2.74,12.68-.02,.5-.02,1.01-.04,1.51,.24-.46,.51-.88,.82-1.27,1.04-1.34,2.42-2.33,3.87-2.74,1.93-.57,3.76-.13,4.8,1.14,1.73,2.13,2,4.61,.76,7-.09,.2-.2,.4-.33,.59,5.05,.11,7.05-.09,9.65-6.36,.13-.31,.49-.46,.8-.33,.29,.13,.44,.46,.31,.77-1.44,3.51-2.85,5.4-4.69,6.32-1.8,.9-3.89,.83-6.78,.77h-.18c-2.09,2.37-5.58,3.97-9.27,4.23,0,1.34-.02,2.7-.04,4.04,.11,4.15,.33,8.93,.53,13.21,.15,3.47,.31,6.71,.38,9.06,.02,1.25,.04,2.17,.02,2.81-.02,.9-.02,1.53-.62,1.65h-.13c-.24,0-.53-.13-.69-.68h0Zm-1.22-31.26c.15,.02,.31,.02,.47,.02,0-.53,0-1.01,.02-1.47-1.13,.5-1.67,.99-1.78,1.21,.11,.06,.42,.2,1.29,.24Zm1.8-.02c2.93-.22,5.71-1.36,7.62-3.07h-.73c-3.07-.02-5.54,.66-6.85,1.1-.02,.66-.02,1.32-.04,1.97Zm.07-3.22c1.47-.46,3.84-1.03,6.73-1.03h.09c.64,0,1.25,.02,1.82,.02,.27-.35,.49-.72,.69-1.1,.71-1.38,1.2-3.49-.62-5.7-.73-.9-2.07-1.19-3.51-.77-2.11,.64-4.74,2.96-5.18,7.46,0,.37-.02,.75-.02,1.12h0Zm1.02-18.65c-.24,1.1-.45,3.49-.6,6.65,1.36-5.07,1.31-7.57,1.31-7.81-.04-.28-.11-.59-.18-.86-.13,.37-.31,.99-.53,2.02Z"/><path class="cls-3" d="M187.11,50.93c-.02,.15-.82,3.8-3.62,6.34-.71,.64-1.38,.94-2.02,.94-.24,0-.49-.04-.71-.13-2.25-.88-2.78-5.97-2.89-7.5-.02-.26-.04-.4-.09-.48-.47,.2-1.73,1.62-2.51,2.5l-.2,.22c-1.18,1.29-2.78,1.78-3.78,1.58-.58-.11-.98-.46-1.13-.92-.24-.75,.13-1.67,1.11-2.74,2.98-3.25,6.96-3.69,9.6-2.7,.29,.11,.45,.44,.33,.75-.11,.28-.47,.44-.76,.33-2.27-.86-5.71-.44-8.31,2.41-.82,.88-.93,1.4-.87,1.58,.02,.09,.15,.13,.27,.15,.64,.13,1.82-.28,2.65-1.21l.2-.22c1.87-2.08,2.89-3.16,3.82-2.85,.73,.24,.8,1.21,.82,1.51,.22,2.9,1.02,6.08,2.16,6.52,.4,.15,.91-.04,1.51-.59,2.53-2.3,3.58-5.57,3.6-5.6,.07-.31,.33-.28,.49-.24,.15,0,.36,.09,.33,.35h0Z"/><path class="cls-3" d="M232.77,61.79c-4.62,4.63-9.83,7.17-14.69,7.17-1.78,0-3.47-.33-5.05-1.01-5.85-2.46-8.8-6.73-8.13-11.72,.42-3.09,2.29-6.14,5.24-8.58,.96-.79,2.02-1.49,3.18-2.13,.24-3.01,.64-6.12,1.2-9.26-.11-9.43,.11-19.26,.64-29.2,0-.15,.07-.31,.18-.42,.13-.09,.27-.15,.42-.13,.33,0,.58,.28,.55,.59-.42,7.96-.64,15.88-.67,23.58,1.2-5.09,2.35-8.36,2.42-8.56,.31-1.12,1.47-3.99,2.76-6.67,.69-1.47,1.33-2.61,1.87-3.44,.82-1.25,1.42-1.71,2.02-1.58,.87,.22,1.49,1.19-.53,10.71-.93,4.01-1.93,7.07-2.45,8.51-.15,.42-.29,.79-.42,1.14,2.53-1.62,7.09-3.91,11.51-2.92,3.31,.75,5.94,3.18,7.78,7.24,1.78,3.91,1.82,8.69,.15,13.8-1.51,4.63-4.36,9.19-8,12.86h0Zm-19.56-14.88c-4,2.37-6.67,5.9-7.16,9.48-.6,4.43,2.11,8.25,7.45,10.51,1.44,.61,2.98,.9,4.58,.9,4.49,0,9.42-2.37,13.87-6.82,6.51-6.54,11.23-17.35,7.6-25.36-1.69-3.73-4.02-5.95-6.96-6.6-5.09-1.14-10.6,2.66-12.21,3.86-.31,.53-.53,.55-.76,.53-.27,0-.55-.2-.58-.61-.02-.18,.04-.37,.2-.48,.02-.02,.11-.09,.24-.2,.6-1.14,2.2-5.33,3.53-11.19,1.38-6.38,1.42-8.47,1.34-9.15-.36,.37-1.18,1.45-2.62,4.5-1.22,2.57-2.27,5.22-2.53,6.21-.02,.02-.02,.04-.02,.04-.02,.06-2.04,5.64-3.49,13.84,.02,2.72,.07,5.4,.15,7.99,1.96-.77,4.07-1.32,6.29-1.62,.15-.02,.31,.02,.42,.11,.13,.09,.2,.22,.22,.37,.04,.33-.18,.61-.49,.66-2.29,.33-4.45,.9-6.4,1.69,.31,8.67,.82,13.62,.82,13.67,.18,1.49,.71,6.43-.51,7.31-.24,.2-.55,.22-.82,.11-.87-.37-1.53-2.59-1.98-6.6-.42-4.13-.51-8.53-.2-13.12h0Zm2.36,12.44s-.51-4.74-.82-13.27c-.11,.04-.2,.11-.31,.15-.36,4.78-.31,9.39,.15,13.69,.36,3.27,.8,4.69,1.07,5.26,.18-.81,.29-2.68-.09-5.84Zm-.87-14.52c0-.4-.02-.81-.02-1.23-.07,.44-.09,.88-.13,1.32,.04-.02,.11-.04,.15-.09h0Z"/><path class="cls-3" d="M257.99,50.93c-.02,.15-.82,3.8-3.62,6.34-.71,.64-1.38,.94-2.02,.94-.24,0-.49-.04-.71-.13-2.24-.88-2.78-5.97-2.89-7.5-.02-.26-.04-.4-.09-.48-.47,.2-1.73,1.62-2.51,2.5l-.2,.22c-1.18,1.29-2.78,1.78-3.78,1.58-.58-.11-.98-.46-1.13-.92-.24-.75,.13-1.67,1.11-2.74,2.98-3.25,6.96-3.69,9.6-2.7,.29,.11,.45,.44,.33,.75-.11,.28-.47,.44-.76,.33-2.27-.86-5.71-.44-8.31,2.41-.82,.88-.93,1.4-.87,1.58,.02,.09,.15,.13,.27,.15,.64,.13,1.82-.28,2.65-1.21l.2-.22c1.87-2.08,2.89-3.16,3.82-2.85,.73,.24,.8,1.21,.82,1.51,.22,2.9,1.02,6.08,2.16,6.52,.4,.15,.91-.04,1.51-.59,2.53-2.3,3.58-5.57,3.6-5.6,.07-.31,.33-.28,.49-.24,.16,0,.36,.09,.33,.35h0Z"/><path class="cls-3" d="M257.04,50.96c.02-.33,.31-.57,.62-.55,.33,.02,.58,.28,.56,.59-.15,3.01,1.16,5.11,2.47,5.33,.78,.15,1.47-.5,1.87-1.78,.15-.48,.6-1.93,1.71-1.93h.02c1.47,0,2.6,2.83,3.02,4.04,.02,.06,.13,.37,.31,.88,1.67-2.63,3.51-5.02,5.38-6.95,.11-.11,.24-.18,.4-.18s.31,.04,.42,.15c.11,.11,.18,.24,.18,.4s-.04,.31-.15,.42c-2.02,2.11-4,4.74-5.76,7.61,1.05,3.44,2.62,10.03,1.58,15.88-.76,4.17-2.98,6.06-4.82,6.06h-.15c-1.42-.09-3.02-1.34-3.24-4.59-.31-4.87,1.64-10.14,3.33-13.69,.62-1.27,1.29-2.54,2.05-3.8-.36-1.1-.6-1.78-.62-1.8-.62-1.82-1.56-3.29-1.91-3.29,0,0-.29,.11-.6,1.12-.6,1.87-1.8,2.85-3.22,2.59-1.82-.33-3.62-2.85-3.42-6.52h0Zm11.47,23.69c.91-5.09-.33-10.99-1.25-14.24-3.24,5.79-4.93,11.56-4.64,15.86,.13,2.08,.95,3.42,2.13,3.49,1.4,.06,3.13-1.65,3.76-5.11h0Z"/><path class="cls-3" d="M164.88,74.45v-.96h5.13v.96h-5.13Zm2.05,5.45v-6.23h1.03v6.23h-1.03Z"/><path class="cls-3" d="M174.61,79.99c-.45,0-.87-.09-1.26-.26-.39-.17-.73-.41-1.03-.71-.29-.3-.52-.65-.69-1.05-.17-.4-.25-.83-.25-1.29s.08-.89,.25-1.28c.16-.4,.39-.75,.68-1.05,.29-.3,.63-.54,1.02-.71,.39-.17,.8-.25,1.25-.25s.87,.08,1.25,.25c.39,.17,.73,.4,1.02,.71,.29,.3,.52,.65,.69,1.05,.17,.4,.25,.83,.25,1.29s-.08,.89-.25,1.29c-.16,.4-.39,.75-.68,1.05-.29,.3-.63,.53-1.02,.71-.39,.17-.8,.26-1.24,.26h0Zm-.02-1.01c.43,0,.8-.1,1.12-.29,.32-.19,.57-.47,.75-.81,.18-.35,.27-.74,.27-1.19,0-.34-.05-.64-.16-.92-.1-.28-.25-.52-.44-.72-.19-.2-.42-.36-.68-.47-.26-.11-.55-.16-.87-.16-.42,0-.79,.1-1.11,.29s-.57,.46-.76,.8c-.18,.34-.27,.74-.27,1.19,0,.34,.05,.65,.16,.93,.1,.28,.25,.53,.44,.73,.19,.2,.42,.36,.68,.47s.55,.17,.86,.17h0Z"/><path class="cls-3" d="M179.38,74.45v-.96h5.13v.96h-5.13Zm2.05,5.45v-6.23h1.03v6.23h-1.03Z"/><path class="cls-3" d="M185.93,79.9l2.59-6.41h.72l2.57,6.41h-1.11l-2.01-5.2h.38l-2.03,5.2h-1.1Zm1.28-1.24v-.92h3.33v.92h-3.33Z"/><path class="cls-3" d="M193.87,79.9v-6.41h1.03v6.41h-1.03Zm.71,0v-.96h3.29v.96h-3.29Z"/><path class="cls-3" d="M204.39,79.9l-2.07-6.41h1.02l1.56,4.94h-.27l1.52-4.94h.72l1.52,4.94h-.27l1.56-4.94h1.02l-2.07,6.41h-.72l-1.53-4.93h.27l-1.53,4.93h-.72Z"/><path class="cls-3" d="M212.95,79.9v-6.41h1.03v6.41h-1.03Zm.71-5.45v-.96h3.48v.96h-3.48Zm0,2.64v-.93h3.22v.93h-3.22Zm0,2.81v-.96h3.52v.96h-3.52Z"/><path class="cls-3" d="M219.06,79.9v-6.41h1.03v6.41h-1.03Zm.71,0v-.96h3.29v.96h-3.29Z"/><path class="cls-3" d="M224.45,79.9v-6.41h1.03v6.41h-1.03Zm.71,0v-.96h3.29v.96h-3.29Z"/><path class="cls-3" d="M229.66,79.9v-6.41h.72l.32,1.21v5.2h-1.04Zm4.36,0l-3.77-5.01,.13-1.4,3.77,5.01-.13,1.4Zm0,0l-.32-1.13v-5.29h1.03v6.41h-.72Z"/><path class="cls-3" d="M237.27,79.9v-6.41h1.03v6.41h-1.03Zm.71-5.45v-.96h3.48v.96h-3.48Zm0,2.64v-.93h3.22v.93h-3.22Zm0,2.81v-.96h3.52v.96h-3.52Z"/><path class="cls-3" d="M245.32,79.99c-.5,0-.92-.09-1.27-.27-.35-.18-.66-.45-.93-.81l.7-.71c.17,.26,.38,.46,.62,.6,.24,.14,.55,.22,.92,.22,.35,0,.62-.07,.83-.22,.21-.15,.31-.35,.31-.61,0-.21-.05-.39-.16-.52-.11-.13-.25-.25-.43-.33-.18-.09-.37-.17-.58-.24-.21-.07-.43-.15-.64-.24-.21-.09-.41-.2-.58-.33-.18-.13-.32-.31-.43-.52-.11-.21-.16-.48-.16-.82,0-.38,.09-.7,.28-.97,.18-.27,.43-.47,.74-.61,.31-.14,.66-.21,1.04-.21,.41,0,.78,.08,1.11,.25,.33,.16,.59,.38,.79,.63l-.7,.71c-.18-.21-.37-.36-.56-.46-.2-.1-.42-.15-.67-.15-.31,0-.56,.06-.73,.19-.18,.13-.26,.31-.26,.54,0,.19,.05,.35,.16,.47,.11,.12,.25,.22,.43,.3,.18,.08,.37,.16,.58,.23,.21,.07,.43,.16,.64,.25,.21,.09,.41,.21,.58,.35,.18,.14,.32,.33,.43,.55,.11,.23,.16,.51,.16,.85,0,.57-.2,1.03-.6,1.36-.4,.34-.94,.5-1.61,.5h0Z"/><path class="cls-3" d="M252.02,79.99c-.5,0-.92-.09-1.27-.27-.35-.18-.66-.45-.93-.81l.7-.71c.17,.26,.38,.46,.62,.6,.24,.14,.55,.22,.92,.22,.35,0,.62-.07,.83-.22,.21-.15,.31-.35,.31-.61,0-.21-.05-.39-.16-.52-.11-.13-.25-.25-.43-.33-.18-.09-.37-.17-.58-.24-.21-.07-.43-.15-.64-.24-.21-.09-.41-.2-.58-.33-.18-.13-.32-.31-.43-.52-.11-.21-.16-.48-.16-.82,0-.38,.09-.7,.27-.97,.18-.27,.43-.47,.74-.61,.31-.14,.66-.21,1.04-.21,.41,0,.78,.08,1.11,.25,.33,.16,.59,.38,.79,.63l-.7,.71c-.18-.21-.37-.36-.56-.46-.2-.1-.42-.15-.67-.15-.31,0-.56,.06-.73,.19-.18,.13-.27,.31-.27,.54,0,.19,.05,.35,.16,.47,.11,.12,.25,.22,.43,.3,.18,.08,.37,.16,.59,.23,.21,.07,.43,.16,.64,.25,.21,.09,.41,.21,.58,.35,.18,.14,.32,.33,.43,.55,.11,.23,.16,.51,.16,.85,0,.57-.2,1.03-.6,1.36-.4,.34-.94,.5-1.61,.5h0Z"/></g></g></g></svg>