<svg width="177" height="104" viewBox="0 0 177 104" fill="none" xmlns="http://www.w3.org/2000/svg">
<path d="M34.9881 15.566C35.2764 15.566 35.4205 15.7103 35.4205 15.9984V72.5344H47.0223L79.3073 0.216273C79.3073 0.0719266 79.4514 -0.00012207 79.7397 -0.00012207C79.8838 -0.00012207 80.0279 0.0719266 80.1723 0.216273L100.85 46.4185C100.56 44.9924 100.356 43.5519 100.238 42.0969C99.8574 37.4243 100.372 32.7554 101.782 28.0903C103.192 23.4254 105.53 19.1705 108.796 15.3261C112.072 11.4703 115.856 8.48598 120.147 6.37191C123.034 4.87344 126.138 3.77088 129.46 3.06473C134.465 2.00076 139.334 1.94234 144.066 2.88887C148.798 3.83527 153.152 5.59906 157.126 8.18001C160.41 10.3128 163.171 13.0986 165.604 16.2242C167.196 18.2015 168.549 20.3161 169.664 22.568C171.805 26.8929 173.068 31.4171 173.452 36.1408C173.837 40.8641 173.322 45.533 171.908 50.1473C171.829 50.4023 171.748 50.6563 171.664 50.9093L170.846 50.2144L170.962 49.8409C172.334 45.3323 172.834 40.7924 172.462 36.2213C172.09 31.65 170.863 27.2506 168.781 23.0232C168.114 21.6686 167.359 20.3658 166.516 19.1146L166.502 19.1177L166.277 18.7975C165.622 17.8771 164.946 16.9796 164.242 16.1122C162.965 14.6061 161.542 13.1861 159.973 11.8527C156.238 8.67999 152.103 6.39613 147.567 5.00124C143.031 3.60634 138.477 3.09479 133.906 3.46686C130.187 3.76942 126.582 4.6383 123.09 6.07287C120.822 7.03303 118.678 8.22638 116.659 9.65365C112.784 12.3928 109.598 15.6856 107.1 19.5325C104.602 23.3788 102.887 27.6112 101.953 32.2304C101.019 36.8495 101.069 41.5907 102.103 46.4549C103.122 51.2483 105.001 55.5826 107.74 59.4576C110.48 63.3328 113.773 66.5193 117.619 69.0171C121.465 71.5149 125.716 73.2268 130.37 74.1532C135.024 75.0794 139.748 75.0331 144.541 74.014C147.502 73.3847 150.349 72.393 153.082 71.0384C155.815 69.684 158.3 68.032 160.538 66.0828C160.79 65.8817 161.044 65.8646 161.3 66.0313C161.501 66.2831 161.476 66.5096 161.224 66.7106C156.44 70.8954 150.947 73.6471 144.744 74.9656C139.809 76.0144 134.955 76.0518 130.18 75.0775C123.826 73.7637 118.299 71.6248 113.011 67.1323C109.166 63.8663 106.172 60.0454 104.026 55.6697C103.791 55.1903 103.567 54.7087 103.353 54.2258C103.238 54.1777 103.159 54.0779 103.095 53.9338L79.7397 1.6214C54.8491 57.3095 72.1141 18.4838 47.8502 73.1831C47.7061 73.3993 47.526 73.5075 47.3099 73.5075H47.2017H47.1954H34.9881H22.7387C22.6252 73.5075 22.5686 73.3632 22.5686 73.0749C22.5686 72.7146 22.6252 72.5344 22.7387 72.5344H34.4477V15.9984C34.4477 15.7103 34.6277 15.566 34.9881 15.566ZM66.0128 -0.00012207C66.3731 -0.00012207 66.5534 0.180127 66.5534 0.540505C66.5534 0.82871 66.3731 0.972813 66.0128 0.972813H3.85577C3.56732 0.972813 3.42334 0.82871 3.42334 0.540505C3.42334 0.180127 3.56732 -0.00012207 3.85577 -0.00012207H66.0128Z" fill="white"/>
<path d="M0 103.061V96.3263H0.774672L3.4985 100.45L6.23463 96.3263H6.99676V103.061H6.17219V97.8029L3.4985 101.786L0.824573 97.8029V103.061H0ZM14.7912 103.061V96.3263H20.0886V97.101H15.6281V99.0751H18.3271V99.8499H15.6281V102.286H20.3636V103.061H14.7912ZM30.3213 97.101H28.2701V102.286H30.3213C31.1501 102.286 31.8039 102.053 32.2787 101.589C32.7557 101.122 32.9932 100.493 32.9932 99.7C32.9932 98.919 32.7516 98.29 32.2662 97.8154C31.7832 97.3385 31.1334 97.101 30.3213 97.101ZM30.3213 96.3263C31.3812 96.3263 32.2352 96.6388 32.8826 97.2655C33.5304 97.8925 33.8551 98.7066 33.8551 99.7123C33.8551 100.724 33.5365 101.536 32.8993 102.147C32.26 102.757 31.4022 103.061 30.3213 103.061H27.4333V96.3263H30.3213ZM41.1622 103.061V96.289H42.0118V103.061H41.1622ZM55.2308 100.912L55.9054 101.412C55.5973 101.997 55.1725 102.448 54.6353 102.763C54.1001 103.077 53.4899 103.236 52.8048 103.236C51.7971 103.236 50.9641 102.902 50.3061 102.238C49.65 101.574 49.3212 100.731 49.3212 99.7082C49.3212 98.6836 49.65 97.8382 50.3082 97.1739C50.9684 96.5096 51.7991 96.1764 52.8027 96.1764C53.4254 96.1764 53.994 96.312 54.5063 96.5846C55.0184 96.8573 55.4348 97.2468 55.7556 97.7508L55.054 98.2505C54.8434 97.8485 54.5373 97.532 54.1398 97.305C53.742 97.078 53.2964 96.9636 52.8048 96.9636C52.0489 96.9636 51.4222 97.2241 50.9265 97.7425C50.431 98.261 50.1831 98.9169 50.1831 99.7082C50.1831 100.502 50.431 101.157 50.9265 101.674C51.4222 102.19 52.0489 102.448 52.8048 102.448C53.3338 102.448 53.8023 102.317 54.2126 102.057C54.6228 101.797 54.9623 101.416 55.2308 100.912ZM64.3872 100.462H67.3525L65.8636 97.48L64.3872 100.462ZM62.2153 103.061L65.5158 96.3263H66.2113L69.5494 103.061H68.6394L67.7253 101.249H64.0039L63.1128 103.061H62.2153ZM76.3942 103.061V96.3263H77.2312V102.286H81.6292V103.061H76.3942ZM97.5844 99.3251H100.558C100.981 99.3251 101.302 99.2314 101.518 99.0438C101.737 98.8586 101.845 98.5837 101.845 98.2213C101.845 97.8695 101.737 97.5926 101.518 97.3968C101.302 97.199 100.995 97.101 100.6 97.101H97.5844V99.3251ZM96.7473 103.061V96.3263H100.612C101.27 96.3263 101.785 96.493 102.159 96.8241C102.532 97.155 102.72 97.6133 102.72 98.1986C102.72 98.6858 102.574 99.1023 102.282 99.45C101.989 99.7977 101.604 100.014 101.125 100.1L102.807 103.061H101.883L100.198 100.112H97.5844V103.061H96.7473ZM110.068 103.061V96.3263H115.366V97.101H110.905V99.0751H113.604V99.8499H110.905V102.286H115.641V103.061H110.068ZM123.885 103.061V97.101H121.049V96.3263H127.558V97.101H124.722V103.061H123.885ZM134.543 99.3251H137.516C137.939 99.3251 138.26 99.2314 138.476 99.0438C138.695 98.8586 138.803 98.5837 138.803 98.2213C138.803 97.8695 138.695 97.5926 138.476 97.3968C138.26 97.199 137.954 97.101 137.558 97.101H134.543V99.3251ZM133.705 103.061V96.3263H137.57C138.228 96.3263 138.743 96.493 139.117 96.8241C139.49 97.155 139.678 97.6133 139.678 98.1986C139.678 98.6858 139.532 99.1023 139.241 99.45C138.947 99.7977 138.562 100.014 138.083 100.1L139.765 103.061H138.841L137.156 100.112H134.543V103.061H133.705ZM147.027 103.061V96.3263H152.324V97.101H147.863V99.0751H150.562V99.8499H147.863V102.286H152.599V103.061H147.027ZM160.828 100.462H163.794L162.305 97.48L160.828 100.462ZM158.656 103.061L161.957 96.3263H162.653L165.991 103.061H165.081L164.166 101.249H160.445L159.554 103.061H158.656ZM173.327 103.061V97.101H170.491V96.3263H177V97.101H174.164V103.061H173.327Z" fill="white"/>
</svg>
