<svg xmlns="http://www.w3.org/2000/svg" xmlns:xlink="http://www.w3.org/1999/xlink" viewBox="0 0 1914.62 1514.77"><defs><clipPath id="a" transform="translate(-42.69 -242.61)"><rect x="-2115.96" y="-2115.96" width="6231.91" height="6231.91" style="fill:none"/></clipPath><clipPath id="b" transform="translate(-42.69 -242.61)"><path d="M988.38,886V542.57h246.31a250.69,250.69,0,0,1,17.3,91.75c0,138.94-113,252-252,252-3.89,0-7.77-.1-11.62-.28M748,634.32c0-127.8,95.64-233.68,219.1-249.84V884.16C843.65,868,748,762.12,748,634.32M988.38,382.61c3.85-.18,7.73-.28,11.62-.28,98.33,0,183.68,56.63,225.18,139H988.38Zm-21.27-140V363.05c-135.22,16.3-240.36,131.73-240.36,271.27s105.14,255,240.36,271.26v44.77c0,1.62.16,40.11,14,79.21,19.11,54.14,54.9,82.77,103.5,82.77v-21.27c-39.18,0-67.2-22.92-83.29-68.13-12.7-35.7-12.9-72.22-12.9-72.58v-43c3.85.16,7.73.26,11.62.26,150.67,0,273.25-122.58,273.25-273.25S1150.67,361.06,1000,361.06c-3.89,0-7.77.1-11.62.27V242.61Z" style="fill:none"/></clipPath><linearGradient id="c" x1="-1.06" y1="2001.25" x2="2.06" y2="2001.25" gradientTransform="matrix(175.39, 0, 0, -175.39, 869.61, 351433.3)" gradientUnits="userSpaceOnUse"><stop offset="0" stop-color="#d3b9b4"/><stop offset="1" stop-color="#63524f"/></linearGradient></defs><title>logoMenu</title><polygon points="65.92 1098.34 0 1098.34 0 1077.87 153.99 1077.87 153.99 1098.34 88.07 1098.34 88.07 1274.21 65.92 1274.21 65.92 1098.34" style="fill:#50403c"/><g style="clip-path:url(#a)"><path d="M308.59,1320.48H393q18.24,0,32.4,5.19a63.41,63.41,0,0,1,23.42,14.45,50.36,50.36,0,0,1,11.22,17.11,57.56,57.56,0,0,1,3.93,21.59v.57a58.09,58.09,0,0,1-3.93,22A50.27,50.27,0,0,1,449,1418.23,60,60,0,0,1,432,1430a82.45,82.45,0,0,1-21.32,6.59L471,1516.83H443.79l-56.94-76.3h-56.1v76.3H308.59Zm82.62,100.14a69.75,69.75,0,0,0,20.25-2.81,49.47,49.47,0,0,0,16-8,35.91,35.91,0,0,0,14.34-29.59v-.57q0-18.23-13.22-28.46T391.49,1341H330.75v79.66Z" transform="translate(-42.69 -242.61)" style="fill:#50403c"/><rect x="540.78" y="1077.87" width="22.16" height="196.35" style="fill:#50403c"/><polygon points="690.56 1077.87 831.65 1077.87 831.65 1098.34 712.72 1098.34 712.72 1168.75 819.03 1168.75 819.03 1188.66 712.72 1188.66 712.72 1274.21 690.56 1274.21 690.56 1077.87" style="fill:#50403c"/><polygon points="944.68 1077.87 1086.61 1077.87 1086.61 1097.78 966.84 1097.78 966.84 1165.38 1073.99 1165.38 1073.99 1185.3 966.84 1185.3 966.84 1254.3 1088.02 1254.3 1088.02 1274.21 944.68 1274.21 944.68 1077.87" style="fill:#50403c"/><path d="M1335.18,1520.19a96.49,96.49,0,0,1-70.4-29.31,98.14,98.14,0,0,1-20.62-32.12,105.21,105.21,0,0,1-7.43-39.54v-.57a104.44,104.44,0,0,1,7.43-39.26,101.44,101.44,0,0,1,20.62-32.4,95.89,95.89,0,0,1,31.41-21.88,98.12,98.12,0,0,1,39.84-8,119.43,119.43,0,0,1,24.26,2.25,101.07,101.07,0,0,1,20,6.31,90.39,90.39,0,0,1,17.11,9.82,148.62,148.62,0,0,1,15.15,12.76l-15.15,16.27a124.31,124.31,0,0,0-27.06-19.36q-14.46-7.56-34.64-7.57a73.21,73.21,0,0,0-54.28,23.28,79.21,79.21,0,0,0-16,25.67,85.79,85.79,0,0,0-5.75,31.55v.56a86.64,86.64,0,0,0,5.75,31.84,79.16,79.16,0,0,0,16,25.66,75.11,75.11,0,0,0,24.12,17.25,72,72,0,0,0,30.16,6.32q20.19,0,34.78-7.44a121.11,121.11,0,0,0,28.6-20.89l14.59,14.3a139.55,139.55,0,0,1-15.85,14.17,97.68,97.68,0,0,1-17.81,10.79,101.57,101.57,0,0,1-20.47,7,109,109,0,0,1-24.41,2.52" transform="translate(-42.69 -242.61)" style="fill:#50403c"/><polygon points="1531.75 1098.34 1465.84 1098.34 1465.84 1077.87 1619.83 1077.87 1619.83 1098.34 1553.91 1098.34 1553.91 1274.21 1531.75 1274.21 1531.75 1098.34" style="fill:#50403c"/><path d="M1847.08,1319.08h20.75l89.48,197.75h-23.84l-23-51.89H1803.6l-23.28,51.89H1757.6ZM1901.77,1445l-44.59-100.14L1812.3,1445Z" transform="translate(-42.69 -242.61)" style="fill:#50403c"/><polygon points="477.45 1408.27 497.1 1408.27 529.05 1457.92 561 1408.27 580.65 1408.27 580.65 1513.27 562.35 1513.27 562.35 1437.97 529.2 1487.47 528.6 1487.47 495.75 1438.27 495.75 1513.27 477.45 1513.27 477.45 1408.27" style="fill:#ad9697"/><polygon points="652.65 1408.27 730.36 1408.27 730.36 1424.92 670.95 1424.92 670.95 1451.92 723.61 1451.92 723.61 1468.57 670.95 1468.57 670.95 1496.62 731.11 1496.62 731.11 1513.27 652.65 1513.27 652.65 1408.27" style="fill:#ad9697"/><path d="M840.84,1650.89H880a62.08,62.08,0,0,1,22.57,4,53.16,53.16,0,0,1,17.7,11,49.09,49.09,0,0,1,11.48,16.57,52.13,52.13,0,0,1,4,20.62v.3a52.72,52.72,0,0,1-4,20.71,48.92,48.92,0,0,1-11.48,16.65,54.3,54.3,0,0,1-17.7,11.1,61.06,61.06,0,0,1-22.57,4.05H840.84Zm39,88.35a40.87,40.87,0,0,0,15-2.64,32.57,32.57,0,0,0,11.47-7.38,33.38,33.38,0,0,0,7.35-11.3,37.92,37.92,0,0,0,2.63-14.23v-.31a38.43,38.43,0,0,0-2.63-14.3,33.19,33.19,0,0,0-7.35-11.37,33.6,33.6,0,0,0-11.47-7.46,39.86,39.86,0,0,0-15-2.71H859.14v71.7Z" transform="translate(-42.69 -242.61)" style="fill:#ad9697"/><path d="M1130.05,1757.39a66.21,66.21,0,0,1-23.25-4.13,63.46,63.46,0,0,1-20.55-12.67l11.1-13.2a64.47,64.47,0,0,0,15.45,10.12,42.54,42.54,0,0,0,17.7,3.53q8.55,0,13.58-3.6a11.26,11.26,0,0,0,5-9.6v-.3a12,12,0,0,0-1-5,11,11,0,0,0-3.6-4.13,28.88,28.88,0,0,0-7.23-3.59,102.35,102.35,0,0,0-12-3.3,117.31,117.31,0,0,1-15-4.43,40.57,40.57,0,0,1-11-6,23.12,23.12,0,0,1-6.77-8.62,29.35,29.35,0,0,1-2.33-12.3v-.31a28.31,28.31,0,0,1,10-22,34.37,34.37,0,0,1,11.27-6.23,44.26,44.26,0,0,1,14.39-2.24,60.09,60.09,0,0,1,20.77,3.37,61.67,61.67,0,0,1,17.33,9.82l-9.9,14a64.39,64.39,0,0,0-14.25-8,38.63,38.63,0,0,0-14.25-2.78c-5.4,0-9.6,1.21-12.6,3.6a11,11,0,0,0-4.5,8.86v.3a12.79,12.79,0,0,0,1.05,5.32,10.34,10.34,0,0,0,3.84,4.2,32.13,32.13,0,0,0,7.67,3.52q4.88,1.67,12.4,3.46a118.73,118.73,0,0,1,14.67,4.65,36.43,36.43,0,0,1,10.59,6.22,24.66,24.66,0,0,1,6.4,8.55,27.59,27.59,0,0,1,2.18,11.33v.29a30.72,30.72,0,0,1-2.75,13.21,28.56,28.56,0,0,1-7.66,9.9,33.86,33.86,0,0,1-11.8,6.15,51.74,51.74,0,0,1-15.14,2.1" transform="translate(-42.69 -242.61)" style="fill:#ad9697"/><path d="M1234.15,1650.89h41.4a52.25,52.25,0,0,1,16.58,2.47,35.26,35.26,0,0,1,12.6,7.13,31.58,31.58,0,0,1,8,11.1,36.07,36.07,0,0,1,2.78,14.39v.31a34.49,34.49,0,0,1-3.32,15.52,32.16,32.16,0,0,1-9,11.17,40.29,40.29,0,0,1-13.38,6.83,56.22,56.22,0,0,1-16.39,2.33h-20.9v33.75h-18.3Zm39.83,54.6q10.53,0,16.63-5.28a17.1,17.1,0,0,0,6.09-13.55v-.3q0-9.33-6.17-14.08t-16.55-4.75h-21.53v38Z" transform="translate(-42.69 -242.61)" style="fill:#ad9697"/><path d="M1416.56,1650.13h17.1l46.2,105.76h-19.5l-10.65-25.35h-49.66l-10.79,25.35h-18.9Zm26.4,64.06-18.15-42-18,42Z" transform="translate(-42.69 -242.61)" style="fill:#ad9697"/></g><g style="clip-path:url(#b)"><rect x="684.06" width="546.51" height="869.71" style="fill:url(#c)"/></g></svg>