<svg xmlns="http://www.w3.org/2000/svg" viewBox="0 0 808.87 334"><defs><style>.a,.b{fill:#fff;}.b{stroke:#b2d8cb;stroke-miterlimit:10;stroke-width:0.89px;}</style></defs><path class="a" d="M31.52,194.35,53.23,264.8c1.11,3.45,1.78,4.56,2.78,4.56s1.67-1.11,2.78-4.56l23.27-70.45h4.56L62.24,268.14c-1.44,4.56-3.45,5.45-6.23,5.45s-4.9-.89-6.34-5.45L27,194.35Z" transform="translate(-25.55 -55)"></path><path class="a" d="M28.37,195.39l22.29,72.44c1.39,4.38,3.17,4.72,5.35,4.72s3.85-.34,5.24-4.72l23.93-72.44H82.81l-23,69.74c-1,3.08-1.85,5.27-3.77,5.27s-2.77-2.19-3.77-5.28L30.76,195.39ZM56,274.63c-3.23,0-5.71-1.05-7.33-6.18L25.55,193.31h6.74l.23.73,21.7,70.46c1.07,3.33,1.58,3.82,1.79,3.82s.72-.49,1.8-3.84l23.5-71.17h6.75L63.23,268.47c-1.39,4.37-3.48,6.16-7.22,6.16" transform="translate(-25.55 -55)"></path><path class="a" d="M134.92,234.19H92.18c0,22.93,19.81,34.06,35.62,34.06h7.12v4H126c-19.37,0-38.52-13.8-38.52-39s19.15-39,38.52-39h8.9v4h-8.68c-19.81,0-34.06,16.7-34.06,31.84h42.74Z" transform="translate(-25.55 -55)"></path><path class="a" d="M126,195.39c-18.63,0-37.48,13-37.48,37.91s18.85,37.92,37.48,37.92h7.86v-1.93H127.8c-15.23,0-36.66-10.89-36.66-35.1v-1h42.74v-1.92H91.14v-1c0-15.55,14.41-32.88,35.1-32.88h7.64v-1.92ZM136,273.3H126c-19.66,0-39.56-13.74-39.56-40s19.9-40,39.56-40H136v6.08h-9.72c-19,0-32.37,15.47-33,29.76H136v6.08H93.23c.61,22,20.43,32,34.57,32H136Z" transform="translate(-25.55 -55)"></path><path class="a" d="M147.83,272.26v-73c0-2.89,1.33-6.23,5.78-6.23,3,0,4.79.67,6.68,4.68l32.61,69.67a2.4,2.4,0,0,0,1.9,1.56c.77,0,1.22-.67,1.22-2.12V193h4.67v75c0,3.78-1.78,5.56-5.67,5.56-4.23,0-6.12-3.11-7.13-5.34L157,201.58c-1.55-3.34-2.22-4.34-3.11-4.34s-1.34.56-1.34,2v73Z" transform="translate(-25.55 -55)"></path><path class="a" d="M153.84,196.2c1.58,0,2.45,1.51,4,4.94l31,66.67c.92,2,2.55,4.74,6.18,4.74,3.29,0,4.63-1.31,4.63-4.52v-74h-2.59V266.8c0,2.85-1.58,3.16-2.26,3.16a3.34,3.34,0,0,1-2.83-2.13l-32.62-69.7c-1.73-3.68-3.14-4.08-5.74-4.08-4.13,0-4.74,3.25-4.74,5.19v72h2.59v-72c0-2.82,1.82-3,2.38-3M195,274.63c-5.39,0-7.41-4.48-8.07-5.95L156,202c-.42-.9-1.69-3.62-2.16-3.74-.29,0-.31.74-.31,1V273.3h-6.75V199.24c0-3.51,1.79-7.27,6.82-7.27,3.33,0,5.53.84,7.62,5.27l32.61,69.68c.33.65.72,1,1,1h0a2,2,0,0,0,.18-1.08V192h6.75V268c0,4.38-2.26,6.6-6.71,6.6" transform="translate(-25.55 -55)"></path><path class="a" d="M220.05,194.35v53.87c0,13.13,8.91,21.14,22.15,21.14s22.15-8,22.15-21.14V194.35H269v52.42c0,16.92-10.58,26.82-26.83,26.82s-26.82-9.9-26.82-26.82V194.35Z" transform="translate(-25.55 -55)"></path><path class="a" d="M216.42,195.39v51.38c0,15.9,9.88,25.78,25.78,25.78S268,262.67,268,246.77V195.39h-2.6v52.83c0,13.48-9.1,22.18-23.19,22.18S219,261.7,219,248.22V195.39Zm25.78,79.24c-17.18,0-27.86-10.67-27.86-27.86V193.31h6.75v54.91c0,12.4,8.09,20.1,21.11,20.1s21.11-7.7,21.11-20.1V193.31h6.76v53.46c0,17.19-10.68,27.86-27.87,27.86" transform="translate(-25.55 -55)"></path><path class="a" d="M328.9,198.58H303.08c-12.91,0-17.14,5.34-17.14,13.69,0,23.93,47.41,10.79,47.41,40.29,0,13-9.13,19.7-24.26,19.7H281V268h27.38c12.69,0,20-5.23,20-14.8,0-26.38-47.41-11.36-47.41-41.41,0-11.91,9.13-17.47,20.26-17.47h27.6Z" transform="translate(-25.55 -55)"></path><path class="a" d="M282.08,271.22h27c15,0,23.22-6.63,23.22-18.66,0-14.73-12.61-18.31-24.8-21.76-11.12-3.15-22.61-6.41-22.61-18.53,0-9.92,6-14.73,18.18-14.73h24.78v-2.15H301.3c-9.29,0-19.22,4.31-19.22,16.43,0,14.73,11.71,18,24.1,21.4,11.46,3.17,23.31,6.45,23.31,20,0,10.06-7.68,15.84-21.07,15.84H282.08Zm27,2.08H280V267h28.42c12.25,0,19-4.89,19-13.76,0-12-10.58-14.9-21.78-18-12-3.32-25.63-7.1-25.63-23.4,0-11.42,8.16-18.51,21.3-18.51h28.64v6.31H303.08c-11.14,0-16.1,3.9-16.1,12.65,0,10.55,9.77,13.32,21.09,16.53,12.34,3.49,26.32,7.45,26.32,23.76,0,13.18-9.22,20.74-25.3,20.74" transform="translate(-25.55 -55)"></path><path class="a" d="M422.05,272.26,431.73,201c.67-4.67,1.67-8,5.79-8s5,.89,7.57,9.35l18.7,63.33c.44,1.34,1,2.56,1.55,2.56s1-1.22,1.34-2.56l18.7-63.33c2.56-8.46,3.34-9.35,7.56-9.35s5.13,3.34,5.79,8l9.69,71.24h-4.68l-9.68-71.57c-.33-2-.67-3.23-1.56-3.23s-1.44,1.23-2,3.23l-18.7,63.89c-2.23,7.34-2.79,8.57-6.57,8.57s-4.34-1.23-6.56-8.57L440,200.69c-.56-2-1-3.23-2-3.23s-1.22,1.23-1.55,3.23l-9.69,71.57Z" transform="translate(-25.55 -55)"></path><path class="a" d="M438,196.42c1.9,0,2.49,2.12,3,4l18.69,63.88c2.3,7.57,2.69,7.82,5.57,7.82s3.28-.25,5.57-7.83l18.7-63.88c.52-1.86,1.11-4,3-4s2.3,2.37,2.58,4.1l9.57,70.7h2.58l-9.52-70.05c-.77-5.39-1.93-7.12-4.77-7.12-3.36,0-4,0-6.57,8.61L467.67,266c-.42,1.7-1,3.31-2.33,3.31s-2-1.57-2.54-3.27l-18.71-63.37c-2.6-8.6-3.21-8.6-6.57-8.6-2.84,0-4,1.73-4.76,7.12l-9.52,70.05h2.57l9.57-70.67c.29-1.76.69-4.13,2.58-4.13m27.27,77.77c-4.74,0-5.45-2.35-7.56-9.31L439,201c-.16-.58-.64-2.32-1-2.48a11.12,11.12,0,0,0-.55,2.36l-9.8,72.44h-6.77l.16-1.18,9.68-71.24c.65-4.51,1.7-8.91,6.82-8.91s6,1.66,8.56,10.09l18.7,63.34a11,11,0,0,0,.51,1.3,10.23,10.23,0,0,0,.38-1.26l18.71-63.37c2.56-8.44,3.5-10.1,8.56-10.1s6.18,4.4,6.82,8.91l9.85,72.42h-6.78l-.12-.9L493,200.83c-.29-1.73-.51-2.25-.65-2.37a11.51,11.51,0,0,0-.88,2.51l-18.7,63.9c-2.24,7.39-3,9.32-7.57,9.32" transform="translate(-25.55 -55)"></path><path class="a" d="M561.94,234.19H519.2c0,22.93,19.82,34.06,35.62,34.06h7.12v4H553c-19.36,0-38.51-13.8-38.51-39s19.15-39,38.51-39h8.9v4h-8.68c-19.81,0-34.06,16.7-34.06,31.84h42.74Z" transform="translate(-25.55 -55)"></path><path class="a" d="M553,195.39c-18.62,0-37.47,13-37.47,37.91s18.85,37.92,37.47,37.92h7.86v-1.93h-6.08c-15.22,0-36.66-10.89-36.66-35.1v-1H560.9v-1.92H518.16v-1c0-15.55,14.42-32.88,35.1-32.88h7.64v-1.92ZM563,273.3H553c-19.65,0-39.55-13.74-39.55-40s19.9-40,39.55-40H563v6.08h-9.72c-19,0-32.37,15.47-33,29.76H563v6.08H520.25c.61,22,20.43,32,34.57,32H563Z" transform="translate(-25.55 -55)"></path><path class="a" d="M574.41,272.26V194.35h16.91c20.71,0,39.52,15.8,39.52,39,0,23.6-16.36,39-36.62,39H583V268h10.8c20.26,0,32.17-16.7,32.17-34.73,0-19.36-15.25-34.72-36.4-34.72H579.08v73.68Z" transform="translate(-25.55 -55)"></path><path class="a" d="M584,271.22h10.21c20.61,0,35.58-16,35.58-37.92,0-23.73-19.56-37.91-38.48-37.91H575.45v75.83H578V197.54h11.5c21.34,0,37.44,15.37,37.44,35.76,0,23.48-16.71,35.77-33.21,35.77H584Zm10.21,2.08H581.93V267h11.84c20.44,0,31.13-17,31.13-33.69,0-19.2-15.2-33.68-35.36-33.68h-9.42V273.3h-6.75v-80h18c19.94,0,40.56,15,40.56,40,0,23.17-15.84,40-37.66,40" transform="translate(-25.55 -55)"></path><path class="a" d="M707.74,198.58H681.92c-12.91,0-17.14,5.34-17.14,13.69,0,23.93,47.41,10.79,47.41,40.29,0,13-9.13,19.7-24.26,19.7h-28V268h27.38c12.69,0,20-5.23,20-14.8,0-26.38-47.41-11.36-47.41-41.41,0-11.91,9.13-17.47,20.26-17.47h27.6Z" transform="translate(-25.55 -55)"></path><path class="a" d="M660.92,271.22h27c15,0,23.22-6.63,23.22-18.66,0-14.73-12.61-18.31-24.81-21.76-11.11-3.15-22.6-6.41-22.6-18.53,0-9.92,5.94-14.73,18.18-14.73H706.7v-2.15H680.14c-9.29,0-19.22,4.31-19.22,16.43,0,14.73,11.7,18,24.1,21.4,11.46,3.17,23.31,6.45,23.31,20,0,10.06-7.68,15.84-21.07,15.84H660.92Zm27,2.08H658.84V267h28.42c12.25,0,19-4.89,19-13.76,0-12-10.58-14.9-21.78-18-12-3.32-25.63-7.1-25.63-23.4,0-11.42,8.16-18.51,21.3-18.51h28.64v6.31H681.92c-11.14,0-16.1,3.9-16.1,12.65,0,10.55,9.77,13.32,21.09,16.53,12.34,3.49,26.32,7.45,26.32,23.76,0,13.18-9.22,20.74-25.3,20.74" transform="translate(-25.55 -55)"></path><path class="a" d="M723.65,272.26V215.94c0-12.24,8.46-22.93,23.93-22.93,13.46,0,23.93,8.68,23.93,23.93S761,240.87,747.58,240.87H732.44v-4.23h15.14c11,0,19-7.34,19-19.7s-8-19.7-19-19.7c-11.24,0-19.25,8.24-19.25,18.25v56.77Z" transform="translate(-25.55 -55)"></path><path class="a" d="M724.69,271.22h2.6V215.49c0-11,8.72-19.29,20.29-19.29,12,0,20.07,8.34,20.07,20.74s-8.07,20.74-20.07,20.74h-14.1v2.15h14.1c13.69,0,22.89-9.2,22.89-22.89s-9.2-22.89-22.89-22.89c-11,0-22.89,6.85-22.89,21.89Zm4.67,2.08h-6.75V215.94c0-11.54,7.81-24,25-24,14.93,0,25,10,25,25s-10,25-25,25H731.4V235.6h16.18c10.93,0,18-7.32,18-18.66s-7.06-18.66-18-18.66c-10.39,0-18.22,7.4-18.22,17.21Z" transform="translate(-25.55 -55)"></path><path class="a" d="M833.39,272.26h-4.68V234.19H788.87v-4h39.84v-11.8c0-13.13-8.9-21.15-22.14-21.15s-22.16,8-22.16,21.15v53.87h-4.67V219.83c0-16.91,10.57-26.82,26.83-26.82s26.82,9.91,26.82,26.82Z" transform="translate(-25.55 -55)"></path><path class="a" d="M829.75,271.22h2.6V219.84c0-15.91-9.88-25.79-25.78-25.79s-25.79,9.88-25.79,25.79v51.38h2.59V218.39c0-13.48,9.11-22.19,23.2-22.19s23.18,8.71,23.18,22.19v12.84H789.91v1.92h39.84Zm4.68,2.08h-6.76V235.23H787.83v-6.08h39.84V218.39c0-12.4-8.08-20.11-21.1-20.11s-21.12,7.71-21.12,20.11V273.3H778.7V219.84c0-17.19,10.68-27.87,27.87-27.87s27.86,10.68,27.86,27.87Z" transform="translate(-25.55 -55)"></path><path class="a" d="M484.29,106.43,482,117.86h15q16.9,0,16.89,7.1c0,9.22-7.67,27.43-22.92,54.48H507.9L547,117.86h15.55L565,106.43Z" transform="translate(-25.55 -55)"></path><path class="b" d="M484.29,106.43,482,117.86h15q16.9,0,16.89,7.1c0,9.22-7.67,27.43-22.92,54.48H507.9L547,117.86h15.55L565,106.43Z" transform="translate(-25.55 -55)"></path><path class="a" d="M190.75,120.1l9.53,5.05Q228.42,78.5,265,78.49q40.47,0,68.4,59.4,26.41,56.45,26.41,201.64l-1.12,48.9,19.7-4.67,60.87-96H423.43L399.3,325.48q0-270-117.67-270-49.26,0-90.88,64.65" transform="translate(-25.55 -55)"></path><path class="a" d="M190.75,120.1l9.53,5.05Q228.42,78.5,265,78.49q40.47,0,68.4,59.4,26.41,56.45,26.41,201.64l-1.12,48.9,19.7-4.67,60.87-96H423.43L399.3,325.48q0-270-117.67-270-49.26,0-90.88,64.65" transform="translate(-25.55 -55)"></path><path class="b" d="M190.75,120.1l9.53,5.05Q228.42,78.5,265,78.49q40.47,0,68.4,59.4,26.41,56.45,26.41,201.64l-1.12,48.9,19.7-4.67,60.87-96H423.43L399.3,325.48q0-270-117.67-270Q232.37,55.45,190.75,120.1Z" transform="translate(-25.55 -55)"></path></svg>