<svg xmlns="http://www.w3.org/2000/svg" id="Layer_1" data-name="Layer 1" width="135.46" height="78.63" viewBox="0 0 135.46 78.63"><g id="Group_1" data-name="Group 1"><path id="Path_1" data-name="Path 1" d="M8.357.727H9.762a.362.362,0,0,0,.361-.366A.358.358,0,0,0,9.762,0H.361A.364.364,0,0,0,0,.361.368.368,0,0,0,.361.727H1.68A2.318,2.318,0,0,1,3.9,2.368l6.884,22.465H14.22L7.278,2.185A1.125,1.125,0,0,1,8.357.727Z" fill="#ebe5df"></path><path id="Path_2" data-name="Path 2" d="M46.6,119.332,39.452,96.01H36.02l8.862,28.925.168.558h.375l1.531-5,7.5-24.487h-.712Z" transform="translate(-18.681 -46.864)" fill="#ebe5df"></path><path id="Path_3" data-name="Path 3" d="M117.712,123.554H116.2a1.344,1.344,0,0,1-1.343-1.343V96.01h-3.3v26.2a1.339,1.339,0,0,1-1.338,1.343h-1.9a.361.361,0,0,0,0,.722h9.4a.361.361,0,1,0,0-.722Z" transform="translate(-53.806 -46.864)" fill="#ebe5df"></path><path id="Path_4" data-name="Path 4" d="M106.561,0H91a.364.364,0,0,0-.361.361A.368.368,0,0,0,91,.727h1.309a1.13,1.13,0,0,1,1.083,1.459L86.45,24.834h.712L93.988,2.556A2.587,2.587,0,0,1,96.462.727h2.051A1.884,1.884,0,0,1,100.4,2.614v22.22h3.3V2.58A1.851,1.851,0,0,1,105.555.727h1.006a.366.366,0,0,0,.366-.366A.362.362,0,0,0,106.561,0Z" transform="translate(-42.925)" fill="#ebe5df"></path><path id="Path_5" data-name="Path 5" d="M145.2,123.554h-1.521a1.344,1.344,0,0,1-1.343-1.343V96.01h-3.3v26.2a1.344,1.344,0,0,1-1.343,1.343h-1.9a.361.361,0,1,0,0,.722h9.4a.361.361,0,0,0,0-.722Z" transform="translate(-67.503 -46.864)" fill="#ebe5df"></path><path id="Path_6" data-name="Path 6" d="M152.976.727h1.507a.362.362,0,0,0,.361-.366A.358.358,0,0,0,154.482,0H135.8a.365.365,0,0,0-.366.361.369.369,0,0,0,.366.366H137.9a1.129,1.129,0,0,1,1.131,1.126v22.98h3.3V2.455A1.731,1.731,0,0,1,144.066.727h2.883a1.584,1.584,0,0,1,1.512,1.117l7.047,22.99h3.432l-6.97-22.74A1.055,1.055,0,0,1,152.976.727Z" transform="translate(-67.16)" fill="#ebe5df"></path><path id="Path_7" data-name="Path 7" d="M201.33,119.332,194.182,96.01H190.75l8.862,28.925.168.558h.375l1.531-5,7.5-24.487h-.712Z" transform="translate(-94.79 -46.864)" fill="#ebe5df"></path><path id="Path_8" data-name="Path 8" d="M255.13,0h-9.4a.364.364,0,0,0-.361.361.368.368,0,0,0,.361.366h1.762a.8.8,0,0,1,.761,1.03L241.18,24.834h.712l6.879-22.451A2.35,2.35,0,0,1,251.014.727h4.116A.366.366,0,0,0,255.5.361.362.362,0,0,0,255.13,0Z" transform="translate(-120.036)" fill="#ebe5df"></path><path id="Path_9" data-name="Path 9" d="M9.46,71.782c-.072.274-.14.539-.2.789s-.111.486-.154.717-.082.457-.116.679c-.029-.159-.058-.318-.091-.491s-.067-.347-.111-.534-.087-.375-.14-.573-.111-.4-.173-.6L6.6,65.37H5.547L3.722,71.729c-.048.193-.1.385-.154.582s-.106.385-.144.573-.077.371-.111.544-.063.351-.091.525c-.029-.164-.053-.332-.082-.505s-.063-.347-.106-.525-.087-.366-.13-.554-.091-.385-.14-.587L1.094,65.37H.04l2.638,9.868H3.7l1.964-6.922c.058-.183.106-.361.144-.53s.082-.332.116-.481.067-.289.091-.414.039-.221.048-.3c.019.072.043.173.067.3s.063.274.106.433.087.327.14.505.1.351.144.525l2,6.884h1.02l2.652-9.868H11.131L9.46,71.787Z" transform="translate(-0.021 -32.502)" fill="#ebe5df"></path><path id="Path_10" data-name="Path 10" d="M38.679,74.338H34.8V66.265h3.88v-.9H33.22v9.863h5.459Z" transform="translate(-17.229 -32.503)" fill="#ebe5df"></path><path id="Path_11" data-name="Path 11" d="M58.633,74.323H54.156V65.37H53.15v9.863h5.483Z" transform="translate(-26.532 -32.503)" fill="#ebe5df"></path><path id="Path_12" data-name="Path 12" d="M73.071,65.37H72.06v9.863h5.488v-.91H73.071Z" transform="translate(-35.971 -32.503)" fill="#ebe5df"></path><path id="Path_13" data-name="Path 13" d="M97.575,71.29c0,.274,0,.573.014.891s.019.616.034.9.024.505.034.669H97.6l-5.488-8.39H90.98v9.868h.939V69.341c0-.313,0-.621-.014-.919s-.019-.587-.034-.862-.024-.525-.034-.746h.043l5.5,8.414h1.146V65.36h-.953Z" transform="translate(-45.386 -32.497)" fill="#ebe5df"></path><path id="Path_14" data-name="Path 14" d="M121.819,66.265v-.9H116.36v9.863h5.459v-.9h-4.226V66.265Z" transform="translate(-58.085 -32.503)" fill="#ebe5df"></path><path id="Path_15" data-name="Path 15" d="M136.572,75.18a9.409,9.409,0,0,0,1.078.058,4.8,4.8,0,0,0,1.81-.318A2.7,2.7,0,0,0,140.683,74a2.51,2.51,0,0,0,.438-1.492,2.372,2.372,0,0,0-.322-1.29,2.66,2.66,0,0,0-.948-.857,8.962,8.962,0,0,0-1.492-.655,12.666,12.666,0,0,1-1.271-.544,1.905,1.905,0,0,1-.746-.621,1.616,1.616,0,0,1-.25-.919,1.479,1.479,0,0,1,.255-.871,1.616,1.616,0,0,1,.727-.554A2.924,2.924,0,0,1,138.194,66a5.306,5.306,0,0,1,1.218.14,6.926,6.926,0,0,1,1.146.371l.318-.871a6.732,6.732,0,0,0-1.223-.395,6.66,6.66,0,0,0-1.43-.144,4.184,4.184,0,0,0-1.622.3,2.561,2.561,0,0,0-1.122.857,2.217,2.217,0,0,0-.409,1.348,2.781,2.781,0,0,0,.173,1.03,2.258,2.258,0,0,0,.505.765,3.3,3.3,0,0,0,.814.587,8.98,8.98,0,0,0,1.107.477,10.048,10.048,0,0,1,1.415.587,2.123,2.123,0,0,1,.775.64,1.775,1.775,0,0,1-.048,1.863,1.837,1.837,0,0,1-.828.6,3.563,3.563,0,0,1-1.285.207,7.049,7.049,0,0,1-1.521-.164,6.874,6.874,0,0,1-1.227-.385v.982a5.433,5.433,0,0,0,.732.241,6.923,6.923,0,0,0,.9.159Z" transform="translate(-67.35 -32.362)" fill="#ebe5df"></path><path id="Path_16" data-name="Path 16" d="M159.57,70.337a8.963,8.963,0,0,0-1.492-.655,12.666,12.666,0,0,1-1.271-.544,1.905,1.905,0,0,1-.746-.621,1.617,1.617,0,0,1-.25-.919,1.478,1.478,0,0,1,.255-.871,1.615,1.615,0,0,1,.727-.554,2.924,2.924,0,0,1,1.122-.193,5.305,5.305,0,0,1,1.218.14,6.925,6.925,0,0,1,1.146.371l.318-.871a6.732,6.732,0,0,0-1.223-.395,6.659,6.659,0,0,0-1.43-.144,4.184,4.184,0,0,0-1.622.3,2.561,2.561,0,0,0-1.122.857,2.217,2.217,0,0,0-.409,1.348,2.78,2.78,0,0,0,.173,1.03,2.257,2.257,0,0,0,.505.765,3.3,3.3,0,0,0,.814.587,8.981,8.981,0,0,0,1.107.477,10.05,10.05,0,0,1,1.415.587,2.123,2.123,0,0,1,.775.64,1.775,1.775,0,0,1-.048,1.863,1.837,1.837,0,0,1-.828.6,3.563,3.563,0,0,1-1.285.207,7.049,7.049,0,0,1-1.521-.164,6.876,6.876,0,0,1-1.228-.385v.982a5.432,5.432,0,0,0,.732.241,6.926,6.926,0,0,0,.9.159,9.412,9.412,0,0,0,1.078.058,4.8,4.8,0,0,0,1.81-.318,2.7,2.7,0,0,0,1.223-.924,2.51,2.51,0,0,0,.438-1.492,2.372,2.372,0,0,0-.322-1.29,2.66,2.66,0,0,0-.948-.857Z" transform="translate(-77.192 -32.352)" fill="#ebe5df"></path><path id="Path_17" data-name="Path 17" d="M193.569,75.233h1.02V65.37h-1.02v4.255h-5.348V65.37H187.21v9.863h1.011V70.521h5.348Z" transform="translate(-93.396 -32.503)" fill="#ebe5df"></path><path id="Path_18" data-name="Path 18" d="M240.428,71.782a3.2,3.2,0,0,1-.3,1.439,2.157,2.157,0,0,1-.9.939,3.128,3.128,0,0,1-1.526.332,2.746,2.746,0,0,1-2.06-.712,2.789,2.789,0,0,1-.693-2.027V65.37h-1.02v6.359a3.374,3.374,0,0,0,3.721,3.649,4.348,4.348,0,0,0,2.094-.457A3.04,3.04,0,0,0,241,73.649a4.031,4.031,0,0,0,.428-1.892V65.375h-1v6.412Z" transform="translate(-116.271 -32.499)" fill="#ebe5df"></path><path id="Path_19" data-name="Path 19" d="M262.58,70.337a8.962,8.962,0,0,0-1.492-.655,12.663,12.663,0,0,1-1.271-.544,1.906,1.906,0,0,1-.746-.621,1.616,1.616,0,0,1-.25-.919,1.478,1.478,0,0,1,.255-.871,1.615,1.615,0,0,1,.727-.554,2.924,2.924,0,0,1,1.122-.193,5.3,5.3,0,0,1,1.218.14,6.924,6.924,0,0,1,1.146.371l.318-.871a6.732,6.732,0,0,0-1.223-.395,6.659,6.659,0,0,0-1.43-.144,4.184,4.184,0,0,0-1.622.3,2.56,2.56,0,0,0-1.122.857,2.217,2.217,0,0,0-.409,1.348,2.78,2.78,0,0,0,.173,1.03,2.258,2.258,0,0,0,.505.765,3.3,3.3,0,0,0,.814.587,8.981,8.981,0,0,0,1.107.477,10.048,10.048,0,0,1,1.415.587,2.123,2.123,0,0,1,.775.64,1.775,1.775,0,0,1-.048,1.863,1.837,1.837,0,0,1-.828.6,3.563,3.563,0,0,1-1.285.207,7.05,7.05,0,0,1-1.521-.164,6.875,6.875,0,0,1-1.227-.385v.982a5.431,5.431,0,0,0,.732.241,6.927,6.927,0,0,0,.9.159,9.414,9.414,0,0,0,1.078.058,4.8,4.8,0,0,0,1.81-.318,2.7,2.7,0,0,0,1.223-.924,2.51,2.51,0,0,0,.438-1.492,2.372,2.372,0,0,0-.323-1.29,2.659,2.659,0,0,0-.948-.857Z" transform="translate(-128.593 -32.352)" fill="#ebe5df"></path><path id="Path_20" data-name="Path 20" d="M213.167,66.116l3.374,8.9h1.088L213.87,65.23h-.929l-3.851,9.786h.746Z" transform="translate(-104.272 -32.435)" fill="#ebe5df"></path></g></svg>