<svg xmlns="http://www.w3.org/2000/svg" width="1560" height="540" viewBox="0 0 1560 540" fill="none">
<g clip-path="url(#clip0_229_33723)">
<path d="M842.508 286.134C842.679 310.232 836.374 333.923 824.242 354.739C812.353 375.556 795.262 392.92 774.638 405.113C753.852 417.569 730.039 424.058 705.811 423.869C681.457 424.004 657.518 417.523 636.551 405.113C615.683 392.992 598.348 375.628 586.252 354.739C574.02 333.959 567.643 310.25 567.814 286.134C567.661 261.793 574.057 237.849 586.342 216.833C598.348 195.854 615.647 178.391 636.515 166.198C657.473 153.769 681.412 147.288 705.775 147.442C730.003 147.234 753.825 153.724 774.602 166.198C816.816 191.362 842.625 236.963 842.48 286.134M871.514 285.655C871.767 255.529 864.062 225.872 849.174 199.678C834.838 174.116 814.106 152.73 789.002 137.608C763.897 122.359 735.044 114.414 705.676 114.649C676.163 114.45 647.165 122.395 621.871 137.608C540.154 186.662 513.658 292.715 562.683 374.471C577.254 398.777 597.58 419.114 621.871 433.694C647.165 448.906 676.163 456.851 705.676 456.653C735.044 456.888 763.897 448.942 789.002 433.694C814.088 418.563 834.82 397.177 849.174 371.624C864.026 345.42 871.704 315.764 871.424 285.646" fill="#161614"/>
<path d="M135.142 451.464H169.298L305.353 119.81H270.764L153.155 415.426L35.0593 119.81H0L135.142 451.464Z" fill="#161614"/>
<path d="M312.319 540H292.029L513.605 0H533.94L529.929 9.80717L312.319 540Z" fill="#161614"/>
<path d="M1136.94 206.348C1136.94 204.477 1136.86 202.218 1136.72 199.56C1136.57 196.903 1136.47 194.209 1136.4 191.47C1136.33 188.741 1136.22 186.192 1136.07 183.814C1135.93 181.437 1135.86 179.611 1135.86 178.319H1148.78C1148.93 182.061 1149.04 185.649 1149.11 189.102C1149.18 192.555 1149.36 194.779 1149.64 195.782H1150.29C1152.88 190.322 1157.19 185.613 1163.22 181.663C1169.25 177.713 1176.29 175.734 1184.35 175.734C1190.95 175.734 1196.99 177.424 1202.45 180.795C1207.91 184.176 1211.86 189.672 1214.3 197.291C1217.46 189.816 1222.17 184.357 1228.42 180.904C1234.67 177.451 1241.25 175.734 1248.14 175.734C1255.89 175.734 1262.22 176.954 1267.1 179.394C1271.99 181.844 1275.84 185.044 1278.64 188.994C1281.44 192.953 1283.38 197.508 1284.46 202.688C1285.53 207.858 1286.07 213.182 1286.07 218.641V277.945H1273.15V219.292C1273.15 215.27 1272.79 211.356 1272.07 207.541C1271.36 203.736 1270.09 200.319 1268.31 197.3C1266.51 194.281 1264 191.877 1260.76 190.078C1257.53 188.28 1253.33 187.385 1248.16 187.385C1242.13 187.385 1237.17 188.497 1233.29 190.729C1229.41 192.962 1226.35 195.791 1224.13 199.244C1221.9 202.697 1220.33 206.43 1219.39 210.452C1218.45 214.474 1217.99 218.289 1217.99 221.877V277.936H1205.06V217.99C1205.06 208.789 1203.37 201.386 1200 195.782C1196.62 190.178 1191.42 187.376 1184.38 187.376C1179.64 187.376 1175.14 188.207 1170.91 189.852C1166.68 191.506 1163.01 194.019 1159.92 197.4C1156.83 200.78 1154.39 205.02 1152.59 210.118C1150.8 215.224 1149.9 221.226 1149.9 228.123V277.936H1136.98V206.348H1136.94Z" fill="#161614"/>
<path d="M1416.45 259.18C1411.42 266.8 1405.21 272.269 1397.81 275.568C1390.41 278.876 1382.26 280.53 1373.35 280.53C1365.73 280.53 1358.84 279.238 1352.66 276.653C1346.48 274.058 1341.16 270.434 1336.71 265.761C1332.25 261.088 1328.84 255.556 1326.47 249.156C1324.1 242.766 1322.91 235.679 1322.91 227.915C1322.91 220.151 1324.12 213.543 1326.58 207.216C1329.02 200.889 1332.47 195.393 1336.93 190.72C1341.38 186.056 1346.63 182.386 1352.66 179.72C1358.7 177.062 1365.37 175.734 1372.7 175.734C1380.02 175.734 1387.03 177.062 1392.85 179.72C1398.67 182.386 1403.56 185.902 1407.5 190.286C1411.45 194.67 1414.43 199.669 1416.45 205.273C1418.45 210.877 1419.46 216.562 1419.46 222.311V231.368H1335.85C1335.85 234.107 1336.39 237.587 1337.46 241.826C1338.53 246.065 1340.51 250.205 1343.38 254.227C1346.26 258.259 1350.1 261.702 1354.92 264.577C1359.73 267.451 1365.94 268.888 1373.56 268.888C1380.16 268.888 1386.56 267.306 1392.73 264.143C1398.9 260.988 1403.65 256.668 1406.95 251.208L1416.43 259.18H1416.45ZM1406.54 219.717C1406.54 215.261 1405.63 211.094 1403.85 207.207C1402.04 203.329 1399.61 199.913 1396.52 196.966C1393.43 194.019 1389.76 191.687 1385.53 189.961C1381.29 188.234 1376.8 187.367 1372.06 187.367C1365.02 187.367 1359.16 188.804 1354.5 191.678C1349.83 194.553 1346.12 197.861 1343.39 201.594C1340.66 205.336 1338.72 208.961 1337.58 212.486C1336.42 216.011 1335.85 218.415 1335.85 219.708H1406.54V219.717Z" fill="#161614"/>
<path d="M1547.06 260.473H1546.63C1544.61 263.926 1542.1 266.909 1539.09 269.422C1536.07 271.943 1532.8 274.022 1529.28 275.676C1525.75 277.331 1522.06 278.551 1518.17 279.346C1514.3 280.133 1510.49 280.53 1506.75 280.53C1499.14 280.53 1492.1 279.238 1485.62 276.653C1479.17 274.058 1473.63 270.434 1469.04 265.761C1464.44 261.088 1460.85 255.556 1458.26 249.156C1455.68 242.766 1454.39 235.752 1454.39 228.132C1454.39 220.512 1455.68 213.507 1458.26 207.108C1460.85 200.717 1464.44 195.176 1469.04 190.503C1473.64 185.839 1479.17 182.205 1485.62 179.611C1492.09 177.026 1499.13 175.734 1506.75 175.734C1510.49 175.734 1514.3 176.131 1518.17 176.918C1522.05 177.713 1525.75 178.933 1529.28 180.588C1532.79 182.242 1536.06 184.33 1539.09 186.842C1542.1 189.364 1544.61 192.338 1546.63 195.791H1547.06V114.929H1559.99V277.945H1547.06V260.482V260.473ZM1548.35 228.132C1548.35 222.528 1547.28 217.24 1545.12 212.287C1542.96 207.324 1540.02 203.013 1536.28 199.352C1532.55 195.682 1528.16 192.772 1523.13 190.621C1518.1 188.469 1512.64 187.385 1506.75 187.385C1500.86 187.385 1495.25 188.46 1490.38 190.621C1485.5 192.781 1481.32 195.682 1477.88 199.352C1474.43 203.022 1471.81 207.334 1470.01 212.287C1468.22 217.249 1467.32 222.528 1467.32 228.132C1467.32 233.736 1468.22 239.024 1470.01 243.977C1471.81 248.939 1474.43 253.251 1477.88 256.912C1481.32 260.582 1485.5 263.492 1490.38 265.643C1495.26 267.804 1500.72 268.879 1506.75 268.879C1512.79 268.879 1518.1 267.804 1523.13 265.643C1528.16 263.483 1532.55 260.582 1536.28 256.912C1540.01 253.242 1542.96 248.93 1545.12 243.977C1547.27 239.015 1548.35 233.736 1548.35 228.132Z" fill="#161614"/>
<path d="M1147.28 394.284C1150.01 399.599 1154.04 403.667 1159.35 406.469C1164.66 409.271 1170.26 410.672 1176.16 410.672C1178.89 410.672 1181.62 410.238 1184.35 409.379C1187.07 408.512 1189.52 407.291 1191.67 405.71C1193.83 404.128 1195.58 402.221 1196.96 399.997C1198.32 397.773 1199 395.215 1199 392.341C1199 387.74 1197.52 384.296 1194.58 381.992C1191.64 379.696 1188.01 377.897 1183.7 376.604C1179.39 375.312 1174.64 374.2 1169.48 373.26C1164.31 372.329 1159.57 370.883 1155.26 368.948C1150.95 367.005 1147.32 364.312 1144.38 360.859C1141.44 357.406 1139.96 352.525 1139.96 346.198C1139.96 341.317 1140.97 337.068 1142.97 333.48C1144.98 329.892 1147.61 326.9 1150.84 324.531C1154.07 322.163 1157.7 320.401 1161.73 319.253C1165.75 318.105 1169.84 317.526 1174 317.526C1182.2 317.526 1189.27 319.036 1195.23 322.055C1201.19 325.074 1205.83 329.819 1209.13 336.282L1197.49 343.188C1195.05 338.587 1192 335.098 1188.34 332.73C1184.67 330.352 1179.89 329.168 1174 329.168C1171.71 329.168 1169.31 329.53 1166.79 330.244C1164.27 330.967 1162.01 331.97 1160 333.263C1157.99 334.556 1156.3 336.21 1154.94 338.225C1153.57 340.241 1152.89 342.537 1152.89 345.122C1152.89 349.578 1154.37 352.886 1157.31 355.038C1160.25 357.198 1163.89 358.888 1168.19 360.099C1172.5 361.329 1177.25 362.368 1182.41 363.227C1187.58 364.095 1192.32 365.496 1196.63 367.43C1200.94 369.364 1204.57 372.175 1207.52 375.836C1210.45 379.506 1211.94 384.712 1211.94 391.473C1211.94 396.644 1210.96 401.145 1209.03 404.95C1207.08 408.765 1204.43 411.955 1201.05 414.55C1197.68 417.144 1193.83 419.078 1189.52 420.371C1185.21 421.663 1180.68 422.314 1175.95 422.314C1167.33 422.314 1159.46 420.66 1152.34 417.352C1145.23 414.043 1139.74 408.945 1135.86 402.04L1147.28 394.275V394.284Z" fill="#161614"/>
<path d="M1294.69 320.111H1307.62V337.575H1308.05C1310.06 334.122 1312.58 331.148 1315.6 328.626C1318.61 326.113 1321.88 324.025 1325.41 322.371C1328.93 320.726 1332.62 319.497 1336.51 318.701C1340.38 317.915 1344.2 317.517 1347.93 317.517C1355.54 317.517 1362.55 318.81 1368.94 321.395C1375.33 323.989 1380.87 327.614 1385.53 332.287C1390.19 336.96 1393.84 342.501 1396.42 348.891C1399 355.291 1400.29 362.296 1400.29 369.916C1400.29 377.535 1399 384.55 1396.42 390.94C1393.84 397.34 1390.19 402.871 1385.53 407.544C1380.87 412.218 1375.33 415.842 1368.94 418.436C1362.55 421.021 1355.54 422.314 1347.93 422.314C1344.2 422.314 1340.38 421.916 1336.51 421.13C1332.63 420.334 1328.93 419.114 1325.41 417.46C1321.88 415.806 1318.62 413.727 1315.6 411.205C1312.58 408.692 1310.07 405.71 1308.05 402.257H1307.62V468.882H1294.69V320.093V320.111ZM1306.33 369.916C1306.33 375.52 1307.4 380.807 1309.56 385.761C1311.72 390.723 1314.66 395.035 1318.4 398.695C1322.14 402.365 1326.52 405.276 1331.55 407.427C1336.58 409.578 1342.04 410.663 1347.93 410.663C1353.82 410.663 1359.43 409.587 1364.3 407.427C1369.19 405.267 1373.36 402.365 1376.8 398.695C1380.25 395.026 1382.87 390.714 1384.67 385.761C1386.46 380.807 1387.36 375.52 1387.36 369.916C1387.36 364.312 1386.46 359.024 1384.67 354.071C1382.87 349.108 1380.25 344.797 1376.8 341.136C1373.36 337.466 1369.18 334.556 1364.3 332.404C1359.42 330.244 1353.96 329.168 1347.93 329.168C1341.89 329.168 1336.58 330.244 1331.55 332.404C1326.52 334.565 1322.14 337.466 1318.4 341.136C1314.66 344.806 1311.72 349.117 1309.56 354.071C1307.41 359.033 1306.33 364.312 1306.33 369.916Z" fill="#161614"/>
<path d="M1557.91 377.897C1557.91 382.787 1557.95 387.171 1558.02 391.049C1558.09 394.935 1558.2 398.524 1558.35 401.832C1558.49 405.14 1558.66 408.231 1558.89 411.106C1559.11 413.98 1559.42 416.854 1559.85 419.729H1547.79C1546.92 414.848 1546.49 409.452 1546.49 403.558H1546.06C1542.32 410.03 1537.69 414.767 1532.16 417.785C1526.63 420.804 1519.63 422.314 1511.15 422.314C1506.84 422.314 1502.6 421.781 1498.44 420.696C1494.27 419.62 1490.53 417.894 1487.23 415.517C1483.93 413.149 1481.24 410.093 1479.15 406.351C1477.06 402.618 1476.02 398.081 1476.02 392.766C1476.02 385.146 1477.97 379.108 1481.84 374.652C1485.72 370.205 1490.5 366.861 1496.17 364.628C1501.84 362.404 1507.88 360.958 1514.27 360.316C1520.66 359.666 1526.3 359.349 1531.19 359.349H1546.28V353.311C1546.28 344.688 1543.62 338.506 1538.3 334.763C1532.99 331.03 1526.3 329.159 1518.26 329.159C1506.76 329.159 1496.64 332.901 1487.88 340.368L1480.33 331.528C1485.07 326.927 1490.96 323.438 1498 321.07C1505.04 318.692 1511.8 317.517 1518.26 317.517C1530.33 317.517 1539.95 320.356 1547.14 326.032C1554.33 331.708 1557.91 340.874 1557.91 353.528V377.897ZM1532.05 369.699C1526.59 369.699 1521.31 370.06 1516.21 370.774C1511.11 371.497 1506.51 372.718 1502.42 374.444C1498.33 376.171 1495.06 378.466 1492.61 381.341C1490.17 384.215 1488.94 387.813 1488.94 392.124C1488.94 395.143 1489.62 397.837 1490.99 400.214C1492.36 402.591 1494.12 404.525 1496.27 406.035C1498.43 407.544 1500.83 408.692 1503.49 409.488C1506.14 410.283 1508.83 410.672 1511.57 410.672C1518.46 410.672 1524.14 409.669 1528.6 407.653C1533.04 405.646 1536.6 403.016 1539.27 399.78C1541.92 396.544 1543.76 392.874 1544.76 388.78C1545.76 384.685 1546.27 380.554 1546.27 376.378V369.69H1532.05V369.699Z" fill="#161614"/>
</g>
<defs>
<clipPath id="clip0_229_33723">
<rect width="1560" height="540" fill="white"/>
</clipPath>
</defs>
</svg>