<?xml version="1.0" encoding="UTF-8"?> <svg xmlns="http://www.w3.org/2000/svg" id="Layer_1" viewBox="0 0 348.46 322.77"><defs><style>.cls-1{fill:#85754e;}</style></defs><path class="cls-1" d="M179.61,320.86c.05,1.07.94,1.9,2,1.9.03,0,.07,0,.1,0,1.1-.05,1.95-.99,1.9-2.09l-3.08-63.41c-1.33.06-2.66.11-4,.15l3.09,63.45Z"></path><path class="cls-1" d="M171.41,70.01l-3.31-68.11c-.05-1.07-.94-1.9-2-1.9-.03,0-.07,0-.1,0-1.1.05-1.96.99-1.9,2.09l3.3,67.92c.88-.01,1.76-.02,2.64-.02.46,0,.91,0,1.37.01Z"></path><path class="cls-1" d="M262.14,305.36c.38.6,1.03.93,1.69.93.36,0,.73-.1,1.06-.31.93-.59,1.22-1.82.63-2.76l-34.38-54.6c-1.32.4-2.65.8-3.99,1.18l34.98,55.55Z"></path><path class="cls-1" d="M85.57,17.41c-.59-.93-1.82-1.21-2.76-.63-.93.59-1.22,1.82-.63,2.76l35.77,56.82c1.36-.34,2.73-.67,4.1-.99l-36.49-57.96Z"></path><path class="cls-1" d="M248.33,10.52c.48-1,.06-2.19-.94-2.67-1-.48-2.19-.06-2.67.94l-31.39,65.55c1.35.28,2.69.57,4.02.87l30.98-64.69Z"></path><path class="cls-1" d="M99.38,312.25c-.48,1-.06,2.19.94,2.67.28.13.57.2.86.2.75,0,1.46-.42,1.8-1.14l28.67-59.86c-1.36-.25-2.72-.5-4.07-.77l-28.21,58.9Z"></path><path class="cls-1" d="M18.3,54.38c-.92-.61-2.16-.37-2.78.54-.62.92-.37,2.16.54,2.78l55.88,37.57c1.25-.76,2.52-1.52,3.82-2.25L18.3,54.38Z"></path><path class="cls-1" d="M331.65,265.07l-56.07-37.7c-1.17.82-2.35,1.63-3.56,2.43l57.4,38.59c.34.23.73.34,1.11.34.64,0,1.28-.31,1.66-.88.62-.92.37-2.16-.54-2.78Z"></path><path class="cls-1" d="M320.84,42.87c.85-.7.97-1.96.27-2.82-.7-.85-1.96-.97-2.82-.27l-60.42,49.78c1.3.66,2.59,1.33,3.85,2.01l59.11-48.7Z"></path><path class="cls-1" d="M26.87,279.9c-.85.7-.97,1.96-.27,2.82.4.48.97.73,1.54.73.45,0,.9-.15,1.27-.46l53.95-44.45c-1.31-.65-2.6-1.31-3.88-1.99l-52.62,43.35Z"></path><path class="cls-1" d="M42.11,165.28l25.65-43.87h15.53l-34.63,61.82h-13.58L0,121.41h16.45l25.66,43.87Z"></path><path class="cls-1" d="M116.81,121.41h15.3v61.82h-15.3v-61.82Z"></path><path class="cls-1" d="M207.73,165.28l25.65-43.87h15.53l-34.63,61.82h-13.58l-35.09-61.82h16.45l25.66,43.87Z"></path><path class="cls-1" d="M322.12,167.46h-36.81l-10.01,15.77h-14.03l36.35-61.82-11.15-17.8h13.8s48.2,79.62,48.2,79.62h-16.34l-10.01-15.77ZM317.98,159.03l-14.03-22.03-14.27,22.03h28.3Z"></path><path class="cls-1" d="M.41,198.77h5.39c4.54,0,7.68,2.81,7.68,6.47v.04c0,3.66-3.14,6.51-7.68,6.51H.41v-13.02ZM5.79,209.71c3.03,0,5.01-1.84,5.01-4.39v-.04c0-2.55-1.98-4.43-5.01-4.43h-2.85v8.85h2.85Z"></path><path class="cls-1" d="M29.24,198.68h2.35l6.36,13.11h-2.68l-1.47-3.14h-6.83l-1.49,3.14h-2.6l6.36-13.11ZM32.88,206.62l-2.5-5.21-2.48,5.21h4.97Z"></path><path class="cls-1" d="M50.98,206.66l-5.74-7.89h2.99l4.04,5.77,4.09-5.77h2.91l-5.74,7.83v5.19h-2.56v-5.13Z"></path><path class="cls-1" d="M83.86,209.89l1.53-1.64c1.38,1.08,2.77,1.69,4.56,1.69,1.57,0,2.56-.65,2.56-1.64v-.04c0-.93-.58-1.43-3.26-1.99-3.07-.67-4.81-1.49-4.81-3.89v-.04c0-2.23,2.06-3.78,4.93-3.78,2.1,0,3.78.58,5.24,1.64l-1.36,1.73c-1.3-.87-2.6-1.34-3.92-1.34-1.49,0-2.35.69-2.35,1.54v.04c0,1,.66,1.45,3.43,2.05,3.05.67,4.64,1.65,4.64,3.81v.04c0,2.44-2.13,3.89-5.16,3.89-2.21,0-4.29-.69-6.03-2.08Z"></path><path class="cls-1" d="M106.61,198.77h5.7c3.36,0,5.49,1.73,5.49,4.35v.04c0,2.92-2.6,4.45-5.78,4.45h-2.87v4.18h-2.54v-13.02ZM112.1,205.54c1.92,0,3.12-.97,3.12-2.33v-.04c0-1.53-1.22-2.33-3.12-2.33h-2.95v4.69h2.95Z"></path><path class="cls-1" d="M132.64,198.68h2.35l6.36,13.11h-2.68l-1.47-3.14h-6.83l-1.49,3.14h-2.6l6.36-13.11ZM136.27,206.62l-2.5-5.21-2.48,5.21h4.97Z"></path><path class="cls-1" d="M170.66,206.27h-3.96v-2.06h3.96v-3.53h2.35v3.53h3.96v2.06h-3.96v3.55h-2.35v-3.55Z"></path><path class="cls-1" d="M203.56,198.77h2.7l4.4,6.16,4.4-6.16h2.7v13.02h-2.54v-9.34l-4.56,6.14h-.08l-4.52-6.1v9.3h-2.5v-13.02Z"></path><path class="cls-1" d="M230.04,198.77h10.71v2.05h-8.17v3.39h7.24v2.05h-7.24v3.5h8.27v2.05h-10.81v-13.02Z"></path><path class="cls-1" d="M252.44,198.77h5.39c4.54,0,7.68,2.81,7.68,6.47v.04c0,3.66-3.14,6.51-7.68,6.51h-5.39v-13.02ZM257.82,209.71c3.03,0,5.01-1.84,5.01-4.39v-.04c0-2.55-1.98-4.43-5.01-4.43h-2.85v8.85h2.85Z"></path><path class="cls-1" d="M290.93,209.89l1.53-1.64c1.38,1.08,2.77,1.69,4.56,1.69,1.57,0,2.56-.65,2.56-1.64v-.04c0-.93-.58-1.43-3.26-1.99-3.07-.67-4.81-1.49-4.81-3.89v-.04c0-2.23,2.06-3.78,4.93-3.78,2.1,0,3.78.58,5.24,1.64l-1.36,1.73c-1.3-.87-2.6-1.34-3.92-1.34-1.49,0-2.35.69-2.35,1.54v.04c0,1,.66,1.45,3.43,2.05,3.05.67,4.64,1.65,4.64,3.81v.04c0,2.44-2.13,3.89-5.16,3.89-2.21,0-4.29-.69-6.03-2.08Z"></path><path class="cls-1" d="M313.68,198.77h5.7c3.36,0,5.49,1.73,5.49,4.35v.04c0,2.92-2.6,4.45-5.78,4.45h-2.87v4.18h-2.54v-13.02ZM319.17,205.54c1.92,0,3.12-.97,3.12-2.33v-.04c0-1.53-1.22-2.33-3.12-2.33h-2.95v4.69h2.95Z"></path><path class="cls-1" d="M339.71,198.68h2.35l6.36,13.11h-2.68l-1.47-3.14h-6.83l-1.49,3.14h-2.6l6.36-13.11ZM343.34,206.62l-2.5-5.21-2.48,5.21h4.97Z"></path></svg> 