<?xml version="1.0" encoding="utf-8"?>
<svg xmlns="http://www.w3.org/2000/svg" xmlns:xlink="http://www.w3.org/1999/xlink" id="Layer_1" data-name="Layer 1" viewBox="0 0 299.39 102.38">
  <defs>
    <style>
      .cls-1 {
        fill: #f18538;
        stroke: #f18538;
        stroke-miterlimit: 10;
      }

      .cls-2 {
        fill: url(#radial-gradient);
      }
    </style>
    <radialGradient id="radial-gradient" cx="48.67" cy="31.64" fx="48.67" fy="31.64" r="95.08" gradientUnits="userSpaceOnUse">
      <stop offset=".16" stop-color="#f4a13d"/>
      <stop offset=".6" stop-color="#ee6d35"/>
      <stop offset=".98" stop-color="#e14831"/>
    </radialGradient>
  </defs>
  <g>
    <path class="cls-1" d="m136.34,72.66h-1.94l-15.16-40.36h1.37l14.71,39.22h.11l14.93-39.22h1.37l-15.39,40.36Z"/>
    <path class="cls-1" d="m163.36,72.66v-40.36h1.25v40.36h-1.25Z"/>
    <path class="cls-1" d="m193.34,72.66h-1.94l-15.16-40.36h1.37l14.71,39.22h.11l14.93-39.22h1.37l-15.39,40.36Z"/>
    <path class="cls-1" d="m220.36,72.66v-40.36h1.25v40.36h-1.25Z"/>
    <path class="cls-1" d="m239.51,33.44v17.73h20.24v1.14h-20.24v20.35h-1.25v-40.36h23.03v1.14h-21.77Z"/>
    <path class="cls-1" d="m284.65,54.99v17.67h-1.25v-17.67l-13.85-22.69h1.48l13.05,21.43,13-21.43h1.42l-13.85,22.69Z"/>
  </g>
  <path class="cls-2" d="m81.93,69.8c6.36-1.96,22.18-12.2,18.84-31.52-1.94,12.24-11.39,15.97-11.39,15.97,0,0,7.62-8.11,8.93-16.86.79-5.3-.21-10.43-1.8-13.66-.09,12.55-8.7,19.53-8.7,19.53,0,0,8.73-12.28,2.69-26.29-1.53-3.54-4.07-6.97-5.13-7.93,5.78,14.68-2.06,28.14-2.06,28.14,0,0,4.18-16.34-1.38-26.52-2.45-4.48-5.81-8.62-10.51-10.66,0,0,6.93,6.01,6.93,22.21s-7.06,29.34-16.86,40.37c-6.72,7.57-9.7,13.34-10.87,23.36-1.17-10.02-4.15-15.79-10.87-23.36-9.8-11.04-16.86-24.17-16.86-40.37S29.81,0,29.81,0c-4.71,2.04-8.06,6.18-10.51,10.66-5.56,10.18-1.38,26.52-1.38,26.52,0,0-7.84-13.46-2.06-28.14-1.06.96-3.6,4.39-5.13,7.93-6.04,14.01,2.69,26.29,2.69,26.29,0,0-8.61-6.97-8.7-19.53-1.59,3.23-2.59,8.36-1.8,13.66,1.31,8.75,8.93,16.86,8.93,16.86,0,0-9.45-3.73-11.39-15.97-3.34,19.32,12.48,29.57,18.84,31.52-7.23.75-12.9-4.1-12.9-4.1,5.04,12.5,14.83,11.77,26.02,15.93,14.22,5.27,16.66,17.65,18.19,20.75,1.53-3.1,3.97-15.48,18.19-20.75,11.2-4.15,20.98-3.42,26.02-15.93,0,0-5.66,4.84-12.9,4.1Z"/>
</svg>