<svg xmlns="http://www.w3.org/2000/svg" id="Layer_2" data-name="Layer 2" viewBox="0 0 634.04 327.28"><defs><style>      .cls-1 {        fill: #fff;        stroke-width: 0px;      }    </style></defs><g id="Layer_2-2" data-name="Layer 2"><g><rect class="cls-1" x="274.48" y="198.95" width="1.39" height="43.3"></rect><rect class="cls-1" x=".44" y="248.68" width="633.59" height="1.39"></rect><polygon class="cls-1" points="252.7 181.77 255.3 175.91 247.48 157.34 242.6 170.89 178.56 0 160.19 0 232.74 181.77 252.7 181.77"></polygon><polygon class="cls-1" points="284.09 181.77 300.71 140.53 292.79 122.06 273.99 170.89 209.96 0 191.59 0 264.14 181.77 284.09 181.77"></polygon><polygon class="cls-1" points="361.34 157.34 353.52 175.91 356.13 181.77 376.08 181.77 448.63 0 430.26 0 366.23 170.89 361.34 157.34"></polygon><polygon class="cls-1" points="344.68 181.77 417.23 0 398.86 0 334.83 170.89 269.75 0 251.75 0 324.73 181.77 344.68 181.77"></polygon><polygon class="cls-1" points="269.92 138.29 284.81 100.73 276.76 80.63 262.07 119.38 269.92 138.29"></polygon><polygon class="cls-1" points="338.86 138.29 346.71 119.38 332.02 80.63 323.98 100.73 338.86 138.29"></polygon><polygon class="cls-1" points="316.54 38.71 301.49 0 283.12 0 308.13 61.58 316.54 38.71"></polygon><polygon class="cls-1" points="325.57 0 308.91 0 317.08 21.08 325.57 0"></polygon><polygon class="cls-1" points="316.54 102.81 357.12 0 339.01 0 307.87 81.45 316.54 102.81"></polygon><path class="cls-1" d="M74.78,264.01c-1.53,0-3.17-.03-4.93-.09-1.76-.06-3.49-.12-5.19-.18v1.76c2.46.06,4.31.46,5.54,1.19,1.23.73,1.89,2,1.98,3.78.09,1.79-.4,4.3-1.45,7.52l-10.84,34.07-12.66-39.17c-.7-2.29-.98-3.93-.84-4.93.15-1,.73-1.64,1.76-1.94,1.03-.29,2.42-.47,4.18-.53v-1.76c-1.23.06-2.85.12-4.84.18-2,.06-4.14.09-6.42.09-1.47,0-2.99-.03-4.58-.09-1.58-.06-2.9-.12-3.96-.18v1.76c.82.06,1.7.44,2.64,1.14.94.7,1.79,2.2,2.55,4.49l2.34,6.94-10.68,34.09-12.87-39.27c-.59-1.82-.89-3.24-.92-4.27-.03-1.03.29-1.77.97-2.24.67-.47,1.77-.76,3.3-.88v-1.76c-1.06.06-2.42.12-4.09.18-1.67.06-3.48.09-5.41.09-1.64,0-3.33-.03-5.06-.09-1.73-.06-3.18-.12-4.36-.18v1.76c.94.06,1.99.44,3.17,1.14,1.17.7,2.14,2.2,2.9,4.49l18.66,55.35h1.41l14.02-45.36,15.29,45.36h1.41l16.63-53.33c.82-2.7,1.91-4.59,3.26-5.68,1.35-1.08,2.58-1.74,3.7-1.98v-1.76c-.88.06-1.82.12-2.82.18-1,.06-2.26.09-3.78.09Z"></path><path class="cls-1" d="M101.44,264.01c-2.29,0-4.43-.03-6.42-.09-2-.06-3.61-.12-4.84-.18v1.76c1.99.06,3.5.28,4.53.66,1.03.38,1.72,1.09,2.07,2.11.35,1.03.53,2.63.53,4.8v43.65c0,2.11-.18,3.7-.53,4.75-.35,1.06-1.04,1.76-2.07,2.11-1.03.35-2.54.59-4.53.7v1.76c1.23-.12,2.84-.19,4.84-.22,1.99-.03,4.14-.04,6.42-.04,2.05,0,4.09.01,6.12.04,2.02.03,3.71.1,5.06.22v-1.76c-2-.12-3.51-.35-4.53-.7-1.03-.35-1.72-1.06-2.07-2.11-.35-1.06-.53-2.64-.53-4.75v-43.65c0-2.17.18-3.77.53-4.8.35-1.03,1.04-1.73,2.07-2.11,1.03-.38,2.54-.6,4.53-.66v-1.76c-1.35.06-3.04.12-5.06.18-2.02.06-4.06.09-6.12.09Z"></path><path class="cls-1" d="M172.37,264.01c-1.47,0-3.07-.03-4.8-.09-1.73-.06-3.12-.12-4.18-.18v1.76c2.29.06,4,.35,5.15.88,1.14.53,1.91,1.38,2.29,2.55.38,1.17.57,2.85.57,5.02v37.66l-31.06-47.87c-.94.06-2,.12-3.17.18-1.17.06-2.41.09-3.7.09-1.47,0-2.95-.03-4.44-.09-1.5-.06-2.74-.12-3.74-.18v1.76c1.99.06,3.5.28,4.53.66,1.03.38,1.72,1.09,2.07,2.11.35,1.03.53,2.63.53,4.8v42.77c0,2.11-.18,3.77-.53,4.97-.35,1.2-1.04,2.05-2.07,2.55-1.03.5-2.54.81-4.53.92v1.76c1-.12,2.24-.19,3.74-.22,1.5-.03,2.98-.04,4.44-.04s3.14.01,4.84.04c1.7.03,3.08.1,4.14.22v-1.76c-2.29-.12-4-.42-5.15-.92-1.14-.5-1.91-1.35-2.29-2.55-.38-1.2-.57-2.86-.57-4.97v-46.46l36.96,57.11h2.02v-52.54c0-2.17.18-3.84.53-5.02.35-1.17,1.04-2.02,2.07-2.55,1.03-.53,2.54-.82,4.53-.88v-1.76c-.94.06-2.16.12-3.65.18-1.5.06-3.01.09-4.53.09Z"></path><path class="cls-1" d="M216.72,263.74c-1.64,0-3.76.03-6.34.09-2.58.06-4.9.12-6.95.18-1.94.06-3.9.04-5.9-.04-2-.09-3.61-.16-4.84-.22v1.76c1.99.06,3.5.28,4.53.66,1.03.38,1.72,1.09,2.07,2.11.35,1.03.53,2.63.53,4.8v43.65c0,2.11-.18,3.7-.53,4.75-.35,1.06-1.04,1.76-2.07,2.11-1.03.35-2.54.59-4.53.7v1.76c1.23-.12,2.84-.19,4.84-.22,1.99-.03,4.02-.04,6.07-.04,1.29,0,2.71.01,4.27.04,1.55.03,3.07.07,4.53.13,1.47.06,2.64.09,3.52.09,6.75,0,12.5-1.32,17.25-3.96,4.75-2.64,8.37-6.35,10.87-11.13,2.49-4.78,3.74-10.37,3.74-16.76,0-9.8-2.55-17.32-7.66-22.57-5.1-5.25-12.91-7.88-23.41-7.88ZM236.87,310.82c-1.41,4.46-3.87,7.85-7.39,10.16-3.52,2.32-8.48,3.48-14.87,3.48-2.7,0-4.47-.5-5.32-1.5-.85-1-1.28-3.02-1.28-6.07v-44c0-3.05.41-5.07,1.23-6.07.82-1,2.58-1.5,5.28-1.5,6.1,0,10.93,1.07,14.48,3.21,3.55,2.14,6.1,5.37,7.66,9.68,1.55,4.31,2.33,9.75,2.33,16.32s-.7,11.82-2.11,16.28Z"></path><path class="cls-1" d="M305.87,314.78c0-2.64.09-4.75.26-6.34h-2.02c-.41,3.87-1.04,6.94-1.89,9.2-.85,2.26-2.23,3.89-4.14,4.88-1.91,1-4.71,1.5-8.4,1.5h-6.42c-2,0-3.51-.16-4.53-.48-1.03-.32-1.72-1.01-2.07-2.07-.35-1.06-.53-2.64-.53-4.75v-21.12h5.81c2.58,0,4.41.57,5.5,1.72,1.08,1.14,1.79,2.61,2.11,4.4.32,1.79.6,3.62.84,5.5h2.02c-.24-3.34-.38-5.9-.44-7.66-.06-1.76-.09-3.37-.09-4.84s-.01-3.08-.04-4.84c-.03-1.76.07-4.31.31-7.66h-2.02c-.18,1.06-.35,2.24-.53,3.56-.18,1.32-.5,2.6-.97,3.83-.47,1.23-1.22,2.24-2.24,3.04-1.03.79-2.51,1.19-4.44,1.19h-5.81v-20.77c0-2.17.18-3.77.53-4.8.35-1.03,1.04-1.7,2.07-2.02,1.03-.32,2.54-.48,4.53-.48h7.3c3.11,0,5.44.43,7,1.28,1.55.85,2.65,2.29,3.3,4.31.64,2.02,1.14,4.77,1.5,8.23h2.02c-.06-.64-.12-1.45-.18-2.42-.06-.97-.09-1.98-.09-3.04,0-1,.04-2.46.13-4.4.09-1.94.25-3.93.48-5.98-2.7.12-5.76.19-9.2.22-3.43.03-6.5.04-9.2.04h-4.97c-2.02,0-4.21-.01-6.56-.04-2.35-.03-4.72-.06-7.13-.09-2.41-.03-4.69-.07-6.86-.13v1.76c1.99.06,3.5.28,4.53.66,1.03.38,1.72,1.09,2.07,2.11.35,1.03.53,2.63.53,4.8v43.65c0,2.11-.18,3.7-.53,4.75-.35,1.06-1.04,1.76-2.07,2.11-1.03.35-2.54.59-4.53.7v1.76c2.17-.06,4.46-.1,6.86-.13,2.4-.03,4.78-.06,7.13-.09,2.35-.03,4.53-.04,6.56-.04h4.97c2.93,0,6.28.01,10.03.04,3.75.03,7.13.1,10.12.22-.24-2.23-.4-4.38-.48-6.47-.09-2.08-.13-3.68-.13-4.8Z"></path><path class="cls-1" d="M370.59,323.05c-.67.59-1.51.91-2.51.97-1.29.06-2.24-.48-2.86-1.63-.62-1.14-1.22-3.01-1.8-5.59l-2.2-8.98c-.82-3.64-2.1-6.32-3.83-8.05s-4.56-2.92-8.49-3.56c-.32-.05-.66-.1-.99-.15,1.94-.29,3.68-.72,5.21-1.3,2.99-1.14,5.35-2.6,7.08-4.36,1.73-1.76,2.95-3.64,3.65-5.63.7-1.99,1.06-3.87,1.06-5.63,0-2.87-.78-5.47-2.33-7.79-1.55-2.32-3.9-4.15-7.04-5.5-3.14-1.35-7.08-2.02-11.84-2.02-1.06,0-2.85.03-5.37.09-2.52.06-5.16.09-7.92.09-1.94,0-3.9-.03-5.9-.09-2-.06-3.61-.12-4.84-.18v1.76c1.99.06,3.5.28,4.53.66,1.03.38,1.72,1.09,2.07,2.11.35,1.03.53,2.63.53,4.8v43.65c0,2.11-.18,3.7-.53,4.75-.35,1.06-1.04,1.76-2.07,2.11-1.03.35-2.54.59-4.53.7v1.76c1.23-.12,2.85-.19,4.84-.22,1.99-.03,4.14-.04,6.42-.04,2.05,0,4.09.01,6.12.04,2.02.03,3.71.1,5.06.22v-1.76c-2-.12-3.51-.35-4.53-.7-1.03-.35-1.72-1.06-2.07-2.11-.35-1.06-.53-2.64-.53-4.75v-20.24h8.36c2.35,0,4.12.53,5.32,1.58,1.2,1.06,2.14,2.51,2.82,4.36.67,1.85,1.28,4.03,1.8,6.56l1.94,8.8c.82,3.76,2.05,6.28,3.7,7.57s3.55,1.94,5.72,1.94c2.4,0,4.27-.48,5.59-1.45,1.32-.97,2.6-2.36,3.83-4.18l-1.32-.97c-.76,1-1.48,1.79-2.16,2.38ZM336.23,267c.82-1,2.58-1.5,5.28-1.5,5.34,0,9.11,1.28,11.31,3.83,2.2,2.55,3.3,6.15,3.3,10.78,0,2.7-.4,5.15-1.19,7.35s-2.29,3.96-4.49,5.28c-2.2,1.32-5.38,1.98-9.55,1.98h-5.9v-21.65c0-3.05.41-5.07,1.23-6.07Z"></path><path class="cls-1" d="M440.07,264.01h-4.14l-18.93,50.72-19.35-50.99c-.94.06-2.1.12-3.48.18-1.38.06-2.71.09-4,.09-1.47,0-2.95-.03-4.44-.09-1.5-.06-2.74-.12-3.74-.18v1.76c1.99.06,3.5.28,4.53.66,1.03.38,1.72,1.09,2.07,2.11.35,1.03.53,2.63.53,4.8v42.77c0,2.11-.18,3.77-.53,4.97-.35,1.2-1.04,2.05-2.07,2.55-1.03.5-2.54.81-4.53.92v1.76c1-.12,2.24-.19,3.74-.22,1.5-.03,2.98-.04,4.44-.04s3.14.01,4.84.04c1.7.03,3.08.1,4.14.22v-1.76c-2.29-.12-4-.42-5.15-.92-1.14-.5-1.91-1.35-2.29-2.55-.38-1.2-.57-2.86-.57-4.97v-46.46l22.18,57.11h1.41l21.21-56.96v47.19c0,2.11-.18,3.7-.53,4.75-.35,1.06-1.04,1.76-2.07,2.11-1.03.35-2.54.59-4.53.7v1.76c1.23-.12,2.84-.19,4.84-.22,1.99-.03,4.14-.04,6.42-.04,2.05,0,4.09.01,6.12.04,2.02.03,3.71.1,5.06.22v-1.76c-2-.12-3.51-.35-4.53-.7-1.03-.35-1.72-1.06-2.07-2.11-.35-1.06-.53-2.64-.53-4.75v-43.65c0-2.17.18-3.77.53-4.8.35-1.03,1.04-1.73,2.07-2.11,1.03-.38,2.54-.6,4.53-.66v-1.76c-1.35.06-3.04.12-5.06.18-2.02.06-4.06.09-6.12.09Z"></path><path class="cls-1" d="M508.97,314.78c0-2.64.09-4.75.26-6.34h-2.02c-.41,3.87-1.04,6.94-1.89,9.2-.85,2.26-2.23,3.89-4.14,4.88-1.91,1-4.71,1.5-8.4,1.5h-6.42c-2,0-3.51-.16-4.53-.48-1.03-.32-1.72-1.01-2.07-2.07-.35-1.06-.53-2.64-.53-4.75v-21.12h5.81c2.58,0,4.41.57,5.5,1.72,1.08,1.14,1.79,2.61,2.11,4.4.32,1.79.6,3.62.84,5.5h2.02c-.23-3.34-.38-5.9-.44-7.66-.06-1.76-.09-3.37-.09-4.84s-.02-3.08-.04-4.84.07-4.31.31-7.66h-2.02c-.18,1.06-.35,2.24-.53,3.56-.18,1.32-.5,2.6-.97,3.83-.47,1.23-1.22,2.24-2.24,3.04-1.03.79-2.51,1.19-4.44,1.19h-5.81v-20.77c0-2.17.18-3.77.53-4.8.35-1.03,1.04-1.7,2.07-2.02,1.03-.32,2.54-.48,4.53-.48h7.3c3.11,0,5.44.43,7,1.28,1.55.85,2.65,2.29,3.3,4.31.64,2.02,1.14,4.77,1.5,8.23h2.02c-.06-.64-.12-1.45-.18-2.42-.06-.97-.09-1.98-.09-3.04,0-1,.04-2.46.13-4.4.09-1.94.25-3.93.48-5.98-2.7.12-5.76.19-9.2.22-3.43.03-6.5.04-9.2.04h-4.97c-2.02,0-4.21-.01-6.56-.04-2.35-.03-4.72-.06-7.13-.09-2.41-.03-4.69-.07-6.86-.13v1.76c1.99.06,3.5.28,4.53.66,1.03.38,1.72,1.09,2.07,2.11.35,1.03.53,2.63.53,4.8v43.65c0,2.11-.18,3.7-.53,4.75-.35,1.06-1.04,1.76-2.07,2.11-1.03.35-2.54.59-4.53.7v1.76c2.17-.06,4.46-.1,6.86-.13,2.41-.03,4.78-.06,7.13-.09,2.35-.03,4.53-.04,6.56-.04h4.97c2.93,0,6.28.01,10.03.04,3.75.03,7.13.1,10.12.22-.23-2.23-.4-4.38-.48-6.47-.09-2.08-.13-3.68-.13-4.8Z"></path><path class="cls-1" d="M573.69,323.05c-.67.59-1.51.91-2.51.97-1.29.06-2.24-.48-2.86-1.63-.62-1.14-1.22-3.01-1.8-5.59l-2.2-8.98c-.82-3.64-2.1-6.32-3.83-8.05-1.73-1.73-4.56-2.92-8.49-3.56-.32-.05-.66-.1-.99-.15,1.94-.29,3.68-.72,5.21-1.3,2.99-1.14,5.35-2.6,7.08-4.36,1.73-1.76,2.95-3.64,3.65-5.63.7-1.99,1.06-3.87,1.06-5.63,0-2.87-.78-5.47-2.33-7.79-1.55-2.32-3.9-4.15-7.04-5.5-3.14-1.35-7.08-2.02-11.84-2.02-1.06,0-2.85.03-5.37.09-2.52.06-5.16.09-7.92.09-1.94,0-3.9-.03-5.9-.09-2-.06-3.61-.12-4.84-.18v1.76c1.99.06,3.5.28,4.53.66,1.03.38,1.72,1.09,2.07,2.11.35,1.03.53,2.63.53,4.8v43.65c0,2.11-.18,3.7-.53,4.75-.35,1.06-1.04,1.76-2.07,2.11-1.03.35-2.54.59-4.53.7v1.76c1.23-.12,2.84-.19,4.84-.22,1.99-.03,4.14-.04,6.42-.04,2.05,0,4.09.01,6.12.04,2.02.03,3.71.1,5.06.22v-1.76c-2-.12-3.51-.35-4.53-.7-1.03-.35-1.72-1.06-2.07-2.11-.35-1.06-.53-2.64-.53-4.75v-20.24h8.36c2.35,0,4.12.53,5.32,1.58,1.2,1.06,2.14,2.51,2.82,4.36.67,1.85,1.28,4.03,1.8,6.56l1.94,8.8c.82,3.76,2.05,6.28,3.7,7.57,1.64,1.29,3.55,1.94,5.72,1.94,2.41,0,4.27-.48,5.59-1.45,1.32-.97,2.6-2.36,3.83-4.18l-1.32-.97c-.76,1-1.48,1.79-2.16,2.38ZM539.33,267c.82-1,2.58-1.5,5.28-1.5,5.34,0,9.11,1.28,11.31,3.83s3.3,6.15,3.3,10.78c0,2.7-.4,5.15-1.19,7.35s-2.29,3.96-4.49,5.28c-2.2,1.32-5.38,1.98-9.55,1.98h-5.9v-21.65c0-3.05.41-5.07,1.23-6.07Z"></path><path class="cls-1" d="M630.14,314.78c0-2.64.09-4.75.26-6.34h-2.02c-.41,3.87-1.04,6.94-1.89,9.2-.85,2.26-2.23,3.89-4.14,4.88-1.91,1-4.71,1.5-8.4,1.5h-6.42c-2,0-3.51-.16-4.53-.48-1.03-.32-1.72-1.01-2.07-2.07-.35-1.06-.53-2.64-.53-4.75v-21.12h5.81c2.58,0,4.41.57,5.5,1.72,1.08,1.14,1.79,2.61,2.11,4.4.32,1.79.6,3.62.84,5.5h2.02c-.24-3.34-.38-5.9-.44-7.66-.06-1.76-.09-3.37-.09-4.84s-.01-3.08-.04-4.84c-.03-1.76.07-4.31.31-7.66h-2.02c-.18,1.06-.35,2.24-.53,3.56-.18,1.32-.5,2.6-.97,3.83-.47,1.23-1.22,2.24-2.24,3.04-1.03.79-2.51,1.19-4.44,1.19h-5.81v-20.77c0-2.17.18-3.77.53-4.8.35-1.03,1.04-1.7,2.07-2.02,1.03-.32,2.54-.48,4.53-.48h7.3c3.11,0,5.44.43,7,1.28,1.55.85,2.65,2.29,3.3,4.31.64,2.02,1.14,4.77,1.5,8.23h2.02c-.06-.64-.12-1.45-.18-2.42-.06-.97-.09-1.98-.09-3.04,0-1,.04-2.46.13-4.4.09-1.94.25-3.93.48-5.98-2.7.12-5.76.19-9.2.22-3.43.03-6.5.04-9.2.04h-4.97c-2.02,0-4.21-.01-6.56-.04-2.35-.03-4.72-.06-7.13-.09-2.41-.03-4.69-.07-6.86-.13v1.76c1.99.06,3.5.28,4.53.66,1.03.38,1.72,1.09,2.07,2.11.35,1.03.53,2.63.53,4.8v43.65c0,2.11-.18,3.7-.53,4.75-.35,1.06-1.04,1.76-2.07,2.11-1.03.35-2.54.59-4.53.7v1.76c2.17-.06,4.46-.1,6.86-.13,2.41-.03,4.78-.06,7.13-.09,2.35-.03,4.53-.04,6.56-.04h4.97c2.93,0,6.28.01,10.03.04,3.75.03,7.13.1,10.12.22-.24-2.23-.4-4.38-.48-6.47-.09-2.08-.13-3.68-.13-4.8Z"></path><path class="cls-1" d="M295.23,231.75c-.16.48-.47.8-.94.96-.47.16-1.15.27-2.06.32v.8c.99-.03,2.03-.05,3.12-.06s2.17-.03,3.24-.04c1.07-.01,2.06-.02,2.98-.02h2.26c1.33,0,2.85,0,4.56.02,1.71.01,3.24.05,4.6.1-.11-1.01-.18-1.99-.22-2.94-.04-.95-.06-1.67-.06-2.18,0-1.36.04-2.45.12-3.28h-.92c-.13,1.39-.32,2.56-.56,3.52s-.59,1.73-1.06,2.3c-.47.57-1.09.99-1.88,1.26-.79.27-1.81.4-3.06.4h-2.92c-.91,0-1.59-.07-2.06-.22-.47-.15-.78-.46-.94-.94-.16-.48-.24-1.2-.24-2.16v-19.84c0-.99.08-1.71.24-2.18s.47-.79.94-.96c.47-.17,1.15-.27,2.06-.3v-.8c-.61.03-1.38.05-2.3.08-.92.03-1.85.04-2.78.04-1.04,0-2.01-.01-2.92-.04-.91-.03-1.64-.05-2.2-.08v.8c.91.03,1.59.13,2.06.3.47.17.78.49.94.96s.24,1.19.24,2.18v19.84c0,.96-.08,1.68-.24,2.16Z"></path><path class="cls-1" d="M330.83,233.03v.8c.56-.05,1.29-.09,2.2-.1.91-.01,1.88-.02,2.92-.02.77,0,1.55,0,2.32.02.77.01,1.43.05,1.96.1v-.8c-.43-.03-.89-.21-1.4-.54-.51-.33-.96-1.01-1.36-2.02l-9.76-25.16h-.64l-9.4,24.24c-.45,1.2-.96,2.05-1.52,2.54-.56.49-1.11.81-1.64.94v.8c.4-.05.83-.09,1.3-.1s1.03-.02,1.7-.02,1.45,0,2.26.02c.81.01,1.59.05,2.34.1v-.8c-.83-.03-1.51-.13-2.06-.32s-.93-.49-1.16-.92c-.23-.43-.3-1.01-.22-1.74.08-.73.33-1.63.76-2.7l1.63-4.24h9.67l2.46,6.56c.53,1.36.61,2.25.24,2.66-.37.41-1.24.65-2.6.7ZM321.37,222.31l4.6-11.94,4.47,11.94h-9.07Z"></path><path class="cls-1" d="M354.09,233.05c-.79.36-1.62.54-2.5.54-1.71,0-3.07-.42-4.1-1.26-1.03-.84-1.79-1.95-2.28-3.34-.49-1.39-.79-2.88-.9-4.48h-.92c0,1.87,0,3.41-.02,4.64-.01,1.23-.03,2.22-.04,2.98-.01.76-.05,1.42-.1,1.98h.92c.08-.59.18-1.03.3-1.32.12-.29.31-.44.58-.44.32,0,.77.19,1.36.56.59.35,1.29.68,2.12,1,.83.32,1.95.48,3.36.48,1.55,0,2.96-.28,4.24-.84,1.28-.56,2.31-1.4,3.08-2.52.77-1.12,1.16-2.53,1.16-4.24,0-1.44-.31-2.67-.94-3.68-.63-1.01-1.48-1.94-2.56-2.78s-2.31-1.69-3.7-2.54c-1.2-.75-2.31-1.45-3.34-2.1s-1.85-1.39-2.46-2.2-.92-1.82-.92-3.02c0-1.39.46-2.51,1.38-3.36s2.09-1.28,3.5-1.28c1.49,0,2.7.37,3.62,1.12.92.75,1.62,1.71,2.1,2.88.48,1.17.76,2.4.84,3.68h.92c0-1.68,0-3.03.02-4.06s.04-1.85.08-2.48c.04-.63.07-1.17.1-1.62h-.92c-.08.59-.18,1.03-.3,1.32-.12.29-.31.44-.58.44-.19,0-.38-.05-.58-.14-.2-.09-.46-.23-.78-.42-.53-.37-1.15-.71-1.84-1.02-.69-.31-1.71-.46-3.04-.46s-2.53.25-3.68.74-2.07,1.25-2.78,2.28c-.71,1.03-1.06,2.33-1.06,3.9s.33,2.77.98,3.82c.65,1.05,1.53,1.98,2.62,2.78,1.09.8,2.27,1.59,3.52,2.36,1.25.75,2.35,1.47,3.28,2.18.93.71,1.66,1.47,2.18,2.28.52.81.78,1.77.78,2.86,0,1.25-.25,2.27-.76,3.06-.51.79-1.15,1.36-1.94,1.72Z"></path><path class="cls-1" d="M367.71,231.75c-.16.48-.47.8-.94.96-.47.16-1.15.27-2.06.32v.8c.99-.03,2.03-.05,3.12-.06s2.17-.03,3.24-.04c1.07-.01,2.06-.02,2.98-.02h2.26c1.33,0,2.85,0,4.56.02,1.71.01,3.24.05,4.6.1-.11-1.01-.18-1.99-.22-2.94-.04-.95-.06-1.67-.06-2.18,0-1.2.04-2.16.12-2.88h-.92c-.19,1.76-.47,3.15-.86,4.18-.39,1.03-1.01,1.77-1.88,2.22-.87.45-2.14.68-3.82.68h-2.92c-.91,0-1.59-.07-2.06-.22-.47-.15-.78-.46-.94-.94-.16-.48-.24-1.2-.24-2.16v-9.6h2.64c1.17,0,2.01.26,2.5.78.49.52.81,1.19.96,2,.15.81.27,1.65.38,2.5h.92c-.11-1.52-.17-2.68-.2-3.48s-.04-1.53-.04-2.2,0-1.4-.02-2.2c-.01-.8.03-1.96.14-3.48h-.92c-.08.48-.16,1.02-.24,1.62-.08.6-.23,1.18-.44,1.74-.21.56-.55,1.02-1.02,1.38-.47.36-1.14.54-2.02.54h-2.64v-9.44c0-.99.08-1.71.24-2.18s.47-.77.94-.92c.47-.15,1.15-.22,2.06-.22h3.32c1.41,0,2.47.19,3.18.58.71.39,1.21,1.04,1.5,1.96.29.92.52,2.17.68,3.74h.92c-.03-.29-.05-.66-.08-1.1-.03-.44-.04-.9-.04-1.38,0-.45.02-1.12.06-2,.04-.88.11-1.79.22-2.72-1.23.05-2.62.09-4.18.1s-2.95.02-4.18.02h-2.26c-.92,0-1.91,0-2.98-.02-1.07-.01-2.15-.03-3.24-.04s-2.13-.03-3.12-.06v.8c.91.03,1.59.13,2.06.3.47.17.78.49.94.96s.24,1.19.24,2.18v19.84c0,.96-.08,1.68-.24,2.16Z"></path><path class="cls-1" d="M399.83,220.39h.72c1.07,0,1.87.24,2.42.72.55.48.97,1.14,1.28,1.98s.58,1.83.82,2.98l.88,4c.37,1.71.93,2.85,1.68,3.44.75.59,1.61.88,2.6.88,1.09,0,1.94-.22,2.54-.66.6-.44,1.18-1.07,1.74-1.9l-.6-.44c-.35.45-.67.81-.98,1.08-.31.27-.69.41-1.14.44-.59.03-1.02-.22-1.3-.74-.28-.52-.55-1.37-.82-2.54l-1-4.08c-.37-1.65-.95-2.87-1.74-3.66-.79-.79-2.07-1.33-3.86-1.62-.16-.03-.33-.04-.49-.07.9-.13,1.7-.33,2.41-.6,1.36-.52,2.43-1.18,3.22-1.98.79-.8,1.34-1.65,1.66-2.56.32-.91.48-1.76.48-2.56,0-1.31-.35-2.49-1.06-3.54-.71-1.05-1.77-1.89-3.2-2.5-1.43-.61-3.22-.92-5.38-.92-.48,0-1.29.01-2.44.04-1.15.03-2.35.04-3.6.04-.88,0-1.77-.01-2.68-.04-.91-.03-1.64-.05-2.2-.08v.8c.91.03,1.59.13,2.06.3.47.17.78.49.94.96s.24,1.19.24,2.18v19.84c0,.96-.08,1.68-.24,2.16-.16.48-.47.8-.94.96-.47.16-1.15.27-2.06.32v.8c.56-.05,1.29-.09,2.2-.1.91-.01,1.88-.02,2.92-.02.93,0,1.86,0,2.78.02s1.69.05,2.3.1v-.8c-.91-.05-1.59-.16-2.06-.32-.47-.16-.78-.48-.94-.96-.16-.48-.24-1.2-.24-2.16v-9.2h3.08ZM397.31,206.99c.37-.45,1.17-.68,2.4-.68,2.43,0,4.14.58,5.14,1.74s1.5,2.79,1.5,4.9c0,1.23-.18,2.34-.54,3.34-.36,1-1.04,1.8-2.04,2.4-1,.6-2.45.9-4.34.9h-2.68v-9.84c0-1.39.19-2.31.56-2.76Z"></path><path class="cls-1" d="M433.83,207.57c.16-.47.47-.79.94-.96.47-.17,1.15-.27,2.06-.3v-.8c-.61.03-1.38.05-2.3.08-.92.03-1.85.04-2.78.04-1.04,0-2.01-.01-2.92-.04-.91-.03-1.64-.05-2.2-.08v.8c.91.03,1.59.13,2.06.3.47.17.78.49.94.96s.24,1.19.24,2.18v19.84c0,.96-.08,1.68-.24,2.16-.16.48-.47.8-.94.96-.47.16-1.15.27-2.06.32v.8c.56-.05,1.29-.09,2.2-.1.91-.01,1.88-.02,2.92-.02.93,0,1.86,0,2.78.02s1.69.05,2.3.1v-.8c-.91-.05-1.59-.16-2.06-.32-.47-.16-.78-.48-.94-.96-.16-.48-.24-1.2-.24-2.16v-19.84c0-.99.08-1.71.24-2.18Z"></path><path class="cls-1" d="M461.61,207.87c.17.53.26,1.29.26,2.28v17.12l-14.12-21.76c-.43.03-.91.05-1.44.08-.53.03-1.09.04-1.68.04-.67,0-1.34-.01-2.02-.04-.68-.03-1.25-.05-1.7-.08v.8c.91.03,1.59.13,2.06.3.47.17.78.49.94.96s.24,1.19.24,2.18v19.44c0,.96-.08,1.71-.24,2.26-.16.55-.47.93-.94,1.16-.47.23-1.15.37-2.06.42v.8c.45-.05,1.02-.09,1.7-.1s1.35-.02,2.02-.02,1.43,0,2.2.02,1.4.05,1.88.1v-.8c-1.04-.05-1.82-.19-2.34-.42-.52-.23-.87-.61-1.04-1.16-.17-.55-.26-1.3-.26-2.26v-21.12l16.8,25.96h.92v-23.88c0-.99.08-1.75.24-2.28.16-.53.47-.92.94-1.16.47-.24,1.15-.37,2.06-.4v-.8c-.43.03-.98.05-1.66.08-.68.03-1.37.04-2.06.04s-1.39-.01-2.18-.04c-.79-.03-1.42-.05-1.9-.08v.8c1.04.03,1.82.16,2.34.4.52.24.87.63,1.04,1.16Z"></path><path class="cls-1" d="M471.93,232.79c.12-.29.31-.44.58-.44.32,0,.77.19,1.36.56.59.35,1.29.68,2.12,1,.83.32,1.95.48,3.36.48,1.55,0,2.96-.28,4.24-.84,1.28-.56,2.31-1.4,3.08-2.52.77-1.12,1.16-2.53,1.16-4.24,0-1.44-.31-2.67-.94-3.68-.63-1.01-1.48-1.94-2.56-2.78s-2.31-1.69-3.7-2.54c-1.2-.75-2.31-1.45-3.34-2.1s-1.85-1.39-2.46-2.2-.92-1.82-.92-3.02c0-1.39.46-2.51,1.38-3.36s2.09-1.28,3.5-1.28c1.49,0,2.7.37,3.62,1.12.92.75,1.62,1.71,2.1,2.88.48,1.17.76,2.4.84,3.68h.92c0-1.68,0-3.03.02-4.06s.04-1.85.08-2.48c.04-.63.07-1.17.1-1.62h-.92c-.08.59-.18,1.03-.3,1.32-.12.29-.31.44-.58.44-.19,0-.38-.05-.58-.14-.2-.09-.46-.23-.78-.42-.53-.37-1.15-.71-1.84-1.02-.69-.31-1.71-.46-3.04-.46s-2.53.25-3.68.74-2.07,1.25-2.78,2.28c-.71,1.03-1.06,2.33-1.06,3.9s.33,2.77.98,3.82c.65,1.05,1.53,1.98,2.62,2.78,1.09.8,2.27,1.59,3.52,2.36,1.25.75,2.35,1.47,3.28,2.18.93.71,1.66,1.47,2.18,2.28.52.81.78,1.77.78,2.86,0,1.25-.25,2.27-.76,3.06-.51.79-1.15,1.36-1.94,1.72-.79.36-1.62.54-2.5.54-1.71,0-3.07-.42-4.1-1.26-1.03-.84-1.79-1.95-2.28-3.34-.49-1.39-.79-2.88-.9-4.48h-.92c0,1.87,0,3.41-.02,4.64-.01,1.23-.03,2.22-.04,2.98-.01.76-.05,1.42-.1,1.98h.92c.08-.59.18-1.03.3-1.32Z"></path><path class="cls-1" d="M491.95,210.63c0,.64,0,1.24-.02,1.8-.01.56-.05,1.05-.1,1.48h.92c.19-1.87.44-3.34.76-4.42s.89-1.86,1.7-2.34c.81-.48,2.05-.72,3.7-.72h2.16v22.76c0,1.07-.1,1.87-.3,2.4-.2.53-.59.89-1.18,1.08-.59.19-1.44.31-2.56.36v.8c.64-.05,1.49-.09,2.54-.1s2.18-.02,3.38-.02c1.09,0,2.17,0,3.24.02s1.95.05,2.64.1v-.8c-1.12-.05-1.97-.17-2.56-.36-.59-.19-.98-.55-1.18-1.08-.2-.53-.3-1.33-.3-2.4v-22.76h2.16c1.68,0,2.92.24,3.72.72.8.48,1.36,1.26,1.68,2.34s.57,2.55.76,4.42h.92c-.03-.43-.05-.92-.08-1.48-.03-.56-.04-1.16-.04-1.8,0-.51.02-1.23.06-2.18s.11-1.93.22-2.94c-1.09.03-2.31.05-3.64.08-1.33.03-2.66.04-3.98.04h-7.26c-1.33,0-2.66-.01-3.98-.04-1.32-.03-2.54-.05-3.66-.08.11,1.01.18,1.99.22,2.94s.06,1.67.06,2.18Z"></path><path class="cls-1" d="M522.87,233.71c.93,0,1.86,0,2.78.02s1.69.05,2.3.1v-.8c-.91-.05-1.59-.16-2.06-.32-.47-.16-.78-.48-.94-.96-.16-.48-.24-1.2-.24-2.16v-19.84c0-.99.08-1.71.24-2.18s.47-.79.94-.96c.47-.17,1.15-.27,2.06-.3v-.8c-.61.03-1.38.05-2.3.08-.92.03-1.85.04-2.78.04-1.04,0-2.01-.01-2.92-.04-.91-.03-1.64-.05-2.2-.08v.8c.91.03,1.59.13,2.06.3.47.17.78.49.94.96s.24,1.19.24,2.18v19.84c0,.96-.08,1.68-.24,2.16-.16.48-.47.8-.94.96-.47.16-1.15.27-2.06.32v.8c.56-.05,1.29-.09,2.2-.1.91-.01,1.88-.02,2.92-.02Z"></path><path class="cls-1" d="M531.79,210.63c0,.64,0,1.24-.02,1.8-.01.56-.05,1.05-.1,1.48h.92c.19-1.87.44-3.34.76-4.42s.89-1.86,1.7-2.34c.81-.48,2.05-.72,3.7-.72h2.16v22.76c0,1.07-.1,1.87-.3,2.4-.2.53-.59.89-1.18,1.08-.59.19-1.44.31-2.56.36v.8c.64-.05,1.49-.09,2.54-.1s2.18-.02,3.38-.02c1.09,0,2.17,0,3.24.02s1.95.05,2.64.1v-.8c-1.12-.05-1.97-.17-2.56-.36-.59-.19-.98-.55-1.18-1.08-.2-.53-.3-1.33-.3-2.4v-22.76h2.16c1.68,0,2.92.24,3.72.72.8.48,1.36,1.26,1.68,2.34s.57,2.55.76,4.42h.92c-.03-.43-.05-.92-.08-1.48-.03-.56-.04-1.16-.04-1.8,0-.51.02-1.23.06-2.18s.11-1.93.22-2.94c-1.09.03-2.31.05-3.64.08-1.33.03-2.66.04-3.98.04h-7.26c-1.33,0-2.66-.01-3.98-.04-1.32-.03-2.54-.05-3.66-.08.11,1.01.18,1.99.22,2.94s.06,1.67.06,2.18Z"></path><path class="cls-1" d="M559.99,207.57c.16.47.24,1.19.24,2.18v12.56c0,1.81.08,3.32.24,4.52.16,1.2.46,2.21.9,3.04.44.83,1.05,1.61,1.82,2.36.88.83,1.9,1.39,3.06,1.7,1.16.31,2.38.46,3.66.46,1.65,0,3.12-.34,4.4-1.02,1.28-.68,2.25-1.58,2.92-2.7.61-1.01,1.04-2.21,1.28-3.6.24-1.39.36-3.01.36-4.88v-12.04c0-.99.08-1.75.24-2.28.16-.53.47-.92.94-1.16s1.15-.37,2.06-.4v-.8c-.43.03-.98.05-1.66.08-.68.03-1.37.04-2.06.04s-1.39-.01-2.18-.04c-.79-.03-1.42-.05-1.9-.08v.8c.91.03,1.63.16,2.16.4s.91.63,1.14,1.16c.23.53.34,1.29.34,2.28v12.48c0,1.97-.22,3.75-.66,5.32-.44,1.57-1.21,2.81-2.32,3.7s-2.67,1.34-4.7,1.34c-1.41,0-2.55-.26-3.4-.78-.85-.52-1.49-1.24-1.9-2.16s-.69-1.99-.82-3.2c-.13-1.21-.2-2.5-.2-3.86v-13.24c0-.99.08-1.71.24-2.18s.47-.79.94-.96,1.15-.27,2.06-.3v-.8c-.61.03-1.38.05-2.3.08-.92.03-1.85.04-2.78.04-1.04,0-2.01-.01-2.92-.04-.91-.03-1.64-.05-2.2-.08v.8c.91.03,1.59.13,2.06.3s.78.49.94.96Z"></path><path class="cls-1" d="M585.35,210.63c0,.64,0,1.24-.02,1.8-.01.56-.05,1.05-.1,1.48h.92c.19-1.87.44-3.34.76-4.42s.89-1.86,1.7-2.34c.81-.48,2.05-.72,3.7-.72h2.16v22.76c0,1.07-.1,1.87-.3,2.4-.2.53-.59.89-1.18,1.08-.59.19-1.44.31-2.56.36v.8c.64-.05,1.49-.09,2.54-.1s2.18-.02,3.38-.02c1.09,0,2.17,0,3.24.02s1.95.05,2.64.1v-.8c-1.12-.05-1.97-.17-2.56-.36-.59-.19-.98-.55-1.18-1.08-.2-.53-.3-1.33-.3-2.4v-22.76h2.16c1.68,0,2.92.24,3.72.72.8.48,1.36,1.26,1.68,2.34s.57,2.55.76,4.42h.92c-.03-.43-.05-.92-.08-1.48-.03-.56-.04-1.16-.04-1.8,0-.51.02-1.23.06-2.18s.11-1.93.22-2.94c-1.09.03-2.31.05-3.64.08-1.33.03-2.66.04-3.98.04h-7.26c-1.33,0-2.66-.01-3.98-.04-1.32-.03-2.54-.05-3.66-.08.11,1.01.18,1.99.22,2.94s.06,1.67.06,2.18Z"></path><path class="cls-1" d="M617.51,233.73c1.07-.01,2.06-.02,2.98-.02h2.26c1.33,0,2.85,0,4.56.02,1.71.01,3.24.05,4.6.1-.11-1.01-.18-1.99-.22-2.94-.04-.95-.06-1.67-.06-2.18,0-1.2.04-2.16.12-2.88h-.92c-.19,1.76-.47,3.15-.86,4.18-.39,1.03-1.01,1.77-1.88,2.22-.87.45-2.14.68-3.82.68h-2.92c-.91,0-1.59-.07-2.06-.22-.47-.15-.78-.46-.94-.94-.16-.48-.24-1.2-.24-2.16v-9.6h2.64c1.17,0,2.01.26,2.5.78.49.52.81,1.19.96,2,.15.81.27,1.65.38,2.5h.92c-.11-1.52-.17-2.68-.2-3.48s-.04-1.53-.04-2.2,0-1.4-.02-2.2c-.01-.8.03-1.96.14-3.48h-.92c-.08.48-.16,1.02-.24,1.62-.08.6-.23,1.18-.44,1.74-.21.56-.55,1.02-1.02,1.38-.47.36-1.14.54-2.02.54h-2.64v-9.44c0-.99.08-1.71.24-2.18s.47-.77.94-.92c.47-.15,1.15-.22,2.06-.22h3.32c1.41,0,2.47.19,3.18.58.71.39,1.21,1.04,1.5,1.96.29.92.52,2.17.68,3.74h.92c-.03-.29-.05-.66-.08-1.1-.03-.44-.04-.9-.04-1.38,0-.45.02-1.12.06-2,.04-.88.11-1.79.22-2.72-1.23.05-2.62.09-4.18.1s-2.95.02-4.18.02h-2.26c-.92,0-1.91,0-2.98-.02-1.07-.01-2.15-.03-3.24-.04s-2.13-.03-3.12-.06v.8c.91.03,1.59.13,2.06.3.47.17.78.49.94.96s.24,1.19.24,2.18v19.84c0,.96-.08,1.68-.24,2.16-.16.48-.47.8-.94.96-.47.16-1.15.27-2.06.32v.8c.99-.03,2.03-.05,3.12-.06s2.17-.03,3.24-.04Z"></path><path class="cls-1" d="M3.72,233.71c.69,0,1.43,0,2.2.02s1.4.05,1.88.1v-.8c-1.04-.05-1.82-.19-2.34-.42-.52-.23-.87-.61-1.04-1.16-.17-.55-.26-1.3-.26-2.26v-21.12l10.08,25.96h.64l9.64-25.89v21.45c0,.96-.08,1.68-.24,2.16-.16.48-.47.8-.94.96s-1.15.27-2.06.32v.8c.56-.05,1.29-.09,2.2-.1.91-.01,1.88-.02,2.92-.02.93,0,1.86,0,2.78.02s1.69.05,2.3.1v-.8c-.91-.05-1.59-.16-2.06-.32s-.78-.48-.94-.96c-.16-.48-.24-1.2-.24-2.16v-19.84c0-.99.08-1.71.24-2.18s.47-.79.94-.96,1.15-.27,2.06-.3v-.8c-.61.03-1.38.05-2.3.08-.92.03-1.85.04-2.78.04h-1.88l-8.6,23.06-8.8-23.18c-.43.03-.95.05-1.58.08-.63.03-1.23.04-1.82.04-.67,0-1.34-.01-2.02-.04-.68-.03-1.25-.05-1.7-.08v.8c.91.03,1.59.13,2.06.3.47.17.78.49.94.96s.24,1.19.24,2.18v19.44c0,.96-.08,1.71-.24,2.26-.16.55-.47.93-.94,1.16-.47.23-1.15.37-2.06.42v.8c.45-.05,1.02-.09,1.7-.1s1.35-.02,2.02-.02Z"></path><path class="cls-1" d="M41.92,233.73c1.07-.01,2.06-.02,2.98-.02h2.26c1.33,0,2.85,0,4.56.02,1.71.01,3.24.05,4.6.1-.11-1.01-.18-1.99-.22-2.94-.04-.95-.06-1.67-.06-2.18,0-1.2.04-2.16.12-2.88h-.92c-.19,1.76-.47,3.15-.86,4.18-.39,1.03-1.01,1.77-1.88,2.22-.87.45-2.14.68-3.82.68h-2.92c-.91,0-1.59-.07-2.06-.22-.47-.15-.78-.46-.94-.94-.16-.48-.24-1.2-.24-2.16v-9.6h2.64c1.17,0,2.01.26,2.5.78.49.52.81,1.19.96,2,.15.81.27,1.65.38,2.5h.92c-.11-1.52-.17-2.68-.2-3.48s-.04-1.53-.04-2.2,0-1.4-.02-2.2c-.01-.8.03-1.96.14-3.48h-.92c-.08.48-.16,1.02-.24,1.62-.08.6-.23,1.18-.44,1.74-.21.56-.55,1.02-1.02,1.38-.47.36-1.14.54-2.02.54h-2.64v-9.44c0-.99.08-1.71.24-2.18s.47-.77.94-.92c.47-.15,1.15-.22,2.06-.22h3.32c1.41,0,2.47.19,3.18.58.71.39,1.21,1.04,1.5,1.96.29.92.52,2.17.68,3.74h.92c-.03-.29-.05-.66-.08-1.1-.03-.44-.04-.9-.04-1.38,0-.45.02-1.12.06-2,.04-.88.11-1.79.22-2.72-1.23.05-2.62.09-4.18.1s-2.95.02-4.18.02h-2.26c-.92,0-1.91,0-2.98-.02-1.07-.01-2.15-.03-3.24-.04s-2.13-.03-3.12-.06v.8c.91.03,1.59.13,2.06.3.47.17.78.49.94.96s.24,1.19.24,2.18v19.84c0,.96-.08,1.68-.24,2.16-.16.48-.47.8-.94.96-.47.16-1.15.27-2.06.32v.8c.99-.03,2.03-.05,3.12-.06s2.17-.03,3.24-.04Z"></path><path class="cls-1" d="M65.6,233.71c.59,0,1.23,0,1.94.02.71.01,1.39.03,2.06.06.67.03,1.2.04,1.6.04,3.07,0,5.68-.6,7.84-1.8s3.81-2.89,4.94-5.06c1.13-2.17,1.7-4.71,1.7-7.62,0-4.45-1.16-7.87-3.48-10.26-2.32-2.39-5.87-3.58-10.64-3.58-.75,0-1.71.01-2.88.04-1.17.03-2.23.05-3.16.08-.88.03-1.77.02-2.68-.02-.91-.04-1.64-.07-2.2-.1v.8c.91.03,1.59.13,2.06.3.47.17.78.49.94.96s.24,1.19.24,2.18v19.84c0,.96-.08,1.68-.24,2.16-.16.48-.47.8-.94.96-.47.16-1.15.27-2.06.32v.8c.56-.05,1.29-.09,2.2-.1.91-.01,1.83-.02,2.76-.02ZM67.6,209.67c0-1.39.19-2.31.56-2.76.37-.45,1.17-.68,2.4-.68,2.77,0,4.97.49,6.58,1.46s2.77,2.44,3.48,4.4c.71,1.96,1.06,4.43,1.06,7.42s-.32,5.37-.96,7.4c-.64,2.03-1.76,3.57-3.36,4.62-1.6,1.05-3.85,1.58-6.76,1.58-1.23,0-2.03-.23-2.42-.68-.39-.45-.58-1.37-.58-2.76v-20Z"></path><path class="cls-1" d="M95.04,233.71c.93,0,1.86,0,2.78.02s1.69.05,2.3.1v-.8c-.91-.05-1.59-.16-2.06-.32-.47-.16-.78-.48-.94-.96-.16-.48-.24-1.2-.24-2.16v-19.84c0-.99.08-1.71.24-2.18s.47-.79.94-.96c.47-.17,1.15-.27,2.06-.3v-.8c-.61.03-1.38.05-2.3.08-.92.03-1.85.04-2.78.04-1.04,0-2.01-.01-2.92-.04-.91-.03-1.64-.05-2.2-.08v.8c.91.03,1.59.13,2.06.3.47.17.78.49.94.96s.24,1.19.24,2.18v19.84c0,.96-.08,1.68-.24,2.16-.16.48-.47.8-.94.96-.47.16-1.15.27-2.06.32v.8c.56-.05,1.29-.09,2.2-.1.91-.01,1.88-.02,2.92-.02Z"></path><path class="cls-1" d="M110.34,232.67c1.91,1.15,4.13,1.72,6.66,1.72,1.73,0,3.15-.26,4.26-.78,1.11-.52,2.15-1.13,3.14-1.82.59-.37,1.01-.41,1.26-.12.25.29.43,1.01.54,2.16h.92c-.05-1.01-.09-2.26-.12-3.74-.03-1.48-.04-3.43-.04-5.86h-.92c-.19,1.63-.39,2.89-.62,3.8s-.63,1.75-1.22,2.52c-.75,1.07-1.77,1.84-3.08,2.32-1.31.48-2.56.72-3.76.72-1.28,0-2.47-.3-3.58-.9-1.11-.6-2.07-1.49-2.88-2.66-.81-1.17-1.45-2.62-1.9-4.34-.45-1.72-.68-3.7-.68-5.94s.21-4.11.62-5.84c.41-1.73,1-3.21,1.76-4.44.76-1.23,1.67-2.17,2.72-2.82s2.23-.98,3.54-.98c1.39,0,2.71.25,3.96.74,1.25.49,2.29,1.29,3.12,2.38.37.48.67.96.9,1.44.23.48.42,1.06.58,1.74.16.68.33,1.59.52,2.74h.92c0-2.32.01-4.19.04-5.6s.07-2.61.12-3.6h-.92c-.11,1.15-.3,1.87-.58,2.18s-.69.26-1.22-.14c-.88-.69-1.89-1.3-3.02-1.82-1.13-.52-2.58-.78-4.34-.78-2.48,0-4.67.63-6.58,1.88-1.91,1.25-3.41,3-4.5,5.24s-1.64,4.85-1.64,7.84.53,5.64,1.58,7.8c1.05,2.16,2.53,3.81,4.44,4.96Z"></path><path class="cls-1" d="M133.16,233.71c.69,0,1.45,0,2.26.02.81.01,1.59.05,2.34.1v-.8c-.83-.03-1.51-.13-2.06-.32s-.93-.49-1.16-.92c-.23-.43-.3-1.01-.22-1.74.08-.73.33-1.63.76-2.7l1.63-4.24h9.67l2.46,6.56c.53,1.36.61,2.25.24,2.66-.37.41-1.24.65-2.6.7v.8c.56-.05,1.29-.09,2.2-.1.91-.01,1.88-.02,2.92-.02.77,0,1.55,0,2.32.02.77.01,1.43.05,1.96.1v-.8c-.43-.03-.89-.21-1.4-.54-.51-.33-.96-1.01-1.36-2.02l-9.76-25.16h-.64l-9.4,24.24c-.45,1.2-.96,2.05-1.52,2.54-.56.49-1.11.81-1.64.94v.8c.4-.05.83-.09,1.3-.1s1.03-.02,1.7-.02ZM146.09,222.31h-9.07l4.6-11.94,4.47,11.94Z"></path><path class="cls-1" d="M163.6,233.73c1.07-.01,2.06-.02,2.98-.02h2.26c1.33,0,2.85,0,4.56.02,1.71.01,3.24.05,4.6.1-.11-1.01-.18-1.99-.22-2.94-.04-.95-.06-1.67-.06-2.18,0-1.36.04-2.45.12-3.28h-.92c-.13,1.39-.32,2.56-.56,3.52s-.59,1.73-1.06,2.3c-.47.57-1.09.99-1.88,1.26-.79.27-1.81.4-3.06.4h-2.92c-.91,0-1.59-.07-2.06-.22-.47-.15-.78-.46-.94-.94-.16-.48-.24-1.2-.24-2.16v-19.84c0-.99.08-1.71.24-2.18s.47-.79.94-.96c.47-.17,1.15-.27,2.06-.3v-.8c-.61.03-1.38.05-2.3.08-.92.03-1.85.04-2.78.04-1.04,0-2.01-.01-2.92-.04-.91-.03-1.64-.05-2.2-.08v.8c.91.03,1.59.13,2.06.3.47.17.78.49.94.96s.24,1.19.24,2.18v19.84c0,.96-.08,1.68-.24,2.16-.16.48-.47.8-.94.96-.47.16-1.15.27-2.06.32v.8c.99-.03,2.03-.05,3.12-.06s2.17-.03,3.24-.04Z"></path><path class="cls-1" d="M203.86,233.05c-.79.36-1.62.54-2.5.54-1.71,0-3.07-.42-4.1-1.26-1.03-.84-1.79-1.95-2.28-3.34-.49-1.39-.79-2.88-.9-4.48h-.92c0,1.87,0,3.41-.02,4.64-.01,1.23-.03,2.22-.04,2.98-.01.76-.05,1.42-.1,1.98h.92c.08-.59.18-1.03.3-1.32.12-.29.31-.44.58-.44.32,0,.77.19,1.36.56.59.35,1.29.68,2.12,1,.83.32,1.95.48,3.36.48,1.55,0,2.96-.28,4.24-.84,1.28-.56,2.31-1.4,3.08-2.52.77-1.12,1.16-2.53,1.16-4.24,0-1.44-.31-2.67-.94-3.68-.63-1.01-1.48-1.94-2.56-2.78s-2.31-1.69-3.7-2.54c-1.2-.75-2.31-1.45-3.34-2.1s-1.85-1.39-2.46-2.2-.92-1.82-.92-3.02c0-1.39.46-2.51,1.38-3.36s2.09-1.28,3.5-1.28c1.49,0,2.7.37,3.62,1.12.92.75,1.62,1.71,2.1,2.88.48,1.17.76,2.4.84,3.68h.92c0-1.68,0-3.03.02-4.06s.04-1.85.08-2.48c.04-.63.07-1.17.1-1.62h-.92c-.08.59-.18,1.03-.3,1.32-.12.29-.31.44-.58.44-.19,0-.38-.05-.58-.14-.2-.09-.46-.23-.78-.42-.53-.37-1.15-.71-1.84-1.02-.69-.31-1.71-.46-3.04-.46s-2.53.25-3.68.74-2.07,1.25-2.78,2.28c-.71,1.03-1.06,2.33-1.06,3.9s.33,2.77.98,3.82c.65,1.05,1.53,1.98,2.62,2.78,1.09.8,2.27,1.59,3.52,2.36,1.25.75,2.35,1.47,3.28,2.18.93.71,1.66,1.47,2.18,2.28.52.81.78,1.77.78,2.86,0,1.25-.25,2.27-.76,3.06-.51.79-1.15,1.36-1.94,1.72Z"></path><path class="cls-1" d="M224.52,222.39c2.08,0,3.8-.28,5.16-.84,1.36-.56,2.43-1.29,3.22-2.18.79-.89,1.34-1.87,1.66-2.92.32-1.05.48-2.06.48-3.02,0-2.32-.8-4.21-2.4-5.68-1.6-1.47-4.01-2.2-7.24-2.2-.48,0-1.29.01-2.44.04-1.15.03-2.35.04-3.6.04-.88,0-1.77-.01-2.68-.04-.91-.03-1.64-.05-2.2-.08v.8c.91.03,1.59.13,2.06.3.47.17.78.49.94.96s.24,1.19.24,2.18v19.84c0,.96-.08,1.68-.24,2.16-.16.48-.47.8-.94.96-.47.16-1.15.27-2.06.32v.8c.56-.05,1.29-.09,2.2-.1.91-.01,1.88-.02,2.92-.02,1.09,0,2.17,0,3.24.02,1.07.01,1.95.05,2.64.1v-.8c-1.12-.05-1.97-.16-2.56-.32-.59-.16-.98-.48-1.18-.96-.2-.48-.3-1.2-.3-2.16v-7.2h3.08ZM222,206.99c.37-.45,1.17-.68,2.4-.68,2.43,0,4.14.63,5.14,1.88,1,1.25,1.5,3.15,1.5,5.68,0,1.36-.18,2.63-.54,3.8-.36,1.17-1.04,2.12-2.04,2.84-1,.72-2.45,1.08-4.34,1.08h-2.68v-11.84c0-1.39.19-2.31.56-2.76Z"></path><path class="cls-1" d="M251.32,233.03v.8c.56-.05,1.29-.09,2.2-.1.91-.01,1.88-.02,2.92-.02.77,0,1.55,0,2.32.02.77.01,1.43.05,1.96.1v-.8c-.43-.03-.89-.21-1.4-.54-.51-.33-.96-1.01-1.36-2.02l-9.76-25.16h-.64l-9.4,24.24c-.45,1.2-.96,2.05-1.52,2.54-.56.49-1.11.81-1.64.94v.8c.4-.05.83-.09,1.3-.1s1.03-.02,1.7-.02,1.45,0,2.26.02c.81.01,1.59.05,2.34.1v-.8c-.83-.03-1.51-.13-2.06-.32s-.93-.49-1.16-.92c-.23-.43-.3-1.01-.22-1.74.08-.73.33-1.63.76-2.7l1.63-4.24h9.67l2.46,6.56c.53,1.36.61,2.25.24,2.66-.37.41-1.24.65-2.6.7ZM241.86,222.31l4.6-11.94,4.47,11.94h-9.07Z"></path></g></g></svg>